<?xml version="1.0" encoding="UTF-8" standalone="no"?>
<!-- Created with Inkscape (http://www.inkscape.org/) -->

<svg
   xmlns:dc="http://purl.org/dc/elements/1.1/"
   xmlns:cc="http://creativecommons.org/ns#"
   xmlns:rdf="http://www.w3.org/1999/02/22-rdf-syntax-ns#"
   xmlns:svg="http://www.w3.org/2000/svg"
   xmlns="http://www.w3.org/2000/svg"
   xmlns:sodipodi="http://sodipodi.sourceforge.net/DTD/sodipodi-0.dtd"
   xmlns:inkscape="http://www.inkscape.org/namespaces/inkscape"
   width="800"
   height="170"
   viewBox="0 0 800.00001 170"
   id="svg4295"
   version="1.1"
   inkscape:version="0.91 r13725"
   sodipodi:docname="Banner_JH-Nord-2016.svg">
  <defs
     id="defs4297" />
  <sodipodi:namedview
     id="base"
     pagecolor="#ffffff"
     bordercolor="#666666"
     borderopacity="1.0"
     inkscape:pageopacity="0.0"
     inkscape:pageshadow="2"
     inkscape:zoom="0.7"
     inkscape:cx="551.25571"
     inkscape:cy="250.55668"
     inkscape:document-units="px"
     inkscape:current-layer="layer1"
     showgrid="false"
     units="px"
     inkscape:window-width="1596"
     inkscape:window-height="861"
     inkscape:window-x="0"
     inkscape:window-y="18"
     inkscape:window-maximized="0" />
  <metadata
     id="metadata4300">
    <rdf:RDF>
      <cc:Work
         rdf:about="">
        <dc:format>image/svg+xml</dc:format>
        <dc:type
           rdf:resource="http://purl.org/dc/dcmitype/StillImage" />
        <dc:title></dc:title>
      </cc:Work>
    </rdf:RDF>
  </metadata>
  <g
     inkscape:label="Ebene 1"
     inkscape:groupmode="layer"
     id="layer1"
     transform="translate(0,-882.36216)">
    <g
       transform="translate(297,886.16216)"
       id="g3">
      <g
         id="g5">
        <g
           id="g7">
          <path
             style="fill:#22b573"
             inkscape:connector-curvature="0"
             d="m -292,14.2 0,13.1 0,13.9 0,13.9 0,13.9 0,13.9 0,13.9 0,13.9 0,14.7 13.9,0 0,13.9 13.9,0 0,13.7 27,0 13.9,0 13.9,0 13.9,0 13.9,0 14.7,0 0,-13.9 13.9,0 0,-13.9 13.9,0 0,-14.7 0,-13.8 0,-13.9 0,-13.9 0,-13.8 0,-13.9 0,-13.9 0,-13.1 -13.9,0 0,-13.9 -27.8,0 0,13.9 -13.9,0 0,13.9 -14.7,0 -13.9,0 -13.1,0 0,-13.9 -13.9,0 0,-13.9 -27.8,0 0,13.9 -13.9,0 z m 13.9,55.5 10.8,0 0,-13.9 100.3,0 0,13.9 13.9,0 0,13.1 0,13.9 0,14.7 -13.9,0 0,13.9 -13.9,0 0,13.9 -14.7,0 -13.9,0 -13.9,0 -13.9,0 -13.1,0 0,-13.9 -13.9,0 0,-13.9 -13.9,0 0,-14.7 0,-13.9 0,-13.1 z"
             id="path9" />
        </g>
      </g>
      <g
         id="g11">
        <path
           style="fill:#ffffff"
           inkscape:connector-curvature="0"
           d="m -279.4,70.2 0,13.3 0,13.9 0,13.9 16,0 0,14 13,0 0,15 14.8,0 13.9,0 13.9,0 13.9,0 13.6,0 0,-15 13,0 0,-14 13,0 0,-13.9 0,-13.9 0,-13.3 -13,0 0,-14 -12.7,0 -14,0 -13.9,0 -13.9,0 -13.9,0 -33.8,0 0,14 -9.9,0 z"
           id="path13" />
        <rect
           x="-180.39999"
           y="83.199997"
           width="13"
           height="15"
           id="rect15" />
        <rect
           x="-263.39999"
           y="83.199997"
           width="13"
           height="15"
           id="rect17" />
        <rect
           x="-209.39999"
           y="98.199997"
           width="14"
           height="13"
           id="rect19" />
        <rect
           x="-237.39999"
           y="111.2"
           width="42"
           height="14"
           id="rect21" />
        <rect
           x="-237.39999"
           y="98.199997"
           width="15"
           height="13"
           id="rect23" />
      </g>
    </g>
    <g
       transform="translate(297,886.16216)"
       id="g123">
      <polygon
         style="fill:#22b573"
         points="0,161.2 32.8,129.1 215.3,129.1 269.3,76 0,76 0,133.4 0,129.1 "
         id="polygon125" />
      <polygon
         style="fill:#00a5dd"
         points="29.5,76.5 500.2,76.5 500.2,57.4 500.2,0 0,0 0,57.4 0,76.5 0,106.2 "
         id="polygon127" />
      <path
         style="fill:#ffffff"
         inkscape:connector-curvature="0"
         d="m 468.2,22.1 4.7,0 0,-4.8 -4.7,0 0,4.8 z m -6.3,0 4.7,0 0,-4.8 -4.7,0 0,4.8 z m -6.3,0 4.7,0 0,-4.8 -4.7,0 0,4.8 z m -6.3,0 4.7,0 0,-4.8 -4.7,0 0,4.8 z m -6.3,0 4.7,0 0,-4.8 -4.7,0 0,4.8 z m -12.6,0 4.7,0 0,-4.8 -4.7,0 0,4.8 z m -25.2,0 4.7,0 0,-4.8 -4.7,0 0,4.8 z m -18.9,0 4.7,0 0,-4.8 -4.7,0 0,4.8 z m -6.3,0 4.7,0 0,-4.8 -4.7,0 0,4.8 z m -6.3,0 4.7,0 0,-4.8 -4.7,0 0,4.8 z m -31.5,0 4.7,0 0,-4.8 -4.7,0 0,4.8 z m -25.2,0 4.7,0 0,-4.8 -4.7,0 0,4.8 z m -25.2,0 4.7,0 0,-4.8 -4.7,0 0,4.8 z m -56.6,0 4.7,0 0,-4.8 -4.7,0 0,4.8 z m -6.3,0 4.7,0 0,-4.8 -4.7,0 0,4.8 z m -6.4,0 4.7,0 0,-4.8 -4.7,0 0,4.8 z m -6.2,0 4.7,0 0,-4.8 -4.7,0 0,4.8 z m -12.6,0 4.7,0 0,-4.8 -4.7,0 0,4.8 z m -25.2,0 4.7,0 0,-4.8 -4.7,0 0,4.8 z m -12.6,0 4.7,0 0,-4.8 -4.7,0 0,4.8 z m -6.3,0 4.7,0 0,-4.8 -4.7,0 0,4.8 z m -6.3,0 4.7,0 0,-4.8 -4.7,0 0,4.8 z m -6.3,0 4.7,0 0,-4.8 -4.7,0 0,4.8 z m -25.2,0 4.7,0 0,-4.8 -4.7,0 0,4.8 z m -6.3,0 4.7,0 0,-4.8 -4.7,0 0,4.8 z m -6.3,0 4.7,0 0,-4.8 -4.7,0 0,4.8 z m -18.9,0 4.7,0 0,-4.8 -4.7,0 0,4.8 z m -25.2,0 4.7,0 0,-4.8 -4.7,0 0,4.8 z m -18.9,0 4.7,0 0,-4.8 -4.7,0 0,4.8 z m -6.3,0 4.7,0 0,-4.8 -4.7,0 0,4.8 z m -6.3,0 4.7,0 0,-4.8 -4.7,0 0,4.8 z m -6.3,0 4.7,0 0,-4.8 -4.7,0 0,4.8 z m 321.2,1.6 4.7,0 0,-4.8 -4.7,0 0,4.8 z m -12.6,0 4.7,0 0,-4.8 -4.7,0 0,4.8 z m 56.7,1.5 4.7,0 0,-4.8 -4.7,0 0,4.8 z m -25.2,0 4.7,0 0,-4.8 -4.7,0 0,4.8 z m -125.9,0 4.7,0 0,-4.8 -4.7,0 0,4.8 z m -100.8,0 4.7,0 0,-4.8 -4.7,0 0,4.8 z m -12.6,0 4.7,0 0,-4.8 -4.7,0 0,4.8 z m -25.2,0 4.7,0 0,-4.8 -4.7,0 0,4.8 z m -50.4,0 4.7,0 0,-4.8 -4.7,0 0,4.8 z m 403.1,3.2 4.7,0 0,-4.8 -4.7,0 0,4.8 z m -31.5,0 4.7,0 0,-4.8 -4.7,0 0,4.8 z m -18.9,0 4.7,0 0,-4.8 -4.7,0 0,4.8 z m -50.4,0 4.7,0 0,-4.8 -4.7,0 0,4.8 z m -25.2,0 4.7,0 0,-4.8 -4.7,0 0,4.8 z m -12.6,0 4.7,0 0,-4.8 -4.7,0 0,4.8 z m -25.2,0 4.7,0 0,-4.8 -4.7,0 0,4.8 z m -75.5,0 4.7,0 0,-4.8 -4.7,0 0,4.8 z m -12.6,0 4.7,0 0,-4.8 -4.7,0 0,4.8 z m -25.2,0 4.7,0 0,-4.8 -4.7,0 0,4.8 z m -88.2,0 4.7,0 0,-4.8 -4.7,0 0,4.8 z m -25.2,0 4.7,0 0,-4.8 -4.7,0 0,4.8 z m -37.8,0 4.7,0 0,-4.8 -4.7,0 0,4.8 z m 340.1,3.2 4.7,0 0,-4.8 -4.7,0 0,4.8 z m -125.9,0 4.7,0 0,-4.8 -4.7,0 0,4.8 z m -100.8,0 4.7,0 0,-4.8 -4.7,0 0,4.8 z m -37.8,0 4.7,0 0,-4.8 -4.7,0 0,4.8 z m -50.4,0 4.7,0 0,-4.8 -4.7,0 0,4.8 z m 403.1,3.1 4.7,0 0,-4.7 -4.7,0 0,4.7 z m -37.8,0 4.7,0 0,-4.7 -4.7,0 0,4.7 z m -12.6,0 4.7,0 0,-4.7 -4.7,0 0,4.7 z m -50.4,0 4.7,0 0,-4.7 -4.7,0 0,4.7 z m -25.2,0 4.7,0 0,-4.7 -4.7,0 0,4.7 z m -12.6,0 4.7,0 0,-4.7 -4.7,0 0,4.7 z m -25.2,0 4.7,0 0,-4.7 -4.7,0 0,4.7 z m -75.5,0 4.7,0 0,-4.7 -4.7,0 0,4.7 z m -12.6,0 4.7,0 0,-4.7 -4.7,0 0,4.7 z m -18.9,0 4.7,0 0,-4.7 -4.7,0 0,4.7 z m -6.3,0 4.7,0 0,-4.7 -4.7,0 0,4.7 z m -88.2,0 4.7,0 0,-4.7 -4.7,0 0,4.7 z m -25.2,0 4.7,0 0,-4.7 -4.7,0 0,4.7 z m 302.3,3.2 4.7,0 0,-4.8 -4.7,0 0,4.8 z m -125.9,0 4.7,0 0,-4.8 -4.7,0 0,4.8 z m -100.8,0 4.7,0 0,-4.8 -4.7,0 0,4.8 z m -37.8,0 4.7,0 0,-4.8 -4.7,0 0,4.8 z m -50.4,0 4.7,0 0,-4.8 -4.7,0 0,4.8 z m 403.1,3.2 4.7,0 0,-4.8 -4.7,0 0,4.8 z m -44.1,0 4.7,0 0,-4.8 -4.7,0 0,4.8 z m -6.3,0 4.7,0 0,-4.8 -4.7,0 0,4.8 z m -50.4,0 4.7,0 0,-4.8 -4.7,0 0,4.8 z m -25.2,0 4.7,0 0,-4.8 -4.7,0 0,4.8 z m -12.6,0 4.7,0 0,-4.8 -4.7,0 0,4.8 z m -6.3,0 4.7,0 0,-4.8 -4.7,0 0,4.8 z m -6.3,0 4.7,0 0,-4.8 -4.7,0 0,4.8 z m -6.3,0 4.7,0 0,-4.8 -4.7,0 0,4.8 z m -6.3,0 4.7,0 0,-4.8 -4.7,0 0,4.8 z m -75.5,0 4.7,0 0,-4.8 -4.7,0 0,4.8 z m -12.6,0 4.7,0 0,-4.8 -4.7,0 0,4.8 z m -12.6,0 4.7,0 0,-4.8 -4.7,0 0,4.8 z m -12.6,0 4.7,0 0,-4.8 -4.7,0 0,4.8 z m -18.9,0 4.7,0 0,-4.8 -4.7,0 0,4.8 z m -6.3,0 4.7,0 0,-4.8 -4.7,0 0,4.8 z m -6.3,0 4.7,0 0,-4.8 -4.7,0 0,4.8 z m -56.7,0 4.7,0 0,-4.8 -4.7,0 0,4.8 z m -25.2,0 4.7,0 0,-4.8 -4.7,0 0,4.8 z m 302.3,3.2 4.7,0 0,-4.8 -4.7,0 0,4.8 z m -18.9,0 4.7,0 0,-4.8 -4.7,0 0,4.8 z m -6.3,0 4.7,0 0,-4.8 -4.7,0 0,4.8 z m -6.3,0 4.7,0 0,-4.8 -4.7,0 0,4.8 z m -94.4,0 4.7,0 0,-4.8 -4.7,0 0,4.8 z m -100.8,0 4.7,0 0,-4.8 -4.7,0 0,4.8 z m -12.6,0 4.7,0 0,-4.8 -4.7,0 0,4.8 z m -6.3,0 4.7,0 0,-4.8 -4.7,0 0,4.8 z m -6.3,0 4.7,0 0,-4.8 -4.7,0 0,4.8 z m -12.6,0 4.7,0 0,-4.8 -4.7,0 0,4.8 z m -50.4,0 4.7,0 0,-4.8 -4.7,0 0,4.8 z m 403.1,3.1 4.7,0 0,-4.8 -4.7,0 0,4.8 z m -37.8,0 4.7,0 0,-4.8 -4.7,0 0,4.8 z m -12.6,0 4.7,0 0,-4.8 -4.7,0 0,4.8 z m -50.4,0 4.7,0 0,-4.8 -4.7,0 0,4.8 z m -25.2,0 4.7,0 0,-4.8 -4.7,0 0,4.8 z m -12.6,0 4.7,0 0,-4.8 -4.7,0 0,4.8 z m -25.2,0 4.7,0 0,-4.8 -4.7,0 0,4.8 z m -75.5,0 4.7,0 0,-4.8 -4.7,0 0,4.8 z m -12.6,0 4.7,0 0,-4.8 -4.7,0 0,4.8 z m -6.3,0 4.7,0 0,-4.8 -4.7,0 0,4.8 z m -18.9,0 4.7,0 0,-4.8 -4.7,0 0,4.8 z m -88.2,0 4.7,0 0,-4.8 -4.7,0 0,4.8 z m -25.2,0 4.7,0 0,-4.8 -4.7,0 0,4.8 z m 302.3,3.2 4.7,0 0,-4.8 -4.7,0 0,4.8 z m -125.9,0 4.7,0 0,-4.8 -4.7,0 0,4.8 z m -100.8,0 4.7,0 0,-4.8 -4.7,0 0,4.8 z m -12.6,0 4.7,0 0,-4.8 -4.7,0 0,4.8 z m -25.2,0 4.7,0 0,-4.8 -4.7,0 0,4.8 z m -50.4,0 4.7,0 0,-4.8 -4.7,0 0,4.8 z m -25.2,0 4.7,0 0,-4.8 -4.7,0 0,4.8 z m 428.3,3.2 4.7,0 0,-4.8 -4.7,0 0,4.8 z m -31.5,0 4.7,0 0,-4.8 -4.7,0 0,4.8 z m -18.9,0 4.7,0 0,-4.8 -4.7,0 0,4.8 z m -50.4,0 4.7,0 0,-4.8 -4.7,0 0,4.8 z m -25.2,0 4.7,0 0,-4.8 -4.7,0 0,4.8 z m -12.6,0 4.7,0 0,-4.8 -4.7,0 0,4.8 z m -25.2,0 4.7,0 0,-4.8 -4.7,0 0,4.8 z m -75.5,0 4.7,0 0,-4.8 -4.7,0 0,4.8 z m -12.6,0 4.7,0 0,-4.8 -4.7,0 0,4.8 z m -25.2,0 4.7,0 0,-4.8 -4.7,0 0,4.8 z m -88.2,0 4.7,0 0,-4.8 -4.7,0 0,4.8 z m -25.2,0 4.7,0 0,-4.8 -4.7,0 0,4.8 z m 327.5,3.1 4.7,0 0,-4.8 -4.7,0 0,4.8 z m -25.2,0 4.7,0 0,-4.8 -4.7,0 0,4.8 z m -125.9,0 4.7,0 0,-4.8 -4.7,0 0,4.8 z m -100.8,0 4.7,0 0,-4.8 -4.7,0 0,4.8 z m -12.6,0 4.7,0 0,-4.8 -4.7,0 0,4.8 z m -25.2,0 4.7,0 0,-4.8 -4.7,0 0,4.8 z m -50.4,0 4.7,0 0,-4.8 -4.7,0 0,4.8 z m -25.2,0 4.7,0 0,-4.8 -4.7,0 0,4.8 z m 428.3,3.2 4.7,0 0,-4.8 -4.7,0 0,4.8 z m -25.2,0 4.7,0 0,-4.8 -4.7,0 0,4.8 z m -25.2,0 4.7,0 0,-4.8 -4.7,0 0,4.8 z m -18.9,0 4.7,0 0,-4.8 -4.7,0 0,4.8 z m -6.3,0 4.7,0 0,-4.8 -4.7,0 0,4.8 z m -6.3,0 4.7,0 0,-4.8 -4.7,0 0,4.8 z m -18.9,0 4.7,0 0,-4.8 -4.7,0 0,4.8 z m -25.2,0 4.7,0 0,-4.8 -4.7,0 0,4.8 z m -12.6,0 4.7,0 0,-4.8 -4.7,0 0,4.8 z m -25.2,0 4.7,0 0,-4.8 -4.7,0 0,4.8 z m -56.6,0 4.7,0 0,-4.8 -4.7,0 0,4.8 z m -6.3,0 4.7,0 0,-4.8 -4.7,0 0,4.8 z m -6.4,0 4.7,0 0,-4.8 -4.7,0 0,4.8 z m -6.2,0 4.7,0 0,-4.8 -4.7,0 0,4.8 z m -12.6,0 4.7,0 0,-4.8 -4.7,0 0,4.8 z m -25.2,0 4.7,0 0,-4.8 -4.7,0 0,4.8 z m -12.6,0 4.7,0 0,-4.8 -4.7,0 0,4.8 z m -6.3,0 4.7,0 0,-4.8 -4.7,0 0,4.8 z m -6.3,0 4.7,0 0,-4.8 -4.7,0 0,4.8 z m -6.3,0 4.7,0 0,-4.8 -4.7,0 0,4.8 z m -25.2,0 4.7,0 0,-4.8 -4.7,0 0,4.8 z m -6.3,0 4.7,0 0,-4.8 -4.7,0 0,4.8 z m -6.3,0 4.7,0 0,-4.8 -4.7,0 0,4.8 z m -25.2,0 4.7,0 0,-4.8 -4.7,0 0,4.8 z m -6.3,0 4.7,0 0,-4.8 -4.7,0 0,4.8 z m -6.3,0 4.7,0 0,-4.8 -4.7,0 0,4.8 z m -25.2,0 4.7,0 0,-4.8 -4.7,0 0,4.8 z m -6.3,0 4.7,0 0,-4.8 -4.7,0 0,4.8 z m -6.3,0 4.7,0 0,-4.8 -4.7,0 0,4.8 z"
         id="path129" />
      <g
         id="g131">
        <path
           style="fill:#ffffff"
           inkscape:connector-curvature="0"
           d="m 47.4,88.7 11.2,16.6 0,-4.1 0,-12.5 5,0 0,26.2 -4.7,0 -11.2,-16.6 0,4.1 0,12.6 -5,0 0,-26.3 4.7,0 z"
           id="path133" />
        <path
           style="fill:#ffffff"
           inkscape:connector-curvature="0"
           d="m 67.5,101.8 c 0,-1.8 0.3,-3.6 1,-5.2 0.7,-1.6 1.7,-3.1 2.9,-4.3 1.2,-1.2 2.6,-2.2 4.3,-2.9 1.6,-0.7 3.4,-1 5.2,-1 1.8,0 3.6,0.4 5.2,1 1.6,0.7 3.1,1.7 4.3,2.9 1.2,1.2 2.2,2.6 2.9,4.3 0.7,1.6 1,3.4 1,5.2 0,1.9 -0.4,3.6 -1,5.2 -0.7,1.6 -1.7,3 -2.9,4.3 -1.2,1.2 -2.6,2.2 -4.3,2.9 -1.6,0.7 -3.4,1 -5.2,1 -1.9,0 -3.6,-0.4 -5.2,-1 -1.6,-0.7 -3,-1.7 -4.3,-2.9 -1.2,-1.2 -2.2,-2.6 -2.9,-4.3 -0.6,-1.6 -1,-3.3 -1,-5.2 z m 5,0 c 0,1.2 0.2,2.3 0.7,3.3 0.4,1 1,1.9 1.8,2.7 0.8,0.8 1.6,1.4 2.7,1.8 1,0.4 2.1,0.7 3.3,0.7 1.2,0 2.3,-0.2 3.3,-0.7 1,-0.4 1.9,-1 2.7,-1.8 0.8,-0.8 1.4,-1.6 1.8,-2.7 0.4,-1 0.7,-2.1 0.7,-3.3 0,-1.2 -0.2,-2.3 -0.7,-3.3 -0.4,-1 -1,-1.9 -1.8,-2.7 -0.8,-0.8 -1.6,-1.4 -2.7,-1.8 -1,-0.4 -2.1,-0.7 -3.3,-0.7 -1.2,0 -2.3,0.2 -3.3,0.7 -1,0.4 -1.9,1 -2.7,1.8 -0.8,0.8 -1.4,1.6 -1.8,2.7 -0.5,1.1 -0.7,2.2 -0.7,3.3 z"
           id="path135" />
        <path
           style="fill:#ffffff"
           inkscape:connector-curvature="0"
           d="m 104.1,104.3 c -0.1,-0.1 -0.2,-0.2 -0.3,-0.2 l -0.6,0 c -0.1,0 -0.2,0.1 -0.2,0.2 l 0,10.6 -5,0 0,-26.2 8.1,0 c 1.1,0 2.1,0.2 3.1,0.6 0.9,0.4 1.7,1 2.4,1.7 0.7,0.7 1.2,1.5 1.6,2.5 0.4,1 0.6,2 0.6,3.1 0,1.8 -0.4,3.2 -1.1,4.4 -0.7,1.1 -1.8,2 -3.1,2.7 0,0 -0.1,0.1 -0.1,0.2 l 5.2,11.1 -5.7,0 -4.9,-10.7 z m -1.2,-4.9 c 0,0.1 0.1,0.2 0.2,0.2 l 2.9,0 c 0.5,0 0.9,-0.1 1.3,-0.3 0.3,-0.2 0.6,-0.5 0.8,-0.8 0.2,-0.3 0.3,-0.6 0.4,-1 0.1,-0.4 0.1,-0.7 0.1,-0.9 0,-0.3 0,-0.6 -0.1,-0.9 -0.1,-0.3 -0.2,-0.6 -0.4,-0.9 -0.2,-0.3 -0.5,-0.5 -0.8,-0.7 -0.3,-0.2 -0.8,-0.3 -1.3,-0.3 l -2.9,0 c -0.1,0 -0.2,0.1 -0.2,0.2 l 0,5.4 z"
           id="path137" />
        <path
           style="fill:#ffffff"
           inkscape:connector-curvature="0"
           d="m 117.5,88.7 8.6,0 c 1.8,0 3.5,0.3 5.1,1.1 1.6,0.7 3,1.6 4.2,2.8 1.2,1.2 2.1,2.6 2.8,4.2 0.7,1.6 1,3.3 1,5.1 0,1.8 -0.3,3.5 -1,5.1 -0.7,1.6 -1.6,3 -2.8,4.2 -1.2,1.2 -2.6,2.1 -4.2,2.8 -1.6,0.7 -3.3,1 -5.1,1 l -8.6,0 0,-26.3 z m 8.6,21.2 c 1.2,0 2.3,-0.2 3.3,-0.6 1,-0.4 1.9,-1 2.6,-1.7 0.7,-0.7 1.3,-1.6 1.7,-2.6 0.4,-1 0.6,-2.1 0.6,-3.3 0,-1.2 -0.2,-2.3 -0.6,-3.3 -0.4,-1 -0.9,-1.9 -1.6,-2.6 -0.7,-0.7 -1.5,-1.3 -2.5,-1.7 -1,-0.4 -2.1,-0.6 -3.3,-0.6 l -3.6,0 c -0.1,0 -0.2,0.1 -0.2,0.2 l 0,15.8 c 0,0.1 0.1,0.2 0.2,0.2 l 3.4,0 z"
           id="path139" />
      </g>
    </g>
  </g>
</svg>
