<?xml version="1.0" encoding="UTF-8" standalone="no"?>
<svg
   xmlns:dc="http://purl.org/dc/elements/1.1/"
   xmlns:cc="http://creativecommons.org/ns#"
   xmlns:rdf="http://www.w3.org/1999/02/22-rdf-syntax-ns#"
   xmlns:svg="http://www.w3.org/2000/svg"
   xmlns="http://www.w3.org/2000/svg"
   xmlns:sodipodi="http://sodipodi.sourceforge.net/DTD/sodipodi-0.dtd"
   xmlns:inkscape="http://www.inkscape.org/namespaces/inkscape"
   width="71mm"
   height="71mm"
   viewBox="0 0 71 71.000001"
   version="1.1"
   id="svg1780"
   inkscape:version="1.0.2 (e86c870879, 2021-01-15)"
   sodipodi:docname="zalgo-perl-und-raku-favicon.svg">
  <defs
     id="defs1774">
    <rect
       x="13.157558"
       y="131.83765"
       width="182.38385"
       height="44.210663"
       id="rect3632" />
    <rect
       x="13.157558"
       y="131.83765"
       width="182.38385"
       height="44.210663"
       id="rect2750" />
    <rect
       x="66.616928"
       y="293.7052"
       width="42.174297"
       height="34.280449"
       id="rect3690" />
    <rect
       x="66.616928"
       y="293.7052"
       width="42.174297"
       height="34.280449"
       id="rect2753" />
    <rect
       x="66.441536"
       y="336.99869"
       width="79.161896"
       height="44.861607"
       id="rect3696" />
    <rect
       x="66.441536"
       y="336.99869"
       width="79.161896"
       height="44.861607"
       id="rect2756" />
  </defs>
  <sodipodi:namedview
     id="base"
     pagecolor="#363636"
     bordercolor="#666666"
     borderopacity="1.0"
     inkscape:pageopacity="1"
     inkscape:pageshadow="2"
     inkscape:zoom="0.35"
     inkscape:cx="400.00001"
     inkscape:cy="674.2857"
     inkscape:document-units="mm"
     inkscape:current-layer="layer1"
     inkscape:document-rotation="0"
     showgrid="false"
     inkscape:window-width="5120"
     inkscape:window-height="1407"
     inkscape:window-x="2900"
     inkscape:window-y="1200"
     inkscape:window-maximized="1"
     fit-margin-top="0"
     fit-margin-left="0"
     fit-margin-right="0"
     fit-margin-bottom="0" />
  <metadata
     id="metadata1777">
    <rdf:RDF>
      <cc:Work
         rdf:about="">
        <dc:format>image/svg+xml</dc:format>
        <dc:type
           rdf:resource="http://purl.org/dc/dcmitype/StillImage" />
        <dc:title />
      </cc:Work>
    </rdf:RDF>
  </metadata>
  <g
     inkscape:label="Layer 1"
     inkscape:groupmode="layer"
     id="layer1">
    <path
       id="path3610"
       style="fill:#000000;fill-opacity:1;fill-rule:nonzero;stroke:#000000;stroke-width:0.0235107;stroke-linecap:round;stroke-linejoin:miter;stroke-miterlimit:4;stroke-dasharray:none;stroke-dashoffset:0;stroke-opacity:1;paint-order:markers stroke fill"
       d="m 39.979473,0.01175767 v 2.80817373 2.8086952 2.8086952 2.8086952 2.808668 2.808722 2.808668 2.808723 2.808667 2.808723 2.808668 2.808695 2.808723 2.808667 2.808723 h 2.808723 2.808667 2.808696 2.808695 2.808695 2.808695 2.808668 2.808722 2.808696 2.808695 2.808695 V 39.332941 36.524274 33.715551 30.906856 28.098188 25.289465 22.480798 19.672075 16.863407 14.054685 11.246017 8.4373218 5.6286266 2.8199314 0.01175767 H 68.066425 65.25773 62.449034 59.640312 56.831644 54.022949 51.214254 48.405559 45.596863 42.788196 Z m 2.808723,2.80817373 h 2.808667 2.808696 2.808695 2.808695 2.808695 2.808668 2.808722 2.808696 2.808695 v 2.8086952 2.8086952 2.8086952 2.808668 2.808722 2.808668 2.808723 2.808667 2.808723 2.808668 2.808695 2.808723 2.808667 H 65.25773 62.449034 59.640312 56.831644 54.022949 51.214254 48.405559 45.596863 42.788196 V 36.524274 33.715551 30.906856 28.098188 25.289465 22.480798 19.672075 16.863407 14.054685 11.246017 8.4373218 5.6286266 Z" />
    <path
       id="path3612"
       style="fill:#000000;fill-opacity:1;fill-rule:nonzero;stroke:#000000;stroke-width:0.0235107;stroke-linecap:round;stroke-linejoin:miter;stroke-miterlimit:4;stroke-dasharray:none;stroke-dashoffset:0;stroke-opacity:1;paint-order:markers stroke fill"
       d="m 45.596863,5.6286266 v 2.8086952 2.8086952 2.808668 2.808722 2.808668 h 2.808696 v -2.808668 -2.808722 h 2.808695 V 11.246017 H 48.405559 V 8.4373218 h 2.808695 v 2.8086952 h 2.808695 V 8.4373218 5.6286266 h -2.808695 -2.808695 z m 5.617391,8.4260584 v 2.808722 2.808668 h 2.808695 v -2.808668 -2.808722 z" />
    <path
       id="path3614"
       style="fill:#000000;fill-opacity:1;fill-rule:nonzero;stroke:#000000;stroke-width:0.0235107;stroke-linecap:round;stroke-linejoin:miter;stroke-miterlimit:4;stroke-dasharray:none;stroke-dashoffset:0;stroke-opacity:1;paint-order:markers stroke fill"
       d="m 59.640312,5.6286266 v 2.8086952 h 2.808722 V 5.6286266 Z m 2.808722,2.8086952 V 11.246017 H 59.640312 V 8.4373218 h -2.808668 v 2.8086952 2.808668 2.808722 2.808668 h 2.808668 v -2.808668 -2.808722 h 2.808722 v 2.808722 2.808668 H 65.25773 V 16.863407 14.054685 11.246017 8.4373218 Z" />
    <path
       id="path3616"
       style="fill:#000000;fill-opacity:1;fill-rule:nonzero;stroke:#000000;stroke-width:0.0235107;stroke-linecap:round;stroke-linejoin:miter;stroke-miterlimit:4;stroke-dasharray:none;stroke-dashoffset:0;stroke-opacity:1;paint-order:markers stroke fill"
       d="m 45.596863,22.480798 v 2.808667 2.808723 2.808668 2.808695 2.808723 h 2.808696 v -2.808723 -2.808695 h 2.808695 v -2.808668 h -2.808695 v -2.808723 -2.808667 z m 5.617391,5.61739 h 2.808695 v -2.808723 -2.808667 h -2.808695 v 2.808667 z m 0,2.808668 v 2.808695 2.808723 h 2.808695 v -2.808723 -2.808695 z" />
    <path
       id="path3618"
       style="fill:#000000;fill-opacity:1;fill-rule:nonzero;stroke:#000000;stroke-width:0.0235107;stroke-linecap:round;stroke-linejoin:miter;stroke-miterlimit:4;stroke-dasharray:none;stroke-dashoffset:0;stroke-opacity:1;paint-order:markers stroke fill"
       d="m 56.831644,22.480798 v 2.808667 2.808723 2.808668 2.808695 2.808723 h 2.808668 2.808722 2.808696 v -2.808723 -2.808695 -2.808668 -2.808723 -2.808667 h -2.808696 v 2.808667 2.808723 2.808668 2.808695 h -2.808722 v -2.808695 -2.808668 -2.808723 -2.808667 z" />
    <g
       id="g1006"
       transform="translate(0,25.929177)"
       style="fill:#000000">
      <path
         id="path3620"
         style="fill:#000000;fill-opacity:1;fill-rule:nonzero;stroke:#000000;stroke-width:0.0235107;stroke-linecap:round;stroke-linejoin:miter;stroke-miterlimit:4;stroke-dasharray:none;stroke-dashoffset:0;stroke-opacity:1;paint-order:markers stroke fill"
         d="m 0.01175153,0.01175767 v 2.80869523 2.8086951 2.8086952 2.8086948 2.808696 2.808695 2.808695 2.808695 2.808695 2.808695 2.808696 2.808146 2.808723 2.808667 2.808723 h 2.80868697 2.8087061 2.808687 2.8087064 2.808687 2.808687 2.808703 2.808157 V 39.332941 H 19.672615 16.863912 14.055225 11.246538 8.4378316 5.6291446 2.8204385 V 36.524274 33.715551 30.907405 28.098709 25.290014 22.481319 19.672624 16.863929 14.055234 11.246538 8.4378432 5.629148 2.8204529 h 2.8087061 2.808687 2.8087064 2.808687 2.808687 2.808703 2.808157 V 0.01175767 H 19.672615 16.863912 14.055225 11.246538 8.4378316 5.6291446 2.8204385 Z m 22.46955047,0 V 2.8204529 h 2.808177 2.808686 v 2.8086951 2.8086952 2.8086948 2.808696 2.808695 2.808695 2.808695 2.808695 2.808695 2.808696 2.808146 2.808723 2.808667 h -2.808686 -2.808177 v 2.808723 h 2.808177 2.808686 2.808687 V 39.332941 36.524274 33.715551 30.907405 28.098709 25.290014 22.481319 19.672624 16.863929 14.055234 11.246538 8.4378432 5.629148 2.8204529 0.01175767 h -2.808687 -2.808686 z" />
      <path
         id="path3622"
         style="fill:#000000;fill-opacity:1;fill-rule:nonzero;stroke:#000000;stroke-width:0.0235107;stroke-linecap:round;stroke-linejoin:miter;stroke-miterlimit:4;stroke-dasharray:none;stroke-dashoffset:0;stroke-opacity:1;paint-order:markers stroke fill"
         d="m 5.6291446,5.629148 v 2.8086952 2.8086948 2.808696 2.808695 2.808695 h 2.808687 v -2.808695 -2.808695 h 2.8087064 2.808687 V 11.246538 8.4378432 5.629148 H 11.246538 8.4378316 Z m 2.808687,2.8086952 H 11.246538 V 11.246538 H 8.4378316 Z" />
      <path
         id="path3624"
         style="fill:#000000;fill-opacity:1;fill-rule:nonzero;stroke:#000000;stroke-width:0.0235107;stroke-linecap:round;stroke-linejoin:miter;stroke-miterlimit:4;stroke-dasharray:none;stroke-dashoffset:0;stroke-opacity:1;paint-order:markers stroke fill"
         d="m 16.863912,5.629148 v 2.8086952 2.8086948 2.808696 2.808695 2.808695 h 2.808703 2.808157 v -2.808695 h -2.808157 v -2.808695 h 2.808157 V 11.246538 H 19.672615 V 8.4378432 h 2.808157 V 5.629148 h -2.808157 z m 5.61739,0 v 2.8086952 h 2.808177 V 5.629148 Z m 0,11.234781 v 2.808695 h 2.808177 v -2.808695 z" />
      <path
         id="path3626"
         style="fill:#000000;fill-opacity:1;fill-rule:nonzero;stroke:#000000;stroke-width:0.0235107;stroke-linecap:round;stroke-linejoin:miter;stroke-miterlimit:4;stroke-dasharray:none;stroke-dashoffset:0;stroke-opacity:1;paint-order:markers stroke fill"
         d="m 5.6291446,22.481319 v 2.808695 2.808695 2.808696 2.808146 2.808723 h 2.808687 V 33.715551 30.907405 H 11.246538 V 28.098709 H 8.4378316 v -2.808695 h 2.8087064 v 2.808695 h 2.808687 V 25.290014 22.481319 H 11.246538 8.4378316 Z m 5.6173934,8.426086 v 2.808146 2.808723 h 2.808687 v -2.808723 -2.808146 z" />
      <path
         id="path3628"
         style="fill:#000000;fill-opacity:1;fill-rule:nonzero;stroke:#000000;stroke-width:0.0235107;stroke-linecap:round;stroke-linejoin:miter;stroke-miterlimit:4;stroke-dasharray:none;stroke-dashoffset:0;stroke-opacity:1;paint-order:markers stroke fill"
         d="m 16.863912,22.481319 v 2.808695 2.808695 2.808696 2.808146 2.808723 h 2.808703 2.808157 v -2.808723 h -2.808157 v -2.808146 -2.808696 -2.808695 -2.808695 z m 5.61739,11.234232 v 2.808723 h 2.808177 v -2.808723 z" />
    </g>
  </g>
</svg>
