<?xml version="1.0" encoding="UTF-8" standalone="no"?>
<svg
   xmlns:dc="http://purl.org/dc/elements/1.1/"
   xmlns:cc="http://creativecommons.org/ns#"
   xmlns:rdf="http://www.w3.org/1999/02/22-rdf-syntax-ns#"
   xmlns:svg="http://www.w3.org/2000/svg"
   xmlns="http://www.w3.org/2000/svg"
   version="1.1"
   id="svg2"
   viewBox="0 0 539.0371 46.5"
   height="46.5"
   width="539.03711">
  <metadata
     id="metadata12">
    <rdf:RDF>
      <cc:Work
         rdf:about="">
        <dc:format>image/svg+xml</dc:format>
        <dc:type
           rdf:resource="http://purl.org/dc/dcmitype/StillImage" />
        <dc:title>Live_Music</dc:title>
      </cc:Work>
    </rdf:RDF>
  </metadata>
  <defs
     id="defs10" />
  <title
     id="title4">Live_Music</title>
  <g
     id="text3340"
     style="font-style:normal;font-variant:normal;font-weight:normal;font-stretch:normal;font-size:40px;line-height:559.99999046%;font-family:'TeX Gyre Adventor';-inkscape-font-specification:'TeX Gyre Adventor, Normal';text-align:start;letter-spacing:0px;word-spacing:0px;writing-mode:lr-tb;text-anchor:start;fill:#000000;fill-opacity:1;stroke:none;stroke-width:1px;stroke-linecap:butt;stroke-linejoin:miter;stroke-opacity:1">
    <path
       id="path3382"
       style="font-style:normal;font-variant:normal;font-weight:800;font-stretch:normal;font-size:62.5px;font-family:'Avenir LT Std';-inkscape-font-specification:'Avenir LT Std Ultra-Bold'"
       d="m 13.125,45.375 8.375,0 9.75,-30.625 0.125,0 9.75,30.625 8.6875,0 12.9375,-44.25 -9.875,0 -7.4375,29.125 -0.125,0 -9.1875,-29.125 -9.0625,0 -9.25,28.375 -0.125,0 L 10.625,1.125 0,1.125 13.125,45.375 Z" />
    <path
       id="path3384"
       style="font-style:normal;font-variant:normal;font-weight:800;font-stretch:normal;font-size:62.5px;font-family:'Avenir LT Std';-inkscape-font-specification:'Avenir LT Std Ultra-Bold'"
       d="m 60.975586,45.375 10.75,0 3.6875,-9.375 17.1875,0 3.8125,9.375 11.000004,0 -19.250004,-44.25 -8.0625,0 -19.125,44.25 z m 28.3125,-17.625 -10.8125,0 5.375,-13.75 5.4375,13.75 z" />
    <path
       id="path3386"
       style="font-style:normal;font-variant:normal;font-weight:800;font-stretch:normal;font-size:62.5px;font-family:'Avenir LT Std';-inkscape-font-specification:'Avenir LT Std Ultra-Bold'"
       d="m 147.30273,45.375 -9.75,0 0,-17.6875 -4.8125,0 -9.25,17.6875 -11.6875,0 11.25,-18.6875 c -6.25,-1.125 -9.5625,-5.9375 -9.5625,-12.125 0,-10.3125 7.625,-13.4375 16.6875,-13.4375 l 17.125,0 0,44.25 z m -9.75,-36 -6.375,0 c -3.5625,0 -7.5625,0.6875 -7.5625,5.125 0,4.8125 4.625,4.9375 8.1875,4.9375 l 5.75,0 0,-10.0625 z" />
    <path
       id="path3388"
       style="font-style:normal;font-variant:normal;font-weight:800;font-stretch:normal;font-size:62.5px;font-family:'Avenir LT Std';-inkscape-font-specification:'Avenir LT Std Ultra-Bold'"
       d="m 152.33008,45.375 9.75,0 0,-31.5 0.125,0 19.3125,31.5 12.75,0 0,-44.25 -9.75,0 0,30.75 -0.125,0 -18.8125,-30.75 -13.25,0 0,44.25 z" />
    <path
       id="path3390"
       style="font-style:normal;font-variant:normal;font-weight:800;font-stretch:normal;font-size:62.5px;font-family:'Avenir LT Std';-inkscape-font-specification:'Avenir LT Std Ultra-Bold'"
       d="m 203.1084,45.375 9.75,0 0,-44.25 -9.75,0 0,44.25 z" />
    <path
       id="path3392"
       style="font-style:normal;font-variant:normal;font-weight:800;font-stretch:normal;font-size:62.5px;font-family:'Avenir LT Std';-inkscape-font-specification:'Avenir LT Std Ultra-Bold'"
       d="m 263.72559,45.375 -9.75,0 0,-31.5 -0.125,0 -19.3125,31.5 -12.75,0 0,-44.25 9.75,0 0,30.75 0.125,0 18.8125,-30.75 13.25,0 0,44.25 z" />
    <path
       id="path3394"
       style="font-style:normal;font-variant:normal;font-weight:800;font-stretch:normal;font-size:62.5px;font-family:'Avenir LT Std';-inkscape-font-specification:'Avenir LT Std Ultra-Bold'"
       d="m 270.31641,19.125 17.3125,0 0,9 -7.9375,0 0,7.1875 c 1.8125,1 4.9375,2.1875 9.1875,2.1875 8.3125,0 13.75,-6 13.75,-14.25 0,-8.25 -5.4375,-14.25 -13.75,-14.25 -4.9375,0 -8.125,1.4375 -10.75,4.1875 l -6.875,-7.5 C 275.69141,1.5625 281.87891,0 288.87891,0 c 13.8125,0 23.875,9.0625 23.875,23.25 0,14.1875 -10.0625,23.25 -23.875,23.25 -6.5,0 -12.8125,-1.25 -18.5625,-4.25 l 0,-23.125 z" />
    <path
       id="path3396"
       style="font-style:normal;font-variant:normal;font-weight:800;font-stretch:normal;font-size:62.5px;font-family:'Avenir LT Std';-inkscape-font-specification:'Avenir LT Std Ultra-Bold'"
       d="m 335.33789,1.125 -9.375,0 0,29.625 9.375,0 0,-29.625 z M 324.90039,40 c 0,3.1875 2.5625,5.75 5.75,5.75 3.1875,0 5.75,-2.5625 5.75,-5.75 0,-3.1875 -2.5625,-5.75 -5.75,-5.75 -3.1875,0 -5.75,2.5625 -5.75,5.75 z" />
    <path
       id="path3398"
       style="font-style:normal;font-variant:normal;font-weight:800;font-stretch:normal;font-size:62.5px;font-family:'Avenir LT Std';-inkscape-font-specification:'Avenir LT Std Ultra-Bold'"
       d="m 402.29004,45.375 -18.125,0 c -7.875,0 -16.625,-3.0625 -16.625,-12.3125 0,-5.75 3.875,-10.0625 9.6875,-10.8125 l 0,-0.125 c -4.5625,-1.4375 -7.625,-4.8125 -7.625,-9.75 0,-9.625 8.4375,-11.25 16.1875,-11.25 l 16.5,0 0,44.25 z m -9.75,-36 -6.625,0 c -3.0625,0 -6.5625,0.9375 -6.5625,4.625 0,3.5625 3.125,4.8125 6.125,4.8125 l 7.0625,0 0,-9.4375 z m 0,17.6875 -7.375,0 c -3.1875,0 -7.875,0.6875 -7.875,4.875 0,3.875 3.4375,5.1875 6.5,5.1875 l 8.75,0 0,-10.0625 z" />
    <path
       id="path3400"
       style="font-style:normal;font-variant:normal;font-weight:800;font-stretch:normal;font-size:62.5px;font-family:'Avenir LT Std';-inkscape-font-specification:'Avenir LT Std Ultra-Bold'"
       d="m 439.62988,45.375 -31.1875,0 0,-9 21.4375,0 0,-9 -19.1875,0 0,-9 19.1875,0 0,-8.25 -20.3125,0 0,-9 30.0625,0 0,44.25 z" />
    <path
       id="path3402"
       style="font-style:normal;font-variant:normal;font-weight:800;font-stretch:normal;font-size:62.5px;font-family:'Avenir LT Std';-inkscape-font-specification:'Avenir LT Std Ultra-Bold'"
       d="m 456.05859,45.375 9.75,0 0,-35.625 12.625,0 0,-8.625 -35,0 0,8.625 12.625,0 0,35.625 z" />
    <path
       id="path3404"
       style="font-style:normal;font-variant:normal;font-weight:800;font-stretch:normal;font-size:62.5px;font-family:'Avenir LT Std';-inkscape-font-specification:'Avenir LT Std Ultra-Bold'"
       d="m 473.08496,45.375 10.75,0 3.6875,-9.375 17.1875,0 3.8125,9.375 11,0 -19.25,-44.25 -8.0625,0 -19.125,44.25 z m 28.3125,-17.625 -10.8125,0 5.375,-13.75 5.4375,13.75 z" />
    <path
       id="path3406"
       style="font-style:normal;font-variant:normal;font-weight:800;font-stretch:normal;font-size:62.5px;font-family:'Avenir LT Std';-inkscape-font-specification:'Avenir LT Std Ultra-Bold'"
       d="m 537.97461,1.125 -9.375,0 0,29.625 9.375,0 0,-29.625 z M 527.53711,40 c 0,3.1875 2.5625,5.75 5.75,5.75 3.1875,0 5.75,-2.5625 5.75,-5.75 0,-3.1875 -2.5625,-5.75 -5.75,-5.75 -3.1875,0 -5.75,2.5625 -5.75,5.75 z" />
  </g>
</svg>
