<?xml version="1.0" encoding="UTF-8" standalone="no"?>
<svg
   xmlns:dc="http://purl.org/dc/elements/1.1/"
   xmlns:cc="http://creativecommons.org/ns#"
   xmlns:rdf="http://www.w3.org/1999/02/22-rdf-syntax-ns#"
   xmlns:svg="http://www.w3.org/2000/svg"
   xmlns="http://www.w3.org/2000/svg"
   xmlns:sodipodi="http://sodipodi.sourceforge.net/DTD/sodipodi-0.dtd"
   xmlns:inkscape="http://www.inkscape.org/namespaces/inkscape"
   width="595"
   height="595"
   viewBox="0 0 21 21"
   version="1.1"
   id="svg1427"
   inkscape:version="1.0.1 (3bc2e813f5, 2020-09-07)"
   sodipodi:docname="winkebunny.svg">
  <style
     id="style1990"></style>
  <defs
     id="defs1421" />
  <sodipodi:namedview
     id="base"
     pagecolor="#ffffff"
     bordercolor="#666666"
     borderopacity="1.0"
     inkscape:pageopacity="0.0"
     inkscape:pageshadow="2"
     inkscape:zoom="1.0254586"
     inkscape:cx="411.8646"
     inkscape:cy="342.03032"
     inkscape:document-units="px"
     inkscape:current-layer="layer1"
     inkscape:document-rotation="0"
     showgrid="false"
     fit-margin-top="0"
     fit-margin-left="0"
     fit-margin-right="0"
     fit-margin-bottom="0"
     inkscape:window-width="2064"
     inkscape:window-height="1178"
     inkscape:window-x="402"
     inkscape:window-y="78"
     inkscape:window-maximized="0"
     units="px" />
  <metadata
     id="metadata1424">
    <rdf:RDF>
      <cc:Work
         rdf:about="">
        <dc:format>image/svg+xml</dc:format>
        <dc:type
           rdf:resource="http://purl.org/dc/dcmitype/StillImage" />
        <dc:title></dc:title>
      </cc:Work>
    </rdf:RDF>
  </metadata>
  <g
     inkscape:label="Ebene 1"
     inkscape:groupmode="layer"
     id="layer1"
     transform="translate(231.60596,340.6102)">
    <g
       id="g2772">
      <rect
         style="display:inline;fill:#0b1925;fill-opacity:1;stroke:none;stroke-width:1.77098;stroke-linecap:round;stroke-linejoin:bevel;stroke-miterlimit:4;stroke-dasharray:none;stroke-opacity:1"
         id="rect105570"
         width="21"
         height="21"
         x="-231.60596"
         y="-340.6102"
         inkscape:export-filename="/home/betalars/Development/congress/bridging-bubbles-design/Logo/rect232100.png"
         inkscape:export-xdpi="192.80841"
         inkscape:export-ydpi="192.80841" />
      <path
         id="path131650"
         style="font-variation-settings:normal;fill:#ffebd8;fill-opacity:1;stroke:none;stroke-width:3.95729;stroke-linecap:butt;stroke-linejoin:miter;stroke-miterlimit:4;stroke-dasharray:none;stroke-dashoffset:0;stroke-opacity:1;stop-color:#000000"
         d="m -220.55024,-339.34434 c -5.0471,-7e-5 -9.13864,4.09144 -9.13857,9.13857 0.007,0.27651 0.0269,0.55257 0.0592,0.82729 0.35481,1.31695 0.8615,2.1939 1.43448,2.84895 -0.63006,-1.2017 -0.96248,-2.53706 -0.96938,-3.8939 -2.1e-4,-4.68279 3.79589,-8.47906 8.47868,-8.47909 4.6828,3e-5 8.4789,3.7963 8.47871,8.47909 -0.005,2.55102 -1.16012,4.96381 -3.14256,6.56932 0.96331,-0.38922 2.35689,-1.428 3.17644,-2.72851 0.49828,-1.14314 0.7573,-2.37615 0.76115,-3.62315 8e-5,-5.04697 -4.0912,-9.13843 -9.13817,-9.13857 z m -0.74154,0.71785 c -4.12059,0.4116 -6.03656,3.08327 -6.59747,5.19158 0.77439,-0.97113 1.67568,-1.68771 2.51085,-1.79872 0.15277,-1.67536 2.03983,-2.94569 4.08662,-3.39286 z m -3.01257,8.79804 c -2.12577,0.0604 -3.64862,1.00701 -3.79643,1.78849 -0.15942,0.86828 0.77028,1.88404 2.49208,2.72277 -0.49846,-0.43265 -0.72787,-0.87675 -0.66111,-1.27972 0.10502,-0.61973 1.06602,-1.54362 2.41549,-1.68974 0.005,-0.29225 0.0766,-0.72589 0.15327,-0.89653 -0.3834,-0.25541 -0.48869,-0.45071 -0.6033,-0.64527 z m 6.08732,2.49903 c 1.1845,0.3538 2.88523,1.19272 2.72432,2.54797 -0.03,0.17418 -0.11501,0.33836 -0.25317,0.48879 0.73084,-0.29301 1.16951,-0.70514 1.26829,-1.19153 0.14666,-0.7831 -1.10135,-2.16236 -2.53244,-2.95508 -0.43675,0.49798 -0.55228,0.63958 -1.207,1.10985 z m -9.6416,2.57084 c 1.71779,2.31402 4.42648,3.68214 7.30839,3.69136 2.10997,-0.005 4.15304,-0.74078 5.78246,-2.08129 l -2.30017,0.38508 c -1.13073,0.53657 -2.36626,0.81616 -3.61786,0.8187 -2.11805,-0.005 -4.15754,-0.8025 -5.7171,-2.23564 z"
         sodipodi:nodetypes="scccccccccsscccccccccccccccccccccccc" />
      <path
         id="path131652"
         style="font-variation-settings:normal;fill:#62c1a6;fill-opacity:1;stroke:none;stroke-width:4.04712;stroke-linecap:butt;stroke-linejoin:miter;stroke-miterlimit:4;stroke-dasharray:none;stroke-dashoffset:0;stroke-opacity:1;stop-color:#000000"
         d="m -230.06855,-329.55365 c -0.45542,0.34802 -0.73134,0.75178 -0.81627,1.19356 -0.38768,2.14444 3.70504,4.67662 9.14141,5.65585 5.43645,0.97928 10.15782,0.0349 10.54571,-2.10947 0.0989,-0.5506 -0.10021,-1.14865 -0.58393,-1.7538 l -0.74521,1.23113 c -0.004,0.0288 -0.007,0.0583 -0.011,0.087 -0.3577,1.88384 -4.54975,2.67041 -9.36355,1.75707 -4.81396,-0.91337 -8.42686,-3.18104 -8.06955,-5.065 0.0266,-0.10801 0.0324,-0.10504 0.0857,-0.20743 -0.0508,-0.19602 -0.12251,-0.50232 -0.18334,-0.7889 z" />
      <path
         style="fill:#62c1a6;fill-opacity:1;stroke:none;stroke-width:0.264583px;stroke-linecap:butt;stroke-linejoin:miter;stroke-opacity:1"
         d="m -216.67261,-329.55551 c -0.0888,-0.7617 0.53335,-0.66069 0.60206,-1.92272 0.0688,-1.26205 -0.37988,-2.30133 -0.99716,-2.8927 -0.72507,-0.69463 -2.77031,-1.01574 -4.15412,-0.56497 -1.27602,0.41566 -1.95101,1.03668 -2.06842,2.77964 -1.28978,2.18339 0.53668,2.70041 0.53668,2.70041 1.46067,0.47485 4.5093,1.25575 6.08096,-0.0997 z"
         id="path131654"
         sodipodi:nodetypes="csssccc" />
      <path
         style="fill:#62c1a6;fill-opacity:1;stroke:none;stroke-width:0.264583px;stroke-linecap:butt;stroke-linejoin:miter;stroke-opacity:1"
         d="m -222.18013,-334.70819 c 0.0394,-0.24551 0.57589,-3.07466 1.35015,-3.45909 0.38713,-0.1922 1.17172,1.1585 1.76626,2.50341 0.20154,-0.22086 0.56205,-0.4417 0.56205,-0.4417 -0.10296,0.27143 -0.25562,0.43407 -0.40809,1.34474 -0.39017,-0.13141 -1.06617,-0.006 -1.09042,-0.13329 -0.0486,-0.25406 -0.33626,-2.76629 -0.62576,-2.8546 -0.91366,0.22867 -1.07172,3.23588 -1.07172,3.23588 -0.71293,0.48403 -1.29862,1.22471 -1.35833,2.29177 0,0 -0.88688,0.90248 -0.39766,1.78206 0.55976,1.00642 1.91574,0.92049 1.91574,0.92049 0,0 -1.02446,0.38638 -1.96778,-0.23959 -0.87615,-0.58144 -0.96768,-1.89909 0.0556,-2.69184 0.29253,-1.07758 0.61632,-1.81963 1.26991,-2.25824 z"
         id="path131656"
         sodipodi:nodetypes="cscccscccscsccc" />
      <path
         id="path131658"
         style="fill:#1f1c2a;fill-opacity:1;stroke-width:0.854877;stroke-linecap:round;stroke-linejoin:bevel"
         d="m -219.42792,-331.74064 c -0.34474,0.30569 -0.90691,0.30891 -1.27798,0.0935 -0.43777,-0.25415 -0.44764,-0.15785 -0.48738,-0.30675 -0.0397,-0.14896 0.0706,-0.4573 0.40651,-0.76295 0.45553,-0.41452 0.99732,-0.28417 1.2515,-0.18892 0.50807,0.19043 0.47881,0.83579 0.10735,1.16515 z"
         sodipodi:nodetypes="ssssss" />
      <path
         style="fill:#1f1c2a;fill-opacity:1;stroke:none;stroke-width:0.226188px;stroke-linecap:butt;stroke-linejoin:miter;stroke-opacity:1"
         d="m -222.65462,-331.83106 c 0.46548,-0.078 0.93527,-0.0101 1.2846,0.18645 -0.23464,0.19478 -0.93414,-0.0778 -1.199,0.78361 -0.17364,-0.23105 -0.27283,-0.65867 -0.0856,-0.97006 z"
         id="path131660"
         sodipodi:nodetypes="cccc" />
      <path
         id="path131662"
         style="fill:#1f1c2a;fill-opacity:1;stroke-width:0.854887;stroke-linecap:round;stroke-linejoin:bevel"
         d="m -222.94194,-332.96037 c -0.0393,0.40438 0.26818,0.74225 0.53222,0.76216 0.45399,0.0341 0.39813,0.12792 0.51753,0.0632 0.1194,-0.0648 0.25611,-0.29132 0.30777,-0.68847 0.0666,-0.51111 -0.33428,-0.78036 -0.56784,-0.83237 -0.33291,-0.0742 -0.73688,0.15154 -0.78967,0.69544 z"
         sodipodi:nodetypes="ssssss" />
      <path
         style="fill:#62c1a6;fill-opacity:1;stroke:none;stroke-width:0.264583px;stroke-linecap:butt;stroke-linejoin:miter;stroke-opacity:1"
         d="m -216.93782,-329.89266 c -0.19726,-1.14481 0.87563,-2.04457 -0.19272,-3.94158 0,0 0.39445,-1.09611 0.40946,-1.89869 0.0328,-1.76009 -0.64462,-1.11462 -0.81872,-1.26369 0,0 0.41266,-0.38424 0.94079,-0.0879 0.91897,0.51571 0.19749,2.96958 0.35019,3.94025 0.0363,0.23064 0.54801,1.03106 0.0359,2.21099 -0.30146,0.69461 -0.72491,1.04057 -0.72491,1.04057 z"
         id="path131664"
         sodipodi:nodetypes="ccscsssc" />
      <g
         id="g131676"
         transform="matrix(0.83077772,0,0,0.83077772,-303.58243,-561.42213)"
         style="stroke-width:1.20369">
        <path
           style="fill:#1f1c2a;fill-opacity:1;stroke:none;stroke-width:0.318476px;stroke-linecap:butt;stroke-linejoin:miter;stroke-opacity:1"
           d="m 104.08832,282.92862 c 0.0277,-0.10634 0.0749,-0.94472 0.64666,-1.54361 0.57175,-0.59888 1.66874,-0.9271 1.66874,-0.9271 l -3.51831,-1.66864 -0.16689,4.20703 z"
           id="path131666"
           sodipodi:nodetypes="cscccc" />
        <path
           style="fill:#1f1c2a;fill-opacity:1;stroke:none;stroke-width:0.318476px;stroke-linecap:butt;stroke-linejoin:miter;stroke-opacity:1"
           d="m 102.80357,278.1035 c 0,0 -0.78703,-0.68035 -0.5324,-1.80044 0.42926,-1.88828 2.88985,-1.35602 2.88985,-1.35602 l 2.52329,0.85525 c 0,0 -2.67324,4.07144 -2.87774,4.05734 -1.26134,-0.087 -3.25507,0.3733 -3.64869,0.2726 -0.53614,-0.13717 0.7778,0.55361 1.64569,-2.02873 z"
           id="path131668"
           sodipodi:nodetypes="csccssc" />
        <path
           style="fill:#62c1a6;fill-opacity:1;stroke:none;stroke-width:0.318476px;stroke-linecap:butt;stroke-linejoin:miter;stroke-opacity:1"
           d="m 102.92043,279.22354 0.90827,-1.63945 c -1.47838,-0.15601 -1.03212,-2.02446 -0.20624,-2.22288 l 1.22471,-0.12217 1.54312,1.11115 0.18222,1.58234 -2.47126,2.82106 -1.73879,1.44315 c 0,0 -1.40898,-1.13301 -1.30107,-1.13832 0.90731,-0.0447 1.85904,-1.83488 1.85904,-1.83488 z"
           id="path131670"
           sodipodi:nodetypes="ccccccccsc" />
        <path
           style="fill:#62c1a6;fill-opacity:1;stroke:none;stroke-width:0.318476px;stroke-linecap:butt;stroke-linejoin:miter;stroke-opacity:1"
           d="m 100.8287,280.96881 c -0.56766,0.94969 0.81528,2.88527 2.67176,0.93884 2.16882,-3.43452 3.09651,-2.86111 3.23609,-4.62801 0.0683,-0.86415 -0.77184,-2.00385 -2.09981,-2.09951 -1.32797,-0.0956 -1.44983,0.59272 -1.44983,0.59272 0,0 0.93139,-0.66599 2.07135,-0.11309 0.82207,0.39871 1.57535,1.76135 1.00006,2.33678 -1.67997,1.68043 -1.82762,1.76591 -2.67781,2.97517 -1.04896,1.6138 -2.15057,0.16593 -2.75181,-0.003 z"
           id="path131672"
           sodipodi:nodetypes="ccsscssccc" />
        <path
           style="fill:#1f1c2a;fill-opacity:1;stroke:none;stroke-width:0.318476px;stroke-linecap:butt;stroke-linejoin:miter;stroke-opacity:1"
           d="m 105.57146,278.01426 c -0.129,-0.236 -0.54,0.16746 -0.96056,0.048 -0.37506,-0.10651 -0.52809,-0.37401 -0.5266,-0.68914 0.003,-0.64281 0.83975,-0.9059 0.83975,-0.9059 0,0 -0.49808,-0.11391 -0.98658,0.28672 -0.32887,0.26971 -0.50922,1.02028 -0.12113,1.36352 0.9237,0.75146 1.7551,-0.10325 1.7551,-0.10325 z"
           id="path131674"
           sodipodi:nodetypes="csscsccc" />
      </g>
      <path
         style="fill:#62c1a6;fill-opacity:1;stroke:none;stroke-width:0.264583px;stroke-linecap:butt;stroke-linejoin:miter;stroke-opacity:1"
         d="m -224.46152,-325.09988 c 0.20743,-1.35551 0.84245,-2.52273 1.5536,-3.5133 0.89678,0.30575 1.68413,0.51357 2.55856,0.62812 0,0 -0.38292,0.714 0.17659,1.31501 0.87099,0.93561 2.36322,0.40904 2.72472,-0.0334 0.22536,0.75982 0.44463,1.66196 0.44465,2.38907 -2.53104,0.4199 -5.00332,-0.0486 -7.45786,-0.78554 z"
         id="path131678"
         sodipodi:nodetypes="cccscccc" />
      <path
         id="path12533"
         style="font-variation-settings:normal;fill:#ffebd8;fill-opacity:1;stroke:none;stroke-width:3.95729;stroke-linecap:butt;stroke-linejoin:miter;stroke-miterlimit:4;stroke-dasharray:none;stroke-dashoffset:0;stroke-opacity:1;stop-color:#000000"
         d="m -220.55024,-339.34434 c -5.0471,-7e-5 -9.13864,4.09144 -9.13857,9.13857 0.007,0.27651 0.0269,0.55257 0.0592,0.82729 0.35481,1.31695 0.8615,2.1939 1.43448,2.84895 -0.63006,-1.2017 -0.96248,-2.53706 -0.96938,-3.8939 -2.1e-4,-4.68279 3.79589,-8.47906 8.47868,-8.47909 4.6828,3e-5 8.4789,3.7963 8.47871,8.47909 -0.005,2.55102 -1.16012,4.96381 -3.14256,6.56932 0.96331,-0.38922 2.35689,-1.428 3.17644,-2.72851 0.49828,-1.14314 0.7573,-2.37615 0.76115,-3.62315 8e-5,-5.04697 -4.0912,-9.13843 -9.13817,-9.13857 z m -0.74154,0.71785 c -4.12059,0.4116 -6.03656,3.08327 -6.59747,5.19158 0.77439,-0.97113 1.67568,-1.68771 2.51085,-1.79872 0.15277,-1.67536 2.03983,-2.94569 4.08662,-3.39286 z m -3.01257,8.79804 c -2.12577,0.0604 -3.64862,1.00701 -3.79643,1.78849 -0.15942,0.86828 0.77028,1.88404 2.49208,2.72277 -0.49846,-0.43265 -0.72787,-0.87675 -0.66111,-1.27972 0.10502,-0.61973 1.06602,-1.54362 2.41549,-1.68974 0.005,-0.29225 0.0766,-0.72589 0.15327,-0.89653 -0.3834,-0.25541 -0.48869,-0.45071 -0.6033,-0.64527 z m 6.08732,2.49903 c 1.1845,0.3538 2.88523,1.19272 2.72432,2.54797 -0.03,0.17418 -0.11501,0.33836 -0.25317,0.48879 0.73084,-0.29301 1.16951,-0.70514 1.26829,-1.19153 0.14666,-0.7831 -1.10135,-2.16236 -2.53244,-2.95508 -0.43675,0.49798 -0.55228,0.63958 -1.207,1.10985 z m -9.6416,2.57084 c 1.71779,2.31402 4.42648,3.68214 7.30839,3.69136 2.10997,-0.005 4.15304,-0.74078 5.78246,-2.08129 l -2.30017,0.38508 c -1.13073,0.53657 -2.36626,0.81616 -3.61786,0.8187 -2.11805,-0.005 -4.15754,-0.8025 -5.7171,-2.23564 z"
         sodipodi:nodetypes="scccccccccsscccccccccccccccccccccccc" />
      <path
         id="path12535"
         style="font-variation-settings:normal;fill:#62c1a6;fill-opacity:1;stroke:none;stroke-width:4.04712;stroke-linecap:butt;stroke-linejoin:miter;stroke-miterlimit:4;stroke-dasharray:none;stroke-dashoffset:0;stroke-opacity:1;stop-color:#000000"
         d="m -230.06855,-329.55365 c -0.45542,0.34802 -0.73134,0.75178 -0.81627,1.19356 -0.38768,2.14444 3.70504,4.67662 9.14141,5.65585 5.43645,0.97928 10.15782,0.0349 10.54571,-2.10947 0.0989,-0.5506 -0.10021,-1.14865 -0.58393,-1.7538 l -0.74521,1.23113 c -0.004,0.0288 -0.007,0.0583 -0.011,0.087 -0.3577,1.88384 -4.54975,2.67041 -9.36355,1.75707 -4.81396,-0.91337 -8.42686,-3.18104 -8.06955,-5.065 0.0266,-0.10801 0.0324,-0.10504 0.0857,-0.20743 -0.0508,-0.19602 -0.12251,-0.50232 -0.18334,-0.7889 z" />
      <path
         style="fill:#62c1a6;fill-opacity:1;stroke:none;stroke-width:0.264583px;stroke-linecap:butt;stroke-linejoin:miter;stroke-opacity:1"
         d="m -216.67261,-329.55551 c -0.0888,-0.7617 0.53335,-0.66069 0.60206,-1.92272 0.0688,-1.26205 -0.37988,-2.30133 -0.99716,-2.8927 -0.72507,-0.69463 -2.77031,-1.01574 -4.15412,-0.56497 -1.27602,0.41566 -1.95101,1.03668 -2.06842,2.77964 -1.28978,2.18339 0.53668,2.70041 0.53668,2.70041 1.46067,0.47485 4.5093,1.25575 6.08096,-0.0997 z"
         id="path12537"
         sodipodi:nodetypes="csssccc" />
      <path
         style="fill:#62c1a6;fill-opacity:1;stroke:none;stroke-width:0.264583px;stroke-linecap:butt;stroke-linejoin:miter;stroke-opacity:1"
         d="m -222.18013,-334.70819 c 0.0394,-0.24551 0.57589,-3.07466 1.35015,-3.45909 0.38713,-0.1922 1.17172,1.1585 1.76626,2.50341 0.20154,-0.22086 0.56205,-0.4417 0.56205,-0.4417 -0.10296,0.27143 -0.25562,0.43407 -0.40809,1.34474 -0.39017,-0.13141 -1.06617,-0.006 -1.09042,-0.13329 -0.0486,-0.25406 -0.33626,-2.76629 -0.62576,-2.8546 -0.91366,0.22867 -1.07172,3.23588 -1.07172,3.23588 -0.71293,0.48403 -1.29862,1.22471 -1.35833,2.29177 0,0 -0.88688,0.90248 -0.39766,1.78206 0.55976,1.00642 1.91574,0.92049 1.91574,0.92049 0,0 -1.02446,0.38638 -1.96778,-0.23959 -0.87615,-0.58144 -0.96768,-1.89909 0.0556,-2.69184 0.29253,-1.07758 0.61632,-1.81963 1.26991,-2.25824 z"
         id="path12539"
         sodipodi:nodetypes="cscccscccscsccc" />
      <path
         id="path12541"
         style="fill:#1f1c2a;fill-opacity:1;stroke-width:0.854877;stroke-linecap:round;stroke-linejoin:bevel"
         d="m -219.42792,-331.74064 c -0.34474,0.30569 -0.90691,0.30891 -1.27798,0.0935 -0.43777,-0.25415 -0.44764,-0.15785 -0.48738,-0.30675 -0.0397,-0.14896 0.0706,-0.4573 0.40651,-0.76295 0.45553,-0.41452 0.99732,-0.28417 1.2515,-0.18892 0.50807,0.19043 0.47881,0.83579 0.10735,1.16515 z"
         sodipodi:nodetypes="ssssss" />
      <path
         style="fill:#1f1c2a;fill-opacity:1;stroke:none;stroke-width:0.226188px;stroke-linecap:butt;stroke-linejoin:miter;stroke-opacity:1"
         d="m -222.65462,-331.83106 c 0.46548,-0.078 0.93527,-0.0101 1.2846,0.18645 -0.23464,0.19478 -0.93414,-0.0778 -1.199,0.78361 -0.17364,-0.23105 -0.27283,-0.65867 -0.0856,-0.97006 z"
         id="path12543"
         sodipodi:nodetypes="cccc" />
      <path
         id="path12545"
         style="fill:#1f1c2a;fill-opacity:1;stroke-width:0.854887;stroke-linecap:round;stroke-linejoin:bevel"
         d="m -222.94194,-332.96037 c -0.0393,0.40438 0.26818,0.74225 0.53222,0.76216 0.45399,0.0341 0.39813,0.12792 0.51753,0.0632 0.1194,-0.0648 0.25611,-0.29132 0.30777,-0.68847 0.0666,-0.51111 -0.33428,-0.78036 -0.56784,-0.83237 -0.33291,-0.0742 -0.73688,0.15154 -0.78967,0.69544 z"
         sodipodi:nodetypes="ssssss" />
      <path
         style="fill:#62c1a6;fill-opacity:1;stroke:none;stroke-width:0.264583px;stroke-linecap:butt;stroke-linejoin:miter;stroke-opacity:1"
         d="m -216.93782,-329.89266 c -0.19726,-1.14481 0.87563,-2.04457 -0.19272,-3.94158 0,0 0.39445,-1.09611 0.40946,-1.89869 0.0328,-1.76009 -0.64462,-1.11462 -0.81872,-1.26369 0,0 0.41266,-0.38424 0.94079,-0.0879 0.91897,0.51571 0.19749,2.96958 0.35019,3.94025 0.0363,0.23064 0.54801,1.03106 0.0359,2.21099 -0.30146,0.69461 -0.72491,1.04057 -0.72491,1.04057 z"
         id="path12547"
         sodipodi:nodetypes="ccscsssc" />
      <g
         id="g12559"
         transform="matrix(0.83077772,0,0,0.83077772,-303.58243,-561.42213)"
         style="stroke-width:1.20369">
        <path
           style="fill:#1f1c2a;fill-opacity:1;stroke:none;stroke-width:0.318476px;stroke-linecap:butt;stroke-linejoin:miter;stroke-opacity:1"
           d="m 104.08832,282.92862 c 0.0277,-0.10634 0.0749,-0.94472 0.64666,-1.54361 0.57175,-0.59888 1.66874,-0.9271 1.66874,-0.9271 l -3.51831,-1.66864 -0.16689,4.20703 z"
           id="path12549"
           sodipodi:nodetypes="cscccc" />
        <path
           style="fill:#1f1c2a;fill-opacity:1;stroke:none;stroke-width:0.318476px;stroke-linecap:butt;stroke-linejoin:miter;stroke-opacity:1"
           d="m 102.80357,278.1035 c 0,0 -0.78703,-0.68035 -0.5324,-1.80044 0.42926,-1.88828 2.88985,-1.35602 2.88985,-1.35602 l 2.52329,0.85525 c 0,0 -2.67324,4.07144 -2.87774,4.05734 -1.26134,-0.087 -3.25507,0.3733 -3.64869,0.2726 -0.53614,-0.13717 0.7778,0.55361 1.64569,-2.02873 z"
           id="path12551"
           sodipodi:nodetypes="csccssc" />
        <path
           style="fill:#62c1a6;fill-opacity:1;stroke:none;stroke-width:0.318476px;stroke-linecap:butt;stroke-linejoin:miter;stroke-opacity:1"
           d="m 102.92043,279.22354 0.90827,-1.63945 c -1.47838,-0.15601 -1.03212,-2.02446 -0.20624,-2.22288 l 1.22471,-0.12217 1.54312,1.11115 0.18222,1.58234 -2.47126,2.82106 -1.73879,1.44315 c 0,0 -1.40898,-1.13301 -1.30107,-1.13832 0.90731,-0.0447 1.85904,-1.83488 1.85904,-1.83488 z"
           id="path12553"
           sodipodi:nodetypes="ccccccccsc" />
        <path
           style="fill:#62c1a6;fill-opacity:1;stroke:none;stroke-width:0.318476px;stroke-linecap:butt;stroke-linejoin:miter;stroke-opacity:1"
           d="m 100.8287,280.96881 c -0.56766,0.94969 0.81528,2.88527 2.67176,0.93884 2.16882,-3.43452 3.09651,-2.86111 3.23609,-4.62801 0.0683,-0.86415 -0.77184,-2.00385 -2.09981,-2.09951 -1.32797,-0.0956 -1.44983,0.59272 -1.44983,0.59272 0,0 0.93139,-0.66599 2.07135,-0.11309 0.82207,0.39871 1.57535,1.76135 1.00006,2.33678 -1.67997,1.68043 -1.82762,1.76591 -2.67781,2.97517 -1.04896,1.6138 -2.15057,0.16593 -2.75181,-0.003 z"
           id="path12555"
           sodipodi:nodetypes="ccsscssccc" />
        <path
           style="fill:#1f1c2a;fill-opacity:1;stroke:none;stroke-width:0.318476px;stroke-linecap:butt;stroke-linejoin:miter;stroke-opacity:1"
           d="m 105.57146,278.01426 c -0.129,-0.236 -0.54,0.16746 -0.96056,0.048 -0.37506,-0.10651 -0.52809,-0.37401 -0.5266,-0.68914 0.003,-0.64281 0.83975,-0.9059 0.83975,-0.9059 0,0 -0.49808,-0.11391 -0.98658,0.28672 -0.32887,0.26971 -0.50922,1.02028 -0.12113,1.36352 0.9237,0.75146 1.7551,-0.10325 1.7551,-0.10325 z"
           id="path12557"
           sodipodi:nodetypes="csscsccc" />
      </g>
      <path
         style="fill:#62c1a6;fill-opacity:1;stroke:none;stroke-width:0.264583px;stroke-linecap:butt;stroke-linejoin:miter;stroke-opacity:1"
         d="m -224.46152,-325.09988 c 0.20743,-1.35551 0.84245,-2.52273 1.5536,-3.5133 0.89678,0.30575 1.68413,0.51357 2.55856,0.62812 0,0 -0.38292,0.714 0.17659,1.31501 0.87099,0.93561 2.36322,0.40904 2.72472,-0.0334 0.22536,0.75982 0.44463,1.66196 0.44465,2.38907 -2.53104,0.4199 -5.00332,-0.0486 -7.45786,-0.78554 z"
         id="path12561"
         sodipodi:nodetypes="cccscccc" />
    </g>
  </g>
</svg>
