<svg xmlns="http://www.w3.org/2000/svg" width="551.222" height="305.981" fill="none" viewBox="0 0 551.222 305.981"><g class="frame-container-wrapper"><g class="frame-container-blur"><g class="frame-container-shadows"><g class="fills"><rect width="551.222" height="305.981" class="frame-background" rx="0" ry="0"/></g><g class="frame-children" style="fill:#000"><path d="M263.637 181.055c4.939 70.25 63.672 124.775 134.564 124.926 52.419-.11 100.047-30.314 122.213-77.5-27.899 35.524-70.714 56.304-116.071 56.333-64.761-.11-121.857-42.214-140.706-103.76M398.2 37.417c-51.016.12-97.62 28.76-120.502 74.054 27.914-34.512 70.053-54.618 114.62-54.69 64.212.128 120.947 41.55 140.238 102.388-6.502-68.916-64.674-121.63-134.355-121.752" class="fills" style="stroke-width:.668315;fill:#ea5b0c;fill-opacity:1"/><path d="M0 .1C279.942 50.823 216.06 220.84 421.437 227.614c87.228 0 120.39-38.584 129.735-55.794 1.862-3.429-49.03 34.461-127.915 33.36-7.497 0-14.666-.32-21.538-.937C232.667 189.069 243.628-5.051-.001.101" class="fills" style="stroke-width:.942867;fill:#f6f5f4;fill-opacity:1"/></g></g></g></g></svg>