<svg xmlns="http://www.w3.org/2000/svg" width="350" height="308" fill="none" viewBox="0 0 350 308"><g class="frame-container-wrapper"><g class="frame-container-blur"><g class="frame-container-shadows"><g class="fills"><rect width="337.718" height="83" x="6.141" y="225" class="frame-background" rx="0" ry="0"/></g><g class="frame-children"><path d="M25.364 304.984q-3.96 0-7.416-.576-3.456-.504-5.975-1.512-2.088-.72-2.952-2.088t-.792-2.88.792-2.736a4.74 4.74 0 0 1 2.088-1.8q1.295-.504 2.88.072 3.167 1.296 5.759 1.656 2.592.432 4.392.432 4.392 0 6.551-1.872 2.232-1.8 2.232-5.688v-4.536h.576q-1.08 3.024-4.392 4.968-3.31 1.872-7.2 1.872-4.751 0-8.278-2.16-3.528-2.232-5.544-6.192-1.944-3.96-1.944-9.288 0-4.032 1.152-7.272t3.168-5.544a14 14 0 0 1 4.967-3.528q2.952-1.296 6.48-1.296 4.031 0 7.2 1.872 3.239 1.872 4.319 4.896l-.72 2.952v-3.168q0-3.096 1.656-4.752 1.728-1.656 4.752-1.656t4.607 1.656q1.656 1.656 1.656 4.752v24.912q0 9.216-5.184 13.824-5.183 4.68-14.83 4.68m.504-24.12q2.16 0 3.671-.936 1.512-1.008 2.376-2.808.864-1.872.864-4.464 0-3.888-1.872-6.048t-5.04-2.16q-2.014 0-3.6 1.008-1.583.936-2.447 2.808-.792 1.8-.792 4.392 0 3.888 1.872 6.048t4.968 2.16M59.2 304.84q-3.024 0-4.68-1.656t-1.656-4.824v-36.792q0-3.096 1.584-4.752 1.656-1.656 4.68-1.656 3.096 0 4.68 1.656 1.655 1.656 1.655 4.752v4.176l-.792-3.528q1.008-3.24 4.176-5.184 3.24-2.016 7.344-2.016 4.607 0 8.063 2.232 3.528 2.232 5.471 6.336t1.944 9.936q0 5.688-1.944 9.864t-5.471 6.408q-3.456 2.232-8.063 2.232-3.96 0-7.128-1.872t-4.248-4.896h.864v13.104q0 3.168-1.727 4.824-1.656 1.656-4.752 1.656m12.959-22.248q1.944 0 3.384-.936 1.511-1.008 2.375-2.952.864-2.016.864-5.184 0-4.824-1.872-6.912-1.872-2.16-4.751-2.16-1.944 0-3.456.936t-2.376 2.952q-.864 1.944-.864 5.184 0 4.752 1.872 6.912t4.824 2.16m31.677 9.288q-3.023 0-4.68-1.656-1.655-1.656-1.655-4.824v-23.832q0-3.096 1.584-4.752 1.655-1.656 4.68-1.656 3.023 0 4.607 1.656t1.584 4.752v3.384l-.792-2.952q1.728-3.384 4.895-5.184 3.24-1.8 7.344-1.8 4.248 0 6.983 1.656 2.736 1.584 4.104 5.04 1.368 3.384 1.368 8.568v15.12q0 3.168-1.656 4.824t-4.751 1.656-4.752-1.656-1.656-4.824v-14.616q0-3.24-1.152-4.608-1.08-1.368-3.24-1.368-2.88 0-4.607 1.872-1.728 1.8-1.728 4.896V285.4q0 6.48-6.48 6.48" class="fills" style="font-weight:900;font-size:72px;font-family:Nunito;dominant-baseline:ideographic;white-space:pre;fill:#f6f5f4;fill-opacity:1"/><g class="frame-container-wrapper"><g class="frame-container-blur"><g class="frame-container-shadows"><g class="fills"><rect width="103" height="83" x="137.859" y="225" class="frame-background" rx="16" ry="16" style="fill:#ea5b0c;fill-opacity:1"/></g><g class="frame-children"><path d="M155.115 292.354q-3.17 0-4.612-1.434-1.37-1.507-1.37-4.375.001-2.009.866-3.586.936-1.578 2.378-3.084l12.612-13.126q2.81-3.012 3.963-5.164 1.226-2.153 1.226-4.304 0-2.726-1.802-4.088-1.801-1.362-5.189-1.363-1.73 0-3.675.502-1.946.43-4.18 1.578-1.947.86-3.532.502-1.514-.358-2.594-1.578a6 6 0 0 1-1.297-2.797q-.216-1.578.504-3.084.72-1.577 2.595-2.582a26.5 26.5 0 0 1 6.846-2.582 33.6 33.6 0 0 1 7.207-.789q5.91 0 9.873 1.721 4.036 1.722 6.126 5.021 2.09 3.228 2.09 8.033 0 3.012-.937 5.882-.865 2.868-2.883 5.737-1.945 2.87-5.26 6.097l-11.676 11.476v-3.3h17.801q2.667 0 4.036 1.363 1.44 1.364 1.441 3.945 0 2.582-1.441 4.017-1.37 1.362-4.036 1.362Zm62.123.646q-3.027 0-4.757-1.65-1.657-1.65-1.657-4.877v-2.582h-14.486q-3.17 0-4.972-1.434-1.73-1.435-1.73-4.376 0-1.72.649-3.299.647-1.65 2.306-3.945l17.584-25.534q1.442-2.151 3.243-3.155 1.802-1.005 4.252-1.005 2.739 0 4.324 1.65 1.586 1.578 1.586 4.877v26.251h1.73q2.738 0 4.107 1.291 1.442 1.291 1.442 3.658 0 2.44-1.442 3.73-1.369 1.29-4.107 1.291h-1.73v2.582q0 3.156-1.657 4.877-1.587 1.65-4.685 1.65m-6.414-19.079v-16.926h2.018l-13.55 20.01v-3.084Z" class="fills" style="font-weight:900;font-size:72px;font-family:Nunito;dominant-baseline:ideographic;white-space:pre;fill:#f6f5f4"/></g></g></g></g><path d="M251.935 292.141q-3.25 0-5.199-1.936-1.878-1.937-1.877-5.093 0-3.083 1.877-4.949 1.95-1.936 5.199-1.936 3.393 0 5.199 1.936 1.877 1.865 1.877 4.95 0 3.154-1.877 5.092-1.806 1.936-5.2 1.936m26.507.359q-4.55 0-8.087-2.223-3.466-2.224-5.488-6.384-1.95-4.16-1.95-9.826 0-5.81 1.95-9.898 2.022-4.089 5.488-6.312 3.537-2.223 8.087-2.223 3.97 0 7.148 1.865t4.26 4.805h-.794v-15.349q0-3.156 1.66-4.805 1.662-1.65 4.766-1.65 3.033 0 4.693 1.65 1.734 1.65 1.733 4.805v38.946q0 3.156-1.66 4.806-1.59 1.65-4.694 1.65-3.033 0-4.693-1.65T289.2 285.9v-4.088l.794 3.515q-1.011 3.227-4.26 5.235-3.177 1.937-7.292 1.937m4.115-9.396q1.95 0 3.466-.932 1.517-1.005 2.31-2.941.867-2.008.867-5.164 0-4.806-1.877-6.886-1.877-2.151-4.766-2.151-1.95 0-3.466.932-1.516.933-2.382 2.94-.867 1.938-.867 5.165 0 4.733 1.878 6.885t4.837 2.152m46.139 9.396q-6.498 0-11.264-2.223-4.694-2.295-7.22-6.456-2.527-4.16-2.527-9.826 0-5.451 2.382-9.54 2.455-4.16 6.643-6.454 4.26-2.367 9.675-2.367 3.972 0 7.22 1.29 3.25 1.22 5.56 3.659 2.311 2.366 3.466 5.738 1.228 3.37 1.228 7.53 0 1.435-.795 2.152-.793.646-2.527.646h-22.094v-6.025h16.03l-1.156.933q0-2.654-.722-4.304t-2.166-2.51q-1.372-.86-3.466-.86-2.238 0-3.9 1.075-1.587 1.004-2.454 3.012-.866 2.01-.866 5.021v.646q0 5.091 2.238 7.315 2.311 2.152 7.076 2.152 1.588 0 3.61-.358 2.094-.43 3.971-1.148 1.878-.717 3.25-.215 1.371.43 2.094 1.578.794 1.076.866 2.51.072 1.363-.65 2.726-.721 1.29-2.383 2.008a24.7 24.7 0 0 1-5.415 1.721 28.5 28.5 0 0 1-5.704.574" class="fills" style="font-weight:900;font-size:72px;font-family:Nunito;dominant-baseline:ideographic;white-space:pre;fill:#f6f5f4;fill-opacity:1"/></g></g></g></g><g class="frame-container-wrapper"><g class="frame-container-blur"><g class="frame-container-shadows"><g class="fills"><rect width="350" height="193" class="frame-background" rx="0" ry="0"/></g><g class="frame-children" style="fill:#000"><path d="M167.397 114.202c3.136 44.31 40.429 78.703 85.442 78.798 33.283-.07 63.525-19.12 77.6-48.883-17.715 22.406-44.9 35.513-73.7 35.532-41.12-.07-77.374-26.627-89.342-65.447M252.839 23.601c-32.394.075-61.985 18.14-76.514 46.71 17.724-21.768 44.48-34.45 72.779-34.496 40.771.08 76.795 26.208 89.044 64.582-4.129-43.469-41.065-76.72-85.31-76.796" class="fills" style="stroke-width:.668315;fill:#ea5b0c;fill-opacity:1"/><path d="M0 .064c177.75 31.992 137.189 139.232 267.593 143.505 55.385 0 76.441-24.338 82.375-35.193 1.183-2.162-31.131 21.737-81.22 21.043-4.76 0-9.312-.203-13.675-.592C147.733 119.257 154.693-3.186 0 .064" class="fills" style="stroke-width:.942867;fill:#f6f5f4;fill-opacity:1"/></g></g></g></g></svg>