<svg width="103" height="15" viewBox="0 0 103 15" xmlns="http://www.w3.org/2000/svg"><path d="M84.831 21.278h2.962v-5.242h5.6V13.3h-5.6v-2.732h6.058V7.833h-9.02v13.445zm11.26 0h9.476v-2.735h-6.514v-2.734h5.83v-2.735h-5.83v-2.506h6.172V7.833h-9.134v13.445zm11.963 0h9.476v-2.735h-6.513v-2.734h5.829v-2.735h-5.829v-2.506h6.171V7.833h-9.134v13.445zm11.849 0h4.843a9.354 9.354 0 0 0 2.867-.437 7.345 7.345 0 0 0 2.412-1.282 6.181 6.181 0 0 0 1.661-2.089 6.384 6.384 0 0 0 .617-2.877 7.038 7.038 0 0 0-.636-3.133 5.726 5.726 0 0 0-1.718-2.1 7.026 7.026 0 0 0-2.535-1.168 12.7 12.7 0 0 0-3.067-.361H119.9v13.447h.003zm2.963-10.71h1.747c.6-.003 1.197.077 1.775.237.531.143 1.03.384 1.472.712.422.32.764.732 1 1.206.257.535.384 1.124.37 1.718.02.662-.107 1.32-.37 1.927a3.328 3.328 0 0 1-1.016 1.272 4.08 4.08 0 0 1-1.529.693 8.261 8.261 0 0 1-1.908.209h-1.538v-7.974h-.003zm11.45 10.71h5.507c.603 0 1.204-.064 1.794-.19a5.149 5.149 0 0 0 1.624-.627c.476-.286.88-.68 1.177-1.149a3.23 3.23 0 0 0 .456-1.776 3.509 3.509 0 0 0-.209-1.215 3 3 0 0 0-.6-1 3.225 3.225 0 0 0-.93-.7 3.849 3.849 0 0 0-1.206-.37v-.038a3.494 3.494 0 0 0 1.68-1.073 2.82 2.82 0 0 0 .637-1.889 3.174 3.174 0 0 0-.437-1.766 3.04 3.04 0 0 0-1.14-1.035 4.8 4.8 0 0 0-1.585-.494 12.7 12.7 0 0 0-1.757-.123h-5.013v13.445h.002zm2.962-10.938h2.013c.235.001.47.024.7.067.225.04.443.113.646.218.188.1.348.248.465.427.127.208.19.45.18.693.007.238-.049.474-.161.684-.103.185-.25.341-.427.456-.184.117-.387.2-.6.247a3 3 0 0 1-.674.076h-2.146V10.34h.004zm0 5.374h2.241c.26.001.52.02.779.057.267.035.529.105.778.209.234.096.44.25.6.446.167.22.25.493.238.769.008.259-.054.515-.181.741a1.5 1.5 0 0 1-.465.494c-.193.128-.41.218-.636.266-.228.05-.46.076-.693.076h-2.659v-3.058h-.002zm7.957 5.564h3.265l1.12-2.848h5.219l1.16 2.848h3.34L153.5 7.833h-2.449l-5.816 13.445zm8.6-5.355h-3.285l1.633-4.178 1.652 4.178zm17.923-6.456a4.685 4.685 0 0 0-.98-.93 5.467 5.467 0 0 0-1.15-.608 6.52 6.52 0 0 0-1.22-.332 8.274 8.274 0 0 0-4.09.394 6.671 6.671 0 0 0-2.3 1.415 6.483 6.483 0 0 0-1.51 2.231 8.188 8.188 0 0 0 0 5.849 6.481 6.481 0 0 0 1.51 2.231 6.662 6.662 0 0 0 2.3 1.415c.93.337 1.912.504 2.9.494.93 0 1.85-.194 2.7-.57a5.178 5.178 0 0 0 2.17-1.766l-2.47-1.842a3.253 3.253 0 0 1-1.16 1.063 3.36 3.36 0 0 1-1.62.38 3.513 3.513 0 0 1-1.49-.323 3.634 3.634 0 0 1-1.2-.9 4.429 4.429 0 0 1-.81-1.367 5.322 5.322 0 0 1 0-3.466c.183-.507.462-.974.82-1.377a3.664 3.664 0 0 1 2.78-1.225 3.539 3.539 0 0 1 1.47.285c.417.183.784.463 1.07.817l2.28-1.868zm2.05 11.811h2.97V14.9l5.47 6.38h4.13l-6.49-7.2 5.98-6.248H182l-5.22 5.583V7.833h-2.97v13.445h-.002z" fill="#fff" fill-rule="evenodd"/></svg>