<svg width="170" height="23" viewBox="0 0 170 23" xmlns="http://www.w3.org/2000/svg"><title>Live_Music</title><path d="M.9 22.379h13.35v-4.32H5.58V1.139H.9v21.24zm15.87 0h4.68V1.139h-4.68v21.24zm15.33 0h3.75l8.76-21.24H39.6l-5.34 13.92h-.06l-5.25-13.92h-5.34l8.49 21.24zm14.909 0h14.97v-4.32H51.69v-4.32h9.21v-4.32h-9.21v-3.96h9.75v-4.32H47.01v21.24h-.001zm27.6 0h4.68V6.089h.06l5.37 16.29h3.57l5.58-16.29h.06v16.29h4.68V1.139h-7.05L86.64 15h-.06L81.69 1.14h-7.08v21.24l-.001-.001zm46.229-21.24h-4.68v12.87c.006.624-.1 1.244-.315 1.83a4.372 4.372 0 0 1-.885 1.455c-.38.41-.839.736-1.35.96a4.18 4.18 0 0 1-1.71.345 4.286 4.286 0 0 1-1.725-.345 4.019 4.019 0 0 1-1.365-.96 4.372 4.372 0 0 1-.885-1.455 5.172 5.172 0 0 1-.315-1.83V1.139h-4.68v13.05c-.013 1.184.18 2.362.57 3.48a7.658 7.658 0 0 0 1.695 2.76 7.764 7.764 0 0 0 2.805 1.83c2.515.88 5.255.88 7.77 0a7.764 7.764 0 0 0 2.8-1.83 7.658 7.658 0 0 0 1.7-2.76c.39-1.118.583-2.296.57-3.48V1.139zm18.03 1.68a8.026 8.026 0 0 0-3.03-1.71 11.914 11.914 0 0 0-3.48-.51 10.622 10.622 0 0 0-3.03.435 7.825 7.825 0 0 0-2.595 1.305 6.508 6.508 0 0 0-1.8 2.16 6.38 6.38 0 0 0-.675 3 4.978 4.978 0 0 0 .735 2.85 5.784 5.784 0 0 0 1.845 1.74c.754.446 1.56.799 2.4 1.05.86.26 1.66.52 2.4.78.66.218 1.282.537 1.845.945.48.352.756.92.735 1.515a1.72 1.72 0 0 1-.285.99c-.194.284-.45.52-.75.69a3.762 3.762 0 0 1-1.05.405 5.124 5.124 0 0 1-1.155.135 5.181 5.181 0 0 1-2.265-.525 4.861 4.861 0 0 1-1.815-1.485l-3.33 3.66a9.623 9.623 0 0 0 3.3 2.04c2.253.761 4.68.834 6.975.21a7.6 7.6 0 0 0 2.61-1.29 6.27 6.27 0 0 0 1.785-2.19 6.828 6.828 0 0 0 .66-3.09 5.4 5.4 0 0 0-.72-2.97 5.575 5.575 0 0 0-1.815-1.77 9.7 9.7 0 0 0-2.355-1.02c-.84-.24-1.625-.48-2.355-.72a6.818 6.818 0 0 1-1.815-.87 1.691 1.691 0 0 1-.72-1.47c-.011-.363.094-.72.3-1.02.203-.283.47-.514.78-.675.321-.17.665-.297 1.02-.375a4.834 4.834 0 0 1 1.05-.12c.63.01 1.254.126 1.845.345.606.2 1.143.57 1.545 1.065l3.21-3.51zm3.45 19.56H147V1.139h-4.68v21.24h-.002zm26.43-18.66a7.242 7.242 0 0 0-1.56-1.47 8.58 8.58 0 0 0-1.815-.96 10.151 10.151 0 0 0-1.92-.525 11.24 11.24 0 0 0-1.875-.165 13.077 13.077 0 0 0-4.59.78c-1.35.49-2.585 1.25-3.63 2.235a10.133 10.133 0 0 0-2.385 3.525 12.91 12.91 0 0 0 0 9.24 10.133 10.133 0 0 0 2.385 3.525 10.507 10.507 0 0 0 3.63 2.235c1.471.532 3.026.797 4.59.78a10.586 10.586 0 0 0 4.26-.9 8.121 8.121 0 0 0 3.42-2.79l-3.9-2.91a5.083 5.083 0 0 1-1.83 1.68 5.278 5.278 0 0 1-2.55.6 5.509 5.509 0 0 1-2.355-.51 5.768 5.768 0 0 1-1.9-1.425 6.822 6.822 0 0 1-1.275-2.16 8.29 8.29 0 0 1 0-5.475 6.624 6.624 0 0 1 1.29-2.175 5.818 5.818 0 0 1 4.395-1.935 5.643 5.643 0 0 1 2.325.45 4.6 4.6 0 0 1 1.7 1.29l3.59-2.94z" fill="#FFF" fill-rule="evenodd"/></svg>