<svg width="405" height="194" viewBox="0 0 405 194" xmlns="http://www.w3.org/2000/svg"><title>Group</title><g fill="none" fill-rule="evenodd"><path d="M49.555 168.041h-.1l-6.467-22.522-7.111-.253-8.021 22.6h-.1l-5.024-23.06-7.748-.275 8.918 35.081 6.816.242 8.5-23.758h.1l6.8 24.3 6.571.234 11.532-34.355-8.337-.3-6.329 22.066zm53.088-3.024a18.912 18.912 0 0 0-2.062-9.7 16.492 16.492 0 0 0-6.443-6.612 21.83 21.83 0 0 0-19.321-.687 16.168 16.168 0 0 0-6.922 6.187 18.951 18.951 0 0 0-2.718 9.478 18.46 18.46 0 0 0 2.063 9.648A16.385 16.385 0 0 0 73.681 180a21.832 21.832 0 0 0 19.322.687 16.179 16.179 0 0 0 6.922-6.187 18.966 18.966 0 0 0 2.718-9.478v-.005zm-7.945-.282a12.085 12.085 0 0 1-1.527 5.69 10.125 10.125 0 0 1-3.968 3.861 10.894 10.894 0 0 1-5.691 1.247 10.757 10.757 0 0 1-5.587-1.672 9.82 9.82 0 0 1-3.66-4.083 12.938 12.938 0 0 1 .435-11.548 9.582 9.582 0 0 1 3.941-3.837 11.85 11.85 0 0 1 11.255.4 10.174 10.174 0 0 1 3.659 4.132 12.06 12.06 0 0 1 1.143 5.81zm38.475-16.015l-13.437-.478c-4.12-.146-7.362.59-9.727 2.208-2.365 1.618-3.612 4.242-3.741 7.871a9.991 9.991 0 0 0 1.761 6.4 8.655 8.655 0 0 0 5.4 3.384l-9.348 14.349 9.171.326 7.75-13.62 3.776.134-.493 13.878 7.651.272 1.237-34.724zm-8.161 14.1l-4.511-.161a18.323 18.323 0 0 1-3.179-.358c-2.145-.436-3.18-1.684-3.108-3.744a3.314 3.314 0 0 1 1.656-3.059 8.749 8.749 0 0 1 4.421-.752l5 .178-.279 7.896zm35.111 1.3l-12.974-14.9-10-.355 14.874 16.683-17.431 17.99 10.69.38 14.709-15.976-.591 16.473 7.65.272 1.233-34.72-7.65-.272-.51 14.425zm19.139-5.261a5.476 5.476 0 0 1 2.439-1.608 8.5 8.5 0 0 1 3.185-.5 6.7 6.7 0 0 1 3.57 1.084 3.064 3.064 0 0 1 .012 5.205 17.529 17.529 0 0 1-4.8 1.671 38.2 38.2 0 0 0-5.166 1.682 8.464 8.464 0 0 0-3.59 2.917 9.1 9.1 0 0 0-1.506 5.053A10.553 10.553 0 0 0 175 180.7a10.929 10.929 0 0 0 4.645 4.019c2.12.97 4.415 1.494 6.745 1.541a16.634 16.634 0 0 0 11.827-3.95l-5.231-6.176a8.383 8.383 0 0 1-3.052 2.3 8.29 8.29 0 0 1-3.734.752 6.888 6.888 0 0 1-3.692-1.114 3 3 0 0 1-1.476-2.7c.004-.789.333-1.54.909-2.079a5.794 5.794 0 0 1 1.934-1.232 38.288 38.288 0 0 1 3.651-1.172 37.042 37.042 0 0 0 5.219-1.778 8.769 8.769 0 0 0 3.613-2.892 8.483 8.483 0 0 0 1.471-4.784 10.31 10.31 0 0 0-1.6-6.194 11.59 11.59 0 0 0-4.695-4 16.229 16.229 0 0 0-6.549-1.558 15.627 15.627 0 0 0-10.77 3.25l5.047 5.926zm37.222-.1l15.643.556-.25 7.061-14.467-.514-.251 7.062 14.467.514-.481 13.535 7.65.272 1.234-34.72-23.294-.828-.251 7.062zM282.37 171.4a18.912 18.912 0 0 0-2.062-9.7 16.489 16.489 0 0 0-6.442-6.612 21.832 21.832 0 0 0-19.322-.687 16.162 16.162 0 0 0-6.922 6.187 18.948 18.948 0 0 0-2.718 9.478 18.47 18.47 0 0 0 2.063 9.648 16.391 16.391 0 0 0 6.441 6.661 21.828 21.828 0 0 0 19.322.686 16.165 16.165 0 0 0 6.922-6.186 18.966 18.966 0 0 0 2.718-9.478v.003zm-7.944-.282a12.089 12.089 0 0 1-1.528 5.69 10.122 10.122 0 0 1-3.967 3.861 10.889 10.889 0 0 1-5.691 1.246 10.748 10.748 0 0 1-5.588-1.671 9.82 9.82 0 0 1-3.66-4.083 12.938 12.938 0 0 1 .435-11.548 9.582 9.582 0 0 1 3.941-3.837 11.85 11.85 0 0 1 11.255.4 10.171 10.171 0 0 1 3.659 4.131 12.067 12.067 0 0 1 1.144 5.811zM312.9 155.1l-13.437-.477c-4.119-.146-7.361.59-9.727 2.208-2.366 1.618-3.611 4.243-3.736 7.874a9.988 9.988 0 0 0 1.762 6.4 8.654 8.654 0 0 0 5.4 3.384l-9.348 14.349 9.171.326 7.751-13.621 3.776.134-.493 13.879 7.65.271L312.9 155.1zm-8.16 14.1l-4.512-.16a18.323 18.323 0 0 1-3.179-.358c-2.145-.437-3.18-1.685-3.108-3.744a3.317 3.317 0 0 1 1.656-3.06 8.75 8.75 0 0 1 4.421-.751l5 .178-.278 7.895zm48.6 10.025h-.1L346 156.28l-11.524-.409-1.234 34.72 7.651.272.946-26.629h.1l8.175 26.952 5.836.208 9.724-26.317h.1l-.946 26.629 7.65.272 1.234-34.72-11.574-.412-8.798 22.379zm27.133-14.651l15.938.567-.23 6.473-15.056-.535-.25 7.062 15.055.535-.251 7.061-16.821-.6-.258 7.063 24.471.87 1.234-34.72-23.588-.838-.244 7.062z" fill="#FFF"/><path d="M26.849 92.107c.11.064.212.127.318.191a.57.57 0 0 0 .127-.223 1.313 1.313 0 0 0-.272-.243c-.046.078-.1.152-.173.275zm51.9 34.178a1.618 1.618 0 0 0-.173.388c.024.079.068.15.127.208a.634.634 0 0 0 .257-.226.9.9 0 0 0-.211-.37zM35.77 137.093a1.649 1.649 0 0 0-.113.3.4.4 0 0 0 .2.088c.069-.09.13-.187.18-.289l-.269-.1.002.001zm-16.047-19.371c.078.032.152.06.226.089.06-.173.124-.346.17-.526 0-.007-.149-.053-.226-.081l-.17.518zm-18.092 8.494l-.328.149c.1.218.191.437.286.656l.226-.078a45.467 45.467 0 0 1-.184-.727zm9.809-5.746l.13.131.551-.487a9.551 9.551 0 0 0-.169-.176c-.17.176-.339.356-.512.532zm39.339 18.6c-.13-.15-.291-.27-.473-.349a.459.459 0 0 0-.314.332.486.486 0 0 0 .318.349c.18-.071.342-.185.469-.332zM36.044 79.813c.088-.526.141-.8.162-1.076a.538.538 0 0 0-.349-.074c-.4.254-.346.561.187 1.15zm-11.316 14.4c-.6.5-.6.5-.1 1.221.039-.477.067-.8.1-1.221zm-10.479 23.472c-1.161.984-1.161.984-.25 1.753.074-.508.144-1.013.25-1.753zM32.7 142.172c.72.9.72.9 1.687.332-.642-.124-1.1-.215-1.687-.332zm10.539-49.5c.1-.1.2-.191.3-.286l-1.186-1.362c-.374 1.249.343 1.38.886 1.648zm7.486 49.465c.014.116.032.233.046.349.823-.113 1.645-.222 2.464-.332l-.043-.324-2.467.307zm-5.209-18.127c.557-.375 1.443-.068 1.835-.978-1.433-.127-1.433-.127-1.835.978zm-12-7.429h-1.115c1.161 1.047-.088 2.081.353 3.4a9.633 9.633 0 0 0 .762-3.4zm5.884 6.3c.667.039 1.111.064 1.535.092.1.324.169.585.282.97.389-.279.706-.505 1.01-.72-.586-1.061-.586-1.061-2.2-1.859-.173.427-.349.847-.624 1.517H39.4zm38.294 2.265a2.3 2.3 0 0 0 2.792-.723.743.743 0 0 0-.3-1.122 3.377 3.377 0 0 0-2.5 1.845h.008zm-35.688-5.82c.325.361.576.783.738 1.241a4.181 4.181 0 0 1-.452 1.482c.209.243.473.557.622.73 1.108-.378 1.976-.67 2.88-.981-.353-1.661-1.913-.663-2.64-1.291-.124-.811.571-.723 1-.9-.8-.918-.858-.925-2.15-.282l.002.001zM25.861 82.308c-1.324.74-1.289 1.943-1.246 3.224a30.571 30.571 0 0 1-.233 3.3h-.985v3c.494-1.2.607-2.3 1.535-3.026.376-.413.599-.943.632-1.5.216-1.562.336-3.135.477-4.709a.6.6 0 0 0-.18-.292v.003zm11.393 59.339c-.159.948.014 1.153.7.966a34.537 34.537 0 0 1 1.891-.466 5.654 5.654 0 0 0 1.92-.4 6.807 6.807 0 0 1 3.5-1 1.716 1.716 0 0 0 1.719-1.3c-1.077.159-2.323 0-3.05.537-.9.673-2.163.13-2.813 1.139a1.481 1.481 0 0 0-2.255.4c-.176.2-.422.326-.688.352a3.338 3.338 0 0 1-.925-.225l.001-.003zm5.177-4.04c.115-.11.241-.207.377-.289.413-.124.918-.222.83-.769-.1-.628-.678-.592-1.14-.547-.84.074-1.677.3-2.52.325a2.121 2.121 0 0 0-1.966 1.735 9.514 9.514 0 0 0-.269 1.411h2.04l.022-.212c-.286-.077-.572-.151-1.031-.275.558-.363.967-.631 1.37-.892.712.945.705.921 1.838.614.41-.055.825-.06 1.236-.014l-.787-1.087zm-.615-36.474l1.571 4.629c.081-1.658-.155-3.292-.053-4.9a8.523 8.523 0 0 0-1.013-4.046c-.141.578-.229.949-.318 1.309-1.351-.064-.663-1.39-1.263-1.951a7.245 7.245 0 0 0 .7 5.912c.123-.311.222-.565.377-.953h-.001zM58.5 85.62c-.777-.487-.777-.518-2.235-.451-1.588.067-3.2-.24-4.757.412a2.7 2.7 0 0 1-1.207-.109c-1.066-.148-2.129-.339-3.2-.43-.55.062-1.09.19-1.609.381 1.478.709 1.08 1.492.723 2.307-.9 2.056-1.775 4.127-2.689 6.254a.7.7 0 0 0-.858.772 4.848 4.848 0 0 0 .462 2.328c1.162 2.4 2.955 4.554 3.117 7.376.081 1.411.145 2.826.2 4.24.049 1.32.053 2.642.117 3.962.038.843.211 1.686.208 2.529A8.072 8.072 0 0 0 48 120.277c-.084.6-1.242.9-.352 1.7 1.108-.473 2.241-.935 3.349-1.446.586-.272 1.112-.659 1.694-.942a7.832 7.832 0 0 1 1.67-.635.567.567 0 0 1 .554.857 1.894 1.894 0 0 1-.727.61 3.92 3.92 0 0 0-1.267.593c-.682.921-1.691.9-2.623 1.129-.5.12-1.038.113-1.532.264a1.849 1.849 0 0 0-.571.561c.06.088.116.173.176.258.276-.109.558-.203.844-.282.29-.125.612-.156.921-.089.634.471 1.513.43 2.1-.1.907-.537 2.076-.765 2.573-1.93a2.048 2.048 0 0 0 2.467-.208c1.352-.935 2.789-1.746 4.179-2.621a170.752 170.752 0 0 0 3.3-2.131c.21-.106.38-.276.487-.486.3-1.186 1.342-1.63 2.192-2.261 1.12-.69 2.17-1.49 3.131-2.388a9.034 9.034 0 0 1 2.181-1.944c2.224-1.3 3.95-3.2 5.93-4.79 1.126-.907 1.1-1.129.42-2.452.85-.7 2.382-.829 2.386-2.455-1.052-.787-1.673.871-2.722.48-.434-.533-.007-.808.417-1.175 1.482-1.284 3.212-2.4 3.483-4.663-.483.177-.949.349-1.376.5-.717-1 .5-1.576.385-2.532-1.9-.029-2.376 1.619-3.3 3.019.173-1.862.3-3.425.477-4.981.118-.306.262-.6.43-.882a4.6 4.6 0 0 0 .014-1.047c-.225.216-.42.462-.579.73-.268.882-.469 1.781-.744 2.66a5.208 5.208 0 0 1-.572 1.1.685.685 0 0 1-.364.1c-.151-.349-.289-.67-.483-1.125-1.564 1.213-1.737 3.446-3.646 4.162a23.97 23.97 0 0 1 1.747-2.483 9.394 9.394 0 0 0 1.846-4.822 1.47 1.47 0 0 0-.318-1.154 3.922 3.922 0 0 0-2.026-.853c-2.6.074-5.206.222-7.782.546a38.937 38.937 0 0 0-8.065 2.191 1.181 1.181 0 0 1-1.447-.007 1.271 1.271 0 0 1-.035-1.58 1.1 1.1 0 0 0 .053-.367c-.315-.113-.565-.208-.936-.346.869-.607 2.009.046 2.556-.942l.005.002zm-39.405 30.743c.462-.19.928-.377 1.39-.564-.836-.723-1.1-.607-1.355.6l-.925-.536c.272.5.424.769.7 1.277.109-.448.148-.614.191-.78l-.001.003zM38.6 106.3c.183.395.363.794.638 1.393.588-2.314.804-4.708.639-7.09-.1-.91.11-1.781-.529-2.649-.3-.42-.053-1.245-.053-1.975.254.043.48.077.8.13v-3.552c-.007-1.093.882-1.972.54-3.347a2.637 2.637 0 0 1-.971-2.445 1.946 1.946 0 0 0-.406-.885l-.349.053c-.1.536-.17 1.072-.29 1.6-.159.709-.014 1.513-.783 2.028a2.777 2.777 0 0 0-.276.918c-.2.437-.2 1.072-.893 1.128l.046.039c.18-1.072.3-2.159.554-3.21.357-1.474-.261-2.871-.247-4.314a2.444 2.444 0 0 0-.7-.977c-1.009.5-.836 1.429-1.14 2.374a2.283 2.283 0 0 1-.381-.773c.077-.839.3-1.675.314-2.515.028-1.164-.078-2.331-.124-3.5-.01-.227 0-.456 0-.787.427.024.762.045 1.108.067-.589-1.182-1.172-2.336-1.832-3.658l2-.558c.286-.659.614-1.283.826-1.943.177-.437.223-.917.131-1.38a2.477 2.477 0 0 1 .476-2.37c.172-.285.31-.589.409-.906.509-1.394 1.141-2.674 2.87-3.048l.445.91c.171-.206.293-.449.356-.709-.469-.776.007-1.231.494-1.7 1.32-1.281 2.58-2.674 4.465-3.119a5.916 5.916 0 0 1 2.224-.116 1.682 1.682 0 0 0 1.531-.437 18.2 18.2 0 0 1 1.723-1.193c.981-.656 2-1.259 2.94-1.964a18.836 18.836 0 0 1 3.508-2.336c1.015-.6 1.952-1.32 2.792-2.148a.472.472 0 0 0 .166-.226c.395-2 2.2-3.079 3.081-4.762.151-.227.277-.47.374-.726a2.931 2.931 0 0 1 1.55-1.94 5.177 5.177 0 0 0 2.46-3c.357-.8.524-1.674.487-2.55a1.84 1.84 0 0 1 .353-1.037c.271-.494.653-.931.917-1.432.3-.568.879-1.214.417-1.82a2.328 2.328 0 0 0-2.213-1.009c-2.444.29-4.852.83-7.186 1.612-1.3.451-2.6.885-3.886 1.361a21.2 21.2 0 0 1-5.446.9c-2.354.233-4.712.409-7.07.621a14.736 14.736 0 0 1-5.887-.667 5.945 5.945 0 0 0-2.509-.212 8.934 8.934 0 0 1-2.937-.208 30.513 30.513 0 0 1-3.2-1.163c-1.331-.481-2.648-1.038-4.013-1.391a9.115 9.115 0 0 1-5.877-4.582c-.664-1.21-1.327-2.674-.18-4.127.222-.42.336-.89.332-1.365a7.23 7.23 0 0 1 3.092-4.889c.254-.127.487-.292.691-.49a3.758 3.758 0 0 1 2.866-1.82 3 3 0 0 0 .967-.953c.42.124.95.3 1.49.438.868.222 1.736.465 2.619.614.7.179 1.442.02 2.008-.428a1.9 1.9 0 0 1 1.041-.4c2.76-.137 5.047-1.742 7.634-2.42 3.018-.793 6.011-1.692 9.029-2.49 2.509-.66 5.043-1.241 7.567-1.852.32-.08.648-.13.978-.148 1.411-.06 2.827-.085 4.242-.151a2.6 2.6 0 0 0 .953-.23 8.113 8.113 0 0 1 3.318-.652c.748-.036 1.5-.318 2.241-.293a17.781 17.781 0 0 1 5.686.92c.976.41 2.09.334 3-.208a11.953 11.953 0 0 1 3.194-1.5c2.719-.71 5.59-.566 8.224.413a4.368 4.368 0 0 0 1.768.278 7.783 7.783 0 0 1 4.275 1.206c.52.3.75.929.547 1.493-.198.65.044 1.352.6 1.742.826.755 1.306 1.9 2.541 2.173a1.911 1.911 0 0 0 1.684 1.509 2.293 2.293 0 0 1 1.669 1.4A12.5 12.5 0 0 1 106 19.1a21.628 21.628 0 0 1 1 6.975 38.481 38.481 0 0 1-.36 4.655 45.834 45.834 0 0 1-3.83 11.659c-1.091 2.091-2.068 4.243-3.226 6.3a46.518 46.518 0 0 1-8 10.248c-1.21 1.192-2.47 2.342-3.7 3.516a6.7 6.7 0 0 0-.511.624 13.63 13.63 0 0 0 3.882 2.1c.28.047.55.131.808.25 2.171 1.5 4.772 2.022 7.13 3.1a4.307 4.307 0 0 1 2.442 2.755 1.3 1.3 0 0 1 .078.688 5.813 5.813 0 0 0 1.62 5.9c.371.43.654.929.833 1.468.6 1.584 1.147 3.192 1.719 4.787a1.8 1.8 0 0 1-.007 1.5 2.57 2.57 0 0 0 .176 2.529c.38.906.513 1.897.385 2.872-.056.648-.007 1.3.145 1.933.169.813.292 1.635.367 2.462-1.119.127-1.19.9-1.289 1.743a22.277 22.277 0 0 1-2.206 7.728 203.374 203.374 0 0 1-3.977 7.355 14.541 14.541 0 0 1-1.772 2.212.732.732 0 0 1-1.218.074.946.946 0 0 0-1.57.028c-.607.592-1.61.8-1.624 1.947a2.212 2.212 0 0 1-.865.741c-.4-.187-.762-.36-1.178-.558-.431.593-.562 1.546-1.638 1.246-.275.137-.49.372-.6.659-.261.593-.455 1.217-.66 1.831-.391 1.182-.388 1.182-1.616 1.136-1.006 1.1-1.694 2.928-3.868 1.809v1.5c-.618.07-1.43-.41-1.68.666a2.839 2.839 0 0 1-1.3.582c.551.776 1.218.66 2.04.346a1.3 1.3 0 0 1-1.341.9 2.5 2.5 0 0 0-2.742 1.707l.01.032c-.374-2.2-.561-2.363-2.788-2.459a9.499 9.499 0 0 1-.565-.042c-1.39-.109-1.539-.378-.974-1.76 1.041-.3.695.765 1.2 1.22 1.221-.966 2.447-1.937 3.677-2.913-.042-.089-.084-.18-.127-.268l-1.094.134c-.056-.254-.109-.5-.183-.851-.533.325-1.042.632-1.642 1 .1.345.212.719.311 1.061a.781.781 0 0 1-1.172-.042c-1.225-.864-2.128-.4-2.252 1.1-.038.444-.166.885-.275 1.453-1.6-.762-2.767-.032-3.974.709-1.115.684-2.319 1.224-3.452 1.884-.37.271-.707.583-1.006.931l.042-.042c-.228.066-.45.15-.663.253a14.662 14.662 0 0 1-4.567 1.824 5.6 5.6 0 0 0-1.158.519c-.32.194-.68.316-1.052.356-1.418-.155-2.675.459-4 .734-.783.166-1.574.427-2.181-.353-.992 1.358-1.369 1.45-3.014.772-.349 1.133-1.581.706-2.435 1.394.039.441.092.977.148 1.608-.2.141-.476.335-.752.526.028.085.057.169.081.257 1.045-.123 2.09-.243 3.17-.37.081-.37.127-.638.194-.9a1.9 1.9 0 0 1 2.192-1.489.57.57 0 0 1 .409.314.688.688 0 0 1-.187.586c-.5.212-1.041.339-1.592.589a1.86 1.86 0 0 1 1.924.956c.381-.078.688-.145 1.143-.24.05.533.089.981.149 1.612a5.412 5.412 0 0 0 1.842-.278 2.73 2.73 0 0 1 2.284-.2 2.728 2.728 0 0 0 2.993-.691c.338-.297.704-.56 1.094-.784-.254-.571-.53-1.192-.854-1.915a2.992 2.992 0 0 1-.7 1.066c-.397.098-.81.117-1.214.056-.565.024-1.133.092-1.7.088a.936.936 0 0 1-.706-.452c.638-.218 1.277-.43 2-.673-.05-.445-.1-.879-.148-1.323.709-.078 1.348-.173 1.99-.2.65.144 1.14.679 1.227 1.338.124.522.308 1.034.516 1.718a3.1 3.1 0 0 1 2.767-.906 2.116 2.116 0 0 1-.713 2.067 7.7 7.7 0 0 1-.967.822 1.451 1.451 0 0 0-.72 1.9c-.044.308-.16.602-.339.857-.593-.836-1.062-1.5-1.571-2.212a1 1 0 0 0-.455.163 3.827 3.827 0 0 1-2.248 1.1c-.32.056-.626.181-.893.367a.824.824 0 0 0-.254.709c.124.235.349.4.61.448.918.13 1.507-.339 1.79-1.5.572.363 1.09.691 1.832 1.164-1.423.564-2.648 1.083-3.9 1.541-1.934.71-3.992 1.023-5.9 1.863-.927.286-1.876.492-2.837.617-1.087.265-2.164.586-3.24.886-.128.061-.262.11-.4.144-2.111.067-4.041 1.161-6.184 1.083a2.784 2.784 0 0 0-1.334.349 6.772 6.772 0 0 1-5.093.212c-.445-.08-.896-.131-1.348-.152a6.816 6.816 0 0 1-.971-.137c-.932-.254-1.853-.554-2.788-.794-.218.006-.43.064-.621.169a2.134 2.134 0 0 1-2.34-.331 5.181 5.181 0 0 0-.975-.515 2.411 2.411 0 0 1-1.408-1.443.675.675 0 0 0-.377-.455c-.787-.007-.727-.6-.823-1.093l-.032.038c.075-.31.149-.617.237-1l-1.959-.092c.233-.8.318-1.534 1.309-1.485.015-1.178.353-2.215-.1-3.308a4.24 4.24 0 0 1 .162-1.746 5.366 5.366 0 0 0-2.131-.6 3.178 3.178 0 0 1-2.421-1.22 1.439 1.439 0 0 0-1.366-.85.8.8 0 0 1-.622-.282c-.991-1.27-2.357-1.3-3.783-1.207a5.664 5.664 0 0 1-2.728-.677c-.717-.321-1.536-.512-2.249-.917a4.118 4.118 0 0 1-.889-.639c-.455-.465-.628-.98.148-1.435-1.408-.759-1.468-2.12-1.895-3.249.593-.667 1-.032 1.6.056-.328-.814-1-1.411-.367-2.441a3.673 3.673 0 0 1 1.853-1.252c-.016-.715.04-1.43.169-2.134a1.931 1.931 0 0 0-.691-1.887 1.178 1.178 0 0 1-.272-1.616c.395.1.826.2 1.295.311a2.229 2.229 0 0 0 1.027 1.749c.523.371.643 1.3 1.048 2.244-.37.176-.755.356-1.394.663 1.063.406 1.7.649 2.5.956a14.7 14.7 0 0 1-.48-2.173c.012-.665.079-1.328.2-1.982-.237-.2-.469-.413-.858-.748a4.858 4.858 0 0 0 2.125-2.046c-.036.836-.029 1.673.021 2.508.081.8-.18 1.714.706 2.491.078-.72-.049-1.5 1.006-1.57.039.479.074.962.113 1.453a.7.7 0 0 0 1.1-.166 1.449 1.449 0 0 1 2.139-.452c-.392-1.319-.1-1.964.9-2.444a6.11 6.11 0 0 0 1.44-1.647c.428.927-.367 1.192-.614 1.809.777.653.117 1.5 0 2.314.1.014.2.032.3.053.466-.776.848-1.599 1.14-2.455.2-.839 1.362-1.287.914-2.437-.314.028-.618.049-.914.074a.488.488 0 0 1 .021-.268 8.17 8.17 0 0 1 1.737-1.164c1.26-.459 1.57-1.464 1.8-2.586.078-.392.162-.78.244-1.164 1.337.243 1.4.24 1.528 1.524.005.804-.06 1.607-.194 2.4.212.33.365.692.455 1.073.06.441-.445.97.36 1.386a7.5 7.5 0 0 1 .42-1.171c.252-.365.532-.708.84-1.027l-.416-.87c.815-.6.826-1.447.921-2.417.215-2.2.751-4.371 1.161-6.551a3.9 3.9 0 0 0 .236-1.238c-.086-1.272.05-2.549.4-3.774a3.146 3.146 0 0 0-.413-2.586c-.127.335-.2.526-.268.72-.216.6-.078 1.259-.911 1.679-.762.384-.692 1.418-.491 2.2.234.73-.03 1.528-.653 1.975a6.225 6.225 0 0 0-1.5 3.556c.342-.018.621-.029 1-.046-.032.307-.06.607-.1.991-.381-.025-.691-.042-1.051-.067-.149.307-.3.631-.565 1.175a3.663 3.663 0 0 1-.935-1.45c.123-1.309-.226-2.695.557-3.93a1.667 1.667 0 0 0 .251-1.619c.008-.338.088-.671.233-.977.265.448.4.67.536.9a1.046 1.046 0 0 0 .014-1.474 1.382 1.382 0 0 1-.127-1.171c.349-.5.487-1.117.385-1.718.091-.242.27-.44.5-.558.279-.09.534-.241.749-.441-.3-.12-.6-.239-.9-.363a.521.521 0 0 1-.074-.254c.312-.72.486-1.494.512-2.279.11-1.449.491-2.878.745-4.317.072-.316.104-.64.095-.963-.1-1.362-.229-2.72-.342-4.078-.095-1.125-.184-2.25-.29-3.566.533.032 1.01.056 1.585.092-.286-1.242.646-2.015 1.377-3.031.268.3.455.547.677.755.569.607 1.5.696 2.174.209.629-.529.629-.529 1.645-.283.381 1.528.868 3.073-.063 4.667 1.256.945.984 2.24.868 3.5-.1.985-.2 1.969-.293 2.819.307.165.595.363.858.592-.47 1.235.155 2.861-1.4 3.718.614.847 1.62 1.492 1.016 2.836-.113-.381-.2-.68-.3-1-1.384.631-1.306 1.926-1.483 3.072-.1.691-.077 1.4-.123 2.374a2.734 2.734 0 0 0-.678-.607c-.21 0-.418.047-.607.138l.141-3.129c-.021.011.173-.078.371-.162a.479.479 0 0 0-.018-.247 1.2 1.2 0 0 1-.144-1.768c.257-.423.494-.832-.3-1.22.17.974-.872 1.443-.586 2.561.205.808-.342 1.8-.529 2.72a25.789 25.789 0 0 0-.512 2.779c-.088.928-.018 1.877-.018 2.875l.851.332a11.538 11.538 0 0 0-.861 6.3c-1.73 1.788-1.423 3.922-1.073 6.19-.215-.031-.417-.056-.618-.091-1.172-.187-1.369.081-.935 1.269-.8.491-.8.491-1.67-.469-.155.53-.289 1-.444 1.538.467-.03.935.03 1.38.177.305.294.548.645.716 1.033.713-.571 1.821-.716 2.721-1.534-.151-1.164.865-1.9 1.5-3.09a7.706 7.706 0 0 1 .434 4.2c.639-1.619 1.539-3.22.05-4.984.268-.109.5-.2.748-.307.3-.91-.688-.836-1.123-1.439.075-.345.234-.666.463-.935.868-.053.773-.814 1.154-1.513.4 1.563-.529 3.15.688 4.169-.13 1.2-.254 2.272-.378 3.4a1.493 1.493 0 0 0 1.141-1.235c.557-1.584.776-1.746 2.445-1.633.138.011.276.039.463.064.187.356.377.719.663 1.273.235-.23.43-.5.576-.794a12.9 12.9 0 0 1 2.043-4.282c.225-.36.368-.767.417-1.189.2-1.534.674-3.058.1-4.621a3.059 3.059 0 0 1 .036-1.1c.356.5.677.96 1 1.415l-.018.001zm152.574-42.336a1.631 1.631 0 0 0-.37-.11.416.416 0 0 0-.166.142c.104.073.216.132.335.176a.72.72 0 0 0 .2-.208h.001zm-7.381 10.416a.41.41 0 0 0-.071-.215.46.46 0 0 0-.236.018c.032.1.06.194.088.289.074-.032.148-.06.219-.092zm-59.348 43.984l-.328.12.268.628a.856.856 0 0 0 .219-.106c-.039-.215-.1-.427-.159-.642zm68.429-47.916c.053-.092.11-.184.166-.276l-1.02-.511c-.042.077-.084.158-.13.239.328.184.656.367.984.548zm-70.6 65.07l-.257-.032c-.043.268-.085.54-.127.811l.282.032c.032-.268.067-.54.1-.811h.002zm60.779-73.91a1.124 1.124 0 0 0 1.536.434l-1.536-.434zm14.284 5.612c.011-1.319-.716-1.2-1.225-1.373l-.2.262c.4.31.794.617 1.426 1.111h-.001zm-.948 20.5c.137-1.28.13-1.277-1.038-1.679.392.635.657 1.058 1.038 1.679zm-19.928-25.856c-.038.1-.074.2-.109.3.515.335 1.034.67 1.648 1.065.156-.374.261-.638.434-1.055-.751-.116-1.362-.215-1.973-.31zM118.4 120.9c-.113 1.6-1.617 2.952-.134 4.6.18-.569.29-1.157.325-1.753a2.483 2.483 0 0 1 .3-1.739c.272-.406.187-.79-.487-1.1l-.004-.008zm59.874-44.576c-.356-.366-.744-.762-1.249-1.284-.286.36-.611.776-.939 1.189-.452.046-.9.092-1.161.117l.847 1.608c.607.134.318-.963 1.14-.776.374.085.907-.55 1.362-.854zm-63.618 47.734c.021.395.046.793.067 1.192.385-.455.984-.96-.113-1.157.441-.423.819-1.065 1.549-.593.106.78-1.108 1.3-.162 2.134.135-.151.246-.323.328-.508.29-1.421.48-2.867.858-4.264a2.138 2.138 0 0 0-1.168-2.649 6.184 6.184 0 0 0-1.857 3.047c.024.192.09.376.191.54l1.542-.67c-.6.794-.978 1.33-1.387 1.845a.67.67 0 0 0 .152 1.083zm71.111-40.982l.043.042a5.083 5.083 0 0 0-2.743-.733c-.12.21-.197.443-.225.684.077.575 1.069.511.949 1.28.109.079.23.137.36.173a.172.172 0 0 0 .138.007c.723-.536 1.44-.077 2.167-.01a4.027 4.027 0 0 0 1.147-.3c-.636-.663-.921-1.4-1.836-1.146v.003zm-4.9 34.319a.471.471 0 0 0-.209-.141c-2.107.762-4.351 1.174-6.328 2.536-.064 1.39-1.016 2.071-2.361 2.367-.854.194-.854.191-1.5-.67-1.059-.374-1.73.642-2.771.561a5.818 5.818 0 0 0-2.94.751 12.49 12.49 0 0 1-2.965.67l-.8-1.34c-.677.437-1.49.61-2.287.486-.462.035-.906.2-1.278.477-.455.232-.854.571-1.309.8-1.878.921-3.579 2.18-5.605 2.808a3.752 3.752 0 0 0-.808.582c.238.154.492.28.759.374.209-.045.422-.068.635-.067.428.381 1.04.477 1.564.247.991-.219 1.224.123.981 1.35a5.1 5.1 0 0 0-3.021-.112 2.943 2.943 0 0 1-1.282-.209c.184.452.329.819.509 1.263-.268.266-.6.46-.964.561a2.1 2.1 0 0 0-1.969.6 1.662 1.662 0 0 1-1.938-.092 1.722 1.722 0 0 0-1.9.057c.272.43.508.807.854 1.358-1.719.374-3.55-.572-4.948 1.023a127.93 127.93 0 0 1-.5-1.157c-1.2-.018-2 .359-2.156 1.277a1.472 1.472 0 0 1-1.776 1.35c-.275-.006-.55 0-1.076 0 .3-.543.515-.923.79-1.41.202.18.426.333.668.455.61.208 1.073-.187.748-.674-.477-.709-.064-.953.409-1.182a13.3 13.3 0 0 1 2.09-.843c1.588-.455 3.194-.846 4.8-1.242.318-.084.65-.101.974-.049a2.454 2.454 0 0 0 1.744-.331 7.426 7.426 0 0 1 1.976-.427 2.222 2.222 0 0 1 1.747-2.4 3.926 3.926 0 0 0-3.55.963c-.988.236-1.73.455-2.485.585a13.263 13.263 0 0 0-3.551 1.277 54.378 54.378 0 0 1-5.258 2.085c-1.059.388-2.168.638-3.234 1.009a3.92 3.92 0 0 0-.9.634l.028-.017a1.446 1.446 0 0 0-1.669.6 2.086 2.086 0 0 1-2.125.737 4.885 4.885 0 0 0-2.343.13 1.4 1.4 0 0 0-.791.678 6.207 6.207 0 0 1-2.054 2.31c-.3-.716-.554-1.337-.886-2.131-1.225.283-2.57.632-3.935.882-1.204.234-2.42.397-3.643.487a5.172 5.172 0 0 0-3.13.977c-.78.44-1.615.775-2.482 1-.56.232-1.103.5-1.627.805-.45.261-.875.562-1.27.9-2.026 1.749-4.546 1.943-7.024 2.183-1.444.138-2.562-.786-3.731-1.5a4.28 4.28 0 0 1-1.888-3.135 1.81 1.81 0 0 1 .522-1.672 4.318 4.318 0 0 0 1.349-1.94c.26-.304.614-.512 1.006-.593.385-.112.78-.193 1.178-.24a3.238 3.238 0 0 1-1.387-2.836c.854-.155 1.465.49 2.2.674.293-.335.911-.406.674-1.164.202-.38.5-.701.865-.931a13.158 13.158 0 0 1-.131-2.071c.058-.372.294-.692.632-.857.851-.106 1.147-.882 1.73-1.224 1.845-1.073 2.749-2.931 4.034-4.47a2 2 0 0 1 .977-.677 35.14 35.14 0 0 0 3.241-1.39 3.048 3.048 0 0 0 1.644-1.693 2.331 2.331 0 0 1 1.281-1.256c.713-.345 1.4-.747 2.118-1.1a4.9 4.9 0 0 0 2.446-2 3.485 3.485 0 0 1 2.287-1.224 38.87 38.87 0 0 0 4.761-1.073.8.8 0 0 1 .325.117c.339 1.069-.3 1.711-1.108 2.293-.215-.1-.466-.208-.791-.357-.169.375-.317.7-.437.97.008.077.031.15.067.219 1.8 1.016.833 2.744 1.044 4.159.065.865.072 1.734.022 2.6.847-1.351.038-3.027 1.542-3.75.367.363.759.751 1.373 1.368-.088.54-.282 1.362-.353 2.194-.071.812-.014 1.637-.014 2.484.512-.052.913-.465.949-.978.42-1.051.805-2.12 1.168-3.195.134-.302.17-.64.1-.963-.635-1.549.2-2.96.343-4.427a.666.666 0 0 1 .243-.487c.953-.423.9-1.245.837-2.049a1.452 1.452 0 0 1 .744-1.419c.047.3.066.606.057.91-.064.413-.237.819-.265 1.235a.845.845 0 0 0 .551 1.027c.43.24.97.123 1.263-.272.3-.448.678-.843 1.176-1.446.155.64.107 1.314-.138 1.926-.438.917-1.2 1.778-.367 2.854-.4 1.245.134 2.818-1.408 3.619a2.413 2.413 0 0 0 1.362 1.732c.844.3.692 1.125.713 1.7l1.669 1.407c1.169-.649 2.39-1.33 3.675-2.046-.135-.512-.318-1.083.67-1.164a9.071 9.071 0 0 0 1.878-.6c.2-.115.43-.164.66-.142.748.481 1.348 0 1.994-.229.741-.261 1.715-.292 1.5-1.538.141.219.282.434.451.7a3.691 3.691 0 0 0 2-1.412c-.632-.035-1.105-.063-1.874-.105.254-.302.53-.584.826-.844a33.77 33.77 0 0 1 2.114-1.411c.28-.112.575-.179.875-.2l.149.92c.356-.151.73-.306 1.133-.476l1.57 1.161a1.585 1.585 0 0 0-.67 2.06c1.15-1.418 2.95-1.559 4.267-2.568.402-.396.754-.84 1.051-1.319.163.088.4.208.668.352a.781.781 0 0 0 .162-.356.79.79 0 0 1 .349-1.09c1.853-1.122 3.7-2.261 5.559-3.379a2.7 2.7 0 0 1 .65-.18c.162.458.31.882.462 1.3.452.275.452.275.674-.2l-.706.233a2 2 0 0 1 .448-.695 96.51 96.51 0 0 1 3.661-2.064.93.93 0 0 1 .677-.106c.9.417 1.546-.1 2.2-.553a7.462 7.462 0 0 0 2.7-2.628 2.13 2.13 0 0 1 .653-.723c.674-.5 1.387-.946 2.079-1.422a13.113 13.113 0 0 0 2.919-3.033c.45-.373.602-.997.374-1.535-.014-.46.093-.916.31-1.322.975.045 1.261.585 1.158 1.562 1.338-1.136 2.7-1.986 2.164-3.979-.233.056-.406.092-.572.138-.134.038-.265.088-.441.151a2.4 2.4 0 0 1-.163-.356c-.261-1.027-.938-1.933-.818-3.083a.618.618 0 0 0-.812-.575c-.547.06-1.1.116-1.61.169a2.22 2.22 0 0 0-3.31-1.39c-.35.142-.667.364-1.02.5a.6.6 0 0 1-.932-.328l2-2.374a2.033 2.033 0 0 0-.632-.547 16.891 16.891 0 0 1-5.259-1.6c-2.025-.776-4.133-1.334-6.144-2.142-1.652-.666-3.216-1.555-4.815-2.356a2.581 2.581 0 0 0-.589-.37c-2.231-.279-3.628-1.947-5.277-3.167-1.849-1.369-3.6-2.875-5.467-4.382-.953.829-1.86.321-2.654-.434a24.829 24.829 0 0 1-5.241-6.653 11.209 11.209 0 0 1-.918-7.986c.321-1.319.565-2.659.974-3.95a17.99 17.99 0 0 1 1.243-2.48c.8 1.079-.533 1.566-.364 2.328.547-.261 1.108-.529 1.772-.843a2.93 2.93 0 0 1-.194-.727c-.011-.437.049-.913.685-.793a1 1 0 0 0 1.14-.815c.518-1.1.991-2.226 1.57-3.295a22.433 22.433 0 0 1 3.911-5.016 3.522 3.522 0 0 0 1.263-1.9 4.48 4.48 0 0 0-.875-.092c-1.885.184-3.769.35-5.643.6a31.254 31.254 0 0 1-9.763-.172c-1.115-.2-2.231-.42-3.353-.6a4.493 4.493 0 0 1-2.615-1.277 4.57 4.57 0 0 0-1.786-.808 1.593 1.593 0 0 1-1.048-.8 4.06 4.06 0 0 0-1.342-1.167 2.081 2.081 0 0 1-1.041-1.972 9.163 9.163 0 0 0-.727-3.274 7.235 7.235 0 0 1-.448-3.044 19.943 19.943 0 0 1 1.323-6.5 11.408 11.408 0 0 1 2.9-4.142 30.363 30.363 0 0 1 3.537-2.839 14.173 14.173 0 0 1 2.41-1.09c.3-.134.6-.265.9-.409.28-.177.574-.331.879-.462 2.837-.9 5.675-1.81 8.527-2.667a6.9 6.9 0 0 1 1.687-.177c2.594-.109 5.192-.2 7.789-.31a67.575 67.575 0 0 0 3.12-.2 753.02 753.02 0 0 0 9.862-.985c3.2-.349 6.385-.85 9.589-1.086 1.94-.11 3.888-.045 5.817.194 2.026.184 4.033.536 6 1.054a14.632 14.632 0 0 1 10.892 11.024 6.726 6.726 0 0 1-.031 3.224c-.7 3.09-1.324 6.2-1.963 9.305a12.264 12.264 0 0 1-2.513 5.327 12.2 12.2 0 0 0-2.2 4.247 11.6 11.6 0 0 1-3.378 4.815 25.317 25.317 0 0 1-9.836 6c-.651.28-1.26.647-1.811 1.093-.625.427-1.218.9-1.839 1.362l.127 1.316a5.169 5.169 0 0 0 2.764.709c.73-.089 1.57.716 2.357 1.125.579.3 1.165.582 1.726.907.502.287.966.636 1.38 1.04 2.344.113 4.639.705 6.745 1.739 1.066.383 2.157.691 3.265.924.367.039.715.18 1.006.406.472.608 1.22.935 1.987.868a4.884 4.884 0 0 1 2.6 1c.222.247.392.536.5.85a4.072 4.072 0 0 1 3.526.635c1.048.709 2.4 1.072 2.3 2.783-.127.095-.325.254-.653.515a18.11 18.11 0 0 1 6.928 11.849l-1.062-2.318c-.385.181-.657.307-.886.413-.5-1.182-.963-2.307-1.451-3.429a1.292 1.292 0 0 0-.96-.864 9.667 9.667 0 0 1-2.142-1.249c-.84-.5-1.68-1-2.538-1.478a1.907 1.907 0 0 1-.889-1.52c-.127-.659-.318-1.309-.547-2.229.134-.088.48-.318.879-.578-.837-.579-1.55-1.07-2.143-1.482-.691.395-1.231.7-1.708.973l-1.091-1.012c-.3.6-.5 1.009-.677 1.351-1.2.413-2.294-.056-3.4-.191a5.878 5.878 0 0 1-3.173-1.1c-.21-.26-.349-.57-.4-.9a1.359 1.359 0 0 0-.731-1.76c-.784-.151-.978-1.1-1.888-1-1.088.074-2.18.083-3.269.029-.413 1.774-1.817.409-2.781.892-.085.494-.176 1.034-.272 1.584.353.138.666.363.911.653.357 1.277 1.444 1.048 2.517 1.443-.159-.466-.237-.706-.318-.946l-.032.028a2.48 2.48 0 0 1 2.3.124 3.193 3.193 0 0 0 3.989-.191c.236.381.469.759.727 1.171a1.83 1.83 0 0 1-2.323.5 18.364 18.364 0 0 0-2.4-.575 2.658 2.658 0 0 0 2.2 1.012c1.034.07 2.07.086 3.106.049.321-.104.61-.287.843-.532.942.271 1.807.564 2.693.762a1.6 1.6 0 0 1 1.458 2.032l-.809.2c.133.207.31.382.519.512.6.038 1.091.088.78.889l.029-.022c-.989-.246-1.981-.493-3.082-.772-.335-.5-.557-1.33-1.531-1.238-.092 1.252-.085 1.227 1.023 1.686.578.235 1.106.58 1.553 1.016a37.551 37.551 0 0 1-4.119-1.093 1.507 1.507 0 0 0-1.705.193c.124.247.244.494.269.547a8.467 8.467 0 0 1 1.846.159c1.185.384 2.336.885 3.571 1.365-.141.244-.243.42-.321.55.374.268.748.526 1.112.8a1.3 1.3 0 0 0 .427.353c1.553.092 1.511 1.217 1.528 2.444-1.111-.652-2.343-1-2.859-2.317a.844.844 0 0 0-.49-.43c-1.528-.462-3.067-.9-4.606-1.323a1.782 1.782 0 0 0-.6.124c.183.127.386.222.6.282 1.34.11 2.574.77 3.41 1.823a.466.466 0 0 1-.388.755c-.608-.088-1.2-.225-1.8-.349h.01c.134-.254.268-.511.445-.843a5.741 5.741 0 0 0-2.7-.6c-.464 0-.912-.167-1.264-.469a1.809 1.809 0 0 0-2.432-.268 2.747 2.747 0 0 1-1.087.109c.209-.515.357-.868.59-1.442-.738.088-1.31.158-2.128.253l1.14 1.926c-.352.075-.71.109-1.07.1-1.549-.226-1.62-.2-2.446 1.524l3.459.727a2.433 2.433 0 0 1-2.266.539c1.673.91 3.11 1.707 4.56 2.476.377.172.764.323 1.158.452 1.309.5 2.619 1 3.921 1.516.09.069.16.162.2.269-.438.536-.851 1.044-1.38 1.7-.247-.06-.681-.158-1.2-.278.155.465.279.85.307.928.9.687 1.581 1.209 2.262 1.731l-.049-.053.455 1.122c-.085.075-.173.149-.258.222a814.59 814.59 0 0 0-2.378-1.989c-.064.06-.127.12-.195.18.129.22.27.432.424.635.196.12.366.28.5.466.05 1.7 1.384 1.611 2.676 1.876a6.241 6.241 0 0 1 .028-1.612c.228-.53.518-1.03.864-1.492-.088-.17-.24-.452-.391-.737l-.039.038 1.45.434c-.1-.342-.19-.674-.352-1.227.522.271.829.434 1.3.681l-.272-1.1c1.126.276 1.228.53.727 1.9l1.158.279c.148-.794.293-1.563.476-2.526-.391-.476-1.726-.688-1.129-2.063 1.345.952 1.888 2.539 3.025 3.661-.106-1.577-.106-1.577.977-1.993-.278-.271-.511-.494-.787-.762.1-.1.226-.211.357-.331 1.154.726 1.217 2.712 3.2 2.5.177.945.35 1.9.526 2.854 1.836-.568.322-1.711.555-2.667l.96.5c-.392-1.464-.752-2.794-1.165-4.328a3.343 3.343 0 0 1 1.8 2.684c.104.84.432 1.637.95 2.307a.711.711 0 0 1 .187.5c-.23 1.563.423 3.2-.4 4.71.441 1-.459 1.644-.653 2.476a14.26 14.26 0 0 1-.667 2.712 4.757 4.757 0 0 1-1.8 2.48.934.934 0 0 0-.381.374c-.66 1.447-1.253 2.928-1.959 4.353a17.638 17.638 0 0 1-4.185 4.945 18.538 18.538 0 0 1-3.855 2.3c-1.98 1.093-3.85 2.381-5.8 3.531-.946.561-1.874 1.33-3.077.744l-.5 1.242-.738-.339.02.016zM386.47 87.207a1.064 1.064 0 0 0-.339-.268.331.331 0 0 0-.223.219c.04.121.13.22.248.268a.778.778 0 0 0 .314-.219zm-72.37 29.807l-.32-.014a5.3 5.3 0 0 0 .057.575c.075.02.152.028.229.025.014-.194.025-.392.036-.589l-.002.003zm65.777-33.091c-.117.022-.237.039-.357.06l.148.674c.131-.025.258-.056.385-.085-.056-.215-.117-.43-.176-.649zm13.549 1.824l.3-.159a276.4 276.4 0 0 1-.579-1.128.831.831 0 0 0 .275 1.287h.004zm-19.818-5.933c-.275-.533-.463-.892-.759-1.457-.251.847-.138 1.245.759 1.457zm4.285 1.464l-.279.222c.526.487.625 1.358 1.556 1.5-.424-.575-.854-1.147-1.277-1.718v-.004zm-5.937-3.044c-.318-1.354-.318-1.354-1.394-.9.536.349.963.624 1.394.9zm2.788 1.4c-.166.451-.257.7-.349.959.653.229.363 1.383 1.316 1.418-.077-.536-.145-.981-.215-1.429l.244-.084c-.279-.24-.554-.48-1-.864h.004zm-67.469 46.7c.3.779.3.779 1.56 1.439a3.47 3.47 0 0 0 2.078.7c-1.228-.723-2.428-1.428-3.638-2.137v-.002zm10.415 4.926c-.028.519.364.589.731.706.423.134.84.289 1.26.433l-.053.346c-.274.051-.554.06-.83.028-3.212-.91-6.557-1.457-9.349-3.5a11.828 11.828 0 0 0-1.578-.759 11.6 11.6 0 0 1-3.547-3.277 7.079 7.079 0 0 0-1.747-1.192c-.674-.437-1.345-.878-2.033-1.291-.688-.413-1.073-.91-.519-1.672-.844-.691-1.909-1.012-2.287-2.109a.95.95 0 0 0-.678-.473c-1.694-.222-2.77-1.5-4.1-2.332-.357-.222-.682-.494-.992-.723.324-1.206.222-1.524-.717-2.18a3.186 3.186 0 0 1-1.27-1.231 3.166 3.166 0 0 0-1.645-.984 2.782 2.782 0 0 1-2.015-1.584 4.463 4.463 0 0 0-1.426-1.2c.37-.1.6-.165 1-.271-.315-.865-.622-1.722-.957-2.646.431-.367.911-.779 1.507-1.291a2.067 2.067 0 0 1-.709 2.18l.741.381c.335-.353.4-.892 1.094-.917a1.523 1.523 0 0 0 1.112-1.3 9.147 9.147 0 0 1 1.369-2.872 2.6 2.6 0 0 1 3.106-.73c2.143.84 4.345 1.485 6.434 2.515a8.885 8.885 0 0 0 5.291 1.281.841.841 0 0 1 .251.261l-1.027.628c.5 1.721.713 1.919 1.877 1.813a5.228 5.228 0 0 0 2.937-.822c-.219.448-.339.716-.484.97-.31.529-.688 1.026-.949 1.58a1.559 1.559 0 0 0 .73 2.3c.223.165.418.364.579.589.184.215.339.451.533.716a6 6 0 0 1 1.122.017c.318.026.614.176.823.417.367.927 1.193.984 1.959 1.181.409.11.836.159 1.246.279.642.183 1.076.374.766 1.3-.177.532.37 1.28-.59 1.943 1.027.307 1.8.54 2.577.773.166-.409.328-.812.494-1.217l2.47 1.573c-.024.1-.081.36-.144.635.124.076.259.13.4.162 2.212.124 4.433.339 6.649.325 2.933-.018 5.866-.215 8.8-.342.236.013.473-.015.7-.082 1.348-.536 2.661-1.178 4.038-1.619 1.612-.518 3.278-.882 4.927-1.287.233-.054.478-.028.695.074a5.526 5.526 0 0 0 4.1.381 9.267 9.267 0 0 1 3.05-.109c.6.086 1.165.34 1.627.733.336.335.835.445 1.281.282a6.885 6.885 0 0 0 2.894-1.375 5.221 5.221 0 0 1 2.7-1.464c.236-.025.464-.096.673-.208 1.049-.628 2.1-1.26 3.11-1.944.228-.26.429-.543.6-.843.981-1.069 1.1-2.825 2.823-3.386-.384-1.2.756-1.764 1.087-2.692.199-.25.35-.535.449-.839-.477-1.683.564-3.362-.029-5.038a3.259 3.259 0 0 1-.028-.966c-.014-.607.021-1.213-.053-1.813-.109-.914-.4-1.161-1.256-1.013-.667.162-1.324.365-1.966.607.174-.252.362-.494.565-.723.547-.525 1.1-1.04 1.669-1.541a4.022 4.022 0 0 0 1.069-4.664 8.319 8.319 0 0 0-1.68-3.372 36.024 36.024 0 0 1-2.117-3c-1.134-1.46-2.831-2.173-4.356-3.107a16.915 16.915 0 0 1-4.8-3.63l.621-.709a1.362 1.362 0 0 0-.568-.194c-.794.543-1.4.169-2.047-.307-2.464-1.82-5.044-3.506-7.387-5.471a33.2 33.2 0 0 1-4.338-4.67 23.781 23.781 0 0 1-4.641-8.872 36.894 36.894 0 0 1-.872-4.43 7.27 7.27 0 0 1 2.223-6.043c.264-.258.59-.445.946-.543a2.432 2.432 0 0 0 1.677-1.9c.422-1.249.91-2.475 1.461-3.672a1.37 1.37 0 0 1 .416-.378c.886.388.346 1.221.713 1.852 3.424-2.8 6.685-5.838 10.875-7.944a7.93 7.93 0 0 0-1.013-.409c-.18.027-.362.042-.544.046-1.073-1.3-2.033-.1-3.025.12-.228.07-.442.177-.635.317a2.362 2.362 0 0 1-1.719.374c-1.807-.24-3.183.73-4.387 1.916a13.54 13.54 0 0 0-2.626 4.187c-.547 1.2-1 2.437-1.6 3.626-.243-2.512 1.37-4.49 2.213-6.79a43.625 43.625 0 0 0-4.973-1.6 26.263 26.263 0 0 0-3.8-.05 6.51 6.51 0 0 1-2.316-.42c-1.069-.472-2.008-1.231-3.063-1.753-1.267-.628-2.636-1.054-3.886-1.714-1.546-.811-3.014-1.764-4.507-2.67a1.411 1.411 0 0 1-.222-.5l3-1.125c-.279-.385-.5-.692-.727-1.009.322-.275.63-.567.921-.875a.8.8 0 0 0-.268-1.344c-.479-.2-.945-.43-1.394-.688a1.862 1.862 0 0 1-1.119-1.675 2.08 2.08 0 0 1 1.86-1.288 14.936 14.936 0 0 0 1.543-.162c1.016-.215 1.192-.568 1.168-1.58a2.5 2.5 0 0 0-1.67-2.484c-.593-.243-1.154-.554-1.846-.889 1.843-.18 3.181-.836 3.848-2.536a1.5 1.5 0 0 1 1.651-1.037c1.038.064 2.178.427 3.067-.519a.142.142 0 0 1 .131-.021c2.389.776 3.4-1.5 5.058-2.321.876-.5 1.72-1.055 2.527-1.661.09-.029.175-.066.258-.11 1.33-1.555 2.583-1 3.9.293 1-.448 2-.945 3.038-1.33.43-.166.902-.182 1.341-.045a2.84 2.84 0 0 0 2.21-.039c1.486-.6 3-1.15 4.426-1.877a24.5 24.5 0 0 1 7.966-2.434c3.095-.427 6.173-.994 9.265-1.442a22.33 22.33 0 0 1 3.54-.251 55.3 55.3 0 0 1 11.263 1.284 21.3 21.3 0 0 0 4.436.836c.378.01.748.118 1.073.311.666.32 1.388.507 2.125.55 1.916.324 3.917.6 5.011 2.688a20.8 20.8 0 0 0 2.189 2.769 25.215 25.215 0 0 1 2.248 3.072 10.123 10.123 0 0 1 1.292 3.418 4.425 4.425 0 0 1-.635 2.812 18.516 18.516 0 0 0-1.624 3.573 35.7 35.7 0 0 1-4.242 8.624 17.246 17.246 0 0 0-1.8 3.524 8.581 8.581 0 0 1-4.676 4.868c-3.06 1.277-6.138 2.5-9.156 3.866a49 49 0 0 0-5.506 2.942 7.657 7.657 0 0 0-1.892 2.05 2.039 2.039 0 0 0-.2 1.9c.248.953.59 1.88 1.02 2.766l.247-1.016c.269.328.555.64.857.938.883.776 1.779 1.535 2.679 2.29.487.302.83.79.95 1.351a1.3 1.3 0 0 0 .571.751c1.529 1.023 3.085 2.011 4.73 3.076.2-.321.356-.575.6-.96.618.5 1.218.977 1.822 1.461-.646 0-1.349-.512-1.613.409l7.429 4.166c.06-.173.156-.455.29-.84 1.376 2.17 2.7 4.251 4.133 6.515-.646-.155-1.133-.239-1.592-.4a.793.793 0 0 1-.487-.441c.148-1.337-1.119-1.6-1.747-2.335-.29-.342-.713-.469-1.222.12.5.621 1.017 1.255 1.532 1.894l-.13.2c-.387-.202-.76-.429-1.119-.678-.406-.317-.762-.709-1.14-1.061a6.753 6.753 0 0 0-4.006-1.806c-.018.239-.036.444-.053.744-1.331.451-1.719-.886-2.774-1.334.628-.433 1.292-.472 1.51-1.128a.955.955 0 0 1 .872-.293c1.038.353 2.3.194 3.046 1.259.147.128.35.17.537.113a2.923 2.923 0 0 0-.47-.839 7.087 7.087 0 0 0-3.533-1.969 2.456 2.456 0 0 1-1.736-1.118A5.251 5.251 0 0 0 381.7 58.7c.152.952 1.267.67 1.525 1.453l-1.084-.162c.081.335.134.539.184.747a3.407 3.407 0 0 0-3.869.258c.207.297.454.564.734.794a2.871 2.871 0 0 1 1.476 1.8c.147.288.402.506.709.607a3.079 3.079 0 0 1 1.8 1.873l.043-.039c-.2.028-.4.06-.6.088-.082.12-.166.24-.248.357.283.151.562.3.84.455l-.038-.039c.1.212.2.423.37.8-1.309-.424-2.594-.314-3.674-1.129a2.573 2.573 0 0 0-2.386-.614.232.232 0 0 1-.138 0c-1.143-.311-2.287-.628-3.533-.97a2.706 2.706 0 0 0-.363 1.238c.206.613.527 1.18.946 1.672.342.437.889.712 1.239 1.146.663.822.582 1.351-.2 2.187.074-.72.074-.72-.738-.568.258.18.515.36.773.536.242.209.511.384.8.522.607.198 1.226.357 1.853.477.36.046.722.066 1.084.06v1.756l.034-.031h-2.77c-.187-1.613-.187-1.613-3.339-2.406l.233-.695c-.769-.039-1.482-.081-2.23-.12-.406.924-.378 1.238.225 1.7.547.358 1.07.75 1.567 1.174.438.48.844.988 1.215 1.521-.4 1.15-.4 1.15.621 1.707.078-.155.152-.307.233-.455.067-.12.141-.236.2-.332.575-.123 1.99 1.154 2.378 2.117-.984.3-1.161-1.221-2.22-.942 0 .966.971.885 1.384 1.344.469.518.886 1.086 1.359 1.668.172-.158.349-.317.6-.543.081.565.145 1.016.212 1.5.632-.321 1.108-.561 1.581-.8l-.025.021c.491.18.978.356 1.462.539l-.336.91a35.765 35.765 0 0 1-.737-.585c-.06.31-.106.533-.159.811.392-.109.663-.183.932-.254.007.649.444.642 1.133.738l-.862-1.6a.7.7 0 0 1-.049-1.08c.243.22.463.463.657.727.945 1.63 1.87 3.273 2.8 4.914.111.257.257.498.434.716.409.4.625.095.826-.424l.829 1.489c.067-.007.138-.018.209-.025v-3.446l1.143.966c-.254-.934-.5-1.83-.787-2.878.844.413 2.047 2.272 2.573 3.556.526 1.284 1.157 2.515 1.807 3.915-.039-.628-.074-1.143-.106-1.686.212-.011.42-.021.763-.035-.5-2.1-.982-4.152-1.469-6.212.039-.028.078-.053.116-.081.424.624.851 1.248 1.275 1.873.071-.021.141-.039.208-.06-.2-.684-.388-1.369-.6-2.046-.155-.494-.377-.97-.508-1.474-.31-.837.11-1.767.942-2.089.218-.19.415-.402.586-.635.173.046.48.124.7.184a2 2 0 0 0-.078.9 14.9 14.9 0 0 1 1.888 5.457c.102.34.257.66.46.952-.244.155-.46.286-.773.483.229.632.441 1.3.712 1.941.382.91.646 2.056.1 2.712-.671.8-.318 1.164.025 1.792.15.44.23.9.236 1.365l-.3.233c-.124-.346-.251-.691-.4-1.122-.678.857.014 1.224.017 1.69-1.246.645-.342 1.961-.935 2.959-.342-.606-.646-1.135-1.031-1.809-.713 1.178.293 2.48-.755 3.594-.247-1.721-.469-3.277-.7-4.829-.081 0-.163 0-.247.007 0 1.842.014 3.683-.014 5.524.04.375-.065.75-.293 1.051-1.112.692-1.059 1.923-1.522 2.914-.427.921-.977 1.785-1.433 2.695a4.1 4.1 0 0 0-.462 1.309c-.462 3.972-2.594 7.016-5.347 9.725a17.562 17.562 0 0 1-5.743 4.06c-.412.166-.836.328-.539.815-.553.1-1.112.16-1.673.18a14.522 14.522 0 0 1-1.882-.293c-.1.162-.282.469-.466.776-2.2-.155-4.362-.085-6.173 1.467l.06-.056c-1.369-.409-2.477.42-3.66.811-2.146.709-4.26 1.521-6.385 2.311-.727.268-1.644.349-1.581 1.453a1.918 1.918 0 0 1-.684.035c-1.289-.575-2.464-.053-3.692.268-2.873.745-5.75 1.5-8.658 2.078a16.781 16.781 0 0 1-4.348.194c-.67.065-1.345.05-2.012-.042a28.947 28.947 0 0 0-4.1-.491 5.185 5.185 0 0 1-1.019-.405 3.369 3.369 0 0 0-1.26-.4c-1.451.123-2.895.335-4.335.557-.5.078-.977.317-1.475.42-.353.07-.716.081-1.073.035a4.217 4.217 0 0 0-2.866.381c.583.183 1.161.367 1.98.628-.981.663-1.542-.11-2.188-.078a17.23 17.23 0 0 1-1.938-.134 83.547 83.547 0 0 1-1.528-.547c.328.52.974.742 1.553.533h-.018zM240.892 93.8a6.27 6.27 0 0 1-2.09-.656 8.094 8.094 0 0 1-1.461-2 .737.737 0 0 1 .046-.663c.212-.313.6-.6.3-.977a3.112 3.112 0 0 0-1.006-.751 3.591 3.591 0 0 0-.833-.134 1.276 1.276 0 0 1-.9-2.018c.112-.283.208-.571.289-.864H234.2c-.12-1.626-1.309-3.062-.261-4.762a2.585 2.585 0 0 0 .293-2.66c-.169.343-.282.575-.4.808a.471.471 0 0 1-.218-.12 2.986 2.986 0 0 1-.071-.981c.215-.987.5-1.961.748-2.945.298-.706.16-1.52-.353-2.088a2.73 2.73 0 0 1-.635-2.339 7.159 7.159 0 0 1 1.271-3.894c.4-.039.85-.088 1.288-.131V62.78c-.244-.105-.583-.25-.978-.423a8.449 8.449 0 0 1-.695.9 6.3 6.3 0 0 0-1.317 2.392 29.715 29.715 0 0 1-1.7 3.234 1.7 1.7 0 0 1-.385-2.448 47.259 47.259 0 0 1 1.708-2.754c.233-.35.547-.64.914-.847a1.962 1.962 0 0 0 .982-1.715c-.382.237-.646.4-.964.6l-.84-.649c.36-.536-.035-1.387.861-1.771l1.14.723c.6-.868 1.366-1.545 1.066-2.85-.268-1.164.971-2.177 2.347-2.113a6.6 6.6 0 0 1 2.418-3.651c1.362-1.083 2.682-2.219 4.027-3.326a23.407 23.407 0 0 1 2.178-1.725 2.5 2.5 0 0 1 1.351-.24c.412.039.822-.09 1.137-.357a19.3 19.3 0 0 1 2.46-1.562.692.692 0 0 1 .646.049c1.193 1.376 2.781.836 4.242.91.089 0 .18.018.374.043l-.052 1.041c.981 1.139 1.732-.216 2.756-.329-.148.346-.24.564-.364.861a1.835 1.835 0 0 0 1.991-.988l-.854-.91a5.56 5.56 0 0 1 .96-.861 34.911 34.911 0 0 0 3.752-2.1c.218-.081.456-.086.677-.014.925.187 1.857.349 2.761.61 1 .282 1.676-.423 2.484-.712.336-.117 1.977-.872 2.351-.956a.7.7 0 0 0 .353-.173 2.551 2.551 0 0 1 3.254-.755c.316.022.634-.017.935-.116.106-1.164.205-2.293.314-3.51.9.169.459 1.83 1.73 1.8l.254-.744c.17.065.327.156.466.272.409.483.621 1.2 1.581 1.178.071-.374.141-.755.215-1.168a.9.9 0 0 1 .375.088c.292.24.557.512.836.769.136.194.32.347.536.445 1.373.014 2.51.779 3.855 1.323v-1.2l1.57.423c.83-.8.24-1.771.427-2.776.441.289.766.508 1.183.78.332-.107.634-.289.882-.533a1.315 1.315 0 0 1 1.648-.723 1.81 1.81 0 0 1 1.659 1.5c.055.212.135.416.237.61.255-.052.515-.077.776-.074a1.374 1.374 0 0 1 1.221 1.164c.431 1.443 1 2.843 1.486 4.268.42 1.227 1.617 1.513 2.556 2.039a1.9 1.9 0 0 1 1.161 2.183 25.237 25.237 0 0 1-.83 2.671 6.75 6.75 0 0 0-.713 2.25c.2 2.677-1.715 4.226-3.628 5.026a3.9 3.9 0 0 1-2.9.2 1.842 1.842 0 0 0-2.071.49c-.375.36-.816.656-1.162 1.044a5.835 5.835 0 0 1-4.567 1.894c-3.41.025-6.819.038-10.228.039a15.8 15.8 0 0 0-6.823 1.746c-.938.445-1.863.924-2.8 1.39a7.4 7.4 0 0 0-2.224 1.7 11.467 11.467 0 0 1-2.52 1.81 2.511 2.511 0 0 0-1.387 2.127c-.053.847.113 1.972-1.044 2.43a.285.285 0 0 0-.113.247c.148 1.189-.664 2.176-.717 3.277-.09 1.03.1 2.067.547 3a8.9 8.9 0 0 1 1.525 4.466c.646.074 1.207.095 1.754.2 1.387.271 1.423.257 1.334-1.228.22.086.421.215.59.381.921 1.549 2.612 1.764 4.076 2.36.22.062.458.016.639-.124.72-.65 1.735-.86 2.654-.55.167-.004.332-.033.491-.084v-1.2a.5.5 0 0 1 .187-.166c1.507-.353 3.021-.691 4.532-1.037 3.183-.726 6.353-1.517 9.55-2.155a16.789 16.789 0 0 1 5.972.215c-.444.532-.723.864-1.041 1.242.3.363.593.708 1 1.185-.772.2-1.4.395-2.036.5-1.426.243-2.421 1.231-3.558 1.979a.389.389 0 0 0-.155.229c-.272 1.489-1.454 2.1-2.6 2.8a9.137 9.137 0 0 0-1.62 1.56c-1.606 1.664-3.5 3.149-4.708 5.068-1.1 1.753-2.757 2.748-4.077 4.169-1.56 1.68-3.264 3.239-4.976 4.77-.569.494-1.25.84-1.984 1.008-.898.25-1.68.804-2.216 1.567-.233-.3-.424-.547-.7-.9-.536.374-1.076.762-1.634 1.129a.941.941 0 0 1-.437.1c-.865.084-1.737.166-2.6.247a6.933 6.933 0 0 1-2.95.067 5.917 5.917 0 0 0-1.264-.053c-.5-.049-1-.152-1.7-.265.808-.811 1.715-.286 2.5-.769-.628-.279-1.175-.525-1.722-.769.021-.07.042-.141.064-.208l5.7.434c.011-.1.025-.2.032-.3-.611-.057-1.221-.1-1.828-.17-1.917-.24-3.83-.54-5.75-.723-1.334-.13-2.312-1-3.469-1.481-2.326-.963-3.967-2.85-5.7-4.551a16.624 16.624 0 0 1-2.213-3.414 5.19 5.19 0 0 1-.385-.967l-.011-.015zm-9.072-15.4c-.431-.229-.787-.42-1.14-.6-.025-1.457.166-1.668 1.638-1.6-.145-1.22-.293-2.42-.434-3.615a.64.64 0 0 1 .847.627c.141.554.307 1.1.508 1.8-.409.977-.9 2.159-1.419 3.393V78.4zm157.119-7.748c1.422-.173 2.033.314 2.163 1.668.035.346.06.688.092 1.1-.921.124-.77-.853-1.155-1.266a15.655 15.655 0 0 1-1.1-1.5v-.002zm-154.837-4.698a6.317 6.317 0 0 1-1.857 2.988 3.93 3.93 0 0 1 1.857-2.988zm-6.558 2.017c1.532.561 1.532.561 1 1.9-.851-.3-.706-1.068-1-1.9zm169.074 6.957c-.367-.828-.657-1.474-1.066-2.391a2.5 2.5 0 0 1 1.687 1.658 2.454 2.454 0 0 1-.621.733zm-13.444-8.858c1.084-.219 1.338.882 2.023 1.323-.675-.169-1.353-.335-2.026-.5l.039.039v-.9l-.036.038zM265.193 40.743a1.332 1.332 0 0 1 1.983 0 1.748 1.748 0 0 1-1.983 0zm-34.6 28.632c-.35.621-.7 1.238-1.1 1.951-.116-.988-.067-1.1 1.1-1.951zm149.7 1.543c-.558.437-.971.716-1.324.145a.745.745 0 0 1 .1-.713c.557-.3.794.2 1.221.568h.003zm-184.968 2.065c.444-.187.893-.378 1.39-.589.166.663 0 1.026-.741.893a2.569 2.569 0 0 1-.618-.328l-.031.024zm187.881-11.9c.519.081.816.127 1.218.187a1.338 1.338 0 0 1-.314.519c-.388.18-.4.155-.9-.706h-.004zm-.896-4.843c.445.237.889.473 1.334.713-.042.088-.081.173-.12.261l-1.426-.519c.071-.151.141-.3.212-.455zM260.84 39.935l1.335-.233c.017.12.031.244.045.367-.451.021-.907.042-1.358.06l-.022-.194zM63.852 43.72a2.4 2.4 0 0 1-.3.24.721.721 0 0 1-.17-.152c.084-.095.174-.186.269-.271.071.056.138.117.2.183h.001zm335.343 28.8c.127.166.254.328.381.493-.056.046-.109.089-.162.135-.134-.163-.268-.321-.4-.48l.183-.148h-.002zM274.754 38.636c.07.054.127.123.17.2a2.02 2.02 0 0 1-.2.346.619.619 0 0 1-.205-.243.975.975 0 0 1 .233-.3l.002-.003zm-4.18 2.465l-.247.011c.01-.072.026-.143.049-.211a.14.14 0 0 1 .12 0c.033.064.06.13.078.2zM47.355 58.343c-.106.063-.215.13-.325.2-.046-.1-.088-.2-.134-.3.12-.049.24-.1.36-.152l.1.258-.001-.006zm134.921 8.656c-.321-.353-.642-.706-.981-1.072 1.846-1.344 2.111-1.337 3.674.12-1.119-.05-2.093.049-2.718.977a.191.191 0 0 1 .025-.025z" fill="#009C8B"/></g></svg>