<svg width="60" height="27" viewBox="0 0 60 27" xmlns="http://www.w3.org/2000/svg"><title>Group 3</title><g fill="#FFF45F" fill-rule="evenodd"><path d="M38.465 7.833H27.831v2.621h3.836v10.824h2.962V10.454h3.836V7.833zm5.886 10.71h-5.488v2.735h8.451V7.833h-2.963v10.71zm7.33-7.425c.242-.298.56-.524.921-.655a3.3 3.3 0 0 1 1.225-.237c.49-.011.974.117 1.395.37a1.185 1.185 0 0 1 .076 2.013 6.764 6.764 0 0 1-1.832.712 14.8 14.8 0 0 0-1.975.722c-.55.26-1.017.667-1.348 1.177a3.521 3.521 0 0 0-.513 1.975 4.08 4.08 0 0 0 .7 2.431 4.229 4.229 0 0 0 1.851 1.491 6.588 6.588 0 0 0 2.63.5 6.439 6.439 0 0 0 4.52-1.69l-2.108-2.317c-.306.395-.7.713-1.149.931a3.2 3.2 0 0 1-1.434.342 2.665 2.665 0 0 1-1.443-.38 1.161 1.161 0 0 1-.608-1.025c-.01-.305.108-.6.323-.816.208-.214.457-.384.731-.5.458-.19.925-.357 1.4-.5.683-.203 1.35-.457 1.994-.759a3.393 3.393 0 0 0 1.358-1.168c.35-.559.525-1.21.5-1.87a3.984 3.984 0 0 0-.7-2.374A4.484 4.484 0 0 0 56.324 8a6.285 6.285 0 0 0-2.554-.513 6.05 6.05 0 0 0-4.121 1.405l2.032 2.226zM2.631 20.01l-.036.058.085.042c.005-.022.018-.048.01-.066-.006-.015-.038-.023-.059-.034zm9.238-4.745l-.043.023.072.138.046-.025-.075-.136zM2.704 24.24c-.004.03-.014.056-.008.08.002.01.038.016.06.023.007-.024.021-.05.02-.073-.001-.01-.04-.017-.072-.03zm-1.52-7.028l.066-.037c-.028-.041-.055-.083-.085-.122a.165.165 0 0 0-.042.027c.018.045.04.088.062.132zm1.402 6.638l.05.035.1-.144-.047-.033-.103.142zm-1.324-.893l-.068.013.04.22.068-.012-.04-.22zM.89 11.877l.068-.059c-.04-.155-.04-.155-.266-.14l.198.2zm.444 3.36l-.227-.441c-.03.361-.03.361.227.44zm3.21 9.535c.14.196.14.196.329.217-.112-.242-.112-.242-.33-.217zm-1.98-3.806c.167-.016.168-.095.168-.188 0-.078.036-.158.03-.235-.006-.075-.01-.174-.164-.183l-.034.606zm-.279 1.839c-.084.284.009.53.165.803.011-.139.044-.246.022-.34-.037-.16.044-.38-.194-.456.042-.125.128-.254.118-.374a7.113 7.113 0 0 0-.147-.88c-.07-.333-.12-.667-.21-.998a4.271 4.271 0 0 1-.12-1.381 1.831 1.831 0 0 0-.154-.83 3.68 3.68 0 0 0-.03.765c.045.6.09 1.2.17 1.796.056.407.177.803.255 1.207a.73.73 0 0 1-.024.33c-.058.199-.055.227.15.358zm2.294 3.014c.081.045.17.138.244.128.312-.047.605.07.909.077.057.002.114-.024.181-.04-.087-.218-.318-.107-.441-.264l.109-.336-.479-.075-.024.248c-.144.025-.181-.048-.21-.153-.014-.057-.053-.135-.1-.153-.14-.055-.29-.1-.439-.12-.09-.012-.189.03-.304.051.075.197.182.305.338.338.178.039.236.141.222.307a2.93 2.93 0 0 0-.64-.46c-.014.08-.005.15-.035.183-.039.04-.11.051-.167.075.124.26.54.438.776.337.034-.015.04-.094.06-.143zm.382-1.608c-.152.013-.28.054-.294.27.187.044.36-.005.547-.03-.044-.155-.272-.066-.263-.245l.165-.094-.174-.296-.293.207.312.188zm9.402-8.805l-.033-.196c-.13.229-.202.399-.21.594-.003.118.044.195.148.255.17.1.338.203.494.322.139.108.147.195.062.283a.254.254 0 0 1-.36-.007c-.12-.131-.23-.271-.347-.41-.178.278-.156.366.094.5a.685.685 0 0 1 .187.164c.11.131.213.27.314.397v.402c-.104.019-.225.03-.338.066a.226.226 0 0 0-.127.13c-.01.033.042.117.083.13.239.08.23.25.158.46.077.048.153.084.216.137.038.032.083.096.074.133-.009.04-.076.084-.123.091-.112.018-.234-.001-.315.143.108.165.222.336.333.51.098.154.198.306.286.465.12.22.08.44-.091.601.01.09.046.181.022.252-.058.173-.102.314.085.452.092.068-.021.314-.18.42.022.079.052.16.064.243.008.05-.012.105-.02.158l-.175-.031-.078-.01c-.108.376-.102.765-.115 1.176-.145-.002-.213.071-.208.222.004.104-.014.211-.034.314-.036.178-.026.338.1.486a.578.578 0 0 1 .098.235c.008.033-.027.1-.056.11-.032.01-.099-.019-.116-.05-.042-.076-.065-.164-.12-.24-.08.232-.141.457.116.625-.048.126-.095.229-.247.183-.094-.029-.205-.079-.238.054-.027.113-.05.25.083.337.052.034.1.076.155.118-.11.086-.196.165-.293.229a.377.377 0 0 1-.184.061 2.305 2.305 0 0 1-.428-.014c-.143-.022-.244.01-.292.126l.364.367c-.214.223-.45.294-.696.322a92.14 92.14 0 0 1-1.773.185c-.296.028-.594.04-.89.065-.454.04-.9-.02-1.344-.101a1.427 1.427 0 0 1-.425-.164c-.124-.07-.242-.106-.382-.074-.331.076-.645-.012-.959-.105-.181-.054-.368-.09-.553-.132-.363-.085-.728-.162-1.088-.259a.963.963 0 0 0-.393-.006c-.263.033-.53.08-.79-.04-.09-.04-.159-.075-.203-.178-.064-.153-.215-.2-.351-.107a.722.722 0 0 0-.245.269c-.106.222-.274.333-.505.379-.112.022-.22.068-.333.086-.177.03-.357.063-.535.061-.2-.001-.4-.047-.6-.06a.45.45 0 0 1-.413-.309c-.103-.267-.179-.544-.272-.836l.19-.018c.015-.024.035-.043.032-.056-.067-.305-.137-.61-.205-.916-.008-.037-.011-.076-.017-.113-.037-.265-.078-.528-.112-.793-.06-.462-.107-.926-.176-1.387-.038-.253-.074-.495-.013-.753.021-.09-.07-.207-.12-.335.173-.293.185-.627.105-.973-.016-.072-.01-.15-.01-.227 0-.275.003-.55.004-.825 0-.066-.022-.142.001-.198.17-.405.183-.84.201-1.263.01-.23.037-.495-.133-.713a.338.338 0 0 1-.046-.273c.113-.329.022-.667.07-.997.088-.596-.067-1.183-.064-1.776 0-.143 0-.286.006-.429.003-.095.03-.192.02-.285-.03-.239 0-.455.15-.654a.421.421 0 0 0 .075-.242c-.001-.209.055-.396.163-.572.034-.057.08-.126.074-.184-.04-.354.27-.464.457-.647.177-.175.429-.226.671-.196.422.052.814-.025 1.214-.155a2.81 2.81 0 0 1 1.164-.138c.6.064 1.202.121 1.801.197.48.061.958.053 1.433-.015a4.8 4.8 0 0 1 1.059-.044c.546.042 1.088.093 1.624.213.195.044.398.067.598.078.248.015.297-.019.326-.256.052-.417.141-.837-.054-1.246-.026-.056-.009-.131-.018-.196-.024-.161-.016-.338-.084-.478-.135-.274-.125-.557-.122-.842.003-.317-.009-.628-.091-.94-.105-.4-.339-.726-.554-1.061-.192-.298-.42-.571-.62-.864a1.165 1.165 0 0 0-.461-.418c-.251-.12-.497-.252-.746-.375a2.05 2.05 0 0 0-.918-.209c-.295 0-.54.09-.66.405-.049.128-.155.242-.257.34-.122.115-.207.226-.121.371-.079.042-.146.066-.199.108a.237.237 0 0 0-.067.125c-.11.46-.467.684-.85.876-.171.087-.302.19-.356.384a.44.44 0 0 1-.135.216c-.514.414-1.026.834-1.734.868-.231.011-.455.022-.682-.109.07-.154.043-.282-.026-.433a1.375 1.375 0 0 1-.11-.577c.005-.294.051-.589.09-.881.048-.35.107-.697.163-1.045.011-.066.03-.131.053-.194.18-.473.331-.96.553-1.412.162-.332.39-.642.638-.917.352-.391.742-.744 1.236-.97.348-.158.666-.38 1.008-.55A4.221 4.221 0 0 1 7.816.001c.971.016 1.874.228 2.655.854.26.208.575.345.86.522.38.236.696.542.932.923.125.2.274.367.48.484.264.151.41.382.502.672.068.215.193.416.318.607.178.274.356.535.392.88.017.158.138.313.235.452.101.143.192.268.178.466-.008.118.075.252.141.365.104.177.197.351.189.564-.002.037-.006.089.015.112.228.246.109.56.163.838.053.281.092.576.067.858a4.81 4.81 0 0 1-.21 1.008c-.093.3-.08.541.179.743.104.08.2.173.3.259.1.086.124.274.017.419-.206.275-.246.589-.289.915-.032.241-.13.475-.218.706-.062.165-.062.236.077.405l.179-.245.31.143c-.04.12-.107.237-.113.357-.007.127.045.257.077.414l-.401-.022a.574.574 0 0 0 .045.45c.036.075.046.13-.001.211-.072.124-.016.17.122.153.052-.007.11.027.196.052-.142.154-.274.2-.428.137-.08.264.136.288.263.395-.174.244-.413.312-.687.309h.002z"/></g></svg>