<?xml version="1.0" encoding="UTF-8" standalone="no"?>
<svg xmlns="http://www.w3.org/2000/svg" viewBox="0 0 1080 1080">
  <style>
    .st1{display:inline}.st2{fill:none;stroke:#fff;stroke-width:20;stroke-linecap:round;stroke-linejoin:round;stroke-miterlimit:10}.st5{fill:#37a5d6}.st6{fill:#ffed4b}.st7{fill:#e01f3f}
  </style>
  <g>
    <g>
      <g>
        <path d="M1041.8 864H920.2c-8.7 0-16.6-4.9-19.2-12.3-4.3-12.4 6-23.7 19.3-23.7h121.6c8.7 0 16.6 4.9 19.2 12.3 4.2 12.4-6.1 23.7-19.3 23.7z" class="st5"/>
        <path d="M1041.8 711H920.2c-8.7 0-16.6-4.9-19.2-12.3-4.3-12.4 6-23.7 19.3-23.7h121.6c8.7 0 16.6 4.9 19.2 12.3 4.2 12.4-6.1 23.7-19.3 23.7z" class="st5"/>
        <path d="M1041.8 558H920.2c-8.7 0-16.6-4.9-19.2-12.3-4.3-12.4 6-23.7 19.3-23.7h121.6c8.7 0 16.6 4.9 19.2 12.3 4.2 12.4-6.1 23.7-19.3 23.7z" class="st5"/>
        <path d="M1041.8 405H920.2c-8.7 0-16.6-4.9-19.2-12.3-4.3-12.4 6-23.7 19.3-23.7h121.6c8.7 0 16.6 4.9 19.2 12.3 4.2 12.4-6.1 23.7-19.3 23.7z" class="st5"/>
        <path d="M1041.8 252H920.2c-8.7 0-16.6-4.9-19.2-12.3-4.3-12.4 6-23.7 19.3-23.7h121.6c8.7 0 16.6 4.9 19.2 12.3 4.2 12.4-6.1 23.7-19.3 23.7z" class="st5"/>
      </g>
      <g>
        <path d="M159.8 864H38.2c-8.7 0-16.6-4.9-19.2-12.3-4.3-12.4 6-23.7 19.3-23.7h121.6c8.7 0 16.6 4.9 19.2 12.3 4.2 12.4-6.1 23.7-19.3 23.7z" class="st5"/>
        <path d="M159.8 711H38.2c-8.7 0-16.6-4.9-19.2-12.3-4.3-12.4 6-23.7 19.3-23.7h121.6c8.7 0 16.6 4.9 19.2 12.3 4.2 12.4-6.1 23.7-19.3 23.7z" class="st5"/>
        <path d="M159.8 558H38.2c-8.7 0-16.6-4.9-19.2-12.3-4.3-12.4 6-23.7 19.3-23.7h121.6c8.7 0 16.6 4.9 19.2 12.3 4.2 12.4-6.1 23.7-19.3 23.7z" class="st5"/>
        <path d="M159.7 405H38.2c-8.7 0-16.6-4.9-19.2-12.3-4.3-12.4 6-23.7 19.3-23.7h121.6c8.7 0 16.6 4.9 19.2 12.3 4.2 12.4-6.1 23.7-19.4 23.7z" class="st5"/>
        <path d="M159.7 252H38.1c-8.7 0-16.6-4.9-19.2-12.3-4.3-12.4 6-23.7 19.3-23.7h121.6c8.7 0 16.6 4.9 19.2 12.3 4.3 12.4-6 23.7-19.3 23.7z" class="st5"/>
      </g>
      <g>
        <path d="M840.3 1061c-7.4-2.6-12.3-10.5-12.3-19.2V920.2c0-8.7 4.9-16.6 12.3-19.2 12.4-4.3 23.7 6 23.7 19.3v121.5c0 13.2-11.3 23.5-23.7 19.2z" class="st5"/>
        <path d="M687.3 1061c-7.4-2.6-12.3-10.5-12.3-19.2V920.2c0-8.7 4.9-16.6 12.3-19.2 12.4-4.3 23.7 6 23.7 19.3v121.5c0 13.2-11.3 23.5-23.7 19.2z" class="st5"/>
        <path d="M534.3 1061c-7.4-2.6-12.3-10.5-12.3-19.2V920.2c0-8.7 4.9-16.6 12.3-19.2 12.4-4.3 23.7 6 23.7 19.3v121.5c0 13.2-11.3 23.5-23.7 19.2z" class="st5"/>
        <path d="M381.3 1061c-7.4-2.6-12.3-10.5-12.3-19.2V920.2c0-8.7 4.9-16.6 12.3-19.2 12.4-4.3 23.7 6 23.7 19.3v121.5c0 13.2-11.3 23.5-23.7 19.2z" class="st5"/>
        <path d="M228.3 1061c-7.4-2.6-12.3-10.5-12.3-19.2V920.2c0-8.7 4.9-16.6 12.3-19.2 12.4-4.3 23.7 6 23.7 19.3v121.5c0 13.2-11.3 23.5-23.7 19.2z" class="st5"/>
      </g>
      <g>
        <path d="M840.3 179c-7.4-2.6-12.3-10.5-12.3-19.2V38.2c0-8.7 4.9-16.6 12.3-19.2 12.4-4.3 23.7 6 23.7 19.3v121.5c0 13.2-11.3 23.5-23.7 19.2z" class="st5"/>
        <path d="M687.3 179c-7.4-2.6-12.3-10.5-12.3-19.2V38.2c0-8.7 4.9-16.6 12.3-19.2 12.4-4.3 23.7 6 23.7 19.3v121.5c0 13.2-11.3 23.5-23.7 19.2z" class="st5"/>
        <path d="M534.3 179c-7.4-2.6-12.3-10.5-12.3-19.2V38.2c0-8.7 4.9-16.6 12.3-19.2 12.4-4.3 23.7 6 23.7 19.3v121.5c0 13.2-11.3 23.5-23.7 19.2z" class="st5"/>
        <path d="M381.3 179c-7.4-2.6-12.3-10.5-12.3-19.2V38.2c0-8.7 4.9-16.6 12.3-19.2 12.4-4.3 23.7 6 23.7 19.3v121.5c0 13.2-11.3 23.5-23.7 19.2z" class="st5"/>
        <path d="M228.3 179c-7.4-2.6-12.3-10.5-12.3-19.2V38.2c0-8.7 4.9-16.6 12.3-19.2 12.4-4.3 23.7 6 23.7 19.3v121.5c0 13.2-11.3 23.5-23.7 19.2z" class="st5"/>
      </g>
      <path d="M918 936H162c-9.9 0-18-8.1-18-18V162c0-9.9 8.1-18 18-18h756c9.9 0 18 8.1 18 18v756c0 9.9-8.1 18-18 18zm-738-36h720V180H180v720z" class="st5"/>
    </g>
  </g>
  <g>
    <path d="M774 765h36v18h-36z" class="st6"/>
    <path d="M441 765h36v54h-36z" class="st6"/>
    <path d="M846 720H234c-9.9 0-18 8.1-18 18v108c0 9.9 8.1 18 18 18h612c9.9 0 18-8.1 18-18V738c0-9.9-8.1-18-18-18zm-522 72c0 5-4 9-9 9h-45v18h45c5 0 9 4 9 9s-4 9-9 9h-54c-5 0-9-4-9-9v-36c0-5 4-9 9-9h45v-18h-45c-5 0-9-4-9-9s4-9 9-9h54c5 0 9 4 9 9v36zm171 36c0 5-4 9-9 9h-54c-5 0-9-4-9-9v-72c0-5 4-9 9-9h54c5 0 9 4 9 9v72zm144 0c0 5-4 9-9 9s-9-4-9-9v-63h-9c-5 0-9-4-9-9s4-9 9-9h18c5 0 9 4 9 9v72zm189-36v36c0 5-4 9-9 9h-54c-5 0-9-4-9-9s4-9 9-9h45v-18h-45c-5 0-9-4-9-9v-36c0-5 4-9 9-9h54c5 0 9 4 9 9v36z" class="st6"/>
  </g>
  <g>
    <g>
      <g>
        <g>
          <path d="M846 684h-90c-9.9 0-18-8.1-18-18s8.1-18 18-18h90c9.9 0 18 8.1 18 18s-8.1 18-18 18z" class="st6"/>
          <path d="M864 557.7v108.7c0 9.8-7.9 17.7-17.7 17.7h-.7c-9.8 0-17.7-7.9-17.7-17.7V557.7c0-9.8 7.9-17.7 17.7-17.7h.7c9.8 0 17.7 7.9 17.7 17.7z" class="st6"/>
          <path d="M774 557.7v108.7c0 9.8-7.9 17.7-17.7 17.7h-.7c-9.8 0-17.7-7.9-17.7-17.7V557.7c0-9.8 7.9-17.7 17.7-17.7h.7c9.8 0 17.7 7.9 17.7 17.7z" class="st6"/>
        </g>
        <g>
          <path d="M846.3 468h-90.7c-9.8 0-17.7-7.9-17.7-17.7v-.7c0-9.8 7.9-17.7 17.7-17.7h90.7c9.8 0 17.7 7.9 17.7 17.7v.7c0 9.8-7.9 17.7-17.7 17.7z" class="st6"/>
          <path d="M846.3 414h-90.7c-9.8 0-17.7-7.9-17.7-17.7v-.7c0-9.8 7.9-17.7 17.7-17.7h90.7c9.8 0 17.7 7.9 17.7 17.7v.7c0 9.8-7.9 17.7-17.7 17.7z" class="st6"/>
          <path d="M864 395.7v54.7c0 9.8-7.9 17.7-17.7 17.7h-.7c-9.8 0-17.7-7.9-17.7-17.7v-54.7c0-9.8 7.9-17.7 17.7-17.7h.7c9.8 0 17.7 7.9 17.7 17.7z" class="st6"/>
          <path d="M774 395.7v108.7c0 9.8-7.9 17.7-17.7 17.7h-.7c-9.8 0-17.7-7.9-17.7-17.7V395.7c0-9.8 7.9-17.7 17.7-17.7h.7c9.8 0 17.7 7.9 17.7 17.7z" class="st6"/>
        </g>
        <g>
          <path d="M846 252h-90c-9.9 0-18-8.1-18-18s8.1-18 18-18h90c9.9 0 18 8.1 18 18s-8.1 18-18 18z" class="st6"/>
          <path d="M738 234h36v108h-36z" class="st6"/>
          <path d="M846 360h-90c-9.9 0-18-8.1-18-18s8.1-18 18-18h90c9.9 0 18 8.1 18 18s-8.1 18-18 18z" class="st6"/>
        </g>
      </g>
      <g>
        <g>
          <path d="M324 684h-90c-9.9 0-18-8.1-18-18s8.1-18 18-18h90c9.9 0 18 8.1 18 18s-8.1 18-18 18z" class="st6"/>
          <path d="M342 557.7v108.7c0 9.8-7.9 17.7-17.7 17.7h-.7c-9.8 0-17.7-7.9-17.7-17.7V557.7c0-9.8 7.9-17.7 17.7-17.7h.7c9.8 0 17.7 7.9 17.7 17.7z" class="st6"/>
          <path d="M252 557.7v108.7c0 9.8-7.9 17.7-17.7 17.7h-.7c-9.8 0-17.7-7.9-17.7-17.7V557.7c0-9.8 7.9-17.7 17.7-17.7h.7c9.8 0 17.7 7.9 17.7 17.7z" class="st6"/>
        </g>
        <g>
          <path d="M324.3 468h-90.7c-9.8 0-17.7-7.9-17.7-17.7v-.7c0-9.8 7.9-17.7 17.7-17.7h90.7c9.8 0 17.7 7.9 17.7 17.7v.7c0 9.8-7.9 17.7-17.7 17.7z" class="st6"/>
          <path d="M324.3 414h-90.7c-9.8 0-17.7-7.9-17.7-17.7v-.7c0-9.8 7.9-17.7 17.7-17.7h90.7c9.8 0 17.7 7.9 17.7 17.7v.7c0 9.8-7.9 17.7-17.7 17.7z" class="st6"/>
          <path d="M342 395.7v54.7c0 9.8-7.9 17.7-17.7 17.7h-.7c-9.8 0-17.7-7.9-17.7-17.7v-54.7c0-9.8 7.9-17.7 17.7-17.7h.7c9.8 0 17.7 7.9 17.7 17.7z" class="st6"/>
          <path d="M252 395.7v108.7c0 9.8-7.9 17.7-17.7 17.7h-.7c-9.8 0-17.7-7.9-17.7-17.7V395.7c0-9.8 7.9-17.7 17.7-17.7h.7c9.8 0 17.7 7.9 17.7 17.7z" class="st6"/>
        </g>
        <g>
          <path d="M324 252h-90c-9.9 0-18-8.1-18-18s8.1-18 18-18h90c9.9 0 18 8.1 18 18s-8.1 18-18 18z" class="st6"/>
          <path d="M216 234h36v108h-36z" class="st6"/>
          <path d="M324 360h-90c-9.9 0-18-8.1-18-18s8.1-18 18-18h90c9.9 0 18 8.1 18 18s-8.1 18-18 18z" class="st6"/>
        </g>
      </g>
    </g>
  </g>
  <g>
    <path d="M542 216h78v25h-78z" class="st7"/>
    <path d="M460 216h78v25h-78z" class="st7"/>
    <path d="M456 216h-60c-9.9 0-18 8.1-18 18v7h78v-25z" class="st7"/>
    <path d="M542 245h78v25h-78z" class="st7"/>
    <path d="M460 245h78v25h-78z" class="st7"/>
    <path d="M378 245v7c0 9.9 8.1 18 18 18h60v-25h-78z" class="st7"/>
    <path d="M624 270h60c9.9 0 18-8.1 18-18v-7h-78v25z" class="st7"/>
    <path d="M684 216h-60v25h78v-7c0-9.9-8.1-18-18-18z" class="st7"/>
    <path d="M378 569v7c0 9.9 8.1 18 18 18h60v-25h-78z" class="st7"/>
    <path d="M378 540h78v25h-78z" class="st7"/>
    <path d="M378 497h78v25h-78z" class="st7"/>
    <path d="M460 569h78v25h-78z" class="st7"/>
    <path d="M456 468h-60c-9.9 0-18 8.1-18 18v7h78v-25z" class="st7"/>
    <path d="M542 569h78v25h-78z" class="st7"/>
    <path d="M624 594h60c9.9 0 18-8.1 18-18v-7h-78v25z" class="st7"/>
    <path d="M624 497h78v25h-78z" class="st7"/>
    <path d="M702 493v-7c0-9.9-8.1-18-18-18h-60v25h78z" class="st7"/>
    <path d="M624 540h78v25h-78z" class="st7"/>
    <path d="M378 335h78v25h-78z" class="st7"/>
    <path d="M378 407v7c0 9.9 8.1 18 18 18h60v-25h-78z" class="st7"/>
    <path d="M624 335h78v25h-78z" class="st7"/>
    <path d="M456 306h-60c-9.9 0-18 8.1-18 18v7h78v-25z" class="st7"/>
    <path d="M542 306h78v25h-78z" class="st7"/>
    <path d="M702 331v-7c0-9.9-8.1-18-18-18h-60v25h78z" class="st7"/>
    <path d="M624 378h78v25h-78z" class="st7"/>
    <path d="M624 432h60c9.9 0 18-8.1 18-18v-7h-78v25z" class="st7"/>
    <path d="M460 306h78v25h-78z" class="st7"/>
    <path d="M378 378h78v25h-78z" class="st7"/>
    <path d="M460 659h78v25h-78z" class="st7"/>
    <path d="M456 630h-60c-9.9 0-18 8.1-18 18v7h78v-25z" class="st7"/>
    <path d="M624 684h60c9.9 0 18-8.1 18-18v-7h-78v25z" class="st7"/>
    <path d="M542 659h78v25h-78z" class="st7"/>
    <path d="M378 659v7c0 9.9 8.1 18 18 18h60v-25h-78z" class="st7"/>
    <path d="M460 630h78v25h-78z" class="st7"/>
    <path d="M702 655v-7c0-9.9-8.1-18-18-18h-60v25h78z" class="st7"/>
    <path d="M542 630h78v25h-78z" class="st7"/>
  </g>
  <g>
    <path d="M614 344h-38v-4c0-5-4-6-9-6h-54c-5 0-9 1-9 6v4h-38c-11 0-20 9-20 20v2c0 1.7 1.3 3 3 3h182c1.7 0 3-1.3 3-3v-2c0-11-9-20-20-20z" class="st6"/>
    <path d="M612 378H468c-4.2 0-8 4.2-8 9l12 174c.3 4.5 4 5 8 5h120c4 0 7.7-.5 8-5l12-174c0-4.8-3.8-9-8-9zM499.6 553h-8c-1.6 0-2.9-1.2-3-2.8l-10.6-151c-.1-1.7 1.3-3.2 3-3.2h8c1.6 0 2.9 1.2 3 2.8l10.6 151c.1 1.7-1.3 3.2-3 3.2zm47.4-3c0 1.7-1.3 3-3 3h-8c-1.7 0-3-1.3-3-3V399c0-1.7 1.3-3 3-3h8c1.7 0 3 1.3 3 3v151zm44.4.2c-.1 1.6-1.4 2.8-3 2.8h-8c-1.7 0-3.1-1.5-3-3.2l10.6-151c.1-1.6 1.4-2.8 3-2.8h8c1.7 0 3.1 1.5 3 3.2l-10.6 151z" class="st6"/>
  </g>
</svg>
