<?xml version="1.0" encoding="UTF-8"?><svg xmlns="http://www.w3.org/2000/svg" viewBox="0 0 314.173 330.76"><g id="Layer_6"><path d="m308.431,141.999l.009-.012c-3.016-2.518-6.315-3.714-10.101-5.167-1.166-10.3-10.96-19.042-7.826-30.806,2.082-18.824-12.799-22.292-24.365-17.661C249.933,36.883,206.038,1.015,152.16.053l-.002.049c-45.411-2.865-74.624,55.524-95.71,88.087-7.698,7.012-14.093,25.124-18.719,35.312-28.934,3.688-52.662,14.333-26.337,42.931,7.297,8.61,15.602,16.517,24.752,23.142,0,9.983,0,43.603,0,52.978l-.109-.008c-2.373,30.882,4.845,56.571,38.887,71.981,56.181,25.496,207.301,30.138,210.675-55.285l.092-.011c-.048-4.325-.028-12.481-.022-16.862l-.074.007.053-49.459c9.583-3.797,16.436-11.982,21.752-20.591,6.601-9.162,10.731-22.47,1.035-30.325Zm-28.063,43.765h0s0,0,0,0Z" style="fill:#fff; stroke-width:0px;"/></g><g id="Layer_2_copy"><path d="m277.08,242.398s-.386-2.369-.612-2.347l-42.978,4.147c-3.42.33-6.076,3.057-6.316,6.484l-1.181,16.923-33.25,2.372-2.262-15.337c-.504-3.411-3.483-5.983-6.931-5.983h-45.361c-3.447,0-6.426,2.572-6.93,5.983l-2.263,15.337-33.25-2.372-1.181-16.923c-.24-3.428-2.896-6.155-6.316-6.486l-43-4.146c-.222-.021-.385,2.35-.607,2.35l-.058,9.301,36.417,5.873,1.193,17.074c.241,3.457,3.03,6.252,6.489,6.5l45.792,3.267c.173.012.344.019.516.019,3.441,0,6.416-2.573,6.919-5.984l2.327-15.782h33.265l2.327,15.782c.502,3.41,3.48,5.983,6.926,5.983.169,0,.337-.006.502-.018l45.798-3.267c3.458-.248,6.248-3.043,6.489-6.5l1.191-17.074,36.401-5.899-.059-9.277Z" style="fill:#fff; stroke-width:0px;"/><path d="m44.643,136.267v106.131c.128.001.257.006.384.018l42.995,4.146c2.252.217,4.017,2.03,4.174,4.287l1.326,18.979,37.505,2.676,2.584-17.517c.335-2.271,2.283-3.954,4.58-3.954h45.361c2.296,0,4.244,1.683,4.579,3.954l2.584,17.517,37.506-2.676,1.324-18.979c.158-2.257,1.922-4.068,4.174-4.287l42.978-4.146c.127-.012.254-.017.382-.018v-5.596l.018-.006v-90.529" style="fill:#478cbf; stroke-width:0px;"/><path d="m238.508,255.403l-1.332,19.08c-.16,2.3-1.99,4.13-4.289,4.295l-45.797,3.268c-.112.008-.223.012-.334.012-2.276,0-4.239-1.67-4.576-3.955l-2.626-17.81h-37.368l-2.626,17.81c-.353,2.397-2.496,4.121-4.909,3.944l-45.797-3.268c-2.3-.165-4.129-1.996-4.289-4.295l-1.332-19.08-38.661-3.727c.018,4.155.071,8.707.071,9.613,0,40.831,51.796,60.456,116.148,60.682h.158c64.352-.226,116.13-19.851,116.13-60.682,0-.923.056-5.456.075-9.613l-38.646,3.727Z" style="fill:#478cbf; stroke-width:0px;"/><path d="m125.832,200.736c0,14.316-11.599,25.913-25.91,25.913s-25.907-11.597-25.907-25.913,11.603-25.897,25.907-25.897,25.91,11.591,25.91,25.897" style="fill:#fff; stroke-width:0px;"/><path d="m119.598,202.273c0,9.496-7.696,17.192-17.199,17.192s-17.199-7.696-17.199-17.192,7.701-17.199,17.199-17.199,17.199,7.703,17.199,17.199" style="fill:#414042; stroke-width:0px;"/><path d="m160.868,229.006c-4.606,0-8.34-3.395-8.34-7.58v-23.853c0-4.181,3.733-7.58,8.34-7.58s8.348,3.398,8.348,7.58v23.853c0,4.185-3.742,7.58-8.348,7.58" style="fill:#fff; stroke-width:0px;"/><path d="m195.909,200.736c0,14.316,11.599,25.913,25.913,25.913s25.904-11.597,25.904-25.913-11.602-25.897-25.904-25.897-25.913,11.591-25.913,25.897" style="fill:#fff; stroke-width:0px;"/><path d="m202.145,202.273c0,9.496,7.694,17.192,17.189,17.192s17.199-7.696,17.199-17.192-7.694-17.199-17.199-17.199-17.189,7.703-17.189,17.199" style="fill:#414042; stroke-width:0px;"/></g><g id="Layer_4"><polyline points="286.69 142.114 286.426 143.465 257.981 137.858 258.295 137.054 270.204 136.294 286.69 142.114" style="fill:#bf9232; stroke-width:0px;"/><path d="m44.586,164.715c.018-13.401,33.515-9.74,62.285-3.246,10.813,2.441,43.629,7.069,62.346,1.273,26.978-8.355,97.782-8.299,107.938,1.973v-21.502s-127.173-12.916-127.173-12.916l-105.409,12.609.013,21.808Z" style="fill:#1f6599; stroke-width:0px;"/><path d="m304.2,160.744c-9.54,18.22-17.68,24.14-27.05,25.78v-25.6c-.23-6.92-7.97-10.99-19-13.54-11.04-2.55-25.38-3.57-38.81-4.38-19.66.89-40.5,3.58-61.47,7.57-17.54,3.34-35.33,1.95-54.81-4.49-5.83-1.92-11.31-3.52-16.49-4.82-24.99-1.09-42.53.35-41.98,7.92l-.02,35.89c-14.66-9.66-28.1-24.45-34.37-34.5-2.65-4.26-2.77-9.94,4.11-12.5,12.5-4.63,25.4-7.01,38.68-7.25,13.15-39.4,43.38-85.64,68.31-110.91,7.29-7.38,16.55-11.59,26.92-11.47,12.22.15,23.94,1.86,34.93,5.2,39.68,12.01,69.99,45,81.15,100.71,1.51,7.55,2.68,15.51,3.46,23.9,13.34,2.01,25.02,4.98,32.83,8.7,5.58,2.66,6.48,8.31,3.61,13.79Z" style="fill:#536c31; stroke-width:0px;"/><path d="m151.87,8.534c-10.15,3.46-20.53,14.1-26.95,21.68-4.08,4.81-5.42,11.38-3.61,17.42l.47,1.56c.97,3.26-.23,6.8-3.01,8.75-6.55,4.59-12.55,7.54-18.07,8.98-2.71.7-5.16,2.21-6.92,4.4-5.97,7.46-9.25,14.33-10.24,20.7l-24.059,8.774c15.22-30.86,38.659-60.843,57.389-79.833,7.29-7.38,20.98-12.641,31.35-12.521,1.22.01,2.44.04,3.65.09Z" style="fill:#2d3b1b; stroke-width:0px;"/><path d="m85.81,141.234c-24.59-1.03-41.76.46-41.22,7.95l-.02,35.89c-11.72-7.72-22.66-18.72-29.78-27.96-1.7-2.7-2.32-5.47-1.72-7.81.59-2.33,2.37-4.16,5.13-5.3,8.24-3.38,23.65-5.96,36.63-6.13,6.62-.08,17.84.38,30.98,3.36Z" style="fill:#2d3b1b; stroke-width:0px;"/><path d="m302.9,148.434c-.62-.46-1.28-.9-1.99-1.31.75.38,1.42.82,1.99,1.31Z" style="fill:#536c31; stroke-width:0px;"/><path d="m301.88,157.934c.9,2.33.55,4.93-.3,7.56v.01c-8.44,14.52-15.93,19.53-24.43,21.02v-25.6c-.23-6.92-7.97-10.99-19-13.54-10.81-2.5-24.79-3.53-37.97-4.33,6.16-.2,12.21-.18,18.61-.03,24,.55,44.5,3.81,56.26,8.95,3.6,1.58,5.9,3.59,6.83,5.96Z" style="fill:#2d3b1b; stroke-width:0px;"/><path d="m259.155,137.128c-13.398-1.165-26.879-1.541-40.339-.877-13.462.638-26.876,2.347-40.196,4.603,13.225-2.746,26.592-4.957,40.095-6.099,13.499-1.168,27.095-1.294,40.648-.619l-.208,2.993Z" style="fill:#2d3b1b; stroke-width:0px;"/><path d="m52.967,127.854c8.91.097,17.681,1.542,26.203,3.668,8.53,2.134,16.839,4.943,25.034,7.998-8.356-2.583-16.799-4.907-25.356-6.533-8.548-1.622-17.231-2.533-25.826-2.134l-.055-2.999Z" style="fill:#2d3b1b; stroke-width:0px;"/><g id="Layer_5"><path d="m261.29,136.294l-10.86-1.16c-13.5-10.18-67.22-21.36-110.65-22.19-5.79-.12-11.39-.04-16.69.24-42.16,2.26-67.78,16.39-67.78,16.39l-.84,1.16c-.49.02-.99.05-1.48.09-2.1.04-4.19.13-6.27.28l.22-1.85,8.37-9.51,64.29-16.56c7.05-.14,14-.13,20.84.04,39.4.96,75.25,7.07,107.29,18.63l13.56,14.44Z" style="fill:#2d3b1b; stroke-width:0px;"/></g><path d="m233.2,97.484c1.16-7.16,2.33-14.18-2.54-25.24-.99-2.26-2.47-4.29-4.28-5.96-24.8-22.78-31.32-43.9-43.23-52.64,39.68,12.01,69.99,45,81.15,100.71l-31.1-16.87Z" style="fill:#2d3b1b; stroke-width:0px;"/><path d="m267.569,137.417l-6.893-.424-2.381.061c-25.365-30.31-175.734-44.49-211.355-7.8,0,0-.34-.34-.278-1.74.082-2.23,1.175-7.15,6.236-17.66,8.246-17.11,9.627-15.23,9.627-15.23,4.741-3.26,9.812-6.18,15.172-8.75l.052-.02c41.754-20,100.751-18.71,155.058,7.2l.021.01c10.41,4.97,20.655,10.84,30.571,17.65,4.762,5.7,5.296,22.523,4.172,26.703Z" style="fill:#fee269; stroke-width:0px;"/><path d="m290.68,143.214c-1.34-.39-2.66-.76-3.99-1.1-1.31-6.88-3.89-13.3-8.9-18.84-1.15-1.26-2.01-2.78-2.43-4.44-.75-2.96-.69-6.49.51-10.82.58-2.12.46-4.43-.64-6.34-1.91-3.3-5.62-4.03-10.93-2.43.54-.5,1.17-.99,1.9-1.47,3.69-2.44,17.55-7.32,15.92,6.83-1.25,10.83-1.48,12.05,3.83,22.33,4.34,8.39,4.73,16.28,4.73,16.28Z" style="fill:#fee269; stroke-width:0px;"/><path d="m232.204,123.687c1.375,3.753,1.779,7.479,1.167,11.174h18.833s-20-11.174-20-11.174Z" style="fill:#2d3b1b; stroke-width:0px;"/><path d="m262.964,137.644l-4.669-.59c-25.365-30.31-175.734-44.49-211.355-7.8,0,0-.825-.82.299-5.17,12.966-10,28.014-14.65,56.616-18.91,30.818-4.59,91.743-4.53,132.744,14.52,16.481,7.66,23.665,13.6,26.365,17.95Z" style="fill:#bf9232; stroke-width:0px;"/><path d="m268.21,132.844c0,.57-.01,1.11-.031,1.62-3.752-3.5-7.833-6.66-12.09-9.52-9.318-6.32-19.542-11.28-30.107-15.29-5.298-1.98-10.678-3.74-16.13-5.29-5.463-1.52-10.987-2.82-16.543-3.94-5.576-1.1-11.173-2.04-16.811-2.81-5.638-.7-11.286-1.35-16.965-1.71-11.348-.93-22.727-1.11-34.065-.42-5.669.28-11.317.9-16.934,1.65-5.617.81-11.193,1.85-16.728,3.09-11.028,2.61-21.851,6.15-32.127,10.92-3.236,1.5-6.442,3.1-9.565,4.83.299-.71.629-1.45.969-2.23,2.515-1.54,5.081-2.98,7.689-4.35,10.194-5.26,21.078-9.27,32.24-12.19,22.387-5.82,45.856-7.06,68.84-5.29,22.974,1.75,45.969,6.14,67.336,14.86,10.668,4.33,20.892,9.78,30.086,16.6,3.865,2.92,7.565,6.04,10.936,9.47Z" style="fill:#bf9232; stroke-width:0px;"/><path d="m267.654,124.054c-4.329-3.52-8.895-6.73-13.615-9.7-4.803-3.05-9.781-5.84-14.883-8.37-5.092-2.55-10.307-4.87-15.625-6.95-21.274-8.3-43.949-12.89-66.81-14.41-11.43-.79-22.882-.67-34.271.46-5.679.59-11.338,1.41-16.945,2.51-5.597,1.16-11.173,2.43-16.646,4.07-10.946,3.28-21.624,7.47-31.756,12.74-.68.35-1.361.71-2.031,1.06.557-1.1,1.082-2.09,1.567-2.98,9.874-5.61,20.387-10.19,31.261-13.72,5.535-1.79,11.162-3.29,16.862-4.54,5.7-1.21,11.472-2.14,17.264-2.83,11.595-1.37,23.356-1.44,34.972-.73,11.637.71,23.201,2.43,34.59,4.88,11.348,2.61,22.521,6.03,33.209,10.56,5.339,2.27,10.585,4.75,15.667,7.51,5.081,2.77,10.008,5.8,14.749,9.08,4.246,3,8.338,6.2,12.204,9.63.082.58.165,1.15.237,1.73Z" style="fill:#bf9232; stroke-width:0px;"/><path d="m70.192,105.174c-6.772,4.31-7.967,7.66-2.133,9.79l-21.397,12.55c.082-2.23,1.175-7.15,6.236-17.66,8.246-17.11,9.627-15.23,9.627-15.23,4.741-3.26,9.812-6.18,15.172-8.75l.052-.02c-7.071,3.99-6.968,6.83-3.37,9.11-8.452,5.46-7.906,8.3-4.185,10.21Z" style="fill:#bf9232; stroke-width:0px;"/><path d="m267.746,138.254l-7.132-.91-4.545-5.05-23.263-12.14c3.566-2.7,2.865-6.06,0-9.74,3.329-2.13,2.938-5.54,0-9.83,2.917-2.18,2.298-4.76,0-7.53l.021.01c10.41,4.97,20.655,10.84,30.571,17.65,4.762,5.7,5.473,23.36,4.35,27.54Z" style="fill:#bf9232; stroke-width:0px;"/><path d="m286.69,142.114c-6.44-1.71-12.74-2.99-18.93-3.86l-6.68-29.26c0-4.43.49-7.25,3.22-9.75,5.31-1.6,9.02-.87,10.93,2.43,1.1,1.91,1.22,4.22.64,6.34-1.2,4.33-1.26,7.86-.51,10.82.42,1.66,1.28,3.18,2.43,4.44,5.01,5.54,7.59,11.96,8.9,18.84Z" style="fill:#bf9232; stroke-width:0px;"/></g></svg>