<?xml version="1.0" encoding="UTF-8" standalone="no"?>
<!-- Created with Inkscape (http://www.inkscape.org/) -->

<svg
   width="199.35641mm"
   height="40.88073mm"
   viewBox="0 0 199.35641 40.88073"
   version="1.1"
   id="svg19151"
   inkscape:version="1.1.2 (0a00cf5339, 2022-02-04)"
   sodipodi:docname="logo_only.svg"
   xmlns:inkscape="http://www.inkscape.org/namespaces/inkscape"
   xmlns:sodipodi="http://sodipodi.sourceforge.net/DTD/sodipodi-0.dtd"
   xmlns="http://www.w3.org/2000/svg"
   xmlns:svg="http://www.w3.org/2000/svg">
  <sodipodi:namedview
     id="namedview19153"
     pagecolor="#ffffff"
     bordercolor="#666666"
     borderopacity="1.0"
     inkscape:pageshadow="2"
     inkscape:pageopacity="0"
     inkscape:pagecheckerboard="true"
     inkscape:document-units="mm"
     showgrid="false"
     inkscape:zoom="0.80087682"
     inkscape:cx="274.69892"
     inkscape:cy="292.17976"
     inkscape:window-width="2509"
     inkscape:window-height="1416"
     inkscape:window-x="51"
     inkscape:window-y="24"
     inkscape:window-maximized="1"
     inkscape:current-layer="layer1" />
  <defs
     id="defs19148">
    <clipPath
       clipPathUnits="userSpaceOnUse"
       id="clipPath2500">
      <path
         d="M 0,0 H 706 V 190 H 0 Z"
         id="path2498" />
    </clipPath>
  </defs>
  <g
     inkscape:label="Layer 1"
     inkscape:groupmode="layer"
     id="layer1"
     transform="translate(-5.5333378,-5.0064496)">
    <g
       id="g19084"
       transform="translate(-7.2966559,-1.7378218)">
      <g
         id="g5794"
         transform="matrix(0.27823542,0,0,-0.27823542,22.436259,385.81499)">
        <path
           d="m 533.278,1220.9 v 110.49 l -23.459,-1.52 v 20.81 l 27.243,11.73 h 28.945 V 1220.9 Z"
           style="fill:#ffffff;fill-opacity:1;fill-rule:nonzero;stroke:none"
           id="path2590" />
        <path
           d="m 627.87,1219.77 c -6.432,0 -12.738,0.31 -18.918,0.94 -6.18,0.63 -11.856,1.52 -17.027,2.65 v 25.73 h 32.351 c 9.081,0 15.544,2.52 19.391,7.57 3.847,5.04 5.77,12.3 5.77,21.75 -2.522,-0.88 -5.202,-1.6 -8.04,-2.17 -2.838,-0.57 -5.959,-0.95 -9.365,-1.14 -3.405,-0.19 -7.315,-0.28 -11.729,-0.28 -9.585,0 -17.027,1.42 -22.324,4.26 -5.297,2.83 -9.018,6.74 -11.162,11.73 -2.144,4.98 -3.216,10.75 -3.216,17.31 v 20.24 c 0,8.07 1.482,14.6 4.446,19.58 2.964,4.98 7.094,8.61 12.392,10.88 5.297,2.27 11.477,3.4 18.54,3.4 h 19.864 c 7.189,0 13.495,-1.04 18.918,-3.12 5.424,-2.08 9.932,-5.64 13.527,-10.69 3.594,-5.04 6.275,-12.04 8.04,-21 1.766,-8.95 2.649,-20.18 2.649,-33.67 0,-14.13 -1.198,-25.95 -3.595,-35.47 -2.396,-9.53 -5.927,-17.12 -10.594,-22.8 -4.666,-5.68 -10.342,-9.71 -17.027,-12.11 -6.684,-2.39 -14.314,-3.59 -22.891,-3.59 z m 1.703,82.86 h 19.864 c 0,6.05 -0.315,11.04 -0.946,14.95 -0.63,3.91 -1.639,7 -3.027,9.27 -1.387,2.27 -3.153,3.84 -5.297,4.73 -2.144,0.88 -4.792,1.32 -7.946,1.32 h -5.675 c -2.27,0 -4.194,-0.41 -5.77,-1.23 -1.577,-0.82 -2.712,-2.05 -3.406,-3.69 -0.693,-1.64 -1.04,-3.78 -1.04,-6.43 v -7 c 0,-3.15 0.41,-5.58 1.23,-7.28 0.819,-1.71 2.238,-2.91 4.256,-3.6 2.018,-0.69 4.604,-1.04 7.757,-1.04 z"
           style="fill:#ffffff;fill-opacity:1;fill-rule:nonzero;stroke:none"
           id="path2592" />
      </g>
      <g
         id="g2490"
         transform="matrix(0.20888763,0,0,-0.20888763,12.690603,7.9375)">
        <g
           id="g2492">
          <g
             id="g2494"
             transform="translate(0,-190)">
            <g
               id="g2496" />
            <g
               id="g2588">
              <g
                 clip-path="url(#clipPath2500)"
                 id="g2586">
                <path
                   d="m 0.6673,64.9911 v 86.2239 c 0,6.989 1.6859,13.303 5.0578,18.943 3.3718,5.641 7.9085,10.147 13.61,13.519 5.7014,3.371 11.9853,5.057 18.8516,5.057 h 41.5315 c 2.7615,0 5,-2.238 5,-5 v -13.173 c 0,-2.762 -2.2385,-5 -5,-5 H 41.1295 c -3.9237,0 -7.2648,-1.411 -10.0236,-4.231 -2.7588,-2.82 -4.1382,-6.192 -4.1382,-10.115 v -15.783 c 0,-2.761 2.2386,-5 5,-5 H 73.465 c 2.7614,0 5,-2.239 5,-5 v -13.174 c 0,-2.761 -2.2386,-5 -5,-5 H 31.9677 c -2.7614,0 -5,-2.238 -5,-5 V 64.9911 c 0,-2.7614 -2.2386,-5 -5,-5 H 5.6673 c -2.7614,0 -5,2.2386 -5,5 z"
                   style="fill:#ffffff;fill-opacity:1;fill-rule:nonzero;stroke:none"
                   id="path2502" />
                <path
                   d="m 92.7102,64.9911 v 62.1299 c 0,8.338 2.3603,14.867 7.0808,19.588 4.721,4.72 11.25,7.081 19.587,7.081 h 20.933 c 2.761,0 5,-2.239 5,-5 v -11.519 c 0,-2.761 -2.239,-5 -5,-5 h -16.519 c -1.594,0 -2.973,-0.552 -4.138,-1.655 -1.165,-1.104 -1.747,-2.514 -1.747,-4.23 V 64.9911 c 0,-2.7614 -2.239,-5 -5,-5 H 97.7102 c -2.7615,0 -5,2.2386 -5,5 z"
                   style="fill:#ffffff;fill-opacity:1;fill-rule:nonzero;stroke:none"
                   id="path2504" />
                <path
                   d="m 299.172,65.0045 v 13.1737 c 0,2.7615 2.238,5 5,5 h 50.175 c 2.698,0 5.15,0.6744 7.357,2.0231 2.207,1.3488 3.985,3.1573 5.334,5.4257 1.349,2.2683 2.023,4.7512 2.023,7.4487 0,2.8203 -0.674,5.3643 -2.023,7.6323 -1.349,2.269 -3.127,4.077 -5.334,5.426 -2.207,1.349 -4.659,2.023 -7.357,2.023 h -21.518 c -7.234,0 -13.794,1.471 -19.679,4.414 -5.886,2.943 -10.576,7.204 -14.07,12.782 -3.495,5.579 -5.242,12.292 -5.242,20.14 0,7.724 1.655,14.437 4.966,20.139 3.31,5.701 7.786,10.146 13.426,13.334 5.64,3.188 11.893,4.782 18.76,4.782 h 50.911 c 2.761,0 5,-2.239 5,-5 v -13.174 c 0,-2.762 -2.239,-5 -5,-5 h -48.336 c -2.453,0 -4.721,-0.644 -6.805,-1.931 -2.085,-1.288 -3.709,-2.974 -4.874,-5.058 -1.165,-2.084 -1.748,-4.414 -1.748,-6.989 0,-2.575 0.583,-4.904 1.748,-6.989 1.165,-2.084 2.789,-3.74 4.874,-4.966 2.084,-1.226 4.352,-1.839 6.805,-1.839 h 22.254 c 7.97,0 14.897,-1.533 20.783,-4.598 5.885,-3.065 10.452,-7.357 13.702,-12.874 3.249,-5.518 4.873,-11.955 4.873,-19.312 0,-8.7051 -1.686,-16.1232 -5.057,-22.2538 -3.372,-6.1306 -7.909,-10.7899 -13.61,-13.9778 -5.702,-3.188 -11.986,-4.7819 -18.852,-4.7819 h -53.486 c -2.762,0 -5,2.2385 -5,5 z"
                   style="fill:#ffffff;fill-opacity:1;fill-rule:nonzero;stroke:none"
                   id="path2506" />
                <path
                   d="m 469.999,60.0045 c -10.054,0.2452 -19.128,2.0537 -27.22,5.4256 -8.093,3.3718 -15.02,7.9698 -20.783,13.7939 -5.763,5.8241 -10.207,12.5984 -13.334,20.323 -3.127,7.725 -4.69,16.001 -4.69,24.829 0,8.828 1.563,17.105 4.69,24.829 3.127,7.725 7.571,14.499 13.334,20.323 5.763,5.824 12.69,10.453 20.783,13.886 8.092,3.433 17.166,5.211 27.22,5.334 h 15.047 c 2.761,0 5,-2.239 5,-5 v -13.174 c 0,-2.762 -2.239,-5 -5,-5 h -14.495 c -5.886,-0.123 -11.281,-1.226 -16.185,-3.311 -4.905,-2.084 -9.166,-4.965 -12.783,-8.644 -3.617,-3.678 -6.406,-8 -8.368,-12.966 -1.962,-4.966 -2.943,-10.392 -2.943,-16.277 0,-5.885 0.981,-11.311 2.943,-16.277 1.962,-4.966 4.751,-9.2877 8.368,-12.966 3.617,-3.6784 7.878,-6.5598 12.783,-8.6442 4.904,-2.0844 10.299,-3.1879 16.185,-3.3106 h 14.495 c 2.761,0 5,-2.2385 5,-5 V 65.0045 c 0,-2.7615 -2.239,-5 -5,-5 z"
                   style="fill:#ffffff;fill-opacity:1;fill-rule:nonzero;stroke:none"
                   id="path2508" />
                <path
                   d="m 548.097,57.7974 c -9.686,0 -18.33,2.1764 -25.932,6.5292 -7.602,4.3527 -13.61,10.2496 -18.024,17.6907 -4.414,7.441 -6.621,15.7365 -6.621,24.8867 0,9.15 2.207,17.445 6.621,24.886 4.414,7.441 10.422,13.338 18.024,17.691 7.602,4.353 16.246,6.529 25.932,6.529 9.687,0 18.331,-2.176 25.933,-6.529 7.602,-4.353 13.61,-10.225 18.024,-17.616 4.414,-7.391 6.621,-15.729 6.621,-25.013 0,-9.1614 -2.207,-17.4512 -6.621,-24.8692 -4.414,-7.4181 -10.422,-13.3035 -18.024,-17.6562 -7.602,-4.3528 -16.246,-6.5292 -25.933,-6.5292 z m 0,21.5185 c 5.15,0 9.595,1.2262 13.335,3.6784 3.739,2.4523 6.621,5.7556 8.644,9.9101 2.023,4.1544 3.034,8.8136 3.034,13.9766 0,5.165 -1.011,9.832 -3.034,14.001 -2.023,4.168 -4.905,7.479 -8.644,9.931 -3.74,2.452 -8.185,3.679 -13.335,3.679 -5.149,0 -9.594,-1.227 -13.334,-3.679 -3.739,-2.452 -6.621,-5.755 -8.644,-9.91 -2.023,-4.154 -3.035,-8.813 -3.035,-13.976 0,-5.165 1.012,-9.8322 3.035,-14.0011 2.023,-4.1688 4.905,-7.4793 8.644,-9.9316 3.74,-2.4522 8.185,-3.6784 13.334,-3.6784 z"
                   style="fill:#ffffff;fill-opacity:1;fill-rule:nonzero;stroke:none"
                   id="path2510" />
                <path
                   d="m 610.747,65.0045 v 48.8885 c 0,7.724 1.808,14.775 5.425,21.15 3.617,6.376 8.859,11.465 15.725,15.266 6.867,3.801 15.082,5.701 24.646,5.701 9.686,0 17.932,-1.9 24.737,-5.701 6.805,-3.801 12.016,-8.89 15.633,-15.266 3.617,-6.375 5.425,-13.426 5.425,-21.15 V 65.0045 c 0,-2.7615 -2.238,-5 -5,-5 h -15.197 c -2.761,0 -5,2.2385 -5,5 v 48.8885 c 0,3.801 -0.919,7.264 -2.758,10.391 -1.839,3.127 -4.322,5.61 -7.449,7.449 -3.127,1.839 -6.59,2.759 -10.391,2.759 -3.801,0 -7.265,-0.92 -10.392,-2.759 -3.126,-1.839 -5.609,-4.322 -7.449,-7.449 -1.839,-3.127 -2.758,-6.59 -2.758,-10.391 V 65.0045 c 0,-2.7615 -2.239,-5 -5,-5 h -15.197 c -2.762,0 -5,2.2385 -5,5 z"
                   style="fill:#ffffff;fill-opacity:1;fill-rule:nonzero;stroke:none"
                   id="path2512" />
                <path
                   d="m 220.667,190 c 36.451,0 66,-29.549 66,-66 0,-36.4508 -29.549,-66 -66,-66 -36.45,0 -66,29.5492 -66,66 0,36.451 29.55,66 66,66 z m -17.002,-18.568 -1.937,-2.832 1.539,-2.669 -0.631,-5.078 -1.805,2.303 0.345,3.39 -3.07,2.015 -3.392,-1.362 -0.017,-3.913 2.976,-1.516 1.46,-5.927 2.151,-6.815 -0.03,-7.083 2.345,-2.071 4.61,-0.222 1.859,-0.946 -4.514,-8.78 -0.42,-7.51 -8.752,8.896 -3.402,1.734 -5.609,-2.151 -1.007,-1.977 -0.367,-10.187 4.611,-13.624 -4.367,3.879 -3.787,6.59 -1.167,3.653 0.365,2.305 2.188,2.43 -1.376,3.145 -3.292,0.7 -1.961,-3.203 1.477,-2.196 -0.574,-2.872 -1.977,2.315 -0.06,2.521 -3.842,1.37 -1.982,-2.2 0.577,-3.22 2.816,-0.722 1.23,-2.573 -2.241,-0.291 -2.304,2.607 -3.313,-1.246 -0.276,-3.135 2.488,-1.66 2.056,0.787 3.608,-1.838 7.715,-5.766 6.951,-7.9523 3.623,-1.3858 4.336,2.7875 -0.685,13.8616 5.283,-6.49 2.485,-2.416 8.647,-4.406 3.416,-0.5904 8.355,-0.4592 -11.617,-7.5933 0.294,-5.1469 3.251,-2.1167 10.519,-0.949 9.199,-2.8526 3.608,-1.8381 0.572,-2.1261 2.806,-1.0365 2.373,2.0653 -0.939,3.4131 -3.463,0.3314 -1.082,1.9845 2.805,0.5167 2.239,-1.8542 2.944,1.4261 0.615,2.8963 -3.367,2.3037 -2.074,-1.4334 -3.035,0.2387 1.986,2.1523 2.644,0.0961 1.439,3.4689 -2.501,2.2521 -3.353,-0.7355 -0.68,-3.199 -1.65,-1.6496 -3.642,-1.2033 -7.557,-0.8093 -5.705,1.2525 13.732,4.2782 8.026,6.2847 1.007,1.9765 -1.556,5.802 -3.402,1.733 -12.342,1.852 5.829,4.754 4.45,8.812 1.858,-0.947 2.889,-3.6 3.054,-0.68 5.712,4.188 6.778,2.265 5.654,2.303 2.975,-1.516 3.156,2.314 -0.892,3.544 -3.435,1.299 -2.539,-2.272 -2.924,0.107 3.737,3.496 3.064,0.323 1.152,3.232 -2.052,2.667 -3.454,-0.793 -0.637,-3.252 -3.169,-2.671 0.11,4.23 1.661,2.138 -2.239,3.242 -3.549,-0.293 -1.248,-3.544 1.628,-2.383 -1.097,-3.288 -3.719,-6.164 -4.501,-2.161 -4.636,10.48 3.618,4.863 0.044,6.641 1.341,1.903 -0.413,5.103 -1.033,1.163 -1.116,4.37 -2.816,3.092 0.03,0.058 -0.092,0.01 -0.063,0.069 -0.03,-0.058 -4.156,0.46 -4.191,-1.666 -1.548,0.152 -4.371,-2.664 -0.752,-2.204 -5.346,-3.94 -1.808,-5.785 -11.204,-2.409 -0.897,4.912 2.801,6.632 2.015,2.82 2.886,0.083 2.132,3.093 -1.849,3.043 -3.939,-0.094 -0.753,-2.601 -3.357,-2.574 0.299,4.133 2.256,2.427 -1.389,3.261 z"
                   style="fill:#ffffff;fill-opacity:1;fill-rule:nonzero;stroke:none"
                   id="path2514" />
                <path
                   d="m 1.5042,8.656 v 21.0508 c 0,1.1433 0.1743,2.0978 0.5227,2.8635 0.3485,0.7658 0.8061,1.3704 1.3728,1.8139 0.5667,0.4435 1.1988,0.7587 1.8963,0.9456 0.6975,0.1869 1.3884,0.2803 2.0728,0.2803 0.9448,-0.0103 2.0588,-0.0239 3.342,-0.041 1.2832,-0.0172 2.6343,-0.0557 4.0532,-0.1158 1.4189,-0.0601 2.7888,-0.1523 4.1097,-0.2766 V 31.44 H 8.5693 C 7.7503,31.44 7.1216,31.213 6.6832,30.759 6.2449,30.3051 6.0257,29.6899 6.0257,28.9135 V 23.4687 L 17.1992,23.2092 V 19.6659 L 6.0257,19.4058 V 8.656 Z"
                   style="fill:#ffffff;fill-opacity:1;fill-rule:nonzero;stroke:none"
                   id="path2516" />
                <path
                   d="m 21.2912,8.656 v 19.5532 h 3.4789 l 1.0425,-3.1293 c 0.7646,0.9436 1.6255,1.7447 2.5827,2.4033 0.9571,0.6585 2.0836,0.9877 3.3793,0.9877 0.2749,0 0.5588,-0.0146 0.8515,-0.0439 0.2928,-0.0292 0.566,-0.0804 0.8196,-0.1534 v -4.6292 c -0.3536,0.0487 -0.7233,0.0902 -1.109,0.1246 -0.3857,0.0344 -0.7588,0.0516 -1.1193,0.0516 -0.7748,0 -1.4708,-0.0898 -2.0879,-0.2695 -0.617,-0.1796 -1.1945,-0.4442 -1.7323,-0.7938 -0.5378,-0.3496 -1.066,-0.7923 -1.5846,-1.328 V 8.656 Z"
                   style="fill:#ffffff;fill-opacity:1;fill-rule:nonzero;stroke:none"
                   id="path2518" />
                <path
                   d="m 43.8479,8.4587 c -2.1181,0 -3.8058,0.2948 -5.0632,0.8845 -1.2573,0.5897 -2.1611,1.611 -2.7113,3.0637 -0.5501,1.4528 -0.8252,3.4632 -0.8252,6.0311 0,2.6307 0.2673,4.6721 0.8019,6.1243 0.5345,1.4522 1.4201,2.4703 2.6568,3.0543 1.2366,0.584 2.9111,0.876 5.0236,0.876 1.8717,0 3.3758,-0.1922 4.5123,-0.5766 1.1364,-0.3844 1.9662,-1.0589 2.4894,-2.0234 0.5232,-0.9646 0.7847,-2.3165 0.7847,-4.0555 0,-1.2551 -0.2472,-2.2526 -0.7417,-2.9925 -0.4944,-0.7398 -1.1949,-1.2676 -2.1016,-1.5832 -0.9066,-0.3155 -1.9781,-0.4733 -3.2145,-0.4733 h -5.7322 c 0.0429,-1.2064 0.204,-2.1717 0.4833,-2.8958 0.2793,-0.7241 0.7911,-1.2445 1.5356,-1.5612 0.7444,-0.3167 1.8341,-0.4751 3.269,-0.4751 h 5.9227 V 9.1921 C 49.925,9.0088 48.8638,8.8408 47.754,8.6879 46.6442,8.5351 45.3422,8.4587 43.8479,8.4587 Z m -4.1638,11.084 h 5.3244 c 0.8582,0 1.4896,0.1647 1.8943,0.4942 0.4048,0.3294 0.6071,0.9223 0.6071,1.7785 0,0.8539 -0.1257,1.5273 -0.3772,2.02 -0.2515,0.4928 -0.6533,0.8437 -1.2054,1.0528 -0.5521,0.2092 -1.2843,0.3137 -2.1968,0.3137 -1.0144,0 -1.8168,-0.1601 -2.407,-0.4802 -0.5903,-0.3201 -1.0111,-0.8903 -1.2624,-1.7104 -0.2513,-0.8201 -0.377,-1.9763 -0.377,-3.4686 z"
                   style="fill:#ffffff;fill-opacity:1;fill-rule:nonzero;stroke:none"
                   id="path2520" />
                <path
                   d="m 62.7809,8.4587 c -2.1181,0 -3.8058,0.2948 -5.0632,0.8845 -1.2573,0.5897 -2.1611,1.611 -2.7113,3.0637 -0.5501,1.4528 -0.8252,3.4632 -0.8252,6.0311 0,2.6307 0.2673,4.6721 0.8019,6.1243 0.5345,1.4522 1.4201,2.4703 2.6568,3.0543 1.2366,0.584 2.9111,0.876 5.0236,0.876 1.8717,0 3.3758,-0.1922 4.5123,-0.5766 1.1364,-0.3844 1.9662,-1.0589 2.4894,-2.0234 0.5232,-0.9646 0.7847,-2.3165 0.7847,-4.0555 0,-1.2551 -0.2472,-2.2526 -0.7417,-2.9925 C 69.2138,18.1048 68.5133,17.577 67.6066,17.2614 66.7,16.9459 65.6285,16.7881 64.3921,16.7881 h -5.7322 c 0.0429,-1.2064 0.204,-2.1717 0.4833,-2.8958 0.2793,-0.7241 0.7911,-1.2445 1.5356,-1.5612 0.7444,-0.3167 1.8341,-0.4751 3.269,-0.4751 h 5.9227 V 9.1921 C 68.858,9.0088 67.7968,8.8408 66.687,8.6879 65.5772,8.5351 64.2752,8.4587 62.7809,8.4587 Z m -4.1638,11.084 h 5.3244 c 0.8582,0 1.4896,0.1647 1.8943,0.4942 0.4048,0.3294 0.6071,0.9223 0.6071,1.7785 0,0.8539 -0.1257,1.5273 -0.3772,2.02 -0.2515,0.4928 -0.6533,0.8437 -1.2054,1.0528 -0.5521,0.2092 -1.2843,0.3137 -2.1968,0.3137 -1.0144,0 -1.8168,-0.1601 -2.407,-0.4802 -0.5903,-0.3201 -1.0111,-0.8903 -1.2624,-1.7104 -0.2513,-0.8201 -0.377,-1.9763 -0.377,-3.4686 z"
                   style="fill:#ffffff;fill-opacity:1;fill-rule:nonzero;stroke:none"
                   id="path2522" />
                <path
                   d="m 86.6175,8.437 c -1.4585,0 -2.6537,0.4352 -3.5856,1.3054 -0.9319,0.8703 -1.3978,2.0769 -1.3978,3.6198 v 1.6459 c 0,1.5003 0.5177,2.7297 1.5532,3.688 1.0355,0.9583 2.631,1.4374 4.7864,1.4374 h 5.5679 v 1.7047 c 0,0.6874 -0.1177,1.2613 -0.3533,1.7218 -0.2355,0.4604 -0.6751,0.8055 -1.3188,1.0354 -0.6437,0.2298 -1.6003,0.3447 -2.8698,0.3447 H 83.073 v 2.6218 c 0.9117,0.2528 1.973,0.4679 3.1837,0.6453 1.2108,0.1773 2.6568,0.271 4.3381,0.2809 1.6148,0.0102 2.9788,-0.1858 4.092,-0.588 1.1133,-0.4023 1.9543,-1.0661 2.5231,-1.9913 0.5688,-0.9252 0.8532,-2.1821 0.8532,-3.7706 V 8.656 h -3.5434 l -0.7636,2.1216 C 93.6032,10.6346 93.3052,10.439 92.8621,10.1907 92.419,9.9424 91.8687,9.6801 91.2113,9.4037 90.554,9.1273 89.8312,8.8971 89.043,8.713 88.2548,8.529 87.4463,8.437 86.6175,8.437 Z m 2.1871,3.192 c 0.3125,-0.0098 0.6698,0.0249 1.0716,0.1044 0.4019,0.0795 0.8088,0.1751 1.2208,0.2869 0.4119,0.1118 0.7978,0.226 1.1574,0.3427 0.3597,0.1168 0.6534,0.2221 0.8812,0.316 0.2277,0.0939 0.3631,0.1479 0.406,0.162 v 5.1214 l -4.2214,-0.2339 c -1.1129,-0.0771 -1.9186,-0.359 -2.417,-0.8455 -0.4985,-0.4864 -0.7477,-1.1327 -0.7477,-1.9387 v -0.8207 c 0,-0.6072 0.1247,-1.097 0.3741,-1.4694 0.2495,-0.3724 0.5772,-0.6339 0.9833,-0.7845 0.406,-0.1505 0.8366,-0.2308 1.2917,-0.2407 z"
                   style="fill:#ffffff;fill-opacity:1;fill-rule:nonzero;stroke:none"
                   id="path2524" />
                <path
                   d="m 101.858,8.656 v 19.5532 h 3.684 l 0.837,-2.0486 c 0.799,0.6197 1.778,1.1709 2.935,1.6533 1.157,0.4825 2.349,0.7238 3.576,0.7238 1.533,0 2.74,-0.3099 3.621,-0.9296 0.881,-0.6198 1.51,-1.4506 1.887,-2.4926 0.376,-1.042 0.564,-2.184 0.564,-3.4261 V 8.656 h -4.521 v 12.4756 c 0,0.7019 -0.133,1.2995 -0.399,1.7931 -0.265,0.4935 -0.636,0.8752 -1.112,1.1451 -0.475,0.27 -1.053,0.405 -1.734,0.405 -0.627,0 -1.216,-0.0662 -1.768,-0.1985 -0.551,-0.1323 -1.072,-0.3188 -1.563,-0.5595 -0.491,-0.2407 -0.986,-0.5256 -1.486,-0.8549 V 8.656 Z"
                   style="fill:#ffffff;fill-opacity:1;fill-rule:nonzero;stroke:none"
                   id="path2526" />
                <path
                   d="m 129.148,8.437 c -1.555,0 -2.853,0.3329 -3.894,0.9986 -1.041,0.6658 -1.82,1.7214 -2.338,3.167 -0.517,1.4455 -0.776,3.3298 -0.776,5.6529 0,2.4235 0.231,4.3855 0.692,5.8862 0.461,1.5007 1.229,2.601 2.305,3.301 1.075,0.6999 2.534,1.0499 4.376,1.0499 0.97,0 1.925,-0.1006 2.867,-0.302 0.942,-0.2013 1.773,-0.4314 2.492,-0.6903 v 9.0052 h 4.521 V 8.656 h -3.758 l -0.763,1.9088 C 134.469,10.2014 133.95,9.8576 133.314,9.5334 132.677,9.2093 131.999,8.9455 131.278,8.7421 130.557,8.5387 129.847,8.437 129.148,8.437 Z m 1.523,3.6551 c 0.878,0 1.668,0.1394 2.372,0.4181 0.703,0.2787 1.313,0.5684 1.829,0.8691 v 10.8776 c -0.621,0.2019 -1.248,0.3884 -1.881,0.5595 -0.633,0.1711 -1.32,0.2566 -2.062,0.2566 -1.019,0 -1.844,-0.1848 -2.477,-0.5543 -0.632,-0.3696 -1.089,-1.0305 -1.369,-1.9827 -0.281,-0.9522 -0.421,-2.3076 -0.421,-4.0661 0,-1.6295 0.131,-2.9097 0.395,-3.8404 0.264,-0.9308 0.692,-1.5864 1.285,-1.9668 0.593,-0.3804 1.369,-0.5706 2.329,-0.5706 z"
                   style="fill:#ffffff;fill-opacity:1;fill-rule:nonzero;stroke:none"
                   id="path2528" />
                <path
                   d="m 162.401,8.437 c -1.802,0 -3.382,0.1736 -4.74,0.5207 -1.357,0.3471 -2.49,0.9922 -3.398,1.9354 -0.908,0.9431 -1.588,2.316 -2.039,4.1188 -0.452,1.8027 -0.677,4.155 -0.677,7.0567 0,2.9113 0.228,5.2733 0.684,7.0861 0.457,1.8129 1.141,3.2009 2.054,4.1642 0.914,0.9632 2.046,1.6259 3.399,1.9881 1.353,0.3621 2.925,0.5432 4.717,0.5432 1.822,0 3.411,-0.1811 4.769,-0.5432 1.357,-0.3622 2.487,-1.0249 3.39,-1.9881 0.904,-0.9633 1.579,-2.3513 2.025,-4.1642 0.447,-1.8128 0.67,-4.1748 0.67,-7.0861 0,-2.9017 -0.226,-5.254 -0.678,-7.0567 -0.451,-1.8028 -1.131,-3.1757 -2.039,-4.1188 C 169.63,9.9499 168.5,9.3048 167.147,8.9577 165.795,8.6106 164.212,8.437 162.401,8.437 Z m 0,4.0623 c 1.185,0 2.183,0.1247 2.993,0.3739 0.81,0.2492 1.459,0.7093 1.948,1.3801 0.489,0.6709 0.843,1.636 1.062,2.8952 0.219,1.2593 0.329,2.8993 0.329,4.9201 0,2.1235 -0.112,3.8275 -0.336,5.112 -0.224,1.2845 -0.581,2.2586 -1.07,2.9223 -0.489,0.6636 -1.136,1.1104 -1.941,1.3402 -0.805,0.2299 -1.8,0.3448 -2.985,0.3448 -1.122,0 -2.086,-0.1149 -2.893,-0.3448 -0.807,-0.2298 -1.462,-0.6766 -1.966,-1.3402 -0.504,-0.6637 -0.876,-1.6378 -1.115,-2.9223 -0.239,-1.2845 -0.359,-2.9885 -0.359,-5.112 0,-2.0208 0.105,-3.6608 0.314,-4.9201 0.209,-1.2592 0.555,-2.2243 1.039,-2.8952 0.484,-0.6708 1.135,-1.1309 1.952,-1.3801 0.817,-0.2492 1.826,-0.3739 3.028,-0.3739 z"
                   style="fill:#ffffff;fill-opacity:1;fill-rule:nonzero;stroke:none"
                   id="path2530" />
                <path
                   d="m 176.664,0.0055 v 28.2037 h 3.758 l 0.764,-1.9089 c 0.456,0.3532 0.986,0.6981 1.589,1.0346 0.603,0.3365 1.261,0.6135 1.974,0.8312 0.713,0.2177 1.447,0.3265 2.203,0.3265 1.228,0 2.285,-0.2445 3.171,-0.7334 0.887,-0.489 1.61,-1.1808 2.172,-2.0757 0.562,-0.8948 0.973,-1.9569 1.233,-3.1863 0.26,-1.2294 0.389,-2.5825 0.389,-4.0592 0,-2.1345 -0.223,-3.951 -0.671,-5.4496 -0.447,-1.4986 -1.177,-2.6389 -2.19,-3.421 -1.013,-0.7821 -2.381,-1.1732 -4.104,-1.1732 -0.978,0 -1.973,0.1332 -2.985,0.3995 -1.012,0.2664 -1.939,0.628 -2.781,1.0851 V 0.0055 Z m 8.873,12.1294 c 0.702,0 1.345,0.1837 1.929,0.5512 0.583,0.3675 1.051,1.006 1.402,1.9154 0.352,0.9095 0.528,2.1883 0.528,3.8365 0,1.5881 -0.173,2.8522 -0.519,3.7923 -0.346,0.9401 -0.806,1.6096 -1.381,2.0086 -0.574,0.3991 -1.22,0.5986 -1.938,0.5986 -0.892,0 -1.708,-0.1394 -2.447,-0.4181 -0.739,-0.2787 -1.381,-0.5684 -1.925,-0.8691 V 13.3149 c 0.615,-0.3509 1.303,-0.6353 2.064,-0.8532 0.761,-0.2179 1.523,-0.3268 2.287,-0.3268 z"
                   style="fill:#ffffff;fill-opacity:1;fill-rule:nonzero;stroke:none"
                   id="path2532" />
                <path
                   d="m 205.182,8.4587 c -2.119,0 -3.806,0.2948 -5.064,0.8845 -1.257,0.5897 -2.161,1.611 -2.711,3.0637 -0.55,1.4528 -0.825,3.4632 -0.825,6.0311 0,2.6307 0.267,4.6721 0.802,6.1243 0.534,1.4522 1.42,2.4703 2.657,3.0543 1.236,0.584 2.911,0.876 5.023,0.876 1.872,0 3.376,-0.1922 4.512,-0.5766 1.137,-0.3844 1.967,-1.0589 2.49,-2.0234 0.523,-0.9646 0.785,-2.3165 0.785,-4.0555 0,-1.2551 -0.248,-2.2526 -0.742,-2.9925 -0.495,-0.7398 -1.195,-1.2676 -2.102,-1.5832 -0.906,-0.3155 -1.978,-0.4733 -3.214,-0.4733 h -5.732 c 0.043,-1.2064 0.204,-2.1717 0.483,-2.8958 0.279,-0.7241 0.791,-1.2445 1.535,-1.5612 0.745,-0.3167 1.835,-0.4751 3.269,-0.4751 h 5.923 V 9.1921 c -1.012,-0.1833 -2.073,-0.3513 -3.183,-0.5042 -1.11,-0.1528 -2.412,-0.2292 -3.906,-0.2292 z m -4.164,11.084 h 5.324 c 0.858,0 1.49,0.1647 1.894,0.4942 0.405,0.3294 0.608,0.9223 0.608,1.7785 0,0.8539 -0.126,1.5273 -0.378,2.02 -0.251,0.4928 -0.653,0.8437 -1.205,1.0528 -0.552,0.2092 -1.284,0.3137 -2.197,0.3137 -1.014,0 -1.817,-0.1601 -2.407,-0.4802 -0.59,-0.3201 -1.011,-0.8903 -1.262,-1.7104 -0.252,-0.8201 -0.377,-1.9763 -0.377,-3.4686 z"
                   style="fill:#ffffff;fill-opacity:1;fill-rule:nonzero;stroke:none"
                   id="path2534" />
                <path
                   d="m 216.131,8.656 v 19.5532 h 3.685 l 0.837,-2.0486 c 0.799,0.6197 1.777,1.1709 2.935,1.6533 1.157,0.4825 2.349,0.7238 3.576,0.7238 1.533,0 2.74,-0.3099 3.621,-0.9296 0.881,-0.6198 1.51,-1.4506 1.886,-2.4926 0.377,-1.042 0.565,-2.184 0.565,-3.4261 V 8.656 h -4.521 v 12.4756 c 0,0.7019 -0.133,1.2995 -0.399,1.7931 -0.266,0.4935 -0.636,0.8752 -1.112,1.1451 -0.475,0.27 -1.053,0.405 -1.734,0.405 -0.627,0 -1.217,-0.0662 -1.768,-0.1985 -0.551,-0.1323 -1.073,-0.3188 -1.563,-0.5595 -0.491,-0.2407 -0.986,-0.5256 -1.486,-0.8549 V 8.656 Z"
                   style="fill:#ffffff;fill-opacity:1;fill-rule:nonzero;stroke:none"
                   id="path2536" />
                <path
                   d="m 254.03,8.437 c -0.642,0 -1.337,0.0193 -2.083,0.0579 -0.746,0.0386 -1.503,0.0966 -2.271,0.1739 -0.767,0.0774 -1.494,0.1618 -2.18,0.2533 -0.687,0.0914 -1.296,0.2023 -1.828,0.3327 v 3.5434 c 0.687,-0.0631 1.486,-0.1166 2.397,-0.1603 0.911,-0.0437 1.866,-0.0777 2.867,-0.1021 1.001,-0.0243 1.962,-0.0365 2.884,-0.0365 0.983,0 1.848,0.0885 2.594,0.2655 0.747,0.177 1.331,0.4971 1.754,0.9604 0.424,0.4633 0.635,1.1219 0.635,1.9759 v 1.2809 c 0,0.957 -0.269,1.6873 -0.807,2.1909 -0.537,0.5035 -1.333,0.7553 -2.385,0.7553 h -2.522 c -2.452,0 -4.342,0.5377 -5.672,1.6132 -1.329,1.0754 -1.994,2.9124 -1.994,5.5112 v 1.4001 c 0,2.5862 0.728,4.4621 2.183,5.6278 1.456,1.1658 3.526,1.7486 6.213,1.7486 0.922,0 1.876,-0.0448 2.861,-0.1343 0.985,-0.0895 1.931,-0.1983 2.84,-0.3262 0.908,-0.128 1.68,-0.2621 2.315,-0.4024 v -3.5433 c -1.089,0.087 -2.318,0.166 -3.687,0.2369 -1.369,0.071 -2.641,0.1064 -3.814,0.1064 -0.933,0 -1.747,-0.0963 -2.443,-0.2889 -0.696,-0.1925 -1.23,-0.5428 -1.602,-1.0508 -0.372,-0.5079 -0.558,-1.2373 -0.558,-2.1882 v -0.9068 c 0,-1.1407 0.312,-1.9419 0.937,-2.4036 0.625,-0.4618 1.515,-0.6927 2.669,-0.6927 h 2.831 c 1.573,0 2.87,-0.2898 3.891,-0.8694 1.021,-0.5796 1.785,-1.3728 2.291,-2.3796 0.507,-1.0068 0.76,-2.1556 0.76,-3.4464 v -1.7315 c 0,-2.0007 -0.391,-3.534 -1.174,-4.6001 C 261.149,10.142 260.078,9.4137 258.719,9.023 257.36,8.6323 255.797,8.437 254.03,8.437 Z"
                   style="fill:#ffffff;fill-opacity:1;fill-rule:nonzero;stroke:none"
                   id="path2538" />
                <path
                   d="m 274.693,8.4587 c -1.541,0 -2.869,0.1599 -3.983,0.4796 -1.114,0.3198 -2.029,0.8585 -2.744,1.6163 -0.715,0.7577 -1.238,1.783 -1.569,3.0757 -0.332,1.2927 -0.498,2.9067 -0.498,4.8419 0,2.0212 0.17,3.6827 0.508,4.9846 0.339,1.3018 0.866,2.3209 1.581,3.0574 0.715,0.7365 1.629,1.2503 2.743,1.5416 1.114,0.2912 2.435,0.4368 3.962,0.4368 1.541,0 2.871,-0.1528 3.99,-0.4585 1.119,-0.3057 2.033,-0.8267 2.741,-1.563 0.707,-0.7362 1.233,-1.7553 1.577,-3.0571 0.344,-1.3019 0.515,-2.9491 0.515,-4.9418 0,-1.9782 -0.164,-3.6172 -0.493,-4.9169 -0.33,-1.2998 -0.848,-2.3214 -1.556,-3.0649 -0.708,-0.7435 -1.622,-1.268 -2.741,-1.5735 -1.119,-0.3055 -2.464,-0.4582 -4.033,-0.4582 z m 0,3.6334 c 0.733,0 1.369,0.0677 1.907,0.2031 0.538,0.1353 0.982,0.4168 1.333,0.8443 0.351,0.4276 0.616,1.071 0.794,1.9302 0.178,0.8593 0.267,2.0007 0.267,3.4242 0,1.4334 -0.089,2.5736 -0.267,3.4207 -0.178,0.8471 -0.443,1.4819 -0.794,1.9043 -0.351,0.4224 -0.795,0.7013 -1.333,0.8367 -0.538,0.1353 -1.174,0.203 -1.907,0.203 -0.733,0 -1.366,-0.0677 -1.899,-0.203 -0.533,-0.1354 -0.975,-0.4143 -1.326,-0.8367 -0.351,-0.4224 -0.614,-1.0572 -0.787,-1.9043 -0.173,-0.8471 -0.26,-1.9873 -0.26,-3.4207 0,-1.4235 0.087,-2.5649 0.26,-3.4242 0.173,-0.8592 0.436,-1.5026 0.787,-1.9302 0.351,-0.4275 0.793,-0.709 1.326,-0.8443 0.533,-0.1354 1.166,-0.2031 1.899,-0.2031 z"
                   style="fill:#ffffff;fill-opacity:1;fill-rule:nonzero;stroke:none"
                   id="path2540" />
                <path
                   d="m 292.44,8.437 c -1.794,0 -3.189,0.5063 -4.188,1.5187 -0.998,1.0125 -1.498,2.4923 -1.498,4.4394 v 13.8141 h 4.522 V 15.7034 c 0,-1.2863 0.295,-2.1525 0.886,-2.5987 0.591,-0.4461 1.407,-0.6692 2.449,-0.6692 0.836,0 1.656,0.1395 2.459,0.4186 0.802,0.279 1.558,0.6621 2.267,1.1492 v 14.2059 h 4.522 V 8.656 h -3.685 l -0.837,2.0486 C 298.42,10.1092 297.369,9.5824 296.185,9.1242 295.001,8.6661 293.753,8.437 292.44,8.437 Z"
                   style="fill:#ffffff;fill-opacity:1;fill-rule:nonzero;stroke:none"
                   id="path2542" />
                <path
                   d="m 307.696,8.656 v 19.5532 h 3.479 l 1.043,-3.1293 c 0.764,0.9436 1.625,1.7447 2.582,2.4033 0.957,0.6585 2.084,0.9877 3.38,0.9877 0.275,0 0.558,-0.0146 0.851,-0.0439 0.293,-0.0292 0.566,-0.0804 0.82,-0.1534 v -4.6292 c -0.354,0.0487 -0.724,0.0902 -1.109,0.1246 -0.386,0.0344 -0.759,0.0516 -1.119,0.0516 -0.775,0 -1.471,-0.0898 -2.088,-0.2695 -0.617,-0.1796 -1.195,-0.4442 -1.733,-0.7938 -0.538,-0.3496 -1.066,-0.7923 -1.584,-1.328 V 8.656 Z"
                   style="fill:#ffffff;fill-opacity:1;fill-rule:nonzero;stroke:none"
                   id="path2544" />
                <path
                   d="m 329.721,8.437 c -1.16,0 -2.234,0.1542 -3.22,0.4625 -0.986,0.3084 -1.842,0.8297 -2.566,1.5641 -0.724,0.7344 -1.285,1.7454 -1.684,3.0329 -0.398,1.2876 -0.598,2.9104 -0.598,4.8685 0,2.0052 0.186,3.6634 0.559,4.9746 0.372,1.3111 0.908,2.341 1.608,3.0896 0.699,0.7487 1.559,1.2771 2.579,1.5855 1.02,0.3083 2.17,0.4625 3.451,0.4625 1.103,0 2.209,-0.0575 3.318,-0.1725 1.109,-0.115 2.232,-0.3092 3.372,-0.5826 V 25.101 h -5.339 c -1.167,0 -2.119,-0.1801 -2.857,-0.5401 -0.737,-0.3601 -1.283,-1.0245 -1.637,-1.9933 -0.355,-0.9687 -0.532,-2.3683 -0.532,-4.1986 0,-1.7942 0.181,-3.1599 0.544,-4.0971 0.362,-0.9372 0.914,-1.5706 1.657,-1.9 0.742,-0.3295 1.698,-0.4942 2.868,-0.4942 h 5.566 V 9.2993 C 336.232,9.1465 335.551,9.0017 334.767,8.865 333.984,8.7283 333.16,8.6228 332.295,8.5485 331.431,8.4742 330.573,8.437 329.721,8.437 Z"
                   style="fill:#ffffff;fill-opacity:1;fill-rule:nonzero;stroke:none"
                   id="path2546" />
                <path
                   d="m 347.408,8.4587 c -2.118,0 -3.806,0.2948 -5.063,0.8845 -1.258,0.5897 -2.161,1.611 -2.711,3.0637 -0.551,1.4528 -0.826,3.4632 -0.826,6.0311 0,2.6307 0.268,4.6721 0.802,6.1243 0.535,1.4522 1.42,2.4703 2.657,3.0543 1.237,0.584 2.911,0.876 5.024,0.876 1.871,0 3.375,-0.1922 4.512,-0.5766 1.136,-0.3844 1.966,-1.0589 2.489,-2.0234 0.523,-0.9646 0.785,-2.3165 0.785,-4.0555 0,-1.2551 -0.247,-2.2526 -0.742,-2.9925 -0.494,-0.7398 -1.195,-1.2676 -2.101,-1.5832 -0.907,-0.3155 -1.978,-0.4733 -3.215,-0.4733 h -5.732 c 0.043,-1.2064 0.204,-2.1717 0.483,-2.8958 0.28,-0.7241 0.791,-1.2445 1.536,-1.5612 0.744,-0.3167 1.834,-0.4751 3.269,-0.4751 h 5.923 V 9.1921 c -1.013,-0.1833 -2.074,-0.3513 -3.184,-0.5042 -1.11,-0.1528 -2.412,-0.2292 -3.906,-0.2292 z m -4.164,11.084 h 5.325 c 0.858,0 1.489,0.1647 1.894,0.4942 0.405,0.3294 0.607,0.9223 0.607,1.7785 0,0.8539 -0.126,1.5273 -0.377,2.02 -0.252,0.4928 -0.654,0.8437 -1.206,1.0528 -0.552,0.2092 -1.284,0.3137 -2.196,0.3137 -1.015,0 -1.817,-0.1601 -2.407,-0.4802 -0.591,-0.3201 -1.012,-0.8903 -1.263,-1.7104 -0.251,-0.8201 -0.377,-1.9763 -0.377,-3.4686 z"
                   style="fill:#ffffff;fill-opacity:1;fill-rule:nonzero;stroke:none"
                   id="path2548" />
                <path
                   d="m 375.358,8.437 c -0.643,0 -1.337,0.0193 -2.084,0.0579 -0.746,0.0386 -1.503,0.0966 -2.27,0.1739 -0.767,0.0774 -1.494,0.1618 -2.181,0.2533 -0.686,0.0914 -1.296,0.2023 -1.828,0.3327 v 3.5434 c 0.687,-0.0631 1.486,-0.1166 2.397,-0.1603 0.911,-0.0437 1.867,-0.0777 2.867,-0.1021 1.001,-0.0243 1.962,-0.0365 2.884,-0.0365 0.984,0 1.849,0.0885 2.595,0.2655 0.746,0.177 1.331,0.4971 1.754,0.9604 0.423,0.4633 0.635,1.1219 0.635,1.9759 v 1.2809 c 0,0.957 -0.269,1.6873 -0.807,2.1909 -0.538,0.5035 -1.333,0.7553 -2.386,0.7553 h -2.522 c -2.451,0 -4.342,0.5377 -5.671,1.6132 -1.33,1.0754 -1.995,2.9124 -1.995,5.5112 v 1.4001 c 0,2.5862 0.728,4.4621 2.184,5.6278 1.455,1.1658 3.526,1.7486 6.212,1.7486 0.923,0 1.877,-0.0448 2.861,-0.1343 0.985,-0.0895 1.932,-0.1983 2.84,-0.3262 0.908,-0.128 1.68,-0.2621 2.315,-0.4024 v -3.5433 c -1.089,0.087 -2.318,0.166 -3.687,0.2369 -1.369,0.071 -2.64,0.1064 -3.814,0.1064 -0.932,0 -1.746,-0.0963 -2.442,-0.2889 -0.696,-0.1925 -1.23,-0.5428 -1.603,-1.0508 -0.372,-0.5079 -0.558,-1.2373 -0.558,-2.1882 v -0.9068 c 0,-1.1407 0.313,-1.9419 0.938,-2.4036 0.625,-0.4618 1.514,-0.6927 2.669,-0.6927 h 2.83 c 1.573,0 2.87,-0.2898 3.891,-0.8694 1.021,-0.5796 1.785,-1.3728 2.292,-2.3796 0.506,-1.0068 0.76,-2.1556 0.76,-3.4464 v -1.7315 c 0,-2.0007 -0.392,-3.534 -1.175,-4.6001 -0.783,-1.0662 -1.853,-1.7945 -3.212,-2.1852 -1.359,-0.3907 -2.922,-0.586 -4.689,-0.586 z"
                   style="fill:#ffffff;fill-opacity:1;fill-rule:nonzero;stroke:none"
                   id="path2550" />
                <path
                   d="m 396.02,8.4587 c -1.541,0 -2.869,0.1599 -3.983,0.4796 -1.114,0.3198 -2.029,0.8585 -2.744,1.6163 -0.715,0.7577 -1.238,1.783 -1.569,3.0757 -0.331,1.2927 -0.497,2.9067 -0.497,4.8419 0,2.0212 0.169,3.6827 0.508,4.9846 0.338,1.3018 0.865,2.3209 1.58,3.0574 0.715,0.7365 1.63,1.2503 2.744,1.5416 1.114,0.2912 2.434,0.4368 3.961,0.4368 1.541,0 2.872,-0.1528 3.991,-0.4585 1.119,-0.3057 2.032,-0.8267 2.74,-1.563 0.708,-0.7362 1.234,-1.7553 1.577,-3.0571 0.344,-1.3019 0.516,-2.9491 0.516,-4.9418 0,-1.9782 -0.165,-3.6172 -0.494,-4.9169 -0.329,-1.2998 -0.848,-2.3214 -1.556,-3.0649 -0.708,-0.7435 -1.621,-1.268 -2.741,-1.5735 -1.119,-0.3055 -2.463,-0.4582 -4.033,-0.4582 z m 0,3.6334 c 0.733,0 1.369,0.0677 1.907,0.2031 0.538,0.1353 0.983,0.4168 1.333,0.8443 0.351,0.4276 0.616,1.071 0.794,1.9302 0.179,0.8593 0.268,2.0007 0.268,3.4242 0,1.4334 -0.089,2.5736 -0.268,3.4207 -0.178,0.8471 -0.443,1.4819 -0.794,1.9043 -0.35,0.4224 -0.795,0.7013 -1.333,0.8367 -0.538,0.1353 -1.174,0.203 -1.907,0.203 -0.733,0 -1.366,-0.0677 -1.899,-0.203 -0.533,-0.1354 -0.975,-0.4143 -1.326,-0.8367 -0.351,-0.4224 -0.613,-1.0572 -0.787,-1.9043 -0.173,-0.8471 -0.26,-1.9873 -0.26,-3.4207 0,-1.4235 0.087,-2.5649 0.26,-3.4242 0.174,-0.8592 0.436,-1.5026 0.787,-1.9302 0.351,-0.4275 0.793,-0.709 1.326,-0.8443 0.533,-0.1354 1.166,-0.2031 1.899,-0.2031 z"
                   style="fill:#ffffff;fill-opacity:1;fill-rule:nonzero;stroke:none"
                   id="path2552" />
                <path
                   d="m 409.393,8.656 v 15.9191 h -2.854 v 2.9001 l 2.854,0.734 v 1.6419 c 0,1.5581 0.203,2.8452 0.608,3.8613 0.406,1.0161 1.059,1.7721 1.96,2.2681 0.901,0.496 2.106,0.744 3.616,0.744 0.852,0 1.609,-0.0529 2.272,-0.1588 0.664,-0.1059 1.224,-0.2117 1.682,-0.3174 v -3.2217 h -3.081 c -0.672,0 -1.19,-0.1064 -1.555,-0.3191 -0.364,-0.2127 -0.619,-0.534 -0.764,-0.9638 -0.144,-0.4298 -0.217,-0.982 -0.217,-1.6565 v -1.878 h 5.361 v -3.6341 h -5.361 V 8.656 Z"
                   style="fill:#ffffff;fill-opacity:1;fill-rule:nonzero;stroke:none"
                   id="path2554" />
                <path
                   d="m 428.521,8.656 c -1.419,0 -2.577,0.215 -3.477,0.645 -0.899,0.43 -1.552,1.1388 -1.958,2.1264 -0.406,0.9876 -0.594,2.3078 -0.565,3.9606 l 0.158,9.1871 h -3.074 v 2.9001 l 3.216,0.734 0.635,5.4812 H 427 v -5.4812 h 4.971 V 24.5751 H 427 v -9.1655 c 0,-0.6376 0.064,-1.1573 0.193,-1.5592 0.129,-0.4019 0.306,-0.717 0.531,-0.9453 0.224,-0.2283 0.475,-0.3925 0.751,-0.4927 0.275,-0.1002 0.553,-0.1625 0.832,-0.1868 l 2.443,-0.2407 V 8.656 Z"
                   style="fill:#ffffff;fill-opacity:1;fill-rule:nonzero;stroke:none"
                   id="path2556" />
                <path
                   d="m 438.252,8.656 -5.447,19.5532 h 4.651 l 3.693,-15.3682 4.238,15.3682 h 3.78 l 4.238,-15.3682 3.458,15.3682 h 4.65 L 456.132,8.656 h -4.981 l -3.96,13.2449 -4.044,-13.2449 z"
                   style="fill:#ffffff;fill-opacity:1;fill-rule:nonzero;stroke:none"
                   id="path2558" />
                <path
                   d="m 466.94,8.437 c -1.459,0 -2.654,0.4352 -3.586,1.3054 -0.931,0.8703 -1.397,2.0769 -1.397,3.6198 v 1.6459 c 0,1.5003 0.517,2.7297 1.553,3.688 1.035,0.9583 2.631,1.4374 4.786,1.4374 h 5.568 v 1.7047 c 0,0.6874 -0.118,1.2613 -0.353,1.7218 -0.236,0.4604 -0.675,0.8055 -1.319,1.0354 -0.644,0.2298 -1.6,0.3447 -2.87,0.3447 h -5.927 v 2.6218 c 0.912,0.2528 1.973,0.4679 3.184,0.6453 1.211,0.1773 2.657,0.271 4.338,0.2809 1.615,0.0102 2.979,-0.1858 4.092,-0.588 1.114,-0.4023 1.955,-1.0661 2.523,-1.9913 0.569,-0.9252 0.854,-2.1821 0.854,-3.7706 V 8.656 h -3.544 l -0.763,2.1216 c -0.153,-0.143 -0.451,-0.3386 -0.894,-0.5869 -0.444,-0.2483 -0.994,-0.5106 -1.651,-0.787 -0.658,-0.2764 -1.38,-0.5066 -2.168,-0.6907 -0.789,-0.184 -1.597,-0.276 -2.426,-0.276 z m 2.187,3.192 c 0.313,-0.0098 0.67,0.0249 1.072,0.1044 0.402,0.0795 0.809,0.1751 1.22,0.2869 0.412,0.1118 0.798,0.226 1.158,0.3427 0.36,0.1168 0.653,0.2221 0.881,0.316 0.228,0.0939 0.363,0.1479 0.406,0.162 v 5.1214 l -4.221,-0.2339 c -1.113,-0.0771 -1.919,-0.359 -2.417,-0.8455 -0.499,-0.4864 -0.748,-1.1327 -0.748,-1.9387 v -0.8207 c 0,-0.6072 0.125,-1.097 0.374,-1.4694 0.25,-0.3724 0.577,-0.6339 0.983,-0.7845 0.406,-0.1505 0.837,-0.2308 1.292,-0.2407 z"
                   style="fill:#ffffff;fill-opacity:1;fill-rule:nonzero;stroke:none"
                   id="path2560" />
                <path
                   d="m 482.18,8.656 v 19.5532 h 3.479 l 1.043,-3.1293 c 0.764,0.9436 1.625,1.7447 2.582,2.4033 0.957,0.6585 2.084,0.9877 3.38,0.9877 0.274,0 0.558,-0.0146 0.851,-0.0439 0.293,-0.0292 0.566,-0.0804 0.82,-0.1534 v -4.6292 c -0.354,0.0487 -0.724,0.0902 -1.109,0.1246 -0.386,0.0344 -0.759,0.0516 -1.12,0.0516 -0.774,0 -1.47,-0.0898 -2.088,-0.2695 -0.617,-0.1796 -1.194,-0.4442 -1.732,-0.7938 -0.538,-0.3496 -1.066,-0.7923 -1.584,-1.328 V 8.656 Z"
                   style="fill:#ffffff;fill-opacity:1;fill-rule:nonzero;stroke:none"
                   id="path2562" />
                <path
                   d="m 504.737,8.4587 c -2.118,0 -3.806,0.2948 -5.063,0.8845 -1.258,0.5897 -2.161,1.611 -2.712,3.0637 -0.55,1.4528 -0.825,3.4632 -0.825,6.0311 0,2.6307 0.267,4.6721 0.802,6.1243 0.535,1.4522 1.42,2.4703 2.657,3.0543 1.236,0.584 2.911,0.876 5.023,0.876 1.872,0 3.376,-0.1922 4.513,-0.5766 1.136,-0.3844 1.966,-1.0589 2.489,-2.0234 0.523,-0.9646 0.785,-2.3165 0.785,-4.0555 0,-1.2551 -0.247,-2.2526 -0.742,-2.9925 -0.494,-0.7398 -1.195,-1.2676 -2.101,-1.5832 -0.907,-0.3155 -1.979,-0.4733 -3.215,-0.4733 h -5.732 c 0.043,-1.2064 0.204,-2.1717 0.483,-2.8958 0.279,-0.7241 0.791,-1.2445 1.536,-1.5612 0.744,-0.3167 1.834,-0.4751 3.269,-0.4751 h 5.922 V 9.1921 c -1.012,-0.1833 -2.073,-0.3513 -3.183,-0.5042 -1.11,-0.1528 -2.412,-0.2292 -3.906,-0.2292 z m -4.164,11.084 h 5.324 c 0.859,0 1.49,0.1647 1.895,0.4942 0.405,0.3294 0.607,0.9223 0.607,1.7785 0,0.8539 -0.126,1.5273 -0.377,2.02 -0.252,0.4928 -0.654,0.8437 -1.206,1.0528 -0.552,0.2092 -1.284,0.3137 -2.197,0.3137 -1.014,0 -1.816,-0.1601 -2.407,-0.4802 -0.59,-0.3201 -1.011,-0.8903 -1.262,-1.7104 -0.251,-0.8201 -0.377,-1.9763 -0.377,-3.4686 z"
                   style="fill:#ffffff;fill-opacity:1;fill-rule:nonzero;stroke:none"
                   id="path2564" />
                <path
                   d="m 533.709,8.437 c -1.583,0 -2.976,0.1825 -4.177,0.5475 -1.202,0.365 -2.211,1.0317 -3.026,2.0001 -0.816,0.9684 -1.43,2.3575 -1.842,4.1673 -0.412,1.8098 -0.618,4.1648 -0.618,7.065 0,2.7622 0.213,5.0337 0.639,6.8144 0.427,1.7807 1.056,3.1663 1.889,4.1567 0.833,0.9904 1.858,1.6818 3.074,2.0739 1.217,0.3922 2.611,0.5883 4.181,0.5883 1.057,0 2.091,-0.059 3.101,-0.1771 1.01,-0.118 1.951,-0.2615 2.821,-0.4303 0.871,-0.1688 1.625,-0.3526 2.262,-0.5515 v -3.4789 c -0.432,0.0875 -1.024,0.1748 -1.774,0.2621 -0.75,0.0872 -1.601,0.1613 -2.553,0.2221 -0.952,0.0609 -1.94,0.0913 -2.965,0.0913 -1.118,0 -2.071,-0.1254 -2.859,-0.3761 -0.787,-0.2508 -1.422,-0.7169 -1.903,-1.3984 -0.481,-0.6816 -0.833,-1.6531 -1.057,-2.9146 -0.223,-1.2616 -0.335,-2.9033 -0.335,-4.9252 0,-1.992 0.101,-3.6251 0.303,-4.8996 0.202,-1.2745 0.534,-2.2557 0.996,-2.9437 0.462,-0.688 1.086,-1.1651 1.873,-1.4315 0.787,-0.2663 1.77,-0.3995 2.95,-0.3995 1.839,0 3.342,0.0405 4.508,0.1215 1.165,0.081 2.104,0.1751 2.816,0.2823 V 9.4242 c -0.689,-0.203 -1.464,-0.3772 -2.324,-0.5224 -0.86,-0.1452 -1.788,-0.259 -2.782,-0.3413 -0.995,-0.0823 -2.061,-0.1235 -3.198,-0.1235 z"
                   style="fill:#ffffff;fill-opacity:1;fill-rule:nonzero;stroke:none"
                   id="path2566" />
                <path
                   d="m 552.933,8.4587 c -1.541,0 -2.869,0.1599 -3.983,0.4796 -1.114,0.3198 -2.029,0.8585 -2.744,1.6163 -0.715,0.7577 -1.238,1.783 -1.569,3.0757 -0.332,1.2927 -0.497,2.9067 -0.497,4.8419 0,2.0212 0.169,3.6827 0.508,4.9846 0.338,1.3018 0.865,2.3209 1.58,3.0574 0.715,0.7365 1.629,1.2503 2.743,1.5416 1.114,0.2912 2.435,0.4368 3.962,0.4368 1.541,0 2.871,-0.1528 3.99,-0.4585 1.12,-0.3057 2.033,-0.8267 2.741,-1.563 0.708,-0.7362 1.233,-1.7553 1.577,-3.0571 0.344,-1.3019 0.516,-2.9491 0.516,-4.9418 0,-1.9782 -0.165,-3.6172 -0.494,-4.9169 -0.33,-1.2998 -0.848,-2.3214 -1.556,-3.0649 -0.708,-0.7435 -1.622,-1.268 -2.741,-1.5735 -1.119,-0.3055 -2.463,-0.4582 -4.033,-0.4582 z m 0,3.6334 c 0.733,0 1.369,0.0677 1.907,0.2031 0.538,0.1353 0.982,0.4168 1.333,0.8443 0.351,0.4276 0.616,1.071 0.794,1.9302 0.178,0.8593 0.268,2.0007 0.268,3.4242 0,1.4334 -0.09,2.5736 -0.268,3.4207 -0.178,0.8471 -0.443,1.4819 -0.794,1.9043 -0.351,0.4224 -0.795,0.7013 -1.333,0.8367 -0.538,0.1353 -1.174,0.203 -1.907,0.203 -0.733,0 -1.366,-0.0677 -1.899,-0.203 -0.533,-0.1354 -0.975,-0.4143 -1.326,-0.8367 -0.351,-0.4224 -0.613,-1.0572 -0.787,-1.9043 -0.173,-0.8471 -0.26,-1.9873 -0.26,-3.4207 0,-1.4235 0.087,-2.5649 0.26,-3.4242 0.174,-0.8592 0.436,-1.5026 0.787,-1.9302 0.351,-0.4275 0.793,-0.709 1.326,-0.8443 0.533,-0.1354 1.166,-0.2031 1.899,-0.2031 z"
                   style="fill:#ffffff;fill-opacity:1;fill-rule:nonzero;stroke:none"
                   id="path2568" />
                <path
                   d="m 565.037,8.656 v 19.5532 h 3.685 l 0.837,-2.0486 c 0.799,0.6197 1.777,1.1709 2.935,1.6533 1.157,0.4825 2.349,0.7238 3.576,0.7238 1.533,0 2.74,-0.3099 3.621,-0.9296 0.881,-0.6198 1.51,-1.4506 1.886,-2.4926 0.377,-1.042 0.565,-2.184 0.565,-3.4261 V 8.656 h -4.521 v 12.4756 c 0,0.7019 -0.133,1.2995 -0.399,1.7931 -0.266,0.4935 -0.636,0.8752 -1.112,1.1451 -0.475,0.27 -1.053,0.405 -1.734,0.405 -0.627,0 -1.217,-0.0662 -1.768,-0.1985 -0.552,-0.1323 -1.073,-0.3188 -1.563,-0.5595 -0.491,-0.2407 -0.986,-0.5256 -1.486,-0.8549 V 8.656 Z"
                   style="fill:#ffffff;fill-opacity:1;fill-rule:nonzero;stroke:none"
                   id="path2570" />
                <path
                   d="m 587.205,8.656 v 15.9191 h -2.854 v 2.9001 l 2.854,0.734 v 1.6419 c 0,1.5581 0.202,2.8452 0.608,3.8613 0.405,1.0161 1.059,1.7721 1.96,2.2681 0.9,0.496 2.106,0.744 3.616,0.744 0.851,0 1.609,-0.0529 2.272,-0.1588 0.663,-0.1059 1.224,-0.2117 1.682,-0.3174 v -3.2217 h -3.081 c -0.672,0 -1.191,-0.1064 -1.555,-0.3191 -0.365,-0.2127 -0.619,-0.534 -0.764,-0.9638 -0.144,-0.4298 -0.217,-0.982 -0.217,-1.6565 v -1.878 h 5.361 v -3.6341 h -5.361 V 8.656 Z"
                   style="fill:#ffffff;fill-opacity:1;fill-rule:nonzero;stroke:none"
                   id="path2572" />
                <path
                   d="m 607.2,8.4587 c -2.118,0 -3.806,0.2948 -5.063,0.8845 -1.258,0.5897 -2.162,1.611 -2.712,3.0637 -0.55,1.4528 -0.825,3.4632 -0.825,6.0311 0,2.6307 0.267,4.6721 0.802,6.1243 0.534,1.4522 1.42,2.4703 2.657,3.0543 1.236,0.584 2.911,0.876 5.023,0.876 1.872,0 3.376,-0.1922 4.513,-0.5766 1.136,-0.3844 1.966,-1.0589 2.489,-2.0234 0.523,-0.9646 0.785,-2.3165 0.785,-4.0555 0,-1.2551 -0.248,-2.2526 -0.742,-2.9925 -0.494,-0.7398 -1.195,-1.2676 -2.102,-1.5832 -0.906,-0.3155 -1.978,-0.4733 -3.214,-0.4733 h -5.732 c 0.043,-1.2064 0.204,-2.1717 0.483,-2.8958 0.279,-0.7241 0.791,-1.2445 1.536,-1.5612 0.744,-0.3167 1.834,-0.4751 3.269,-0.4751 h 5.922 V 9.1921 C 613.277,9.0088 612.216,8.8408 611.106,8.6879 609.996,8.5351 608.694,8.4587 607.2,8.4587 Z m -4.164,11.084 h 5.324 c 0.858,0 1.49,0.1647 1.895,0.4942 0.404,0.3294 0.607,0.9223 0.607,1.7785 0,0.8539 -0.126,1.5273 -0.378,2.02 -0.251,0.4928 -0.653,0.8437 -1.205,1.0528 -0.552,0.2092 -1.284,0.3137 -2.197,0.3137 -1.014,0 -1.816,-0.1601 -2.407,-0.4802 -0.59,-0.3201 -1.011,-0.8903 -1.262,-1.7104 -0.251,-0.8201 -0.377,-1.9763 -0.377,-3.4686 z"
                   style="fill:#ffffff;fill-opacity:1;fill-rule:nonzero;stroke:none"
                   id="path2574" />
                <path
                   d="m 618.149,8.656 v 19.5532 h 3.479 l 1.043,-3.1293 c 0.765,0.9436 1.625,1.7447 2.583,2.4033 0.957,0.6585 2.083,0.9877 3.379,0.9877 0.275,0 0.559,-0.0146 0.851,-0.0439 0.293,-0.0292 0.566,-0.0804 0.82,-0.1534 v -4.6292 c -0.354,0.0487 -0.723,0.0902 -1.109,0.1246 -0.386,0.0344 -0.759,0.0516 -1.119,0.0516 -0.775,0 -1.471,-0.0898 -2.088,-0.2695 -0.617,-0.1796 -1.195,-0.4442 -1.732,-0.7938 -0.538,-0.3496 -1.066,-0.7923 -1.585,-1.328 V 8.656 Z"
                   style="fill:#ffffff;fill-opacity:1;fill-rule:nonzero;stroke:none"
                   id="path2576" />
                <path
                   d="m 640.706,8.4587 c -2.118,0 -3.806,0.2948 -5.063,0.8845 -1.257,0.5897 -2.161,1.611 -2.711,3.0637 -0.55,1.4528 -0.825,3.4632 -0.825,6.0311 0,2.6307 0.267,4.6721 0.801,6.1243 0.535,1.4522 1.421,2.4703 2.657,3.0543 1.237,0.584 2.911,0.876 5.024,0.876 1.872,0 3.376,-0.1922 4.512,-0.5766 1.137,-0.3844 1.966,-1.0589 2.49,-2.0234 0.523,-0.9646 0.784,-2.3165 0.784,-4.0555 0,-1.2551 -0.247,-2.2526 -0.741,-2.9925 -0.495,-0.7398 -1.195,-1.2676 -2.102,-1.5832 -0.907,-0.3155 -1.978,-0.4733 -3.215,-0.4733 h -5.732 c 0.043,-1.2064 0.204,-2.1717 0.484,-2.8958 0.279,-0.7241 0.791,-1.2445 1.535,-1.5612 0.745,-0.3167 1.834,-0.4751 3.269,-0.4751 h 5.923 V 9.1921 c -1.013,-0.1833 -2.074,-0.3513 -3.184,-0.5042 -1.109,-0.1528 -2.411,-0.2292 -3.906,-0.2292 z m -4.164,11.084 h 5.325 c 0.858,0 1.489,0.1647 1.894,0.4942 0.405,0.3294 0.607,0.9223 0.607,1.7785 0,0.8539 -0.125,1.5273 -0.377,2.02 -0.251,0.4928 -0.653,0.8437 -1.205,1.0528 -0.552,0.2092 -1.285,0.3137 -2.197,0.3137 -1.015,0 -1.817,-0.1601 -2.407,-0.4802 -0.59,-0.3201 -1.011,-0.8903 -1.263,-1.7104 -0.251,-0.8201 -0.377,-1.9763 -0.377,-3.4686 z"
                   style="fill:#ffffff;fill-opacity:1;fill-rule:nonzero;stroke:none"
                   id="path2578" />
                <path
                   d="m 651.656,8.656 v 19.5532 h 3.685 l 0.836,-2.0486 c 0.8,0.6197 1.778,1.1709 2.935,1.6533 1.158,0.4825 2.35,0.7238 3.577,0.7238 1.533,0 2.74,-0.3099 3.621,-0.9296 0.881,-0.6198 1.509,-1.4506 1.886,-2.4926 0.377,-1.042 0.565,-2.184 0.565,-3.4261 V 8.656 h -4.522 v 12.4756 c 0,0.7019 -0.132,1.2995 -0.398,1.7931 -0.266,0.4935 -0.637,0.8752 -1.112,1.1451 -0.475,0.27 -1.054,0.405 -1.734,0.405 -0.627,0 -1.217,-0.0662 -1.768,-0.1985 -0.552,-0.1323 -1.073,-0.3188 -1.564,-0.5595 -0.49,-0.2407 -0.986,-0.5256 -1.486,-0.8549 V 8.656 Z"
                   style="fill:#ffffff;fill-opacity:1;fill-rule:nonzero;stroke:none"
                   id="path2580" />
                <path
                   d="m 680.006,8.437 c -1.16,0 -2.234,0.1542 -3.22,0.4625 -0.986,0.3084 -1.841,0.8297 -2.565,1.5641 -0.724,0.7344 -1.286,1.7454 -1.684,3.0329 -0.399,1.2876 -0.598,2.9104 -0.598,4.8685 0,2.0052 0.186,3.6634 0.558,4.9746 0.372,1.3111 0.908,2.341 1.608,3.0896 0.7,0.7487 1.559,1.2771 2.579,1.5855 1.02,0.3083 2.17,0.4625 3.451,0.4625 1.103,0 2.209,-0.0575 3.318,-0.1725 1.109,-0.115 2.233,-0.3092 3.372,-0.5826 V 25.101 h -5.339 c -1.167,0 -2.119,-0.1801 -2.856,-0.5401 -0.738,-0.3601 -1.284,-1.0245 -1.638,-1.9933 -0.355,-0.9687 -0.532,-2.3683 -0.532,-4.1986 0,-1.7942 0.181,-3.1599 0.544,-4.0971 0.362,-0.9372 0.915,-1.5706 1.657,-1.9 0.742,-0.3295 1.698,-0.4942 2.868,-0.4942 h 5.566 V 9.2993 C 686.517,9.1465 685.836,9.0017 685.053,8.865 684.269,8.7283 683.445,8.6228 682.581,8.5485 681.716,8.4742 680.858,8.437 680.006,8.437 Z"
                   style="fill:#ffffff;fill-opacity:1;fill-rule:nonzero;stroke:none"
                   id="path2582" />
                <path
                   d="m 697.693,8.4587 c -2.118,0 -3.806,0.2948 -5.063,0.8845 -1.257,0.5897 -2.161,1.611 -2.711,3.0637 -0.55,1.4528 -0.825,3.4632 -0.825,6.0311 0,2.6307 0.267,4.6721 0.801,6.1243 0.535,1.4522 1.421,2.4703 2.657,3.0543 1.237,0.584 2.911,0.876 5.024,0.876 1.872,0 3.376,-0.1922 4.512,-0.5766 1.137,-0.3844 1.966,-1.0589 2.49,-2.0234 0.523,-0.9646 0.784,-2.3165 0.784,-4.0555 0,-1.2551 -0.247,-2.2526 -0.741,-2.9925 -0.495,-0.7398 -1.195,-1.2676 -2.102,-1.5832 -0.907,-0.3155 -1.978,-0.4733 -3.215,-0.4733 h -5.732 c 0.043,-1.2064 0.204,-2.1717 0.484,-2.8958 0.279,-0.7241 0.791,-1.2445 1.535,-1.5612 0.745,-0.3167 1.834,-0.4751 3.269,-0.4751 h 5.923 V 9.1921 C 703.77,9.0088 702.709,8.8408 701.599,8.6879 700.49,8.5351 699.188,8.4587 697.693,8.4587 Z m -4.164,11.084 h 5.325 c 0.858,0 1.489,0.1647 1.894,0.4942 0.405,0.3294 0.607,0.9223 0.607,1.7785 0,0.8539 -0.125,1.5273 -0.377,2.02 -0.251,0.4928 -0.653,0.8437 -1.205,1.0528 -0.552,0.2092 -1.285,0.3137 -2.197,0.3137 -1.015,0 -1.817,-0.1601 -2.407,-0.4802 -0.59,-0.3201 -1.011,-0.8903 -1.263,-1.7104 -0.251,-0.8201 -0.377,-1.9763 -0.377,-3.4686 z"
                   style="fill:#ffffff;fill-opacity:1;fill-rule:nonzero;stroke:none"
                   id="path2584" />
              </g>
            </g>
          </g>
        </g>
      </g>
    </g>
  </g>
</svg>
