<?xml version="1.0" encoding="UTF-8" standalone="no"?>
<!-- Created with Inkscape (http://www.inkscape.org/) -->

<svg
   width="300.00089"
   height="64"
   viewBox="0 0 79.375233 16.933334"
   version="1.1"
   id="svg1"
   sodipodi:docname="styleelem-left.svg"
   inkscape:version="1.4 (e7c3feb100, 2024-10-09)"
   xmlns:inkscape="http://www.inkscape.org/namespaces/inkscape"
   xmlns:sodipodi="http://sodipodi.sourceforge.net/DTD/sodipodi-0.dtd"
   xmlns="http://www.w3.org/2000/svg"
   xmlns:svg="http://www.w3.org/2000/svg">
  <sodipodi:namedview
     id="namedview1"
     pagecolor="#505050"
     bordercolor="#eeeeee"
     borderopacity="1"
     inkscape:showpageshadow="0"
     inkscape:pageopacity="0"
     inkscape:pagecheckerboard="0"
     inkscape:deskcolor="#d1d1d1"
     inkscape:zoom="1.0037471"
     inkscape:cx="135.4923"
     inkscape:cy="235.119"
     inkscape:window-width="1239"
     inkscape:window-height="1217"
     inkscape:window-x="0"
     inkscape:window-y="0"
     inkscape:window-maximized="0"
     inkscape:current-layer="layer1" />
  <defs
     id="defs1">
    <clipPath
       clipPathUnits="userSpaceOnUse"
       id="clipPath1774">
      <path
         d="M 0,0 H 1201.98 V 1695.18 H 0 Z"
         transform="translate(2.5000001e-8,-2.5000001e-5)"
         clip-rule="evenodd"
         id="path1774" />
    </clipPath>
    <clipPath
       clipPathUnits="userSpaceOnUse"
       id="clipPath1776">
      <path
         d="M 0,0 H 1201.98 V 1695.18 H 0 Z"
         transform="translate(2.5000001e-8,-2.5000001e-5)"
         clip-rule="evenodd"
         id="path1776" />
    </clipPath>
    <clipPath
       clipPathUnits="userSpaceOnUse"
       id="clipPath1778">
      <path
         d="M 0,0 H 1201.98 V 1695.18 H 0 Z"
         transform="translate(2.5000001e-8,-2.5000001e-5)"
         clip-rule="evenodd"
         id="path1778" />
    </clipPath>
    <clipPath
       clipPathUnits="userSpaceOnUse"
       id="clipPath1782">
      <path
         d="M 0,0 H 1201.98 V 1695.18 H 0 Z"
         transform="translate(2.5000001e-8,-2.5000001e-5)"
         clip-rule="evenodd"
         id="path1782" />
    </clipPath>
    <clipPath
       clipPathUnits="userSpaceOnUse"
       id="clipPath1784">
      <path
         d="M 0,0 H 1201.98 V 1695.18 H 0 Z"
         transform="translate(2.5000001e-8,-2.5000001e-5)"
         clip-rule="evenodd"
         id="path1784" />
    </clipPath>
    <clipPath
       clipPathUnits="userSpaceOnUse"
       id="clipPath1786">
      <path
         d="M 0,0 H 1201.98 V 1695.18 H 0 Z"
         transform="translate(2.5000001e-8,-2.5000001e-5)"
         clip-rule="evenodd"
         id="path1786" />
    </clipPath>
    <clipPath
       clipPathUnits="userSpaceOnUse"
       id="clipPath1788">
      <path
         d="M 0,0 H 1201.98 V 1695.18 H 0 Z"
         transform="translate(2.5000001e-8,-2.5000001e-5)"
         clip-rule="evenodd"
         id="path1788" />
    </clipPath>
  </defs>
  <g
     id="layer1"
     transform="translate(79.587677,80.927743)">
    <g
       id="g2"
       transform="matrix(0.26458333,0,0,0.26458333,118.32145,-27.664317)">
      <path
         id="path1773"
         d="m 53.254,1637.0527 c 0,0 36.887,-6.0427 44.8872,-7.2427 1.0111,-0.15 2.0098,-0.37 2.9858,-0.68 3.21,-0.99 10.991,-3.39 16.285,-5.03 3.495,-1.08 7.205,-1.26 10.789,-0.53 11.372,2.33 36.64,7.5 37.812,7.74 0.028,0 0.057,0.01 0.085,0.01 0.934,0.18 17.047,3.26 22.494,4.3 1.186,0.22 2.388,0.35 3.596,0.37 8.996,0.19 48.393,1.0627 48.393,1.0627 l 3.312,-0.043"
         style="display:inline;fill:none;stroke:#04a4e8;stroke-width:2.24404;stroke-linecap:butt;stroke-linejoin:miter;stroke-miterlimit:10;stroke-dasharray:none;stroke-opacity:1"
         transform="matrix(1.3326362,0,0,-1.341124,-779.98326,2027.1801)"
         clip-path="url(#clipPath1774)" />
      <path
         id="path1775"
         d="m 97.3065,1637.0527 c 0,0 21.5475,-0.3727 26.3645,-0.3327 0.63,0 1.259,0.06 1.879,0.17 l 28.649,5.16 c 0.21,0.03 0.419,0.08 0.626,0.13 2.928,0.69 25.747,6.13 34.532,8.22 2.246,0.53 4.595,0.45 6.795,-0.25 9.083,-2.89 33.853,-10.76 40.133,-12.75 0.968,-0.31 1.98,-0.46 2.997,-0.44"
         style="display:inline;fill:none;stroke:#d7edb5;stroke-width:2.24404;stroke-linecap:butt;stroke-linejoin:miter;stroke-miterlimit:10;stroke-dasharray:none;stroke-opacity:1"
         transform="matrix(1.3326362,0,0,-1.341124,-779.98326,2027.1801)"
         clip-path="url(#clipPath1776)" />
      <path
         id="path1777"
         d="m 94.971008,1637.0527 c 0,0 22.445992,-2.7827 25.992992,-3.1327 0.313,-0.04 0.624,-0.09 0.932,-0.15 2.305,-0.5 12.543,-2.7 14.729,-3.17 0.274,-0.06 0.545,-0.13 0.813,-0.22 3.232,-1.01 24.908,-7.77 26.383,-8.23 0.052,-0.01 0.105,-0.03 0.157,-0.05 0.828,-0.28 8.046,-2.69 14.113,-4.71 5.481,-1.83 11.45,-1.54 16.727,0.82 10.971,4.89 29.326,13.09 31.722,14.16 0.174,0.07 0.352,0.14 0.532,0.2 1.912,0.64 13.294,4.44 13.294,4.44"
         style="display:inline;fill:none;stroke:#d7edb5;stroke-width:2.24404;stroke-linecap:butt;stroke-linejoin:miter;stroke-miterlimit:10;stroke-dasharray:none;stroke-opacity:1"
         transform="matrix(1.3326362,0,0,-1.341124,-779.98326,2027.1801)"
         clip-path="url(#clipPath1778)" />
      <path
         style="display:inline;fill:none;stroke:#04a4e8;stroke-width:2.24404;stroke-linecap:butt;stroke-linejoin:miter;stroke-miterlimit:10;stroke-dasharray:none;stroke-opacity:1"
         d="m 23.998147,1637.0527 c 0,0 54.464653,0.02 75.463053,0 3.3698,-0.01 6.6988,0.2173 9.7508,1.6473 10.384,4.85 35.343,16.53 44.816,20.96 2.377,1.11 5.112,1.17 7.537,0.16 10.68,-4.42 40.833,-16.91 51.369,-21.28 2.435,-1.01 5.045,-1.4873 7.68,-1.4873 2.41305,-9e-4 28.50206,2e-4 28.50206,2e-4"
         transform="matrix(1.3326362,0,0,-1.341124,-779.98326,2027.1801)"
         id="path1779" />
    </g>
  </g>
</svg>
