<?xml version="1.0" encoding="UTF-8" standalone="no"?>
<svg
   xmlns:dc="http://purl.org/dc/elements/1.1/"
   xmlns:cc="http://creativecommons.org/ns#"
   xmlns:rdf="http://www.w3.org/1999/02/22-rdf-syntax-ns#"
   xmlns:svg="http://www.w3.org/2000/svg"
   xmlns="http://www.w3.org/2000/svg"
   width="92.464142"
   height="14.1825"
   viewBox="0 0 92.464141 14.1825"
   id="svg4152"
   version="1.1">
  <metadata
     id="metadata4160">
    <rdf:RDF>
      <cc:Work
         rdf:about="">
        <dc:format>image/svg+xml</dc:format>
        <dc:type
           rdf:resource="http://purl.org/dc/dcmitype/StillImage" />
        <dc:title></dc:title>
      </cc:Work>
    </rdf:RDF>
  </metadata>
  <defs
     id="defs4158" />
  <g
     id="text4162"
     style="font-style:normal;font-variant:normal;font-weight:normal;font-stretch:normal;font-size:40px;line-height:559.99999046%;font-family:'TeX Gyre Adventor';-inkscape-font-specification:'TeX Gyre Adventor, Normal';text-align:start;letter-spacing:0px;word-spacing:0px;writing-mode:lr-tb;text-anchor:start;fill:#000000;fill-opacity:1;stroke:none;stroke-width:1px;stroke-linecap:butt;stroke-linejoin:miter;stroke-opacity:1">
    <path
       id="path4136"
       style="font-style:normal;font-variant:normal;font-weight:800;font-stretch:normal;font-size:19.0625px;font-family:'Avenir LT Std';-inkscape-font-specification:'Avenir LT Std Ultra-Bold';letter-spacing:0px;fill:#ffffff"
       d="m 5.7220459e-8,13.839375 2.973750042779541,0 0,-5.394688 1.4678125,0 2.82125,5.394688 3.5646874,0 -3.4312499,-5.699688 c 1.90625,-0.343125 2.9165629,-1.8109375 2.9165629,-3.698125 0,-3.1453125 -2.3256254,-4.09843746 -5.0896879,-4.09843746 l -5.223125042779542,0 0,13.49625046 z M 2.9737501,2.8593745 l 1.944375,0 c 1.0865625,0 2.3065625,0.2096875 2.3065625,1.563125 0,1.4678125 -1.410625,1.5059375 -2.4971875,1.5059375 l -1.75375,0 0,-3.0690625 z" />
    <path
       id="path4138"
       style="font-style:normal;font-variant:normal;font-weight:800;font-stretch:normal;font-size:19.0625px;font-family:'Avenir LT Std';-inkscape-font-specification:'Avenir LT Std Ultra-Bold';letter-spacing:0px;fill:#ffffff"
       d="m 21.987402,13.839375 -9.512187,0 0,-2.745 6.538437,0 0,-2.7450005 -5.852187,0 0,-2.745 5.852187,0 0,-2.51625 -6.195312,0 0,-2.74499996 9.169062,0 0,13.49625046 z" />
    <path
       id="path4140"
       style="font-style:normal;font-variant:normal;font-weight:800;font-stretch:normal;font-size:19.0625px;font-family:'Avenir LT Std';-inkscape-font-specification:'Avenir LT Std Ultra-Bold';letter-spacing:0px;fill:#ffffff"
       d="m 24.500972,13.839375 8.482812,0 0,-2.745 -5.509062,0 0,-10.75125046 -2.97375,0 0,13.49625046 z" />
    <path
       id="path4142"
       style="font-style:normal;font-variant:normal;font-weight:800;font-stretch:normal;font-size:19.0625px;font-family:'Avenir LT Std';-inkscape-font-specification:'Avenir LT Std Ultra-Bold';letter-spacing:0px;fill:#ffffff"
       d="m 34.739619,13.839375 9.512188,0 0,-2.745 -6.538438,0 0,-2.7450005 5.852188,0 0,-2.745 -5.852188,0 0,-2.51625 6.195313,0 0,-2.74499996 -9.169063,0 0,13.49625046 z" />
    <path
       id="path4144"
       style="font-style:normal;font-variant:normal;font-weight:800;font-stretch:normal;font-size:19.0625px;font-family:'Avenir LT Std';-inkscape-font-specification:'Avenir LT Std Ultra-Bold';letter-spacing:0px;fill:#ffffff"
       d="m 45.259439,13.839375 3.27875,0 1.124687,-2.859375 5.242188,0 1.162812,2.859375 3.355,0 -5.87125,-13.49625046 -2.459062,0 -5.833125,13.49625046 z m 8.635312,-5.3756255 -3.297812,0 1.639375,-4.19375 1.658437,4.19375 z" />
    <path
       id="path4146"
       style="font-style:normal;font-variant:normal;font-weight:800;font-stretch:normal;font-size:19.0625px;font-family:'Avenir LT Std';-inkscape-font-specification:'Avenir LT Std Ultra-Bold';letter-spacing:0px;fill:#ffffff"
       d="M 69.473281,1.4106245 C 68.329531,0.40031204 66.861719,-4.5776367e-7 65.336719,-4.5776367e-7 62.687031,-4.5776367e-7 60.189844,1.505937 60.189844,4.3843745 c 0,4.49875 6.32875,3.164375 6.32875,5.6425005 0,0.953125 -1.086563,1.410625 -2.05875,1.410625 -0.99125,0 -1.9825,-0.476563 -2.5925,-1.277188 l -2.115938,2.325625 c 1.277188,1.181875 2.802188,1.696563 4.536875,1.696563 2.783125,0 5.204063,-1.429688 5.204063,-4.441563 0,-4.7275 -6.214375,-3.1453125 -6.214375,-5.604375 0,-1.0103125 1.162812,-1.3915625 2.001562,-1.3915625 0.724375,0 1.6775,0.2859375 2.154063,0.8959375 l 2.039687,-2.2303125 z" />
    <path
       id="path4148"
       style="font-style:normal;font-variant:normal;font-weight:800;font-stretch:normal;font-size:19.0625px;font-family:'Avenir LT Std';-inkscape-font-specification:'Avenir LT Std Ultra-Bold';letter-spacing:0px;fill:#ffffff"
       d="m 81.334326,13.839375 -9.512187,0 0,-2.745 6.538437,0 0,-2.7450005 -5.852187,0 0,-2.745 5.852187,0 0,-2.51625 -6.195312,0 0,-2.74499996 9.169062,0 0,13.49625046 z" />
    <path
       id="path4150"
       style="font-style:normal;font-variant:normal;font-weight:800;font-stretch:normal;font-size:19.0625px;font-family:'Avenir LT Std';-inkscape-font-specification:'Avenir LT Std Ultra-Bold';letter-spacing:0px;fill:#ffffff"
       d="M 92.445083,1.4106245 C 91.301333,0.40031204 89.833521,-4.5776367e-7 88.308521,-4.5776367e-7 85.658833,-4.5776367e-7 83.161646,1.505937 83.161646,4.3843745 c 0,4.49875 6.32875,3.164375 6.32875,5.6425005 0,0.953125 -1.086563,1.410625 -2.05875,1.410625 -0.99125,0 -1.9825,-0.476563 -2.5925,-1.277188 l -2.115938,2.325625 c 1.277188,1.181875 2.802188,1.696563 4.536875,1.696563 2.783125,0 5.204063,-1.429688 5.204063,-4.441563 0,-4.7275 -6.214375,-3.1453125 -6.214375,-5.604375 0,-1.0103125 1.162812,-1.3915625 2.001562,-1.3915625 0.724375,0 1.6775,0.2859375 2.154063,0.8959375 l 2.039687,-2.2303125 z" />
  </g>
</svg>
