<svg xmlns="http://www.w3.org/2000/svg" width="703.6" height="328.394" xml:space="preserve"><path fill="#00498C" d="M0 164.079v164.315l46.812-46.812H703.6V164.079H0z"/><path fill="#00A6DE" d="M703.6 164.079V0l-46.812 46.812H0v117.267h703.6z"/><g fill="#FFF"><path d="M38.302 124.596h6.62v6.62h-6.62zM38.302 115.612h6.62v6.62h-6.62zM38.302 84.404h6.62v6.62h-6.62zM38.302 75.42h6.62v6.62h-6.62zM47.286 128.852h6.62v6.62h-6.62zM47.286 75.42h6.62v6.62h-6.62zM56.034 128.852h6.62v6.62h-6.62zM56.034 75.42h6.62v6.62h-6.62zM65.018 128.852h6.62v6.62h-6.62zM65.018 75.42h6.62v6.62h-6.62zM73.766 124.596h6.62v6.62h-6.62zM73.766 115.612h6.62v6.62h-6.62zM73.766 106.628h6.62v6.62h-6.62zM73.766 97.644h6.62v6.62h-6.62zM73.766 88.896h6.62v6.62h-6.62zM73.766 79.912h6.62v6.62h-6.62zM91.498 120.104h6.62v6.62h-6.62zM91.498 111.12h6.62v6.62h-6.62zM91.498 102.136h6.62v6.62h-6.62zM91.498 93.388h6.62v6.62h-6.62zM91.498 84.404h6.62v6.62h-6.62zM91.498 75.42h6.62v6.62h-6.62zM100.482 128.852h6.62v6.62h-6.62zM109.229 128.852h6.62v6.62h-6.62zM118.214 128.852h6.62v6.62h-6.62zM126.961 120.104h6.62v6.62h-6.62zM126.961 111.12h6.62v6.62h-6.62zM126.961 102.136h6.62v6.62h-6.62zM126.961 93.388h6.62v6.62h-6.62zM126.961 84.404h6.62v6.62h-6.62zM126.961 75.42h6.62v6.62h-6.62zM144.693 124.596h6.62v6.62h-6.62zM144.693 115.612h6.62v6.62h-6.62zM144.693 106.628h6.62v6.62h-6.62zM144.693 97.644h6.62v6.62h-6.62zM144.693 88.896h6.62v6.62h-6.62zM144.693 79.912h6.62v6.62h-6.62zM153.677 128.852h6.62v6.62h-6.62zM153.677 75.42h6.62v6.62h-6.62zM162.425 128.852h6.62v6.62h-6.62zM162.425 106.628h6.62v6.62h-6.62zM162.425 75.42h6.62v6.62h-6.62zM171.409 128.852h6.62v6.62h-6.62zM171.409 106.628h6.62v6.62h-6.62zM171.409 75.42h6.62v6.62h-6.62zM180.157 124.596h6.62v6.62h-6.62zM180.157 115.612h6.62v6.62h-6.62zM180.157 106.628h6.62v6.62h-6.62zM180.157 79.912h6.62v6.62h-6.62zM197.889 124.596h6.62v6.62h-6.62zM197.889 115.612h6.62v6.62h-6.62zM197.889 106.628h6.62v6.62h-6.62zM197.889 97.644h6.62v6.62h-6.62zM197.889 88.896h6.62v6.62h-6.62zM197.889 79.912h6.62v6.62h-6.62zM206.636 128.852h6.62v6.62h-6.62zM206.636 102.136h6.62v6.62h-6.62zM206.636 75.42h6.62v6.62h-6.62zM215.621 128.852h6.62v6.62h-6.62zM215.621 102.136h6.62v6.62h-6.62zM215.621 75.42h6.62v6.62h-6.62zM224.368 128.852h6.62v6.62h-6.62zM224.368 102.136h6.62v6.62h-6.62zM224.368 75.42h6.62v6.62h-6.62zM233.353 128.852h6.62v6.62h-6.62zM233.353 75.42h6.62v6.62h-6.62zM251.084 128.852h6.62v6.62h-6.62zM251.084 120.104h6.62v6.62h-6.62zM251.084 111.12h6.62v6.62h-6.62zM251.084 102.136h6.62v6.62h-6.62zM251.084 93.388h6.62v6.62h-6.62zM251.084 84.404h6.62v6.62h-6.62zM251.084 75.42h6.62v6.62h-6.62zM259.832 93.388h6.62v6.62h-6.62zM268.816 102.136h6.62v6.62h-6.62zM277.564 111.12h6.62v6.62h-6.62zM286.548 128.852h6.62v6.62h-6.62zM286.548 120.104h6.62v6.62h-6.62zM286.548 111.12h6.62v6.62h-6.62zM286.548 102.136h6.62v6.62h-6.62zM286.548 93.388h6.62v6.62h-6.62zM286.548 84.404h6.62v6.62h-6.62zM286.548 75.42h6.62v6.62h-6.62zM304.28 128.852h6.62v6.62h-6.62zM304.28 120.104h6.62v6.62h-6.62zM304.28 111.12h6.62v6.62h-6.62zM304.28 102.136h6.62v6.62h-6.62zM304.28 93.388h6.62v6.62h-6.62zM304.28 84.404h6.62v6.62h-6.62zM304.28 75.42h6.62v6.62h-6.62zM313.028 128.852h6.62v6.62h-6.62zM313.028 75.42h6.62v6.62h-6.62zM322.012 128.852h6.62v6.62h-6.62zM322.012 75.42h6.62v6.62h-6.62zM330.76 128.852h6.62v6.62h-6.62zM330.76 75.42h6.62v6.62h-6.62zM339.744 124.596h6.62v6.62h-6.62zM339.744 115.612h6.62v6.62h-6.62zM339.744 106.628h6.62v6.62h-6.62zM339.744 97.644h6.62v6.62h-6.62zM339.744 88.896h6.62v6.62h-6.62zM339.744 79.912h6.62v6.62h-6.62zM410.671 128.852h6.62v6.62h-6.62zM410.671 120.104h6.62v6.62h-6.62zM410.671 111.12h6.62v6.62h-6.62zM410.671 102.136h6.62v6.62h-6.62zM410.671 93.388h6.62v6.62h-6.62zM410.671 84.404h6.62v6.62h-6.62zM410.671 75.42h6.62v6.62h-6.62zM419.419 102.136h6.62v6.62h-6.62zM428.167 102.136h6.62v6.62h-6.62zM437.151 102.136h6.62v6.62h-6.62zM445.899 128.852h6.62v6.62h-6.62zM445.899 120.104h6.62v6.62h-6.62zM445.899 111.12h6.62v6.62h-6.62zM445.899 102.136h6.62v6.62h-6.62zM445.899 93.388h6.62v6.62h-6.62zM445.899 84.404h6.62v6.62h-6.62zM445.899 75.42h6.62v6.62h-6.62zM463.631 128.852h6.62v6.62h-6.62zM463.631 120.104h6.62v6.62h-6.62zM463.631 111.12h6.62v6.62h-6.62zM463.631 102.136h6.62v6.62h-6.62zM463.631 93.388h6.62v6.62h-6.62zM463.631 84.404h6.62v6.62h-6.62zM472.615 106.628h6.62v6.62h-6.62zM472.615 77.784h6.62v6.62h-6.62zM481.362 106.628h6.62v6.62h-6.62zM481.362 75.42h6.62v6.62h-6.62zM490.347 106.628h6.62v6.62h-6.62zM490.347 77.784h6.62v6.62h-6.62zM499.094 128.852h6.62v6.62h-6.62zM499.094 120.104h6.62v6.62h-6.62zM499.094 111.12h6.62v6.62h-6.62zM499.094 102.136h6.62v6.62h-6.62zM499.094 93.388h6.62v6.62h-6.62zM499.094 84.404h6.62v6.62h-6.62zM516.826 124.596h6.62v6.62h-6.62zM516.826 115.612h6.62v6.62h-6.62zM516.826 106.628h6.62v6.62h-6.62zM516.826 97.644h6.62v6.62h-6.62zM516.826 88.896h6.62v6.62h-6.62zM516.826 79.912h6.62v6.62h-6.62zM525.81 128.852h6.62v6.62h-6.62zM525.81 75.42h6.62v6.62h-6.62zM534.558 128.852h6.62v6.62h-6.62zM534.558 75.42h6.62v6.62h-6.62zM543.542 128.852h6.62v6.62h-6.62zM543.542 75.42h6.62v6.62h-6.62zM552.29 124.596h6.62v6.62h-6.62zM552.29 79.912h6.62v6.62h-6.62zM570.022 128.852h6.62v6.62h-6.62zM570.022 120.104h6.62v6.62h-6.62zM570.022 111.12h6.62v6.62h-6.62zM570.022 102.136h6.62v6.62h-6.62zM570.022 93.388h6.62v6.62h-6.62zM570.022 84.404h6.62v6.62h-6.62zM570.022 75.42h6.62v6.62h-6.62zM579.006 102.136h6.62v6.62h-6.62zM587.754 111.12h6.62v6.62h-6.62zM587.754 93.388h6.62v6.62h-6.62zM596.738 120.104h6.62v6.62h-6.62zM596.738 84.404h6.62v6.62h-6.62zM605.485 128.852h6.62v6.62h-6.62zM605.485 75.42h6.62v6.62h-6.62zM623.217 75.42h6.62v6.62h-6.62zM632.201 75.42h6.62v6.62h-6.62zM640.949 128.852h6.62v6.62h-6.62zM640.949 120.104h6.62v6.62h-6.62zM640.949 111.12h6.62v6.62h-6.62zM640.949 102.136h6.62v6.62h-6.62zM640.949 93.388h6.62v6.62h-6.62zM640.949 84.404h6.62v6.62h-6.62zM640.949 75.42h6.62v6.62h-6.62zM649.697 75.42h6.62v6.62h-6.62zM658.681 75.42h6.62v6.62h-6.62z"/></g><g fill="#FFF"><path d="M36.572 209.088h11.943c6.941 0 12.557 1.735 12.557 8.269 0 2.858-1.634 6.125-5.513 7.146v.204c4.695.918 7.044 3.368 7.044 7.758 0 6.84-5.921 9.8-13.066 9.8H36.572v-33.177zm11.74 13.066c2.858 0 4.186-1.429 4.186-3.471 0-2.041-1.327-2.858-4.186-2.858h-2.96v6.329h2.96zm.612 13.373c3.471 0 5.104-1.327 5.104-3.777 0-2.449-1.634-3.471-5.104-3.471h-3.572v7.248h3.572zM67.807 209.088h21.438v7.351H76.586v5.206h10.82v7.35h-10.82v5.921h13.168v7.35H67.807v-33.178zM114.047 242.264l-5.717-11.127h-3.368v11.127h-8.779v-33.177h12.556c7.146 0 13.271 2.45 13.271 10.719 0 4.747-2.145 7.86-5.359 9.596l7.196 12.862h-9.8zm-9.085-18.068h3.164c3.471 0 5.309-1.531 5.309-4.39s-1.838-3.777-5.309-3.777h-3.164v8.167zM128.334 209.088h8.779v25.827h12.556v7.35h-21.335v-33.177zM155.384 209.088h8.779v33.177h-8.779v-33.177zM171.511 209.088h8.983l7.35 14.802 3.165 7.452h.204c-.408-3.572-1.123-8.574-1.123-12.658v-9.596h8.37v33.177h-8.982l-7.351-14.853-3.164-7.401h-.204c.408 3.777 1.123 8.575 1.123 12.658v9.596h-8.371v-33.177z"/><path d="M36.572 209.088h11.943c6.941 0 12.557 1.735 12.557 8.269 0 2.858-1.634 6.125-5.513 7.146v.204c4.695.918 7.044 3.368 7.044 7.758 0 6.84-5.921 9.8-13.066 9.8H36.572v-33.177zm11.74 13.066c2.858 0 4.186-1.429 4.186-3.471 0-2.041-1.327-2.858-4.186-2.858h-2.96v6.329h2.96zm.612 13.373c3.471 0 5.104-1.327 5.104-3.777 0-2.449-1.634-3.471-5.104-3.471h-3.572v7.248h3.572zM67.807 209.088h21.438v7.351H76.586v5.206h10.82v7.35h-10.82v5.921h13.168v7.35H67.807v-33.178zM114.047 242.264l-5.717-11.127h-3.368v11.127h-8.779v-33.177h12.556c7.146 0 13.271 2.45 13.271 10.719 0 4.747-2.145 7.86-5.359 9.596l7.196 12.862h-9.8zm-9.085-18.068h3.164c3.471 0 5.309-1.531 5.309-4.39s-1.838-3.777-5.309-3.777h-3.164v8.167zM128.334 209.088h8.779v25.827h12.556v7.35h-21.335v-33.177zM155.384 209.088h8.779v33.177h-8.779v-33.177zM171.511 209.088h8.983l7.35 14.802 3.165 7.452h.204c-.408-3.572-1.123-8.574-1.123-12.658v-9.596h8.37v33.177h-8.982l-7.351-14.853-3.164-7.401h-.204c.408 3.777 1.123 8.575 1.123 12.658v9.596h-8.371v-33.177z"/></g></svg>