<svg width="205" height="72" viewBox="0 0 205 72" fill="none" xmlns="http://www.w3.org/2000/svg">
<path d="M1.80225 30.4511H25.8893V27.7522L8.06572 26.7141V20.3486L25.8893 19.3105V16.6116H1.80225V0.560333H30.1276C43.7128 0.560333 48.5303 3.74312 48.5303 12.7373C48.5303 18.6877 44.2428 22.2857 36.7754 22.7009V23.8076C45.5907 25.0533 48.5303 27.6819 48.5303 34.3254C48.5303 42.0755 43.4233 44.8431 28.9728 44.8431H1.80225V30.4511Z" fill="white"/>
<path d="M73.5752 19.2418H51.8011V0.560333H97.6622V16.4743L80.5617 44.8431H57.6311L73.5768 19.2418H73.5752Z" fill="white"/>
<path d="M100.783 22.7712C100.783 6.09548 108.105 0.560333 119.619 0.560333H152.569V20.7638H122.364V26.3676H152.569V44.8415H121.739C108.733 44.8415 100.783 39.7902 100.783 22.7696V22.7712Z" fill="white"/>
<path d="M157.554 30.4511H181.641V27.7522L163.818 26.7141V20.3486L181.641 19.3105V16.6116H157.554V0.560333H185.88C199.465 0.560333 204.281 3.74312 204.281 12.7373C204.281 18.6877 199.993 22.2857 192.527 22.7009V23.8076C201.343 25.0533 204.281 27.6819 204.281 34.3254C204.281 42.0755 199.174 44.8431 184.723 44.8431H157.554V30.4511Z" fill="white"/>
<path d="M2.93594 66.6447H1.80312L1.80312 53.0509H4.06875L4.06875 65.5118H5.20156L5.20156 66.6447H9.73281V65.5118H10.8656L10.8656 53.0509H13.1312L13.1312 66.6447H11.9984V67.7775H10.8656V68.9103H4.06875V67.7775H2.93594V66.6447ZM31.1185 59.8478L31.1185 68.9103H28.8529L28.8529 53.0509H31.1185V56.4493H32.2513V57.5822H33.3841V58.715H34.5169V59.8478H35.6498V60.9806L36.7826 60.9806V62.1134H37.9154V53.0509H40.181V68.9103H37.9154V65.5118H36.7826V64.379H35.6498V63.2462H34.5169V62.1134H33.3841V60.9806H32.2513V59.8478H31.1185ZM55.9026 68.9103V53.0509H58.1683V66.6447H67.2308V68.9103H55.9026ZM90.8821 55.3165H86.3508V56.4493H85.218V65.5118H86.3508V66.6447H90.8821V65.5118H92.0149V56.4493H90.8821V55.3165ZM82.9524 55.3165L84.0852 55.3165V54.1837H85.218V53.0509H92.0149V54.1837H93.1477V55.3165H94.2805V66.6447H93.1477V67.7775H92.0149V68.9103H85.218V67.7775H84.0852V66.6447H82.9524V55.3165ZM113.401 66.6447H117.932V65.5118H119.065V64.379H121.33V66.6447H120.197V67.7775H119.065V68.9103H112.268V67.7775H111.135V66.6447H110.002V55.3165H111.135V54.1837H112.268V53.0509H119.065V54.1837H120.197V55.3165H121.33V57.5822H119.065V56.4493H117.932V55.3165H113.401V56.4493H112.268V65.5118H113.401V66.6447ZM139.318 62.1134V68.9103H137.052V53.0509H139.318V59.8478H140.45V58.715H141.583V57.5822H142.716V56.4493H143.849V55.3165H144.982V54.1837H146.114V53.0509H148.38V55.3165H147.247V56.4493H146.114V57.5822H144.982V58.715H143.849V59.8478H142.716V62.1134H143.849V63.2462H144.982V64.379H146.114V65.5118H147.247V66.6447H148.38V68.9103H146.114V67.7775H144.982V66.6447H143.849V65.5118H142.716V64.379H141.583V63.2462H140.45V62.1134H139.318ZM175.43 53.0509V55.3165H166.367V59.8478H173.164V62.1134H166.367V66.6447H175.43V68.9103H164.102V53.0509H175.43ZM193.417 55.3165V66.6447H199.081V65.5118H200.214V56.4493H199.081V55.3165H193.417ZM191.151 53.0509L200.214 53.0509V54.1837H201.347V55.3165H202.479V66.6447H201.347V67.7775H200.214V68.9103H191.151V53.0509Z" fill="white"/>
</svg>
