<svg id="Ebene_1" data-name="Ebene 1" xmlns="http://www.w3.org/2000/svg" viewBox="0 0 982.52 982.52"><defs><style>.cls-1{fill:#1da64a;}</style></defs><title>erde_hell</title><path class="cls-1" d="M721.9,213.66c-4.82-8.78-20.83-25.88-30.7-29.17-13.16-2-5.26,9.65-5.26,14.69-3.29,2.63-8.56,5.49-11.19,8.78-1.53,1.31,3.73,13.37,13.82,9.43S693,221.33,700,236.9s21.06,15.79,27.42,11.19C735.28,242.17,726.29,221.77,721.9,213.66Z" transform="translate(-8.48 -8.6)"/><path class="cls-1" d="M762.48,312.57Z" transform="translate(-8.48 -8.6)"/><path class="cls-1" d="M891.43,370.68c.88,0-3.95-.87,0,0Z" transform="translate(-8.48 -8.6)"/><path class="cls-1" d="M499.74,8.6C228.45,8.6,8.48,228.57,8.48,499.86s220,491.26,491.26,491.26S991,771.15,991,499.86,771,8.6,499.74,8.6ZM318.59,880.14c-12.06-6.79-20.61-16.66-24.12-34.87-8.56-45.61-.66-70.39,39.47-96.93,18.86-12.5,21.93-27.85,37.07-42.77,3.72-4.6,13.59-22.81,20.17-23.68,7.9-1.76,30.05-5.49,34.43-14.26,8.34-11.18,26.54-60.09,34.66-64.91,13.15-8.56,31.58-35.09,18.2-50.67-15.35-18.86-36.85-19.29-56.8-29.16-17.55-8.78-25.44-48.91-38.82-62.73-26.1-26.53-65.79-42.1-98.69-58.55-17.77-7-16-9.43-30.05,4.6-18,18-44.08-4.6-46.71-23-.22-6.15-7.24-39.92-3.07-42.55,39.48-24.56-18.2-18.86-23-30.27-11.84-32.89,28.51-59,55.71-61.62,30.48-3.73,36.84,48,48.46,43.64,5.71-2.85,5.71-27.19,6.36-32.46,2.86-17.54,7.9-20.39,25-26.75,20-7.46,35.31-16.67,56.36-20.18,24.12-7,44.52-3.29,63.16-18.86,8.55-6.36,14.69,3.51,22.81,5.26,17.54,3.51,21.27-24.34,21.27-34.87,0-10.31,2.85-18.86-10.3-29.82-17.11-13.38-41.67-2-55.49,11.84-16.67,15.35-36,14.47-30.27-12.28,1.32-9.65,22.37-21.06,30.71-26.32,8.11-4.83,12.94,5.48,22.81,3.07,14.47-3.29,19.73,10.31,36.84,10.53,7-1.54,32.46-15.14,18.86-42.55h6.14c4.17,0,8.12,0,12.28.22,6.14,19.52-13.16,36-3.51,60.53,19.3,47.15,35.09,6.58,54.17-15.35,6.15-6.14,10.09-4.83,20.4-6.8,6.36-1.1,15.57-20.4,18.42-26.32a415.53,415.53,0,0,1,124.13,53.29c-16.23,1.76-20.39-3.07-20.17,16.23,0,7.24.65,29.17,11.62,31.15,18.2,2.19,14.91,14.91,32,17.1,16.23,2.19,6.14,16.67,12.94,30.71,7.46,22.37-43.43,29.16-53.29,32.45-29.83,10.09,13.81,53.52,33.33,48.91,6.14-1.54,26.76-4.17,28.29-11.18,0-.66-4-24.13-2-26.76,3.29-4.17,11.18-6.36,23.68.66,29.39,16.66,44.09,56.36,78.74,64.26,4.6,1.09,12.94-.22,18.64,4.38,4.82,6.58,17.32,18.42,2.41,18.42-19.74-4.38-30.26,2-46.49-10.74-16.89-13.16-27.42-23.91-50-24.35-19.3-.43-36.62-8.33-56.36-5.26-11,1.75-21.93,6.14-32.68,9.43-10.08,3.29-12.06,21.49-22.37,23.47-42.76,10.09-33.55,50.88-41.23,83.12-3.07,12.5-13.16,46.05-2,57.24,20,19.52,43.42,46.05,72.81,50.44,15.79,2.19,50.44-10.09,61,5.92,4.6,9,16.23-6.58,19.52,1.32,8.11,24.12-9.43,39.91-9.43,62.72-.22,33.33,20.17,45.18-7.24,74.78-29.83,29.83-9.43,67.55-26.1,103.08-8.77,18.2-10.52,43.64-23.9,52.2A422.61,422.61,0,0,1,633.74,899a422,422,0,0,1-276.11-3.51c-8.34-3.07-16-5.49-23-8.12C328.9,885,323.85,882.56,318.59,880.14Zm-91.45-59.43c-1.1-.88-2-1.75-3.07-2.63-7.46-6.58-14.92-13.38-22.15-20.62-7.46-7.45-14.48-15.13-21.28-23l-.22-.22c-1.31-1.54-2.85-3.29-4.16-4.83C62.87,632.54,46.43,431.87,141.39,278.57c13.38,13.38-9,39.48,16.45,57,11.18,7.9,21.93,4.83,19.73,19.3-2.19,14,11.85,13.82,13.82,26.32,6.14,27.2,42.11,40.79,21.71,71.5-20,27.63-37.28,58.55-22.15,93.86,5.05,12.94,17.33,26.1,26.76,35.53,17.1,17.55,16.23,7,16.23,29.17-.44,9.65,11.62,19.52,10.3,25.66-2.19,17.54-6.36,34.87-8.55,52.41-3.95,62.73-.22,124.35,46.71,171.29A413.86,413.86,0,0,1,232,824.88C230.43,823.56,228.67,822.25,227.14,820.71Z" transform="translate(-8.48 -8.6)"/></svg>