<svg xmlns="http://www.w3.org/2000/svg" xml:space="preserve" style="fill-rule:evenodd;clip-rule:evenodd;stroke-linejoin:round;stroke-miterlimit:2" viewBox="0 0 210 172">
  <path d="M3.541 80.499q0-.056 0 0m69.751 7.96c-.26-1.888-.037-3.702-2.222-6.22-2.11-2.48-9.181-10.255-11.403-12.773.556-.074 1.222.074 2.592 1.37.851.815 2.962 2.888 4.48 4.369a43.7 43.7 0 0 1 9.996-15.365 14.7 14.7 0 0 0-4.517 1.963c-.074-2.148-.592-4.221-2.073-5.591.555-3.036.074-6.701-6.738-11.181 3.48.852 5.516 3.999 8.182 1.592-2.37-.074-2.444-5.294-11.033-9.589 3.295-.074 5.849 5.221 9.663 2.222-3.591-.445-4.776-6.812-11.255-8.775 2.221.259 4.554 1.37 6.479-1.258-2.259.518-3.554-1.555-5.961-1.741.926-2.776.704-4.516-.259-6.59-1.666.111-3.406.63-4.665 1.666-.185-1.517-1.814-1.629-3.221-1.517.074.666.37 1.629-.333 1.777-1.148.222-4.998 1.258-7.96 2.406s-6.368 3.258-7.33 3.925c-.593.407-1.111-.556-1.481-1-1.037.888-2.074 2.036-1.296 3.221-1.666.148-3.48.592-4.998 1.814 0 1.925 1.592 3.776 3.961 4.813-3.998 3.961-.37 7.627-3.887 11.107 4.924.185 4.072-6.701 6.59-7.664-.259 4.85-2.962 5.702-2.962 10.922 0 2.776 1.666 5.812.185 7.663 4.147-1.147 3.036-10.292 5.628-13.032.444 1.555.185 3.11-.334 4.665-1.443 4.258.148 10.108-2.11 11.996 3.702-.37 4.554-5.591 7.034-8.553-2.628 6.924-5.479 18.845-9.329 24.473-7.183 9.699-11.44 21.547-18.03 21.547-2.888 0-5.11-1.777-5.11-5.443 0-11.032 18.919-18.622 18.919-30.358 0-5.22-4.258-7.22-6.923-7.22-1.814 0-3.962.889-5.813 2.407-.777-.296-1.555-.482-2.221-.482-6.701 0-4.887 12.033-10.737 11.922 2.296 1.296 6.294-1.222 8.627-4.591C10.464 75.168-.754 73.095.098 82.424c1.555-7.33 19.437-6.257 19.437-17.363 0-1.259-.63-2.296-1.518-3.147 1.332-.852 2.591-1.185 3.776-1.185 2.147 0 4.109 1.592 4.109 4.739 0 9.848-18.807 18.141-18.807 30.247 0 2.037.592 3.74 1.555 5.073-1.333.555-2.703.296-3.813-1.037-.112 3.11 4.331 5.072 7.145 3.517a6.8 6.8 0 0 0 1.962.37c-.851 2.333-3.739 2.999-5.22 2.888 4.628 3.628 12.662-1.148 12.217-5.257 3.666-2.962 5.998-7.997 8.627-11.329-.148.777-.296 1.518-.408 2.295-2.702 4.924-5.22 9.293-5.923 15.772-.593 5.405-3.332 10.292-7.109 10.292-.814 0-2.221-1.073-2.85-.555-1.185 1-.074 2.073-.074 3.11 0 1.555-2.962 3.073-2.962 7.812 0 2.147 1.259 4.702.777 6.108 1.222-.629 2.814-2.665 3.48-5.257 1.296 6.257-2.665 5.998.186 11.551.37-1.851 2.184-2.591 3.332-1.851 1.11.778.592 1.296-.222 2.148-.852.851-1.592 4.998 2.184 4.738-.704-.481-.741-1.592 1.111-1.962 2.628-.518 3.369.667 6.182.667 1.703 0 2.185-2.259 3.555-2.259 1.369 0 1.369 1.074.888 1.851 2.184-.592 2.592-1.777 2.592-3.035s-1-2-.222-2.481c.777-.481 3.332.037 2.295 2.147 1.296-.222 1.999-1.184 1.999-2.776s-1.851-2.555-3.554-2.259c-.296-.999-1.777-1.555-3.147-1.555-3.073 0-2.629 2.444-4.739 2.444-3.369 0-6.664-4.406-6.664-11.81 0-3.962 4.295-4.999 7.294-6.294 3.035-1.296 8.33-4.554 11.514-9.885 2.48-4.184 2.591-8.738 2.258-14.18 4.258 2.443 4.776 5.961 4.776 8.515 0 3.332-1.703 4.665-3.073 5.257-1.148.519-1.518.296-1.666 1-.148.851.407 1.333.926 1.592 1.555.777 1.221 2.258 1.666 3.85s1.851 4.11 4.22 5.961c.259-1 .185-2.592.037-4.628 3.295 1.629.667 8.182 7.035 8.182-1.185-.666-.852-2.406-.186-2.628.667-.26 1.518.444 2.777 2.147 1.222 1.703.889 1.592 3.925 1.592 2.998 0 1.666-1.037 3.258-1.037s1.48 1.851.629 3.184c2.703-.814 3.517-2.851 2.592-4.961 2.369-1.259 3.628.518 3.961 1.814 2.332-2.332 0-5.146-1.814-5.331.074-.852-.741-1.777-1.74-1.851a26 26 0 0 0-2.999-.074c-1.111.074-1.74 1.666-2.999 1.666-3.998 0-11.884-7.22-11.884-10.367 0-3.11 7.552-5.035 7.552-9.885 0-6.331-6.219-8.515-11.477-12.587 1.852-2.074 7.331-2.592 10.404-1.074.333-1.777 1.481-1.333 1.888-4.369 1.111 2.666-.37 4.887.777 5.998.889-1.296 3.147-1.111 2.999-4.406.704 2.073-.888 5.257.704 6.627.259-1.703 1.295-2.036 1.925-2.036.666 0 1.222.444 1.222 1.481 0 2.554-3.036 1.851-3.036 4.702 0 1.185 1.518 1.592 1.518 2.406 0 .778-1.259 1.963-2.777.963.518 1.111 1.518 2.073 2.814 2.073 1.37 0 2.85-1.111 3.443-2.517.703 1.814.185 3.85-1.148 4.109 1.37.704 4.665.037 4.258-4.146 1.851.296 2.813 1.555 1.74 3.776 1.518-.37 2.888-1.111 2.888-2.74 0-1.259-1.222-2.11-1.037-3.813.074-1.481-1.851-2.814-2.147-4.702m-33.21-52.313c-1.74.148-1.666-1.518-4.702-2.222 2.148-.444 4.887-1.517 7.257-2.406.444 1.925-.37 4.406-2.555 4.628M52.3 49.067c-2.222.962-3.925-1-4.369-2.296-.444-1.332-.777-2.443-.259-2.924.962-.963 1.259-1.666.666-2.851-.666-1.37-2.11-.704-3.665-.333.703-1.296.778-2.222-.222-2.111-1.185.148-1.185 2.037-1.851 1.814-.667-.222-.296-1.332-.296-1.925 0-.814.518-1.11 1.332-1.444l6.442-2.443c.815-.296 1.407-.444 1.963.111.407.407 1.443.962 1.11 1.555-.333.629-1.666-.741-2.591 0-.778.592-.111 1.222 1.332 1.666-1.369.814-2.85 1.333-2.406 2.814.407 1.258 1.111 1.555 2.481 1.555.74 0 1.258 1.036 1.851 2.295.666 1.222.851 3.517-1.518 4.517m.407-17.882c-1.74 1.37-3.998.111-5.035-1.629 2.369-.963 5.109-2.074 6.96-3.221-1.74 2.591-.555 3.776-1.925 4.85M31.16 21.041c0-.681-.56-1.241-1.241-1.241-.68 0-1.24.56-1.24 1.241 0 .666.556 1.221 1.222 1.221.703.037 1.259-.518 1.259-1.221m-.408-3.258c0-.667-.555-1.222-1.221-1.222-.667 0-1.222.555-1.222 1.222s.555 1.221 1.222 1.221 1.221-.555 1.221-1.221m.704-1.481a1.21 1.21 0 0 0 1.222-1.222c0-.667-.556-1.259-1.222-1.259-.667 0-1.222.555-1.222 1.259a1.21 1.21 0 0 0 1.222 1.222m3.258-.186c.666 0 1.222-.555 1.222-1.221 0-.667-.556-1.222-1.222-1.222s-1.222.555-1.222 1.222.556 1.221 1.222 1.221m13.995-2.295a1.227 1.227 0 0 0 2.106-.86 1.23 1.23 0 0 0-1.229-1.23c-.674 0-1.229.555-1.229 1.23 0 .321.126.63.352.86m-.26-2.629a1.227 1.227 0 0 0-.86-2.106c-.329 0-.645.132-.876.366-.226.23-.353.54-.353.863 0 .674.555 1.229 1.229 1.229.322 0 .631-.126.86-.352m-3.258-.518a1.23 1.23 0 0 0 .369-.878 1.229 1.229 0 1 0-.369.878m-2.813 2.073a1.23 1.23 0 0 0 .368-.877c0-.675-.555-1.23-1.229-1.23a1.233 1.233 0 0 0-1.229 1.23 1.228 1.228 0 0 0 2.09.877m-7.849-1.703.999 2.148 1.259-1.481c.037.037.111.037.148.037.111.74.148 1.999.148 2.702 0 .852.704 1.555 1.555 1.555.852 0 1.555-.703 1.555-1.555 0-.592-.333-1.11-.814-1.369a12.4 12.4 0 0 1-1.74-1.629c.037-.111.074-.148.074-.223l2.11.186-.814-2.222-1.555 1.333c-.037 0-.074-.037-.074-.037l-.112-2.295-2.147.814 1.444 1.703a.28.28 0 0 0-.074.185zm14.291 3.814c.481.74.629 1.11.666 1.703-.37-.148-.815-.519-1.296-1.185l.259 2.888c.334-.519.63-.852 1.037-1.037-.111 1.851-.852 2.629-1.481 2.777-.777.148-1.37-.37-1.481-.963-.148-.814.556-1.333 1.296-.592.148-1.74-1.259-1.703-1.851-.963.703-1.666.444-2.776-1.037-3.665-.925 1.555-.518 2.592.63 3.776-1.148-.592-2.148.408-1.148 1.666.222-1.11 1.185-.851 1.407.037.185.778-.519 1.741-1.74 2.111-1.777.518-2.333-.593-2.777-1.555.37-.259 1.296-.148 2.295.481l-.851-2.814a2.85 2.85 0 0 1-1.703 1.703c-.037-.814.555-2.48.555-2.48l-3.406 1.37s1.555.74 2.11 1.37c-.703.259-1.407.37-2.406-.037l1.37 2.591c.259-1.148.851-1.851 1.296-1.962.37 1 .74 2.184-.889 3.036-1.148.592-2.332.407-2.74-.259-.444-.778.074-1.629.963-1-.148-1.629-1.555-1.592-1.962-.37 0-1.666-.408-2.666-2.185-3.147-.444 1.666.148 2.665 1.814 3.369-.962-.111-1.962.851-.666 1.999 0-1.036.889-1.185 1.37-.481.333.481.259 1.259-.407 1.703-.556.333-1.629.333-2.999-.963.407-.148.851-.111 1.444.037l-1.814-2.221c.111.777.037 1.37-.112 1.74-.407-.444-.518-.814-.703-1.703l-1.37 1.259c1.296.814 2.814 2.036 4.665 4.591 1.925-1.185 5.368-2.888 7.516-3.74 2.147-.888 5.775-2.11 7.997-2.591-.445-3.11-.26-5.035.148-6.516zM195.8 123.297c0 2.925 2.406 5.332 5.331 5.332s5.295-2.407 5.295-5.332a5.294 5.294 0 0 0-5.295-5.294c-2.925-.037-5.331 2.37-5.331 5.294m1.37 0a3.98 3.98 0 0 1 3.961-3.793 3.98 3.98 0 0 1 3.962 3.793 3.966 3.966 0 0 1-3.962 3.962c-2.184-.037-3.961-1.777-3.961-3.962m-21.214 4.887a3.1 3.1 0 0 0-1.333 1.963c-.185.925.111 1.888.814 2.665a4.6 4.6 0 0 0 2.666 1.444c1.074.185 2.147.037 2.999-.407.926-.481 1.518-1.259 1.703-2.221.333-1.852-1.222-3.703-3.48-4.11-1.222-.222-2.444.037-3.369.666m2.406 4.739c-1.518-.259-2.591-1.407-2.406-2.517a1.96 1.96 0 0 1 .74-1.111c.63-.444 1.481-.592 2.37-.444 1.37.259 2.406 1.259 2.406 2.258 0 .074 0 .185-.037.259-.148 1.148-1.555 1.815-3.073 1.555m-31.691-79.339c-1.666 1.295-2.148 3.443-1.074 4.812s3.258 1.444 4.924.149c.889-.704 1.481-1.703 1.629-2.703a2.82 2.82 0 0 0-.555-2.11 2.96 2.96 0 0 0-1.888-1.037c-1.037-.148-2.111.185-3.036.889m-.296 3.109c0-.666.407-1.48 1.11-2.036.63-.481 1.37-.703 2.037-.629.296.037.703.148.999.518s.296.815.259 1.111c-.074.629-.481 1.333-1.11 1.777-1.037.814-2.407.851-2.999.074a1.1 1.1 0 0 1-.296-.815m23.361 62.643c-.815.777-1.296 1.925-1.296 3.184v.111c0 1.222.407 2.332 1.185 3.147.552.603 1.33.952 2.147.963.778.037 1.555-.297 2.185-.889.814-.777 1.295-1.925 1.295-3.184.037-1.074-.296-2.11-.888-2.888a3.12 3.12 0 0 0-2.444-1.333 3.05 3.05 0 0 0-2.184.889m2.036 6.072c-.555 0-.962-.296-1.185-.556-.518-.518-.814-1.369-.814-2.258s.333-1.703.889-2.221c.259-.26.666-.519 1.221-.519 1.111.037 2.037 1.296 2 2.814-.038.889-.334 1.703-.889 2.221-.259.223-.666.519-1.222.519M143.709 76.39c-.815.296-1.444.851-1.777 1.555-.815 1.703.185 3.887 2.258 4.887 1.148.555 2.407.629 3.443.259.815-.296 1.444-.815 1.777-1.555.334-.704.371-1.555.075-2.37-.371-1.073-1.222-1.962-2.37-2.517-1.111-.519-2.369-.63-3.406-.259m1.074 5.183c-1.37-.667-2.111-2.036-1.629-3.073.222-.481.666-.741.999-.852.704-.259 1.592-.185 2.37.222.814.371 1.407 1.037 1.666 1.741.111.333.222.814-.037 1.332a1.8 1.8 0 0 1-1 .852c-.703.259-1.592.185-2.369-.222" style="fill:#fff;fill-rule:nonzero"/>
  <path d="M199.576 70.91c1.74 4.739 5.184 6.442 7.812 5.257-5.849-.666-1.111-10.736-8.663-10.736-.407 0-.852.037-1.222.111-1.259-1.37-2.74-1.925-4.924-1.925-3.184 0-8.7 3.073-8.7 9.478 0 13.698 15.919 14.92 15.919 27.063 0 3.554-2.665 5.739-5.664 5.739-2.666 0-4.85-2.999-7.071-7.701-1.074-2.258-3.369-5.331-5.85-8.515.74.518 1.555.814 2.369.814a3.02 3.02 0 0 0 2.222-.814c.592-.519.925-1.296.925-2.148v-.111c0-1.073-.481-2.184-1.295-3.073-.852-.925-2-1.443-3.11-1.48-.852 0-1.629.259-2.222.814-.592.518-.925 1.296-.925 2.147v.111c0 .482.074.926.259 1.407-3.406-4.479-6.627-8.885-6.627-11.292 0-2.147 1.481-3.998 3.295-6.256l.629.333.482-.519c.629-.703 1.962-2.147 4.701-5.109l.149-.185.666-.703-1.703-1.37a21 21 0 0 0 1.148-3.369c.518 2.221 1.666 3.628 3.221 3.184-1.037-2.296 1.073-5.332-.334-10.922 1.296 2.147 3.184 3.295 4.517 2.888-3.517-3.147 1.037-7.516-3.554-14.254 1.518.518 2.518.222 3.147-.518-4.184-.593-2.295-5.961-9.626-7.849 1.851-.333 2.888-1.407 2.629-2.37-1.926 1.407-3.629-2.591-10.034-2.517-.407-2.407-2.591-4.887-5.109-6.109.482 1.851.037 3.517-.444 4.887l-20.77-20.399c-.592-.556-.962-.704-1.11-.482-.186.222-.149.593.222 1l17.845 22.362c-1.333.444-2.666 1.036-4.036 1.518a2.41 2.41 0 0 0-1.555 2.295c-3.295 1.666-6.22 3.665-7.663 4.998-1.111 1-1.963 1.222-1 3.48.37.852-.778 2.962 1.814 1.407 1.703-1 5.553-3.11 6.109-1.814.296.703-1.592 1.592-2.925 2.11-1.296.519-2.703 1.518-2.518 2 .186.481 1.222-.038 1.296.481.074.592.482 1.11 1 1.11s1.185-1.11 1.592-.74-.222 2.814-.63 3.406c2.037-.259 3.332-2.184 3.37-3.665.037-1.518.481-1.851.777-2.073.296-.223.666 1.592.259 2.702 1.074-.222 2.185-1.629 2.036-4.22.556-.408 1.074-.741 1.518-.741.667 0 2.037 1.851 3.962 1.851 3.517 0 5.479-2.85 5.701-4.183.185-1.074.074-2.148-.481-2.925 1.259 1 1.666 2.592 1.666 3.813 0 4.998-8.848 7.368-12.477 10.811-.148.111-.259.259-.407.37l-4.146-1.592-.297.926c0 .037-.074.222-.222.777-.444 1.407-1.333 4.369-1.888 6.072l-.222.703.37.223c-2.443 3.258-4.443 6.923-4.887 10.699-.999-1.036-1.925-1.851-3.036-2.74.111-.37.185-.74.222-1.147.074-1.111-.259-2.185-.962-2.925a2.706 2.706 0 0 0-3.925-.222c-.148.111-.259.259-.37.37l-.444-.333c-1.37-1.037-3.073-2.296-4.11-3.443-.444-.482-.888-.741-1.814-.741-.333 0-1.221-.037-1.851-.037s-.962.482-1.666 1.111a105 105 0 0 1-3.036 2.369c.63.63 1.259 1.259 1.851 1.926.185.185.334.37.519.592.592-.444 1.036-.815 1.37-1.037.444-.37.999-.444 1.554-.444.519 0 1.259.407 1.815 1.185.37.555 3.739 4.961 6.516 8.034-.297.111-.63.222-.889.333-1.185.518-3.887.407-5.072.296s-1.407-.407-2.258.889a14 14 0 0 1-1.111 1.555c-.407.481-.704 1.036.148 2.48 1.222 2.073 4.258 7.516 5.294 9.996 1 2.444 2.185 2.851 4.147 3.666 1.962.777 5.257 2.702 5.627 3.109l.111-1.888c-.555-.592-2.406-1.259-3.11-1.518s-.888-.555-.037-.555c.815 0 3.147.814 4.813 1.481-.481-1.851-2.258-3.887-3.295-4.998-1.407-.407-2.813-.407-3.406.037.074.37-.222.888-.814.888-.556 0-.926-.444-.741-.962.185-.556 1-.741.815-1.814-.185-1.037-1.481-1.222-2.333-1.333-1.184-1.703-2.554-4.221-3.147-5.257-.629-1-.259-1.592.185-1.926 1-.851 3.11.445 7.331.704 1.481.074 3.332.185 5.22.259.556 4.887 2.518 9.552 9.367 11.255 3.332.814 6.775 3.258 7.96 6.479-13.625-.259-15.772 5.072-15.772 10.07 0 5.702 4.813 5.368 4.813 9.663 0 3.739-11.477 5.257-14.92 5.776-2.962.444-4.628 1.073-6.035 2.48s-2.851 2.777-5.405 5.331c0 0 1.074.26 2.184.186l1.962-2.518c.556-.852.963-1.555 1.333-1.481.371.074.111.704-.333 1.592l-1.592 2.666c6.738.444 7.183-2.037 7.183-3.073s-1.667-1.703-.704-2.37c.963-.629 1.777-.185 2.555.704.777.888 1.036 1.666 2.887.962 0 0 14.661-6.071 16.513-6.923 1.666-.74 1.184-1.481.185-2.295-1.111-.889-1.296-2.37-1.296-3.888 0-4.442 2.666-5.812 7.441-5.701-.074.74-.148 1.481-.148 2.147 0 6.923 10.478 13.699 13.292 13.699 1.258 0 2.961-.926 3.072 3.221.075 3.072.704 5.22.149 8.774-.556 3.554-1.555 4.072-3.703 5.59-2.11 1.518-4.146 6.183-5.035 7.183.963.629 1.962.703 2.74-1.592.666-1.888 1.407-3.221 2.221-3.702-.814 2.073-1.444 5.146-1.851 6.034 2.666.482 6.997-1.962 6.997-3.85s-1.518-1.74-1.518-2.999c0-.555.667-1.185 1.518-1.185 1.074 0 1.889.852 1.963 1.259 1.184-.629 1.925-1.814 1.888-4.554 0-1.073-.074-2.184-.111-3.332l.222.445c.518.777 1.37 1.258 2.406 1.369 1 .074 2.037-.185 2.925-.777 1.037-.704 1.777-1.74 1.999-2.814.037-.222.074-.444.074-.666a3.1 3.1 0 0 0-.481-1.629 3.15 3.15 0 0 0-1.962-1.296c-1.111-.222-2.333.037-3.369.703-.963.63-1.666 1.555-1.962 2.555-.223-3.776-.482-7.331-.371-8.737.148-2.111.223-3.073-.481-3.369-.703-.334-1.481.851-2.517.851-1.037 0-4.11-2.851-4.11-5.813 0-2.998 3.221-6.849 3.073-10.958-.074-1.259.74-1.925 1.259-.778.629 1.407 1.555 3.295 2.924 4.85-.851 5.146 4.813 10.181 9.478 6.442-2.295.333-3.887-1.703-4.924-3.739.408.074.815.111 1.259.111.222 0 .481 0 .703-.037 1.629 2.036 6.85 1.851 8.183-3.184-.926 1.074-2.777 1.851-4.147 1.666 1.962-1.518 2.962-3.998 2.962-6.664 0-13.069-15.846-14.587-15.846-26.508 0-4.406 3.887-7.257 6.553-7.257 1.037 0 1.814.333 2.444.778-1.037 1.036-1.555 2.628-1.481 4.553.407 9.404 15.771 8.923 15.956 13.44 1.852-6.701-9.588-4.591-9.996-13.773M158.74 34.887c.741-1.407 0-3.591 2.592-3.591 1.296 0 2.406 1.259 3.961 1.777-2.517.222-4.776.777-6.553 1.814m-14.031 28.804c-.037.74-.371 1.444-.815 1.888a1.55 1.55 0 0 1-1 .407c-.888-.074-1.592-1.073-1.592-2.258v-.185c.038-.778.334-1.444.815-1.851.222-.186.555-.408 1.037-.408.444.037.777.296.962.519.444.407.667 1.147.593 1.888m45.315 65.974c.149-.74.667-1.481 1.407-1.962.741-.481 1.592-.666 2.333-.518.333.074.814.259 1.11.703.297.445.26.963.223 1.296-.149.74-.667 1.444-1.407 1.962-1.296.852-2.851.741-3.443-.185a1.7 1.7 0 0 1-.223-1.296m-9.514-43.798a1.61 1.61 0 0 1 1.777-1.592c.74 0 1.555.408 2.147 1.037s.963 1.481.926 2.221c0 .334-.111.852-.519 1.222-.349.3-.798.458-1.259.444-.74 0-1.554-.407-2.147-1.073-.592-.667-.962-1.518-.925-2.259m-26.213-29.544.037-.111c.741-2.295 2.148-6.812 2.148-6.886l.037-.148 2.962 1.148-.408.148c-.555.222-1.258.74-2.073 1.444.518.148 1.296.111 1.777-.223l.445-.296-1.259 3.221-.185-.296c-.186-.333-.741-1.074-1.296-1.296-.074.222-.074.444-.074.63 0 1.184.814 1.74 1.629 2.147 1.444.74 2.295.814 2.628.259.074-.111.074-.259.074-.37a.87.87 0 0 0-.259-.63c-.259-.296-.74-.518-1.37-.222l-.185.074-.037-.222c-.074-.851.185-1.37.445-1.629.289-.33.708-.52 1.147-.518.482 0 .926.296 1.222.777.185-1.777 1.185-3.073 2.851-3.591l.148-.037.074.148c.222.593.296 1.111.296 1.629 0 1.037-.444 1.962-1.296 2.925.704-.111 1.333.037 1.666.518.259.371.334.815.222 1.222-.074.37-.37.852-1.11 1.259l-.185.111-.037-.222c-.111-.556-.445-.926-.963-1-.407-.037-.814.111-.963.444-.37.704.149 1.444 1.518 2.185 1.666.925 2.703.111 3.332-.778a2.85 2.85 0 0 0-1.888.482l-.518.333 2.11-3.962.074.445c.037.222.222.925.778 1.518.111-.334.259-.852.259-1.444 0-.371-.074-.741-.222-1.148l-.222-.444 4.331 2.517-.518.037c-.777.074-1.481.519-2.184 1.296.814.185 1.481 0 1.703-.074l.444-.148-2.369 3.813.037-.592v-.111c0-.778-.223-1.407-.519-1.777-.185.37-.333.814-.333 1.259 0 .703.333 1.406 1.333 1.999q2 1.221 2.665.222c.186-.296.149-.741-.111-1.074-.296-.407-.814-.518-1.332-.333l-.223.074v-.222c-.037-.852.26-1.333.519-1.592.296-.296.74-.444 1.185-.444.629.037 1.036.592 1.258 1.184.593-1.851 1.592-2.776 3.406-3.109l.148-.037.038.148c.074.333.111.666.111.962 0 1.296-.63 2.444-1.815 3.295.556 0 1.037.259 1.296.667q.222.389.222.777c0 .148-.037.296-.074.444-.111.371-.407.852-1.184 1.185l-.223.074v-.111c-.074-.666-.518-1-.925-1.074s-.778.074-.963.371c-.296.592.185 1.258 1.555 2.147.889.592 1.962 1.074 3.184-.037-.444-.37-1.37-.518-1.777-.518h-.333l2.147-2.703-.037.518v.074c0 .593.333 1.222.704 1.555.148-.74.259-1.407.259-1.925 0-.222 0-.407-.037-.555l-.074-.407 2.48 1.999-.111.111c-.037.037-3.295 3.517-4.887 5.294l-.074.111zm21.659 54.165c-.889 1.221-2.37 1.666-3.332.999-.963-.666-1.037-2.221-.185-3.48.851-1.222 2.332-1.666 3.332-1 .999.704 1.073 2.259.185 3.481m6.294-9.886c-.889 1.222-2.37 1.666-3.332.963-.963-.703-1.037-2.221-.185-3.443.888-1.222 2.369-1.666 3.332-.963.962.667 1.036 2.222.185 3.443m-74.083 42.021c-.37 0-.74.037-1.074.148v-6.256c-2.813-.112-6.145-.667-9.44-1.518v7.811a4 4 0 0 0-1.148-.185c-2.258 0-3.665 1.888-3.665 3.666 0 1.666.962 3.184 1.814 4.146.407-1 .814-1.814 1.37-1.814 1.11 0 .629 5.59 3.887 5.739-.111.259-.148.592-.148.888 0 1.407 1.148 2.592 2.554 2.592 1.407 0 2.555-1.148 2.555-2.592 0-.333-.074-.629-.185-.888 3.295-.149 2.74-5.739 3.85-5.739.556 0 .926.777 1.407 1.814.852-.962 1.814-2.48 1.814-4.146l.002-.112a3.57 3.57 0 0 0-3.554-3.554zm-5.85 14.069a1.45 1.45 0 0 1-1.443-1.446c0-.793.652-1.446 1.445-1.446h.002a1.453 1.453 0 0 1 1.444 1.446c0 .793-.653 1.446-1.446 1.446zm7.701-8.108c-.407-.74-.962-1.148-1.444-1.148-2.221 0-1.332 5.813-3.961 5.813-1.148 0-1.777-.741-1.777-1.555 0-.815.555-1.074.555-1.703 0-.667-.518-.889-1.074-.889-.555 0-1.073.259-1.073.889 0 .666.592.888.592 1.703 0 .814-.629 1.555-1.777 1.555-2.629 0-1.74-5.813-3.961-5.813-.482 0-1.074.408-1.444 1.148-.444-.815-.704-1.666-.704-2.295 0-1.074.815-2.555 2.518-2.555 2.962 0 2.258 3.998 3.665 3.998.63 0 1.074-.37 1.074-.962 0-1.148-2.036-2.222-2.036-3.851s1.48-2.998 3.146-4.331c1.629 1.296 3.147 2.702 3.147 4.331s-2.036 2.703-2.036 3.851c0 .629.444.962 1.074.962 1.407 0 .703-3.998 3.665-3.998 1.74 0 2.555 1.481 2.555 2.555-.037.629-.297 1.443-.704 2.295M89.619 28.26c-1 1.888-1.851 2.999-1.703 4.443.111 1.481 1.666 2.48 2.406 3.961.667-1.703 1.74-2.999 1.629-4.332-.185-1.332-1.999-3.072-2.332-4.072m25.36 0c1 1.888 1.851 2.999 1.703 4.443-.148 1.481-1.666 2.48-2.406 3.961-.667-1.703-1.74-2.999-1.629-4.332.148-1.332 1.999-3.072 2.332-4.072m-39.947-1.074c.962 0 1.703-.777 1.703-1.703a1.7 1.7 0 0 0-1.703-1.703c-.963 0-1.703.778-1.703 1.703-.037.926.74 1.703 1.703 1.703m1.11 2.444c0-.963-.777-1.703-1.703-1.703-.962 0-1.703.777-1.703 1.703a1.7 1.7 0 0 0 1.703 1.703c.963 0 1.703-.778 1.703-1.703m.852 4.146a1.7 1.7 0 0 0-1.703-1.703c-.926 0-1.703.778-1.703 1.703 0 .926.777 1.703 1.703 1.703.925 0 1.703-.74 1.703-1.703m7.516-14.772c.962 0 1.703-.777 1.703-1.703 0-.925-.778-1.703-1.703-1.703a1.7 1.7 0 0 0-1.704 1.703c0 .963.741 1.703 1.704 1.703m-4.258 1.333c.963 0 1.703-.777 1.703-1.703 0-.963-.778-1.703-1.703-1.703-.963 0-1.703.777-1.703 1.703-.037.926.74 1.703 1.703 1.703m-3.369 2.925a1.7 1.7 0 0 0 1.703-1.703c0-.963-.778-1.703-1.703-1.703-.963 0-1.703.777-1.703 1.703 0 .925.777 1.703 1.703 1.703m12.106-3.85c.963 0 1.703-.778 1.703-1.704s-.777-1.703-1.703-1.703a1.7 1.7 0 0 0-1.703 1.703c-.037.926.741 1.704 1.703 1.704m4.221 1.221c.962 0 1.703-.777 1.703-1.703 0-.925-.778-1.703-1.703-1.703-.963 0-1.703.778-1.703 1.703 0 .963.777 1.703 1.703 1.703m3.998 1.888c.963 0 1.703-.777 1.703-1.703 0-.962-.777-1.703-1.703-1.703a1.7 1.7 0 0 0-1.703 1.703c0 .926.778 1.703 1.703 1.703m30.581 2.925c0 .963.778 1.703 1.703 1.703.963 0 1.703-.777 1.703-1.703 0-.962-.777-1.703-1.703-1.703-.925 0-1.703.778-1.703 1.703m2.296 2.481c-.963 0-1.703.777-1.703 1.703a1.73 1.73 0 0 0 1.721 1.721 1.73 1.73 0 0 0 1.722-1.721c0-.926-.815-1.703-1.74-1.703m-.852 4.146c-.963 0-1.703.778-1.703 1.703 0 .926.777 1.703 1.703 1.703.963 0 1.703-.777 1.703-1.703.037-.962-.74-1.703-1.703-1.703m-9.219-13.069c.963 0 1.74-.777 1.74-1.703 0-.925-.777-1.703-1.74-1.703-.925 0-1.703.778-1.703 1.703 0 .963.778 1.703 1.703 1.703m4.258 1.333c.926 0 1.703-.777 1.703-1.703 0-.963-.777-1.703-1.703-1.703-.963 0-1.703.777-1.703 1.703s.777 1.703 1.703 1.703m3.369 2.925c.963 0 1.703-.778 1.703-1.703 0-.963-.777-1.703-1.703-1.703-.925 0-1.703.777-1.703 1.703-.037.925.74 1.703 1.703 1.703m-12.106-3.85a1.7 1.7 0 0 0 1.703-1.704 1.7 1.7 0 0 0-1.703-1.703c-.926 0-1.703.778-1.703 1.703 0 .926.777 1.704 1.703 1.704m-4.221 1.221c.963 0 1.703-.777 1.703-1.703 0-.925-.777-1.703-1.703-1.703s-1.703.778-1.703 1.703c-.037.963.74 1.703 1.703 1.703m-5.738.185c0 .963.777 1.703 1.703 1.703.962 0 1.703-.777 1.703-1.703a1.7 1.7 0 0 0-1.703-1.703c-.926-.037-1.703.741-1.703 1.703m-6.22 9.256h1.925v-7.33c-.667-.112-1.333-.297-1.925-.593zm5.849-7.923c-.592.296-1.259.481-1.925.593v7.33h1.925zm-4.035-8.108V9.712c-2.148.444-3.814 2.184-4.221 4.331zm2.221 0h4.184a5.33 5.33 0 0 0-4.184-4.331zm-6.368 2.111c.519 2.406 2.703 4.22 5.257 4.22 2.592 0 4.702-1.814 5.258-4.22zm8.182-7.146c-1.221-.962-2.147-2.332-2.332-3.813 1.407.259 2.962 1.259 3.887 2.48V1.789c-.925 1.221-2.517 2.221-3.887 2.48.148-1.407 1.036-2.739 2.258-4.22H99.43c1.184 1.481 2.073 2.813 2.258 4.22-1.407-.222-2.962-1.259-3.887-2.48v5.886c.925-1.221 2.48-2.221 3.887-2.48-.185 1.444-1.111 2.851-2.332 3.813zM78.109 97.465c-.296 1.74-2.37 3.777-5.739 3.814.074-.37-.037-.889-.333-.963-.889 1-2.073 1.962-5.109.889.481 2.406 1.11 4.739 1.962 6.998 1.814 4.887 4.443 9.256 7.738 12.996a38 38 0 0 0 3.443 3.442c-.037.223-.037.482-.037.704 0 1.259 1.222 3.258 2.963 4.11 1.444.703 2.998.519 4.405-.481 2.629 1.407 5.961 2.703 9.553 3.702 4.036 1.111 7.923 1.74 10.996 1.74 2.629 0 6.11-1.222 9.516-3.406 1.37-.852 2.666-1.814 3.591-2.703l.37-.37c-2.591.333-6.59-.407-9.922-1.222-5.406-1.369-11.811-3.665-17.809-6.368v-.074c.148-1.222-.297-2.555-1.223-3.628-.925-1.074-2.184-1.667-3.406-1.667-.555 0-1.11.111-1.628.333a27 27 0 0 1-2.481-2.554c-2.259-2.666-4.036-5.739-5.295-9.182a33.6 33.6 0 0 1-1.555-6.11m-.364 8.013.548 1.434-3.524 4.618 4.615-1.765.507 1.327-7.076 2.706-.532-1.39 3.619-4.703-4.726 1.807-.508-1.328 3.281-1.255zm2.722 6.587.678 1.372-6.792 3.356-.678-1.371zm14.785 12.207a2.307 2.307 0 0 1 2.296 2.295c.037 1.259-1 2.296-2.296 2.296a2.31 2.31 0 0 1-2.296-2.296 2.307 2.307 0 0 1 2.296-2.295m10.108 3.48c1.147 0 2.11.963 2.11 2.111 0 1.184-.926 2.11-2.111 2.11a2.134 2.134 0 0 1-2.11-2.11c0-1.148.963-2.111 2.11-2.111m16.809-60.562.841.796.77-1.094zm-27.81-10.423a1.85 1.85 0 0 0-1.407-.037c-.556.223-.926.519-1.111.926-.222.481-.185 1.074-.037 1.407.148.37.74 1.629 2.407 1 .444-.186.814-.482 1.036-.926.111-.222.148-.481.148-.741a1.78 1.78 0 0 0-1.036-1.629" style="fill:#fff;fill-rule:nonzero"/>
  <path d="M97.844 31.671c1.703 1.074 3.147 2.851 3.517 4.518-1.296-.223-3.11-1.037-4.184-2.555.259 2.481.259 4.183 0 6.59.889-1.333 2.888-2.295 4.258-2.592-.334 3.925-3.925 4.592-5.998 4.592-2.148 0-4.036-.815-4.147-2.148-.148-1.296.667-1.74 1.259-1.777.667-.037 1.444.74 1.592 2.184.777-1.036 1.518-5.183-.74-5.331-1.704-.111-2.629 1.962-2.925 4.11-.556-1.815-2.111-4.147-3.851-3.666-2.184.593-.741 4.665.666 5.443-.333-.704-.259-2.333.778-2.407 1.073-.111 1.666.852 1.703 1.63.074 1.332-1.629 2.258-3.369 2.665-3.184.741-5.258-.925-6.073-2.036 1.444-.593 2.592-.333 3.999.37-.74-1.407-1.555-3.814-1.777-5.257-.37 1.592-1.481 2.813-2.74 3.702-.297-1.296-.222-3.555 1.074-5.517l-4.85 2.037c2.295 2.555 5.035 8.404 6.553 13.255-.925.851-1.444 1.888-1.444 3.184 0 2.258 1.444 3.591 2.888 4.517-2.666 1.74-5.109 3.888-7.331 6.331-3.332 3.74-5.924 8.072-7.738 12.922-.074.222-.185.481-.259.703.386.29.811.72 1.666 1.482 5.118 3.27 5.27 10.721 6.109 11.959q.1.124.184.238c.672-17.337 12.31-31.148 26.25-31.151 14.42 0 26.285 14.775 26.285 32.73 0 14.781-8.043 27.815-19.513 31.623q1.095.396 2.227.771c8.294 2.073 10.441 1.666 10.923 1.296a40.5 40.5 0 0 0 5.22-4.887c3.333-3.777 5.924-8.146 7.738-12.996 1.889-5.036 2.852-10.405 2.852-15.884-.075-1.074-.112-2.073-.186-3.073-.741-.556-1.666-1.407-2.258-2.629-2.045-3.607-.589-.816-3.259-6.442-.814-1.482-1.591-2.851-2.11-3.703l.666-4.702.556-.778q.333-.555.667-.888a40 40 0 0 0-4.777-6.591 36 36 0 0 0-7.331-6.331c1.444-.926 2.888-2.296 2.888-4.517 0-1.333-.555-2.37-1.481-3.222 1.518-4.85 4.221-10.662 6.516-13.217l-4.85-2.037c1.259 1.925 1.333 4.147 1.074 5.48-1.259-.889-2.333-2.073-2.703-3.665-.259 1.481-1.037 3.85-1.777 5.257 1.406-.667 2.517-.962 3.961-.37-.814 1.111-2.925 2.777-6.109 2.036-1.74-.407-3.443-1.333-3.369-2.665.037-.778.629-1.741 1.703-1.63 1.037.111 1.111 1.703.778 2.407 1.37-.778 2.814-4.85.666-5.443-1.703-.481-3.295 1.851-3.851 3.666-.333-2.148-1.221-4.258-2.924-4.11-2.222.148-1.518 4.294-.741 5.331.148-1.444.925-2.221 1.592-2.184.592.037 1.37.481 1.259 1.777-.148 1.333-1.999 2.148-4.147 2.148-2.036 0-5.665-.63-5.998-4.592 1.333.223 3.407 1.259 4.295 2.592-.259-2.406-.296-4.109 0-6.59-1.11 1.555-2.962 2.37-4.258 2.592.371-1.703 1.814-3.481 3.518-4.555zm4.48 15.958c6.553 0 19.475.408 19.475 4.962 0 1.259-.815 2.369-2.666 3.443-3.221-2.147-8.775-4.517-16.809-4.517s-13.588 2.37-16.81 4.517c-1.851-1.074-2.666-2.147-2.666-3.443 0-4.591 12.922-4.961 19.476-4.961m-14.509 8.566.667.911-1.595 1.166 3.273 4.474-1.087.796-3.273-4.474-1.598 1.168-.666-.91zm32.222 1.643 1.022.904-1.883 4.216 3.533-2.755 1.188 1.051-1.805 4.382 3.432-2.943 1.005.889-5.028 4.113-1.059-.938 1.875-4.74-3.842 2.999-1.084-.957zm-37.401 2.384 4.716 4.719-.956.956-4.978-1.177 3.075 3.078-.885.884-4.716-4.719.927-.927 5.081 1.222-3.149-3.152zm44.742 4.724 2.674 4.104-.858.672-1.945-2.987-1.123.881 1.811 2.779-.854.669-1.81-2.779-1.378 1.081 2.014 3.092-.853.67-2.743-4.21zm-49.926.37 5.308 4.044-.817 1.071-5.307-4.043zm-1.143 2.576q.555.01 1.139.392.514.336.742.753.228.415.24.837.012.415-.119.754-.183.457-.685 1.222l-.482.735 2.105 1.379-.738 1.127-5.581-3.656 1.185-1.809q.673-1.027.961-1.285a1.75 1.75 0 0 1 1.075-.444q.078-.007.158-.005m-.07 1.404a.93.93 0 0 0-.701.3q-.17.177-.569.786l-.356.544 1.583 1.038.404-.617q.437-.666.496-.949a.87.87 0 0 0-.044-.529.9.9 0 0 0-.35-.414.9.9 0 0 0-.463-.159m54.572 24.02 6.053 1.005-.371 2.234q-.126.755-.307 1.133a2.06 2.06 0 0 1-.709.82 2.7 2.7 0 0 1-1.079.414q-.61.103-1.461-.038-.748-.125-1.258-.4-.623-.337-.961-.826-.257-.37-.341-.94-.061-.425.052-1.102zm.817 1.391-.152.913q-.084.512-.065.748.025.31.17.533.144.228.529.419.388.192 1.09.309t1.098.055.644-.25.379-.518q.1-.246.224-.994l.092-.549zm-1.619 4.573 5.973 1.405-.597 2.538q-.225.958-.49 1.351a1.4 1.4 0 0 1-.734.563 1.76 1.76 0 0 1-1.002.039q-.672-.158-1.02-.656-.343-.498-.272-1.311-.32.337-.652.526-.334.192-1.132.46l-1.337.455.339-1.442 1.505-.566q.805-.301 1.026-.43a.9.9 0 0 0 .334-.304q.114-.175.211-.591l.058-.244-2.494-.587zm3.163 2.017-.21.892q-.203.868-.181 1.101a.67.67 0 0 0 .173.398q.151.163.419.228a.73.73 0 0 0 .524-.049.75.75 0 0 0 .343-.397q.054-.143.227-.875l.221-.942zm-5.151 4.051 5.885 1.735-.351 1.189-5.885-1.736zm-.673 2.142 5.471 2.778-.545 1.075-4.791.384 3.654 1.855-.521 1.027-5.472-2.778.563-1.109 4.688-.394-3.568-1.811zm-2.744 5.239 4.958 3.615-.73 1.001-2.202-1.605.727 3.628-.981 1.346-.57-3.275-4.462-.238.944-1.296 3.321.334-.237-1.416-1.498-1.093zm-56.048 16.355c-13.366 0-32.989 24.103-47.207 19.956 5.628 2.481 9.627 8.183 14.144 8.183 11.515 0 24.881-17.328 37.395-17.328.185 0 .334 0 .556.037-2.925 3.629-6.998 4.369-6.998 8.035 0 2.555 2.221 4.109 3.739 7.516.963 2.147 1.148 3.665 1.963 6.702.703 2.665 2.592 9.478 30.212 9.478s29.473-6.813 30.213-9.478c.815-3.037 1-4.555 1.962-6.702 1.518-3.444 3.74-4.962 3.74-7.516 0-3.666-4.072-4.406-6.998-8.035.186 0 .37-.037.556-.037 12.477.037 25.806 17.328 37.358 17.328 4.517 0 8.516-5.702 14.144-8.183-14.218 4.147-33.841-19.956-47.207-19.956-3.74 0-8.109 1.407-10.219 6.59-2.259 5.48-4.777 7.294-4.777 9.738 0 2.11 1.926 3.74 5.147 5.48 2.111 1.111 4.258 1.703 4.147 3.702-6.109 2.777-16.143 4.703-28.102 4.703-11.922 0-21.994-1.926-28.103-4.703-.111-1.999 2.073-2.591 4.147-3.702 3.258-1.703 5.183-3.333 5.183-5.48 0-2.444-2.517-4.221-4.776-9.738-2.147-5.146-6.479-6.59-10.219-6.59m70.677.732 1.248.743-.687 1.155-1.248-.743zm-68.99.894a2.1 2.1 0 0 1 .712.116q.94.317 1.689 1.667l-2.911 1.687q.312.509.748.643.434.13.835-.103a.82.82 0 0 0 .373-.414q.1-.257.004-.643l1.27-.476q.145.766-.144 1.381-.288.61-1.012 1.028-1.145.663-2.129.233-.781-.347-1.311-1.262-.632-1.091-.419-2.038.212-.95 1.084-1.456.613-.355 1.211-.363m67.923.9 1.247.743-2.806 4.717-1.248-.743zm-67.989.186a.9.9 0 0 0-.559.125.93.93 0 0 0-.469.641q-.087.42.193.894l1.737-1.006q-.306-.498-.704-.614a1 1 0 0 0-.198-.04m70.507 1.313 1.159.69-.413.693q1.094-.432 2.03.125.413.246.666.6.255.35.291.685c.026.225.003.454-.068.669q-.103.335-.429.881l-1.744 2.932-1.248-.743 1.433-2.407q.454-.764.506-1.034a.8.8 0 0 0-.053-.506.85.85 0 0 0-.357-.381 1.16 1.16 0 0 0-.688-.168 1.05 1.05 0 0 0-.635.259q-.267.237-.738 1.028l-1.271 2.136-1.248-.742zm-75.083.252a1 1 0 0 1 .157 0q.608.04 1.107.519l-.979.838a.78.78 0 0 0-.497-.238q-.273-.023-.637.188-.459.266-.583.509a.32.32 0 0 0 .004.312q.072.123.238.143.224.025 1.272-.3 1.054-.328 1.599-.236.543.1.864.654.35.604.097 1.33-.253.728-1.242 1.299-.897.52-1.633.46a1.94 1.94 0 0 1-1.255-.592l1.063-.854q.271.296.602.342.327.042.737-.195.451-.261.583-.558a.43.43 0 0 0-.027-.399.35.35 0 0 0-.21-.172q-.135-.031-.477.072-1.586.505-2.111.466a1.3 1.3 0 0 1-1.093-.686q-.331-.572-.105-1.221.225-.65 1.172-1.198.79-.457 1.354-.484m-4.882 2.866c.256-.01.511.021.757.09q1.011.275 1.583 1.265.578.996.313 2.027-.262 1.024-1.238 1.59c-.401.233-.85.368-1.312.395a2.16 2.16 0 0 1-1.293-.317q-.593-.364-1.031-1.12a2.74 2.74 0 0 1-.364-1.286 2.26 2.26 0 0 1 .328-1.294q.36-.59 1.005-.963.623-.362 1.252-.387m-5.347.659.623 1.075-1.162.673-.623-1.075zm91.539.137q.613.013 1.2.361 1.052.627 1.245 1.686.196 1.055-.683 2.473l-3.127-1.859q-.317.563-.213 1.046.105.477.537.734a.9.9 0 0 0 .588.133q.294-.04.608-.335l1.12.949q-.647.54-1.38.591-.727.05-1.504-.413-1.231-.732-1.343-1.887-.084-.922.501-1.904.697-1.172 1.704-1.469c.242-.074.494-.109.747-.106m-86.303.375a1.1 1.1 0 0 0-.589.161 1.14 1.14 0 0 0-.564.79q-.11.528.269 1.181t.89.821q.513.166.967-.096.455-.264.559-.788.11-.528-.274-1.189-.373-.645-.885-.813a1.3 1.3 0 0 0-.373-.067m86.377.837a1 1 0 0 0-.22.045q-.444.14-.743.653l1.866 1.11q.308-.55.209-.988a1 1 0 0 0-.479-.67 1 1 0 0 0-.633-.15m-90.646.323 2.544 4.391-1.162.674-2.544-4.393zm-3.661.049.899 1.55.794-.459.536.926-.794.46 1.025 1.77q.312.537.385.616a.3.3 0 0 0 .187.085.4.4 0 0 0 .232-.057q.162-.094.403-.382l.622.844a2.7 2.7 0 0 1-.818.705 1.7 1.7 0 0 1-.626.225 1 1 0 0 1-.531-.057 1.3 1.3 0 0 1-.424-.362q-.155-.181-.512-.797l-1.109-1.915-.533.309-.537-.926.534-.309-.506-.873zm98.593.803 1.164.692-.413.693a2.03 2.03 0 0 1 1.946.076q.822.488 1.011 1.473.19.985-.494 2.135-.704 1.182-1.671 1.495-.966.31-1.788-.179a1.86 1.86 0 0 1-.618-.578q-.222-.344-.349-.93l-1.414 2.376-1.248-.742zm-101.073.473.623 1.075-1.162.673-.623-1.075zm25.17.31c3.148.555 7.368 1.999 7.368 4.813 0 3.258-10.552 4.591-9.626 9.034-3.332-1.741-5.221-3.74-5.221-5.85 0-3.406 5.369-5.369 7.479-7.997m53.946 0c2.073 2.628 7.443 4.591 7.443 7.997 0 2.11-1.889 4.109-5.221 5.85.926-4.406-9.59-5.776-9.59-9.035 0-2.813 4.221-4.294 7.368-4.813m23.136 1.298a1.2 1.2 0 0 0-.377.069q-.51.171-.923.864-.473.795-.385 1.364.09.565.544.835.435.26.93.084.498-.178.97-.974.442-.741.358-1.278t-.523-.799a1.1 1.1 0 0 0-.594-.165m-101.284.063 2.543 4.392-1.161.674-2.544-4.393zm106.312.281 1.686.017-.991 1.665.852.508-.591.995-.853-.508-1.131 1.901q-.344.577-.38.688a.34.34 0 0 0 .019.222q.051.115.176.189.174.103.573.179l-.469 1.031a2.9 2.9 0 0 1-1.097-.4 1.8 1.8 0 0 1-.542-.473 1.1 1.1 0 0 1-.226-.531q-.015-.256.118-.591.09-.242.483-.904l1.223-2.056-.572-.341.591-.995.573.341zm-112.503 1.074 1.265 2.183q.183-.923.919-1.349.803-.465 1.665-.186.861.274 1.491 1.362.65 1.125.466 2.044-.182.918-.947 1.361a1.9 1.9 0 0 1-.852.245 2.1 2.1 0 0 1-.952-.195l.373.646-1.079.624-3.511-6.062zm114.89 1.615 1.248.743-1.29 2.167q-.591.995-.659 1.261a.8.8 0 0 0 .041.506.9.9 0 0 0 .385.404q.32.19.676.167.36-.027.606-.229.249-.206.851-1.219l1.184-1.99 1.248.743-2.806 4.717-1.159-.69.42-.707c-.323.15-.679.216-1.034.192a2.2 2.2 0 0 1-1.013-.309 2 2 0 0 1-.729-.716 1.43 1.43 0 0 1-.197-.911q.056-.478.452-1.144zM47.8 144.67a1 1 0 0 0-.437.14 1.01 1.01 0 0 0-.505.73q-.09.483.293 1.144.395.683.8.885.57.288 1.07-.001.384-.223.464-.706.081-.488-.328-1.196-.436-.753-.901-.925a1.1 1.1 0 0 0-.456-.071m-4.691 1.682q.447 0 .833.285.284.212.647.841l1.627 2.807-1.162.674-1.454-2.511q-.378-.653-.609-.774-.304-.155-.64.039a.9.9 0 0 0-.372.415.96.96 0 0 0-.057.618q.07.341.43.961l1.221 2.109-1.162.673-1.394-2.407q-.371-.64-.541-.791a.6.6 0 0 0-.355-.164.7.7 0 0 0-.404.112.935.935 0 0 0-.468 1.023q.067.325.434.958l1.235 2.134-1.162.673-2.543-4.392 1.07-.62.348.599q.17-1.032.964-1.491.422-.245.833-.251a1.54 1.54 0 0 1 .813.231q.085-.52.319-.887c.155-.243.366-.445.615-.588q.485-.28.934-.276m122.245 1.437 1.151.685-.383.644q1.064-.383 1.916.124.453.27.676.654.222.385.21.889a2.55 2.55 0 0 1 1.006-.165c.311.018.613.111.88.271q.52.31.752.737.236.422.17.936-.05.38-.452 1.054l-1.795 3.016-1.247-.743 1.603-2.696q.418-.702.411-.982-.015-.37-.374-.584a1 1 0 0 0-.588-.133 1.03 1.03 0 0 0-.614.272q-.285.246-.681.912l-1.347 2.265-1.249-.742 1.539-2.585q.41-.688.462-.928a.66.66 0 0 0-.032-.422q-.08-.18-.319-.322a1.01 1.01 0 0 0-1.213.096q-.272.236-.676.915l-1.364 2.292-1.248-.743zm-129.608 2.942q.334.015.572.162.32.19.758.948l.774 1.363q.334.579.549.825a3 3 0 0 0 .551.466l-1.149.665a5 5 0 0 1-.311-.279 3 3 0 0 0-.12-.112 2.4 2.4 0 0 1-.386.803c-.173.229-.39.421-.64.564q-.678.393-1.284.253a1.42 1.42 0 0 1-.927-.706 1.43 1.43 0 0 1-.206-.764q.007-.398.238-.734.231-.345.768-.81.727-.625.964-.94l-.067-.115q-.195-.335-.441-.38-.25-.049-.709.217-.31.18-.412.404-.104.221-.034.589l-1.165.421q-.19-.74.066-1.298.257-.557 1.113-1.053.777-.45 1.266-.485.122-.01.233-.004m.588 2.461q-.18.204-.604.588-.424.383-.516.569-.134.293.01.541a.66.66 0 0 0 .427.317.73.73 0 0 0 .565-.091q.315-.182.481-.554a.84.84 0 0 0 .054-.545q-.041-.176-.283-.593zm73.296 8.169h1.452v7.577h-1.349v-.807a2.2 2.2 0 0 1-.796.703q-.455.228-.92.228-.945 0-1.623-.76-.672-.765-.672-2.129 0-1.396.657-2.119.655-.729 1.659-.729.92 0 1.592.765zm-13.355 1.964q1.128 0 1.675.367t.754 1.085l-1.369.254a.85.85 0 0 0-.336-.492q-.243-.17-.698-.17-.573 0-.822.16a.35.35 0 0 0-.165.295q0 .155.145.263.196.145 1.354.409 1.163.263 1.623.646.454.387.454 1.08 0 .754-.63 1.297t-1.866.542q-1.12 0-1.778-.454a2.1 2.1 0 0 1-.852-1.235l1.457-.223q.093.424.377.646.285.217.796.217.563 0 .848-.206a.46.46 0 0 0 .191-.388.38.38 0 0 0-.103-.274q-.108-.103-.486-.191-1.758-.387-2.228-.708a1.41 1.41 0 0 1-.651-1.235q0-.714.564-1.199.563-.486 1.746-.486m5.98 0q1.224 0 1.933.811.708.807.677 2.476h-3.639q.016.647.352 1.008.336.356.837.356a.9.9 0 0 0 .574-.186q.233-.186.351-.599l1.447.243q-.279.795-.884 1.214-.599.414-1.503.413-1.432 0-2.119-.935-.543-.749-.543-1.891 0-1.365.713-2.135.714-.775 1.804-.775m.088 1.111a1.01 1.01 0 0 0-.786.346q-.31.347-.305.941h2.171q-.016-.63-.326-.956a1 1 0 0 0-.754-.331m6.077 0q-.517 0-.868.413-.346.409-.346 1.225 0 .879.243 1.272.351.567.981.568.502 0 .853-.424.352-.429.352-1.276 0-.946-.341-1.359a1.08 1.08 0 0 0-.874-.419" style="fill:#fff;fill-rule:nonzero"/>
  <path d="M117.863 75.962a44 44 0 0 0-.3-2.443 16 16 0 0 0-.364-1.778l-.231-.809H88.79l-.231.809c-.135.473-.252 1.065-.364 1.778-.332 2.128-.589 5.313-.59 8.539 0 .966.024 1.935.076 2.88.201 3.565 1.372 6.745 2.442 9.576.536 1.417 1.05 2.747 1.421 3.981.373 1.236.599 2.37.598 3.394V113.6a5.85 5.85 0 0 0 1.715 4.143 5.85 5.85 0 0 0 4.144 1.716h9.756a5.85 5.85 0 0 0 4.143-1.716 5.85 5.85 0 0 0 1.716-4.143v-11.711c-.001-1.024.225-2.158.598-3.394.555-1.854 1.436-3.915 2.226-6.17.789-2.256 1.488-4.714 1.637-7.387.051-.944.075-1.913.075-2.88 0-2.15-.115-4.284-.289-6.096m-2.014 8.853c-.173 3.142-1.232 6.097-2.301 8.909-.532 1.407-1.063 2.776-1.471 4.128-.406 1.352-.692 2.69-.692 4.037V113.6a3.6 3.6 0 0 1-1.063 2.565 3.62 3.62 0 0 1-2.565 1.063h-9.756a3.62 3.62 0 0 1-2.566-1.063 3.6 3.6 0 0 1-1.062-2.565v-11.711c-.002-1.347-.287-2.685-.692-4.037-.612-2.026-1.501-4.098-2.257-6.263-.759-2.167-1.385-4.417-1.515-6.774a50 50 0 0 1-.073-2.757c0-2.07.112-4.143.28-5.883.083-.869.181-1.656.283-2.311q.055-.351.121-.7h24.718q.06.318.12.7c.309 1.972.564 5.092.563 8.194 0 .93-.022 1.86-.072 2.757" style="fill:#fff;fill-rule:nonzero"/>
  <path d="M92.2 76.229c-.019 1.161-.129 7.286-.064 8.462.167 2.994 1.256 5.863 2.309 8.638 1.11 2.925 2.159 5.687 2.159 8.56V113.6c0 .771.626 1.397 1.397 1.397h9.756c.77 0 1.397-.626 1.397-1.397v-11.711c0-2.873 1.048-5.635 2.158-8.56 1.054-2.775 2.142-5.644 2.308-8.639.066-1.175.208-7.301.191-8.461-19.698-.016-12.539 0-21.611 0" style="fill:#fff;fill-rule:nonzero"/>
</svg>
