<?xml version="1.0" encoding="UTF-8" standalone="no"?>
<!-- Created with Inkscape (http://www.inkscape.org/) -->

<svg
   version="1.1"
   id="svg71"
   width="853.33331"
   height="321.06668"
   viewBox="0 0 853.33331 321.06668"
   sodipodi:docname="bg.svg"
   inkscape:version="1.1.2 (0a00cf5339, 2022-02-04)"
   xmlns:inkscape="http://www.inkscape.org/namespaces/inkscape"
   xmlns:sodipodi="http://sodipodi.sourceforge.net/DTD/sodipodi-0.dtd"
   xmlns="http://www.w3.org/2000/svg"
   xmlns:svg="http://www.w3.org/2000/svg">
  <defs
     id="defs75" />
  <sodipodi:namedview
     id="namedview73"
     pagecolor="#ffffff"
     bordercolor="#666666"
     borderopacity="1.0"
     inkscape:pageshadow="2"
     inkscape:pageopacity="0.0"
     inkscape:pagecheckerboard="0"
     showgrid="false"
     inkscape:zoom="0.97199563"
     inkscape:cx="411.01008"
     inkscape:cy="59.67105"
     inkscape:window-width="1863"
     inkscape:window-height="1056"
     inkscape:window-x="57"
     inkscape:window-y="24"
     inkscape:window-maximized="1"
     inkscape:current-layer="g77" />
  <g
     inkscape:groupmode="layer"
     inkscape:label="Image"
     id="g77">
    <path
       style="fill:#000000;stroke-width:1.06667"
       d="m 9.038403,299.94352 v -14.4 h 9.066666 9.066666 v -37.86666 -37.86667 h 11.2 11.2 v -13.86667 -13.86667 h 4.266666 4.266667 v 13.86667 13.86667 h 4.266667 4.266666 v 15.93541 15.93542 l 7.466667,0.73574 7.466666,0.73574 v 21.19551 c 0,20.37049 0.08172,21.19551 2.099483,21.19551 1.952027,0 2.120588,-0.88025 2.4,-12.53333 l 0.300517,-12.53333 11.999996,-0.3016 12,-0.3016 v -13.2984 -13.29841 h 3.52 c 5.55128,0 6.08,1.2708 6.08,14.61334 v 12.05333 h 4.26667 4.26667 v -10.16 -10.16 l 3.2,-0.64 c 1.76,-0.352 3.2,-1.06 3.2,-1.57333 0,-0.51334 1.44,-0.93334 3.2,-0.93334 1.76,0 3.2,0.53135 3.2,1.18079 0,0.64943 0.71393,0.90683 1.5865,0.57199 1.08064,-0.41468 2.95125,1.40087 5.86667,5.69402 2.35409,3.46655 4.27954,6.68915 4.27878,7.16134 -7.4e-4,0.4722 4.91926,0.85853 10.93334,0.85853 h 10.93471 l 3.76663,-8.53333 c 3.07781,-6.97281 4.24821,-8.60087 6.4,-8.90263 1.44835,-0.2031 3.01722,-1.0431 3.48637,-1.86666 1.04461,-1.83372 6.80409,-1.99276 7.40023,-0.20434 0.27646,0.82937 2.22077,1.18297 5.42222,0.9861 l 4.99121,-0.30694 v 12.88057 12.88057 h 6.93333 6.93334 v 13.33333 13.33333 h 2.66666 2.66667 v -33.429 c 0,-18.38595 0.31425,-42.1047 0.69834,-52.70832 l 0.69834,-19.27931 7.30166,-0.73328 c 4.01591,-0.4033 7.30166,-1.16455 7.30166,-1.69168 0,-0.52713 2.88,-0.95841 6.4,-0.95841 4.97778,0 6.4,0.35555 6.4,1.6 0,0.88 0.72,1.6 1.6,1.6 1.3747,0 1.6,3.37128 1.6,23.94156 v 23.94156 l 5.06667,0.32511 5.06666,0.3251 0.28409,28.53334 0.28409,28.53333 h 4.24924 4.24925 v -38.93333 -38.93334 h 8 8 v -7.46666 -7.46667 h 22.93333 22.93333 v 6.93333 6.93334 h 4.25353 4.25353 l 0.2798,39.2 0.27981,39.2 3.54174,0.33985 3.54175,0.33985 -0.28831,-9.20868 c -0.15857,-5.06478 -0.67758,-9.44927 -1.15334,-9.74331 -0.47577,-0.29404 -0.75542,-1.97321 -0.62144,-3.73149 0.21941,-2.87958 0.37936,-3.01119 1.61159,-1.326 1.46275,2.00041 1.45038,2.03645 1.88703,-5.49697 0.19037,-3.28442 1.43694,-4.68492 3.77008,-4.2356 1.65675,0.31906 2.14215,-0.2114 2.25616,-2.46557 0.12716,-2.51405 0.20289,-2.5729 0.60752,-0.47208 0.283,1.46926 1.2364,2.4 2.45845,2.4 2.27411,0 3.55457,1.63576 3.73642,4.77325 0.38758,6.68691 0.50913,6.96008 3.0968,6.96008 1.41777,0 2.81988,-0.6 3.11578,-1.33333 0.43042,-1.06667 0.55485,-1.06667 0.62222,0 0.0463,0.73333 1.00422,1.33333 2.12866,1.33333 1.12444,0 2.28655,-0.6 2.58246,-1.33333 0.43041,-1.06667 0.55485,-1.06667 0.62222,0 0.0553,0.87445 1.88913,1.33333 5.32866,1.33333 3.1975,0 5.45443,-0.5204 5.78245,-1.33333 0.43041,-1.06667 0.55485,-1.06667 0.62222,0 0.0463,0.73333 1.10019,1.33333 2.34195,1.33333 1.73222,0 2.12795,-0.49632 1.70014,-2.13226 -0.30668,-1.17276 -0.12267,-2.40108 0.40893,-2.72963 0.53159,-0.32854 0.97388,-2.12902 0.98286,-4.00106 0.0209,-4.35976 1.51812,-7.03626 2.5019,-4.47258 0.37497,0.97717 0.70055,2.81742 0.72352,4.08944 0.0343,1.90204 0.29911,1.72142 1.49096,-1.01705 1.97369,-4.53486 5.57473,-6.81086 10.70463,-6.76572 5.54756,0.0487 8.95916,1.99903 11.35162,6.4891 l 1.92162,3.60643 0.0447,-3.40371 c 0.0518,-3.94677 1.72561,-5.56885 2.6714,-2.58891 0.35583,1.1211 0.55986,2.44806 0.45341,2.94882 -0.10645,0.50076 0.17833,2.95047 0.63284,5.4438 0.60811,3.33589 1.3304,4.53333 2.7345,4.53333 1.04947,0 2.15023,-0.6 2.44613,-1.33333 0.43041,-1.06667 0.55485,-1.06667 0.62222,0 0.0463,0.73333 1.04421,1.33333 2.21755,1.33333 1.17333,0 2.14068,-0.6 2.14966,-1.33333 0.0124,-1.01112 0.21145,-1.02646 0.8237,-0.0635 1.02168,1.60688 10.09562,1.55807 11.14364,-0.0599 0.56151,-0.86692 0.7883,-0.83192 0.8,0.12345 0.009,0.73334 1.21633,1.33334 2.683,1.33334 2.68821,0 2.7959,-0.23529 3.18568,-6.96009 0.18176,-3.13594 1.46204,-4.77325 3.73239,-4.77325 1.0957,0 2.21169,-0.84 2.47998,-1.86667 0.46458,-1.77778 0.4937,-1.77778 0.61155,0 0.068,1.02667 0.60373,1.86667 1.1904,1.86667 2.07753,0 2.68119,0.19347 3.98825,1.27823 0.72687,0.60325 1.0636,1.51427 0.74827,2.02449 -0.31534,0.51021 -0.23562,2.72783 0.17714,4.92802 0.62309,3.32139 0.89072,3.6413 1.57677,1.88481 0.56918,-1.45728 0.87502,-1.6177 0.98288,-0.51555 0.0861,0.88 0.3171,2.43809 0.51329,3.46243 0.1962,1.02435 -0.015,2.09217 -0.46932,2.37295 -0.45433,0.28079 -0.91672,4.62424 -1.02753,9.6521 l -0.20149,9.14157 7.78921,-0.31452 7.7892,-0.31457 0.31244,-7.68564 0.31243,-7.68565 7.15424,-0.31435 7.15423,-0.31436 0.19025,-5.05094 c 0.10464,-2.77802 -0.25537,-5.32635 -0.8,-5.66296 -1.54847,-0.957 -1.1615,-2.61943 0.60975,-2.61943 0.88888,0 1.6,-0.94815 1.6,-2.13334 0,-1.95976 0.71596,-2.13452 8.8,-2.14789 12.19335,-0.0202 13.72191,-0.53281 13.04504,-4.37484 -0.66364,-3.76693 1.12763,-4.12403 2.05964,-0.4106 0.58194,2.31861 2.97459,4.01316 2.63567,1.86667 -0.44201,-2.79934 0.39635,-4 2.79298,-4 2.24257,0 2.6733,0.5089 2.70842,3.2 l 0.0417,3.2 1.50676,-3.46667 c 1.86876,-4.29954 3.15138,-4.50818 2.32539,-0.37826 -0.77529,3.87652 0.65055,4.34371 13.31782,4.3637 8.70495,0.0138 9.20154,0.13667 8.6756,2.14789 -0.43932,1.67996 -0.0327,2.13334 1.91319,2.13334 1.92195,0 2.18663,0.28444 1.19108,1.28 -0.704,0.704 -1.28,3.584 -1.28,6.4 v 5.12 h 6.93333 6.93333 v 9.06666 9.06667 h 4.26667 c 4.01282,0 4.26667,-0.18707 4.26667,-3.14426 0,-3.04102 0.18387,-3.15484 5.6,-3.46666 l 5.59999,-0.32241 0.69817,-23.46667 c 0.38399,-12.90667 1.00003,-40.38921 1.36897,-61.07231 0.36895,-20.68311 0.93459,-38.29304 1.25698,-39.13318 0.35245,-0.91845 -1.36302,-3.39518 -4.3023,-6.21151 -4.60867,-4.41592 -4.88844,-5.00913 -4.88844,-10.36532 0,-5.24065 0.33096,-5.99616 4.26667,-9.74012 l 4.26666,-4.05878 v -9.10939 c 0,-5.78067 0.41866,-9.10939 1.14569,-9.10939 0.73261,0 1.06143,-2.78825 0.912,-7.73333 -0.40118,-13.276033 1.38404,-83.359001 2.17867,-85.528587 0.69225,-1.890075 1.23348,12.357871 2.71207,71.395254 0.3174,12.672843 0.96406,21.477673 1.59294,21.688883 0.59008,0.19819 1.05863,4.38999 1.05863,9.47071 0,8.89062 0.0905,9.21532 3.67306,13.1808 2.02019,2.23611 3.98485,5.72762 4.36593,7.75891 0.86716,4.62235 -1.8343,10.73203 -5.77439,13.05949 -2.69542,1.59223 -2.82094,2.08298 -3.06519,11.98404 -0.14008,5.67811 0.45879,33.60383 1.33081,62.05716 0.87202,28.45334 1.58946,52.57334 1.59431,53.6 0.007,1.55045 1.00264,1.86667 5.87547,1.86667 5.54667,0 5.86667,0.14545 5.86667,2.66667 0,2.54815 0.28445,2.66666 6.4,2.66666 h 6.4 v -5.86666 c 0,-5.25473 0.23441,-5.86667 2.24731,-5.86667 2.20503,0 2.24013,-0.31105 1.86631,-16.53333 -0.33987,-14.74858 -0.1927,-16.53334 1.36334,-16.53334 0.95939,0 2.55167,-1.23212 3.53839,-2.73805 1.44591,-2.20673 2.09068,-2.49187 3.32268,-1.46939 0.84075,0.69776 1.52864,1.92988 1.52864,2.73804 0,0.86772 1.12486,1.4694 2.74706,1.4694 2.33256,0 2.71786,0.44259 2.55363,2.93334 -0.10635,1.61333 -0.14255,9.53333 -0.0804,17.6 l 0.11307,14.66666 h 14.93333 14.93334 v 3.73334 3.73333 h 6.39999 6.4 l 0.21083,-9.33333 c 0.11596,-5.13334 0.27721,-11.80379 0.35833,-14.82324 0.16831,-6.265 2.07585,-11.66888 4.43918,-12.57577 0.89914,-0.34504 1.34281,-1.32311 1.00248,-2.20999 -0.33579,-0.87505 -0.14559,-1.591 0.42266,-1.591 0.56825,0 1.03319,0.49943 1.03319,1.10985 0,0.61042 0.99438,2.45483 2.20973,4.09869 1.7442,2.35915 2.24982,4.76578 2.4,11.42347 0.186,8.24572 0.25275,8.44191 2.97938,8.75826 2.67007,0.30978 2.82036,0.0474 3.52118,-6.147 0.40264,-3.55882 0.44478,-6.93542 0.0937,-7.50356 -1.07073,-1.73248 1.63527,-14.1576 4.00456,-18.38765 1.22647,-2.18971 4.01776,-5.16441 6.20289,-6.61044 3.44903,-2.28247 4.0707,-3.33991 4.7142,-8.01874 0.40769,-2.96425 1.13117,-5.38955 1.60773,-5.38955 0.47657,0 1.20005,2.4253 1.60774,5.38955 0.6435,4.67883 1.26517,5.73627 4.71419,8.01874 2.18513,1.44603 4.97643,4.42073 6.20289,6.61044 2.3693,4.23005 5.0753,16.65517 4.00457,18.38765 -0.35113,0.56814 -0.30898,3.94474 0.0937,7.50356 0.70082,6.1944 0.85112,6.45678 3.52119,6.147 2.60701,-0.30248 2.79977,-0.70665 2.95249,-6.19027 0.0898,-3.22667 0.20985,-7.12193 0.26666,-8.65615 0.0569,-1.53422 1.09203,-4.04646 2.30047,-5.58276 2.08667,-2.65275 2.32667,-2.70843 4.77114,-1.10675 2.69894,1.76842 4.04397,6.15983 4.21009,13.74566 0.0514,2.34666 0.19726,7.26666 0.32417,10.93333 l 0.23075,6.66667 h 6.93334 6.93333 V 237.0102 c 0,-39.93934 0.0569,-41.06667 2.07038,-41.06667 1.13871,0 2.36704,-0.48 2.72962,-1.06667 0.36258,-0.58666 0.15091,-1.06666 -0.47038,-1.06666 -0.62129,0 -1.12962,-1.44 -1.12962,-3.2 0,-2.85027 0.35262,-3.2 3.2264,-3.2 3.88214,0 5.22702,-2.7068 5.46675,-11.00278 0.0886,-3.06775 0.32985,-4.10557 0.54164,-2.33056 0.21,1.76 0.64749,5.24 0.97221,7.73334 l 0.59039,4.53333 h 7.93463 7.93464 l 0.17931,-7.73333 c 0.0987,-4.25334 0.34176,-5.81334 0.5403,-3.46667 0.91434,10.80712 1.11529,11.2 5.72873,11.2 4.09025,0 4.21833,0.11067 4.21833,3.64445 0,2.00444 -0.6,3.88655 -1.33333,4.18245 -0.73334,0.29591 -0.25334,0.57591 1.06666,0.62222 l 2.4,0.0842 v 41.6 41.60001 h 4.14227 c 3.24518,0 4.26307,-0.46201 4.70013,-2.13334 0.46578,-1.7811 1.45495,-2.13333 5.99108,-2.13333 h 5.43319 v 20.26667 20.26666 H 428.23839 9.038403 Z M 515.70506,274.87686 v -11.73334 h -3.2 -3.2 v 11.73334 11.73333 h 3.2 3.2 z m 10.66666,0 v -11.73334 h -3.2 -3.2 v 11.73334 11.73333 h 3.2 3.2 z m 13.86667,0 v -11.73334 h -4.8 -4.8 v 11.73334 11.73333 h 4.8 4.8 z m 9.6,0 v -11.73334 h -3.33956 c -3.26549,0 -3.3249,0.0888 -2.67841,4 0.36363,2.2 0.66644,7.48 0.67289,11.73334 0.0114,7.53464 0.0802,7.73333 2.67841,7.73333 h 2.66667 z m 10.66667,0 v -11.73334 h -3.2 -3.2 v 11.73334 11.73333 h 3.2 3.2 z M 363.43839,246.37527 c -0.73333,-0.2619 -1.33333,-1.50299 -1.33333,-2.75798 0,-2.26557 0.0122,-2.26445 1.7088,0.15787 1.83973,2.62658 1.73472,3.35375 -0.37547,2.60011 z m 102.13333,-1.89841 c 0,-0.88 0.18866,-1.6 0.41922,-1.6 0.23057,0 0.69549,0.72 1.03319,1.6 0.33769,0.88 0.14903,1.6 -0.41921,1.6 -0.56826,0 -1.0332,-0.72 -1.0332,-1.6 z m 69.07077,-2.48889 c -0.29047,-1.11074 0.0533,-1.95556 0.7959,-1.95556 0.74253,0 1.08637,0.84482 0.7959,1.95556 -0.28126,1.07555 -0.63941,1.95555 -0.7959,1.95555 -0.15649,0 -0.51465,-0.88 -0.7959,-1.95555 z"
       id="path923" />
  </g>
</svg>
