<?xml version="1.0" encoding="UTF-8" standalone="no"?>
<svg
   xmlns:dc="http://purl.org/dc/elements/1.1/"
   xmlns:cc="http://creativecommons.org/ns#"
   xmlns:rdf="http://www.w3.org/1999/02/22-rdf-syntax-ns#"
   xmlns:svg="http://www.w3.org/2000/svg"
   xmlns="http://www.w3.org/2000/svg"
   xmlns:sodipodi="http://sodipodi.sourceforge.net/DTD/sodipodi-0.dtd"
   xmlns:inkscape="http://www.inkscape.org/namespaces/inkscape"
   version="1.1"
   width="755.2"
   height="352.47742"
   viewBox="975.46667,418.26129,755.2,352.47742"
   id="svg2611"
   sodipodi:docname="Banner.svg"
   inkscape:version="0.92.5 (2060ec1f9f, 2020-04-08)">
  <metadata
     id="metadata2617">
    <rdf:RDF>
      <cc:Work
         rdf:about="">
        <dc:format>image/svg+xml</dc:format>
        <dc:type
           rdf:resource="http://purl.org/dc/dcmitype/StillImage" />
      </cc:Work>
    </rdf:RDF>
  </metadata>
  <defs
     id="defs2615" />
  <sodipodi:namedview
     pagecolor="#ffffff"
     bordercolor="#666666"
     borderopacity="1"
     objecttolerance="10"
     gridtolerance="10"
     guidetolerance="10"
     inkscape:pageopacity="0"
     inkscape:pageshadow="2"
     inkscape:window-width="1863"
     inkscape:window-height="1056"
     id="namedview2613"
     showgrid="false"
     inkscape:zoom="3.5355338"
     inkscape:cx="45.008957"
     inkscape:cy="153.3061"
     inkscape:window-x="348"
     inkscape:window-y="1464"
     inkscape:window-maximized="1"
     inkscape:current-layer="layer1" />
  <g
     stroke-miterlimit="10"
     font-weight="none"
     font-size="none"
     text-anchor="none"
     style="font-family:none;mix-blend-mode:normal;fill:none;fill-rule:nonzero;stroke:none;stroke-width:1;stroke-linecap:butt;stroke-linejoin:miter;stroke-miterlimit:10;stroke-dasharray:none;stroke-dashoffset:0"
     id="g2609">
    <g
       id="Layer_1">
      <path
         d="m 975.46667,594.37312 v 176.36559 l 50.24513,-50.24516 h 704.9549 V 594.37312 Z"
         id="path2224"
         inkscape:connector-curvature="0"
         style="fill:#ea680c" />
      <path
         d="M 1730.6667,594.37312 V 418.26129 l -50.2452,50.24516 H 975.46667 v 125.86667 z"
         id="path2226"
         inkscape:connector-curvature="0"
         style="fill:#00a6de" />
      <g
         id="g2580"
         style="fill:#ffffff">
        <rect
           x="400.60001"
           y="217.52332"
           transform="scale(2.53763)"
           width="2.8"
           height="2.8"
           id="rect2228" />
        <rect
           x="400.60001"
           y="213.72331"
           transform="scale(2.53763)"
           width="2.8"
           height="2.8"
           id="rect2230" />
        <rect
           x="400.60001"
           y="200.52332"
           transform="scale(2.53763)"
           width="2.8"
           height="2.8"
           id="rect2232" />
        <rect
           x="400.60001"
           y="196.72331"
           transform="scale(2.53763)"
           width="2.8"
           height="2.8"
           id="rect2234" />
        <rect
           x="404.39999"
           y="219.3233"
           transform="scale(2.53763)"
           width="2.8"
           height="2.8"
           id="rect2236" />
        <rect
           x="404.39999"
           y="196.72331"
           transform="scale(2.53763)"
           width="2.8"
           height="2.8"
           id="rect2238" />
        <rect
           x="408.10001"
           y="219.3233"
           transform="scale(2.53763)"
           width="2.8"
           height="2.8"
           id="rect2240" />
        <rect
           x="408.10001"
           y="196.72331"
           transform="scale(2.53763)"
           width="2.8"
           height="2.8"
           id="rect2242" />
        <rect
           x="411.89999"
           y="219.3233"
           transform="scale(2.53763)"
           width="2.8"
           height="2.8"
           id="rect2244" />
        <rect
           x="411.89999"
           y="196.72331"
           transform="scale(2.53763)"
           width="2.8"
           height="2.8"
           id="rect2246" />
        <rect
           x="415.60001"
           y="217.52332"
           transform="scale(2.53763)"
           width="2.8"
           height="2.8"
           id="rect2248" />
        <rect
           x="415.60001"
           y="213.72331"
           transform="scale(2.53763)"
           width="2.8"
           height="2.8"
           id="rect2250" />
        <rect
           x="415.60001"
           y="209.92331"
           transform="scale(2.53763)"
           width="2.8"
           height="2.8"
           id="rect2252" />
        <rect
           x="415.60001"
           y="206.12331"
           transform="scale(2.53763)"
           width="2.8"
           height="2.8"
           id="rect2254" />
        <rect
           x="415.60001"
           y="202.42331"
           transform="scale(2.53763)"
           width="2.8"
           height="2.8"
           id="rect2256" />
        <rect
           x="415.60001"
           y="198.62331"
           transform="scale(2.53763)"
           width="2.8"
           height="2.8"
           id="rect2258" />
        <rect
           x="423.10001"
           y="215.62331"
           transform="scale(2.53763)"
           width="2.8"
           height="2.8"
           id="rect2260" />
        <rect
           x="423.10001"
           y="211.8233"
           transform="scale(2.53763)"
           width="2.8"
           height="2.8"
           id="rect2262" />
        <rect
           x="423.10001"
           y="208.02332"
           transform="scale(2.53763)"
           width="2.8"
           height="2.8"
           id="rect2264" />
        <rect
           x="423.10001"
           y="204.3233"
           transform="scale(2.53763)"
           width="2.8"
           height="2.8"
           id="rect2266" />
        <rect
           x="423.10001"
           y="200.52332"
           transform="scale(2.53763)"
           width="2.8"
           height="2.8"
           id="rect2268" />
        <rect
           x="423.10001"
           y="196.72331"
           transform="scale(2.53763)"
           width="2.8"
           height="2.8"
           id="rect2270" />
        <rect
           x="426.89999"
           y="219.3233"
           transform="scale(2.53763)"
           width="2.8"
           height="2.8"
           id="rect2272" />
        <rect
           x="430.60001"
           y="219.3233"
           transform="scale(2.53763)"
           width="2.8"
           height="2.8"
           id="rect2274" />
        <rect
           x="434.39999"
           y="219.3233"
           transform="scale(2.53763)"
           width="2.8"
           height="2.8"
           id="rect2276" />
        <rect
           x="438.10001"
           y="215.62331"
           transform="scale(2.53763)"
           width="2.8"
           height="2.8"
           id="rect2278" />
        <rect
           x="438.10001"
           y="211.8233"
           transform="scale(2.53763)"
           width="2.8"
           height="2.8"
           id="rect2280" />
        <rect
           x="438.10001"
           y="208.02332"
           transform="scale(2.53763)"
           width="2.8"
           height="2.8"
           id="rect2282" />
        <rect
           x="438.10001"
           y="204.3233"
           transform="scale(2.53763)"
           width="2.8"
           height="2.8"
           id="rect2284" />
        <rect
           x="438.10001"
           y="200.52332"
           transform="scale(2.53763)"
           width="2.8"
           height="2.8"
           id="rect2286" />
        <rect
           x="438.10001"
           y="196.72331"
           transform="scale(2.53763)"
           width="2.8"
           height="2.8"
           id="rect2288" />
        <rect
           x="445.60001"
           y="217.52332"
           transform="scale(2.53763)"
           width="2.8"
           height="2.8"
           id="rect2290" />
        <rect
           x="445.60001"
           y="213.72331"
           transform="scale(2.53763)"
           width="2.8"
           height="2.8"
           id="rect2292" />
        <rect
           x="445.60001"
           y="209.92331"
           transform="scale(2.53763)"
           width="2.8"
           height="2.8"
           id="rect2294" />
        <rect
           x="445.60001"
           y="206.12331"
           transform="scale(2.53763)"
           width="2.8"
           height="2.8"
           id="rect2296" />
        <rect
           x="445.60001"
           y="202.42331"
           transform="scale(2.53763)"
           width="2.8"
           height="2.8"
           id="rect2298" />
        <rect
           x="445.60001"
           y="198.62331"
           transform="scale(2.53763)"
           width="2.8"
           height="2.8"
           id="rect2300" />
        <rect
           x="449.39999"
           y="219.3233"
           transform="scale(2.53763)"
           width="2.8"
           height="2.8"
           id="rect2302" />
        <rect
           x="449.39999"
           y="196.72331"
           transform="scale(2.53763)"
           width="2.8"
           height="2.8"
           id="rect2304" />
        <rect
           x="453.10001"
           y="219.3233"
           transform="scale(2.53763)"
           width="2.8"
           height="2.8"
           id="rect2306" />
        <rect
           x="453.10001"
           y="209.92331"
           transform="scale(2.53763)"
           width="2.8"
           height="2.8"
           id="rect2308" />
        <rect
           x="453.10001"
           y="196.72331"
           transform="scale(2.53763)"
           width="2.8"
           height="2.8"
           id="rect2310" />
        <rect
           x="456.89999"
           y="219.3233"
           transform="scale(2.53763)"
           width="2.8"
           height="2.8"
           id="rect2312" />
        <rect
           x="456.89999"
           y="209.92331"
           transform="scale(2.53763)"
           width="2.8"
           height="2.8"
           id="rect2314" />
        <rect
           x="456.89999"
           y="196.72331"
           transform="scale(2.53763)"
           width="2.8"
           height="2.8"
           id="rect2316" />
        <rect
           x="460.60001"
           y="217.52332"
           transform="scale(2.53763)"
           width="2.8"
           height="2.8"
           id="rect2318" />
        <rect
           x="460.60001"
           y="213.72331"
           transform="scale(2.53763)"
           width="2.8"
           height="2.8"
           id="rect2320" />
        <rect
           x="460.60001"
           y="209.92331"
           transform="scale(2.53763)"
           width="2.8"
           height="2.8"
           id="rect2322" />
        <rect
           x="460.60001"
           y="198.62331"
           transform="scale(2.53763)"
           width="2.8"
           height="2.8"
           id="rect2324" />
        <rect
           x="468.10001"
           y="217.52332"
           transform="scale(2.53763)"
           width="2.8"
           height="2.8"
           id="rect2326" />
        <rect
           x="468.10001"
           y="213.72331"
           transform="scale(2.53763)"
           width="2.8"
           height="2.8"
           id="rect2328" />
        <rect
           x="468.10001"
           y="209.92331"
           transform="scale(2.53763)"
           width="2.8"
           height="2.8"
           id="rect2330" />
        <rect
           x="468.10001"
           y="206.12331"
           transform="scale(2.53763)"
           width="2.8"
           height="2.8"
           id="rect2332" />
        <rect
           x="468.10001"
           y="202.42331"
           transform="scale(2.53763)"
           width="2.8"
           height="2.8"
           id="rect2334" />
        <rect
           x="468.10001"
           y="198.62331"
           transform="scale(2.53763)"
           width="2.8"
           height="2.8"
           id="rect2336" />
        <rect
           x="471.79999"
           y="219.3233"
           transform="scale(2.53763)"
           width="2.8"
           height="2.8"
           id="rect2338" />
        <rect
           x="471.79999"
           y="208.02332"
           transform="scale(2.53763)"
           width="2.8"
           height="2.8"
           id="rect2340" />
        <rect
           x="471.79999"
           y="196.72331"
           transform="scale(2.53763)"
           width="2.8"
           height="2.8"
           id="rect2342" />
        <rect
           x="475.60001"
           y="219.3233"
           transform="scale(2.53763)"
           width="2.8"
           height="2.8"
           id="rect2344" />
        <rect
           x="475.60001"
           y="208.02332"
           transform="scale(2.53763)"
           width="2.8"
           height="2.8"
           id="rect2346" />
        <rect
           x="475.60001"
           y="196.72331"
           transform="scale(2.53763)"
           width="2.8"
           height="2.8"
           id="rect2348" />
        <rect
           x="479.29999"
           y="219.3233"
           transform="scale(2.53763)"
           width="2.8"
           height="2.8"
           id="rect2350" />
        <rect
           x="479.29999"
           y="208.02332"
           transform="scale(2.53763)"
           width="2.8"
           height="2.8"
           id="rect2352" />
        <rect
           x="479.29999"
           y="196.72331"
           transform="scale(2.53763)"
           width="2.8"
           height="2.8"
           id="rect2354" />
        <rect
           x="483.10001"
           y="219.3233"
           transform="scale(2.53763)"
           width="2.8"
           height="2.8"
           id="rect2356" />
        <rect
           x="483.10001"
           y="196.72331"
           transform="scale(2.53763)"
           width="2.8"
           height="2.8"
           id="rect2358" />
        <rect
           x="490.60001"
           y="219.3233"
           transform="scale(2.53763)"
           width="2.8"
           height="2.8"
           id="rect2360" />
        <rect
           x="490.60001"
           y="215.62331"
           transform="scale(2.53763)"
           width="2.8"
           height="2.8"
           id="rect2362" />
        <rect
           x="490.60001"
           y="211.8233"
           transform="scale(2.53763)"
           width="2.8"
           height="2.8"
           id="rect2364" />
        <rect
           x="490.60001"
           y="208.02332"
           transform="scale(2.53763)"
           width="2.8"
           height="2.8"
           id="rect2366" />
        <rect
           x="490.60001"
           y="204.3233"
           transform="scale(2.53763)"
           width="2.8"
           height="2.8"
           id="rect2368" />
        <rect
           x="490.60001"
           y="200.52332"
           transform="scale(2.53763)"
           width="2.8"
           height="2.8"
           id="rect2370" />
        <rect
           x="490.60001"
           y="196.72331"
           transform="scale(2.53763)"
           width="2.8"
           height="2.8"
           id="rect2372" />
        <rect
           x="494.29999"
           y="204.3233"
           transform="scale(2.53763)"
           width="2.8"
           height="2.8"
           id="rect2374" />
        <rect
           x="498.10001"
           y="208.02332"
           transform="scale(2.53763)"
           width="2.8"
           height="2.8"
           id="rect2376" />
        <rect
           x="501.79999"
           y="211.8233"
           transform="scale(2.53763)"
           width="2.8"
           height="2.8"
           id="rect2378" />
        <rect
           x="505.60001"
           y="219.3233"
           transform="scale(2.53763)"
           width="2.8"
           height="2.8"
           id="rect2380" />
        <rect
           x="505.60001"
           y="215.62331"
           transform="scale(2.53763)"
           width="2.8"
           height="2.8"
           id="rect2382" />
        <rect
           x="505.60001"
           y="211.8233"
           transform="scale(2.53763)"
           width="2.8"
           height="2.8"
           id="rect2384" />
        <rect
           x="505.60001"
           y="208.02332"
           transform="scale(2.53763)"
           width="2.8"
           height="2.8"
           id="rect2386" />
        <rect
           x="505.60001"
           y="204.3233"
           transform="scale(2.53763)"
           width="2.8"
           height="2.8"
           id="rect2388" />
        <rect
           x="505.60001"
           y="200.52332"
           transform="scale(2.53763)"
           width="2.8"
           height="2.8"
           id="rect2390" />
        <rect
           x="505.60001"
           y="196.72331"
           transform="scale(2.53763)"
           width="2.8"
           height="2.8"
           id="rect2392" />
        <rect
           x="513.09998"
           y="219.3233"
           transform="scale(2.53763)"
           width="2.8"
           height="2.8"
           id="rect2394" />
        <rect
           x="513.09998"
           y="215.62331"
           transform="scale(2.53763)"
           width="2.8"
           height="2.8"
           id="rect2396" />
        <rect
           x="513.09998"
           y="211.8233"
           transform="scale(2.53763)"
           width="2.8"
           height="2.8"
           id="rect2398" />
        <rect
           x="513.09998"
           y="208.02332"
           transform="scale(2.53763)"
           width="2.8"
           height="2.8"
           id="rect2400" />
        <rect
           x="513.09998"
           y="204.3233"
           transform="scale(2.53763)"
           width="2.8"
           height="2.8"
           id="rect2402" />
        <rect
           x="513.09998"
           y="200.52332"
           transform="scale(2.53763)"
           width="2.8"
           height="2.8"
           id="rect2404" />
        <rect
           x="513.09998"
           y="196.72331"
           transform="scale(2.53763)"
           width="2.8"
           height="2.8"
           id="rect2406" />
        <rect
           x="516.79999"
           y="219.3233"
           transform="scale(2.53763)"
           width="2.8"
           height="2.8"
           id="rect2408" />
        <rect
           x="516.79999"
           y="196.72331"
           transform="scale(2.53763)"
           width="2.8"
           height="2.8"
           id="rect2410" />
        <rect
           x="520.59998"
           y="219.3233"
           transform="scale(2.53763)"
           width="2.8"
           height="2.8"
           id="rect2412" />
        <rect
           x="520.59998"
           y="196.72331"
           transform="scale(2.53763)"
           width="2.8"
           height="2.8"
           id="rect2414" />
        <rect
           x="524.29999"
           y="219.3233"
           transform="scale(2.53763)"
           width="2.8"
           height="2.8"
           id="rect2416" />
        <rect
           x="524.29999"
           y="196.72331"
           transform="scale(2.53763)"
           width="2.8"
           height="2.8"
           id="rect2418" />
        <rect
           x="528.09998"
           y="217.52332"
           transform="scale(2.53763)"
           width="2.8"
           height="2.8"
           id="rect2420" />
        <rect
           x="528.09998"
           y="213.72331"
           transform="scale(2.53763)"
           width="2.8"
           height="2.8"
           id="rect2422" />
        <rect
           x="528.09998"
           y="209.92331"
           transform="scale(2.53763)"
           width="2.8"
           height="2.8"
           id="rect2424" />
        <rect
           x="528.09998"
           y="206.12331"
           transform="scale(2.53763)"
           width="2.8"
           height="2.8"
           id="rect2426" />
        <rect
           x="528.09998"
           y="202.42331"
           transform="scale(2.53763)"
           width="2.8"
           height="2.8"
           id="rect2428" />
        <rect
           x="528.09998"
           y="198.62331"
           transform="scale(2.53763)"
           width="2.8"
           height="2.8"
           id="rect2430" />
        <rect
           x="558.09998"
           y="219.3233"
           transform="scale(2.53763)"
           width="2.8"
           height="2.8"
           id="rect2432" />
        <rect
           x="558.09998"
           y="215.62331"
           transform="scale(2.53763)"
           width="2.8"
           height="2.8"
           id="rect2434" />
        <rect
           x="558.09998"
           y="211.8233"
           transform="scale(2.53763)"
           width="2.8"
           height="2.8"
           id="rect2436" />
        <rect
           x="558.09998"
           y="208.02332"
           transform="scale(2.53763)"
           width="2.8"
           height="2.8"
           id="rect2438" />
        <rect
           x="558.09998"
           y="204.3233"
           transform="scale(2.53763)"
           width="2.8"
           height="2.8"
           id="rect2440" />
        <rect
           x="558.09998"
           y="200.52332"
           transform="scale(2.53763)"
           width="2.8"
           height="2.8"
           id="rect2442" />
        <rect
           x="558.09998"
           y="196.72331"
           transform="scale(2.53763)"
           width="2.8"
           height="2.8"
           id="rect2444" />
        <rect
           x="561.79999"
           y="208.02332"
           transform="scale(2.53763)"
           width="2.8"
           height="2.8"
           id="rect2446" />
        <rect
           x="565.5"
           y="208.02332"
           transform="scale(2.53763)"
           width="2.8"
           height="2.8"
           id="rect2448" />
        <rect
           x="569.29999"
           y="208.02332"
           transform="scale(2.53763)"
           width="2.8"
           height="2.8"
           id="rect2450" />
        <rect
           x="573"
           y="219.3233"
           transform="scale(2.53763)"
           width="2.8"
           height="2.8"
           id="rect2452" />
        <rect
           x="573"
           y="215.62331"
           transform="scale(2.53763)"
           width="2.8"
           height="2.8"
           id="rect2454" />
        <rect
           x="573"
           y="211.8233"
           transform="scale(2.53763)"
           width="2.8"
           height="2.8"
           id="rect2456" />
        <rect
           x="573"
           y="208.02332"
           transform="scale(2.53763)"
           width="2.8"
           height="2.8"
           id="rect2458" />
        <rect
           x="573"
           y="204.3233"
           transform="scale(2.53763)"
           width="2.8"
           height="2.8"
           id="rect2460" />
        <rect
           x="573"
           y="200.52332"
           transform="scale(2.53763)"
           width="2.8"
           height="2.8"
           id="rect2462" />
        <rect
           x="573"
           y="196.72331"
           transform="scale(2.53763)"
           width="2.8"
           height="2.8"
           id="rect2464" />
        <rect
           x="580.5"
           y="219.3233"
           transform="scale(2.53763)"
           width="2.8"
           height="2.8"
           id="rect2466" />
        <rect
           x="580.5"
           y="215.62331"
           transform="scale(2.53763)"
           width="2.8"
           height="2.8"
           id="rect2468" />
        <rect
           x="580.5"
           y="211.8233"
           transform="scale(2.53763)"
           width="2.8"
           height="2.8"
           id="rect2470" />
        <rect
           x="580.5"
           y="208.02332"
           transform="scale(2.53763)"
           width="2.8"
           height="2.8"
           id="rect2472" />
        <rect
           x="580.5"
           y="204.3233"
           transform="scale(2.53763)"
           width="2.8"
           height="2.8"
           id="rect2474" />
        <rect
           x="580.5"
           y="200.52332"
           transform="scale(2.53763)"
           width="2.8"
           height="2.8"
           id="rect2476" />
        <rect
           x="584.29999"
           y="209.92331"
           transform="scale(2.53763)"
           width="2.8"
           height="2.8"
           id="rect2478" />
        <rect
           x="584.29999"
           y="197.72331"
           transform="scale(2.53763)"
           width="2.8"
           height="2.8"
           id="rect2480" />
        <rect
           x="588"
           y="209.92331"
           transform="scale(2.53763)"
           width="2.8"
           height="2.8"
           id="rect2482" />
        <rect
           x="588"
           y="196.72331"
           transform="scale(2.53763)"
           width="2.8"
           height="2.8"
           id="rect2484" />
        <rect
           x="591.79999"
           y="209.92331"
           transform="scale(2.53763)"
           width="2.8"
           height="2.8"
           id="rect2486" />
        <rect
           x="591.79999"
           y="197.72331"
           transform="scale(2.53763)"
           width="2.8"
           height="2.8"
           id="rect2488" />
        <rect
           x="595.5"
           y="219.3233"
           transform="scale(2.53763)"
           width="2.8"
           height="2.8"
           id="rect2490" />
        <rect
           x="595.5"
           y="215.62331"
           transform="scale(2.53763)"
           width="2.8"
           height="2.8"
           id="rect2492" />
        <rect
           x="595.5"
           y="211.8233"
           transform="scale(2.53763)"
           width="2.8"
           height="2.8"
           id="rect2494" />
        <rect
           x="595.5"
           y="208.02332"
           transform="scale(2.53763)"
           width="2.8"
           height="2.8"
           id="rect2496" />
        <rect
           x="595.5"
           y="204.3233"
           transform="scale(2.53763)"
           width="2.8"
           height="2.8"
           id="rect2498" />
        <rect
           x="595.5"
           y="200.52332"
           transform="scale(2.53763)"
           width="2.8"
           height="2.8"
           id="rect2500" />
        <rect
           x="603"
           y="217.52332"
           transform="scale(2.53763)"
           width="2.8"
           height="2.8"
           id="rect2502" />
        <rect
           x="603"
           y="213.72331"
           transform="scale(2.53763)"
           width="2.8"
           height="2.8"
           id="rect2504" />
        <rect
           x="603"
           y="209.92331"
           transform="scale(2.53763)"
           width="2.8"
           height="2.8"
           id="rect2506" />
        <rect
           x="603"
           y="206.12331"
           transform="scale(2.53763)"
           width="2.8"
           height="2.8"
           id="rect2508" />
        <rect
           x="603"
           y="202.42331"
           transform="scale(2.53763)"
           width="2.8"
           height="2.8"
           id="rect2510" />
        <rect
           x="603"
           y="198.62331"
           transform="scale(2.53763)"
           width="2.8"
           height="2.8"
           id="rect2512" />
        <rect
           x="606.79999"
           y="219.3233"
           transform="scale(2.53763)"
           width="2.8"
           height="2.8"
           id="rect2514" />
        <rect
           x="606.79999"
           y="196.72331"
           transform="scale(2.53763)"
           width="2.8"
           height="2.8"
           id="rect2516" />
        <rect
           x="610.5"
           y="219.3233"
           transform="scale(2.53763)"
           width="2.8"
           height="2.8"
           id="rect2518" />
        <rect
           x="610.5"
           y="196.72331"
           transform="scale(2.53763)"
           width="2.8"
           height="2.8"
           id="rect2520" />
        <rect
           x="614.29999"
           y="219.3233"
           transform="scale(2.53763)"
           width="2.8"
           height="2.8"
           id="rect2522" />
        <rect
           x="614.29999"
           y="196.72331"
           transform="scale(2.53763)"
           width="2.8"
           height="2.8"
           id="rect2524" />
        <rect
           x="618"
           y="217.52332"
           transform="scale(2.53763)"
           width="2.8"
           height="2.8"
           id="rect2526" />
        <rect
           x="618"
           y="198.62331"
           transform="scale(2.53763)"
           width="2.8"
           height="2.8"
           id="rect2528" />
        <rect
           x="625.5"
           y="219.3233"
           transform="scale(2.53763)"
           width="2.8"
           height="2.8"
           id="rect2530" />
        <rect
           x="625.5"
           y="215.62331"
           transform="scale(2.53763)"
           width="2.8"
           height="2.8"
           id="rect2532" />
        <rect
           x="625.5"
           y="211.8233"
           transform="scale(2.53763)"
           width="2.8"
           height="2.8"
           id="rect2534" />
        <rect
           x="625.5"
           y="208.02332"
           transform="scale(2.53763)"
           width="2.8"
           height="2.8"
           id="rect2536" />
        <rect
           x="625.5"
           y="204.3233"
           transform="scale(2.53763)"
           width="2.8"
           height="2.8"
           id="rect2538" />
        <rect
           x="625.5"
           y="200.52332"
           transform="scale(2.53763)"
           width="2.8"
           height="2.8"
           id="rect2540" />
        <rect
           x="625.5"
           y="196.72331"
           transform="scale(2.53763)"
           width="2.8"
           height="2.8"
           id="rect2542" />
        <rect
           x="629.29999"
           y="208.02332"
           transform="scale(2.53763)"
           width="2.8"
           height="2.8"
           id="rect2544" />
        <rect
           x="633"
           y="211.8233"
           transform="scale(2.53763)"
           width="2.8"
           height="2.8"
           id="rect2546" />
        <rect
           x="633"
           y="204.3233"
           transform="scale(2.53763)"
           width="2.8"
           height="2.8"
           id="rect2548" />
        <rect
           x="636.79999"
           y="215.62331"
           transform="scale(2.53763)"
           width="2.8"
           height="2.8"
           id="rect2550" />
        <rect
           x="636.79999"
           y="200.52332"
           transform="scale(2.53763)"
           width="2.8"
           height="2.8"
           id="rect2552" />
        <rect
           x="640.5"
           y="219.3233"
           transform="scale(2.53763)"
           width="2.8"
           height="2.8"
           id="rect2554" />
        <rect
           x="640.5"
           y="196.72331"
           transform="scale(2.53763)"
           width="2.8"
           height="2.8"
           id="rect2556" />
        <rect
           x="648"
           y="196.72331"
           transform="scale(2.53763)"
           width="2.8"
           height="2.8"
           id="rect2558" />
        <rect
           x="651.79999"
           y="196.72331"
           transform="scale(2.53763)"
           width="2.8"
           height="2.8"
           id="rect2560" />
        <rect
           x="655.5"
           y="219.3233"
           transform="scale(2.53763)"
           width="2.8"
           height="2.8"
           id="rect2562" />
        <rect
           x="655.5"
           y="215.62331"
           transform="scale(2.53763)"
           width="2.8"
           height="2.8"
           id="rect2564" />
        <rect
           x="655.5"
           y="211.8233"
           transform="scale(2.53763)"
           width="2.8"
           height="2.8"
           id="rect2566" />
        <rect
           x="655.5"
           y="208.02332"
           transform="scale(2.53763)"
           width="2.8"
           height="2.8"
           id="rect2568" />
        <rect
           x="655.5"
           y="204.3233"
           transform="scale(2.53763)"
           width="2.8"
           height="2.8"
           id="rect2570" />
        <rect
           x="655.5"
           y="200.52332"
           transform="scale(2.53763)"
           width="2.8"
           height="2.8"
           id="rect2572" />
        <rect
           x="655.5"
           y="196.72331"
           transform="scale(2.53763)"
           width="2.8"
           height="2.8"
           id="rect2574" />
        <rect
           x="659.20001"
           y="196.72331"
           transform="scale(2.53763)"
           width="2.8"
           height="2.8"
           id="rect2576" />
        <rect
           x="663"
           y="196.72331"
           transform="scale(2.53763)"
           width="2.8"
           height="2.8"
           id="rect2578" />
      </g>
    </g>
    <g
       inkscape:groupmode="layer"
       id="layer1"
       inkscape:label="Layer 1"
       style="display:inline">
      <g
         aria-label="FRANKFURT AM MAIN"
         style="font-style:normal;font-variant:normal;font-weight:normal;font-stretch:normal;font-size:53.33333206px;line-height:125%;font-family:Ubuntu;-inkscape-font-specification:'Ubuntu, Normal';font-variant-ligatures:normal;font-variant-caps:normal;font-variant-numeric:normal;font-feature-settings:normal;text-align:start;letter-spacing:0px;word-spacing:0px;writing-mode:lr-tb;text-anchor:start;opacity:1;mix-blend-mode:normal;fill:#ffffff;fill-opacity:1;fill-rule:nonzero;stroke:none;stroke-width:1px;stroke-linecap:butt;stroke-linejoin:miter;stroke-miterlimit:10;stroke-dasharray:none;stroke-dashoffset:0;stroke-opacity:1"
         id="text6324-5">
        <path
           d="m 1015.2216,678.36865 v -34.72 h 22.1867 v 6.93334 h -13.8667 v 7.57333 h 11.84 v 6.93333 h -11.84 v 13.28 z"
           style="font-style:normal;font-variant:normal;font-weight:bold;font-stretch:normal;font-size:53.33333206px;font-family:'Source Sans Pro';-inkscape-font-specification:'Source Sans Pro, Bold';font-variant-ligatures:normal;font-variant-caps:normal;font-variant-numeric:normal;font-feature-settings:normal;text-align:start;writing-mode:lr-tb;text-anchor:start;fill:#ffffff;fill-opacity:1"
           id="path6379" />
        <path
           d="m 1043.3816,678.36865 v -34.72 h 12.7467 q 3.68,0 6.72,1.01334 3.0933,0.96 4.96,3.36 1.8666,2.34666 1.8666,6.56 0,3.78666 -1.6533,6.29333 -1.6533,2.45333 -4.32,3.73333 l 7.7333,13.76 h -9.28 l -6.4,-12.21333 h -4.0533 v 12.21333 z m 8.32,-18.77333 h 3.7867 q 6.08,0 6.08,-5.01333 0,-2.50667 -1.5467,-3.41334 -1.5467,-0.96 -4.5333,-0.96 h -3.7867 z"
           style="font-style:normal;font-variant:normal;font-weight:bold;font-stretch:normal;font-size:53.33333206px;font-family:'Source Sans Pro';-inkscape-font-specification:'Source Sans Pro, Bold';font-variant-ligatures:normal;font-variant-caps:normal;font-variant-numeric:normal;font-feature-settings:normal;text-align:start;writing-mode:lr-tb;text-anchor:start;fill:#ffffff;fill-opacity:1"
           id="path6381" />
        <path
           d="m 1084.2881,660.98199 -0.7466,2.98666 h 7.0933 l -0.7467,-2.98666 q -0.6933,-2.56 -1.3866,-5.49334 -0.64,-2.93333 -1.3334,-5.65333 h -0.2133 q -0.64,2.72 -1.3333,5.65333 -0.64,2.93334 -1.3334,5.49334 z m -12.8533,17.38666 10.8267,-34.72 h 9.92 l 10.8266,34.72 h -8.7466 l -2.0267,-8 h -10.2933 l -2.0267,8 z"
           style="font-style:normal;font-variant:normal;font-weight:bold;font-stretch:normal;font-size:53.33333206px;font-family:'Source Sans Pro';-inkscape-font-specification:'Source Sans Pro, Bold';font-variant-ligatures:normal;font-variant-caps:normal;font-variant-numeric:normal;font-feature-settings:normal;text-align:start;writing-mode:lr-tb;text-anchor:start;fill:#ffffff;fill-opacity:1"
           id="path6383" />
        <path
           d="m 1106.5814,678.36865 v -34.72 h 8.5866 l 8.5334,16.64 q 0.9066,1.76 1.76,3.78667 0.8533,2.02667 1.6533,4.05333 h 0.2133 q -0.32,-2.82666 -0.6933,-6.24 -0.3733,-3.46666 -0.3733,-6.56 v -11.68 h 7.84 v 34.72 h -8.5334 l -8.5866,-16.64 q -0.8534,-1.76 -1.7067,-3.78666 -0.8533,-2.02667 -1.6533,-4.05334 h -0.2134 q 0.32,2.88 0.6934,6.29334 0.3733,3.36 0.3733,6.50666 v 11.68 z"
           style="font-style:normal;font-variant:normal;font-weight:bold;font-stretch:normal;font-size:53.33333206px;font-family:'Source Sans Pro';-inkscape-font-specification:'Source Sans Pro, Bold';font-variant-ligatures:normal;font-variant-caps:normal;font-variant-numeric:normal;font-feature-settings:normal;text-align:start;writing-mode:lr-tb;text-anchor:start;fill:#ffffff;fill-opacity:1"
           id="path6385" />
        <path
           d="m 1142.1547,678.36865 v -34.72 h 8.32 v 13.76 h 0.16 l 9.8667,-13.76 h 9.0666 l -10.4533,13.92 12.4267,20.8 h -9.0667 l -8.2133,-14.24 -3.7867,5.12 v 9.12 z"
           style="font-style:normal;font-variant:normal;font-weight:bold;font-stretch:normal;font-size:53.33333206px;font-family:'Source Sans Pro';-inkscape-font-specification:'Source Sans Pro, Bold';font-variant-ligatures:normal;font-variant-caps:normal;font-variant-numeric:normal;font-feature-settings:normal;text-align:start;writing-mode:lr-tb;text-anchor:start;fill:#ffffff;fill-opacity:1"
           id="path6387" />
        <path
           d="m 1175.168,678.36865 v -34.72 h 22.1867 v 6.93334 h -13.8667 v 7.57333 h 11.84 v 6.93333 h -11.84 v 13.28 z"
           style="font-style:normal;font-variant:normal;font-weight:bold;font-stretch:normal;font-size:53.33333206px;font-family:'Source Sans Pro';-inkscape-font-specification:'Source Sans Pro, Bold';font-variant-ligatures:normal;font-variant-caps:normal;font-variant-numeric:normal;font-feature-settings:normal;text-align:start;writing-mode:lr-tb;text-anchor:start;fill:#ffffff;fill-opacity:1"
           id="path6389" />
        <path
           d="m 1217.1947,679.00865 q -6.9334,0 -10.5067,-4.05333 -3.52,-4.10667 -3.52,-12.90667 v -18.4 h 8.2667 v 19.30667 q 0,4.96 1.44,6.93333 1.4933,1.97334 4.32,1.97334 2.88,0 4.3733,-1.97334 1.5467,-1.97333 1.5467,-6.93333 v -19.30667 h 7.9466 v 18.4 q 0,8.8 -3.4666,12.90667 -3.4667,4.05333 -10.4,4.05333 z"
           style="font-style:normal;font-variant:normal;font-weight:bold;font-stretch:normal;font-size:53.33333206px;font-family:'Source Sans Pro';-inkscape-font-specification:'Source Sans Pro, Bold';font-variant-ligatures:normal;font-variant-caps:normal;font-variant-numeric:normal;font-feature-settings:normal;text-align:start;writing-mode:lr-tb;text-anchor:start;fill:#ffffff;fill-opacity:1"
           id="path6391" />
        <path
           d="m 1238.9013,678.36865 v -34.72 h 12.7467 q 3.68,0 6.72,1.01334 3.0933,0.96 4.96,3.36 1.8667,2.34666 1.8667,6.56 0,3.78666 -1.6534,6.29333 -1.6533,2.45333 -4.32,3.73333 l 7.7334,13.76 h -9.28 l -6.4,-12.21333 h -4.0534 v 12.21333 z m 8.32,-18.77333 h 3.7867 q 6.08,0 6.08,-5.01333 0,-2.50667 -1.5467,-3.41334 -1.5466,-0.96 -4.5333,-0.96 h -3.7867 z"
           style="font-style:normal;font-variant:normal;font-weight:bold;font-stretch:normal;font-size:53.33333206px;font-family:'Source Sans Pro';-inkscape-font-specification:'Source Sans Pro, Bold';font-variant-ligatures:normal;font-variant-caps:normal;font-variant-numeric:normal;font-feature-settings:normal;text-align:start;writing-mode:lr-tb;text-anchor:start;fill:#ffffff;fill-opacity:1"
           id="path6393" />
        <path
           d="m 1277.6212,678.36865 v -27.78666 h -9.44 v -6.93334 h 27.1466 v 6.93334 h -9.44 v 27.78666 z"
           style="font-style:normal;font-variant:normal;font-weight:bold;font-stretch:normal;font-size:53.33333206px;font-family:'Source Sans Pro';-inkscape-font-specification:'Source Sans Pro, Bold';font-variant-ligatures:normal;font-variant-caps:normal;font-variant-numeric:normal;font-feature-settings:normal;text-align:start;writing-mode:lr-tb;text-anchor:start;fill:#ffffff;fill-opacity:1"
           id="path6395" />
        <path
           d="m 1319.7543,660.98199 -0.7466,2.98666 h 7.0933 l -0.7467,-2.98666 q -0.6933,-2.56 -1.3866,-5.49334 -0.64,-2.93333 -1.3334,-5.65333 h -0.2133 q -0.64,2.72 -1.3333,5.65333 -0.64,2.93334 -1.3334,5.49334 z m -12.8533,17.38666 10.8267,-34.72 h 9.92 l 10.8266,34.72 h -8.7466 l -2.0267,-8 h -10.2933 l -2.0267,8 z"
           style="font-style:normal;font-variant:normal;font-weight:bold;font-stretch:normal;font-size:53.33333206px;font-family:'Source Sans Pro';-inkscape-font-specification:'Source Sans Pro, Bold';font-variant-ligatures:normal;font-variant-caps:normal;font-variant-numeric:normal;font-feature-settings:normal;text-align:start;writing-mode:lr-tb;text-anchor:start;fill:#ffffff;fill-opacity:1"
           id="path6397" />
        <path
           d="m 1342.0476,678.36865 v -34.72 h 9.0666 l 5.4934,15.09334 q 0.48,1.49333 0.9066,3.09333 0.48,1.54667 0.96,3.2 h 0.2134 q 0.48,-1.65333 0.9066,-3.2 0.4267,-1.6 0.96,-3.09333 l 5.28,-15.09334 h 9.0667 v 34.72 h -7.52 v -12.05333 q 0,-1.70667 0.16,-4.05333 0.2133,-2.34667 0.48,-4.64 0.2667,-2.34667 0.48,-4.05334 h -0.2133 l -2.88,9.06667 -4.6934,12.8 h -4.6933 l -4.64,-12.8 -2.7733,-9.06667 h -0.2134 q 0.2134,1.70667 0.48,4.05334 0.2667,2.29333 0.4267,4.64 0.2133,2.34666 0.2133,4.05333 v 12.05333 z"
           style="font-style:normal;font-variant:normal;font-weight:bold;font-stretch:normal;font-size:53.33333206px;font-family:'Source Sans Pro';-inkscape-font-specification:'Source Sans Pro, Bold';font-variant-ligatures:normal;font-variant-caps:normal;font-variant-numeric:normal;font-feature-settings:normal;text-align:start;writing-mode:lr-tb;text-anchor:start;fill:#ffffff;fill-opacity:1"
           id="path6399" />
        <path
           d="m 1393.5674,678.36865 v -34.72 h 9.0667 l 5.4933,15.09334 q 0.48,1.49333 0.9067,3.09333 0.48,1.54667 0.96,3.2 h 0.2133 q 0.48,-1.65333 0.9067,-3.2 0.4267,-1.6 0.96,-3.09333 l 5.28,-15.09334 h 9.0667 v 34.72 h -7.52 v -12.05333 q 0,-1.70667 0.16,-4.05333 0.2133,-2.34667 0.48,-4.64 0.2666,-2.34667 0.48,-4.05334 h -0.2134 l -2.88,9.06667 -4.6933,12.8 h -4.6933 l -4.64,-12.8 -2.7734,-9.06667 h -0.2133 q 0.2133,1.70667 0.48,4.05334 0.2667,2.29333 0.4267,4.64 0.2133,2.34666 0.2133,4.05333 v 12.05333 z"
           style="font-style:normal;font-variant:normal;font-weight:bold;font-stretch:normal;font-size:53.33333206px;font-family:'Source Sans Pro';-inkscape-font-specification:'Source Sans Pro, Bold';font-variant-ligatures:normal;font-variant-caps:normal;font-variant-numeric:normal;font-feature-settings:normal;text-align:start;writing-mode:lr-tb;text-anchor:start;fill:#ffffff;fill-opacity:1"
           id="path6401" />
        <path
           d="m 1442.8474,660.98199 -0.7467,2.98666 h 7.0933 l -0.7466,-2.98666 q -0.6934,-2.56 -1.3867,-5.49334 -0.64,-2.93333 -1.3333,-5.65333 h -0.2134 q -0.64,2.72 -1.3333,5.65333 -0.64,2.93334 -1.3333,5.49334 z m -12.8534,17.38666 10.8267,-34.72 h 9.92 l 10.8267,34.72 h -8.7467 l -2.0267,-8 h -10.2933 l -2.0267,8 z"
           style="font-style:normal;font-variant:normal;font-weight:bold;font-stretch:normal;font-size:53.33333206px;font-family:'Source Sans Pro';-inkscape-font-specification:'Source Sans Pro, Bold';font-variant-ligatures:normal;font-variant-caps:normal;font-variant-numeric:normal;font-feature-settings:normal;text-align:start;writing-mode:lr-tb;text-anchor:start;fill:#ffffff;fill-opacity:1"
           id="path6403" />
        <path
           d="m 1465.1406,678.36865 v -34.72 h 8.32 v 34.72 z"
           style="font-style:normal;font-variant:normal;font-weight:bold;font-stretch:normal;font-size:53.33333206px;font-family:'Source Sans Pro';-inkscape-font-specification:'Source Sans Pro, Bold';font-variant-ligatures:normal;font-variant-caps:normal;font-variant-numeric:normal;font-feature-settings:normal;text-align:start;writing-mode:lr-tb;text-anchor:start;fill:#ffffff;fill-opacity:1"
           id="path6405" />
        <path
           d="m 1481.4606,678.36865 v -34.72 h 8.5867 l 8.5333,16.64 q 0.9067,1.76 1.76,3.78667 0.8534,2.02667 1.6534,4.05333 h 0.2133 q -0.32,-2.82666 -0.6933,-6.24 -0.3734,-3.46666 -0.3734,-6.56 v -11.68 h 7.84 v 34.72 h -8.5333 l -8.5867,-16.64 q -0.8533,-1.76 -1.7066,-3.78666 -0.8534,-2.02667 -1.6534,-4.05334 h -0.2133 q 0.32,2.88 0.6933,6.29334 0.3734,3.36 0.3734,6.50666 v 11.68 z"
           style="font-style:normal;font-variant:normal;font-weight:bold;font-stretch:normal;font-size:53.33333206px;font-family:'Source Sans Pro';-inkscape-font-specification:'Source Sans Pro, Bold';font-variant-ligatures:normal;font-variant-caps:normal;font-variant-numeric:normal;font-feature-settings:normal;text-align:start;writing-mode:lr-tb;text-anchor:start;fill:#ffffff;fill-opacity:1"
           id="path6407" />
      </g>
    </g>
    <g
       inkscape:groupmode="layer"
       id="layer2"
       inkscape:label="Layer 2"
       style="display:none"
       sodipodi:insensitive="true">
      <text
         id="text6324"
         y="678.37622"
         x="1011.2113"
         style="font-style:normal;font-variant:normal;font-weight:normal;font-stretch:normal;font-size:53.33333206px;line-height:125%;font-family:Ubuntu;-inkscape-font-specification:'Ubuntu, Normal';font-variant-ligatures:normal;font-variant-caps:normal;font-variant-numeric:normal;font-feature-settings:normal;text-align:start;letter-spacing:0px;word-spacing:0px;writing-mode:lr-tb;text-anchor:start;display:inline;opacity:1;mix-blend-mode:normal;fill:#000000;fill-opacity:1;fill-rule:nonzero;stroke:none;stroke-width:1px;stroke-linecap:butt;stroke-linejoin:miter;stroke-miterlimit:10;stroke-dasharray:none;stroke-dashoffset:0;stroke-opacity:1"
         xml:space="preserve"><tspan
           style="font-style:normal;font-variant:normal;font-weight:bold;font-stretch:normal;font-size:53.33333206px;font-family:'Source Sans Pro';-inkscape-font-specification:'Source Sans Pro, Bold';font-variant-ligatures:normal;font-variant-caps:normal;font-variant-numeric:normal;font-feature-settings:normal;text-align:start;writing-mode:lr-tb;text-anchor:start;fill:#ffffff;fill-opacity:1"
           y="678.37622"
           x="1011.2113"
           id="tspan6322"
           sodipodi:role="line">FRANKFURT AM MAIN</tspan></text>
    </g>
  </g>
</svg>
