<?xml version="1.0" encoding="UTF-8"?>
<svg id="logo" xmlns="http://www.w3.org/2000/svg" viewBox="0 0 300 69.9">
  <path d="M113.72.49c3.97,0,7.52.74,10.65,2.21,3.13,1.41,5.6,3.55,7.39,6.43,1.86,2.88,2.78,6.43,2.78,10.65v27.54c0,4.99-.9,9.15-2.69,12.48-1.79,3.26-4.25,5.69-7.39,7.29-3.07,1.54-6.56,2.3-10.46,2.3h-19.87c-3.84,0-7.29-.7-10.36-2.11-3.07-1.41-5.5-3.55-7.29-6.43-1.79-2.88-2.69-6.4-2.69-10.56v-3.93h2.78v4.03c0,5.37,1.66,9.44,4.99,12.19,3.33,2.75,7.52,4.13,12.57,4.13h19.87c3.33,0,6.3-.64,8.93-1.92,2.69-1.34,4.83-3.45,6.43-6.33,1.6-2.88,2.4-6.53,2.4-10.94v-16.41h-1.63l1.73-3.07c-.06,1.92-.93,3.81-2.59,5.66-1.6,1.86-3.81,3.36-6.62,4.51-2.75,1.09-5.82,1.63-9.21,1.63h-20.06c-3.84,0-7.33-.67-10.46-2.02-3.07-1.41-5.53-3.52-7.39-6.33-1.79-2.82-2.69-6.27-2.69-10.36v-1.82c0-4.03.9-7.45,2.69-10.27,1.86-2.88,4.35-5.02,7.49-6.43,3.2-1.41,6.75-2.11,10.65-2.11h20.06ZM93.76,3.28c-5.18,0-9.5,1.34-12.96,4.03-3.39,2.69-5.09,6.69-5.09,12v1.82c0,5.31,1.7,9.31,5.09,12,3.45,2.62,7.74,3.93,12.86,3.93h19.96c5.31,0,9.66-1.31,13.05-3.93,3.39-2.69,5.09-6.69,5.09-12v-1.82c0-5.31-1.7-9.31-5.09-12-3.39-2.69-7.74-4.03-13.05-4.03h-19.87ZM20.35,69.11c-3.65,0-7.01-.64-10.08-1.92-3.07-1.28-5.57-3.26-7.49-5.95-1.86-2.69-2.78-5.98-2.78-9.88v-4.99h2.88v4.99c0,5.05,1.7,8.83,5.09,11.32,3.45,2.43,7.61,3.65,12.48,3.65h18.23c2.94,0,5.76-.51,8.45-1.54,2.75-1.09,4.96-2.72,6.62-4.89,1.73-2.24,2.59-4.99,2.59-8.25v-1.73c0-4.99-1.66-8.7-4.99-11.13-3.26-2.43-7.9-3.65-13.92-3.65h-21.21v-2.78L50.29,4.62v-.48H1.92V1.36h53.45v2.88L21.31,31.88v1.44l-2.4-.86h18.81c6.78,0,12.06,1.5,15.83,4.51,3.77,2.94,5.66,7.26,5.66,12.96v1.63c0,3.77-.96,7.01-2.88,9.69-1.86,2.62-4.35,4.61-7.49,5.95-3.14,1.28-6.53,1.92-10.17,1.92h-18.33ZM255.09,69.59c-5.05,0-9.47-.74-13.24-2.21-3.78-1.47-6.72-3.74-8.83-6.81s-3.17-6.94-3.17-11.61v-2.21h21.5v2.21c0,1.02.16,1.82.48,2.4.32.51.83.9,1.54,1.15.7.19,1.66.29,2.88.29h17.08c1.22,0,2.18-.13,2.88-.38.77-.32,1.31-.77,1.63-1.34.38-.64.58-1.38.58-2.21v-1.44c0-1.28-.45-2.27-1.34-2.98-.9-.7-2.11-1.06-3.65-1.06h-31.29v-13.82l17.95-8.83v-1.54h-27.06V1.36h62.67v17.47l-19.67,9.88v3.93l-19-2.5h23.03c6.21,0,11.07,1.54,14.59,4.61,3.58,3.07,5.37,7.45,5.37,13.15v1.34c0,4.41-.99,8.13-2.98,11.13-1.98,3.01-4.86,5.31-8.64,6.91-3.78,1.54-8.38,2.3-13.82,2.3h-19.48ZM174.86,69.59c-10.04,0-17.75-2.5-23.13-7.49-5.31-5.05-7.97-12.89-7.97-23.51v-7.1c0-10.68,2.65-18.55,7.97-23.61,5.37-5.05,13.08-7.58,23.13-7.58h23.03c6.21,0,11.45,1.02,15.74,3.07,4.35,2.05,7.71,5.25,10.08,9.6,2.37,4.35,3.55,9.92,3.55,16.7v2.4h-22.36v-2.4c-.06-2.62-.35-4.67-.86-6.14-.51-1.47-1.34-2.53-2.5-3.17-1.09-.7-2.59-1.06-4.51-1.06h-20.92c-3.07,0-5.34.96-6.81,2.88-1.41,1.86-2.11,4.93-2.11,9.21v7.39c0,4.16.7,7.17,2.11,9.02,1.47,1.86,3.74,2.78,6.81,2.78h20.92c1.92,0,3.42-.32,4.51-.96,1.15-.64,1.98-1.7,2.5-3.17.58-1.54.86-3.58.86-6.14v-1.92h22.36v1.82c0,6.78-1.18,12.35-3.55,16.7-2.3,4.35-5.63,7.55-9.98,9.6-4.35,2.05-9.63,3.07-15.83,3.07h-23.03Z" fill="lime"/>
</svg>