<?xml version="1.0" encoding="UTF-8" standalone="no"?>
<!-- Created with Inkscape (http://www.inkscape.org/) -->

<svg
   version="1.1"
   id="svg39568"
   width="1144"
   height="277.33331"
   viewBox="0 0 1144 277.33331"
   sodipodi:docname="logo.svg"
   inkscape:version="1.4 (e7c3feb1, 2024-10-09)"
   xmlns:inkscape="http://www.inkscape.org/namespaces/inkscape"
   xmlns:sodipodi="http://sodipodi.sourceforge.net/DTD/sodipodi-0.dtd"
   xmlns="http://www.w3.org/2000/svg"
   xmlns:svg="http://www.w3.org/2000/svg">
  <sodipodi:namedview
     id="namedview1"
     pagecolor="#ffffff"
     bordercolor="#000000"
     borderopacity="0.25"
     inkscape:showpageshadow="2"
     inkscape:pageopacity="0.0"
     inkscape:pagecheckerboard="0"
     inkscape:deskcolor="#d1d1d1"
     inkscape:zoom="0.41060428"
     inkscape:cx="798.82265"
     inkscape:cy="467.60351"
     inkscape:window-width="2560"
     inkscape:window-height="1381"
     inkscape:window-x="0"
     inkscape:window-y="31"
     inkscape:window-maximized="1"
     inkscape:current-layer="g39648" />
  <defs
     id="defs39572" />
  <g
     id="g39574"
     transform="matrix(1.3333333,0,0,-1.3333333,-1293.3333,1149.3333)">
    <g
       id="g39644"
       transform="translate(970,654)">
      <path
         d="M 0,208 V 69.33606 H 788.64648 V 0 L 858,69.33606 V 208 Z"
         style="fill:#000000;fill-opacity:1;fill-rule:nonzero;stroke:none"
         id="path39646" />
    </g>
    <g
       id="g39648"
       transform="translate(1022.5723,758.51978)">
      <path
         d="M 9.788334,58.597298 H 33.49567 V 9.597137 H 9.600016 v 8.373364 H 0 V 8.36937 H 8.371868 V 9.2e-5 H 34.723816 V 8.36937 h 8.371868 V 68.194336 H 9.788334 Z"
         style="fill:#ffffff;fill-opacity:1;fill-rule:nonzero;stroke:none"
         id="path39650" />
    </g>
    <g
       id="g39652"
       transform="translate(1090.3984,758.51978)">
      <path
         d="M 33.49567,9.597137 H 9.60001 V 68.194336 H 0 V 8.36937 H 8.371862 V 9.2e-5 H 34.72382 V 8.36937 h 8.37186 v 59.824966 h -9.60001 z"
         style="fill:#ffffff;fill-opacity:1;fill-rule:nonzero;stroke:none"
         id="path39654" />
    </g>
    <g
       id="g39656"
       transform="translate(1158.2246,758.51978)">
      <path
         d="M 34.723804,68.194336 H 8.371875 V 59.825062 H 0 V 8.36937 H 8.371875 V 9.2e-5 H 34.723804 V 8.36937 H 43.09568 V 34.713142 H 25.119711 v -9.601135 h 8.375948 V 9.597137 H 9.600022 v 49.000161 h 23.895637 v -8.373375 h 9.600021 v 9.601139 h -8.371876 z"
         style="fill:#ffffff;fill-opacity:1;fill-rule:nonzero;stroke:none"
         id="path39658" />
    </g>
    <g
       id="g39660"
       transform="translate(1224.209,758.51978)">
      <path
         d="M 0,9.2e-5 H 43.095665 V 9.597137 H 9.599997 V 33.485378 H 34.719719 V 43.08242 H 9.599997 v 15.514878 h 33.495668 v 9.597038 L 0,68.194336 Z"
         style="fill:#ffffff;fill-opacity:1;fill-rule:nonzero;stroke:none"
         id="path39662" />
    </g>
    <g
       id="g39664"
       transform="translate(1288.3516,758.51978)">
      <path
         d="m 33.49157,34.713142 h -7.143727 v 8.369278 h -8.371874 v 8.369274 H 9.600021 V 68.194336 H 0 V 9.2e-5 h 9.600021 v 41.85456 h 7.147801 v -8.369274 h 8.371874 V 25.112007 H 33.49157 V 9.2e-5 h 9.604095 V 68.194336 H 33.49157 Z"
         style="fill:#ffffff;fill-opacity:1;fill-rule:nonzero;stroke:none"
         id="path39666" />
    </g>
    <g
       id="g39668"
       transform="translate(1356.1738,758.51978)">
      <path
         d="M 34.723816,68.194336 H 0 V 9.2e-5 H 34.723816 V 8.36937 h 8.371849 V 59.825062 H 34.723816 Z M 9.604119,58.597298 H 33.49567 V 9.597137 H 9.604119 Z"
         style="fill:#ffffff;fill-opacity:1;fill-rule:nonzero;stroke:none"
         id="path39670" />
    </g>
    <g
       id="g39672"
       transform="translate(1469.5859,758.51978)">
      <path
         d="M 33.495693,43.08242 H 9.600046 V 68.194336 H 0 V 9.2e-5 H 9.600046 V 33.485378 H 33.495693 V 9.2e-5 h 9.599999 v 68.194244 h -9.599999 z"
         style="fill:#ffffff;fill-opacity:1;fill-rule:nonzero;stroke:none"
         id="path39674" />
    </g>
    <g
       id="g39676"
       transform="translate(1537.416,758.51978)">
      <path
         d="m 34.719692,59.825062 h -8.375948 v 8.369274 H 16.743748 V 59.825062 H 8.371849 V 51.455788 H 0 V 9.2e-5 H 9.599996 V 25.112007 H 33.491543 V 9.2e-5 h 9.600048 V 51.455788 H 34.719692 Z M 33.491543,34.713142 H 9.599996 V 50.22802 h 8.371899 v 8.369278 h 7.143702 V 50.22802 h 8.375946 z"
         style="fill:#ffffff;fill-opacity:1;fill-rule:nonzero;stroke:none"
         id="path39678" />
    </g>
    <g
       id="g39680"
       transform="translate(1605.2383,758.51978)">
      <path
         d="M 34.719742,68.194336 H 8.3719 V 59.825062 H 0 V 8.36937 H 8.3719 V 9.2e-5 H 34.719742 V 8.36937 h 8.37595 v 9.601131 H 33.491596 V 9.597137 H 9.600046 v 49.000161 h 23.89155 v -8.373375 h 9.604096 v 9.601139 h -8.37595 z"
         style="fill:#ffffff;fill-opacity:1;fill-rule:nonzero;stroke:none"
         id="path39682" />
    </g>
    <g
       id="g39684"
       transform="translate(1671.2227,758.51978)">
      <path
         d="M 33.491547,59.825062 H 25.119696 V 51.451694 H 16.74375 V 43.08242 H 9.599997 V 68.194336 H 0 V 9.2e-5 H 9.599997 V 33.485378 H 25.119696 V 16.742733 h 8.371851 V 9.2e-5 h 9.604145 v 17.970409 h -8.376 v 16.742641 h -8.371849 v 15.510781 h 8.371849 v 8.373375 h 8.376 v 9.597038 h -9.604145 z"
         style="fill:#ffffff;fill-opacity:1;fill-rule:nonzero;stroke:none"
         id="path39686" />
    </g>
    <g
       id="g39688"
       transform="translate(1733.5215,758.51978)">
      <path
         d="M 0,68.194336 V 58.597298 H 16.7437 V 9.2e-5 h 9.604145 v 58.597206 h 16.747797 v 9.597038 z"
         style="fill:#ffffff;fill-opacity:1;fill-rule:nonzero;stroke:none"
         id="path39690" />
    </g>
  </g>
</svg>
