<?xml version="1.0" encoding="UTF-8" standalone="no"?>
<!-- Created with Inkscape (http://www.inkscape.org/) -->

<svg
   xmlns:dc="http://purl.org/dc/elements/1.1/"
   xmlns:cc="http://creativecommons.org/ns#"
   xmlns:rdf="http://www.w3.org/1999/02/22-rdf-syntax-ns#"
   xmlns:svg="http://www.w3.org/2000/svg"
   xmlns="http://www.w3.org/2000/svg"
   xmlns:sodipodi="http://sodipodi.sourceforge.net/DTD/sodipodi-0.dtd"
   xmlns:inkscape="http://www.inkscape.org/namespaces/inkscape"
   width="800"
   height="170"
   viewBox="0 0 800.00001 170"
   id="svg4323"
   version="1.1"
   inkscape:version="0.91 r13725"
   sodipodi:docname="Banner_JH-West-2016.svg">
  <defs
     id="defs4325" />
  <sodipodi:namedview
     id="base"
     pagecolor="#ffffff"
     bordercolor="#666666"
     borderopacity="1.0"
     inkscape:pageopacity="0.0"
     inkscape:pageshadow="2"
     inkscape:zoom="1.4"
     inkscape:cx="216.70568"
     inkscape:cy="207.50574"
     inkscape:document-units="px"
     inkscape:current-layer="layer1"
     showgrid="false"
     units="px"
     inkscape:window-width="1596"
     inkscape:window-height="861"
     inkscape:window-x="0"
     inkscape:window-y="18"
     inkscape:window-maximized="0" />
  <metadata
     id="metadata4328">
    <rdf:RDF>
      <cc:Work
         rdf:about="">
        <dc:format>image/svg+xml</dc:format>
        <dc:type
           rdf:resource="http://purl.org/dc/dcmitype/StillImage" />
        <dc:title></dc:title>
      </cc:Work>
    </rdf:RDF>
  </metadata>
  <g
     inkscape:label="Ebene 1"
     inkscape:groupmode="layer"
     id="layer1"
     transform="translate(0,-882.36216)">
    <g
       transform="translate(297,81.56216)"
       id="g69">
      <g
         id="g71">
        <g
           id="g73">
          <path
             style="fill:#2e3192"
             inkscape:connector-curvature="0"
             d="m -292,818.2 0,13.1 0,13.9 0,13.9 0,13.9 0,13.9 0,13.9 0,13.9 0,14.7 13.9,0 0,13.9 13.9,0 0,13.7 27,0 13.9,0 13.9,0 13.9,0 13.9,0 14.7,0 0,-13.9 13.9,0 0,-13.9 13.9,0 0,-14.7 0,-13.9 0,-13.9 0,-13.9 0,-13.9 0,-13.9 0,-13.9 0,-13.1 -13.9,0 0,-13.9 -27.8,0 0,13.9 -13.9,0 0,13.9 -14.7,0 -13.9,0 -13.1,0 0,-13.9 -13.9,0 0,-13.9 -27.8,0 0,13.9 -13.9,0 z m 13.9,55.5 10.8,0 0,-13.9 100.3,0 0,13.9 13.9,0 0,13.1 0,13.9 0,14.7 -13.9,0 0,13.9 -13.9,0 0,13.9 -14.7,0 -13.9,0 -13.9,0 -13.9,0 -13.1,0 0,-13.9 -13.9,0 0,-13.9 -13.9,0 0,-14.7 0,-13.9 0,-13.1 z"
             id="path75" />
        </g>
      </g>
      <g
         id="g77">
        <path
           style="fill:#ffffff"
           inkscape:connector-curvature="0"
           d="m -279.4,874.2 0,13.3 0,13.9 0,13.9 16,0 0,14 13,0 0,15 14.8,0 13.9,0 13.9,0 13.9,0 13.6,0 0,-15 13,0 0,-14 13,0 0,-13.9 0,-13.9 0,-13.3 -13,0 0,-14 -12.7,0 -14,0 -13.9,0 -13.9,0 -13.9,0 -33.8,0 0,14 -9.9,0 z"
           id="path79" />
        <rect
           x="-180.39999"
           y="887.20001"
           width="13"
           height="15"
           id="rect81" />
        <rect
           x="-263.39999"
           y="887.20001"
           width="13"
           height="15"
           id="rect83" />
        <rect
           x="-209.39999"
           y="902.20001"
           width="14"
           height="13"
           id="rect85" />
        <rect
           x="-237.39999"
           y="915.20001"
           width="42"
           height="14"
           id="rect87" />
        <rect
           x="-237.39999"
           y="902.20001"
           width="15"
           height="13"
           id="rect89" />
      </g>
    </g>
    <g
       transform="translate(297,81.56216)"
       id="g141">
      <polygon
         style="fill:#2e3192"
         points="1.1,938 1.1,933.8 1.1,965.8 33.8,933.8 216.3,933.8 270.4,880.7 1.1,880.7 "
         id="polygon143" />
      <polygon
         style="fill:#00a5dd"
         points="501.3,862.5 501.3,805.2 1.1,805.2 1.1,862.5 1.1,881.6 1.1,911.4 30.6,881.6 501.3,881.6 "
         id="polygon145" />
      <path
         style="fill:#ffffff"
         inkscape:connector-curvature="0"
         d="m 469.3,827.2 4.7,0 0,-4.8 -4.7,0 0,4.8 z m -6.3,0 4.7,0 0,-4.8 -4.7,0 0,4.8 z m -6.3,0 4.7,0 0,-4.8 -4.7,0 0,4.8 z m -6.3,0 4.7,0 0,-4.8 -4.7,0 0,4.8 z m -6.3,0 4.7,0 0,-4.8 -4.7,0 0,4.8 z m -12.6,0 4.7,0 0,-4.8 -4.7,0 0,4.8 z m -25.2,0 4.7,0 0,-4.8 -4.7,0 0,4.8 z m -18.9,0 4.7,0 0,-4.8 -4.7,0 0,4.8 z m -6.3,0 4.7,0 0,-4.8 -4.7,0 0,4.8 z m -6.3,0 4.7,0 0,-4.8 -4.7,0 0,4.8 z m -31.5,0 4.7,0 0,-4.8 -4.7,0 0,4.8 z m -25.2,0 4.7,0 0,-4.8 -4.7,0 0,4.8 z m -25.2,0 4.7,0 0,-4.8 -4.7,0 0,4.8 z m -56.7,0 4.7,0 0,-4.8 -4.7,0 0,4.8 z m -6.3,0 4.7,0 0,-4.8 -4.7,0 0,4.8 z m -6.3,0 4.7,0 0,-4.8 -4.7,0 0,4.8 z m -6.3,0 4.7,0 0,-4.8 -4.7,0 0,4.8 z m -12.6,0 4.7,0 0,-4.8 -4.7,0 0,4.8 z m -25.2,0 4.7,0 0,-4.8 -4.7,0 0,4.8 z m -12.6,0 4.7,0 0,-4.8 -4.7,0 0,4.8 z m -6.3,0 4.7,0 0,-4.8 -4.7,0 0,4.8 z m -6.3,0 4.7,0 0,-4.8 -4.7,0 0,4.8 z m -6.3,0 4.7,0 0,-4.8 -4.7,0 0,4.8 z m -25.2,0 4.7,0 0,-4.8 -4.7,0 0,4.8 z m -6.3,0 4.7,0 0,-4.8 -4.7,0 0,4.8 z m -6.3,0 4.7,0 0,-4.8 -4.7,0 0,4.8 z m -18.9,0 4.7,0 0,-4.8 -4.7,0 0,4.8 z m -25.2,0 4.7,0 0,-4.8 -4.7,0 0,4.8 z m -18.9,0 4.8,0 0,-4.8 -4.7,0 0,4.8 z m -6.3,0 4.7,0 0,-4.8 -4.7,0 0,4.8 z m -6.3,0 4.7,0 0,-4.8 -4.7,0 0,4.8 z m -6.3,0 4.7,0 0,-4.8 -4.7,0 0,4.8 z m 321.3,1.6 4.7,0 0,-4.8 -4.7,0 0,4.8 z m -12.6,0 4.7,0 0,-4.8 -4.7,0 0,4.8 z m 56.7,1.6 4.7,0 0,-4.8 -4.7,0 0,4.8 z m -25.2,0 4.7,0 0,-4.8 -4.7,0 0,4.8 z m -126,0 4.7,0 0,-4.8 -4.7,0 0,4.8 z m -100.8,0 4.7,0 0,-4.8 -4.7,0 0,4.8 z m -12.6,0 4.7,0 0,-4.8 -4.7,0 0,4.8 z m -25.2,0 4.7,0 0,-4.8 -4.7,0 0,4.8 z m -50.4,0 4.7,0 0,-4.8 -4.7,0 0,4.8 z m 403.2,3.2 4.7,0 0,-4.8 -4.7,0 0,4.8 z m -31.5,0 4.7,0 0,-4.8 -4.7,0 0,4.8 z m -18.9,0 4.7,0 0,-4.8 -4.7,0 0,4.8 z m -50.4,0 4.7,0 0,-4.8 -4.7,0 0,4.8 z m -25.2,0 4.7,0 0,-4.8 -4.7,0 0,4.8 z m -12.6,0 4.7,0 0,-4.8 -4.7,0 0,4.8 z m -25.2,0 4.7,0 0,-4.8 -4.7,0 0,4.8 z m -75.6,0 4.7,0 0,-4.8 -4.7,0 0,4.8 z m -12.6,0 4.7,0 0,-4.8 -4.7,0 0,4.8 z m -25.2,0 4.7,0 0,-4.8 -4.7,0 0,4.8 z m -88.2,0 4.7,0 0,-4.8 -4.7,0 0,4.8 z m -25.2,0 4.7,0 0,-4.8 -4.7,0 0,4.8 z m -37.8,0 4.7,0 0,-4.8 -4.7,0 0,4.8 z m 340.2,3.2 4.7,0 0,-4.8 -4.7,0 0,4.8 z m -126,0 4.7,0 0,-4.8 -4.7,0 0,4.8 z m -100.8,0 4.7,0 0,-4.8 -4.7,0 0,4.8 z m -37.8,0 4.7,0 0,-4.8 -4.7,0 0,4.8 z m -50.4,0 4.7,0 0,-4.8 -4.7,0 0,4.8 z m 403.2,3.1 4.7,0 0,-4.8 -4.7,0 0,4.8 z m -37.8,0 4.7,0 0,-4.8 -4.7,0 0,4.8 z m -12.6,0 4.7,0 0,-4.8 -4.7,0 0,4.8 z m -50.4,0 4.7,0 0,-4.8 -4.7,0 0,4.8 z m -25.2,0 4.7,0 0,-4.8 -4.7,0 0,4.8 z m -12.6,0 4.7,0 0,-4.8 -4.7,0 0,4.8 z m -25.2,0 4.7,0 0,-4.8 -4.7,0 0,4.8 z m -75.6,0 4.7,0 0,-4.8 -4.7,0 0,4.8 z m -12.6,0 4.7,0 0,-4.8 -4.7,0 0,4.8 z m -18.9,0 4.7,0 0,-4.8 -4.7,0 0,4.8 z m -6.3,0 4.7,0 0,-4.8 -4.7,0 0,4.8 z m -88.2,0 4.7,0 0,-4.8 -4.7,0 0,4.8 z m -25.2,0 4.7,0 0,-4.8 -4.7,0 0,4.8 z m 302.4,3.2 4.7,0 0,-4.8 -4.7,0 0,4.8 z m -126,0 4.7,0 0,-4.8 -4.7,0 0,4.8 z m -100.8,0 4.7,0 0,-4.8 -4.7,0 0,4.8 z m -37.8,0 4.7,0 0,-4.8 -4.7,0 0,4.8 z m -50.4,0 4.7,0 0,-4.8 -4.7,0 0,4.8 z m 403.2,3.2 4.7,0 0,-4.8 -4.7,0 0,4.8 z m -44.1,0 4.7,0 0,-4.8 -4.7,0 0,4.8 z m -6.3,0 4.7,0 0,-4.8 -4.7,0 0,4.8 z m -50.4,0 4.7,0 0,-4.8 -4.7,0 0,4.8 z m -25.2,0 4.7,0 0,-4.8 -4.7,0 0,4.8 z m -12.6,0 4.7,0 0,-4.8 -4.7,0 0,4.8 z m -6.3,0 4.7,0 0,-4.8 -4.7,0 0,4.8 z m -6.3,0 4.7,0 0,-4.8 -4.7,0 0,4.8 z m -6.3,0 4.7,0 0,-4.8 -4.7,0 0,4.8 z m -6.3,0 4.7,0 0,-4.8 -4.7,0 0,4.8 z m -75.6,0 4.7,0 0,-4.8 -4.7,0 0,4.8 z m -12.6,0 4.7,0 0,-4.8 -4.7,0 0,4.8 z m -12.6,0 4.7,0 0,-4.8 -4.7,0 0,4.8 z m -12.6,0 4.7,0 0,-4.8 -4.7,0 0,4.8 z m -18.9,0 4.7,0 0,-4.8 -4.7,0 0,4.8 z m -6.3,0 4.7,0 0,-4.8 -4.7,0 0,4.8 z m -6.3,0 4.7,0 0,-4.8 -4.7,0 0,4.8 z m -56.7,0 4.7,0 0,-4.8 -4.7,0 0,4.8 z m -25.2,0 4.7,0 0,-4.8 -4.7,0 0,4.8 z m 302.4,3.1 4.7,0 0,-4.8 -4.7,0 0,4.8 z m -18.9,0 4.7,0 0,-4.8 -4.7,0 0,4.8 z m -6.3,0 4.7,0 0,-4.8 -4.7,0 0,4.8 z m -6.3,0 4.7,0 0,-4.8 -4.7,0 0,4.8 z m -94.5,0 4.7,0 0,-4.8 -4.7,0 0,4.8 z m -100.8,0 4.7,0 0,-4.8 -4.7,0 0,4.8 z m -12.6,0 4.7,0 0,-4.8 -4.7,0 0,4.8 z m -6.3,0 4.7,0 0,-4.8 -4.7,0 0,4.8 z m -6.3,0 4.7,0 0,-4.8 -4.7,0 0,4.8 z m -12.6,0 4.7,0 0,-4.8 -4.7,0 0,4.8 z m -50.4,0 4.7,0 0,-4.8 -4.7,0 0,4.8 z m 403.2,3.2 4.7,0 0,-4.8 -4.7,0 0,4.8 z m -37.8,0 4.7,0 0,-4.8 -4.7,0 0,4.8 z m -12.6,0 4.7,0 0,-4.8 -4.7,0 0,4.8 z m -50.4,0 4.7,0 0,-4.8 -4.7,0 0,4.8 z m -25.2,0 4.7,0 0,-4.8 -4.7,0 0,4.8 z m -12.6,0 4.7,0 0,-4.8 -4.7,0 0,4.8 z m -25.2,0 4.7,0 0,-4.8 -4.7,0 0,4.8 z m -75.6,0 4.7,0 0,-4.8 -4.7,0 0,4.8 z m -12.6,0 4.7,0 0,-4.8 -4.7,0 0,4.8 z m -6.3,0 4.7,0 0,-4.8 -4.7,0 0,4.8 z m -18.9,0 4.7,0 0,-4.8 -4.7,0 0,4.8 z m -88.2,0 4.7,0 0,-4.8 -4.7,0 0,4.8 z m -25.2,0 4.7,0 0,-4.8 -4.7,0 0,4.8 z m 302.4,3.2 4.7,0 0,-4.8 -4.7,0 0,4.8 z m -126,0 4.7,0 0,-4.8 -4.7,0 0,4.8 z m -100.8,0 4.7,0 0,-4.8 -4.7,0 0,4.8 z m -12.6,0 4.7,0 0,-4.8 -4.7,0 0,4.8 z m -25.2,0 4.7,0 0,-4.8 -4.7,0 0,4.8 z m -50.4,0 4.7,0 0,-4.8 -4.7,0 0,4.8 z m -25.2,0 4.7,0 0,-4.8 -4.7,0 0,4.8 z m 428.4,3.1 4.7,0 0,-4.8 -4.7,0 0,4.8 z m -31.5,0 4.7,0 0,-4.8 -4.7,0 0,4.8 z m -18.9,0 4.7,0 0,-4.8 -4.7,0 0,4.8 z m -50.4,0 4.7,0 0,-4.8 -4.7,0 0,4.8 z m -25.2,0 4.7,0 0,-4.8 -4.7,0 0,4.8 z m -12.6,0 4.7,0 0,-4.8 -4.7,0 0,4.8 z m -25.2,0 4.7,0 0,-4.8 -4.7,0 0,4.8 z m -75.6,0 4.7,0 0,-4.8 -4.7,0 0,4.8 z m -12.6,0 4.7,0 0,-4.8 -4.7,0 0,4.8 z m -25.2,0 4.7,0 0,-4.8 -4.7,0 0,4.8 z m -88.2,0 4.7,0 0,-4.8 -4.7,0 0,4.8 z m -25.2,0 4.7,0 0,-4.8 -4.7,0 0,4.8 z m 327.6,3.2 4.7,0 0,-4.8 -4.7,0 0,4.8 z m -25.2,0 4.7,0 0,-4.8 -4.7,0 0,4.8 z m -126,0 4.7,0 0,-4.8 -4.7,0 0,4.8 z m -100.8,0 4.7,0 0,-4.8 -4.7,0 0,4.8 z m -12.6,0 4.7,0 0,-4.8 -4.7,0 0,4.8 z m -25.2,0 4.7,0 0,-4.8 -4.7,0 0,4.8 z m -50.4,0 4.7,0 0,-4.8 -4.7,0 0,4.8 z m -25.2,0 4.7,0 0,-4.8 -4.7,0 0,4.8 z m 428.4,3.2 4.7,0 0,-4.8 -4.7,0 0,4.8 z m -25.2,0 4.7,0 0,-4.8 -4.7,0 0,4.8 z m -25.2,0 4.7,0 0,-4.8 -4.7,0 0,4.8 z m -18.9,0 4.7,0 0,-4.8 -4.7,0 0,4.8 z m -6.3,0 4.7,0 0,-4.8 -4.7,0 0,4.8 z m -6.3,0 4.7,0 0,-4.8 -4.7,0 0,4.8 z m -18.9,0 4.7,0 0,-4.8 -4.7,0 0,4.8 z m -25.2,0 4.7,0 0,-4.8 -4.7,0 0,4.8 z m -12.6,0 4.7,0 0,-4.8 -4.7,0 0,4.8 z m -25.2,0 4.7,0 0,-4.8 -4.7,0 0,4.8 z m -56.7,0 4.7,0 0,-4.8 -4.7,0 0,4.8 z m -6.3,0 4.7,0 0,-4.8 -4.7,0 0,4.8 z m -6.3,0 4.7,0 0,-4.8 -4.7,0 0,4.8 z m -6.3,0 4.7,0 0,-4.8 -4.7,0 0,4.8 z m -12.6,0 4.7,0 0,-4.8 -4.7,0 0,4.8 z m -25.2,0 4.7,0 0,-4.8 -4.7,0 0,4.8 z m -12.6,0 4.7,0 0,-4.8 -4.7,0 0,4.8 z m -6.3,0 4.7,0 0,-4.8 -4.7,0 0,4.8 z m -6.3,0 4.7,0 0,-4.8 -4.7,0 0,4.8 z m -6.3,0 4.7,0 0,-4.8 -4.7,0 0,4.8 z m -25.2,0 4.7,0 0,-4.8 -4.7,0 0,4.8 z m -6.3,0 4.7,0 0,-4.8 -4.7,0 0,4.8 z m -6.3,0 4.7,0 0,-4.8 -4.7,0 0,4.8 z m -25.2,0 4.7,0 0,-4.8 -4.7,0 0,4.8 z m -6.3,0 4.7,0 0,-4.8 -4.7,0 0,4.8 z m -6.3,0 4.7,0 0,-4.8 -4.7,0 0,4.8 z m -25.2,0 4.8,0 0,-4.8 -4.7,0 0,4.8 z m -6.3,0 4.7,0 0,-4.8 -4.7,0 0,4.8 z m -6.3,0 4.7,0 0,-4.8 -4.7,0 0,4.8 z"
         id="path147" />
      <g
         id="g149">
        <path
           style="fill:#ffffff"
           inkscape:connector-curvature="0"
           d="m 69.2,921.8 c -0.8,-3.2 -1.5,-5.9 -2,-7.8 -0.5,-2 -0.9,-3.5 -1.2,-4.5 -0.3,-1.1 -0.5,-1.7 -0.6,-2 -0.1,-0.3 -0.1,-0.5 -0.1,-0.4 l -3.8,14.8 -3.9,0 -7.1,-26.2 5.2,0 c 0.8,3.3 1.5,5.9 2,7.9 0.5,2 0.9,3.5 1.1,4.5 0.3,1 0.4,1.7 0.5,2 0.1,0.3 0.1,0.5 0.1,0.5 0,0 0.1,0 0.1,-0.1 l 3.9,-14.8 3.9,0 c 0.8,3.3 1.5,5.9 2,7.9 0.5,2 0.9,3.5 1.1,4.5 0.3,1 0.4,1.7 0.5,2 0.1,0.3 0.1,0.5 0.1,0.5 0,0 0.1,0 0.1,-0.1 l 3.8,-14.8 5.2,0 -7.1,26.2 -3.8,0 z"
           id="path151" />
        <path
           style="fill:#ffffff"
           inkscape:connector-curvature="0"
           d="m 88.8,916.6 c 0,0.1 0.1,0.2 0.2,0.2 l 9.2,0 0,5 -14.4,0 0,-26.2 14.4,0 0,5 -9.2,0 c -0.1,0 -0.2,0.1 -0.2,0.2 l 0,5.1 c 0,0.1 0.1,0.2 0.2,0.2 l 9.2,0 0,5 -9.2,0 c -0.1,0 -0.2,0.1 -0.2,0.2 l 0,5.3 z"
           id="path153" />
        <path
           style="fill:#ffffff"
           inkscape:connector-curvature="0"
           d="m 106.1,914.8 c 0.4,0.6 0.8,1.1 1.3,1.6 0.5,0.5 1.2,0.7 2.2,0.7 0.7,0 1.4,-0.3 1.9,-0.8 0.5,-0.5 0.7,-1.2 0.7,-1.9 0,-0.6 -0.1,-1.1 -0.3,-1.6 -0.2,-0.4 -0.4,-0.7 -0.7,-1 -0.3,-0.3 -0.7,-0.5 -1.2,-0.6 -0.5,-0.2 -1,-0.3 -1.5,-0.5 -0.9,-0.3 -1.8,-0.7 -2.5,-1.1 -0.8,-0.5 -1.4,-1 -2,-1.6 -0.6,-0.6 -1,-1.3 -1.3,-2.1 -0.3,-0.8 -0.5,-1.7 -0.5,-2.6 0,-1.2 0.2,-2.3 0.5,-3.2 0.4,-1 0.9,-1.8 1.5,-2.4 0.7,-0.7 1.5,-1.2 2.4,-1.6 0.9,-0.4 2,-0.6 3.2,-0.6 0.6,0 1.3,0.1 2,0.3 0.7,0.2 1.3,0.5 1.9,0.8 0.6,0.4 1.1,0.8 1.6,1.3 0.5,0.5 0.8,1.2 1.1,1.9 l -4.5,2.2 c -0.3,-0.6 -0.6,-1 -1.1,-1.2 -0.5,-0.2 -0.9,-0.3 -1.2,-0.3 -0.7,0 -1.2,0.3 -1.7,0.8 -0.5,0.5 -0.7,1.1 -0.7,1.8 0,0.5 0.1,0.9 0.4,1.3 0.3,0.4 0.6,0.7 1,0.9 0.4,0.3 0.8,0.5 1.2,0.6 0.4,0.2 0.8,0.3 1.2,0.5 1.1,0.5 2,1 2.8,1.5 0.8,0.5 1.4,1.1 1.9,1.7 0.5,0.6 0.9,1.4 1.1,2.2 0.2,0.8 0.4,1.8 0.4,2.8 0,1.1 -0.2,2 -0.6,3 -0.4,0.9 -0.9,1.7 -1.6,2.4 -0.7,0.7 -1.4,1.2 -2.3,1.6 -0.9,0.4 -1.9,0.6 -2.9,0.6 l -0.3,0 c -1.5,0 -2.7,-0.3 -3.7,-0.9 -0.9,-0.6 -1.7,-1.2 -2.2,-1.9 -0.6,-0.8 -1.1,-1.7 -1.4,-2.8 l 3.9,-1.8 z"
           id="path155" />
        <path
           style="fill:#ffffff"
           inkscape:connector-curvature="0"
           d="m 126.7,900.9 0,-0.2 c 0,0 0,0 0,-0.1 -0.1,-0.1 -0.1,-0.1 -0.1,-0.1 l -5.6,0 0,-5 16.7,0 0,5 -5.7,0 -0.2,0.2 0,0.2 0,20.9 -5,0 0,-20.9 z"
           id="path157" />
      </g>
    </g>
  </g>
</svg>
