<svg version="1.1" xmlns="http://www.w3.org/2000/svg" xmlns:xlink="http://www.w3.org/1999/xlink" width="629.33333" height="629.33333" viewBox="157.33333,279.83333,629.33333,629.33333"><g fill="none" fill-rule="nonzero" stroke="none" stroke-width="1" stroke-linecap="butt" stroke-linejoin="miter" stroke-miterlimit="10" stroke-dasharray="" stroke-dashoffset="0" font-family="none" font-weight="none" font-size="none" text-anchor="none" style="mix-blend-mode: normal"><g id="Ebene_1"><path d="M328.9697,851.95455v0v0v-57.21212h-57.21212v-57.21212h-57.21212v-171.63636h57.21212v-57.21212h400.48485v57.21212h57.21212v171.63636h-57.21212v57.21212h-57.21212v57.21212z" fill="#ffffff"/><g fill="#000000"><rect x="33.25" y="76.23808" transform="scale(8.17316,8.17316)" width="7" height="7"/><rect x="75.25" y="76.23808" transform="scale(8.17316,8.17316)" width="7" height="7"/><path d="M500.60606,737.5303h-57.21212v-57.21212h-57.21212v114.42424h171.63636v-114.42424h-57.21212z"/></g><path d="M729.45455,337.04545v-57.21212h-114.42424v57.21212h-57.21212v57.21212h-171.63636v-57.21212h-57.21212v-57.21212h-114.42424v57.21212h-57.21212v457.69697h57.21212v57.21212h57.21212v57.21212h400.48485v-57.21212h57.21212v-57.21212h57.21212v-457.69697zM729.45455,737.5303h-57.21212v57.21212h-57.21212v57.21212h-286.06061v-57.21212h-57.21212v-57.21212h-57.21212v-171.63636h57.21212v-57.21212h400.48485v57.21212h57.21212z" fill="#ea680c"/></g></g></svg>