<?xml version="1.0" encoding="utf-8"?>
<!-- Generator: Adobe Illustrator 16.0.0, SVG Export Plug-In . SVG Version: 6.00 Build 0)  -->
<!DOCTYPE svg PUBLIC "-//W3C//DTD SVG 1.1//EN" "http://www.w3.org/Graphics/SVG/1.1/DTD/svg11.dtd">
<svg version="1.1" id="Layer_1" xmlns="http://www.w3.org/2000/svg" xmlns:xlink="http://www.w3.org/1999/xlink" x="0px" y="0px"
	 width="639.396px" height="160.681px" viewBox="0 0 639.396 160.681" enable-background="new 0 0 639.396 160.681"
	 xml:space="preserve">
<g>
	<g>
		<path fill="#FFFFFF" d="M138.277,87.171l70.797,71.283h-34.818l-53.389-53.873L93.49,130.814H58.67l44.787-43.643L30.854,14.565
			h34.818l55.195,55.196l20.311-20.311h34.82L138.277,87.171z"/>
	</g>
	<polygon fill="#FFFFFF" points="23.262,159.379 46.475,136.681 0,136.681 	"/>
	<polygon fill="#FFFFFF" points="605.822,114.835 605.822,130.695 621.68,130.695 	"/>
	<polygon fill="#FFFFFF" points="639.396,26.681 594.838,26.681 606.15,37.844 606.15,60.236 	"/>
	<polygon fill="#FFFFFF" points="145.596,43.681 202.912,43.681 189.15,28.806 189.15,0 	"/>
	<path fill="#FFFFFF" d="M286.537,95.875v34.819h-23.213V37.844l23.213,23.211L309.75,84.27V49.451h23.215V142.3l-23.215-23.213
		L286.537,95.875z"/>
	<polygon fill="#FFFFFF" points="576.761,61.055 553.15,84.27 541.15,95.875 541.15,37.844 518.743,61.055 495.932,84.27 
		472.92,107.246 443.801,136.681 337.219,136.681 337.268,154.128 321.324,136.681 53.73,136.681 30.521,160.681 455.068,160.681 
		455.068,160.681 455.842,160.681 496.136,119.333 519.15,95.875 519.15,153.908 542.56,130.695 554.055,119.087 577.15,95.875 
		577.15,130.681 599.15,130.681 599.15,37.844 	"/>
	<path fill="#FFFFFF" d="M460.914,48.833h-22.313v41.24c0,4.796-2.154,8.897-5.559,12.302c-3.404,3.406-7.729,5.105-12.525,5.105
		c-4.799,0-9.369-1.699-12.771-5.105c-3.408-3.404-5.574-7.506-5.574-12.302V49.198V44.04V15.219L373.41,44.008v0.032v0.03
		l5.752,4.292v41.712c0,11.218,4.221,20.795,12.152,28.728c7.928,7.93,17.629,11.895,28.85,11.895
		c11.219,0,20.248-3.965,28.18-11.895c7.932-7.933,11.348-17.51,11.348-28.728V73.758l40.744,0.059l24.746-25.045L460.914,48.833z"
		/>
	<path fill="#FFFFFF" d="M344.711,130.695V72.661l23.211-23.21v81.244H344.711z"/>
	<g>
		<polygon fill="#FFFFFF" points="216.096,101.105 235.844,101.105 257.92,77.909 165.963,77.909 187.928,101.105 193.461,101.105 
			193.461,130.814 250.047,130.814 250.047,106.765 216.096,106.765 		"/>
		<rect x="193.461" y="48.762" fill="#FFFFFF" width="56.586" height="24.902"/>
	</g>
	<g>
		<path fill="#FFFFFF" d="M456.383,12.14c1.695,1.717,2.543,4.02,2.543,6.908c0,1.466-0.293,2.731-0.879,3.799
			c-0.587,1.067-1.319,1.978-2.198,2.731c-0.879,0.754-1.832,1.35-2.857,1.79c-1.026,0.439-1.999,0.744-2.92,0.911
			c-0.712,0.125-1.518,0.282-2.418,0.471s-1.748,0.482-2.543,0.879c-0.796,0.398-1.455,0.932-1.979,1.601
			c-0.523,0.67-0.785,1.529-0.785,2.575v5.526h15.449c0.753,0,1.13,0.377,1.13,1.13v1.57c0,0.796-0.377,1.193-1.13,1.193h-18.274
			c-0.754,0-1.131-0.397-1.131-1.193v-8.227c0-1.633,0.304-2.972,0.911-4.019c0.606-1.046,1.359-1.894,2.261-2.543
			c0.899-0.648,1.873-1.151,2.92-1.507c1.046-0.355,2.01-0.638,2.889-0.848c0.92-0.209,1.842-0.45,2.763-0.723
			c0.921-0.271,1.737-0.628,2.449-1.067s1.288-0.983,1.728-1.633c0.439-0.648,0.659-1.454,0.659-2.417
			c0-1.884-0.514-3.286-1.539-4.208c-1.026-0.92-2.334-1.382-3.925-1.382h-9.984c-0.754,0-1.131-0.376-1.131-1.13v-1.57
			c0-0.795,0.377-1.193,1.131-1.193h9.984C452.395,9.565,454.688,10.424,456.383,12.14z"/>
		<path fill="#FFFFFF" d="M468.188,41.153c-1.109-1.382-1.664-3.119-1.664-5.212V16.913c0-2.135,0.555-3.894,1.664-5.275
			c1.109-1.382,2.983-2.073,5.621-2.073h6.719c2.679,0,4.563,0.691,5.652,2.073c1.088,1.381,1.633,3.14,1.633,5.275v19.028
			c0,2.135-0.545,3.884-1.633,5.244c-1.089,1.361-2.951,2.041-5.589,2.041h-6.846C471.15,43.226,469.298,42.535,468.188,41.153z
			 M483.135,38.359c0.48-0.649,0.723-1.748,0.723-3.297v-17.27c0-1.213-0.263-2.239-0.785-3.077
			c-0.524-0.837-1.561-1.256-3.108-1.256h-5.59c-1.591,0-2.647,0.419-3.171,1.256c-0.524,0.838-0.785,1.864-0.785,3.077v17.27
			c0,1.549,0.261,2.648,0.785,3.297c0.523,0.649,1.58,0.973,3.171,0.973h5.652C481.617,39.332,482.653,39.008,483.135,38.359z"/>
		<path fill="#FFFFFF" d="M513.403,12.14c1.695,1.717,2.543,4.02,2.543,6.908c0,1.466-0.293,2.731-0.879,3.799
			c-0.587,1.067-1.319,1.978-2.198,2.731c-0.879,0.754-1.832,1.35-2.857,1.79c-1.026,0.439-1.999,0.744-2.92,0.911
			c-0.712,0.125-1.518,0.282-2.418,0.471s-1.748,0.482-2.543,0.879c-0.796,0.398-1.455,0.932-1.979,1.601
			c-0.523,0.67-0.785,1.529-0.785,2.575v5.526h15.449c0.753,0,1.13,0.377,1.13,1.13v1.57c0,0.796-0.377,1.193-1.13,1.193h-18.274
			c-0.754,0-1.131-0.397-1.131-1.193v-8.227c0-1.633,0.304-2.972,0.911-4.019c0.606-1.046,1.359-1.894,2.261-2.543
			c0.899-0.648,1.873-1.151,2.92-1.507c1.046-0.355,2.01-0.638,2.889-0.848c0.92-0.209,1.842-0.45,2.763-0.723
			c0.921-0.271,1.737-0.628,2.449-1.067s1.288-0.983,1.728-1.633c0.439-0.648,0.659-1.454,0.659-2.417
			c0-1.884-0.514-3.286-1.539-4.208c-1.026-0.92-2.334-1.382-3.925-1.382h-9.984c-0.754,0-1.131-0.376-1.131-1.13v-1.57
			c0-0.795,0.377-1.193,1.131-1.193h9.984C509.415,9.565,511.708,10.424,513.403,12.14z"/>
		<path fill="#FFFFFF" d="M522.604,13.459c-0.796,0-1.193-0.376-1.193-1.13v-1.57c0-0.795,0.397-1.193,1.193-1.193h6.719
			c0.754,0,1.131,0.398,1.131,1.193v31.273c0,0.796-0.377,1.193-1.131,1.193h-1.569c-0.796,0-1.193-0.397-1.193-1.193V13.459
			H522.604z"/>
	</g>
</g>
</svg>
