<svg xmlns="http://www.w3.org/2000/svg" width="102.012" height="14.182" viewBox="0 0 102.01208 14.1825"><g style="line-height:559.99999046%;-inkscape-font-specification:'TeX Gyre Adventor, Normal';text-align:start" font-weight="800" font-size="19.063" font-family="Avenir LT Std" letter-spacing="0" word-spacing="0" fill="#fff"><path style="-inkscape-font-specification:'Avenir LT Std Ultra-Bold'" d="M0 13.84h2.974V8.577h5.623V5.833H2.974V3.088h6.08V.343H0V13.84zM20.83 13.84h-9.512v-2.746h6.539V8.35h-5.852V5.604h5.852V3.088H11.66V.343h9.17V13.84zM23.344 13.84h9.512v-2.746h-6.538V8.35h5.852V5.604h-5.852V3.088h6.195V.343h-9.169V13.84zM35.255 13.84h4.861c4.023 0 7.587-2.345 7.587-6.71 0-4.938-3.64-6.787-7.987-6.787h-4.46V13.84zM38.23 3.087h1.754c2.516 0 4.632 1.24 4.632 3.889 0 3.069-2.078 4.117-4.842 4.117H38.23V3.088zM60.337 13.84H54.81c-2.402 0-5.07-.935-5.07-3.756 0-1.754 1.181-3.069 2.954-3.298v-.038c-1.391-.438-2.325-1.468-2.325-2.974 0-2.935 2.573-3.43 4.937-3.43h5.032v13.495zM57.364 2.86h-2.021c-.934 0-2.002.285-2.002 1.41 0 1.087.953 1.468 1.868 1.468h2.155V2.859zm0 5.394h-2.25c-.972 0-2.402.21-2.402 1.487 0 1.182 1.049 1.582 1.983 1.582h2.669V8.254zM60.708 13.84h3.279l1.124-2.86h5.242l1.163 2.86h3.355L69 .342h-2.46L60.709 13.84zm8.635-5.376h-3.298l1.64-4.194 1.658 4.194zM87.324 1.982C86.18.515 84.274 0 82.768 0c-4.213 0-7.282 2.764-7.282 7.091s3.069 7.091 7.282 7.091c1.849 0 3.755-.743 4.88-2.344l-2.479-1.85c-.61.916-1.582 1.45-2.783 1.45-2.154 0-3.812-1.83-3.812-4.347 0-2.516 1.658-4.346 3.908-4.346 1.105 0 1.963.4 2.554 1.106l2.288-1.869zM102.012 13.84h-2.974V7.433l-5.49 6.405h-4.155l6.52-7.224L89.906.343h3.89l5.241 5.604V.343h2.974V13.84z"/></g></svg>