<svg xmlns="http://www.w3.org/2000/svg" width="46.381" height="14.182" viewBox="0 0 46.38055 14.1825"><g style="line-height:559.99999046%;-inkscape-font-specification:'TeX Gyre Adventor, Normal';text-align:start" font-weight="800" font-size="19.063" font-family="Avenir LT Std" letter-spacing="0" word-spacing="0" fill="#fff"><path style="-inkscape-font-specification:'Avenir LT Std Ultra-Bold'" d="M0 13.84h2.974V.342H0V13.84zM18.488 13.84h-2.974V4.231h-.038l-5.89 9.607H5.697V.343h2.974v9.379h.038L14.447.343h4.041V13.84zM30.392 13.84h-2.974V8.577h-5.623V5.833h5.623V3.088h-6.08V.343h9.054V13.84zM31.817 7.091c0 4.327 3.069 7.091 7.282 7.091 4.212 0 7.282-2.764 7.282-7.09C46.38 2.763 43.31 0 39.099 0c-4.213 0-7.282 2.764-7.282 7.091zm3.088 0c0-2.516 1.658-4.346 4.194-4.346 2.535 0 4.193 1.83 4.193 4.346s-1.658 4.346-4.193 4.346c-2.536 0-4.194-1.83-4.194-4.346z"/></g></svg>