<svg xmlns="http://www.w3.org/2000/svg" viewBox="0 0 168.40594 22.32" height="22.32" width="168.406"><title>Live_Music</title><g style="line-height:559.99999046%;-inkscape-font-specification:'TeX Gyre Adventor, Normal';text-align:start" font-weight="800" font-size="30" font-family="Avenir LT Std" letter-spacing="0" word-spacing="0" fill="#fff"><path style="-inkscape-font-specification:'Avenir LT Std Ultra-Bold'" d="M0 21.78h13.35v-4.32H4.68V.54H0v21.24zM15.873 21.78h4.68V.54h-4.68v21.24zM31.23 21.78h3.75L43.74.54h-5.01l-5.34 13.92h-.06L28.08.54h-5.34l8.49 21.24zM61.083 21.78h-14.97v-4.32h10.29v-4.32h-9.21V8.82h9.21V4.86h-9.75V.54h14.43v21.24zM73.765 21.78h4.68V5.49h.06l5.37 16.29h3.57l5.58-16.29h.06v16.29h4.68V.54h-7.05l-4.92 13.86h-.06L80.845.54h-7.08v21.24zM119.976.54h-4.68v12.87c0 2.61-1.8 4.59-4.26 4.59-2.49 0-4.29-1.98-4.29-4.59V.54h-4.68v13.05c0 5.01 3.06 8.73 8.97 8.73 5.88 0 8.94-3.72 8.94-8.73V.54zM122.713 2.22c1.8-1.59 4.11-2.22 6.51-2.22 4.17 0 8.1 2.37 8.1 6.9 0 7.08-9.96 4.98-9.96 8.88 0 1.5 1.71 2.22 3.24 2.22 1.56 0 3.12-.75 4.08-2.01l3.33 3.66c-2.01 1.86-4.41 2.67-7.14 2.67-4.38 0-8.19-2.25-8.19-6.99 0-7.44 9.78-4.95 9.78-8.82 0-1.59-1.83-2.19-3.15-2.19-1.14 0-2.64.45-3.39 1.41l-3.21-3.51zM141.44 21.78h4.68V.54h-4.68v21.24zM149.776 3.12c1.8-2.31 4.8-3.12 7.17-3.12 6.63 0 11.46 4.35 11.46 11.16 0 6.81-4.83 11.16-11.46 11.16-2.91 0-5.91-1.17-7.68-3.69l3.9-2.91c.96 1.44 2.49 2.28 4.38 2.28 3.39 0 6-2.88 6-6.84s-2.61-6.84-6.15-6.84c-1.74 0-3.09.63-4.02 1.74l-3.6-2.94z"/></g></svg>