<?xml version="1.0" encoding="UTF-8" standalone="no"?>
<!-- Created with Inkscape (http://www.inkscape.org/) -->

<svg
   xmlns:dc="http://purl.org/dc/elements/1.1/"
   xmlns:cc="http://creativecommons.org/ns#"
   xmlns:rdf="http://www.w3.org/1999/02/22-rdf-syntax-ns#"
   xmlns:svg="http://www.w3.org/2000/svg"
   xmlns="http://www.w3.org/2000/svg"
   xmlns:sodipodi="http://sodipodi.sourceforge.net/DTD/sodipodi-0.dtd"
   xmlns:inkscape="http://www.inkscape.org/namespaces/inkscape"
   width="800"
   height="170"
   viewBox="0 0 800.00001 170"
   id="svg4322"
   version="1.1"
   inkscape:version="0.91 r13725"
   sodipodi:docname="Banner_JH-Sued-2016.svg">
  <defs
     id="defs4324" />
  <sodipodi:namedview
     id="base"
     pagecolor="#ffffff"
     bordercolor="#666666"
     borderopacity="1.0"
     inkscape:pageopacity="0.0"
     inkscape:pageshadow="2"
     inkscape:zoom="0.98994949"
     inkscape:cx="412.13896"
     inkscape:cy="72.778757"
     inkscape:document-units="px"
     inkscape:current-layer="layer1"
     showgrid="false"
     units="px"
     inkscape:window-width="1596"
     inkscape:window-height="861"
     inkscape:window-x="0"
     inkscape:window-y="18"
     inkscape:window-maximized="0" />
  <metadata
     id="metadata4327">
    <rdf:RDF>
      <cc:Work
         rdf:about="">
        <dc:format>image/svg+xml</dc:format>
        <dc:type
           rdf:resource="http://purl.org/dc/dcmitype/StillImage" />
        <dc:title></dc:title>
      </cc:Work>
    </rdf:RDF>
  </metadata>
  <g
     inkscape:label="Ebene 1"
     inkscape:groupmode="layer"
     id="layer1"
     transform="translate(0,-882.36214)">
    <g
       transform="translate(297,610.36214)"
       id="g25">
      <g
         id="g27">
        <g
           id="g29">
          <path
             style="fill:#ea690b"
             inkscape:connector-curvature="0"
             d="m -292,290.2 0,13.1 0,13.9 0,13.9 0,13.9 0,13.9 0,13.9 0,13.9 0,14.7 13.9,0 0,13.9 13.9,0 0,13.7 27,0 13.9,0 13.9,0 13.9,0 13.9,0 14.7,0 0,-13.9 13.9,0 0,-13.9 13.9,0 0,-14.7 0,-13.9 0,-13.9 0,-13.9 0,-13.9 0,-13.9 0,-13.9 0,-13.1 -13.9,0 0,-13.9 -27.8,0 0,13.9 -13.9,0 0,13.9 -14.7,0 -13.9,0 -13.1,0 0,-13.9 -13.9,0 0,-13.9 -27.8,0 0,13.9 -13.9,0 z m 13.9,55.5 10.8,0 0,-13.9 100.3,0 0,13.9 13.9,0 0,13.1 0,13.9 0,14.7 -13.9,0 0,13.9 -13.9,0 0,13.9 -14.7,0 -13.9,0 -13.9,0 -13.9,0 -13.1,0 0,-13.9 -13.9,0 0,-13.9 -13.9,0 0,-14.7 0,-13.9 0,-13.1 z"
             id="path31" />
        </g>
      </g>
      <g
         id="g33">
        <path
           style="fill:#ffffff"
           inkscape:connector-curvature="0"
           d="m -279.4,346.2 0,13.3 0,13.9 0,13.9 16,0 0,14 13,0 0,15 14.8,0 13.9,0 13.9,0 13.9,0 13.6,0 0,-15 13,0 0,-14 13,0 0,-13.9 0,-13.9 0,-13.3 -13,0 0,-14 -12.7,0 -14,0 -13.9,0 -13.9,0 -13.9,0 -33.8,0 0,14 -9.9,0 z"
           id="path35" />
        <rect
           x="-180.39999"
           y="359.20001"
           width="13"
           height="15"
           id="rect37" />
        <rect
           x="-263.39999"
           y="359.20001"
           width="13"
           height="15"
           id="rect39" />
        <rect
           x="-209.39999"
           y="374.20001"
           width="14"
           height="13"
           id="rect41" />
        <rect
           x="-237.39999"
           y="387.20001"
           width="42"
           height="14"
           id="rect43" />
        <rect
           x="-237.39999"
           y="374.20001"
           width="15"
           height="13"
           id="rect45" />
      </g>
    </g>
    <g
       transform="translate(297,610.36214)"
       id="g91">
      <polygon
         style="fill:#ea690b"
         points="0.1,409.2 0.1,405 0.1,437 32.9,405 215.4,405 269.5,351.8 0.1,351.8 "
         id="polygon93" />
      <polygon
         style="fill:#00a5dd"
         points="29.7,352.3 500.1,352.3 500.1,333.2 500.1,275.9 0.1,275.9 0.1,333.2 0.1,352.3 0.1,381.9 "
         id="polygon95" />
      <path
         style="fill:#ffffff"
         inkscape:connector-curvature="0"
         d="m 468.1,298 4.7,0 0,-4.7 -4.7,0 0,4.7 z m -6.3,0 4.7,0 0,-4.7 -4.7,0 0,4.7 z m -6.3,0 4.7,0 0,-4.7 -4.7,0 0,4.7 z m -6.3,0 4.7,0 0,-4.7 -4.7,0 0,4.7 z m -6.2,0 4.7,0 0,-4.7 -4.7,0 0,4.7 z m -12.6,0 4.7,0 0,-4.7 -4.7,0 0,4.7 z m -25.2,0 4.7,0 0,-4.7 -4.7,0 0,4.7 z m -18.9,0 4.7,0 0,-4.7 -4.7,0 0,4.7 z m -6.3,0 4.7,0 0,-4.7 -4.7,0 0,4.7 z m -6.3,0 4.7,0 0,-4.7 -4.7,0 0,4.7 z m -31.5,0 4.7,0 0,-4.7 -4.7,0 0,4.7 z m -25.2,0 4.7,0 0,-4.7 -4.7,0 0,4.7 z m -25.2,0 4.7,0 0,-4.7 -4.7,0 0,4.7 z m -56.6,0 4.7,0 0,-4.7 -4.7,0 0,4.7 z m -6.3,0 4.7,0 0,-4.7 -4.7,0 0,4.7 z m -6.3,0 4.7,0 0,-4.7 -4.7,0 0,4.7 z m -6.3,0 4.7,0 0,-4.7 -4.7,0 0,4.7 z m -12.6,0 4.7,0 0,-4.7 -4.7,0 0,4.7 z m -25.2,0 4.7,0 0,-4.7 -4.7,0 0,4.7 z m -12.6,0 4.7,0 0,-4.7 -4.7,0 0,4.7 z m -6.3,0 4.7,0 0,-4.7 -4.7,0 0,4.7 z m -6.3,0 4.7,0 0,-4.7 -4.7,0 0,4.7 z m -6.3,0 4.7,0 0,-4.7 -4.7,0 0,4.7 z m -25.2,0 4.7,0 0,-4.7 -4.7,0 0,4.7 z m -6.3,0 4.7,0 0,-4.7 -4.7,0 0,4.7 z m -6.3,0 4.7,0 0,-4.7 -4.7,0 0,4.7 z m -18.8,0 4.7,0 0,-4.7 -4.7,0 0,4.7 z m -25.2,0 4.7,0 0,-4.7 -4.7,0 0,4.7 z m -18.9,0 4.7,0 0,-4.7 -4.7,0 0,4.7 z m -6.3,0 4.7,0 0,-4.7 -4.7,0 0,4.7 z m -6.3,0 4.7,0 0,-4.7 -4.7,0 0,4.7 z m -6.3,0 4.7,0 0,-4.7 -4.7,0 0,4.7 z m 321.1,1.6 4.7,0 0,-4.7 -4.7,0 0,4.7 z m -12.6,0 4.7,0 0,-4.7 -4.7,0 0,4.7 z m 56.7,1.5 4.7,0 0,-4.7 -4.7,0 0,4.7 z m -25.2,0 4.7,0 0,-4.7 -4.7,0 0,4.7 z m -125.9,0 4.7,0 0,-4.7 -4.7,0 0,4.7 z m -100.8,0 4.7,0 0,-4.7 -4.7,0 0,4.7 z m -12.6,0 4.7,0 0,-4.7 -4.7,0 0,4.7 z m -25.2,0 4.7,0 0,-4.7 -4.7,0 0,4.7 z m -50.3,0 4.7,0 0,-4.7 -4.7,0 0,4.7 z m 402.9,3.2 4.7,0 0,-4.7 -4.7,0 0,4.7 z m -31.4,0 4.7,0 0,-4.7 -4.7,0 0,4.7 z m -18.9,0 4.7,0 0,-4.7 -4.7,0 0,4.7 z m -50.4,0 4.7,0 0,-4.7 -4.7,0 0,4.7 z m -25.2,0 4.7,0 0,-4.7 -4.7,0 0,4.7 z m -12.6,0 4.7,0 0,-4.7 -4.7,0 0,4.7 z m -25.2,0 4.7,0 0,-4.7 -4.7,0 0,4.7 z m -75.5,0 4.7,0 0,-4.7 -4.7,0 0,4.7 z m -12.6,0 4.7,0 0,-4.7 -4.7,0 0,4.7 z m -25.2,0 4.7,0 0,-4.7 -4.7,0 0,4.7 z m -88.1,0 4.7,0 0,-4.7 -4.7,0 0,4.7 z m -25.2,0 4.7,0 0,-4.7 -4.7,0 0,4.7 z m -37.8,0 4.7,0 0,-4.7 -4.7,0 0,4.7 z m 340,3.2 4.7,0 0,-4.7 -4.7,0 0,4.7 z m -125.9,0 4.7,0 0,-4.7 -4.7,0 0,4.7 z m -100.8,0 4.7,0 0,-4.7 -4.7,0 0,4.7 z m -37.8,0 4.7,0 0,-4.7 -4.7,0 0,4.7 z m -50.3,0 4.7,0 0,-4.7 -4.7,0 0,4.7 z m 402.9,3.1 4.7,0 0,-4.7 -4.7,0 0,4.7 z m -37.7,0 4.7,0 0,-4.7 -4.7,0 0,4.7 z m -12.6,0 4.7,0 0,-4.7 -4.7,0 0,4.7 z m -50.4,0 4.7,0 0,-4.7 -4.7,0 0,4.7 z m -25.2,0 4.7,0 0,-4.7 -4.7,0 0,4.7 z m -12.6,0 4.7,0 0,-4.7 -4.7,0 0,4.7 z m -25.2,0 4.7,0 0,-4.7 -4.7,0 0,4.7 z m -75.5,0 4.7,0 0,-4.7 -4.7,0 0,4.7 z m -12.6,0 4.7,0 0,-4.7 -4.7,0 0,4.7 z m -18.9,0 4.7,0 0,-4.7 -4.7,0 0,4.7 z m -6.3,0 4.7,0 0,-4.7 -4.7,0 0,4.7 z m -88.1,0 4.7,0 0,-4.7 -4.7,0 0,4.7 z m -25.2,0 4.7,0 0,-4.7 -4.7,0 0,4.7 z m 302.2,3.2 4.7,0 0,-4.8 -4.7,0 0,4.8 z m -125.9,0 4.7,0 0,-4.8 -4.7,0 0,4.8 z m -100.8,0 4.7,0 0,-4.8 -4.7,0 0,4.8 z m -37.8,0 4.7,0 0,-4.8 -4.7,0 0,4.8 z m -50.3,0 4.7,0 0,-4.8 -4.7,0 0,4.8 z m 402.9,3.2 4.7,0 0,-4.7 -4.7,0 0,4.7 z m -44,0 4.7,0 0,-4.7 -4.7,0 0,4.7 z m -6.3,0 4.7,0 0,-4.7 -4.7,0 0,4.7 z m -50.4,0 4.7,0 0,-4.7 -4.7,0 0,4.7 z m -25.2,0 4.7,0 0,-4.7 -4.7,0 0,4.7 z m -12.6,0 4.7,0 0,-4.7 -4.7,0 0,4.7 z m -6.3,0 4.7,0 0,-4.7 -4.7,0 0,4.7 z m -6.3,0 4.7,0 0,-4.7 -4.7,0 0,4.7 z m -6.3,0 4.7,0 0,-4.7 -4.7,0 0,4.7 z m -6.3,0 4.7,0 0,-4.7 -4.7,0 0,4.7 z m -75.5,0 4.7,0 0,-4.7 -4.7,0 0,4.7 z m -12.6,0 4.7,0 0,-4.7 -4.7,0 0,4.7 z m -12.6,0 4.7,0 0,-4.7 -4.7,0 0,4.7 z m -12.6,0 4.7,0 0,-4.7 -4.7,0 0,4.7 z m -18.9,0 4.7,0 0,-4.7 -4.7,0 0,4.7 z m -6.3,0 4.7,0 0,-4.7 -4.7,0 0,4.7 z m -6.3,0 4.7,0 0,-4.7 -4.7,0 0,4.7 z m -56.6,0 4.7,0 0,-4.7 -4.7,0 0,4.7 z m -25.2,0 4.7,0 0,-4.7 -4.7,0 0,4.7 z m 302.2,3.1 4.7,0 0,-4.7 -4.7,0 0,4.7 z m -18.9,0 4.7,0 0,-4.7 -4.7,0 0,4.7 z m -6.3,0 4.7,0 0,-4.7 -4.7,0 0,4.7 z m -6.3,0 4.7,0 0,-4.7 -4.7,0 0,4.7 z m -94.4,0 4.7,0 0,-4.7 -4.7,0 0,4.7 z m -100.8,0 4.7,0 0,-4.7 -4.7,0 0,4.7 z m -12.6,0 4.7,0 0,-4.7 -4.7,0 0,4.7 z m -6.3,0 4.7,0 0,-4.7 -4.7,0 0,4.7 z m -6.3,0 4.7,0 0,-4.7 -4.7,0 0,4.7 z m -12.6,0 4.7,0 0,-4.7 -4.7,0 0,4.7 z m -50.3,0 4.7,0 0,-4.7 -4.7,0 0,4.7 z m 402.9,3.2 4.7,0 0,-4.7 -4.7,0 0,4.7 z m -37.7,0 4.7,0 0,-4.7 -4.7,0 0,4.7 z m -12.6,0 4.7,0 0,-4.7 -4.7,0 0,4.7 z m -50.4,0 4.7,0 0,-4.7 -4.7,0 0,4.7 z m -25.2,0 4.7,0 0,-4.7 -4.7,0 0,4.7 z m -12.6,0 4.7,0 0,-4.7 -4.7,0 0,4.7 z m -25.2,0 4.7,0 0,-4.7 -4.7,0 0,4.7 z m -75.5,0 4.7,0 0,-4.7 -4.7,0 0,4.7 z m -12.6,0 4.7,0 0,-4.7 -4.7,0 0,4.7 z m -6.3,0 4.7,0 0,-4.7 -4.7,0 0,4.7 z m -18.9,0 4.7,0 0,-4.7 -4.7,0 0,4.7 z m -88.1,0 4.7,0 0,-4.7 -4.7,0 0,4.7 z m -25.2,0 4.7,0 0,-4.7 -4.7,0 0,4.7 z m 302.2,3.1 4.7,0 0,-4.7 -4.7,0 0,4.7 z m -125.9,0 4.7,0 0,-4.7 -4.7,0 0,4.7 z m -100.8,0 4.7,0 0,-4.7 -4.7,0 0,4.7 z m -12.6,0 4.7,0 0,-4.7 -4.7,0 0,4.7 z m -25.2,0 4.7,0 0,-4.7 -4.7,0 0,4.7 z m -50.3,0 4.7,0 0,-4.7 -4.7,0 0,4.7 z m -25.2,0 4.7,0 0,-4.7 -4.7,0 0,4.7 z m 428.1,3.2 4.7,0 0,-4.7 -4.7,0 0,4.7 z m -31.4,0 4.7,0 0,-4.7 -4.7,0 0,4.7 z m -18.9,0 4.7,0 0,-4.7 -4.7,0 0,4.7 z m -50.4,0 4.7,0 0,-4.7 -4.7,0 0,4.7 z m -25.2,0 4.7,0 0,-4.7 -4.7,0 0,4.7 z m -12.6,0 4.7,0 0,-4.7 -4.7,0 0,4.7 z m -25.2,0 4.7,0 0,-4.7 -4.7,0 0,4.7 z m -75.5,0 4.7,0 0,-4.7 -4.7,0 0,4.7 z m -12.6,0 4.7,0 0,-4.7 -4.7,0 0,4.7 z m -25.2,0 4.7,0 0,-4.7 -4.7,0 0,4.7 z m -88.1,0 4.7,0 0,-4.7 -4.7,0 0,4.7 z m -25.2,0 4.7,0 0,-4.7 -4.7,0 0,4.7 z m 327.4,3.2 4.7,0 0,-4.8 -4.7,0 0,4.8 z m -25.2,0 4.7,0 0,-4.8 -4.7,0 0,4.8 z m -125.9,0 4.7,0 0,-4.8 -4.7,0 0,4.8 z m -100.8,0 4.7,0 0,-4.8 -4.7,0 0,4.8 z m -12.6,0 4.7,0 0,-4.8 -4.7,0 0,4.8 z m -25.2,0 4.7,0 0,-4.8 -4.7,0 0,4.8 z m -50.3,0 4.7,0 0,-4.8 -4.7,0 0,4.8 z m -25.2,0 4.7,0 0,-4.8 -4.7,0 0,4.8 z m 428.1,3.1 4.7,0 0,-4.7 -4.7,0 0,4.7 z m -25.1,0 4.7,0 0,-4.7 -4.7,0 0,4.7 z m -25.2,0 4.7,0 0,-4.7 -4.7,0 0,4.7 z m -18.9,0 4.7,0 0,-4.7 -4.7,0 0,4.7 z m -6.3,0 4.7,0 0,-4.7 -4.7,0 0,4.7 z m -6.3,0 4.7,0 0,-4.7 -4.7,0 0,4.7 z m -18.9,0 4.7,0 0,-4.7 -4.7,0 0,4.7 z m -25.2,0 4.7,0 0,-4.7 -4.7,0 0,4.7 z m -12.6,0 4.7,0 0,-4.7 -4.7,0 0,4.7 z m -25.2,0 4.7,0 0,-4.7 -4.7,0 0,4.7 z m -56.6,0 4.7,0 0,-4.7 -4.7,0 0,4.7 z m -6.3,0 4.7,0 0,-4.7 -4.7,0 0,4.7 z m -6.3,0 4.7,0 0,-4.7 -4.7,0 0,4.7 z m -6.3,0 4.7,0 0,-4.7 -4.7,0 0,4.7 z m -12.6,0 4.7,0 0,-4.7 -4.7,0 0,4.7 z m -25.2,0 4.7,0 0,-4.7 -4.7,0 0,4.7 z m -12.6,0 4.7,0 0,-4.7 -4.7,0 0,4.7 z m -6.3,0 4.7,0 0,-4.7 -4.7,0 0,4.7 z m -6.3,0 4.7,0 0,-4.7 -4.7,0 0,4.7 z m -6.3,0 4.7,0 0,-4.7 -4.7,0 0,4.7 z m -25.2,0 4.7,0 0,-4.7 -4.7,0 0,4.7 z m -6.3,0 4.7,0 0,-4.7 -4.7,0 0,4.7 z m -6.3,0 4.7,0 0,-4.7 -4.7,0 0,4.7 z m -25.1,0 4.7,0 0,-4.7 -4.7,0 0,4.7 z m -6.3,0 4.7,0 0,-4.7 -4.7,0 0,4.7 z m -6.3,0 4.7,0 0,-4.7 -4.7,0 0,4.7 z m -25.2,0 4.7,0 0,-4.7 -4.7,0 0,4.7 z m -6.3,0 4.7,0 0,-4.7 -4.7,0 0,4.7 z m -6.3,0 4.7,0 0,-4.7 -4.7,0 0,4.7 z"
         id="path97" />
      <g
         id="g99">
        <path
           style="fill:#ffffff"
           inkscape:connector-curvature="0"
           d="m 46.6,386.1 c 0.3,0.6 0.8,1.1 1.3,1.6 0.5,0.5 1.2,0.7 2.2,0.7 0.7,0 1.4,-0.3 1.9,-0.8 0.5,-0.5 0.7,-1.2 0.7,-1.8 0,-0.6 -0.1,-1.1 -0.3,-1.6 -0.2,-0.4 -0.4,-0.7 -0.7,-1 -0.3,-0.3 -0.7,-0.5 -1.2,-0.6 -0.5,-0.2 -1,-0.3 -1.5,-0.5 -0.9,-0.3 -1.8,-0.7 -2.5,-1.1 -0.8,-0.5 -1.4,-1 -2,-1.6 -0.6,-0.6 -1,-1.3 -1.3,-2.1 -0.3,-0.8 -0.5,-1.7 -0.5,-2.6 0,-1.2 0.2,-2.3 0.5,-3.2 0.4,-1 0.9,-1.8 1.5,-2.4 0.7,-0.7 1.5,-1.2 2.4,-1.6 0.9,-0.4 2,-0.6 3.2,-0.6 0.6,0 1.3,0.1 2,0.3 0.7,0.2 1.3,0.5 1.9,0.8 0.6,0.4 1.1,0.8 1.6,1.3 0.5,0.5 0.8,1.2 1,1.9 l -4.5,2.2 c -0.3,-0.6 -0.6,-1 -1.1,-1.2 -0.5,-0.2 -0.9,-0.3 -1.2,-0.3 -0.7,0 -1.2,0.3 -1.7,0.8 -0.5,0.5 -0.7,1.1 -0.7,1.8 0,0.5 0.1,0.9 0.4,1.3 0.3,0.3 0.6,0.7 1,0.9 0.4,0.3 0.8,0.5 1.2,0.6 0.4,0.2 0.8,0.3 1.2,0.5 1.1,0.5 2,1 2.8,1.5 0.8,0.5 1.4,1.1 1.9,1.7 0.5,0.6 0.9,1.4 1.1,2.2 0.2,0.8 0.4,1.8 0.4,2.8 0,1.1 -0.2,2 -0.6,3 -0.4,0.9 -0.9,1.7 -1.6,2.4 -0.7,0.7 -1.4,1.2 -2.3,1.6 -0.9,0.4 -1.9,0.6 -2.9,0.6 l -0.3,0 c -1.5,0 -2.7,-0.3 -3.7,-0.9 -0.9,-0.6 -1.7,-1.2 -2.2,-1.9 -0.6,-0.8 -1.1,-1.7 -1.4,-2.8 l 4,-1.9 z"
           id="path101" />
        <path
           style="fill:#ffffff"
           inkscape:connector-curvature="0"
           d="m 61.5,366.9 5,0 0,18 c 0,0.5 0.1,1 0.4,1.4 0.2,0.4 0.5,0.8 0.9,1 0.4,0.3 0.8,0.5 1.2,0.7 0.4,0.2 0.9,0.2 1.3,0.2 0.5,0 0.9,-0.1 1.3,-0.2 0.4,-0.2 0.8,-0.4 1.1,-0.7 0.3,-0.3 0.6,-0.6 0.8,-1 0.2,-0.4 0.3,-0.8 0.3,-1.2 l 0,-18.2 5,0 0,18.7 c 0,1.1 -0.2,2.1 -0.7,3.1 -0.5,0.9 -1.1,1.7 -1.9,2.4 -0.8,0.7 -1.7,1.2 -2.7,1.6 -1,0.4 -2.1,0.6 -3.2,0.6 -1.1,0 -2.2,-0.2 -3.3,-0.6 -1,-0.4 -2,-0.9 -2.8,-1.6 -0.8,-0.7 -1.5,-1.5 -2,-2.4 -0.5,-0.9 -0.7,-2 -0.7,-3.1 l 0,-18.7 z m 2.7,-4.7 c 0,-0.7 0.2,-1.2 0.7,-1.7 0.5,-0.4 1,-0.7 1.7,-0.7 0.7,0 1.2,0.2 1.7,0.7 0.5,0.4 0.7,1 0.7,1.7 0,0.7 -0.2,1.2 -0.7,1.7 -0.5,0.5 -1,0.7 -1.7,0.7 -0.7,0 -1.2,-0.2 -1.7,-0.7 -0.5,-0.5 -0.7,-1 -0.7,-1.7 z m 7.2,0 c 0,-0.7 0.2,-1.2 0.7,-1.7 0.5,-0.4 1,-0.7 1.7,-0.7 0.7,0 1.2,0.2 1.7,0.7 0.5,0.4 0.7,1 0.7,1.7 0,0.7 -0.2,1.2 -0.7,1.7 -0.5,0.5 -1,0.7 -1.7,0.7 -0.7,0 -1.2,-0.2 -1.7,-0.7 -0.4,-0.5 -0.7,-1 -0.7,-1.7 z"
           id="path103" />
        <path
           style="fill:#ffffff"
           inkscape:connector-curvature="0"
           d="m 82.8,366.9 8.6,0 c 1.8,0 3.5,0.3 5.1,1 1.6,0.7 3,1.6 4.2,2.8 1.2,1.2 2.1,2.6 2.8,4.2 0.7,1.6 1,3.3 1,5.1 0,1.8 -0.3,3.5 -1,5.1 -0.7,1.6 -1.6,3 -2.8,4.2 -1.2,1.2 -2.6,2.1 -4.2,2.8 -1.6,0.7 -3.3,1 -5.1,1 l -8.6,0 0,-26.2 z m 8.6,21.2 c 1.2,0 2.3,-0.2 3.3,-0.6 1,-0.4 1.9,-0.9 2.6,-1.7 0.7,-0.7 1.3,-1.6 1.7,-2.6 0.4,-1 0.6,-2.1 0.6,-3.3 0,-1.2 -0.2,-2.3 -0.6,-3.3 -0.4,-1 -0.9,-1.9 -1.6,-2.6 -0.7,-0.7 -1.5,-1.3 -2.5,-1.7 -1,-0.4 -2.1,-0.6 -3.3,-0.6 l -3.6,0 c -0.1,0 -0.2,0.1 -0.2,0.2 l 0,15.8 c 0,0.1 0.1,0.2 0.2,0.2 l 3.4,0 z"
           id="path105" />
      </g>
    </g>
  </g>
</svg>
