<?xml version="1.0" encoding="utf-8"?>
<!-- Generator: Adobe Illustrator 23.0.0, SVG Export Plug-In . SVG Version: 6.00 Build 0)  -->
<svg version="1.0" xmlns="http://www.w3.org/2000/svg" xmlns:xlink="http://www.w3.org/1999/xlink" x="0px" y="0px"
	 viewBox="0 0 398.98 325.61" style="enable-background:new 0 0 398.98 325.61;" xml:space="preserve">
<style type="text/css">
	.st0{clip-path:url(#SVGID_2_);fill:url(#SVGID_3_);}
</style>
<g id="Back">
	<rect width="398.98" height="325.61"/>
</g>
<g id="Logo">
	<g>
		<defs>
			<rect id="SVGID_1_" x="28.53" y="12.85" width="342.97" height="278.87"/>
		</defs>
		<clipPath id="SVGID_2_">
			<use xlink:href="#SVGID_1_"  style="overflow:visible;"/>
		</clipPath>
		<linearGradient id="SVGID_3_" gradientUnits="userSpaceOnUse" x1="28.526" y1="152.2847" x2="371.5005" y2="152.2847">
			<stop  offset="0" style="stop-color:#0085B1"/>
			<stop  offset="1" style="stop-color:#00A356"/>
		</linearGradient>
		<path class="st0" d="M359.76,280.69c0,0.64-0.35,1.12-1.06,1.44s-1.89,0.34-3.53,0.48c-3.84,0.33-11.62-0.49-13.66-0.76v9.03
			c2.59,0.55,10.64,0.83,13.56,0.83c3.53,0,6.53-0.53,8.99-1.59c2.47-1.06,4.33-2.5,5.57-4.3c1.24-1.8,1.86-3.82,1.86-6.04
			c0-2.56-0.68-4.59-2.04-6.07c-1.36-1.48-2.97-2.55-4.81-3.21c-1.85-0.66-4.12-1.24-6.8-1.75c-2.08-0.4-3.58-0.78-4.49-1.14
			c-0.91-0.35-1.36-0.89-1.36-1.59c0-1.48,1.53-2.22,4.59-2.22c3.09,0,7.98-0.16,13.57,0.66v-9.04c0,0-11.05-0.73-13.47-0.73
			c-3.53,0-6.52,0.52-8.99,1.57c-2.47,1.04-4.33,2.48-5.57,4.3c-1.24,1.82-1.86,3.84-1.86,6.07c0,2.56,0.67,4.59,2.02,6.09
			c1.34,1.5,2.92,2.58,4.73,3.24c1.81,0.66,4.08,1.27,6.8,1.85c2.12,0.44,3.64,0.85,4.56,1.21
			C359.3,279.39,359.76,279.95,359.76,280.69 M331.28,255.5h-28.67v35.41h29.32v-9.01H314.3v-4.65h14.91v-8.6H314.3v-4.15h16.98
			V255.5z M281.34,244.08c0-2.36,1.91-4.27,4.27-4.27c2.35,0,4.27,1.91,4.27,4.27c0,2.35-1.91,4.26-4.27,4.26
			C283.25,248.34,281.34,246.43,281.34,244.08 M284.57,250.22v5.28h-4.72v35.41h11.89V255.5h-5.11v-5.28
			c2.96-0.5,5.21-3.05,5.21-6.14c0-3.45-2.8-6.24-6.24-6.24c-3.45,0-6.25,2.79-6.25,6.24C279.36,247.17,281.62,249.72,284.57,250.22
			 M253.42,264.7c1.61,0,2.82,0.36,3.63,1.09c0.8,0.72,1.21,1.74,1.21,3.06c0,1.32-0.4,2.34-1.21,3.07
			c-0.81,0.73-2.02,1.09-3.63,1.09h-4.33v-8.3H253.42z M254.18,255.5H237.2v35.41h11.89V282h3.22l6,8.91H271l-7.41-10.93
			c2.15-1.11,3.8-2.61,4.94-4.5c1.14-1.89,1.71-4.09,1.71-6.63c0-2.69-0.66-5.05-1.97-7.08c-1.31-2.02-3.17-3.57-5.59-4.65
			C260.27,256.04,257.43,255.5,254.18,255.5 M201.64,273.21c0-1.79,0.35-3.35,1.06-4.68c0.71-1.33,1.66-2.36,2.85-3.08
			c1.19-0.73,2.53-1.09,4-1.09c1.48,0,2.81,0.36,4,1.09c1.19,0.72,2.14,1.75,2.85,3.08c0.71,1.33,1.06,2.89,1.06,4.68
			s-0.35,3.35-1.06,4.68c-0.71,1.33-1.66,2.36-2.85,3.08c-1.19,0.73-2.53,1.09-4,1.09c-1.48,0-2.81-0.36-4-1.09
			c-1.19-0.72-2.14-1.75-2.85-3.08C201.99,276.55,201.64,274.99,201.64,273.21 M192.22,263.67c-1.71,2.82-2.57,5.99-2.57,9.54
			c0,3.54,0.86,6.72,2.57,9.54c1.71,2.81,4.08,5.01,7.11,6.6c3.02,1.58,6.43,2.38,10.23,2.38c3.79,0,7.2-0.79,10.23-2.38
			c3.03-1.59,5.39-3.79,7.11-6.6c1.71-2.82,2.57-5.99,2.57-9.54c0-3.54-0.86-6.72-2.57-9.54c-1.71-2.81-4.08-5.02-7.11-6.6
			c-3.02-1.59-6.43-2.38-10.23-2.38c-3.79,0-7.2,0.79-10.23,2.38C196.3,258.65,193.93,260.86,192.22,263.67 M129.22,255.5h-28.67
			v35.41h29.33v-9.01h-17.63v-7.57h6.72c0.45,1.88,2.06,3.31,4.07,3.31c2.02,0,3.63-1.43,4.07-3.31h12.47v16.58h10.83v-15.58
			l7.66,12.39h5.24l7.66-12.95l0.1,16.14h10.83l-0.1-35.41h-9.78l-11.19,18.86l-11.49-18.86h-9.78v16.76h-12.5
			c-0.5-1.8-2.08-3.15-4.04-3.15c-1.96,0-3.54,1.35-4.04,3.15h-6.75v-7.76h16.98V255.5z M47.37,260.06v25.36H37.19
			c-0.47-1.84-2.07-3.23-4.06-3.23c-2.35,0-4.27,1.91-4.27,4.27s1.91,4.26,4.27,4.26c1.99,0,3.59-1.39,4.06-3.24h10.18v3.42H58.2
			v-15.58l7.66,12.39h5.24l7.66-12.95l0.1,16.14h10.83l-0.1-35.41h-9.78l-11.19,18.86L57.14,255.5h-9.78v2.5H37.21
			c-0.44-1.88-2.05-3.31-4.07-3.31c-2.35,0-4.27,1.91-4.27,4.26s1.91,4.27,4.27,4.27c1.96,0,3.54-1.36,4.04-3.16H47.37z M49.6,43.81
			c0,1.31-0.4,2.33-1.21,3.05c-0.8,0.73-2.02,1.08-3.63,1.08h-4.34v-8.27h4.34c1.61,0,2.82,0.36,3.63,1.08
			C49.2,41.48,49.6,42.49,49.6,43.81 M62.36,65.79L54.95,54.9c2.15-1.11,3.8-2.6,4.94-4.49c1.14-1.88,1.71-4.08,1.71-6.6
			c0-2.69-0.66-5.04-1.97-7.06c-1.31-2.02-3.18-3.56-5.6-4.64c-2.42-1.07-5.26-1.61-8.52-1.61H28.53v35.29h11.9v-8.87h3.23l6,8.87
			H62.36z M66.09,65.79h29.34v-8.97H77.79v-4.64h14.93V43.6H77.79v-4.13h16.99V30.5H66.09V65.79z M111.92,39.47h16.79V30.5h-28.69
			v35.29h11.9V48.98h6.36c0.44,1.88,2.06,3.31,4.07,3.31c2.36,0,4.27-1.91,4.27-4.27c0-2.35-1.91-4.26-4.27-4.26
			c-1.96,0-3.54,1.35-4.04,3.16h-6.39V39.47z M153.57,43.81c0,1.31-0.4,2.33-1.21,3.05c-0.81,0.73-2.02,1.08-3.63,1.08h-4.34v-8.27
			h4.34c1.61,0,2.82,0.36,3.63,1.08C153.17,41.48,153.57,42.49,153.57,43.81 M166.32,65.79l-7.41-10.89c2.15-1.11,3.8-2.6,4.94-4.49
			c1.14-1.88,1.71-4.08,1.71-6.6c0-2.69-0.65-5.04-1.96-7.06c-1.31-2.02-3.18-3.56-5.6-4.64c-2.42-1.07-5.26-1.61-8.52-1.61h-16.99
			v35.29h11.9v-8.87h3.23l6,8.87H166.32z M170.05,65.79h29.35v-8.97h-17.65v-4.64h14.92V43.6h-14.92v-4.13h16.99V30.5h-28.69V65.79z
			 M214.07,40.98c0-1.48,1.53-2.22,4.59-2.22c3.09,0,7.99-0.16,13.58,0.66v-9.01c0,0-11.06-0.73-13.48-0.73
			c-3.53,0-6.53,0.52-9,1.56c-2.47,1.05-4.33,2.47-5.57,4.29c-1.24,1.81-1.87,3.83-1.87,6.05c0,2.55,0.67,4.58,2.02,6.08
			c1.35,1.49,2.93,2.57,4.74,3.22c1.81,0.66,4.08,1.27,6.81,1.85c2.12,0.44,3.64,0.83,4.56,1.21c0.92,0.37,1.39,0.93,1.39,1.66
			c0,0.64-0.35,1.12-1.06,1.44c-0.71,0.32-1.89,0.34-3.53,0.48c-3.84,0.33-11.62-0.48-13.67-0.76v9c2.59,0.55,10.65,0.83,13.57,0.83
			c3.53,0,6.53-0.52,9-1.59c2.47-1.06,4.33-2.49,5.57-4.28c1.24-1.8,1.87-3.81,1.87-6.02c0-2.55-0.68-4.57-2.04-6.05
			c-1.36-1.48-2.97-2.55-4.82-3.2c-1.85-0.66-4.12-1.24-6.81-1.74c-2.08-0.4-3.58-0.78-4.49-1.14
			C214.53,42.22,214.07,41.69,214.07,40.98 M260.01,65.79h11.9V30.5h-11.9V43h-10.99V30.5h-11.9v35.29h11.9V52.78h10.99V65.79z
			 M287.82,19.1c0,2.35-1.91,4.26-4.27,4.26c-2.36,0-4.27-1.91-4.27-4.26s1.91-4.27,4.27-4.27
			C285.91,14.83,287.82,16.74,287.82,19.1 M289.8,19.1c0-3.45-2.8-6.25-6.24-6.25c-3.45,0-6.25,2.8-6.25,6.25
			c0,3.1,2.26,5.64,5.21,6.14v5.26h-4.87v35.29h11.9V30.5h-4.96v-5.26C287.54,24.74,289.8,22.19,289.8,19.1 M320.31,65.79h9.78V30.5
			h-11.6v16.03L305.08,30.5h-9.78v35.29h11.6V49.76L320.31,65.79z M362.26,65.44c2.76-0.77,5.18-1.88,7.26-3.33V47.18h-10.34v8.93
			c-1.38,0.57-2.82,0.86-4.34,0.86c-2.55,0-4.6-0.8-6.13-2.42c-1.53-1.61-2.29-3.75-2.29-6.4c0-2.72,0.77-4.87,2.32-6.46
			c1.55-1.58,3.63-2.37,6.25-2.37c3.06,0,14.49,0.16,14.49,0.16v-9.01c0,0-6.42-1.3-15.09-0.78c-3.83,0.23-7.27,0.78-10.31,2.34
			c-3.04,1.56-5.41,3.75-7.11,6.56c-1.7,2.81-2.55,5.99-2.55,9.56c0,3.56,0.85,6.75,2.55,9.55c1.7,2.81,4.04,5,7.03,6.56
			c2.99,1.57,6.37,2.34,10.14,2.34C356.79,66.59,359.5,66.21,362.26,65.44 M231.94,206.18h-60.89v-31.13h23.24
			c0.51,2.93,3.05,5.17,6.14,5.17c3.45,0,6.24-2.8,6.24-6.24c0-1.04-0.27-1.99-0.72-2.85l25.99-17.73V206.18z M200.42,169.7
			c2.35,0,4.27,1.91,4.27,4.27c0,2.35-1.91,4.26-4.27,4.26c-2.36,0-4.27-1.91-4.27-4.26C196.15,171.61,198.06,169.7,200.42,169.7
			 M231.94,150.89l-27.22,18.56c-1.12-1.07-2.63-1.74-4.3-1.74c-3.11,0-5.67,2.29-6.15,5.26h-23.23c0,0,0.03-10.6,0.03-12.4
			c0-5.49-4.46-9.95-9.95-9.95s-9.95,4.46-9.95,9.95c0,0.11-0.04,4.01-0.04,5.4h-30.88c0.86,2.36,1.51,4.91,1.91,7.71
			c0.45,3.09,0.75,6.84,0.94,11.13h28.03v15.63c0,2.06,0.01,5.72,0.01,5.72h-29.38c-0.49-2.96-3.04-5.22-6.14-5.22
			c-3.1,0-5.65,2.26-6.14,5.22H85.2c-0.01-0.02,0-15.35,0-15.35c0-15.53-3.71-20.85-13.72-23c-1.71-0.37-5.39-0.34-5.39-0.34v-15.83
			h42.07c3.95,2.32,6.98,5.06,9.07,8.22c0.11,0.16,0.16,0.38,0.27,0.54v-19.29c-2.33,3.69-5.15,6.53-9.43,8.46H66.09v-15.09
			c6.56,0,10.91-1.47,14.19-4.4c3.28-2.92,4.96-7.6,4.93-14.02c-0.01-1.42-0.03-1.47-0.03-1.47h24.18c0.5,2.95,3.05,5.2,6.14,5.2
			c3.09,0,5.64-2.25,6.14-5.2h29.49v13.89c1.85-2.43,4.35-4.42,7.5-6c3.14-1.57,6.71-2.35,10.71-2.35c10.53,0,18.73,2.59,24.7,7.66
			v-5.95c0-2.52,0.1-4.91,0.24-7.25h37.66V150.89z M119.77,113.56c0,2.35-1.91,4.27-4.27,4.27c-2.35,0-4.27-1.91-4.27-4.27
			c0-2.35,1.91-4.26,4.27-4.26C117.87,109.29,119.77,111.2,119.77,113.56 M111.34,207.2c0-2.35,1.91-4.27,4.27-4.27
			c2.36,0,4.27,1.91,4.27,4.27c0,2.35-1.91,4.26-4.27,4.26C113.26,211.47,111.34,209.56,111.34,207.2 M366.53,161.59
			c2.09,3.17,3.44,7.04,4.33,11.37v-41.04c-0.63,3.07-1.43,5.88-2.51,8.25c-2.23,4.89-5.85,8.52-10.87,10.88h-42.33V136.2
			c6.57,0,11.15-1.46,14.44-4.39c3.28-2.92,4.47-7.67,4.47-14.09v-7.73c0-5.28-4.23-9.56-9.45-9.56c-5.22,0-9.45,4.28-9.45,9.56
			c0,1.09,0.05,7.11-0.07,8.22v5.57h-29.39v17.78h-36.62v-27.2c0-1.24-0.06-4.61-0.06-5.38c0-4.72-3.82-8.54-8.54-8.54
			c-4.72,0-8.54,3.83-8.54,8.54c0,0.74,0.07,3.01,0.05,3.56h-37.58c0.28-3.51,0.71-6.84,1.3-9.96h-44.57v9.96h-29.49
			c-0.49-2.96-3.04-5.23-6.14-5.23c-3.1,0-5.65,2.27-6.14,5.23H85.2v-2.55c0-5.28-4.28-9.56-9.55-9.56s-9.55,4.28-9.55,9.56
			c0,1.01,0.06,12.08,0.06,12.08H28.87v60.18h37.23v27.34c0,5.28,4.28,9.56,9.55,9.56s9.55-4.28,9.55-9.56v-1.35h24.27
			c0.5,2.95,3.05,5.21,6.14,5.21c3.1,0,5.64-2.26,6.14-5.21h29.39v0.94c0,5.5,4.46,9.96,9.96,9.96c5.5,0,9.97-4.46,9.97-9.96
			c0-0.3-0.06-0.58-0.09-0.87c0-0.02,0.01-0.04,0.01-0.07h60.94c0,0.02,0,1.67,0,2.37c0,4.72,3.82,8.54,8.54,8.54
			c4.72,0,8.54-3.82,8.54-8.54c0-0.41,0.06-3.17,0.06-4.37v-33.2h36.62v10.92h29.46v19.28v6.35c0,5.28,4.23,9.56,9.45,9.56
			c5.22,0,9.45-4.28,9.45-9.56c0-0.69,0.03-8.15,0.03-12.35v-4.49c0-15.85-4.12-21.24-11.36-23.15c-2.26-0.6-7.58-0.41-7.58-0.41
			v-16.08h42.32C361.62,155.48,364.37,158.31,366.53,161.59"/>
	</g>
</g>
</svg>
