<?xml version="1.0" encoding="UTF-8" standalone="no"?>
<!-- Generator: Adobe Illustrator 23.0.0, SVG Export Plug-In . SVG Version: 6.00 Build 0)  -->

<svg
   xmlns:osb="http://www.openswatchbook.org/uri/2009/osb"
   xmlns:dc="http://purl.org/dc/elements/1.1/"
   xmlns:cc="http://creativecommons.org/ns#"
   xmlns:rdf="http://www.w3.org/1999/02/22-rdf-syntax-ns#"
   xmlns:svg="http://www.w3.org/2000/svg"
   xmlns="http://www.w3.org/2000/svg"
   xmlns:xlink="http://www.w3.org/1999/xlink"
   xmlns:sodipodi="http://sodipodi.sourceforge.net/DTD/sodipodi-0.dtd"
   xmlns:inkscape="http://www.inkscape.org/namespaces/inkscape"
   version="1.0"
   x="0px"
   y="0px"
   viewBox="0 0 1929.2102 118.74205"
   xml:space="preserve"
   id="svg23"
   sodipodi:docname="experiment2.svg"
   inkscape:version="0.92.3 (2405546, 2018-03-11)"
   width="1929.2102"
   height="118.74203"><metadata
     id="metadata29"><rdf:RDF><cc:Work
         rdf:about=""><dc:format>image/svg+xml</dc:format><dc:type
           rdf:resource="http://purl.org/dc/dcmitype/StillImage" /><dc:title></dc:title></cc:Work></rdf:RDF></metadata><defs
     id="defs27"><linearGradient
       y2="152.2847"
       x2="371.50049"
       y1="152.2847"
       x1="28.525999"
       gradientUnits="userSpaceOnUse"
       id="linearGradient10046"><stop
         id="stop10042"
         style="stop-color:#0084b0;stop-opacity:1"
         offset="0" /><stop
         id="stop10044"
         style="stop-color:#00A356"
         offset="1" /></linearGradient><linearGradient
       id="linearGradient9221"
       osb:paint="solid"><stop
         style="stop-color:#000000;stop-opacity:1;"
         offset="0"
         id="stop9219" /></linearGradient><linearGradient
       y2="152.2847"
       x2="371.50049"
       y1="152.2847"
       x1="28.525999"
       gradientUnits="userSpaceOnUse"
       id="linearGradient9201">
			<stop
   id="stop9197"
   style="stop-opacity:1"
   offset="0" />
			<stop
   id="stop9199"
   style="stop-color:#00A356"
   offset="1" />
		</linearGradient><linearGradient
       y2="152.2847"
       x2="371.50049"
       y1="152.2847"
       x1="28.525999"
       gradientUnits="userSpaceOnUse"
       id="linearGradient1512"
       osb:paint="gradient">
			<stop
   id="stop1508"
   style="stop-color:#0085B1"
   offset="0" />
			<stop
   id="stop1510"
   style="stop-color:#00A356"
   offset="1" />
		</linearGradient><linearGradient
       inkscape:collect="always"
       xlink:href="#SVGID_3_"
       id="linearGradient98-3"
       gradientUnits="userSpaceOnUse"
       x1="28.525999"
       y1="152.2847"
       x2="371.50049"
       y2="152.2847" /><linearGradient
       id="linearGradient540"
       gradientUnits="userSpaceOnUse"
       x1="28.525999"
       y1="152.2847"
       x2="371.50049"
       y2="152.2847"><stop
         offset="0"
         style="stop-color:#0085B1"
         id="stop13-6" /><stop
         offset="1"
         style="stop-color:#00A356"
         id="stop15-7" /></linearGradient><linearGradient
       inkscape:collect="always"
       xlink:href="#linearGradient9201"
       id="linearGradient9205"
       gradientUnits="userSpaceOnUse"
       x1="28.525999"
       y1="152.2847"
       x2="371.50049"
       y2="152.2847" /><linearGradient
       inkscape:collect="always"
       xlink:href="#linearGradient540"
       id="linearGradient10036"
       x1="19.734751"
       y1="232.21991"
       x2="1948.9449"
       y2="232.21991"
       gradientUnits="userSpaceOnUse" /><linearGradient
       inkscape:collect="always"
       xlink:href="#linearGradient540"
       id="linearGradient10038"
       gradientUnits="userSpaceOnUse"
       x1="-148.04817"
       y1="40.281536"
       x2="717.88202"
       y2="42.181896" /><linearGradient
       inkscape:collect="always"
       xlink:href="#linearGradient10046"
       id="linearGradient10040"
       gradientUnits="userSpaceOnUse"
       x1="-499.05148"
       y1="283.11746"
       x2="366.43353"
       y2="276.13263" /><linearGradient
       inkscape:collect="always"
       xlink:href="#linearGradient540"
       id="linearGradient10056"
       gradientUnits="userSpaceOnUse"
       x1="19.734751"
       y1="232.21991"
       x2="1948.9449"
       y2="232.21991" /></defs><sodipodi:namedview
     pagecolor="#ffffff"
     bordercolor="#666666"
     borderopacity="1"
     objecttolerance="10"
     gridtolerance="10"
     guidetolerance="10"
     inkscape:pageopacity="0"
     inkscape:pageshadow="2"
     inkscape:window-width="2556"
     inkscape:window-height="1384"
     id="namedview25"
     showgrid="false"
     inkscape:zoom="0.71472677"
     inkscape:cx="1007.9215"
     inkscape:cy="135.04424"
     inkscape:window-x="0"
     inkscape:window-y="26"
     inkscape:window-maximized="0"
     inkscape:current-layer="layer1"
     inkscape:pagecheckerboard="true"
     fit-margin-top="0"
     fit-margin-left="0"
     fit-margin-right="0"
     fit-margin-bottom="0" /><style
     type="text/css"
     id="style2">
	.st0{clip-path:url(#SVGID_2_);fill:url(#SVGID_3_);}
</style><g
     inkscape:groupmode="layer"
     id="layer1"
     inkscape:label="all"
     transform="translate(-19.73475,-172.85991)"><g
       id="g645"
       style="fill:url(#linearGradient10036);fill-opacity:1;fill-rule:nonzero;stroke:none"
       inkscape:label="inline"><path
         transform="matrix(2.2034148,0,0,2.2034148,1130.3984,-351.20025)"
         inkscape:label="memories"
         sodipodi:nodetypes="cscccscssscccssccscsscscccccccccccccccccssscccccccccssccccssscccccccccccccssccccscscssscsccccsccsscsccsccccccccccscccccccccccccccccscccccccccssscccccccccccccccccssscc"
         class="st0"
         d="m 359.76,280.69 c 0,0.64 -0.35,1.12 -1.06,1.44 -0.71,0.32 -1.89,0.34 -3.53,0.48 -3.84,0.33 -11.62,-0.49 -13.66,-0.76 v 9.03 c 2.59,0.55 10.64,0.83 13.56,0.83 3.53,0 6.53,-0.53 8.99,-1.59 2.47,-1.06 4.33,-2.5 5.57,-4.3 1.24,-1.8 1.86,-3.82 1.86,-6.04 0,-2.56 -0.68,-4.59 -2.04,-6.07 -1.36,-1.48 -2.97,-2.55 -4.81,-3.21 -1.85,-0.66 -4.12,-1.24 -6.8,-1.75 -2.08,-0.4 -3.58,-0.78 -4.49,-1.14 -0.91,-0.35 -1.36,-0.89 -1.36,-1.59 0,-1.48 1.53,-2.22 4.59,-2.22 3.09,0 7.98,-0.16 13.57,0.66 v -9.04 c 0,0 -11.05,-0.73 -13.47,-0.73 -3.53,0 -6.52,0.52 -8.99,1.57 -2.47,1.04 -4.33,2.48 -5.57,4.3 -1.24,1.82 -1.86,3.84 -1.86,6.07 0,2.56 0.67,4.59 2.02,6.09 1.34,1.5 2.92,2.58 4.73,3.24 1.81,0.66 4.08,1.27 6.8,1.85 2.12,0.44 3.64,0.85 4.56,1.21 0.93,0.37 1.39,0.93 1.39,1.67 M 331.28,255.5 h -28.67 v 35.41 h 29.32 V 281.9 H 314.3 v -4.65 h 14.91 v -8.6 H 314.3 v -4.15 h 16.98 z m -49.94,-11.42 c 0,-2.36 1.91,-4.27 4.27,-4.27 2.35,0 4.27,1.91 4.27,4.27 0,2.35 -1.91,4.26 -4.27,4.26 -2.36,0 -4.27,-1.91 -4.27,-4.26 m 3.23,6.14 v 5.28 h -4.72 v 35.41 h 11.89 V 255.5 h -5.11 v -5.28 c 2.96,-0.5 5.21,-3.05 5.21,-6.14 0,-3.45 -2.8,-6.24 -6.24,-6.24 -3.45,0 -6.25,2.79 -6.25,6.24 0.01,3.09 2.27,5.64 5.22,6.14 m -31.15,14.48 c 1.61,0 2.82,0.36 3.63,1.09 0.8,0.72 1.21,1.74 1.21,3.06 0,1.32 -0.4,2.34 -1.21,3.07 -0.81,0.73 -2.02,1.09 -3.63,1.09 h -4.33 v -8.3 h 4.33 z m 0.76,-9.2 H 237.2 v 35.41 h 11.89 V 282 h 3.22 l 6,8.91 H 271 l -7.41,-10.93 c 2.15,-1.11 3.8,-2.61 4.94,-4.5 1.14,-1.89 1.71,-4.09 1.71,-6.63 0,-2.69 -0.66,-5.05 -1.97,-7.08 -1.31,-2.02 -3.17,-3.57 -5.59,-4.65 -2.41,-1.08 -5.25,-1.62 -8.5,-1.62 m -52.54,17.71 c 0,-1.79 0.35,-3.35 1.06,-4.68 0.71,-1.33 1.66,-2.36 2.85,-3.08 1.19,-0.73 2.53,-1.09 4,-1.09 1.48,0 2.81,0.36 4,1.09 1.19,0.72 2.14,1.75 2.85,3.08 0.71,1.33 1.06,2.89 1.06,4.68 0,1.79 -0.35,3.35 -1.06,4.68 -0.71,1.33 -1.66,2.36 -2.85,3.08 -1.19,0.73 -2.53,1.09 -4,1.09 -1.48,0 -2.81,-0.36 -4,-1.09 -1.19,-0.72 -2.14,-1.75 -2.85,-3.08 -0.71,-1.34 -1.06,-2.9 -1.06,-4.68 m -9.42,-9.54 c -1.71,2.82 -2.57,5.99 -2.57,9.54 0,3.54 0.86,6.72 2.57,9.54 1.71,2.81 4.08,5.01 7.11,6.6 3.02,1.58 6.43,2.38 10.23,2.38 3.79,0 7.2,-0.79 10.23,-2.38 3.03,-1.59 5.39,-3.79 7.11,-6.6 1.71,-2.82 2.57,-5.99 2.57,-9.54 0,-3.54 -0.86,-6.72 -2.57,-9.54 -1.71,-2.81 -4.08,-5.02 -7.11,-6.6 -3.02,-1.59 -6.43,-2.38 -10.23,-2.38 -3.79,0 -7.2,0.79 -10.23,2.38 -3.03,1.58 -5.4,3.79 -7.11,6.6 m -63,-8.17 h -28.67 v 35.41 h 29.33 v -9.01 h -17.63 v -7.57 h 6.72 c 0.45,1.88 2.06,3.31 4.07,3.31 2.02,0 3.63,-1.43 4.07,-3.31 h 12.47 v 16.58 h 10.83 v -15.58 l 7.66,12.39 h 5.24 l 7.66,-12.95 0.1,16.14 h 10.83 l -0.1,-35.41 h -9.78 l -11.19,18.86 -11.49,-18.86 h -9.78 v 16.76 h -12.5 c -0.5,-1.8 -2.08,-3.15 -4.04,-3.15 -1.96,0 -3.54,1.35 -4.04,3.15 h -6.75 v -7.76 h 16.98 v -9 z m -81.85,4.56 v 25.36 H 37.19 c -0.47,-1.84 -2.07,-3.23 -4.06,-3.23 -2.35,0 -4.27,1.91 -4.27,4.27 0,2.36 1.91,4.26 4.27,4.26 1.99,0 3.59,-1.39 4.06,-3.24 h 10.18 v 3.42 H 58.2 v -15.58 l 7.66,12.39 h 5.24 l 7.66,-12.95 0.1,16.14 h 10.83 l -0.1,-35.41 H 79.81 L 68.62,274.35 57.14,255.5 H 47.36 V 258 H 37.21 c -0.44,-1.88 -2.05,-3.31 -4.07,-3.31 -2.35,0 -4.27,1.91 -4.27,4.26 0,2.35 1.91,4.27 4.27,4.27 1.96,0 3.54,-1.36 4.04,-3.16 z"
         clip-path="url(#SVGID_2_)"
         id="path32-2"
         inkscape:connector-curvature="0"
         style="display:inline;fill:url(#linearGradient10040);fill-opacity:1;fill-rule:nonzero;stroke:none" /><path
         transform="matrix(2.2087451,0,0,2.2087442,338.19375,144.47755)"
         inkscape:label="refreshing"
         sodipodi:nodetypes="ccsccscccccsscsccccccccccccccccccccccccccccssscccccsccscccccsscscccccccccccccccccccccsccsccsccccsscccsccssccccccccccccccccccsssccsscccccccccccccccccccccccccscscscccssscccc"
         style="display:inline;fill:url(#linearGradient10038);fill-opacity:1;fill-rule:nonzero;stroke:none"
         inkscape:connector-curvature="0"
         id="path18-9"
         clip-path="url(#SVGID_2_)"
         d="m 49.6,43.81 c 0,1.31 -0.4,2.33 -1.21,3.05 -0.8,0.73 -2.02,1.08 -3.63,1.08 h -4.34 v -8.27 h 4.34 c 1.61,0 2.82,0.36 3.63,1.08 0.81,0.73 1.21,1.74 1.21,3.06 M 62.36,65.79 54.95,54.9 c 2.15,-1.11 3.8,-2.6 4.94,-4.49 1.14,-1.88 1.71,-4.08 1.71,-6.6 0,-2.69 -0.66,-5.04 -1.97,-7.06 -1.31,-2.02 -3.18,-3.56 -5.6,-4.64 C 51.61,31.04 48.77,30.5 45.51,30.5 H 28.53 v 35.29 h 11.9 v -8.87 h 3.23 l 6,8.87 z m 3.73,0 H 95.43 V 56.82 H 77.79 V 52.18 H 92.72 V 43.6 H 77.79 V 39.47 H 94.78 V 30.5 H 66.09 Z m 45.83,-26.32 h 16.79 V 30.5 h -28.69 v 35.29 h 11.9 V 48.98 h 6.36 c 0.44,1.88 2.06,3.31 4.07,3.31 2.36,0 4.27,-1.91 4.27,-4.27 0,-2.35 -1.91,-4.26 -4.27,-4.26 -1.96,0 -3.54,1.35 -4.04,3.16 h -6.39 z m 41.65,4.34 c 0,1.31 -0.4,2.33 -1.21,3.05 -0.81,0.73 -2.02,1.08 -3.63,1.08 h -4.34 v -8.27 h 4.34 c 1.61,0 2.82,0.36 3.63,1.08 0.81,0.73 1.21,1.74 1.21,3.06 m 12.75,21.98 -7.41,-10.89 c 2.15,-1.11 3.8,-2.6 4.94,-4.49 1.14,-1.88 1.71,-4.08 1.71,-6.6 0,-2.69 -0.65,-5.04 -1.96,-7.06 -1.31,-2.02 -3.18,-3.56 -5.6,-4.64 -2.42,-1.07 -5.26,-1.61 -8.52,-1.61 h -16.99 v 35.29 h 11.9 v -8.87 h 3.23 l 6,8.87 z m 3.73,0 h 29.35 v -8.97 h -17.65 v -4.64 h 14.92 V 43.6 h -14.92 v -4.13 h 16.99 V 30.5 h -28.69 z m 44.02,-24.81 c 0,-1.48 1.53,-2.22 4.59,-2.22 3.09,0 7.99,-0.16 13.58,0.66 v -9.01 c 0,0 -11.06,-0.73 -13.48,-0.73 -3.53,0 -6.53,0.52 -9,1.56 -2.47,1.05 -4.33,2.47 -5.57,4.29 -1.24,1.81 -1.87,3.83 -1.87,6.05 0,2.55 0.67,4.58 2.02,6.08 1.35,1.49 2.93,2.57 4.74,3.22 1.81,0.66 4.08,1.27 6.81,1.85 2.12,0.44 3.64,0.83 4.56,1.21 0.92,0.37 1.39,0.93 1.39,1.66 0,0.64 -0.35,1.12 -1.06,1.44 -0.71,0.32 -1.89,0.34 -3.53,0.48 -3.84,0.33 -11.62,-0.48 -13.67,-0.76 v 9 c 2.59,0.55 10.65,0.83 13.57,0.83 3.53,0 6.53,-0.52 9,-1.59 2.47,-1.06 4.33,-2.49 5.57,-4.28 1.24,-1.8 1.87,-3.81 1.87,-6.02 0,-2.55 -0.68,-4.57 -2.04,-6.05 -1.36,-1.48 -2.97,-2.55 -4.82,-3.2 -1.85,-0.66 -4.12,-1.24 -6.81,-1.74 -2.08,-0.4 -3.58,-0.78 -4.49,-1.14 -0.9,-0.35 -1.36,-0.88 -1.36,-1.59 m 45.94,24.81 h 11.9 V 30.5 h -11.9 V 43 H 249.02 V 30.5 h -11.9 v 35.29 h 11.9 V 52.78 h 10.99 z M 287.82,19.1 c 0,2.35 -1.91,4.26 -4.27,4.26 -2.36,0 -4.27,-1.91 -4.27,-4.26 0,-2.35 1.91,-4.27 4.27,-4.27 2.36,0 4.27,1.91 4.27,4.27 m 1.98,0 c 0,-3.45 -2.8,-6.25 -6.24,-6.25 -3.45,0 -6.25,2.8 -6.25,6.25 0,3.1 2.26,5.64 5.21,6.14 v 5.26 h -4.87 v 35.29 h 11.9 V 30.5 h -4.96 v -5.26 c 2.95,-0.5 5.21,-3.05 5.21,-6.14 m 30.51,46.69 h 9.78 V 30.5 h -11.6 V 46.53 L 305.08,30.5 h -9.78 v 35.29 h 11.6 V 49.76 Z m 41.95,-0.35 c 2.76,-0.77 5.18,-1.88 7.26,-3.33 V 47.18 h -10.34 v 8.93 c -1.38,0.57 -2.82,0.86 -4.34,0.86 -2.55,0 -4.6,-0.8 -6.13,-2.42 -1.53,-1.61 -2.29,-3.75 -2.29,-6.4 0,-2.72 0.77,-4.87 2.32,-6.46 1.55,-1.58 3.63,-2.37 6.25,-2.37 3.06,0 14.49,0.16 14.49,0.16 v -9.01 c 0,0 -6.42,-1.3 -15.09,-0.78 -3.83,0.23 -7.27,0.78 -10.31,2.34 -3.04,1.56 -5.41,3.75 -7.11,6.56 -1.7,2.81 -2.55,5.99 -2.55,9.56 0,3.56 0.85,6.75 2.55,9.55 1.7,2.81 4.04,5 7.03,6.56 2.99,1.57 6.37,2.34 10.14,2.34 2.65,-0.01 5.36,-0.39 8.12,-1.16"
         class="st0" /><path
         transform="translate(-9.13525,72.429912)"
         sodipodi:nodetypes="ccccssccccssscccsccssscccccsccscccccccccccccccccsccccscsccccsscccssccccccccccsssscccccssssccccccsccsssccccsssccsccssscccsssscccccsssssccccc"
         inkscape:label="35c3"
         class="st0"
         d="m 231.94,206.18 h -60.89 v -31.13 h 23.24 c 0.51,2.93 3.05,5.17 6.14,5.17 3.45,0 6.24,-2.8 6.24,-6.24 0,-1.04 -0.27,-1.99 -0.72,-2.85 L 231.94,153.4 Z M 200.42,169.7 c 2.35,0 4.27,1.91 4.27,4.27 0,2.35 -1.91,4.26 -4.27,4.26 -2.36,0 -4.27,-1.91 -4.27,-4.26 0,-2.36 1.91,-4.27 4.27,-4.27 m 31.52,-18.81 -27.22,18.56 c -1.12,-1.07 -2.63,-1.74 -4.3,-1.74 -3.11,0 -5.67,2.29 -6.15,5.26 h -23.23 c 0,0 0.03,-10.6 0.03,-12.4 0,-5.49 -4.46,-9.95 -9.95,-9.95 -5.49,0 -9.95,4.46 -9.95,9.95 0,0.11 -0.04,4.01 -0.04,5.4 h -30.88 c 0.86,2.36 1.51,4.91 1.91,7.71 0.45,3.09 0.75,6.84 0.94,11.13 h 28.03 v 15.63 c 0,2.06 0.01,5.72 0.01,5.72 h -29.38 c -0.49,-2.96 -3.04,-5.22 -6.14,-5.22 -3.1,0 -5.65,2.26 -6.14,5.22 H 85.2 c -0.01,-0.02 0,-15.35 0,-15.35 0,-15.53 -3.71,-20.85 -13.72,-23 -1.71,-0.37 -5.39,-0.34 -5.39,-0.34 v -15.83 h 42.07 c 3.95,2.32 6.98,5.06 9.07,8.22 0.11,0.16 0.16,0.38 0.27,0.54 v -19.29 c -2.33,3.69 -5.15,6.53 -9.43,8.46 H 66.09 v -15.09 c 6.56,0 10.91,-1.47 14.19,-4.4 3.28,-2.92 4.96,-7.6 4.93,-14.02 -0.01,-1.42 -0.03,-1.47 -0.03,-1.47 h 24.18 c 0.5,2.95 3.05,5.2 6.14,5.2 3.09,0 5.64,-2.25 6.14,-5.2 h 29.49 v 13.89 c 1.85,-2.43 4.35,-4.42 7.5,-6 3.14,-1.57 6.71,-2.35 10.71,-2.35 10.53,0 18.73,2.59 24.7,7.66 v -5.95 c 0,-2.52 0.1,-4.91 0.24,-7.25 h 37.66 z M 119.77,113.56 c 0,2.35 -1.91,4.27 -4.27,4.27 -2.35,0 -4.27,-1.91 -4.27,-4.27 0,-2.35 1.91,-4.26 4.27,-4.26 2.37,-0.01 4.27,1.9 4.27,4.26 m -8.43,93.64 c 0,-2.35 1.91,-4.27 4.27,-4.27 2.36,0 4.27,1.91 4.27,4.27 0,2.35 -1.91,4.26 -4.27,4.26 -2.35,0.01 -4.27,-1.9 -4.27,-4.26 m 255.19,-45.61 c 2.09,3.17 3.44,7.04 4.33,11.37 v -41.04 c -0.63,3.07 -1.43,5.88 -2.51,8.25 -2.23,4.89 -5.85,8.52 -10.87,10.88 H 315.15 V 136.2 c 6.57,0 11.15,-1.46 14.44,-4.39 3.28,-2.92 4.47,-7.67 4.47,-14.09 v -7.73 c 0,-5.28 -4.23,-9.56 -9.45,-9.56 -5.22,0 -9.45,4.28 -9.45,9.56 0,1.09 0.05,7.11 -0.07,8.22 v 5.57 H 285.7 v 17.78 h -36.62 v -27.2 c 0,-1.24 -0.06,-4.61 -0.06,-5.38 0,-4.72 -3.82,-8.54 -8.54,-8.54 -4.72,0 -8.54,3.83 -8.54,8.54 0,0.74 0.07,3.01 0.05,3.56 h -37.58 c 0.28,-3.51 0.71,-6.84 1.3,-9.96 h -44.57 v 9.96 h -29.49 c -0.49,-2.96 -3.04,-5.23 -6.14,-5.23 -3.1,0 -5.65,2.27 -6.14,5.23 H 85.2 v -2.55 c 0,-5.28 -4.28,-9.56 -9.55,-9.56 -5.27,0 -9.55,4.28 -9.55,9.56 0,1.01 0.06,12.08 0.06,12.08 H 28.87 v 60.18 H 66.1 v 27.34 c 0,5.28 4.28,9.56 9.55,9.56 5.27,0 9.55,-4.28 9.55,-9.56 v -1.35 h 24.27 c 0.5,2.95 3.05,5.21 6.14,5.21 3.1,0 5.64,-2.26 6.14,-5.21 h 29.39 v 0.94 c 0,5.5 4.46,9.96 9.96,9.96 5.5,0 9.97,-4.46 9.97,-9.96 0,-0.3 -0.06,-0.58 -0.09,-0.87 0,-0.02 0.01,-0.04 0.01,-0.07 h 60.94 v 2.37 c 0,4.72 3.82,8.54 8.54,8.54 4.72,0 8.54,-3.82 8.54,-8.54 0,-0.41 0.06,-3.17 0.06,-4.37 v -33.2 h 36.62 v 10.92 h 29.46 v 19.28 6.35 c 0,5.28 4.23,9.56 9.45,9.56 5.22,0 9.45,-4.28 9.45,-9.56 0,-0.69 0.03,-8.15 0.03,-12.35 v -4.49 c 0,-15.85 -4.12,-21.24 -11.36,-23.15 -2.26,-0.6 -7.58,-0.41 -7.58,-0.41 v -16.08 h 42.32 c 4.16,2.37 6.91,5.2 9.07,8.48"
         clip-path="url(#SVGID_2_)"
         id="path45-1"
         inkscape:connector-curvature="0"
         style="display:inline;fill:url(#linearGradient10056);fill-opacity:1;fill-rule:nonzero;stroke:none"
         mask="none" /></g></g></svg>