<svg version="1.0" xmlns="http://www.w3.org/2000/svg" xmlns:xlink="http://www.w3.org/1999/xlink" viewBox="0 0 398.98 325.61"><path d="M0 0h398.98v325.61H0z"/><defs><path id="a" d="M28.53 12.85H371.5v278.87H28.53z"/></defs><clipPath id="b"><use xlink:href="#a" overflow="visible"/></clipPath><linearGradient id="c" gradientUnits="userSpaceOnUse" x1="28.526" y1="152.285" x2="371.5" y2="152.285"><stop offset="0" stop-color="#0085b1"/><stop offset="1" stop-color="#00a356"/></linearGradient><path d="M359.76 280.69c0 .64-.35 1.12-1.06 1.44s-1.89.34-3.53.48c-3.84.33-11.62-.49-13.66-.76v9.03c2.59.55 10.64.83 13.56.83 3.53 0 6.53-.53 8.99-1.59 2.47-1.06 4.33-2.5 5.57-4.3 1.24-1.8 1.86-3.82 1.86-6.04 0-2.56-.68-4.59-2.04-6.07a11.93 11.93 0 0 0-4.81-3.21c-1.85-.66-4.12-1.24-6.8-1.75-2.08-.4-3.58-.78-4.49-1.14-.91-.35-1.36-.89-1.36-1.59 0-1.48 1.53-2.22 4.59-2.22 3.09 0 7.98-.16 13.57.66v-9.04s-11.05-.73-13.47-.73c-3.53 0-6.52.52-8.99 1.57-2.47 1.04-4.33 2.48-5.57 4.3-1.24 1.82-1.86 3.84-1.86 6.07 0 2.56.67 4.59 2.02 6.09 1.34 1.5 2.92 2.58 4.73 3.24 1.81.66 4.08 1.27 6.8 1.85 2.12.44 3.64.85 4.56 1.21.93.37 1.39.93 1.39 1.67m-28.48-25.19h-28.67v35.41h29.32v-9.01H314.3v-4.65h14.91v-8.6H314.3v-4.15h16.98v-9zm-49.94-11.42c0-2.36 1.91-4.27 4.27-4.27 2.35 0 4.27 1.91 4.27 4.27 0 2.35-1.91 4.26-4.27 4.26-2.36 0-4.27-1.91-4.27-4.26m3.23 6.14v5.28h-4.72v35.41h11.89V255.5h-5.11v-5.28c2.96-.5 5.21-3.05 5.21-6.14 0-3.45-2.8-6.24-6.24-6.24-3.45 0-6.25 2.79-6.25 6.24.01 3.09 2.27 5.64 5.22 6.14m-31.15 14.48c1.61 0 2.82.36 3.63 1.09.8.72 1.21 1.74 1.21 3.06s-.4 2.34-1.21 3.07c-.81.73-2.02 1.09-3.63 1.09h-4.33v-8.3h4.33zm.76-9.2H237.2v35.41h11.89V282h3.22l6 8.91H271l-7.41-10.93c2.15-1.11 3.8-2.61 4.94-4.5 1.14-1.89 1.71-4.09 1.71-6.63 0-2.69-.66-5.05-1.97-7.08-1.31-2.02-3.17-3.57-5.59-4.65-2.41-1.08-5.25-1.62-8.5-1.62m-52.54 17.71c0-1.79.35-3.35 1.06-4.68.71-1.33 1.66-2.36 2.85-3.08 1.19-.73 2.53-1.09 4-1.09 1.48 0 2.81.36 4 1.09 1.19.72 2.14 1.75 2.85 3.08s1.06 2.89 1.06 4.68-.35 3.35-1.06 4.68c-.71 1.33-1.66 2.36-2.85 3.08-1.19.73-2.53 1.09-4 1.09-1.48 0-2.81-.36-4-1.09-1.19-.72-2.14-1.75-2.85-3.08-.71-1.34-1.06-2.9-1.06-4.68m-9.42-9.54c-1.71 2.82-2.57 5.99-2.57 9.54 0 3.54.86 6.72 2.57 9.54 1.71 2.81 4.08 5.01 7.11 6.6 3.02 1.58 6.43 2.38 10.23 2.38 3.79 0 7.2-.79 10.23-2.38 3.03-1.59 5.39-3.79 7.11-6.6 1.71-2.82 2.57-5.99 2.57-9.54 0-3.54-.86-6.72-2.57-9.54-1.71-2.81-4.08-5.02-7.11-6.6-3.02-1.59-6.43-2.38-10.23-2.38-3.79 0-7.2.79-10.23 2.38-3.03 1.58-5.4 3.79-7.11 6.6m-63-8.17h-28.67v35.41h29.33v-9.01h-17.63v-7.57h6.72c.45 1.88 2.06 3.31 4.07 3.31 2.02 0 3.63-1.43 4.07-3.31h12.47v16.58h10.83v-15.58l7.66 12.39h5.24l7.66-12.95.1 16.14h10.83l-.1-35.41h-9.78l-11.19 18.86-11.49-18.86h-9.78v16.76h-12.5c-.5-1.8-2.08-3.15-4.04-3.15s-3.54 1.35-4.04 3.15h-6.75v-7.76h16.98v-9zm-81.85 4.56v25.36H37.19c-.47-1.84-2.07-3.23-4.06-3.23-2.35 0-4.27 1.91-4.27 4.27s1.91 4.26 4.27 4.26c1.99 0 3.59-1.39 4.06-3.24h10.18v3.42H58.2v-15.58l7.66 12.39h5.24l7.66-12.95.1 16.14h10.83l-.1-35.41h-9.78l-11.19 18.86-11.48-18.85h-9.78v2.5H37.21c-.44-1.88-2.05-3.31-4.07-3.31-2.35 0-4.27 1.91-4.27 4.26s1.91 4.27 4.27 4.27c1.96 0 3.54-1.36 4.04-3.16h10.19zM49.6 43.81c0 1.31-.4 2.33-1.21 3.05-.8.73-2.02 1.08-3.63 1.08h-4.34v-8.27h4.34c1.61 0 2.82.36 3.63 1.08.81.73 1.21 1.74 1.21 3.06m12.76 21.98L54.95 54.9c2.15-1.11 3.8-2.6 4.94-4.49 1.14-1.88 1.71-4.08 1.71-6.6 0-2.69-.66-5.04-1.97-7.06-1.31-2.02-3.18-3.56-5.6-4.64-2.42-1.07-5.26-1.61-8.52-1.61H28.53v35.29h11.9v-8.87h3.23l6 8.87h12.7zm3.73 0h29.34v-8.97H77.79v-4.64h14.93V43.6H77.79v-4.13h16.99V30.5H66.09v35.29zm45.83-26.32h16.79V30.5h-28.69v35.29h11.9V48.98h6.36c.44 1.88 2.06 3.31 4.07 3.31a4.266 4.266 0 0 0 0-8.53c-1.96 0-3.54 1.35-4.04 3.16h-6.39v-7.45zm41.65 4.34c0 1.31-.4 2.33-1.21 3.05-.81.73-2.02 1.08-3.63 1.08h-4.34v-8.27h4.34c1.61 0 2.82.36 3.63 1.08.81.73 1.21 1.74 1.21 3.06m12.75 21.98l-7.41-10.89c2.15-1.11 3.8-2.6 4.94-4.49 1.14-1.88 1.71-4.08 1.71-6.6 0-2.69-.65-5.04-1.96-7.06-1.31-2.02-3.18-3.56-5.6-4.64-2.42-1.07-5.26-1.61-8.52-1.61h-16.99v35.29h11.9v-8.87h3.23l6 8.87h12.7zm3.73 0h29.35v-8.97h-17.65v-4.64h14.92V43.6h-14.92v-4.13h16.99V30.5h-28.69v35.29zm44.02-24.81c0-1.48 1.53-2.22 4.59-2.22 3.09 0 7.99-.16 13.58.66v-9.01s-11.06-.73-13.48-.73c-3.53 0-6.53.52-9 1.56-2.47 1.05-4.33 2.47-5.57 4.29a10.481 10.481 0 0 0-1.87 6.05c0 2.55.67 4.58 2.02 6.08 1.35 1.49 2.93 2.57 4.74 3.22 1.81.66 4.08 1.27 6.81 1.85 2.12.44 3.64.83 4.56 1.21.92.37 1.39.93 1.39 1.66 0 .64-.35 1.12-1.06 1.44-.71.32-1.89.34-3.53.48-3.84.33-11.62-.48-13.67-.76v9c2.59.55 10.65.83 13.57.83 3.53 0 6.53-.52 9-1.59 2.47-1.06 4.33-2.49 5.57-4.28 1.24-1.8 1.87-3.81 1.87-6.02 0-2.55-.68-4.57-2.04-6.05-1.36-1.48-2.97-2.55-4.82-3.2-1.85-.66-4.12-1.24-6.81-1.74-2.08-.4-3.58-.78-4.49-1.14-.9-.35-1.36-.88-1.36-1.59m45.94 24.81h11.9V30.5h-11.9V43h-10.99V30.5h-11.9v35.29h11.9V52.78h10.99v13.01zm27.81-46.69c0 2.35-1.91 4.26-4.27 4.26-2.36 0-4.27-1.91-4.27-4.26s1.91-4.27 4.27-4.27c2.36 0 4.27 1.91 4.27 4.27m1.98 0c0-3.45-2.8-6.25-6.24-6.25-3.45 0-6.25 2.8-6.25 6.25 0 3.1 2.26 5.64 5.21 6.14v5.26h-4.87v35.29h11.9V30.5h-4.96v-5.26c2.95-.5 5.21-3.05 5.21-6.14m30.51 46.69h9.78V30.5h-11.6v16.03L305.08 30.5h-9.78v35.29h11.6V49.76l13.41 16.03zm41.95-.35c2.76-.77 5.18-1.88 7.26-3.33V47.18h-10.34v8.93c-1.38.57-2.82.86-4.34.86-2.55 0-4.6-.8-6.13-2.42-1.53-1.61-2.29-3.75-2.29-6.4 0-2.72.77-4.87 2.32-6.46 1.55-1.58 3.63-2.37 6.25-2.37 3.06 0 14.49.16 14.49.16v-9.01s-6.42-1.3-15.09-.78c-3.83.23-7.27.78-10.31 2.34-3.04 1.56-5.41 3.75-7.11 6.56-1.7 2.81-2.55 5.99-2.55 9.56 0 3.56.85 6.75 2.55 9.55 1.7 2.81 4.04 5 7.03 6.56 2.99 1.57 6.37 2.34 10.14 2.34 2.65-.01 5.36-.39 8.12-1.16M231.94 206.18h-60.89v-31.13h23.24c.51 2.93 3.05 5.17 6.14 5.17 3.45 0 6.24-2.8 6.24-6.24 0-1.04-.27-1.99-.72-2.85l25.99-17.73v52.78zm-31.52-36.48c2.35 0 4.27 1.91 4.27 4.27 0 2.35-1.91 4.26-4.27 4.26a4.266 4.266 0 1 1 0-8.53m31.52-18.81l-27.22 18.56a6.21 6.21 0 0 0-4.3-1.74c-3.11 0-5.67 2.29-6.15 5.26h-23.23s.03-10.6.03-12.4c0-5.49-4.46-9.95-9.95-9.95s-9.95 4.46-9.95 9.95c0 .11-.04 4.01-.04 5.4h-30.88c.86 2.36 1.51 4.91 1.91 7.71.45 3.09.75 6.84.94 11.13h28.03v15.63c0 2.06.01 5.72.01 5.72h-29.38c-.49-2.96-3.04-5.22-6.14-5.22-3.1 0-5.65 2.26-6.14 5.22H85.2c-.01-.02 0-15.35 0-15.35 0-15.53-3.71-20.85-13.72-23-1.71-.37-5.39-.34-5.39-.34v-15.83h42.07c3.95 2.32 6.98 5.06 9.07 8.22.11.16.16.38.27.54v-19.29c-2.33 3.69-5.15 6.53-9.43 8.46H66.09v-15.09c6.56 0 10.91-1.47 14.19-4.4 3.28-2.92 4.96-7.6 4.93-14.02-.01-1.42-.03-1.47-.03-1.47h24.18c.5 2.95 3.05 5.2 6.14 5.2s5.64-2.25 6.14-5.2h29.49v13.89c1.85-2.43 4.35-4.42 7.5-6 3.14-1.57 6.71-2.35 10.71-2.35 10.53 0 18.73 2.59 24.7 7.66v-5.95c0-2.52.1-4.91.24-7.25h37.66v36.3zm-112.17-37.33c0 2.35-1.91 4.27-4.27 4.27-2.35 0-4.27-1.91-4.27-4.27 0-2.35 1.91-4.26 4.27-4.26 2.37-.01 4.27 1.9 4.27 4.26m-8.43 93.64c0-2.35 1.91-4.27 4.27-4.27a4.266 4.266 0 0 1 0 8.53 4.26 4.26 0 0 1-4.27-4.26m255.19-45.61c2.09 3.17 3.44 7.04 4.33 11.37v-41.04c-.63 3.07-1.43 5.88-2.51 8.25-2.23 4.89-5.85 8.52-10.87 10.88h-42.33V136.2c6.57 0 11.15-1.46 14.44-4.39 3.28-2.92 4.47-7.67 4.47-14.09v-7.73c0-5.28-4.23-9.56-9.45-9.56-5.22 0-9.45 4.28-9.45 9.56 0 1.09.05 7.11-.07 8.22v5.57H285.7v17.78h-36.62v-27.2c0-1.24-.06-4.61-.06-5.38 0-4.72-3.82-8.54-8.54-8.54-4.72 0-8.54 3.83-8.54 8.54 0 .74.07 3.01.05 3.56h-37.58c.28-3.51.71-6.84 1.3-9.96h-44.57v9.96h-29.49c-.49-2.96-3.04-5.23-6.14-5.23-3.1 0-5.65 2.27-6.14 5.23H85.2v-2.55c0-5.28-4.28-9.56-9.55-9.56s-9.55 4.28-9.55 9.56c0 1.01.06 12.08.06 12.08H28.87v60.18H66.1v27.34c0 5.28 4.28 9.56 9.55 9.56s9.55-4.28 9.55-9.56v-1.35h24.27c.5 2.95 3.05 5.21 6.14 5.21 3.1 0 5.64-2.26 6.14-5.21h29.39v.94c0 5.5 4.46 9.96 9.96 9.96 5.5 0 9.97-4.46 9.97-9.96 0-.3-.06-.58-.09-.87 0-.02.01-.04.01-.07h60.94v2.37c0 4.72 3.82 8.54 8.54 8.54 4.72 0 8.54-3.82 8.54-8.54 0-.41.06-3.17.06-4.37v-33.2h36.62v10.92h29.46V209.59c0 5.28 4.23 9.56 9.45 9.56 5.22 0 9.45-4.28 9.45-9.56 0-.69.03-8.15.03-12.35v-4.49c0-15.85-4.12-21.24-11.36-23.15-2.26-.6-7.58-.41-7.58-.41v-16.08h42.32c4.16 2.37 6.91 5.2 9.07 8.48" clip-path="url(#b)" fill="url(#c)"/></svg>