<svg xmlns="http://www.w3.org/2000/svg" viewBox="0 0 204.29868 371.21667" height="395.964" width="217.919"><g color="#000"><path style="isolation:auto;mix-blend-mode:normal" d="M101.72 106.858c-1.338-1.355-3.027-3.34-3.753-4.41l-1.32-1.944L106.2 87.43c5.255-7.191 20.713-29.656 34.351-49.921C154.191 17.243 165.531.465 165.753.224c.222-.24.545-.296.719-.123.614.614-13.953 35.07-20.434 48.337-5.438 11.128-14.574 25.617-27.737 43.987-9.915 13.836-12.361 16.897-13.5 16.897-.356 0-1.742-1.109-3.08-2.464zM76.988 123.286c-.009-1.175 2.397-26.432 2.614-27.458.123-.581.387-1.056.587-1.056.2 0 1.305 1.14 2.456 2.535 1.384 1.678 2.968 2.96 4.685 3.79 1.427.692 3.1 1.639 3.719 2.105l1.125.85-7.22 9.91c-3.97 5.45-7.387 9.91-7.591 9.91-.205 0-.373-.263-.375-.586zM188.937 347.028c-7.739-2.146-72.74-22.708-72.826-23.037-.225-.866 6.669-43.857 7.037-43.878.355-.02 15.48 14.707 55.366 53.907 7.692 7.559 13.712 13.725 13.377 13.701-.334-.023-1.663-.335-2.954-.693zM48.704 280.254L32.386 272.9l.292-1.408c.16-.775.46-1.589.666-1.81.26-.277 40.133-9.214 41.14-9.22.04 0 1.926 3.01 4.19 6.688 2.264 3.679 4.423 7.169 4.798 7.755.656 1.026.48 1.27-4.57 6.39l-5.253 5.323-3.23.534c-1.777.293-3.718.516-4.314.496-.595-.02-8.426-3.347-17.4-7.393z" overflow="visible" fill="#ff8600"/><path style="isolation:auto;mix-blend-mode:normal" d="M104.92 159.289c-17.556-7.58-31.918-14.007-31.918-14.284 0-.543 34.369-35.688 34.889-35.675.172.004 1.898 3.107 3.834 6.895 8.603 16.834 14.03 25.31 23.228 36.28 2.489 2.968 5.262 6.277 6.162 7.352l1.636 1.955-2.843 5.672c-1.564 3.12-2.895 5.653-2.958 5.629-.062-.024-14.476-6.245-32.03-13.824zM201.219 344.36c-.886-1.613-16.727-32.101-35.202-67.751l-33.59-64.819.664-4.649c.366-2.556.671-4.807.68-5 .067-1.601 1.914 1.576 8.05 13.846 11.995 23.993 19.512 37.708 26.482 48.316 5.978 9.1 18.35 25.66 30.267 40.513 2.485 3.098 4.834 6.16 5.22 6.806.612 1.023.644 3.392.245 18.423-.252 9.487-.626 17.25-.831 17.25-.206 0-1.1-1.32-1.985-2.934zM101.174 300.71c-7.172-11.682-15.534-25.254-18.582-30.16-3.047-4.905-5.673-9.261-5.834-9.68-.208-.544.04-.846.859-1.052 3.62-.909 46.91-10.153 47.544-10.153.578 0 .704.312.52 1.29-.134.71-2.638 16.974-5.564 36.142-2.926 19.168-5.451 34.851-5.611 34.851-.16 0-6.16-9.557-13.332-21.239z" overflow="visible" fill="#0bc401"/><path style="isolation:auto;mix-blend-mode:normal" d="M13.852 258.979c-3.596-5.51-6.768-10.23-7.05-10.488-.281-.258-1.927-2.08-3.657-4.05L0 240.86l14.609-23.874c20.099-32.845 22.458-35.99 41.608-55.479l14.907-15.17 32.387 13.918c17.813 7.656 32.533 14.06 32.712 14.232.178.172-.3 3.903-1.062 8.292-.762 4.389-3.094 20.758-5.182 36.377-2.088 15.618-3.848 28.452-3.911 28.519-.182.194-88.824 19.352-92.728 20.042-1.937.341-5.643.77-8.236.95l-4.715.33-6.537-10.018zM106.318 80.573c.902-9.575 2.755-19.021 5.27-26.872 1.77-5.521 8.453-23.132 12.288-32.375 2.112-5.09 3.324-7.02 3.347-5.331.008.344-2.78 13.276-6.188 28.738l-6.196 28.113-3.981 5.565c-2.19 3.06-4.18 5.565-4.421 5.565-.262 0-.31-1.373-.119-3.403zM48.847 370.368c.377-.545 3.281-4.685 6.454-9.2 14.944-21.269 19.425-28.771 36.698-61.443 2.42-4.577 3.046-5.448 3.54-4.928.33.347 4.745 7.388 9.812 15.645l9.212 15.014 33.338 10.396c18.337 5.717 33.439 10.495 33.56 10.616.26.26-.292.303-34.298 2.668 0 0-15.914.034-26.285 1.828s-35.438 9.93-35.438 9.93a39402.17 39402.17 0 0 0-36.358 10.197c-.849.247-.867.19-.235-.723z" overflow="visible" fill="#d40010"/><path style="isolation:auto;mix-blend-mode:normal" d="M51.176 163.348c0-.577 43.848-60.744 44.39-60.91.24-.074 1.27 1.03 2.29 2.454 1.021 1.424 2.757 3.268 3.857 4.097 1.1.828 1.956 1.66 1.9 1.85-.176.593-51.642 52.93-52.05 52.93-.213 0-.387-.19-.387-.42zM199.192 349.605c-1.588-.442-3.198-.984-3.578-1.205-.805-.468-71.786-70.07-72.194-70.792-.15-.267.645-6.399 1.768-13.627 1.123-7.229 3.096-20.942 4.384-30.474 1.289-9.532 2.45-17.439 2.582-17.57.131-.132.426-.042.654.199.635.67 69.661 133.982 69.453 134.137-.1.075-1.48-.226-3.069-.668zM42.348 332.287c.048-.125 7.308-10.113 16.134-22.196 17.407-23.83 15.901-21.918 23.106-29.344l3.29-3.392.517.84.516.839-3.824 5.206c-8.28 11.273-17.08 22.764-21.528 28.11-3.446 4.142-9.34 10.799-15.32 17.3-2.386 2.595-3.138 3.28-2.89 2.637z" overflow="visible" fill="#0049da"/><path style="isolation:auto;mix-blend-mode:normal" d="M138.22 154.028c-6.857-8.142-11.696-14.642-15.151-20.352-3.825-6.32-13.69-24.862-13.69-25.73 0-.332 2.707-4.33 6.017-8.884 12.235-16.834 21.069-30.078 27.196-40.773 4.83-8.431 13.761-28.093 21.73-47.84 2.445-6.06 3.015-7.136 3.512-6.64.148.149-1.424 8.795-3.493 19.214-8.339 42-11.402 60.992-17.86 110.707-3.285 25.298-3.292 25.346-3.701 25.344-.171-.001-2.223-2.272-4.56-5.046zM53.945 360.028c0-.099 10.435-19.692 11.036-20.722.468-.802 20.113-30.592 20.301-30.786.45-.462-.058.61-2.068 4.355-10.812 20.145-14.744 26.607-26.478 43.508-2.218 3.195-2.79 3.943-2.79 3.645zM1.929 248.667c-1.041-4.025-1.024-3.94-.795-3.94.153 0 4.654 5.022 4.654 5.193 0 .11-2.68 2.44-2.807 2.44-.053 0-.527-1.662-1.052-3.693zM197.628 301.178c-13.721-17.339-24.977-32.662-30.597-41.656-6.074-9.718-14.646-25.657-25.438-47.296-7.466-14.97-7.54-15.173-6.633-18.236.238-.8 42.492 6.402 42.997 7.33.336.617 25.296 104.984 25.296 105.772 0 .942-1.189-.308-5.625-5.914z" overflow="visible" fill="#ffe72d"/><path style="isolation:auto;mix-blend-mode:normal" d="M89.337 100.498c-2.576-1.324-4.053-2.517-6.22-5.022-1.756-2.03-2.742-3.555-2.578-3.99.477-1.269 40.67-71.093 41.323-71.786.35-.372.74-.573.865-.447.126.126-1.78 5.288-4.234 11.471-9.645 24.292-12.405 34.582-13.767 51.314-.488 6.003.187 4.643-7.426 14.963-2.142 2.904-4.05 5.27-4.24 5.257-.19-.012-1.865-.805-3.723-1.76zM196.006 269.77c-.768-2.332-3.518-14.66-3.315-14.863.405-.405.873.327 3.878 6.062l2.85 5.437-1.017 1.802c-1.092 1.936-2.063 2.57-2.396 1.562zM34.334 344.135c.099-.262 4.32-4.992 9.38-10.51 16.506-18 21.299-23.775 35.105-42.303 4.184-5.615 7.793-10.21 8.02-10.21.658 0 7.161 10.767 6.906 11.433-.76 1.982-29.941 45.311-30.664 45.532-.481.147-6.683 1.552-13.783 3.123-7.1 1.57-13.41 2.98-14.025 3.133-.665.166-1.045.085-.939-.198z" overflow="visible" fill="#9e00a0"/></g></svg>