<svg xmlns="http://www.w3.org/2000/svg" height="46.5" width="539.037"><g style="line-height:559.99999046%;-inkscape-font-specification:'TeX Gyre Adventor, Normal';text-align:start" font-weight="800" font-size="62.5" font-family="Avenir LT Std" letter-spacing="0" word-spacing="0"><path style="-inkscape-font-specification:'Avenir LT Std Ultra-Bold'" d="M13.125 45.375H21.5l9.75-30.625h.125l9.75 30.625h8.688L62.75 1.125h-9.875L45.437 30.25h-.124L36.124 1.125h-9.063L17.813 29.5h-.125L10.625 1.125H0l13.125 44.25zM60.976 45.375h10.75L75.413 36h17.188l3.812 9.375h11l-19.25-44.25h-8.062l-19.125 44.25zM89.288 27.75H78.476L83.85 14l5.437 13.75zM147.303 45.375h-9.75V27.687h-4.813l-9.25 17.688h-11.687l11.25-18.688c-6.25-1.125-9.563-5.937-9.563-12.125 0-10.312 7.625-13.437 16.688-13.437h17.125v44.25zm-9.75-36h-6.375c-3.563 0-7.563.688-7.563 5.125 0 4.813 4.625 4.938 8.188 4.938h5.75V9.374zM152.33 45.375h9.75v-31.5h.125l19.313 31.5h12.75V1.125h-9.75v30.75h-.125L165.58 1.125h-13.25v44.25zM203.108 45.375h9.75V1.125h-9.75v44.25zM263.726 45.375h-9.75v-31.5h-.125l-19.313 31.5h-12.75V1.125h9.75v30.75h.125l18.813-30.75h13.25v44.25zM270.316 19.125h17.313v9h-7.938v7.188c1.813 1 4.938 2.187 9.188 2.187 8.312 0 13.75-6 13.75-14.25S297.19 9 288.879 9c-4.938 0-8.125 1.438-10.75 4.188l-6.875-7.5C275.69 1.563 281.879 0 288.879 0c13.812 0 23.875 9.063 23.875 23.25 0 14.188-10.063 23.25-23.875 23.25-6.5 0-12.813-1.25-18.563-4.25V19.125zM335.338 1.125h-9.375V30.75h9.375V1.125zM324.9 40a5.735 5.735 0 0 0 5.75 5.75A5.735 5.735 0 0 0 336.4 40a5.735 5.735 0 0 0-5.75-5.75A5.735 5.735 0 0 0 324.9 40zM402.29 45.375h-18.125c-7.875 0-16.625-3.063-16.625-12.313 0-5.75 3.875-10.062 9.688-10.812v-.125c-4.563-1.438-7.625-4.813-7.625-9.75 0-9.625 8.437-11.25 16.187-11.25h16.5v44.25zm-9.75-36h-6.625c-3.062 0-6.562.938-6.562 4.625 0 3.563 3.125 4.813 6.125 4.813h7.062V9.374zm0 17.688h-7.375c-3.187 0-7.875.687-7.875 4.875 0 3.875 3.438 5.187 6.5 5.187h8.75V27.062zM439.63 45.375h-31.188v-9h21.438v-9h-19.188v-9h19.188v-8.25h-20.313v-9h30.063v44.25zM456.059 45.375h9.75V9.75h12.625V1.125h-35V9.75h12.625v35.625zM473.085 45.375h10.75L487.522 36h17.188l3.812 9.375h11l-19.25-44.25h-8.062l-19.125 44.25zm28.312-17.625h-10.812L495.96 14l5.437 13.75zM537.975 1.125H528.6V30.75h9.375V1.125zM527.537 40a5.735 5.735 0 0 0 5.75 5.75 5.735 5.735 0 0 0 5.75-5.75 5.735 5.735 0 0 0-5.75-5.75 5.735 5.735 0 0 0-5.75 5.75z"/></g></svg>