<?xml version="1.0" encoding="UTF-8" standalone="no"?>
<svg
   xmlns:dc="http://purl.org/dc/elements/1.1/"
   xmlns:cc="http://creativecommons.org/ns#"
   xmlns:rdf="http://www.w3.org/1999/02/22-rdf-syntax-ns#"
   xmlns:svg="http://www.w3.org/2000/svg"
   xmlns="http://www.w3.org/2000/svg"
   version="1.1"
   id="svg4295"
   viewBox="0 0 800.00001 170"
   height="170"
   width="800">
  <defs
     id="defs4297" />
  <metadata
     id="metadata4300">
    <rdf:RDF>
      <cc:Work
         rdf:about="">
        <dc:format>image/svg+xml</dc:format>
        <dc:type
           rdf:resource="http://purl.org/dc/dcmitype/StillImage" />
        <dc:title></dc:title>
      </cc:Work>
    </rdf:RDF>
  </metadata>
  <g
     transform="translate(0,-882.36216)"
     id="layer1">
    <g
       id="g3"
       transform="translate(297,886.16216)">
      <g
         id="g5">
        <g
           id="g7">
          <path
             id="path9"
             d="m -292,14.2 0,13.1 0,13.9 0,13.9 0,13.9 0,13.9 0,13.9 0,13.9 0,14.7 13.9,0 0,13.9 13.9,0 0,13.7 27,0 13.9,0 13.9,0 13.9,0 13.9,0 14.7,0 0,-13.9 13.9,0 0,-13.9 13.9,0 0,-14.7 0,-13.8 0,-13.9 0,-13.9 0,-13.8 0,-13.9 0,-13.9 0,-13.1 -13.9,0 0,-13.9 -27.8,0 0,13.9 -13.9,0 0,13.9 -14.7,0 -13.9,0 -13.1,0 0,-13.9 -13.9,0 0,-13.9 -27.8,0 0,13.9 -13.9,0 z m 13.9,55.5 10.8,0 0,-13.9 100.3,0 0,13.9 13.9,0 0,13.1 0,13.9 0,14.7 -13.9,0 0,13.9 -13.9,0 0,13.9 -14.7,0 -13.9,0 -13.9,0 -13.9,0 -13.1,0 0,-13.9 -13.9,0 0,-13.9 -13.9,0 0,-14.7 0,-13.9 0,-13.1 z"
             style="fill:#30358c" />
        </g>
      </g>
      <g
         id="g11">
        <path
           id="path13"
           d="m -279.4,70.2 0,13.3 0,13.9 0,13.9 16,0 0,14 13,0 0,15 14.8,0 13.9,0 13.9,0 13.9,0 13.6,0 0,-15 13,0 0,-14 13,0 0,-13.9 0,-13.9 0,-13.3 -13,0 0,-14 -12.7,0 -14,0 -13.9,0 -13.9,0 -13.9,0 -33.8,0 0,14 -9.9,0 z"
           style="fill:#ffffff" />
        <rect
           id="rect15"
           height="15"
           width="13"
           y="83.199997"
           x="-180.39999" />
        <rect
           id="rect17"
           height="15"
           width="13"
           y="83.199997"
           x="-263.39999" />
        <rect
           id="rect19"
           height="13"
           width="14"
           y="98.199997"
           x="-209.39999" />
        <rect
           id="rect21"
           height="14"
           width="42"
           y="111.2"
           x="-237.39999" />
        <rect
           id="rect23"
           height="13"
           width="15"
           y="98.199997"
           x="-237.39999" />
      </g>
    </g>
    <g
       id="g123"
       transform="translate(297,886.16216)">
      <g
         transform="translate(-5.2)"
         id="g5426">
        <polygon
           class="st0"
           points="0,159.4 29.2,127.6 155.2,127.6 204.6,73.8 0,73.9 "
           id="polygon5394" />
        <g
           id="g5404">
          <path
             class="st1"
             d="m 45.6,91.9 h 5.2 c 0,9.5 0,11.9 0,11.9 0,0 0.1,0 0.1,-0.1 l 7.3,-11.8 h 5.9 L 56,105.4 c 0,0.1 -0.1,0.1 -0.1,0.2 0,0.1 0,0.2 0.1,0.2 l 8.4,13.5 h -6.1 c -6.1,-9.8 -7.4,-12 -7.4,-11.9 v 11.9 H 45.7 V 91.9 Z"
             id="path5396" />
          <path
             class="st1"
             d="m 80.8,91.7 c 7.7,0 14,6.2 14,14 0,7.8 -6.2,14 -14,14 -7.7,0 -14,-6.2 -14,-14 0,-7.8 6.2,-14 14,-14 z m 0,22.7 c 4.8,0 8.8,-3.9 8.8,-8.8 0,-4.8 -3.9,-8.8 -8.8,-8.8 -4.9,0 -8.8,3.9 -8.8,8.8 0,4.8 3.9,8.8 8.8,8.8 z M 77,84.7 c 1.3,0 2.4,1 2.4,2.4 0,1.3 -1.1,2.4 -2.4,2.4 -1.4,0 -2.5,-1.1 -2.5,-2.4 0,-1.4 1.1,-2.4 2.5,-2.4 z m 7.5,0 c 1.4,0 2.5,1 2.5,2.4 0,1.3 -1.1,2.4 -2.5,2.4 -1.3,0 -2.4,-1.1 -2.4,-2.4 -0.1,-1.4 1,-2.4 2.4,-2.4 z"
             id="path5398" />
          <path
             class="st1"
             d="m 113.2,114.1 v 5.2 H 98.8 V 91.9 h 5.2 v 21.7 c 0,0.3 0.1,0.4 0.4,0.4 h 8.8 z"
             id="path5400" />
          <path
             class="st1"
             d="m 122,91.9 11.7,17.3 V 105 92 h 5.2 v 27.3 H 134 L 122.3,102 v 4.2 13.1 h -5.2 V 92 Z"
             id="path5402" />
        </g>
        <polygon
           class="st2"
           points="0,0 0,105.2 29.4,76.6 505.4,76.6 505.4,57.2 505.4,0 "
           id="polygon5406" />
        <path
           class="st1"
           d="m 476,21.4 h 4.8 V 16.6 H 476 Z m -6.4,0 h 4.8 v -4.8 h -4.8 z m -6.4,0 h 4.8 v -4.8 h -4.8 z m -6.4,0 h 4.8 v -4.8 h -4.8 z m -6.4,0 h 4.8 v -4.8 h -4.8 z m -12.7,0 h 4.8 v -4.8 h -4.8 z m -25.6,0 h 4.8 v -4.8 h -4.8 z m -19.1,0 h 4.8 V 16.6 H 393 Z m -6.4,0 h 4.8 v -4.8 h -4.8 z m -6.4,0 h 4.8 v -4.8 h -4.8 z m -31.9,0 h 4.8 v -4.8 h -4.8 z m -25.6,0 h 4.8 v -4.8 h -4.8 z m -25.5,0 h 4.8 v -4.8 h -4.8 z m -57.5,0 h 4.8 v -4.8 h -4.8 z m -6.4,0 h 4.8 v -4.8 h -4.8 z m -6.3,0 h 4.8 V 16.6 H 227 Z m -6.4,0 h 4.8 v -4.8 h -4.8 z m -12.8,0 h 4.8 v -4.8 h -4.8 z m -25.5,0 h 4.8 v -4.8 h -4.8 z m -12.8,0 h 4.8 v -4.8 h -4.8 z m -6.4,0 h 4.8 v -4.8 h -4.8 z m -6.4,0 h 4.8 v -4.8 h -4.8 z m -6.4,0 h 4.8 v -4.8 h -4.8 z m -25.5,0 h 4.8 v -4.8 h -4.8 z m -6.4,0 h 4.8 v -4.8 h -4.8 z m -6.4,0 h 4.8 V 16.6 H 112 Z m -19.1,0 h 4.8 v -4.8 h -4.8 z m -25.6,0 h 4.8 v -4.8 h -4.8 z m -19.1,0 H 53 v -4.8 h -4.8 z m -6.4,0 h 4.8 v -4.8 h -4.8 z m -6.4,0 h 4.8 v -4.8 h -4.8 z m -6.4,0 h 4.8 V 16.6 H 29 Z M 354.7,23 h 4.8 v -4.8 h -4.8 z m -12.8,0 h 4.8 v -4.8 h -4.8 z m 57.4,1.6 h 4.8 v -4.8 h -4.8 z m -25.5,0 h 4.8 v -4.8 h -4.8 z m -127.7,0 h 4.8 v -4.8 h -4.8 z m -102.1,0 h 4.8 V 19.8 H 144 Z m -12.8,0 h 4.8 v -4.8 h -4.8 z m -25.5,0 h 4.8 v -4.8 h -4.8 z m -51.1,0 h 4.8 v -4.8 h -4.8 z m 408.6,3.3 H 468 V 23 h -4.8 z m -31.9,0 h 4.8 V 23 h -4.8 z m -19.2,0 h 4.8 V 23 h -4.8 z m -51.1,0 h 4.8 V 23 H 361 Z m -25.5,0 h 4.8 V 23 h -4.8 z m -12.8,0 h 4.8 V 23 h -4.8 z m -25.5,0 H 302 V 23 h -4.8 z m -76.6,0 h 4.8 V 23 h -4.8 z m -12.8,0 h 4.8 V 23 h -4.8 z m -25.5,0 h 4.8 V 23 h -4.8 z m -89.4,0 h 4.8 V 23 h -4.8 z m -25.6,0 h 4.8 V 23 h -4.8 z m -38.3,0 h 4.8 V 23 H 29 Z m 344.8,3.2 h 4.8 v -4.8 h -4.8 z m -127.7,0 h 4.8 v -4.8 h -4.8 z m -102.1,0 h 4.8 V 26.3 H 144 Z m -38.3,0 h 4.8 v -4.8 h -4.8 z m -51.1,0 h 4.8 v -4.8 h -4.8 z m 408.6,3.2 h 4.8 v -4.8 h -4.8 z m -38.3,0 h 4.8 v -4.8 h -4.8 z m -12.8,0 h 4.8 v -4.8 h -4.8 z m -51.1,0 h 4.8 V 29.5 H 361 Z m -25.5,0 h 4.8 v -4.8 h -4.8 z m -12.8,0 h 4.8 v -4.8 h -4.8 z m -25.5,0 h 4.8 v -4.8 h -4.8 z m -76.6,0 h 4.8 v -4.8 h -4.8 z m -12.8,0 h 4.8 v -4.8 h -4.8 z m -19.1,0 h 4.8 v -4.8 h -4.8 z m -6.4,0 h 4.8 v -4.8 h -4.8 z m -89.4,0 h 4.8 v -4.8 h -4.8 z m -25.6,0 h 4.8 v -4.8 h -4.8 z m 306.5,3.2 h 4.8 v -4.8 h -4.8 z m -127.7,0 h 4.8 v -4.8 h -4.8 z m -102.1,0 h 4.8 V 32.7 H 144 Z m -38.3,0 h 4.8 v -4.8 h -4.8 z m -51.1,0 h 4.8 v -4.8 h -4.8 z m 408.6,3.2 h 4.8 v -4.8 h -4.8 z m -44.7,0 h 4.8 v -4.8 h -4.8 z m -6.4,0 h 4.8 v -4.8 h -4.8 z m -51.1,0 h 4.8 V 35.9 H 361 Z m -25.5,0 h 4.8 v -4.8 h -4.8 z m -12.8,0 h 4.8 v -4.8 h -4.8 z m -6.4,0 h 4.8 v -4.8 h -4.8 z m -6.3,0 h 4.8 V 35.9 H 310 Z m -6.4,0 h 4.8 v -4.8 h -4.8 z m -6.4,0 h 4.8 v -4.8 h -4.8 z m -76.6,0 h 4.8 v -4.8 h -4.8 z m -12.8,0 h 4.8 v -4.8 h -4.8 z m -12.8,0 h 4.8 V 35.9 H 195 Z m -12.7,0 h 4.8 v -4.8 h -4.8 z m -19.2,0 h 4.8 v -4.8 h -4.8 z m -6.4,0 h 4.8 v -4.8 h -4.8 z m -6.4,0 h 4.8 v -4.8 h -4.8 z m -57.4,0 h 4.8 v -4.8 h -4.8 z m -25.6,0 h 4.8 v -4.8 h -4.8 z m 306.5,3.2 h 4.8 v -4.8 h -4.8 z m -19.1,0 h 4.8 v -4.8 h -4.8 z m -6.4,0 h 4.8 v -4.8 h -4.8 z m -6.4,0 h 4.8 v -4.8 h -4.8 z m -95.8,0 h 4.8 v -4.8 h -4.8 z m -102.1,0 h 4.8 V 39.1 H 144 Z m -12.8,0 h 4.8 v -4.8 h -4.8 z m -6.4,0 h 4.8 v -4.8 h -4.8 z m -6.4,0 h 4.8 v -4.8 h -4.8 z m -12.7,0 h 4.8 v -4.8 h -4.8 z m -51.1,0 h 4.8 v -4.8 h -4.8 z m 408.6,3.2 h 4.8 v -4.8 h -4.8 z m -38.3,0 h 4.8 v -4.8 h -4.8 z m -12.8,0 h 4.8 v -4.8 h -4.8 z m -51.1,0 h 4.8 V 42.3 H 361 Z m -25.5,0 h 4.8 v -4.8 h -4.8 z m -12.8,0 h 4.8 v -4.8 h -4.8 z m -25.5,0 h 4.8 v -4.8 h -4.8 z m -76.6,0 h 4.8 v -4.8 h -4.8 z m -12.8,0 h 4.8 v -4.8 h -4.8 z m -6.4,0 h 4.8 v -4.8 h -4.8 z m -19.1,0 h 4.8 v -4.8 h -4.8 z m -89.4,0 h 4.8 v -4.8 h -4.8 z m -25.6,0 h 4.8 v -4.8 h -4.8 z m 306.5,3.3 h 4.8 v -4.8 h -4.8 z m -127.7,0 h 4.8 v -4.8 h -4.8 z m -102.1,0 h 4.8 V 45.6 H 144 Z m -12.8,0 h 4.8 v -4.8 h -4.8 z m -25.5,0 h 4.8 v -4.8 h -4.8 z m -51.1,0 h 4.8 v -4.8 h -4.8 z m -25.6,0 h 4.8 V 45.6 H 29 Z m 434.2,3.2 h 4.8 v -4.8 h -4.8 z m -31.9,0 h 4.8 v -4.8 h -4.8 z m -19.2,0 h 4.8 v -4.8 h -4.8 z m -51.1,0 h 4.8 V 48.8 H 361 Z m -25.5,0 h 4.8 v -4.8 h -4.8 z m -12.8,0 h 4.8 v -4.8 h -4.8 z m -25.5,0 h 4.8 v -4.8 h -4.8 z m -76.6,0 h 4.8 v -4.8 h -4.8 z m -12.8,0 h 4.8 v -4.8 h -4.8 z m -25.5,0 h 4.8 v -4.8 h -4.8 z m -89.4,0 h 4.8 v -4.8 h -4.8 z m -25.6,0 h 4.8 v -4.8 h -4.8 z m 332,3.2 h 4.8 V 52 h -4.8 z m -25.5,0 h 4.8 V 52 h -4.8 z m -127.7,0 h 4.8 V 52 h -4.8 z m -102.1,0 h 4.8 V 52 H 144 Z m -12.8,0 H 136 V 52 h -4.8 z m -25.5,0 h 4.8 V 52 h -4.8 z m -51.1,0 h 4.8 V 52 h -4.8 z m -25.6,0 h 4.8 V 52 H 29 Z M 463.2,60 h 4.8 v -4.8 h -4.8 z m -25.5,0 h 4.8 v -4.8 h -4.8 z m -25.6,0 h 4.8 v -4.8 h -4.8 z M 393,60 h 4.8 V 55.2 H 393 Z m -6.4,0 h 4.8 v -4.8 h -4.8 z m -6.4,0 h 4.8 v -4.8 h -4.8 z M 361,60 h 4.8 V 55.2 H 361 Z m -25.5,0 h 4.8 v -4.8 h -4.8 z m -12.8,0 h 4.8 v -4.8 h -4.8 z m -25.5,0 h 4.8 v -4.8 h -4.8 z m -57.5,0 h 4.8 v -4.8 h -4.8 z m -6.4,0 h 4.8 v -4.8 h -4.8 z m -6.3,0 h 4.8 V 55.2 H 227 Z m -6.4,0 h 4.8 v -4.8 h -4.8 z m -12.8,0 h 4.8 v -4.8 h -4.8 z m -25.5,0 h 4.8 v -4.8 h -4.8 z m -12.8,0 h 4.8 v -4.8 h -4.8 z m -6.4,0 h 4.8 v -4.8 h -4.8 z m -6.4,0 h 4.8 v -4.8 h -4.8 z m -6.4,0 h 4.8 v -4.8 h -4.8 z m -25.5,0 h 4.8 v -4.8 h -4.8 z m -6.4,0 h 4.8 v -4.8 h -4.8 z m -6.4,0 h 4.8 V 55.2 H 112 Z m -25.5,0 h 4.8 v -4.8 h -4.8 z m -6.4,0 h 4.8 v -4.8 h -4.8 z m -6.4,0 h 4.8 V 55.2 H 73.7 Z M 48.2,60 H 53 v -4.8 h -4.8 z m -6.4,0 h 4.8 v -4.8 h -4.8 z m -6.4,0 h 4.8 v -4.8 h -4.8 z"
           id="path5408" />
      </g>
    </g>
  </g>
  <style
     type="text/css"
     id="style5392">
	.st0{fill:#30358C;}
	.st1{fill:#FFFFFF;}
	.st2{fill:#0DA5DE;}
</style>
</svg>
