<svg version="1.1" xmlns="http://www.w3.org/2000/svg" xmlns:xlink="http://www.w3.org/1999/xlink" width="703.6" height="328.39395" viewBox="908.81667,392.80302,703.6,328.39395"><g fill="none" fill-rule="nonzero" stroke="none" stroke-width="1" stroke-linecap="butt" stroke-linejoin="miter" stroke-miterlimit="10" stroke-dasharray="" stroke-dashoffset="0" font-family="none" font-weight="none" font-size="none" text-anchor="none" style="mix-blend-mode: normal"><g id="Layer_1"><path d="M908.81667,556.88179v164.31519l46.8121,-46.8121h656.7879v-117.50309z" fill="#00b48d"/><path d="M1612.41667,556.88179v-164.07876l-46.8121,46.8121h-656.7879v117.26667z" fill="#00a6de"/><g fill="#ffffff"><rect x="400.6" y="218.84295" transform="scale(2.36425,2.36425)" width="2.8" height="2.8"/><rect x="400.6" y="215.04295" transform="scale(2.36425,2.36425)" width="2.8" height="2.8"/><rect x="400.6" y="201.84295" transform="scale(2.36425,2.36425)" width="2.8" height="2.8"/><rect x="400.6" y="198.04295" transform="scale(2.36425,2.36425)" width="2.8" height="2.8"/><rect x="404.4" y="220.64295" transform="scale(2.36425,2.36425)" width="2.8" height="2.8"/><rect x="404.4" y="198.04295" transform="scale(2.36425,2.36425)" width="2.8" height="2.8"/><rect x="408.1" y="220.64295" transform="scale(2.36425,2.36425)" width="2.8" height="2.8"/><rect x="408.1" y="198.04295" transform="scale(2.36425,2.36425)" width="2.8" height="2.8"/><rect x="411.9" y="220.64295" transform="scale(2.36425,2.36425)" width="2.8" height="2.8"/><rect x="411.9" y="198.04295" transform="scale(2.36425,2.36425)" width="2.8" height="2.8"/><rect x="415.6" y="218.84295" transform="scale(2.36425,2.36425)" width="2.8" height="2.8"/><rect x="415.6" y="215.04295" transform="scale(2.36425,2.36425)" width="2.8" height="2.8"/><rect x="415.6" y="211.24295" transform="scale(2.36425,2.36425)" width="2.8" height="2.8"/><rect x="415.6" y="207.44295" transform="scale(2.36425,2.36425)" width="2.8" height="2.8"/><rect x="415.6" y="203.74295" transform="scale(2.36425,2.36425)" width="2.8" height="2.8"/><rect x="415.6" y="199.94295" transform="scale(2.36425,2.36425)" width="2.8" height="2.8"/><rect x="423.1" y="216.94295" transform="scale(2.36425,2.36425)" width="2.8" height="2.8"/><rect x="423.1" y="213.14295" transform="scale(2.36425,2.36425)" width="2.8" height="2.8"/><rect x="423.1" y="209.34295" transform="scale(2.36425,2.36425)" width="2.8" height="2.8"/><rect x="423.1" y="205.64295" transform="scale(2.36425,2.36425)" width="2.8" height="2.8"/><rect x="423.1" y="201.84295" transform="scale(2.36425,2.36425)" width="2.8" height="2.8"/><rect x="423.1" y="198.04295" transform="scale(2.36425,2.36425)" width="2.8" height="2.8"/><rect x="426.9" y="220.64295" transform="scale(2.36425,2.36425)" width="2.8" height="2.8"/><rect x="430.6" y="220.64295" transform="scale(2.36425,2.36425)" width="2.8" height="2.8"/><rect x="434.4" y="220.64295" transform="scale(2.36425,2.36425)" width="2.8" height="2.8"/><rect x="438.1" y="216.94295" transform="scale(2.36425,2.36425)" width="2.8" height="2.8"/><rect x="438.1" y="213.14295" transform="scale(2.36425,2.36425)" width="2.8" height="2.8"/><rect x="438.1" y="209.34295" transform="scale(2.36425,2.36425)" width="2.8" height="2.8"/><rect x="438.1" y="205.64295" transform="scale(2.36425,2.36425)" width="2.8" height="2.8"/><rect x="438.1" y="201.84295" transform="scale(2.36425,2.36425)" width="2.8" height="2.8"/><rect x="438.1" y="198.04295" transform="scale(2.36425,2.36425)" width="2.8" height="2.8"/><rect x="445.6" y="218.84295" transform="scale(2.36425,2.36425)" width="2.8" height="2.8"/><rect x="445.6" y="215.04295" transform="scale(2.36425,2.36425)" width="2.8" height="2.8"/><rect x="445.6" y="211.24295" transform="scale(2.36425,2.36425)" width="2.8" height="2.8"/><rect x="445.6" y="207.44295" transform="scale(2.36425,2.36425)" width="2.8" height="2.8"/><rect x="445.6" y="203.74295" transform="scale(2.36425,2.36425)" width="2.8" height="2.8"/><rect x="445.6" y="199.94295" transform="scale(2.36425,2.36425)" width="2.8" height="2.8"/><rect x="449.4" y="220.64295" transform="scale(2.36425,2.36425)" width="2.8" height="2.8"/><rect x="449.4" y="198.04295" transform="scale(2.36425,2.36425)" width="2.8" height="2.8"/><rect x="453.1" y="220.64295" transform="scale(2.36425,2.36425)" width="2.8" height="2.8"/><rect x="453.1" y="211.24295" transform="scale(2.36425,2.36425)" width="2.8" height="2.8"/><rect x="453.1" y="198.04295" transform="scale(2.36425,2.36425)" width="2.8" height="2.8"/><rect x="456.9" y="220.64295" transform="scale(2.36425,2.36425)" width="2.8" height="2.8"/><rect x="456.9" y="211.24295" transform="scale(2.36425,2.36425)" width="2.8" height="2.8"/><rect x="456.9" y="198.04295" transform="scale(2.36425,2.36425)" width="2.8" height="2.8"/><rect x="460.6" y="218.84295" transform="scale(2.36425,2.36425)" width="2.8" height="2.8"/><rect x="460.6" y="215.04295" transform="scale(2.36425,2.36425)" width="2.8" height="2.8"/><rect x="460.6" y="211.24295" transform="scale(2.36425,2.36425)" width="2.8" height="2.8"/><rect x="460.6" y="199.94295" transform="scale(2.36425,2.36425)" width="2.8" height="2.8"/><rect x="468.1" y="218.84295" transform="scale(2.36425,2.36425)" width="2.8" height="2.8"/><rect x="468.1" y="215.04295" transform="scale(2.36425,2.36425)" width="2.8" height="2.8"/><rect x="468.1" y="211.24295" transform="scale(2.36425,2.36425)" width="2.8" height="2.8"/><rect x="468.1" y="207.44295" transform="scale(2.36425,2.36425)" width="2.8" height="2.8"/><rect x="468.1" y="203.74295" transform="scale(2.36425,2.36425)" width="2.8" height="2.8"/><rect x="468.1" y="199.94295" transform="scale(2.36425,2.36425)" width="2.8" height="2.8"/><rect x="471.8" y="220.64295" transform="scale(2.36425,2.36425)" width="2.8" height="2.8"/><rect x="471.8" y="209.34295" transform="scale(2.36425,2.36425)" width="2.8" height="2.8"/><rect x="471.8" y="198.04295" transform="scale(2.36425,2.36425)" width="2.8" height="2.8"/><rect x="475.6" y="220.64295" transform="scale(2.36425,2.36425)" width="2.8" height="2.8"/><rect x="475.6" y="209.34295" transform="scale(2.36425,2.36425)" width="2.8" height="2.8"/><rect x="475.6" y="198.04295" transform="scale(2.36425,2.36425)" width="2.8" height="2.8"/><rect x="479.3" y="220.64295" transform="scale(2.36425,2.36425)" width="2.8" height="2.8"/><rect x="479.3" y="209.34295" transform="scale(2.36425,2.36425)" width="2.8" height="2.8"/><rect x="479.3" y="198.04295" transform="scale(2.36425,2.36425)" width="2.8" height="2.8"/><rect x="483.1" y="220.64295" transform="scale(2.36425,2.36425)" width="2.8" height="2.8"/><rect x="483.1" y="198.04295" transform="scale(2.36425,2.36425)" width="2.8" height="2.8"/><rect x="490.6" y="220.64295" transform="scale(2.36425,2.36425)" width="2.8" height="2.8"/><rect x="490.6" y="216.94295" transform="scale(2.36425,2.36425)" width="2.8" height="2.8"/><rect x="490.6" y="213.14295" transform="scale(2.36425,2.36425)" width="2.8" height="2.8"/><rect x="490.6" y="209.34295" transform="scale(2.36425,2.36425)" width="2.8" height="2.8"/><rect x="490.6" y="205.64295" transform="scale(2.36425,2.36425)" width="2.8" height="2.8"/><rect x="490.6" y="201.84295" transform="scale(2.36425,2.36425)" width="2.8" height="2.8"/><rect x="490.6" y="198.04295" transform="scale(2.36425,2.36425)" width="2.8" height="2.8"/><rect x="494.3" y="205.64295" transform="scale(2.36425,2.36425)" width="2.8" height="2.8"/><rect x="498.1" y="209.34295" transform="scale(2.36425,2.36425)" width="2.8" height="2.8"/><rect x="501.8" y="213.14295" transform="scale(2.36425,2.36425)" width="2.8" height="2.8"/><rect x="505.6" y="220.64295" transform="scale(2.36425,2.36425)" width="2.8" height="2.8"/><rect x="505.6" y="216.94295" transform="scale(2.36425,2.36425)" width="2.8" height="2.8"/><rect x="505.6" y="213.14295" transform="scale(2.36425,2.36425)" width="2.8" height="2.8"/><rect x="505.6" y="209.34295" transform="scale(2.36425,2.36425)" width="2.8" height="2.8"/><rect x="505.6" y="205.64295" transform="scale(2.36425,2.36425)" width="2.8" height="2.8"/><rect x="505.6" y="201.84295" transform="scale(2.36425,2.36425)" width="2.8" height="2.8"/><rect x="505.6" y="198.04295" transform="scale(2.36425,2.36425)" width="2.8" height="2.8"/><rect x="513.1" y="220.64295" transform="scale(2.36425,2.36425)" width="2.8" height="2.8"/><rect x="513.1" y="216.94295" transform="scale(2.36425,2.36425)" width="2.8" height="2.8"/><rect x="513.1" y="213.14295" transform="scale(2.36425,2.36425)" width="2.8" height="2.8"/><rect x="513.1" y="209.34295" transform="scale(2.36425,2.36425)" width="2.8" height="2.8"/><rect x="513.1" y="205.64295" transform="scale(2.36425,2.36425)" width="2.8" height="2.8"/><rect x="513.1" y="201.84295" transform="scale(2.36425,2.36425)" width="2.8" height="2.8"/><rect x="513.1" y="198.04295" transform="scale(2.36425,2.36425)" width="2.8" height="2.8"/><rect x="516.8" y="220.64295" transform="scale(2.36425,2.36425)" width="2.8" height="2.8"/><rect x="516.8" y="198.04295" transform="scale(2.36425,2.36425)" width="2.8" height="2.8"/><rect x="520.6" y="220.64295" transform="scale(2.36425,2.36425)" width="2.8" height="2.8"/><rect x="520.6" y="198.04295" transform="scale(2.36425,2.36425)" width="2.8" height="2.8"/><rect x="524.3" y="220.64295" transform="scale(2.36425,2.36425)" width="2.8" height="2.8"/><rect x="524.3" y="198.04295" transform="scale(2.36425,2.36425)" width="2.8" height="2.8"/><rect x="528.1" y="218.84295" transform="scale(2.36425,2.36425)" width="2.8" height="2.8"/><rect x="528.1" y="215.04295" transform="scale(2.36425,2.36425)" width="2.8" height="2.8"/><rect x="528.1" y="211.24295" transform="scale(2.36425,2.36425)" width="2.8" height="2.8"/><rect x="528.1" y="207.44295" transform="scale(2.36425,2.36425)" width="2.8" height="2.8"/><rect x="528.1" y="203.74295" transform="scale(2.36425,2.36425)" width="2.8" height="2.8"/><rect x="528.1" y="199.94295" transform="scale(2.36425,2.36425)" width="2.8" height="2.8"/><rect x="558.1" y="220.64295" transform="scale(2.36425,2.36425)" width="2.8" height="2.8"/><rect x="558.1" y="216.94295" transform="scale(2.36425,2.36425)" width="2.8" height="2.8"/><rect x="558.1" y="213.14295" transform="scale(2.36425,2.36425)" width="2.8" height="2.8"/><rect x="558.1" y="209.34295" transform="scale(2.36425,2.36425)" width="2.8" height="2.8"/><rect x="558.1" y="205.64295" transform="scale(2.36425,2.36425)" width="2.8" height="2.8"/><rect x="558.1" y="201.84295" transform="scale(2.36425,2.36425)" width="2.8" height="2.8"/><rect x="558.1" y="198.04295" transform="scale(2.36425,2.36425)" width="2.8" height="2.8"/><rect x="561.8" y="209.34295" transform="scale(2.36425,2.36425)" width="2.8" height="2.8"/><rect x="565.5" y="209.34295" transform="scale(2.36425,2.36425)" width="2.8" height="2.8"/><rect x="569.3" y="209.34295" transform="scale(2.36425,2.36425)" width="2.8" height="2.8"/><rect x="573" y="220.64295" transform="scale(2.36425,2.36425)" width="2.8" height="2.8"/><rect x="573" y="216.94295" transform="scale(2.36425,2.36425)" width="2.8" height="2.8"/><rect x="573" y="213.14295" transform="scale(2.36425,2.36425)" width="2.8" height="2.8"/><rect x="573" y="209.34295" transform="scale(2.36425,2.36425)" width="2.8" height="2.8"/><rect x="573" y="205.64295" transform="scale(2.36425,2.36425)" width="2.8" height="2.8"/><rect x="573" y="201.84295" transform="scale(2.36425,2.36425)" width="2.8" height="2.8"/><rect x="573" y="198.04295" transform="scale(2.36425,2.36425)" width="2.8" height="2.8"/><rect x="580.5" y="220.64295" transform="scale(2.36425,2.36425)" width="2.8" height="2.8"/><rect x="580.5" y="216.94295" transform="scale(2.36425,2.36425)" width="2.8" height="2.8"/><rect x="580.5" y="213.14295" transform="scale(2.36425,2.36425)" width="2.8" height="2.8"/><rect x="580.5" y="209.34295" transform="scale(2.36425,2.36425)" width="2.8" height="2.8"/><rect x="580.5" y="205.64295" transform="scale(2.36425,2.36425)" width="2.8" height="2.8"/><rect x="580.5" y="201.84295" transform="scale(2.36425,2.36425)" width="2.8" height="2.8"/><rect x="584.3" y="211.24295" transform="scale(2.36425,2.36425)" width="2.8" height="2.8"/><rect x="584.3" y="199.04295" transform="scale(2.36425,2.36425)" width="2.8" height="2.8"/><rect x="588" y="211.24295" transform="scale(2.36425,2.36425)" width="2.8" height="2.8"/><rect x="588" y="198.04295" transform="scale(2.36425,2.36425)" width="2.8" height="2.8"/><rect x="591.8" y="211.24295" transform="scale(2.36425,2.36425)" width="2.8" height="2.8"/><rect x="591.8" y="199.04295" transform="scale(2.36425,2.36425)" width="2.8" height="2.8"/><rect x="595.5" y="220.64295" transform="scale(2.36425,2.36425)" width="2.8" height="2.8"/><rect x="595.5" y="216.94295" transform="scale(2.36425,2.36425)" width="2.8" height="2.8"/><rect x="595.5" y="213.14295" transform="scale(2.36425,2.36425)" width="2.8" height="2.8"/><rect x="595.5" y="209.34295" transform="scale(2.36425,2.36425)" width="2.8" height="2.8"/><rect x="595.5" y="205.64295" transform="scale(2.36425,2.36425)" width="2.8" height="2.8"/><rect x="595.5" y="201.84295" transform="scale(2.36425,2.36425)" width="2.8" height="2.8"/><rect x="603" y="218.84295" transform="scale(2.36425,2.36425)" width="2.8" height="2.8"/><rect x="603" y="215.04295" transform="scale(2.36425,2.36425)" width="2.8" height="2.8"/><rect x="603" y="211.24295" transform="scale(2.36425,2.36425)" width="2.8" height="2.8"/><rect x="603" y="207.44295" transform="scale(2.36425,2.36425)" width="2.8" height="2.8"/><rect x="603" y="203.74295" transform="scale(2.36425,2.36425)" width="2.8" height="2.8"/><rect x="603" y="199.94295" transform="scale(2.36425,2.36425)" width="2.8" height="2.8"/><rect x="606.8" y="220.64295" transform="scale(2.36425,2.36425)" width="2.8" height="2.8"/><rect x="606.8" y="198.04295" transform="scale(2.36425,2.36425)" width="2.8" height="2.8"/><rect x="610.5" y="220.64295" transform="scale(2.36425,2.36425)" width="2.8" height="2.8"/><rect x="610.5" y="198.04295" transform="scale(2.36425,2.36425)" width="2.8" height="2.8"/><rect x="614.3" y="220.64295" transform="scale(2.36425,2.36425)" width="2.8" height="2.8"/><rect x="614.3" y="198.04295" transform="scale(2.36425,2.36425)" width="2.8" height="2.8"/><rect x="618" y="218.84295" transform="scale(2.36425,2.36425)" width="2.8" height="2.8"/><rect x="618" y="199.94295" transform="scale(2.36425,2.36425)" width="2.8" height="2.8"/><rect x="625.5" y="220.64295" transform="scale(2.36425,2.36425)" width="2.8" height="2.8"/><rect x="625.5" y="216.94295" transform="scale(2.36425,2.36425)" width="2.8" height="2.8"/><rect x="625.5" y="213.14295" transform="scale(2.36425,2.36425)" width="2.8" height="2.8"/><rect x="625.5" y="209.34295" transform="scale(2.36425,2.36425)" width="2.8" height="2.8"/><rect x="625.5" y="205.64295" transform="scale(2.36425,2.36425)" width="2.8" height="2.8"/><rect x="625.5" y="201.84295" transform="scale(2.36425,2.36425)" width="2.8" height="2.8"/><rect x="625.5" y="198.04295" transform="scale(2.36425,2.36425)" width="2.8" height="2.8"/><rect x="629.3" y="209.34295" transform="scale(2.36425,2.36425)" width="2.8" height="2.8"/><rect x="633" y="213.14295" transform="scale(2.36425,2.36425)" width="2.8" height="2.8"/><rect x="633" y="205.64295" transform="scale(2.36425,2.36425)" width="2.8" height="2.8"/><rect x="636.8" y="216.94295" transform="scale(2.36425,2.36425)" width="2.8" height="2.8"/><rect x="636.8" y="201.84295" transform="scale(2.36425,2.36425)" width="2.8" height="2.8"/><rect x="640.5" y="220.64295" transform="scale(2.36425,2.36425)" width="2.8" height="2.8"/><rect x="640.5" y="198.04295" transform="scale(2.36425,2.36425)" width="2.8" height="2.8"/><rect x="648" y="198.04295" transform="scale(2.36425,2.36425)" width="2.8" height="2.8"/><rect x="651.8" y="198.04295" transform="scale(2.36425,2.36425)" width="2.8" height="2.8"/><rect x="655.5" y="220.64295" transform="scale(2.36425,2.36425)" width="2.8" height="2.8"/><rect x="655.5" y="216.94295" transform="scale(2.36425,2.36425)" width="2.8" height="2.8"/><rect x="655.5" y="213.14295" transform="scale(2.36425,2.36425)" width="2.8" height="2.8"/><rect x="655.5" y="209.34295" transform="scale(2.36425,2.36425)" width="2.8" height="2.8"/><rect x="655.5" y="205.64295" transform="scale(2.36425,2.36425)" width="2.8" height="2.8"/><rect x="655.5" y="201.84295" transform="scale(2.36425,2.36425)" width="2.8" height="2.8"/><rect x="655.5" y="198.04295" transform="scale(2.36425,2.36425)" width="2.8" height="2.8"/><rect x="659.2" y="198.04295" transform="scale(2.36425,2.36425)" width="2.8" height="2.8"/><rect x="663" y="198.04295" transform="scale(2.36425,2.36425)" width="2.8" height="2.8"/></g></g><g fill="#ffffff"><path d="M953.62874,635.23846h-7.45697v-33.09946h7.45697v12.73664h11.428v-12.73664h7.51337v33.09946h-7.51337v-13.80836h-11.428z"/><path d="M988.70131,618.48566v0l-0.81226,3.04596h7.06212l-0.76713,-3.04596c-0.47382,-1.66212 -0.92883,-3.42201 -1.36504,-5.27967c-0.44373,-1.86518 -0.88371,-3.65892 -1.31992,-5.3812v0h-0.20306c-0.40613,1.75989 -0.82354,3.56114 -1.25223,5.40376c-0.42117,1.84262 -0.86866,3.59499 -1.34248,5.25711zM984.33543,635.23846h-7.61491l10.35627,-33.09946h8.99123l10.35627,33.09946h-7.9195l-2.03064,-7.87438h-10.10808z"/><path d="M1017.27583,635.23846h-6.70112v-33.09946h8.17897l5.32479,14.72215c0.33844,0.97772 0.66184,1.98552 0.9702,3.0234c0.30084,1.03036 0.62047,2.0532 0.95891,3.06853v0h0.20306c0.33844,-1.01532 0.65056,-2.03816 0.93635,-3.06853c0.29331,-1.03788 0.60919,-2.04568 0.94763,-3.0234v0l5.22326,-14.72215h8.12257v33.09946h-6.80265v-12.13873c0,-0.81226 0.03384,-1.70724 0.10153,-2.68496c0.06769,-0.98524 0.15418,-1.97424 0.25947,-2.96699c0.09777,-1.00028 0.1993,-1.98176 0.3046,-2.94443c0.09777,-0.9702 0.1993,-1.86142 0.3046,-2.67368v0h-0.20306l-2.69624,7.87438l-4.7156,12.6351h-4.11769l-4.7156,-12.6351l-2.63983,-7.87438h-0.20306c0.09777,0.81226 0.1993,1.70348 0.3046,2.67368c0.09777,0.96267 0.1993,1.94415 0.3046,2.94443c0.09777,0.99276 0.1805,1.98176 0.24819,2.96699c0.06769,0.97772 0.10153,1.8727 0.10153,2.68496v0z"/><path d="M1062.09548,635.23846h-12.28538v-33.09946h11.32647c1.72229,0 3.32048,0.12786 4.79457,0.38357c1.4741,0.24819 2.76017,0.69568 3.85822,1.34248c1.09805,0.63928 1.95919,1.48538 2.58343,2.5383c0.63176,1.0454 0.94763,2.36532 0.94763,3.95975v0c0,0.74457 -0.10153,1.48914 -0.3046,2.23371c-0.20306,0.74457 -0.49262,1.43649 -0.86866,2.07577c-0.36852,0.6468 -0.81602,1.22215 -1.34248,1.72605c-0.52646,0.51142 -1.12813,0.88371 -1.80501,1.11685v0v0.20306c0.84986,0.20306 1.62827,0.51894 2.33524,0.94763c0.71449,0.42117 1.34248,0.95139 1.88398,1.59067c0.5415,0.6468 0.96267,1.40265 1.26351,2.26755c0.30836,0.85738 0.46254,1.84638 0.46254,2.96699v0c0,1.6922 -0.33092,3.14749 -0.99276,4.36588c-0.66184,1.21839 -1.57563,2.22619 -2.74137,3.0234c-1.16574,0.78969 -2.52702,1.38008 -4.08385,1.77117c-1.55683,0.39109 -3.23399,0.58663 -5.03148,0.58663zM1057.27834,607.92632v7.45697h3.49722c1.82758,0 3.15502,-0.35348 3.98231,-1.06045c0.83482,-0.71449 1.25223,-1.66212 1.25223,-2.8429v0c0,-1.28607 -0.42493,-2.19986 -1.27479,-2.74137c-0.84234,-0.5415 -2.14346,-0.81226 -3.90334,-0.81226v0zM1057.27834,620.92243v8.5287h4.20794c4.09889,0 6.14833,-1.48914 6.14833,-4.46741v0c0,-1.45905 -0.50766,-2.5007 -1.52298,-3.12493c-1.01532,-0.62423 -2.5571,-0.93635 -4.62535,-0.93635v0z"/><path d="M1094.12208,635.84765v0c-4.29443,0 -7.5773,-1.27103 -9.84861,-3.81309c-2.26379,-2.53454 -3.39568,-6.57702 -3.39568,-12.12744v0v-17.76812h7.51337v18.52397c0,3.24903 0.48886,5.51658 1.46657,6.80265c0.98524,1.28607 2.40669,1.92911 4.26435,1.92911v0c1.86518,0 3.30543,-0.64304 4.32075,-1.92911c1.01532,-1.28607 1.52298,-3.55362 1.52298,-6.80265v0v-18.52397h7.20878v17.76812c0,5.55042 -1.10933,9.5929 -3.328,12.12744c-2.21866,2.54206 -5.46017,3.81309 -9.72452,3.81309z"/><path d="M1122.85454,635.23846h-7.46825v-33.09946h11.93566c1.75989,0 3.40697,0.16922 4.94123,0.50766c1.54178,0.33844 2.88802,0.90627 4.03872,1.70348c1.1507,0.78969 2.06449,1.84638 2.74137,3.17006c0.67688,1.31616 1.01532,2.95571 1.01532,4.91867v0c0,2.43677 -0.53398,4.44485 -1.60195,6.02424c-1.06045,1.57187 -2.48942,2.74513 -4.28691,3.51978v0l7.51337,13.25558h-8.37076l-6.3514,-11.93566h-4.10641zM1122.85454,608.07298v9.29583h3.85822c1.96295,0 3.45961,-0.41365 4.48997,-1.24095c1.03036,-0.83482 1.54554,-2.06449 1.54554,-3.689v0c0,-1.62451 -0.51518,-2.75641 -1.54554,-3.39568c-1.03036,-0.6468 -2.52702,-0.9702 -4.48997,-0.9702v0z"/><path d="M1161.6838,635.84765v0c-2.27131,0 -4.39596,-0.36476 -6.37396,-1.09429c-1.978,-0.72953 -3.69652,-1.80501 -5.15557,-3.22646c-1.45153,-1.42145 -2.59471,-3.18886 -3.42953,-5.30223c-0.8273,-2.11337 -1.24095,-4.55766 -1.24095,-7.33287v0c0,-2.74513 0.42493,-5.18942 1.27479,-7.33287c0.84234,-2.15098 2.00056,-3.97103 3.47465,-5.46017c1.4741,-1.48914 3.19262,-2.62479 5.15557,-3.40697c1.96295,-0.77465 4.04248,-1.16198 6.23858,-1.16198v0c2.40669,0 4.47117,0.43997 6.19346,1.31992c1.72981,0.87994 3.13621,1.87646 4.21922,2.98956v0l-3.91463,4.77201c-0.84234,-0.74457 -1.73733,-1.3688 -2.68496,-1.8727c-0.94763,-0.51142 -2.13217,-0.76713 -3.55362,-0.76713v0c-1.28607,0 -2.46309,0.24819 -3.53106,0.74457c-1.06797,0.48886 -1.98928,1.1883 -2.76393,2.09833c-0.78217,0.91755 -1.38384,2.0344 -1.80501,3.35056c-0.42117,1.32368 -0.63176,2.81282 -0.63176,4.46741v0c0,3.42201 0.76713,6.07312 2.30139,7.95335c1.54178,1.8727 3.8695,2.80905 6.98315,2.80905v0c0.67688,0 1.33872,-0.08273 1.98552,-0.24819c0.63928,-0.17298 1.16198,-0.42869 1.56811,-0.76713v0v-5.6858h-5.48273v-6.09193h12.08232v15.22981c-1.1507,1.12061 -2.67368,2.06825 -4.56894,2.8429c-1.89527,0.78217 -4.00864,1.17326 -6.34012,1.17326z"/></g></g></svg>