<?xml version="1.0" encoding="UTF-8" standalone="no"?>
<!-- Created with Inkscape (http://www.inkscape.org/) -->

<svg xmlns:dc="http://purl.org/dc/elements/1.1/" xmlns:cc="http://creativecommons.org/ns#" xmlns:rdf="http://www.w3.org/1999/02/22-rdf-syntax-ns#" xmlns:svg="http://www.w3.org/2000/svg" xmlns="http://www.w3.org/2000/svg" xmlns:sodipodi="http://sodipodi.sourceforge.net/DTD/sodipodi-0.dtd" xmlns:inkscape="http://www.inkscape.org/namespaces/inkscape" width="109mm" height="35mm" viewBox="0 0 109 35" version="1.1" id="svg1550" inkscape:version="0.92.4 (5da689c313, 2019-01-14)" sodipodi:docname="jh_hamburg_banner.svg">
  <defs id="defs1544">
    <clipPath id="clipPath2843" clipPathUnits="userSpaceOnUse">
      <path inkscape:connector-curvature="0" id="path2841" d="m 80.431,722.835 h 308.744 v 99.212 H 80.431 Z" />
    </clipPath>
  </defs>
  <sodipodi:namedview id="base" pagecolor="#ffffff" bordercolor="#666666" borderopacity="1.0" inkscape:pageopacity="0.0" inkscape:pageshadow="2" inkscape:zoom="0.35" inkscape:cx="-292.85714" inkscape:cy="560" inkscape:document-units="mm" inkscape:current-layer="layer1" showgrid="false" />
  <metadata id="metadata1547">
    <rdf:RDF>
      <cc:Work rdf:about="">
        <dc:format>image/svg+xml</dc:format>
        <dc:type rdf:resource="http://purl.org/dc/dcmitype/StillImage" />
        <dc:title></dc:title>
      </cc:Work>
    </rdf:RDF>
  </metadata>
  <g inkscape:label="Layer 1" inkscape:groupmode="layer" id="layer1" transform="translate(0,-262)">
    <g id="g2166" transform="translate(-94.463609,83.041652)">
      <g id="g2827" transform="matrix(0.35277777,0,0,-0.35277777,94.463609,195.41529)">
        <path d="m 0,0 v -35.399 2.604 -19.768 l 20.22,19.768 H 132.863 L 166.232,0 Z" style="fill:#22b573;fill-opacity:1;fill-rule:nonzero;stroke:none" id="path2829" inkscape:connector-curvature="0" />
      </g>
      <g id="g2831" transform="matrix(0.35277777,0,0,-0.35277777,94.463609,178.95832)">
        <path d="m 0,0 v -35.399 -11.8 -18.354 l 18.237,18.354 H 308.744 V 0 Z" style="fill:#00a5dd;fill-opacity:1;fill-rule:nonzero;stroke:none" id="path2833" inkscape:connector-curvature="0" />
      </g>
      <path d="m 101.77521,192.0451 h 1.0287 v -1.03505 h -1.0287 z m 1.37125,0 h 1.02835 v -1.03505 h -1.02835 z m 1.3716,0 h 1.0287 v -1.03505 h -1.0287 z m 5.4864,0 h 1.02835 v -1.03505 h -1.02835 z m 1.3716,0 h 1.02835 v -1.03505 h -1.02835 z m 1.3716,0 h 1.02835 v -1.03505 h -1.02835 z m 5.48675,0 h 1.0287 v -1.03505 h -1.0287 z m 1.37054,0 h 1.02941 v -1.03505 h -1.02941 z m 1.37231,0 h 1.02834 v -1.03505 h -1.02834 z m 5.48569,0 h 1.02941 v -1.03505 h -1.02941 z m 1.37195,0 h 1.0287 v -1.03505 h -1.0287 z m 1.37196,0 h 1.0287 v -1.03505 h -1.0287 z m 1.37089,0 h 1.0287 v -1.03505 h -1.0287 z m 2.7432,0 h 1.02906 v -1.03505 h -1.02906 z m 5.4864,0 h 1.0287 v -1.03505 h -1.0287 z m 2.74285,0 h 1.0287 v -1.03505 h -1.0287 z m 1.37125,0 h 1.02975 v -1.03505 h -1.02975 z m 1.3723,0 h 1.02835 v -1.03505 h -1.02835 z m 1.37195,0 h 1.02835 v -1.03505 h -1.02835 z m 12.3437,0 h 1.02799 v -1.03505 h -1.02799 z m 5.48534,0 h 1.02905 v -1.03505 h -1.02905 z m 2.74391,0 h 1.02905 v -1.03505 h -1.02905 z m 5.48569,0 h 1.02905 v -1.03505 h -1.02905 z m 4.1148,0 h 1.0287 v -1.03505 h -1.0287 z m 1.37301,0 h 1.02799 v -1.03505 h -1.02799 z m 1.37089,0 h 1.0287 v -1.03505 h -1.0287 z m 4.11445,0 h 1.028 v -1.03505 h -1.028 z m 5.48675,0 h 1.028 v -1.03505 h -1.028 z m 5.48605,0 h 1.02905 v -1.03505 h -1.02905 z m -93.26703,-0.69003 h 1.0287 v -1.03505 h -1.0287 z m 5.4864,0 h 1.0294 v -1.03505 h -1.0294 z m 10.97245,0 h 1.02905 v -1.03505 h -1.02905 z m 5.48675,0 h 1.02834 v -1.03505 h -1.02834 z m 2.7432,0 h 1.02834 v -1.03505 h -1.02834 z m 21.94454,0 h 1.0287 v -1.03505 h -1.0287 z m 27.432,0 h 1.02905 v -1.03505 h -1.02905 z m 5.48534,0 h 1.0287 v -1.03505 h -1.0287 z m -71.32073,-0.69004 h 1.02835 v -1.03505 h -1.02835 z m 5.4857,0 h 1.0287 v -1.03505 h -1.0287 z m 19.20204,0 h 1.02906 v -1.03505 h -1.02906 z m 5.4864,0 h 1.0287 v -1.03505 h -1.0287 z m 2.74285,0 h 1.0287 v -1.03505 h -1.0287 z m 16.4592,0 h 1.02799 v -1.03505 h -1.02799 z m 5.48534,0 h 1.02905 v -1.03505 h -1.02905 z m 2.74391,0 h 1.02905 v -1.03505 h -1.02905 z m 5.48569,0 h 1.02905 v -1.03505 h -1.02905 z m 10.97315,0 h 1.028 v -1.03505 h -1.028 z m 4.11515,0 h 1.028 v -1.03505 h -1.028 z m 6.85765,0 h 1.02905 v -1.03505 h -1.02905 z M 100.40326,189.975 h 1.0287 v -1.0354 h -1.0287 z m 5.4864,0 h 1.0294 v -1.0354 h -1.0294 z m 10.97245,0 h 1.02905 v -1.0354 h -1.02905 z m 5.48675,0 h 1.02834 v -1.0354 h -1.02834 z m 2.7432,0 h 1.02834 v -1.0354 h -1.02834 z m 21.94454,0 h 1.0287 v -1.0354 h -1.0287 z m 27.432,0 h 1.02905 v -1.0354 h -1.02905 z m -65.83539,-0.68968 h 1.02835 v -1.03505 h -1.02835 z m 5.4857,0 h 1.0287 v -1.03505 h -1.0287 z m 19.20204,0 h 1.02906 v -1.03505 h -1.02906 z m 4.11516,0 h 1.02834 v -1.03505 h -1.02834 z m 1.37124,0 h 1.0287 v -1.03505 h -1.0287 z m 2.74285,0 h 1.0287 v -1.03505 h -1.0287 z m 16.4592,0 h 1.02799 v -1.03505 h -1.02799 z m 5.48534,0 h 1.02905 v -1.03505 h -1.02905 z m 2.74391,0 h 1.02905 v -1.03505 h -1.02905 z m 5.48569,0 h 1.02905 v -1.03505 h -1.02905 z m 10.97315,0 h 1.028 v -1.03505 h -1.028 z m 2.74285,0 h 1.02905 v -1.03505 h -1.02905 z m 8.22995,0 h 1.02905 v -1.03505 h -1.02905 z m -87.78063,-0.69109 h 1.0294 v -1.03505 h -1.0294 z m 10.97245,0 h 1.02905 v -1.03505 h -1.02905 z m 2.74284,0 h 1.02941 v -1.03505 h -1.02941 z m 1.37231,0 h 1.02834 v -1.03505 h -1.02834 z m 1.3716,0 h 1.02834 v -1.03505 h -1.02834 z m 2.7432,0 h 1.02834 v -1.03505 h -1.02834 z m 21.94454,0 h 1.0287 v -1.03505 h -1.0287 z m 20.574,0 h 1.02799 v -1.03505 h -1.02799 z m 1.37124,0 h 1.028 v -1.03505 h -1.028 z m 1.37266,0 h 1.028 v -1.03505 h -1.028 z m 4.1141,0 h 1.02905 v -1.03505 h -1.02905 z m -65.83539,-0.69003 h 1.02835 v -1.03505 h -1.02835 z m 5.4857,0 h 1.0287 v -1.03505 h -1.0287 z m 12.34404,0 h 1.02941 v -1.03505 h -1.02941 z m 1.37195,0 h 1.0287 v -1.03505 h -1.0287 z m 1.37196,0 h 1.0287 v -1.03505 h -1.0287 z m 4.11409,0 h 1.02906 v -1.03505 h -1.02906 z m 2.74356,0 h 1.02834 v -1.03505 h -1.02834 z m 2.74284,0 h 1.0287 v -1.03505 h -1.0287 z m 2.74285,0 h 1.0287 v -1.03505 h -1.0287 z m 16.4592,0 h 1.02799 v -1.03505 h -1.02799 z m 1.37125,0 h 1.02799 v -1.03505 h -1.02799 z m 1.3716,0 h 1.02905 v -1.03505 h -1.02905 z m 1.37195,0 h 1.02799 v -1.03505 h -1.02799 z m 1.37054,0 h 1.02905 v -1.03505 h -1.02905 z m 2.74391,0 h 1.02905 v -1.03505 h -1.02905 z m 5.48569,0 h 1.02905 v -1.03505 h -1.02905 z m 10.97315,0 h 1.028 v -1.03505 h -1.028 z m 1.3709,0 h 1.02905 v -1.03505 h -1.02905 z m 9.6019,0 h 1.02905 v -1.03505 h -1.02905 z m -87.78063,-0.69039 h 1.0294 v -1.03505 h -1.0294 z m 10.97245,0 h 1.02905 v -1.03505 h -1.02905 z m 8.22995,0 h 1.02834 v -1.03505 h -1.02834 z m 21.94454,0 h 1.0287 v -1.03505 h -1.0287 z m 27.432,0 h 1.02905 v -1.03505 h -1.02905 z m -65.83539,-0.68968 h 1.02835 v -1.0354 h -1.02835 z m 5.4857,0 h 1.0287 v -1.0354 h -1.0287 z m 19.20204,0 h 1.02906 v -1.0354 h -1.02906 z m 1.37231,0 h 1.0287 v -1.0354 h -1.0287 z m 4.11409,0 h 1.0287 v -1.0354 h -1.0287 z m 2.74285,0 h 1.0287 v -1.0354 h -1.0287 z m 16.4592,0 h 1.02799 v -1.0354 h -1.02799 z m 5.48534,0 h 1.02905 v -1.0354 h -1.02905 z m 2.74391,0 h 1.02905 v -1.0354 h -1.02905 z m 5.48569,0 h 1.02905 v -1.0354 h -1.02905 z m 10.97315,0 h 1.028 v -1.0354 h -1.028 z m 2.74285,0 h 1.02905 v -1.0354 h -1.02905 z m 8.22995,0 h 1.02905 v -1.0354 h -1.02905 z m -87.78063,-0.69003 h 1.0294 v -1.03541 h -1.0294 z m 10.97245,0 h 1.02905 v -1.03541 h -1.02905 z m 8.22995,0 h 1.02834 v -1.03541 h -1.02834 z m 21.94454,0 h 1.0287 v -1.03541 h -1.0287 z m 27.432,0 h 1.02905 v -1.03541 h -1.02905 z m -74.06534,-0.69039 h 1.0287 v -1.03505 h -1.0287 z m 8.22995,0 h 1.02835 v -1.03505 h -1.02835 z m 5.4857,0 h 1.0287 v -1.03505 h -1.0287 z m 19.20204,0 h 1.02906 v -1.03505 h -1.02906 z m 5.4864,0 h 1.0287 v -1.03505 h -1.0287 z m 2.74285,0 h 1.0287 v -1.03505 h -1.0287 z m 16.4592,0 h 1.02799 v -1.03505 h -1.02799 z m 5.48534,0 h 1.02905 v -1.03505 h -1.02905 z m 2.74391,0 h 1.02905 v -1.03505 h -1.02905 z m 5.48569,0 h 1.02905 v -1.03505 h -1.02905 z m 10.97315,0 h 1.028 v -1.03505 h -1.028 z m 4.11515,0 h 1.028 v -1.03505 h -1.028 z m 6.85765,0 h 1.02905 v -1.03505 h -1.02905 z m -87.78063,-0.69039 h 1.0294 v -1.03505 h -1.0294 z m 10.97245,0 h 1.02905 v -1.03505 h -1.02905 z m 5.48675,0 h 1.02834 v -1.03505 h -1.02834 z m 2.7432,0 h 1.02834 v -1.03505 h -1.02834 z m 21.94454,0 h 1.0287 v -1.03505 h -1.0287 z m 27.432,0 h 1.02905 v -1.03505 h -1.02905 z m 5.48534,0 h 1.0287 v -1.03505 h -1.0287 z m -12.34334,-0.34501 h 1.02799 v -1.03505 h -1.02799 z m 2.7439,0 h 1.028 v -1.03505 h -1.028 z m -69.95124,-0.34537 h 1.0287 v -1.03505 h -1.0287 z m 1.37195,0 h 1.0287 v -1.03505 h -1.0287 z m 1.37125,0 h 1.02835 v -1.03505 h -1.02835 z m 1.3716,0 h 1.0287 v -1.03505 h -1.0287 z m 4.11515,0 h 1.02835 v -1.03505 h -1.02835 z m 5.4857,0 h 1.0287 v -1.03505 h -1.0287 z m 4.1155,0 h 1.0287 v -1.03505 h -1.0287 z m 1.37054,0 h 1.02941 v -1.03505 h -1.02941 z m 1.37231,0 h 1.02834 v -1.03505 h -1.02834 z m 5.48569,0 h 1.02941 v -1.03505 h -1.02941 z m 1.37195,0 h 1.0287 v -1.03505 h -1.0287 z m 1.37196,0 h 1.0287 v -1.03505 h -1.0287 z m 1.37089,0 h 1.0287 v -1.03505 h -1.0287 z m 2.7432,0 h 1.02906 v -1.03505 h -1.02906 z m 5.4864,0 h 1.0287 v -1.03505 h -1.0287 z m 2.74285,0 h 1.0287 v -1.03505 h -1.0287 z m 1.37125,0 h 1.02975 v -1.03505 h -1.02975 z m 1.3723,0 h 1.02835 v -1.03505 h -1.02835 z m 1.37195,0 h 1.02835 v -1.03505 h -1.02835 z m 12.3437,0 h 1.02799 v -1.03505 h -1.02799 z m 5.48534,0 h 1.02905 v -1.03505 h -1.02905 z m 5.4871,0 h 1.028 v -1.03505 h -1.028 z m 6.8573,0 h 1.0287 v -1.03505 h -1.0287 z m 1.37301,0 h 1.02799 v -1.03505 h -1.02799 z m 1.37089,0 h 1.0287 v -1.03505 h -1.0287 z m 4.11445,0 h 1.028 v -1.03505 h -1.028 z m 5.48675,0 h 1.028 v -1.03505 h -1.028 z m 2.7432,0 h 1.02835 v -1.03505 h -1.02835 z m 1.3709,0 h 1.02905 v -1.03505 h -1.02905 z m 1.37195,0 h 1.02905 v -1.03505 h -1.02905 z m 1.3716,0 h 1.02941 v -1.03505 h -1.02941 z m 1.37125,0 h 1.02799 v -1.03505 h -1.02799 z" style="fill:#ffffff;fill-opacity:1;fill-rule:nonzero;stroke:none;stroke-width:0.35277778" id="path2835" inkscape:connector-curvature="0" />
      <g transform="matrix(0.35277777,0,0,-0.35277777,66.089269,468.95837)" id="g2837">
        <g id="g2839" clip-path="url(#clipPath2843)">
          <g id="g2845" transform="translate(115.6956,767.7326)">
            <path d="M 0,0 H 3.197 V -16.766 H 0 v 6.684 c 0,0.09 -0.044,0.134 -0.135,0.134 h -5.454 c -0.089,0 -0.133,-0.044 -0.133,-0.134 v -6.684 H -8.919 V 0 h 3.197 v -6.617 c 0,-0.09 0.044,-0.134 0.133,-0.134 h 5.454 c 0.091,0 0.135,0.044 0.135,0.134 z" style="fill:#ffffff;fill-opacity:1;fill-rule:nonzero;stroke:none" id="path2847" inkscape:connector-curvature="0" />
          </g>
          <g id="g2849" transform="translate(128.3931,761.9872)">
            <path d="M 0,0 C -0.015,-0.015 -0.022,-0.03 -0.022,-0.044 L -1.9,-4.761 c -0.016,-0.015 -0.023,-0.045 -0.023,-0.09 0,-0.045 0.03,-0.067 0.089,-0.067 H 1.9 c 0.06,0 0.089,0.03 0.089,0.09 0,0.03 -0.007,0.052 -0.022,0.067 L 0.112,-0.044 C 0.096,-0.03 0.089,-0.015 0.089,0 L 0.044,0.044 C 0.014,0.044 0,0.03 0,0 m 4.561,-11.02 -1.32,3.017 c -0.03,0.074 -0.09,0.112 -0.178,0.112 h -6.059 c -0.089,0 -0.149,-0.038 -0.179,-0.112 L -4.427,-11.02 H -7.869 L -1.185,5.746 H 1.252 L 7.981,-11.02 Z" style="fill:#ffffff;fill-opacity:1;fill-rule:nonzero;stroke:none" id="path2851" inkscape:connector-curvature="0" />
          </g>
          <g id="g2853" transform="translate(150.5019,767.7326)">
            <path d="M 0,0 H 4.27 V -16.766 H 1.118 v 11.02 C 1.118,-5.73 1.11,-5.738 1.095,-5.768 1.08,-5.798 1.036,-5.909 0.962,-6.103 0.887,-6.297 0.763,-6.617 0.593,-7.064 c -0.172,-0.448 -0.414,-1.081 -0.728,-1.9 -0.312,-0.82 -0.707,-1.863 -1.184,-3.13 -0.477,-1.267 -1.059,-2.824 -1.744,-4.672 h -2.436 l -3.957,11.11 v -11.11 h -3.286 V 0 h 4.202 l 4.27,-11.714 z" style="fill:#ffffff;fill-opacity:1;fill-rule:nonzero;stroke:none" id="path2855" inkscape:connector-curvature="0" />
          </g>
          <g id="g2857" transform="translate(162.3718,754.1636)">
            <path d="M 0,0 C 0.283,0 0.548,0.059 0.793,0.178 1.039,0.297 1.252,0.454 1.43,0.648 1.609,0.841 1.751,1.068 1.855,1.329 1.96,1.591 2.012,1.863 2.012,2.146 2.012,2.429 1.96,2.701 1.855,2.962 1.751,3.222 1.609,3.45 1.43,3.643 1.252,3.837 1.039,3.99 0.793,4.102 0.548,4.214 0.283,4.269 0,4.269 h -1.744 c -0.089,0 -0.134,-0.044 -0.134,-0.134 V 0.134 C -1.878,0.044 -1.833,0 -1.744,0 Z m 1.162,8.729 c 0,0.429 -0.156,0.806 -0.469,1.132 -0.313,0.326 -0.708,0.489 -1.185,0.489 h -1.252 c -0.089,0 -0.134,-0.045 -0.134,-0.133 V 7.152 c 0,-0.089 0.045,-0.133 0.134,-0.133 h 1.386 C 0.089,7.049 0.454,7.234 0.738,7.574 1.02,7.915 1.162,8.299 1.162,8.729 M -5.075,-3.197 v 16.766 h 4.807 c 0.089,0 0.156,-0.008 0.201,-0.022 C 0.559,13.502 1.133,13.353 1.654,13.1 2.176,12.845 2.627,12.518 3.006,12.116 3.387,11.714 3.685,11.247 3.901,10.719 4.117,10.19 4.225,9.627 4.225,9.031 4.225,8.464 4.139,7.932 3.968,7.432 3.796,6.933 3.562,6.483 3.264,6.08 3.859,5.603 4.333,5.014 4.683,4.314 5.033,3.613 5.208,2.846 5.208,2.012 5.208,1.297 5.075,0.626 4.806,0 4.538,-0.626 4.177,-1.174 3.722,-1.643 3.267,-2.113 2.731,-2.486 2.113,-2.761 1.494,-3.037 0.827,-3.182 0.112,-3.197 Z" style="fill:#ffffff;fill-opacity:1;fill-rule:nonzero;stroke:none" id="path2859" inkscape:connector-curvature="0" />
          </g>
          <g id="g2861" transform="translate(169.8157,767.7103)">
            <path d="m 0,0 h 3.197 v -11.535 c 0,-0.328 0.074,-0.622 0.223,-0.883 0.149,-0.261 0.339,-0.484 0.57,-0.671 0.231,-0.187 0.488,-0.327 0.772,-0.425 0.282,-0.097 0.558,-0.145 0.827,-0.145 0.297,0 0.584,0.052 0.86,0.157 0.276,0.104 0.517,0.249 0.727,0.436 0.208,0.186 0.376,0.401 0.502,0.648 0.127,0.245 0.191,0.51 0.191,0.793 V 0 h 3.196 v -11.982 c 0,-0.715 -0.153,-1.371 -0.458,-1.968 -0.306,-0.595 -0.712,-1.109 -1.218,-1.542 -0.507,-0.433 -1.088,-0.768 -1.744,-1.005 -0.656,-0.239 -1.341,-0.358 -2.056,-0.358 -0.715,0 -1.409,0.119 -2.079,0.358 -0.671,0.237 -1.267,0.572 -1.789,1.005 -0.522,0.433 -0.938,0.947 -1.251,1.542 C 0.157,-13.353 0,-12.697 0,-11.982 Z" style="fill:#ffffff;fill-opacity:1;fill-rule:nonzero;stroke:none" id="path2863" inkscape:connector-curvature="0" />
          </g>
          <g id="g2865" transform="translate(186.7156,760.892)">
            <path d="m 0,0 c 0,-0.09 0.044,-0.135 0.134,-0.135 h 1.833 c 0.328,0 0.599,0.068 0.816,0.202 C 2.998,0.201 3.171,0.369 3.297,0.57 3.424,0.771 3.513,0.984 3.565,1.207 3.617,1.431 3.643,1.632 3.643,1.811 3.643,1.99 3.617,2.183 3.565,2.392 3.513,2.6 3.424,2.798 3.297,2.984 3.171,3.171 2.998,3.327 2.783,3.454 2.566,3.58 2.295,3.643 1.967,3.643 H 0.134 C 0.044,3.643 0,3.599 0,3.51 Z M 0.737,-3.129 C 0.693,-3.04 0.626,-2.996 0.536,-2.996 H 0.134 C 0.044,-2.996 0,-3.04 0,-3.129 V -9.925 H -3.197 V 6.841 H 1.967 C 2.682,6.841 3.338,6.71 3.934,6.449 4.53,6.188 5.044,5.834 5.477,5.388 5.909,4.94 6.244,4.411 6.483,3.8 6.721,3.189 6.84,2.526 6.84,1.811 6.84,0.678 6.613,-0.249 6.159,-0.972 5.704,-1.695 5.036,-2.28 4.158,-2.727 4.127,-2.727 4.113,-2.765 4.113,-2.839 L 7.444,-9.925 H 3.867 Z" style="fill:#ffffff;fill-opacity:1;fill-rule:nonzero;stroke:none" id="path2867" inkscape:connector-curvature="0" />
          </g>
          <g id="g2869" transform="translate(210.858,757.2032)">
            <path d="m 0,0 c 0,-0.805 -0.149,-1.591 -0.447,-2.358 -0.299,-0.768 -0.742,-1.453 -1.331,-2.056 -0.588,-0.605 -1.319,-1.088 -2.19,-1.454 -0.872,-0.365 -1.875,-0.548 -3.007,-0.548 -1.192,0 -2.306,0.224 -3.342,0.671 -1.036,0.447 -1.941,1.058 -2.715,1.833 -0.776,0.775 -1.387,1.68 -1.834,2.716 -0.447,1.036 -0.67,2.15 -0.67,3.343 0,1.177 0.223,2.287 0.67,3.33 0.447,1.043 1.058,1.952 1.834,2.728 0.774,0.774 1.679,1.385 2.715,1.833 1.036,0.447 2.15,0.67 3.342,0.67 0.82,0 1.542,-0.082 2.169,-0.246 0.626,-0.164 1.162,-0.354 1.609,-0.57 0.447,-0.216 0.801,-0.425 1.062,-0.626 0.261,-0.201 0.428,-0.331 0.502,-0.391 L -3.599,6.326 c -0.462,0.373 -0.98,0.663 -1.554,0.873 -0.574,0.208 -1.181,0.312 -1.822,0.312 -0.745,0 -1.442,-0.141 -2.09,-0.425 -0.648,-0.283 -1.215,-0.667 -1.699,-1.151 -0.485,-0.484 -0.869,-1.05 -1.151,-1.698 -0.284,-0.649 -0.425,-1.345 -0.425,-2.09 0,-0.746 0.141,-1.442 0.425,-2.091 0.282,-0.648 0.666,-1.215 1.151,-1.698 0.484,-0.485 1.051,-0.869 1.699,-1.152 0.648,-0.283 1.345,-0.425 2.09,-0.425 0.403,0 0.808,0.068 1.219,0.201 0.409,0.134 0.778,0.321 1.106,0.56 0.328,0.237 0.592,0.509 0.794,0.816 0.201,0.304 0.301,0.636 0.301,0.994 0,0.015 0.004,0.026 0.012,0.034 0.007,0.007 0.011,0.018 0.011,0.033 0,0.045 -0.03,0.067 -0.089,0.067 h -3.711 v 3.197 h 7.31 z" style="fill:#ffffff;fill-opacity:1;fill-rule:nonzero;stroke:none" id="path2871" inkscape:connector-curvature="0" />
          </g>
        </g>
      </g>
    </g>
  </g>
</svg>
