<svg version="1.1"
xmlns="http://www.w3.org/2000/svg" xmlns:xlink="http://www.w3.org/1999/xlink" xmlns:a="http://ns.adobe.com/AdobeSVGViewerExtensions/3.0/"
x="0px" y="0px" width="278.6px" height="303.7px" viewBox="0 0 278.6 303.7" style="enable-background:new 0 0 278.6 303.7;"
xml:space="preserve">
<style type="text/css">
.st0{fill:#FF516F;}
</style>
<defs>
</defs>
<g>
<path class="st0" d="M51.3,136.3c-1.1,0-2.1-0.2-2.9-0.5c-0.8-0.3-1.5-0.6-2.1-1c-0.6-0.4-1.1-0.7-1.6-1.1
c-0.9-0.7-1.9-0.8-2.7-0.3c-0.3,0.2-0.6,0.4-0.8,0.7l-2.1,3.4l0.3,0.3c0.7,0.7,1.4,1.3,2.4,1.9c0.9,0.6,1.8,1.1,2.8,1.5
c1,0.4,2.1,0.7,3.1,1c1.1,0.2,2.2,0.3,3.3,0.3v-0.6l0,0.6c1.9,0,3.7-0.3,5.3-0.9c1.5-0.6,2.9-1.4,3.9-2.5c1.1-1.1,1.9-2.3,2.5-3.7
c0.6-1.4,0.8-2.9,0.8-4.6c0-1.5-0.2-2.8-0.7-3.9c-0.5-1.1-1.1-2-1.9-2.7c-0.8-0.7-1.7-1.3-2.7-1.8c-0.9-0.4-1.9-0.8-3-1.2
c-1-0.3-2-0.7-2.9-1c-0.9-0.3-1.7-0.6-2.4-1c-0.7-0.4-1.2-0.8-1.6-1.2c-0.4-0.4-0.5-1-0.5-1.7c0-0.5,0.1-1,0.3-1.5
c0.2-0.4,0.5-0.8,0.9-1.2c0.4-0.3,0.9-0.6,1.5-0.8c0.6-0.2,1.3-0.3,2.1-0.3c0.9,0,1.7,0.1,2.4,0.3c0.7,0.2,1.2,0.5,1.8,0.8
c0.5,0.3,1,0.6,1.4,0.8c0.5,0.3,0.9,0.4,1.4,0.4c0.4,0,0.8-0.1,1.1-0.3c0.3-0.2,0.6-0.5,0.8-0.9l1.8-3.4l-0.3-0.3
c-1.3-1.2-2.8-2.1-4.5-2.8c-1.8-0.7-3.7-1-5.8-1h0c-1.9,0-3.5,0.3-5,0.9c-1.5,0.6-2.7,1.4-3.7,2.3c-1,1-1.8,2.1-2.3,3.4
c-0.5,1.2-0.8,2.5-0.8,3.9c0,1.6,0.2,3,0.7,4.2c0.5,1.1,1.1,2.1,1.9,2.8c0.8,0.8,1.7,1.4,2.7,1.8c0.9,0.4,1.9,0.8,3,1.2
c1,0.3,2,0.6,2.9,0.9c0.9,0.3,1.7,0.6,2.4,0.9c0.7,0.4,1.2,0.8,1.6,1.3c0.4,0.5,0.6,1.1,0.6,1.9c0,1.5-0.4,2.5-1.3,3.3
C54.3,135.9,53,136.3,51.3,136.3z"/>
<path class="st0" d="M108.9,142.6h6.7l0-35.5l-5.4,0c-0.3,0-0.6,0-0.8,0c-0.3,0-0.5,0.1-0.7,0.2c-0.3,0.1-0.5,0.2-0.7,0.5
c-0.2,0.2-0.3,0.4-0.5,0.7l-10.2,19c-0.3,0.5-0.5,1-0.8,1.6c-0.1,0.1-0.1,0.3-0.2,0.4l-0.2-0.4c-0.2-0.5-0.5-1.1-0.8-1.6
l-10.3-19.1c-0.2-0.3-0.3-0.5-0.5-0.7c-0.2-0.2-0.4-0.4-0.7-0.4c-0.2-0.1-0.5-0.1-0.7-0.2c-0.2,0-0.5,0-0.8,0h-5.4v35.5h6.8v-22.7
c0-0.1,0-0.2,0-0.4l9.3,17.3c0.3,0.5,0.7,0.9,1.1,1.3c0.5,0.3,1,0.5,1.6,0.5H97c0.6,0,1.2-0.2,1.6-0.5c0.5-0.3,0.8-0.7,1.1-1.2
l9.2-17.2c0,0.1,0,0.2,0,0.3L108.9,142.6z"/>
<path class="st0" d="M194.1,129c-0.4-0.6-0.8-1.1-1.3-1.5c0.8-0.3,1.6-0.7,2.3-1.2c1-0.7,1.8-1.5,2.5-2.3c0.7-0.9,1.2-1.9,1.6-3
c0.4-1.1,0.5-2.2,0.5-3.5c0-1.6-0.3-2.9-0.8-4.2c-0.5-1.3-1.4-2.4-2.5-3.3c-1.1-0.9-2.6-1.6-4.3-2.1c-1.7-0.5-3.8-0.7-6.2-0.7
l-11,0l0,35.5h7.5l0-13.4l2.3,0c0.6,0,0.9,0.1,1.1,0.2c0.2,0.1,0.5,0.4,0.7,0.7l7.2,11c0.3,0.5,0.7,0.9,1.2,1.1
c0.5,0.3,1,0.4,1.7,0.4h6.8L194.1,129z M192,120.3c-0.3,0.7-0.6,1.2-1.1,1.7c-0.5,0.5-1.2,0.9-2,1.1c-0.9,0.3-1.9,0.4-3,0.4h-3.4
v-10.3h3.5c2.2,0,3.9,0.4,4.9,1.3c1,0.8,1.5,2,1.5,3.6C192.4,118.9,192.2,119.6,192,120.3z"/>
<polygon class="st0" points="239.4,107.2 211.2,107.2 211.2,113.5 221.6,113.5 221.6,142.6 229.1,142.6 229.1,113.5 239.4,113.5
"/>
<path class="st0" d="M50.4,196.9v-12.1h4.2c2.3,0,4.3-0.3,6-0.9c1.7-0.6,3.2-1.4,4.3-2.4c1.2-1,2.1-2.3,2.7-3.8
c0.6-1.5,0.9-3.1,0.9-4.8c0-1.6-0.3-3.2-0.8-4.6c-0.6-1.4-1.4-2.7-2.6-3.7c-1.1-1-2.6-1.8-4.4-2.4c-1.7-0.6-3.8-0.8-6.1-0.8H42.9
l0,35.5H50.4z M50.4,167.5h4.2c1.1,0,2.1,0.1,2.9,0.4c0.8,0.3,1.4,0.6,2,1.1c0.5,0.4,0.9,1,1.1,1.7c0.3,0.7,0.4,1.4,0.4,2.3
c0,0.9-0.1,1.7-0.4,2.4c-0.3,0.7-0.6,1.3-1.1,1.8c-0.5,0.5-1.2,0.9-2,1.1c-0.8,0.3-1.8,0.4-2.9,0.4l-4.2,0V167.5z"/>
<path class="st0" d="M141.2,170.7c0.9-1,2-1.7,3.3-2.3c1.3-0.5,2.7-0.8,4.2-0.8c1.3,0,2.4,0.1,3.2,0.4c0.9,0.3,1.6,0.6,2.1,0.9
c0.6,0.3,1,0.6,1.4,0.9c0.9,0.7,2,0.7,2.6,0.2c0.2-0.2,0.5-0.4,0.6-0.6l2.4-3.4l-0.3-0.3c-1.4-1.4-3.1-2.5-5.1-3.4
c-1.9-0.8-4.2-1.3-6.9-1.3c-2.7,0-5.2,0.4-7.4,1.3c-2.2,0.9-4.2,2.2-5.8,3.7c-1.6,1.6-2.9,3.6-3.7,5.7c-0.9,2.2-1.3,4.6-1.3,7.3
c0,2.6,0.4,5,1.2,7.2c0.8,2.2,2,4.2,3.4,5.8c1.5,1.6,3.3,2.9,5.4,3.8c2.1,0.9,4.4,1.4,7,1.4h0.1c2.9,0,5.4-0.5,7.5-1.4
c2.1-1,3.9-2.3,5.3-4.1l0.3-0.4l-2.9-3.1c-0.4-0.4-0.8-0.6-1.3-0.6h0c-0.3,0-0.5,0.1-0.8,0.2c-0.2,0.1-0.4,0.2-0.6,0.4
c-0.5,0.5-1,0.8-1.5,1.1c-0.5,0.3-1,0.5-1.6,0.7c-0.6,0.2-1.2,0.3-1.8,0.4c-0.7,0.1-1.5,0.1-2.3,0.1c-1.4,0-2.7-0.3-3.9-0.8
c-1.2-0.5-2.2-1.2-3.1-2.2c-0.9-1-1.6-2.2-2.1-3.6c-0.5-1.4-0.8-3.1-0.8-5c0-1.8,0.3-3.4,0.8-4.9
C139.5,172.9,140.2,171.7,141.2,170.7z M147.6,196.7L147.6,196.7L147.6,196.7L147.6,196.7z"/>
<polygon class="st0" points="198,167.6 198,161.4 175.2,161.4 175.2,196.9 198,196.9 198,190.7 182.7,190.7 182.7,182.1 
194.7,182.1 194.7,176 182.7,176 182.7,167.6 "/>
<path class="st0" d="M220.6,190.9c-1.2,0-2.1-0.1-2.9-0.4c-0.8-0.3-1.5-0.6-2.1-1c-0.6-0.4-1.1-0.7-1.6-1.1c-1-0.7-2-0.7-2.7-0.3
c-0.3,0.2-0.6,0.4-0.8,0.7l-2.1,3.4l0.3,0.3c0.7,0.7,1.5,1.3,2.4,1.9c0.9,0.6,1.8,1.1,2.8,1.5c1,0.4,2.1,0.7,3.1,1
c1.1,0.2,2.3,0.3,3.3,0.3c2,0,3.7-0.3,5.3-0.9c1.5-0.6,2.9-1.4,3.9-2.5c1.1-1.1,1.9-2.3,2.5-3.7c0.6-1.4,0.8-3,0.8-4.6
c0-1.5-0.2-2.8-0.7-3.9c-0.5-1.1-1.1-2-1.9-2.7c-0.8-0.7-1.7-1.3-2.7-1.8c-0.9-0.4-1.9-0.9-3-1.2c-1-0.3-2-0.7-2.9-1
c-1-0.3-1.8-0.6-2.5-1c-0.7-0.4-1.2-0.8-1.6-1.3c-0.4-0.4-0.5-1-0.5-1.6c0-0.6,0.1-1.1,0.3-1.5c0.2-0.4,0.5-0.8,0.9-1.1
c0.4-0.3,0.9-0.6,1.5-0.8c0.6-0.2,1.3-0.3,2.1-0.3c0.9,0,1.7,0.1,2.4,0.3c0.7,0.2,1.3,0.5,1.8,0.8c0.5,0.3,1,0.6,1.4,0.8
c1,0.6,1.8,0.5,2.5,0.2c0.3-0.2,0.6-0.5,0.8-1l1.8-3.4l-0.3-0.3c-1.2-1.2-2.8-2.1-4.6-2.8c-1.8-0.7-3.7-1-5.8-1
c-1.8,0-3.5,0.3-5,0.9c-1.4,0.6-2.7,1.4-3.7,2.3c-1,1-1.8,2.1-2.3,3.4c-0.5,1.2-0.8,2.6-0.8,3.9c0,1.6,0.2,3,0.7,4.2
c0.5,1.1,1.1,2.1,1.9,2.9c0.8,0.8,1.7,1.4,2.7,1.8c1,0.5,1.9,0.8,3,1.2c1,0.3,2,0.6,2.9,0.9c0.9,0.2,1.7,0.6,2.4,0.9
c0.7,0.3,1.2,0.8,1.6,1.3c0.4,0.5,0.6,1.1,0.6,1.9c0,1.5-0.4,2.5-1.3,3.3C223.6,190.5,222.3,190.9,220.6,190.9z"/>
<path class="st0" d="M149.3,107.2H142l-37.9,83.2H87l0-29.1h-7.5l0,35.5l29.1,0l2.2-5.6l34.1-73.3c0.2-0.6,0.4-1.2,0.6-1.9
c0-0.1,0.1-0.3,0.1-0.4c0,0.1,0.1,0.3,0.1,0.4c0.2,0.7,0.4,1.3,0.6,1.8l3.9,10.7h0l4.5,12.3c0.2,0.5,0.5,0.9,1,1.3
c0.4,0.4,1,0.5,1.7,0.5l5.8,0L149.3,107.2z"/>
<path class="st0" d="M139.3,6.7c57,0,108.3,33.1,131.9,84.6h7.4C254.4,35.8,200,0,139.3,0S24.2,35.8,0,91.3h7.4
C31,39.8,82.3,6.7,139.3,6.7z"/>
<path class="st0" d="M218,273.8C194.6,289,167.3,297,139.3,297s-55.3-8-78.7-23.2c-21.7-14-39.2-33.5-50.8-56.4H2.3
c12.1,25.3,31,46.8,54.6,62c24.5,15.9,53,24.3,82.4,24.3s57.8-8.4,82.4-24.3c23.6-15.3,42.5-36.7,54.6-62h-7.5
C257.2,240.4,239.7,259.8,218,273.8z"/>
</g>
</svg>