<?xml version="1.0" encoding="UTF-8" standalone="no"?>
<!-- Created with Inkscape (http://www.inkscape.org/) -->

<svg
   width="100mm"
   height="100mm"
   viewBox="0 0 100 100"
   version="1.1"
   id="svg407"
   inkscape:version="1.2.2 (b0a8486541, 2022-12-01)"
   sodipodi:docname="knowledgecamp-simple.svg"
   xmlns:inkscape="http://www.inkscape.org/namespaces/inkscape"
   xmlns:sodipodi="http://sodipodi.sourceforge.net/DTD/sodipodi-0.dtd"
   xmlns="http://www.w3.org/2000/svg"
   xmlns:svg="http://www.w3.org/2000/svg">
  <sodipodi:namedview
     id="namedview409"
     pagecolor="#ffffff"
     bordercolor="#666666"
     borderopacity="1.0"
     inkscape:showpageshadow="2"
     inkscape:pageopacity="0.0"
     inkscape:pagecheckerboard="0"
     inkscape:deskcolor="#d1d1d1"
     inkscape:document-units="mm"
     showgrid="false"
     inkscape:zoom="0.7"
     inkscape:cx="399.28571"
     inkscape:cy="563.57143"
     inkscape:window-width="1874"
     inkscape:window-height="1011"
     inkscape:window-x="0"
     inkscape:window-y="0"
     inkscape:window-maximized="1"
     inkscape:current-layer="layer1" />
  <defs
     id="defs404" />
  <g
     inkscape:label="Ebene 1"
     inkscape:groupmode="layer"
     id="layer1">
    <path
       id="path644"
       style="font-size:8.89542px;line-height:1.25;font-family:Bungee;-inkscape-font-specification:Bungee;text-align:start;letter-spacing:0.571849px;text-anchor:start;fill:#161650;stroke-width:3.21425"
       d="M 49.820675,5 C 42.380768,5 36.220129,5.5985792 31.3402,6.7985843 26.460259,7.9985642 22.619546,9.6810809 19.819606,11.84105 17.099632,14.001032 15.180844,16.599242 14.06092,19.639212 13.020965,22.599168 12.5,25.918936 12.5,29.598885 v 40.921061 c 0,3.679947 0.520952,7.038549 1.56092,10.078524 1.119974,2.959938 3.038712,5.51934 5.758686,7.679304 2.79994,2.079981 6.640653,3.720492 11.520594,4.920435 C 36.220129,94.39817 42.380768,95 49.820675,95 c 7.439897,0 13.558494,-0.601866 18.358432,-1.801791 4.879942,-1.199997 8.678573,-2.840454 11.398551,-4.920435 2.79994,-2.159964 4.721964,-4.719366 5.761894,-7.679304 1.120004,-3.039975 1.679755,-6.398577 1.679755,-10.078524 V 29.598885 c 0,-3.679949 -0.559796,-6.999717 -1.679755,-9.959673 -1.039986,-3.03997 -2.961954,-5.63818 -5.761894,-7.798162 C 76.85768,9.6810809 73.059049,7.9985642 68.179107,6.7985843 63.379169,5.598617 57.260572,5 49.820675,5 Z m -0.06091,8.520808 c 1.020501,0 1.849973,0.831596 1.849973,1.853183 v 4.245948 c 0,1.019474 -0.829323,1.849971 -1.849973,1.849971 -1.020365,0 -1.849974,-0.83046 -1.849974,-1.849971 v -4.245948 c 0,-1.021581 0.82933,-1.853183 1.849974,-1.853183 z m -15.949616,4.27164 c 0.659967,0 1.27687,0.358551 1.60588,0.931412 l 2.126187,3.677467 c 0.247113,0.432823 0.311253,0.93401 0.183097,1.409965 -0.128155,0.477819 -0.433256,0.875214 -0.863966,1.120899 -0.268556,0.162401 -0.591805,0.250532 -0.921774,0.250532 -0.651558,0 -1.267031,-0.352957 -1.60588,-0.921772 l -2.123106,-3.690334 c -0.24556,-0.424866 -0.313056,-0.921884 -0.186268,-1.400324 0.126789,-0.479 0.431268,-0.880087 0.857541,-1.127326 0.28341,-0.163582 0.603923,-0.250531 0.9282,-0.250531 z m 31.896017,0 v 0.0032 c 0.32387,0 0.644124,0.08633 0.924986,0.250533 0.425984,0.244067 0.732595,0.642227 0.860751,1.120898 0.128654,0.479 0.06153,0.979026 -0.186267,1.406752 l -2.116551,3.68068 c -0.339159,0.569803 -0.954426,0.921773 -1.609091,0.921773 -0.326232,0 -0.648579,-0.0908 -0.928198,-0.256934 -0.42412,-0.243135 -0.732596,-0.640619 -0.860753,-1.117692 -0.127907,-0.476265 -0.06091,-0.973345 0.186269,-1.400325 l 2.126183,-3.68068 c 0.32847,-0.571792 0.944227,-0.928199 1.602677,-0.928199 z M 49.7148,24.935404 c 5.753317,-0.01429 11.174078,2.128912 15.368284,6.108778 4.476442,4.24768 6.940492,9.986335 6.940617,16.155157 0,8.357137 -4.614841,15.936332 -12.044109,19.781249 -1.753661,0.907614 -2.842404,2.724381 -2.842404,4.740561 v 6.314319 c 0,2.180466 -1.337688,4.057443 -3.234249,4.849767 -0.289126,2.028681 -2.035805,3.590748 -4.143172,3.590748 -2.110556,0 -3.861485,-1.567062 -4.146387,-3.600387 -1.95212,-0.851238 -3.231034,-2.947338 -3.231034,-5.598099 v -5.562765 c 0,-2.015127 -1.083087,-3.824217 -2.826346,-4.724514 -3.64091,-1.88046 -6.692506,-4.728411 -8.825928,-8.231744 -2.197759,-3.608985 -3.315993,-7.76072 -3.231032,-12.011988 0.111126,-5.580902 2.346842,-10.904571 6.295059,-14.989292 3.949945,-4.086461 9.19556,-6.500461 14.767681,-6.792883 0.386208,-0.01989 0.769483,-0.02796 1.15302,-0.02921 z m 0.05469,1.991297 c -0.367189,0 -0.734673,0.0099 -1.104846,0.02921 -5.066606,0.265821 -9.839641,2.463087 -13.438014,6.185851 -3.597285,3.721571 -5.631997,8.567508 -5.732993,13.643567 -0.07707,3.871374 0.938684,7.654876 2.93876,10.939263 1.943212,3.19082 4.723269,5.780597 8.039046,7.493036 1.425069,0.736002 2.530264,1.907811 3.195701,3.314538 H 55.85558 c 0.668201,-1.407924 1.778832,-2.580957 3.208549,-3.320955 6.764716,-3.501072 10.965224,-10.40279 10.964963,-18.011569 0,-5.616389 -2.245055,-10.839269 -6.320757,-14.706653 -3.805317,-3.610739 -8.719302,-5.565987 -13.93905,-5.565987 z m -27.627571,2.54371 c 0.323746,0 0.644373,0.08471 0.924987,0.247301 l 3.68068,2.122976 c 0.883849,0.516415 1.185955,1.651491 0.67768,2.53087 -0.340403,0.58155 -0.941613,0.928205 -1.609093,0.928205 -0.32617,0 -0.644933,-0.0908 -0.924987,-0.256934 l -3.674257,-2.11655 c -0.883159,-0.521823 -1.187426,-1.653642 -0.680893,-2.527663 0.326915,-0.572103 0.942178,-0.928198 1.605886,-0.928205 z m 55.239094,0 c 0.661427,0 1.274451,0.356811 1.602677,0.931412 0.246555,0.426296 0.312559,0.92355 0.183036,1.403545 -0.129337,0.478441 -0.434996,0.879677 -0.863972,1.124118 l -3.680668,2.116543 c -0.274646,0.16321 -0.592364,0.253702 -0.918572,0.253702 -0.650295,0 -1.26591,-0.353082 -1.605877,-0.921784 -0.508957,-0.880889 -0.206964,-2.014865 0.671259,-2.534077 l 3.683888,-2.12619 c 0.283534,-0.162526 0.605105,-0.2473 0.928199,-0.2473 z M 48.69677,32.377072 h 2.126187 c 1.136078,0 2.061954,0.925862 2.061954,2.06195 v 0.462468 c 1.189645,0.299508 2.313442,0.765183 3.36271,1.390698 l 0.327599,-0.324367 c 0.803386,-0.803132 2.109876,-0.803132 2.913063,0 l 1.503111,1.503098 c 0.388259,0.388259 0.600568,0.906918 0.600568,1.458138 0,0.55122 -0.212184,1.066678 -0.600568,1.454937 l -0.324368,0.324368 c 0.625596,1.049027 1.091191,2.176128 1.390697,3.365922 h 0.462469 c 1.136064,0 2.058867,0.925874 2.058736,2.06195 v 2.126185 c 0,1.136094 -0.922629,2.058742 -2.058736,2.058742 h -0.462469 c -0.299506,1.189662 -0.765051,2.316915 -1.390697,3.365931 l 0.324368,0.327595 c 0.388259,0.388261 0.603799,0.90371 0.603799,1.454937 0,0.551219 -0.215415,1.069814 -0.603799,1.458134 l -1.503111,1.503107 c -0.388322,0.38832 -0.906918,0.600566 -1.458138,0.600566 -0.551282,0 -1.066541,-0.212246 -1.454925,-0.600566 l -0.327599,-0.324368 c -1.048896,0.625523 -2.172922,1.091246 -3.36271,1.390687 v 0.462474 c 0,1.136082 -0.925827,2.058735 -2.061954,2.058735 H 48.69677 c -1.136109,0 -2.061953,-0.922644 -2.061953,-2.058735 v -0.462474 c -1.189646,-0.299441 -2.313598,-0.764985 -3.362714,-1.390687 l -0.3276,0.324368 c -0.388321,0.38832 -0.903706,0.600566 -1.454927,0.600566 -0.551282,0 -1.069755,-0.212246 -1.458139,-0.600566 L 38.52833,56.927758 c -0.388259,-0.38826 -0.6038,-0.907064 -0.6038,-1.458134 0,-0.551227 0.215416,-1.066676 0.6038,-1.454937 l 0.324368,-0.327595 c -0.6258,-1.048873 -1.091376,-2.176127 -1.390884,-3.365918 h -0.462468 c -1.136077,0 -2.05874,-0.92263 -2.05874,-2.058744 v -2.126183 c 0,-1.13607 0.922619,-2.06195 2.05874,-2.06195 h 0.462468 c 0.299445,-1.1898 0.765028,-2.316896 1.390694,-3.365922 L 38.52814,40.384007 c -0.38826,-0.388259 -0.6038,-0.903718 -0.6038,-1.454938 0,-0.551219 0.215416,-1.069878 0.6038,-1.458138 l 1.503106,-1.503097 c 0.803381,-0.803126 2.109879,-0.803126 2.913068,0 l 0.324368,0.324367 c 1.048897,-0.625534 2.176112,-1.091191 3.365926,-1.390698 v -0.462468 c 0,-1.136088 0.925833,-2.06195 2.061953,-2.06195 z m 0,1.994504 c -0.03481,0 -0.06744,0.03356 -0.06744,0.06743 v 1.265438 c 0,0.481051 -0.342703,0.892573 -0.815787,0.979586 -1.491398,0.274336 -2.875235,0.848334 -4.114267,1.702231 -0.395904,0.273031 -0.931644,0.224552 -1.27186,-0.115602 l -0.892867,-0.892872 c -0.02424,-0.02424 -0.06892,-0.02424 -0.09317,0 l -1.5031,1.503105 c -0.01243,0.01243 -0.01926,0.02921 -0.01926,0.04847 0,0.01926 0.0075,0.03294 0.01926,0.04475 l 0.892867,0.892873 c 0.340216,0.340153 0.388507,0.875891 0.115601,1.271857 -0.853953,1.23911 -1.427834,2.622997 -1.702234,4.114267 -0.08714,0.473034 -0.498515,0.815786 -0.979592,0.815786 h -1.265433 c -0.03481,0 -0.06744,0.03356 -0.06744,0.06743 v 2.126184 c 0,0.03418 0.03418,0.06744 0.06744,0.06744 h 1.265434 c 0.481051,0 0.891897,0.342764 0.979592,0.815798 0.274337,1.491246 0.848187,2.875085 1.702234,4.114267 0.273032,0.395966 0.224615,0.9317 -0.115601,1.27185 L 39.93828,55.42474 c -0.01243,0.01245 -0.01926,0.02549 -0.01926,0.04471 0,0.0193 0.0075,0.03667 0.01926,0.04844 l 1.5031,1.503106 c 0.02425,0.02422 0.06892,0.02422 0.09316,0 l 0.892867,-0.892875 c 0.192856,-0.192848 0.446246,-0.292295 0.703374,-0.292295 0.196273,0 0.39379,0.05842 0.565266,0.176633 1.239255,0.85391 2.626226,1.427902 4.11748,1.702238 0.472971,0.08707 0.815786,0.498451 0.815786,0.979586 v 1.265434 c 0,0.03353 0.03418,0.06744 0.06744,0.06744 h 2.126188 c 0.03356,0 0.06744,-0.0342 0.06744,-0.06744 v -1.265434 c 0,-0.480985 0.342702,-0.89257 0.815786,-0.979586 1.491262,-0.274336 2.875218,-0.848187 4.114266,-1.702238 0.39609,-0.273031 0.931648,-0.224549 1.271865,0.115602 l 0.889659,0.892875 c 0.02424,0.02422 0.0721,0.02422 0.09633,0 l 1.503098,-1.503106 c 0.01243,-0.01245 0.01927,-0.02921 0.01927,-0.04851 0,-0.01922 -0.0075,-0.03294 -0.01927,-0.04471 L 58.68853,54.531735 c -0.340402,-0.340151 -0.388507,-0.875885 -0.115601,-1.27185 0.853922,-1.239256 1.424626,-2.623017 1.699024,-4.11427 0.08701,-0.473034 0.501748,-0.815798 0.982798,-0.815798 h 1.265438 c 0.03356,0 0.06421,-0.03356 0.06421,-0.06743 v -2.126184 c 0,-0.03418 -0.03046,-0.06743 -0.06421,-0.06743 h -1.26563 c -0.481051,0 -0.895103,-0.342764 -0.982799,-0.815786 -0.274336,-1.491271 -0.845115,-2.87515 -1.699024,-4.114267 -0.272844,-0.395966 -0.224615,-0.931704 0.115602,-1.271858 l 0.892865,-0.892872 c 0.01243,-0.01243 0.01926,-0.02549 0.01926,-0.04475 0,-0.01927 -0.0075,-0.03668 -0.01926,-0.04847 l -1.503098,-1.503105 c -0.02424,-0.02424 -0.0721,-0.02424 -0.09634,0 l -0.889658,0.889659 c -0.340216,0.340154 -0.87596,0.391864 -1.271864,0.118833 -1.239105,-0.853902 -2.622867,-1.427895 -4.114265,-1.702231 -0.472972,-0.08708 -0.815787,-0.498516 -0.815787,-0.979586 v -1.265437 c 0,-0.03418 -0.03418,-0.06743 -0.06744,-0.06743 z m 1.063093,4.387267 c 4.654151,0 8.440515,3.786352 8.440515,8.440508 0,4.654179 -3.786364,8.440512 -8.440515,8.440512 -4.654157,0 -8.440513,-3.786333 -8.440513,-8.440512 0,-4.654156 3.786356,-8.440508 8.440513,-8.440508 z m 0,1.994504 c -3.554742,0 -6.446007,2.891254 -6.446007,6.446004 0,3.554775 2.891265,6.446011 6.446007,6.446011 3.55475,0 6.446004,-2.891236 6.446004,-6.446011 0,-3.55475 -2.891254,-6.446004 -6.446004,-6.446004 z m 0,2.25787 c 2.308757,0 4.188139,1.879406 4.188139,4.188134 0,2.308747 -1.879382,4.188143 -4.188139,4.188143 -2.308737,0 -4.18814,-1.879396 -4.18814,-4.188143 0,-2.308728 1.879403,-4.188134 4.18814,-4.188134 z m 0,1.994504 c -1.209304,0 -2.193634,0.984321 -2.193634,2.19363 0,1.20934 0.984261,2.193636 2.193634,2.193636 1.209292,0 2.193633,-0.984302 2.193633,-2.193636 0,-1.209309 -0.98426,-2.19363 -2.193633,-2.19363 z M 17.867059,45.41362 h 4.245953 c 1.020475,0 1.853187,0.831734 1.853187,1.853184 0,1.02145 -0.832693,1.853041 -1.853187,1.853197 h -4.245953 c -1.020501,0 -1.849974,-0.831609 -1.849974,-1.853197 0,-1.021457 0.829324,-1.853184 1.849974,-1.853184 z m 59.539647,0 h 4.245954 c 1.020512,0 1.849976,0.831734 1.849976,1.853184 0,1.021569 -0.829328,1.853197 -1.849976,1.853197 h -4.245954 c -1.020674,0 -1.853184,-0.831609 -1.853184,-1.853197 0,-1.021457 0.832406,-1.853184 1.853184,-1.853184 z M 25.822592,59.237045 c 0.659955,0 1.274204,0.354577 1.602673,0.924985 0.507218,0.875345 0.206033,2.013746 -0.674473,2.534081 l -3.683887,2.11977 c -0.282353,0.161397 -0.605602,0.247302 -0.931412,0.247302 -0.662858,0 -1.27687,-0.35955 -1.602668,-0.934632 -0.245498,-0.423558 -0.311253,-0.918387 -0.183098,-1.393902 0.128032,-0.476334 0.436862,-0.874476 0.867174,-1.120905 l 3.677472,-2.126188 c 0.284094,-0.162832 0.604609,-0.250527 0.928195,-0.250527 z m 47.87774,0 c 0.323497,0 0.644254,0.08795 0.924991,0.250534 l 3.680675,2.126183 c 0.428968,0.245439 0.735816,0.643977 0.863972,1.120905 0.127721,0.475515 0.06028,0.973413 -0.186268,1.403532 -0.33916,0.571671 -0.95391,0.924993 -1.609097,0.924993 -0.320825,0 -0.63733,-0.08703 -0.918565,-0.247293 l -3.683894,-2.119761 c -0.884414,-0.522756 -1.185456,-1.657881 -0.677679,-2.534085 0.335057,-0.57055 0.949186,-0.924986 1.605877,-0.924986 z M 44.27738,70.52639 c 0.06346,0.388638 0.09633,0.785052 0.09633,1.18836 v 1.072719 h 10.769039 v -1.066302 c 0,-0.405045 0.03418,-0.804528 0.09634,-1.194777 H 44.280556 Z m 0.09957,4.255587 v 2.261079 c 0.02113,-0.0018 0.04225,-0.0027 0.06427,-0.0027 h 10.634147 c 0.02299,0 0.04599,0.0018 0.06744,0.0027 v -2.261079 z m 0.27303,4.252365 c 0.480367,1.399023 1.561983,2.257875 2.983727,2.257875 h 4.252373 c 1.448079,0 2.680615,-0.948447 3.102561,-2.257875 z m 3.160374,4.252374 c 0.363771,0.709083 1.099403,1.19799 1.94954,1.19799 0.850269,0 1.589167,-0.489006 1.952753,-1.19799 z"
       sodipodi:nodetypes="ssccssccsscccsscccsssssssssccccsccccssccccccscsccsccscssscscsscscsccccccscscccccccscccscccssccccscccsscssccccsscccscsscccscsscccsssscccscsscccssssccssccsccsscssssccssssscccsssssscccsssssssccsssssscsccssssccssssssscscssssscccssssssssssssssssssssssssssscssssssssssscccsccccsssccccscccsscsccscccccssccccsscccscc" />
  </g>
</svg>
