<svg xmlns="http://www.w3.org/2000/svg" width="184.056" height="15.81" viewBox="0 0 184.05621 15.810001"><g style="line-height:559.99999046%;-inkscape-font-specification:'TeX Gyre Adventor, Normal';text-align:start" font-weight="800" font-size="21.25" font-family="Avenir LT Std" letter-spacing="0" word-spacing="0" fill="#fff"><path style="-inkscape-font-specification:'Avenir LT Std Ultra-Bold'" d="M3.91 9.074h.744c1.424 0 2.975.042 2.975 1.742 0 1.126-.659 1.934-2.04 1.934-1.36 0-2.019-.68-2.232-1.742L0 11.793c.616 2.698 2.72 3.888 5.397 3.888 2.954 0 5.42-1.487 5.42-4.505 0-1.742-1.02-3.272-2.827-3.506v-.064c1.657-.34 2.571-1.636 2.571-3.293 0-2.89-2.401-4.187-5.078-4.187-2.55 0-4.697 1-5.356 3.613l3.507.722c.191-.786.871-1.402 1.87-1.402 1.041 0 1.87.659 1.87 1.572 0 1.424-1.254 1.68-2.423 1.68H3.91v2.762zM16.486 9.074h.743c1.424 0 2.975.042 2.975 1.742 0 1.126-.658 1.934-2.04 1.934-1.36 0-2.018-.68-2.23-1.742l-3.358.786c.616 2.699 2.72 3.889 5.397 3.889 2.954 0 5.419-1.488 5.419-4.505 0-1.743-1.02-3.273-2.826-3.507v-.064c1.657-.34 2.57-1.636 2.57-3.293 0-2.89-2.4-4.187-5.078-4.187-2.55 0-4.696 1-5.355 3.613l3.506.722c.192-.786.872-1.402 1.87-1.402 1.042 0 1.87.659 1.87 1.572 0 1.424-1.253 1.68-2.422 1.68h-1.041v2.762zM25.555 2.21C26.83.574 28.955 0 30.634 0c4.696 0 8.117 3.081 8.117 7.905s-3.42 7.905-8.117 7.905c-2.061 0-4.186-.829-5.44-2.614l2.762-2.061c.68 1.02 1.764 1.615 3.103 1.615 2.401 0 4.25-2.04 4.25-4.845 0-2.805-1.849-4.845-4.356-4.845-1.233 0-2.19.446-2.848 1.232l-2.55-2.082zM43.63 9.074h.743c1.424 0 2.975.042 2.975 1.742 0 1.126-.659 1.934-2.04 1.934-1.36 0-2.019-.68-2.231-1.742l-3.358.786c.616 2.699 2.72 3.889 5.398 3.889 2.953 0 5.418-1.488 5.418-4.505 0-1.743-1.02-3.273-2.826-3.507v-.064c1.658-.34 2.571-1.636 2.571-3.293 0-2.89-2.4-4.187-5.078-4.187-2.55 0-4.697 1-5.355 3.613l3.506.722c.191-.786.871-1.402 1.87-1.402 1.041 0 1.87.659 1.87 1.572 0 1.424-1.254 1.68-2.423 1.68h-1.04v2.762zM69.165 1.572C67.89.446 66.254 0 64.554 0c-2.954 0-5.738 1.679-5.738 4.887 0 5.015 7.055 3.528 7.055 6.29 0 1.063-1.211 1.573-2.295 1.573a3.685 3.685 0 0 1-2.89-1.424l-2.359 2.593c1.424 1.317 3.124 1.891 5.058 1.891 3.102 0 5.801-1.594 5.801-4.951 0-5.27-6.927-3.507-6.927-6.248 0-1.126 1.296-1.551 2.23-1.551.808 0 1.87.319 2.402.999l2.274-2.487zM74.567 15.428h3.315V3.315h4.292V.382h-11.9v2.933h4.293v12.113zM95.928 15.428h-3.315V9.413h-1.636l-3.145 6.014h-3.974l3.825-6.354c-2.125-.383-3.251-2.019-3.251-4.123 0-3.506 2.592-4.569 5.673-4.569h5.823v15.046zm-3.315-12.24h-2.168c-1.21 0-2.57.233-2.57 1.742 0 1.636 1.572 1.679 2.783 1.679h1.955V3.187zM108.368 15.428H97.765v-3.06h7.288v-3.06H98.53v-3.06h6.523V3.441h-6.906V.382h10.221v15.045zM109.492 15.428h3.655l1.253-3.188h5.844l1.296 3.188h3.74L118.735.382h-2.74l-6.503 15.046zm9.626-5.993h-3.676l1.827-4.675 1.849 4.675zM126.773 15.428h3.315V3.888h.042l3.804 11.54h2.529l3.952-11.54h.043v11.54h3.315V.382h-4.994l-3.485 9.818h-.042L131.788.382h-5.015v15.046zM146.777 15.428h3.315V.382h-3.315v15.046zM167.387 15.428h-3.315V4.717h-.043l-6.566 10.71h-4.335V.382h3.315v10.456h.042L162.882.382h4.505v15.046zM169.627 6.502h5.887v3.06h-2.699v2.444c.616.34 1.679.744 3.124.744 2.826 0 4.675-2.04 4.675-4.845 0-2.805-1.849-4.845-4.675-4.845-1.679 0-2.763.489-3.655 1.424l-2.338-2.55C171.455.53 173.56 0 175.94 0c4.696 0 8.117 3.081 8.117 7.905s-3.421 7.905-8.117 7.905c-2.21 0-4.357-.425-6.312-1.445V6.502z"/></g></svg>