<svg xmlns="http://www.w3.org/2000/svg" width="92.464" height="14.182" viewBox="0 0 92.464141 14.1825"><g style="line-height:559.99999046%;-inkscape-font-specification:'TeX Gyre Adventor, Normal';text-align:start" font-weight="800" font-size="19.063" font-family="Avenir LT Std" letter-spacing="0" word-spacing="0" fill="#fff"><path style="-inkscape-font-specification:'Avenir LT Std Ultra-Bold'" d="M0 13.84h2.974V8.444h1.468l2.82 5.394h3.566l-3.432-5.7c1.907-.342 2.917-1.81 2.917-3.697 0-3.146-2.326-4.099-5.09-4.099H0V13.84zM2.974 2.86h1.944c1.087 0 2.307.21 2.307 1.562 0 1.468-1.41 1.506-2.497 1.506H2.974V2.86zM21.987 13.84h-9.512v-2.746h6.539V8.35H13.16V5.604h5.853V3.088h-6.196V.343h9.17V13.84zM24.501 13.84h8.483v-2.746h-5.51V.344h-2.973v13.495zM34.74 13.84h9.512v-2.746h-6.539V8.35h5.853V5.604h-5.853V3.088h6.196V.343h-9.17V13.84zM45.26 13.84h3.278l1.125-2.86h5.242l1.163 2.86h3.355L53.552.342h-2.46L45.26 13.84zm8.635-5.376h-3.298l1.64-4.194 1.658 4.194zM69.473 1.41C68.33.4 66.862 0 65.337 0c-2.65 0-5.147 1.506-5.147 4.384 0 4.5 6.329 3.165 6.329 5.643 0 .953-1.087 1.41-2.06 1.41a3.306 3.306 0 0 1-2.592-1.277l-2.116 2.326c1.278 1.182 2.803 1.696 4.537 1.696 2.783 0 5.204-1.43 5.204-4.441 0-4.728-6.214-3.145-6.214-5.604 0-1.01 1.163-1.392 2.002-1.392.724 0 1.677.286 2.154.896l2.04-2.23zM81.334 13.84h-9.512v-2.746h6.539V8.35h-5.853V5.604h5.853V3.088h-6.196V.343h9.17V13.84zM92.445 1.41C91.301.4 89.834 0 88.31 0c-2.65 0-5.147 1.506-5.147 4.384 0 4.5 6.328 3.165 6.328 5.643 0 .953-1.086 1.41-2.058 1.41a3.306 3.306 0 0 1-2.593-1.277l-2.116 2.326c1.277 1.182 2.802 1.696 4.537 1.696 2.783 0 5.204-1.43 5.204-4.441 0-4.728-6.214-3.145-6.214-5.604 0-1.01 1.163-1.392 2.001-1.392.725 0 1.678.286 2.154.896l2.04-2.23z"/></g></svg>