<svg xmlns="http://www.w3.org/2000/svg" viewBox="0 0 196.5525 22.32" height="22.32" width="196.553"><title>Live_Music</title><g style="line-height:559.99999046%;-inkscape-font-specification:'TeX Gyre Adventor, Normal';text-align:start" font-weight="800" font-size="30" font-family="Avenir LT Std" letter-spacing="0" word-spacing="0" fill="#fff"><path style="-inkscape-font-specification:'Avenir LT Std Ultra-Bold'" d="M0 21.78h4.68v-8.49h2.31l4.44 8.49h5.61l-5.4-8.97c3-.54 4.59-2.85 4.59-5.82 0-4.95-3.66-6.45-8.01-6.45H0v21.24zM4.68 4.5h3.06c1.71 0 3.63.33 3.63 2.46 0 2.31-2.22 2.37-3.93 2.37H4.68V4.5zM34.603 21.78h-14.97v-4.32h10.29v-4.32h-9.21V8.82h9.21V4.86h-9.75V.54h14.43v21.24zM37.749 3.12c1.8-2.31 4.8-3.12 7.17-3.12 6.63 0 11.46 4.35 11.46 11.16 0 6.81-4.83 11.16-11.46 11.16-2.91 0-5.91-1.17-7.68-3.69l3.9-2.91c.96 1.44 2.49 2.28 4.38 2.28 3.39 0 6-2.88 6-6.84s-2.61-6.84-6.15-6.84c-1.74 0-3.09.63-4.02 1.74l-3.6-2.94zM57.805 11.16c0 6.81 4.83 11.16 11.46 11.16 6.63 0 11.46-4.35 11.46-11.16 0-6.81-4.83-11.16-11.46-11.16-6.63 0-11.46 4.35-11.46 11.16zm4.86 0c0-3.96 2.61-6.84 6.6-6.84 3.99 0 6.6 2.88 6.6 6.84s-2.61 6.84-6.6 6.84c-3.99 0-6.6-2.88-6.6-6.84zM100.946 21.78h-4.68v-8.49h-2.31l-4.44 8.49h-5.61l5.4-8.97c-3-.54-4.59-2.85-4.59-5.82 0-4.95 3.66-6.45 8.01-6.45h8.22v21.24zM96.266 4.5h-3.06c-1.71 0-3.63.33-3.63 2.46 0 2.31 2.22 2.37 3.93 2.37h2.76V4.5zM103.36 21.78h7.65c6.33 0 11.94-3.69 11.94-10.56 0-7.77-5.73-10.68-12.57-10.68h-7.02v21.24zm4.68-16.92h2.76c3.96 0 7.29 1.95 7.29 6.12 0 4.83-3.27 6.48-7.62 6.48h-2.43V4.86zM126.092 21.78h4.68V.54h-4.68v21.24zM155.189 21.78h-4.68V6.66h-.06l-9.27 15.12h-6.12V.54h4.68V15.3h.06l9.03-14.76h6.36v21.24zM158.352 9.18h8.31v4.32h-3.81v3.45c.87.48 2.37 1.05 4.41 1.05 3.99 0 6.6-2.88 6.6-6.84s-2.61-6.84-6.6-6.84c-2.37 0-3.9.69-5.16 2.01l-3.3-3.6c2.13-1.98 5.1-2.73 8.46-2.73 6.63 0 11.46 4.35 11.46 11.16 0 6.81-4.83 11.16-11.46 11.16-3.12 0-6.15-.6-8.91-2.04V9.18zM196.523 2.22c-1.8-1.59-4.11-2.22-6.51-2.22-4.17 0-8.1 2.37-8.1 6.9 0 7.08 9.96 4.98 9.96 8.88 0 1.5-1.71 2.22-3.24 2.22-1.56 0-3.12-.75-4.08-2.01l-3.33 3.66c2.01 1.86 4.41 2.67 7.14 2.67 4.38 0 8.19-2.25 8.19-6.99 0-7.44-9.78-4.95-9.78-8.82 0-1.59 1.83-2.19 3.15-2.19 1.14 0 2.64.45 3.39 1.41l3.21-3.51z"/></g></svg>