<svg width="60" height="27" viewBox="0 0 60 27" xmlns="http://www.w3.org/2000/svg"><title>Group 2</title><g fill="none" fill-rule="evenodd"><path d="M.264 25.943a.316.316 0 0 0 .254-.317.159.159 0 0 0-.072-.108.108.108 0 0 0-.1.021.349.349 0 0 0-.079.4m-.081-9.354a1.42 1.42 0 0 0 0 1.009 2.485 2.485 0 0 0 0-1.009m6.449-6.931a.844.844 0 0 1 .334.023c.263.145.56.216.859.206a7.146 7.146 0 0 1 1.333.049c.266.041.536.036.8-.014a.5.5 0 0 0 .315-.134 2.17 2.17 0 0 1 .2-.217.465.465 0 0 0 .161-.471c-.033-.32-.045-.643-.066-.965-.036-.517-.071-1.034-.109-1.55a.85.85 0 0 0-.043-.23 6.739 6.739 0 0 0-.753-1.656 1.545 1.545 0 0 0-.838-.632c-.374-.1-.762-.146-1.144-.218a.7.7 0 0 0-.543.1c-.272.182-.535.38-.82.539a.944.944 0 0 0-.456.746c-.128.7-.287 1.4-.422 2.1-.068.245-.096.5-.083.754a4.17 4.17 0 0 1 .028 1.543.22.22 0 0 0 .231.3.245.245 0 0 0 .327-.289.4.4 0 0 1 .179-.459l.51.471M1.044 27a.979.979 0 0 0-.276-.567 3.722 3.722 0 0 0-.391-.346.3.3 0 0 1-.239-.3c0-.127-.027-.253-.032-.38a.292.292 0 0 1 .3-.345.25.25 0 0 0 .19-.373.645.645 0 0 1-.09-.427.853.853 0 0 0-.089-.057c-.207-.107-.23-.156-.061-.317.264-.296.401-.683.383-1.079a.255.255 0 0 0-.013-.144 1.219 1.219 0 0 1-.123-.514l-.146.309a.925.925 0 0 1-.069-.227A1.1 1.1 0 0 1 .6 21.3a.208.208 0 0 0 .05-.135 4.635 4.635 0 0 0-.03-1.429c-.133-.529-.177-1.08-.262-1.621-.014-.094-.036-.186-.057-.291a.566.566 0 0 0-.251.323 1.489 1.489 0 0 1-.058-.234 4.066 4.066 0 0 1 .074-1.485c.044-.26.058-.525.044-.788.025-.41.039-.821.1-1.228a3.9 3.9 0 0 0 0-1.024c-.042-.33-.066-.662-.1-.993a.84.84 0 0 1 .144-.559.624.624 0 0 0 .079-.614.489.489 0 0 1 .021-.37c.063-.184.127-.369.175-.558a.283.283 0 0 1 .229-.238.6.6 0 0 0 .514-.6c.015-.283.023-.566.044-.849.02-.645.098-1.287.23-1.918.23-.759.378-1.54.439-2.331.032-.345.156-.674.359-.955.274-.441.6-.854.916-1.267a1.1 1.1 0 0 1 .316-.217c.482-.3.97-.584 1.448-.886A5.51 5.51 0 0 1 7.905.064c.05.002.1-.002.149-.011a3.368 3.368 0 0 1 1.741.161c.4.119.8.251 1.194.386.34.117.645.318.885.586.314.342.636.678.93 1.036.268.327.5.681.751 1.022.14.19.282.38.425.568.295.453.499.96.6 1.49.044.16.1.316.144.476.044.16.075.3.1.456.067.261.096.53.086.8-.005.243.021.486.078.723.073.542.177 1.083.215 1.627.012.43-.002.861-.042 1.29-.009.166-.041.331-.065.5a.688.688 0 0 0 .1.548c.126.232.224.479.291.734.043.14.097.278.163.409.142.291.237.603.281.924.036.212.025.43-.033.638-.078.353-.119.714-.17 1.072-.109.756-.215 1.512-.319 2.269-.025.184-.043.37-.051.555-.03.635-.069 1.271-.075 1.907-.007.733-.009 1.468.04 2.2.022.318.176.627.224.953.068.243.123.489.166.737.017.413-.054.825-.208 1.208a1.337 1.337 0 0 1-1.1.891 6.96 6.96 0 0 0-1.258.239 1.8 1.8 0 0 1-1.008-.012 20.96 20.96 0 0 0-.965-.209 2.25 2.25 0 0 0-.3-.013.442.442 0 0 1-.2-.027 1.359 1.359 0 0 0-.634-.152c-.534-.065-1.069-.119-1.6-.177a1.29 1.29 0 0 0-.179-.006c-.88.014-1.753.142-2.6.381a11.35 11.35 0 0 1-2.039.324c-.494.055-.983.142-1.476.2-.16.011-.32.014-.479.007a.674.674 0 0 0-.636.224" fill="#009C8B"/><path d="M38.465 7.833H27.831v2.621h3.836v10.824h2.962V10.454h3.836V7.833zm5.886 10.71h-5.488v2.735h8.451V7.833h-2.963v10.71zm7.33-7.425c.242-.298.56-.524.921-.655a3.3 3.3 0 0 1 1.225-.237c.49-.011.974.117 1.395.37a1.185 1.185 0 0 1 .076 2.013 6.764 6.764 0 0 1-1.832.712 14.8 14.8 0 0 0-1.975.722c-.55.26-1.017.667-1.348 1.177a3.521 3.521 0 0 0-.513 1.975 4.08 4.08 0 0 0 .7 2.431 4.229 4.229 0 0 0 1.851 1.491 6.588 6.588 0 0 0 2.63.5 6.439 6.439 0 0 0 4.52-1.69l-2.108-2.317c-.306.395-.7.713-1.149.931a3.2 3.2 0 0 1-1.434.342 2.665 2.665 0 0 1-1.443-.38 1.161 1.161 0 0 1-.608-1.025c-.01-.305.108-.6.323-.816.208-.214.457-.384.731-.5.458-.19.925-.357 1.4-.5.683-.203 1.35-.457 1.994-.759a3.393 3.393 0 0 0 1.358-1.168c.35-.559.525-1.21.5-1.87a3.984 3.984 0 0 0-.7-2.374A4.484 4.484 0 0 0 56.324 8a6.285 6.285 0 0 0-2.554-.513 6.05 6.05 0 0 0-4.121 1.405l2.032 2.226z" fill="#FFF"/></g></svg>