<?xml version="1.0" encoding="UTF-8" standalone="no"?>
<!DOCTYPE svg PUBLIC "-//W3C//DTD SVG 1.1//EN" "http://www.w3.org/Graphics/SVG/1.1/DTD/svg11.dtd">
<svg width="100%" height="100%" viewBox="0 0 844 188" version="1.1" xmlns="http://www.w3.org/2000/svg" xmlns:xlink="http://www.w3.org/1999/xlink" xml:space="preserve" xmlns:serif="http://www.serif.com/" style="fill-rule:evenodd;clip-rule:evenodd;stroke-linejoin:round;stroke-miterlimit:2;">
    <g id="Artboard1" transform="matrix(1,0,0,1,217.455,-109.756)">
        <rect x="-217.455" y="109.756" width="843.317" height="187.944" style="fill:none;"/>
        <clipPath id="_clip1">
            <rect x="-217.455" y="109.756" width="843.317" height="187.944"/>
        </clipPath>
        <g clip-path="url(#_clip1)">
            <g transform="matrix(1,0,0,1,0.544674,0.755556)">
                <path d="M267.7,170.6C264.9,177 262.3,182.5 260.1,188.2C258.6,192 256.8,195.5 253.8,197.1C251.1,200 253.6,204 250.1,206.4C249.4,205.4 248.5,204.6 248.3,203.6C247.5,199.4 245.8,195.9 242.2,193.2C238.9,190.8 237.5,186.9 236,183.1C235.1,180.6 233.9,178.2 232.8,175.8C232.2,174.4 231.5,173.1 231.2,171.6C229.7,164.4 226.1,158.3 222.1,152.4C221.8,151.9 221.1,151.6 220.5,151.1C219.4,153.1 220.1,154.8 220.5,156.6C221.1,159.8 221.8,163.1 221.9,166.4C222.1,174.4 221.9,182.4 222.1,190.4C222.1,192.5 222.4,194.8 223.4,196.7C226.3,202.2 226.3,208.2 226.8,214.2C227,216.7 226.6,219.2 226.8,221.7C227,224.8 227.3,227.9 227.7,231C227.8,232.1 228.4,233.2 228.6,234.4C230,242.6 227.8,248 219.7,251C218.8,251.3 217.8,251.6 217,251.9C209.1,249.1 204.6,243.2 204.3,235.1C204.1,228.6 204.1,222.2 202.3,215.8C201.1,211.4 201.6,206.6 204,202.2C208.7,193.6 208.1,184.6 205.9,175.5C204.7,170.5 203.8,165.5 204.1,160.2C204.4,154.6 204.1,149.1 202.7,143.4C201.5,138.5 201.6,133 202.4,128C203.8,119.5 214.9,116.4 221.2,122.3C222.2,123.2 223,124.3 223.7,125.4C228.6,132.9 233.5,140.4 238.5,147.9C240.3,150.6 241.6,153.8 245.1,156.2C245.3,153.9 245.3,152.4 245.5,150.8C245.9,147.3 246.5,143.9 246.7,140.4C246.8,139 246.2,137.5 246.1,136C245.7,132.7 245.3,129.4 245.2,126.1C245.1,123.6 246.4,121.6 248.1,119.9C250.2,117.8 252.5,115.8 254.6,113.7C258.7,109.6 266.7,109.6 270.9,113.7C273.4,116.2 275.3,119.1 276.3,122.6C277.6,127.4 279.5,132.2 279.8,137.1C280.2,142.3 281.2,147.3 282.1,152.3C283.5,159.8 285.3,167.2 287,174.6C288.7,182.5 290.5,190.5 292.2,198.4C293,202 293.5,205.6 294.4,209.1C297,219 297.9,229.4 302,239C302.9,241.1 303.1,243.5 303.1,245.8C303.1,248.3 301.7,250.1 299.3,251.2C297,252.2 295.1,251.4 293.3,250.1C291.1,248.6 290.1,246.3 289.5,243.9C285.8,230.5 282.2,217 278.5,203.6C277,198.3 275.5,193.1 273.9,187.8C272.5,183 270.9,178.3 269.4,173.6C268.8,173 268.4,172.3 267.7,170.6Z" style="fill-rule:nonzero;"/>
                <path d="M523.5,165.9C524.2,166.9 524.6,168.1 525.5,168.6C529,170.5 532.4,172.8 536.2,173.9C544.3,176.2 551.2,180.3 556.7,186.6C562.7,193.5 570,198.6 577.7,203.3C580.7,205.1 583.9,206.6 586.7,208.6C590,210.8 593.2,213.2 596.2,215.9C601.8,220.9 607.7,225.4 614.7,228.5C617.1,229.6 619.5,230.9 621.6,232.4C624.2,234.3 626.5,236.7 625.7,240.3C624.9,243.8 621.6,246.1 617.4,246.2C614.5,246.3 611.9,245.8 609.4,244C600.6,237.7 591.9,231.3 584,223.8C582.3,222.2 580.4,220.9 578.4,219.6C566.5,212 554.7,204.1 543.2,195.9C535.2,190.2 526.5,185.5 518.2,180.4C516.5,179.4 514.8,178.1 512.4,179.4C511.3,183.5 511.5,187.9 512.2,192C513.7,201.2 514.8,210.4 515.1,219.7C515.2,222 515.6,224.4 516.2,226.6C518.3,234.1 516.6,240.8 512,246.8C509.1,250.5 508.2,254.4 508.2,258.9C508.1,265.2 507.8,271.5 507.7,277.8C507.7,279.6 508.2,281.4 508.2,283.2C508.2,285.3 507.1,285.7 504.3,284.7C504.2,281.4 503.7,278 503.9,274.5C504.4,265.7 504.2,256.9 504.1,248C504.1,246.9 503.6,245.7 502.9,244.8C499.5,240.4 498,235.5 498,230C498,228 497.7,226 497.2,224.1C495.3,217.4 494.9,210.3 493.2,203.6C489.8,190.1 491.4,176.5 491,162.9C491,161.8 491.4,160.6 491.4,159.4C491.5,157.3 491.5,155.2 491.3,153.1C491,150.5 490.2,147.8 490.2,145.2C490.2,138.7 489.1,132.3 487.6,126C486,119.4 489.2,113.6 495.6,111.6C498.4,110.7 501.4,110.2 504.3,110.1C512.6,109.8 521,109.9 529.3,109.8C529.8,109.8 530.3,109.7 530.8,109.8C539.4,110.9 548,109.9 556.7,110.1C567.4,110.3 575.4,116.4 577.9,126.8C579,131.1 579.9,135.5 580.7,139.9C581,141.5 580.9,143.3 580.4,144.8C578.5,150.3 575.3,155.1 571.1,158.9C565,164.5 557.4,166.9 549,165.5C542.7,164.4 536.4,164.1 530.1,164.2C528,164.2 525.9,164.5 523.5,165.9ZM502.1,148.5C502.6,149.2 502.9,150.2 503.5,150.4C507.5,152 511.6,153.2 516,152.6C520.3,152 524.5,151.3 528.8,151C533.4,150.7 538.1,150.8 542.8,150.8C547,150.8 551,149.7 554.8,147.9C559.6,145.6 562,141.9 562.3,136.5C562.6,130.8 560.4,126.6 555.5,123.7C552.8,122.1 549.8,122.2 546.9,121.7C538,120.2 529.1,120.5 520.2,122.2C516.1,123 512,124.5 507.5,123.1C506.3,122.7 504.6,124 503.2,124.5C502.5,132.9 504.4,140.8 502.1,148.5Z" style="fill-rule:nonzero;"/>
                <path d="M-214,168.8C-214.6,167.6 -215.2,166.4 -215.8,165.2C-217.3,162.2 -217.6,159.2 -217.4,155.7C-216.8,147.2 -214.7,138.6 -216.8,129.9C-217.4,127.2 -217.1,124.3 -217,121.4C-216.9,118.3 -215.3,117 -212.2,116.8C-206.8,116.5 -199.6,121 -197.2,126.7C-195.5,130.8 -194.4,135.2 -193.1,139.5C-191.4,145.4 -190,151.4 -188.3,157.3C-188.2,157.7 -187.7,158.1 -187.2,158.8C-186.6,157.8 -186,157 -185.8,156.2C-183.2,147.2 -181.7,138.1 -181.1,128.8C-180.9,125.7 -180.6,122.8 -177.9,120.4C-176.8,120.2 -175.3,119.8 -173.8,119.6C-169,119.2 -165.4,121.8 -164.8,126.6C-164,133.5 -163.3,140.5 -163.2,147.4C-163.1,157.3 -161.3,166.9 -159.4,176.5C-157.5,186.3 -155.2,195.9 -153.2,205.7C-153,206.8 -153,208 -153,209.2C-153.5,217.4 -151.9,225.4 -150.6,233.4C-149.7,238.9 -149.8,244.7 -150.1,250.3C-150.3,254.7 -153.6,256.8 -158,257.8C-162.5,256.2 -164.1,252.4 -164.7,247.9C-165.6,241.5 -166.7,235.1 -167.4,228.7C-168.1,223.1 -168.8,217.4 -168.7,211.8C-168.4,199.7 -169.9,187.9 -173.1,176.3C-173.8,173.8 -174.1,171.1 -174.8,168.5C-175,167.6 -175.6,166.8 -176.3,165.4C-177,166.5 -177.6,167 -177.8,167.7C-179.6,173.7 -179.8,179.8 -179.8,186C-179.8,189.7 -179.9,193.3 -179.7,197C-179.6,199.6 -180.7,201.5 -182.4,203.2C-185.4,206.1 -189.2,205.3 -190.8,201.5C-191.2,200.4 -191.5,199.2 -191.5,198.1C-191.4,191.4 -193.1,184.9 -194.6,178.5C-196.4,170.7 -197.9,162.9 -199.7,155.2C-200.2,153.1 -201,151.2 -201.9,148.6C-203.5,150.4 -203.7,151.9 -203.4,153.4C-201.9,159.5 -202.1,165.4 -204.3,171.4C-205,173.2 -204.9,175.4 -204.6,177.3C-203.9,182.4 -202.8,187.4 -202.2,192.5C-201.3,199.7 -200.6,207 -200,214.3C-199.4,221.1 -199.3,227.9 -198.6,234.7C-198.3,238.3 -197.2,241.9 -196.5,245.4C-196.1,247.5 -196,249.7 -195.8,251.8C-195.5,254.5 -196.5,256.7 -198.6,258.4C-201.6,260.8 -202.2,263.6 -201.3,267.3C-200.6,270.3 -200.9,273.6 -200.8,276.7C-200.8,277.2 -201.3,277.8 -201.7,278.5C-203.8,276.1 -204,275.2 -205.8,264.4C-206.1,266.5 -206.7,268.6 -206.7,270.7C-206.8,277.4 -206.6,284 -206.6,290.7C-206.6,293 -206.8,295.2 -206.9,297.7C-209.5,297.4 -209.5,295.6 -209.6,294.3C-210.1,286.2 -210.5,278.1 -210.8,269.9C-210.9,268.5 -210.3,267 -210,265.5C-209.4,262.7 -209.7,260.2 -212.1,258.3C-212.9,257.7 -213.5,256.8 -214.2,256.1C-216.5,253.8 -217,251 -216.7,247.8C-216.3,244 -215.9,240.2 -215.7,236.4C-215.4,231.9 -215.2,227.4 -215.2,222.9C-215.2,220.1 -215.2,217.2 -215.8,214.5C-217.2,208.7 -217.3,203.1 -216,197.3C-215.2,193.4 -214.9,189.6 -216.1,185.5C-217,182.7 -216.5,179.3 -216.1,176.2C-216,174 -214.9,171.6 -214,168.8Z" style="fill-rule:nonzero;"/>
                <path d="M-60.9,160C-63.1,161.5 -63,163.3 -62.9,165.1C-62.5,173.1 -61.9,181 -60.7,188.9C-59.8,194.6 -59.7,200.5 -59.1,206.2C-58.9,208.2 -58.5,210.1 -58.2,212.1C-57.5,216.7 -57,221.3 -55.9,225.9C-55.1,229.3 -54.1,232.7 -52.4,235.7C-47.6,244.3 -52.3,252 -59.6,254C-60.2,254.2 -60.8,254.4 -61.7,254.8C-62.3,257.6 -62.8,260.4 -63.5,263.7C-65.7,262.1 -65.9,260.2 -65.8,258.5C-65.7,255.5 -66.6,253.2 -68.8,251C-71.6,248.2 -72.9,244.6 -73,240.6C-73.1,234 -73.3,227.3 -72,220.7C-71,215.6 -71.9,210.5 -73.3,205.4C-74.1,202.4 -74.6,199.2 -74.7,196.1C-74.9,190.5 -74.2,184.7 -75,179.2C-76.2,171 -75.3,162.9 -75.9,154.8C-76.4,148.4 -77.8,142 -78.7,135.6C-78.9,134 -78.9,132.3 -79,130.6C-79.1,127.9 -78.6,125.4 -75.7,124.5C-72.9,123.7 -70.1,123.9 -67.8,126.2C-67.3,126.7 -67,127.3 -66.6,127.8C-65.9,128.7 -65.3,129.8 -64.4,130.5C-58.7,135.2 -56.6,141.6 -56.4,148.6C-56.2,153.2 -55,157 -51.2,159.9C-50.9,160.1 -50.7,160.4 -50.5,160.6C-45.4,167.8 -39.9,174.6 -36.5,182.9C-35.8,184.6 -34.9,186.3 -33.6,187.5C-29.9,190.9 -28.1,195.4 -26.3,199.9C-25.1,202.8 -23.9,205.6 -21.7,208.6C-19.6,203.4 -18.8,199 -21.3,194.2C-24,188.8 -24.3,183 -22.1,177.3C-19.7,171.1 -21.2,164.8 -21.3,158.5C-21.3,157 -22.4,155.3 -23.4,154.1C-26.8,149.9 -27.8,145.4 -26.2,140.1C-25.3,137.3 -25.5,134.2 -25.1,131.2C-24.7,128.8 -24.2,126.4 -23.8,124.4C-17.9,121.6 -14.4,123.1 -13.2,128.6C-12.6,131.3 -12.4,134.2 -12.1,137C-11.8,139.5 -11.5,141.9 -11.3,144.4C-11.2,146 -11.3,147.7 -11.6,149.3C-12.1,151.7 -11.8,153.8 -11.1,156.1C-9.3,162.8 -7.7,169.6 -6,176.3C-5.2,179.3 -4.7,182.5 -3.3,185.3C-0.9,190.2 -0.6,194.8 -3.2,199.6C-4.3,201.6 -4.7,203.6 -4.2,205.9C-2.7,212.8 -2.8,219.8 -4.2,226.7C-5.1,231.2 -4.6,235.6 -3.4,240C-2.2,244.4 -3.7,247.8 -7.1,250.6C-9.3,252.4 -11.6,252.7 -14,251.1C-15.2,250.3 -16.5,249.4 -17.4,248.2C-20.2,244.5 -23,240.7 -25.6,236.9C-26.3,235.9 -26.7,234.4 -26.8,233.1C-26.9,225.5 -30,218.9 -32.9,212.2C-33.5,210.8 -34.3,209.5 -34.8,208.1C-36,204.2 -38.6,201.4 -41.7,199.1C-45.4,196.4 -47.5,192.9 -48.2,188.3C-49,183.3 -51,178.8 -53.5,174.4C-56.1,169.9 -58.3,165.1 -60.9,160Z" style="fill-rule:nonzero;"/>
                <path d="M-137.2,255.4C-137.5,254.8 -137.6,254.4 -137.8,254.2C-142.3,249.4 -143,243.6 -142.9,237.2C-142.8,226.2 -143.5,215.3 -144.2,204.3C-144.6,197.7 -145.2,191 -146,184.4C-146.4,180.8 -147.4,177.2 -148.4,173.7C-151.4,163.4 -153.2,153 -153.2,142.3C-153.2,138 -153.9,133.7 -154.4,129.4C-154.5,128.7 -154.7,128.1 -154.7,127.4C-155,118.8 -152.7,115.5 -144,115.3C-131.2,114.9 -118.3,115 -105.5,115.2C-102.1,115.3 -98.6,116.3 -95.3,117.4C-92.2,118.4 -89.9,120.6 -89.1,124.7C-89.9,126.2 -90.7,128.1 -91.9,129.9C-94.3,133.5 -98,134.6 -101.8,132.7C-104,131.6 -105.9,129.9 -107.8,128.3C-109.7,126.7 -111.6,126 -114.1,125.8C-122.3,125 -130.4,125.2 -138.5,126C-142.6,126.4 -143.6,127.5 -143.9,131.6C-144.4,139.7 -142.2,147.4 -140.2,155.1C-139.6,157.5 -138.6,159.8 -137.9,162.2C-137,165.4 -134.7,166.6 -131.7,167C-124.6,167.9 -117.6,168.1 -110.5,167.3C-109.5,167.2 -108.5,167.7 -107.6,167.7C-105.5,167.8 -103.3,168 -101.2,167.7C-97.2,167.1 -93,168.8 -91,172.2C-89.1,175.5 -89.9,179.1 -93.1,181.3C-94.5,182.2 -95.9,183.1 -97,183.8C-98.7,186.6 -96.9,189 -96.9,191.4L-96.9,198.7C-97.2,198.8 -97.6,198.9 -97.9,199C-98.4,198.2 -99.3,197.4 -99.5,196.5C-100.1,193.4 -100.5,190.3 -101,187.2C-101.2,186.1 -101.6,185 -101.9,184.1C-106.2,182.8 -127.7,182.9 -131.4,184.1C-131.9,185.5 -132.4,187.1 -133,188.8C-134.1,188.6 -134.9,188.5 -135.9,188.3C-136.1,188.8 -136.5,189.2 -136.5,189.7C-136.4,192.5 -136.3,195.3 -135.9,198.1C-134.7,207.8 -133.3,217.5 -132,227.2C-131.9,227.7 -131.9,228.2 -131.9,228.7C-130.8,235.6 -129.4,236.5 -122.3,236.3C-117.2,236.1 -112,236.4 -106.8,236.5C-105.8,236.5 -104.8,236.6 -103.8,236.6C-99.3,236.7 -95.2,235.7 -92.1,232C-89.5,232.6 -87,233 -84.7,233.8C-80.6,235.1 -78.8,237.3 -78.7,240.8C-78.6,244.6 -80.4,247.3 -84.1,249C-86.3,250 -88.4,251.1 -91,252.4C-94.5,248.6 -99.3,248.1 -104.6,249.9C-108,251 -111.6,252 -114.6,252.9C-116.9,256.9 -115.2,260.4 -114.6,263.7C-113.7,268.4 -114,272.9 -114.4,277.6C-114.4,277.8 -114.8,278 -115.3,278.4C-117.5,277.8 -117.4,275.7 -117.6,274.1C-118.2,268.2 -118.6,262.2 -119,256.3C-119.3,251.8 -120.1,251 -125.1,250.3C-127.6,251.9 -130.2,253.4 -132.9,255.1C-134.7,258.4 -134.2,262.2 -134,266C-133.8,269.8 -134,273.6 -134,277.6C-135.4,277.8 -136.3,278 -137,278.1C-139,275.7 -139,263.6 -137.2,255.4Z" style="fill-rule:nonzero;"/>
                <path d="M46.5,200C48.7,203 51.5,206.9 54.5,210.7C58.8,216.1 61,222.2 60.8,229.2C60.6,235.4 60.1,241.5 57,247.1C53.4,253.5 48.3,257.5 40.6,257.3C38.8,257.3 37,257.6 35.2,257.9C27.3,259.2 18.2,255.3 14.9,247.6C11.9,240.6 8.1,233.9 6.5,226.3C6.3,225.2 6,224 6,222.9C6.1,219.2 5.8,215.7 3.7,212.4C2.2,210 3.5,203.9 5.6,202.1C7.3,200.7 9.2,199.7 11.6,200.4C12.9,200.8 14.2,201.1 15.4,201.5C21,203.4 22.8,206.3 22,212.1C21.9,213 21.6,214.2 20.9,214.8C16.7,218.5 17.7,223.2 18.4,227.8C19.1,232.7 21.4,237 24.4,240.8C27.8,245.2 32.6,247 38.1,246.3C42.2,245.8 43.9,243.8 44.2,239.7C44.4,236.5 44.2,233.4 42.9,230.4C40.5,225.1 39.1,219.5 37.8,213.8C36.4,207.6 32.8,202.1 28.5,197.4C21.9,190.1 16.5,181.9 10.9,173.8C4.8,164.9 3.3,155 4.8,144.3C6.2,133.9 12.4,128.3 21.6,125.5C29.7,123.1 38,123.3 46.2,125.9C50.5,127.3 53.1,129.8 53.3,134.9C53.5,139.2 54,143.4 53.9,147.8C53.8,150.7 54.5,153.7 55.1,156.7C56.1,161.5 55,165.7 52.2,169.8C49.5,173.8 48.3,178.6 47.8,183.4C47.6,185.5 47.9,187.7 47.7,189.9C47.5,192.8 47,195.8 46.5,200ZM44.2,195.6C44.2,194 44.3,192.8 44.2,191.7C43.8,186.1 44.7,180.7 46.3,175.5C47.2,172.7 47,170.5 45.6,167.9C43.3,163.6 42,159 43.8,154C44.5,152.2 44.5,150.1 44.6,148.1C45.1,141.2 38.3,134.1 31.9,135C26.5,135.7 19.9,140.8 19.1,147.3C18,155.7 19.4,163.6 24.1,170.7C29.9,179.4 35.4,188.3 44.2,195.6Z" style="fill-rule:nonzero;"/>
                <path d="M155.3,251C151.2,248.5 149,245.4 150.6,240.5C151.1,239.1 151,237.5 151.1,236.1C151.6,224.8 152.2,213.5 152.6,202.2C152.7,199.1 152.3,195.9 152,192.7C151.8,190.9 150.7,189.4 148.9,189.2C143.7,188.6 138.4,188.3 133,187.9C132.6,189.3 132.1,190.2 132,191.1C131.6,195.6 131.1,200 130.9,204.5C130.5,211.6 130.3,218.8 130,226C129.7,232.5 129.2,238.9 129,245.4C128.9,248.4 126.3,249.5 125.3,251.3C123.9,254.9 126.2,258.9 122.9,262.5C122.4,261 121.8,260 121.8,259C121.8,254.6 121.3,250.4 119.1,246.5C118.6,245.7 118.4,244.6 118.4,243.6C118.5,236.6 118.5,229.6 118.8,222.7C119,218.2 119.8,213.8 120,209.3C120.2,203.8 120.1,198.3 119.9,192.8C119.8,188.6 118.4,187.5 114.2,188.3C113.4,188.4 112.6,188.8 111.8,188.8C107.2,188.9 103.7,190.4 103.3,196.6C102.1,195.3 101.1,194.8 101.1,194.1C100.9,191.9 100.1,190 98.9,188.1C96.2,183.8 98.2,180.2 103.3,179.9C108.3,179.5 113.2,179.2 118.2,178.8C119,178.7 119.8,178.4 120.7,178.1C123,172 122.4,165.9 121.5,159.8C120.1,151.1 118.1,142.6 116.4,133.9C116.1,132.1 115.9,130.3 115.9,128.4C115.9,123.7 116.7,122.7 121.9,120.7C124.3,121.9 126.9,123.2 129.9,124.7C130.6,130.1 131.8,135.5 132,140.9C132.3,150.4 132.1,159.9 132.1,169.4C132.1,171.2 132,173.1 132.1,174.9C132.3,178.6 133.2,179.5 136.9,179.7C144.2,180.1 145.6,179.9 150.6,177.5C150.8,177 151.1,176.4 151.1,175.7C151.4,169.6 152,163.4 151.9,157.3C151.9,148 151.4,138.7 151.2,129.4C151.2,127.6 151.4,125.7 151.9,124C153.2,120.5 155.7,119.2 159.4,119.7C164.8,120.5 167.5,123 166.4,128C164.1,138.7 165.7,149.6 163.9,160.3C162.7,167.4 164.3,174.1 166.5,180.7C167.4,183.4 167.7,185.9 166.5,188.4C165,191.5 164.7,194.7 164.8,198.1C165.1,207.3 163.5,216.3 162.2,225.4C161.6,229.7 161.9,234 161.9,238.4L161.9,241.9C161.9,248.1 161.4,248.8 155.3,251Z" style="fill-rule:nonzero;"/>
                <path d="M310.1,154.7C315.1,155.2 319.4,155 323.6,153.9C329.9,152.3 336.1,150.7 342.7,150.9C349.5,151.1 355.7,153.5 361.8,156C363,156.5 364,157.5 365,158.4C367.4,160.7 368.1,164 367,166.6C366,169 362,171.2 359.1,170.8C351.2,169.8 343.3,168.5 335.4,167.7C331.5,167.3 327.5,167.6 323.5,167.8C321.2,167.9 318.9,168.6 316.7,169C314,169.5 312.8,171.2 313.2,174C314.5,183.2 315.4,192.5 317.1,201.6C318.5,209.7 319.4,211.2 327.7,210.9C338.7,210.6 349.7,210.3 360.6,209.9C364.4,209.8 368.2,209.2 372,209.4C373.8,209.5 375.8,210.6 377.3,211.6C380.5,213.8 379.6,219.8 375.2,220.6C370.2,221.5 365.1,222.4 360,221.6C358.7,221.4 357.4,221.2 356,221.2C348,221.5 340,221.8 332.1,222.3C329.1,222.5 326.2,223.1 323.2,223.4C321.6,223.6 319.9,223.7 318.2,223.8C313.8,224 310.9,221.7 309.4,217.8C308.3,215 307.6,212.1 307.3,209.1C306.4,202 306.2,194.8 304.9,187.8C303.8,181.8 302,175.9 300,170.1C298.7,166.2 297.3,162.6 298.9,158.5C299.1,157.9 299.2,157.2 299.2,156.5C299.1,148 298.9,139.5 298.8,131C298.8,128.2 298.6,125.4 299,122.6C299.8,117.4 306.2,114 310.9,116.3C314,117.8 317.3,118.4 320.5,118.6C328.5,119 336.4,118.8 344.4,117.3C347.5,116.7 350.7,116.6 353.8,116.6C358.1,116.6 360.9,119.1 360.8,122.6C360.7,125.3 357.2,128.7 354,128.8C349,128.9 344,129 339,128.5C334.5,128 330.1,128 325.6,128.8C322.5,129.3 319.3,129.3 316.2,129.5C314.6,129.6 313,129.9 311.1,130.2C308.4,138.4 308.4,146.4 310.1,154.7Z" style="fill-rule:nonzero;"/>
                <path d="M469.6,125.6C467.3,130.3 464.5,131.8 459.7,130.9C457.8,130.5 455.9,129.7 453.9,129.4C451.1,129 448.3,128.9 445.5,128.6C438.2,127.9 430.9,127.3 423.7,126.6C422.9,126.5 422.1,126.1 421.3,126.1C415.7,125.5 412.5,127.9 412.4,133.5C412.3,138.3 412.9,143.1 413.3,147.9C413.4,149.7 414,151.5 414.1,153.3C414.2,156.1 415.5,157.7 418.1,158.3C421.2,159 424.3,159.9 427.4,159.9C433.6,159.9 439.7,160.6 445.7,161.9C448.1,162.4 450.5,163.4 452.6,164.7C456.6,167.1 456.4,171.6 452.2,173.7C450.8,174.4 449,175 447.5,174.8C439.9,173.8 432.4,172.5 424.9,171.3C422.7,171 420.6,171 418.5,172.4C418.4,173.6 418.2,174.9 418.3,176.2C418.9,184.8 420.8,193.2 423.1,201.6C424,204.9 426.1,206.3 429.1,206.6C433.4,207.1 437.7,207.3 442,208C450.6,209.4 459.3,208.6 467.9,209.2C472.1,209.5 476.5,208.5 480.6,210.1C482.5,210.8 484.4,211.5 486,212.5C489.1,214.5 490.4,218.2 489.2,221.2C488.3,223.6 483.7,226.2 480.8,225.5C472,223.5 463,223.3 454,223.1C450.6,223 447.2,221.8 443.8,220.8C438.1,219.1 432.4,218.7 426.6,219.6C419.5,220.8 415.2,217.3 413.3,210.6C413,209.5 412.6,208.4 412.4,207.2C410.1,194.1 407.7,181.1 405.4,168C404.1,160.7 402.6,153.3 401.6,146C400.6,138.6 399.8,131.2 399.4,123.7C399.1,118.5 400.7,116.4 405.7,115C412.5,113.1 419.3,112.7 426.3,114.9C431.5,116.5 437,117.1 442.4,117.6C447.4,118.1 452.4,117.8 457.4,118C459.2,118.1 461,118.4 462.8,118.7C466.3,119.5 468.8,121.7 469.6,125.6Z" style="fill-rule:nonzero;"/>
                <path d="M88.8,148.1C87.1,148.5 85.3,148.9 83.5,149.3C79.5,150.4 76.9,152.7 76,157.1C74.9,162.1 73.4,167.1 72.1,172C71.3,174.9 70.9,177.8 71.6,180.9C72.2,183.5 72.6,186.2 72.5,188.8C72.1,196.7 74.1,204.2 75.7,211.8C77,218 79.9,222.5 84.8,226.1C87.2,227.8 89.6,227.6 91.5,225.4C93.3,223.2 94.7,220.8 96.3,218.4C97.6,216.4 99.2,214.7 101.9,214.8C106.1,214.9 109.2,218.2 108.3,222.4C107.1,228 104.7,233.1 101.3,237.7C99.9,239.7 97.6,240.5 95.2,240.8C82,242.9 68.5,234.2 64.9,223.8C63.8,220.7 63.6,217.3 63.2,214.1C62.4,207.7 61.6,201.3 60.9,194.8C60.6,192 60.2,189.2 60.2,186.4C60.4,178.1 60.6,169.8 62.7,161.7C63.1,160.1 62.9,158.4 63.1,156.7C63.5,153.9 63.9,151.1 64.6,148.4C65.9,142.6 69.5,139.6 75.5,138.3C82.6,136.7 89.4,137.5 96.1,139.6C101.4,141.3 105.1,145.2 108.4,149.4C108.5,149.5 108.6,149.7 108.6,149.8C110.1,152.8 109.9,155.6 108,157.1C106,158.7 102.8,158.2 100.4,155.9C100,155.6 99.7,155.2 99.4,154.8C95.2,150 95.2,150 88.8,148.1Z" style="fill-rule:nonzero;"/>
                <path d="M401.9,220.4C401.7,221.9 401.7,222.9 401.5,223.9C400.7,227.6 398.8,229.3 395.4,229.2C392.4,229.1 389.7,226.9 389.2,223.7C388.9,221.9 389,220 388.9,218.2C388,207.6 387.4,197 386.1,186.4C385,177.9 383,169.5 381.4,161C381.3,160.5 381.3,160 381.2,159.5C380.5,152.7 379.8,146 379.1,139.2C379,138.2 378.6,137.3 378.3,136.3C377.8,134.7 377.3,133.1 376.7,131.6C375.5,128.5 375.9,125.7 378.4,123.4C380.3,121.7 383.8,121.4 386.4,122.7C389.4,124.2 390.6,126.9 390.4,130.5C390.2,133.6 390,136.8 390.3,140C391,146.4 391.8,152.9 392.9,159.2C394.3,168.2 396.1,177.2 397.5,186.2C398.5,192.6 399.1,199 400,205.5C400.6,210.7 401.3,215.8 401.9,220.4Z" style="fill-rule:nonzero;"/>
            </g>
        </g>
    </g>
</svg>
