<?xml version="1.0" encoding="UTF-8"?>
<!-- Created with Inkscape (http://www.inkscape.org/) -->
<svg width="200" height="200" version="1.1" viewBox="0 0 52.9 52.9" xmlns="http://www.w3.org/2000/svg">
 <g display="none">
  <rect width="52.9" height="52.9" fill="#fff" stop-color="#000000" stroke-width="2"/>
 </g>
 <g>
  <path id="easterhegg" transform="scale(.265)" d="m59.8 152c-1.53 0-2.81 0.42-3.83 1.26-1.02 0.823-1.53 1.86-1.53 3.11 0 0.708 0.181 1.37 0.543 1.97 0.362 0.609 0.855 1.09 1.48 1.46 0.51 0.28 1.19 0.519 2.03 0.717 0.856 0.198 1.6 0.345 2.22 0.443 0.642 0.0988 1.2 0.297 1.68 0.594 0.494 0.296 0.742 0.69 0.742 1.18 0 0.527-0.314 0.972-0.939 1.33-0.626 0.362-1.4 0.543-2.32 0.543-0.823 0-1.57-0.156-2.25-0.469-0.675-0.313-1.07-0.69-1.18-1.13 0-0.0165-0.0178-0.0661-0.0508-0.148-0.0166-0.0823-0.0324-0.148-0.0488-0.197-0.0165-0.0494-0.0502-0.124-0.0996-0.223-0.0329-0.0988-0.0806-0.173-0.146-0.223-0.0494-0.0659-0.117-0.131-0.199-0.197-0.0823-0.0658-0.189-0.116-0.32-0.148-0.115-0.0329-0.246-0.0488-0.395-0.0488-0.461 0-0.782 0.14-0.963 0.42-0.181 0.263-0.271 0.666-0.271 1.21v1.63c0 1.09 0.418 1.63 1.26 1.63 0.329 0 0.659-0.199 0.988-0.594 1.2 0.642 2.49 0.963 3.85 0.963 1.7 0 3.06-0.393 4.1-1.18 1.04-0.79 1.55-1.83 1.55-3.11s-0.484-2.31-1.46-3.09c-0.51-0.412-1.21-0.732-2.1-0.963-0.889-0.247-1.7-0.412-2.42-0.494-0.724-0.0988-1.36-0.295-1.9-0.592-0.543-0.313-0.816-0.749-0.816-1.31 0-0.527 0.273-0.972 0.816-1.33 0.543-0.362 1.2-0.543 1.97-0.543s1.42 0.156 1.95 0.469c0.543 0.296 0.871 0.692 0.986 1.19 0 0.0165 0.00901 0.082 0.0254 0.197 0.0329 0.0988 0.0488 0.173 0.0488 0.223 0.0165 0.0329 0.0413 0.0985 0.0742 0.197 0.0329 0.0988 0.0667 0.173 0.0996 0.223 0.0329 0.0494 0.0826 0.115 0.148 0.197 0.0659 0.0658 0.131 0.124 0.197 0.174 0.0823 0.0329 0.173 0.0647 0.271 0.0977 0.115 0.0164 0.237 0.0254 0.369 0.0254 0.807 0 1.21-0.551 1.21-1.65v-2.17c0-0.527-0.0834-0.929-0.248-1.21-0.148-0.279-0.468-0.42-0.961-0.42h-0.00195c-0.246 3e-4 -0.435 0.0589-0.566 0.174-0.132 0.115-0.265 0.328-0.396 0.641-0.872-0.543-1.94-0.814-3.21-0.814zm94.4 0c-2.06 0-3.75 0.676-5.06 2.03-1.3 1.33-1.95 2.96-1.95 4.89v1.75c0 0.593 0.0656 1.17 0.197 1.73 0.132 0.56 0.371 1.14 0.717 1.73 0.346 0.576 0.782 1.08 1.31 1.51 0.527 0.428 1.23 0.781 2.12 1.06 0.889 0.263 1.89 0.395 3.01 0.395 0.955 0 1.82-0.115 2.59-0.346 0.774-0.214 1.71-0.607 2.81-1.18v-3.26c0.691-0.198 1.04-0.609 1.04-1.23 0-0.823-0.551-1.23-1.65-1.23h-4.32c-0.527 0-0.929 0.0904-1.21 0.271-0.28 0.165-0.42 0.486-0.42 0.963 0 0.823 0.542 1.23 1.63 1.23h2.47v1.7c-0.922 0.412-1.95 0.617-3.09 0.617-3.16 0-4.74-1.37-4.74-4.12v-1.58c0-1.33 0.411-2.4 1.23-3.21 0.84-0.823 1.95-1.23 3.33-1.23 0.905 0 1.65 0.133 2.22 0.396 0.576 0.247 0.931 0.584 1.06 1.01 0 0.0329 0.00706 0.0985 0.0234 0.197 0.033 0.0823 0.0578 0.148 0.0742 0.197 0.0164 0.0494 0.0413 0.124 0.0742 0.223 0.0329 0.0823 0.0667 0.157 0.0996 0.223 0.0494 0.0494 0.099 0.106 0.148 0.172 0.0659 0.0658 0.131 0.124 0.197 0.174 0.0658 0.0329 0.147 0.0647 0.246 0.0976 0.115 0.0164 0.23 0.0254 0.346 0.0254 0.477 0 0.798-0.14 0.963-0.42 0.181-0.28 0.271-0.684 0.271-1.21v-1.93c0-0.543-0.0815-0.946-0.246-1.21-0.165-0.28-0.47-0.42-0.914-0.42-0.412 0-0.748 0.264-1.01 0.791-1.05-0.527-2.25-0.791-3.58-0.791zm15.5 0c-2.06 0-3.75 0.676-5.06 2.03-1.3 1.33-1.95 2.96-1.95 4.89v1.75c0 0.593 0.0656 1.17 0.197 1.73 0.132 0.56 0.371 1.14 0.717 1.73 0.346 0.576 0.782 1.08 1.31 1.51 0.527 0.428 1.23 0.781 2.12 1.06 0.889 0.263 1.89 0.395 3.01 0.395 0.955 0 1.82-0.115 2.59-0.346 0.774-0.214 1.71-0.607 2.81-1.18v-3.26c0.691-0.198 1.04-0.609 1.04-1.23 0-0.823-0.551-1.23-1.65-1.23h-4.32c-0.527 0-0.931 0.0904-1.21 0.271-0.28 0.165-0.418 0.486-0.418 0.963 0 0.823 0.542 1.23 1.63 1.23h2.47v1.7c-0.922 0.412-1.95 0.617-3.09 0.617-3.16 0-4.74-1.37-4.74-4.12v-1.58c0-1.33 0.411-2.4 1.23-3.21 0.84-0.823 1.95-1.23 3.33-1.23 0.905 0 1.65 0.133 2.22 0.396 0.576 0.247 0.931 0.584 1.06 1.01-1e-5 0.0329 0.00705 0.0985 0.0234 0.197 0.033 0.0823 0.0578 0.148 0.0742 0.197 0.0164 0.0494 0.0413 0.124 0.0742 0.223 0.0329 0.0823 0.0667 0.157 0.0996 0.223 0.0494 0.0494 0.099 0.106 0.148 0.172 0.0659 0.0658 0.131 0.124 0.197 0.174 0.0658 0.0329 0.147 0.0647 0.246 0.0976 0.115 0.0164 0.23 0.0254 0.346 0.0254 0.477 0 0.798-0.14 0.963-0.42 0.181-0.28 0.271-0.684 0.271-1.21v-1.93c0-0.543-0.0815-0.946-0.246-1.21-0.165-0.28-0.47-0.42-0.914-0.42-0.412 0-0.748 0.264-1.01 0.791-1.05-0.527-2.25-0.791-3.58-0.791zm-146 0.346c-0.527 0-0.931 0.0904-1.21 0.271-0.28 0.165-0.42 0.486-0.42 0.963 0 0.823 0.544 1.23 1.63 1.23h0.369v9.46h-0.369c-1.09 0-1.63 0.411-1.63 1.23 0 0.823 0.544 1.23 1.63 1.23h11.6v-3.75c0-1.1-0.411-1.65-1.23-1.65s-1.23 0.551-1.23 1.65v1.28h-6.32v-3.53h2.1v0.174c0 1.09 0.411 1.63 1.23 1.63 0.807 0 1.21-0.542 1.21-1.63v-2.79c0-1.1-0.411-1.65-1.23-1.65-0.807 0-1.21 0.551-1.21 1.65v0.174h-2.1v-3.48h5.78v1.23c0 1.1 0.411 1.65 1.23 1.65 0.823 0 1.23-0.551 1.23-1.65v-3.7h-11.1zm17.5 0c-0.527 0-0.938 0.0815-1.23 0.246-0.28 0.165-0.42 0.494-0.42 0.988 0 0.823 0.551 1.23 1.65 1.23h1.55l-3.83 9.46c-0.527 0-0.931 0.0834-1.21 0.248-0.296 0.165-0.443 0.492-0.443 0.986 0 0.823 0.542 1.23 1.63 1.23h3.29c1.09 0 1.63-0.411 1.63-1.23 0-0.823-0.542-1.23-1.63-1.23h-0.568l0.568-1.43h5.88l0.568 1.43h-0.568c-0.527 0-0.929 0.0904-1.21 0.271-0.28 0.165-0.42 0.486-0.42 0.963 0 0.823 0.542 1.23 1.63 1.23h3.43c1.09 0 1.63-0.411 1.63-1.23 0-0.823-0.56-1.23-1.68-1.23l-4.91-11.9h-5.33zm27.6 0v4.77c0 1.09 0.411 1.63 1.23 1.63 0.823 0 1.23-0.542 1.23-1.63v-2.3h2.64v9.46h-1.61c-0.527 0-0.929 0.0904-1.21 0.271-0.28 0.165-0.42 0.486-0.42 0.963 0 0.823 0.542 1.23 1.63 1.23h5.71c1.09 0 1.63-0.411 1.63-1.23 0-0.823-0.542-1.23-1.63-1.23h-1.63v-9.46h2.69v2.3c0 1.09 0.411 1.63 1.23 1.63 0.477 0 0.798-0.14 0.963-0.42 0.181-0.28 0.273-0.682 0.273-1.21v-4.77h-12.7zm16.6 0c-0.527 0-0.931 0.0904-1.21 0.271-0.28 0.165-0.42 0.486-0.42 0.963 0 0.823 0.544 1.23 1.63 1.23h0.369v9.46h-0.369c-1.09 0-1.63 0.411-1.63 1.23 0 0.823 0.544 1.23 1.63 1.23h11.6v-3.75c0-1.1-0.411-1.65-1.23-1.65s-1.23 0.551-1.23 1.65v1.28h-6.32v-3.53h2.1v0.174c0 1.09 0.411 1.63 1.23 1.63 0.807 0 1.21-0.542 1.21-1.63v-2.79c0-1.1-0.413-1.65-1.24-1.65-0.807 0-1.21 0.551-1.21 1.65v0.174h-2.1v-3.48h5.78v1.23c0 1.1 0.411 1.65 1.23 1.65 0.823 0 1.23-0.551 1.23-1.65v-3.7h-11.1zm15.5 0c-0.527 0-0.931 0.0904-1.21 0.271-0.28 0.165-0.42 0.486-0.42 0.963 0 0.823 0.544 1.23 1.63 1.23h0.369v9.46h-0.369c-1.09 0-1.63 0.411-1.63 1.23 0 0.823 0.544 1.23 1.63 1.23h3.7c1.09 0 1.63-0.411 1.63-1.23 0-0.823-0.542-1.23-1.63-1.23h-0.863v-3.01h2.37c0.527 0.181 1.26 0.848 2.2 2 0.955 1.14 1.74 2.3 2.35 3.48h1.95c1.09 0 1.63-0.411 1.63-1.23 0-0.823-0.544-1.23-1.63-1.23h-0.32c-1-1.6-2.04-2.86-3.11-3.8 1.78-0.971 2.67-2.21 2.67-3.73 0-1.3-0.511-2.35-1.53-3.16-1-0.823-2.3-1.23-3.9-1.23h-5.51zm17.1 0c-0.527 0-0.931 0.0904-1.21 0.271-0.28 0.165-0.42 0.486-0.42 0.963 0 0.741 0.429 1.15 1.29 1.23v9.46h-0.148c-0.527 0-0.931 0.0904-1.21 0.271-0.28 0.165-0.42 0.486-0.42 0.963 0 0.823 0.544 1.23 1.63 1.23h2.99c1.09 0 1.63-0.411 1.63-1.23 0-0.823-0.544-1.23-1.63-1.23h-0.369v-3.48h5.28v3.48h-0.369c-1.09 0-1.63 0.411-1.63 1.23 0 0.823 0.544 1.23 1.63 1.23h2.99c1.09 0 1.63-0.411 1.63-1.23 0-0.823-0.544-1.23-1.63-1.23h-0.148v-9.46c0.856-0.0823 1.29-0.494 1.29-1.23 0-0.823-0.544-1.23-1.63-1.23h-2.49c-0.527 0-0.931 0.0904-1.21 0.271-0.28 0.165-0.42 0.486-0.42 0.963 0 0.823 0.544 1.23 1.63 1.23h0.369v3.51h-5.28v-3.51h0.369c1.09 0 1.63-0.411 1.63-1.23s-0.544-1.23-1.63-1.23h-2.49zm15.4 0c-0.527 0-0.929 0.0904-1.21 0.271-0.28 0.165-0.42 0.486-0.42 0.963 0 0.823 0.542 1.23 1.63 1.23h0.371v9.46h-0.371c-1.09 0-1.63 0.411-1.63 1.23 0 0.823 0.542 1.23 1.63 1.23h11.6v-3.75c0-1.1-0.411-1.65-1.23-1.65s-1.23 0.551-1.23 1.65v1.28h-6.32v-3.53h2.1v0.174c0 1.09 0.411 1.63 1.23 1.63 0.807 0 1.21-0.542 1.21-1.63v-2.79c0-1.1-0.411-1.65-1.23-1.65-0.807 0-1.21 0.551-1.21 1.65v0.174h-2.1v-3.48h5.78v1.23c0 1.1 0.411 1.65 1.23 1.65s1.23-0.551 1.23-1.65v-3.7h-11.1zm-29.6 2.47h2.77c0.79 0 1.44 0.181 1.95 0.543 0.51 0.346 0.766 0.782 0.766 1.31 0 0.609-0.346 1.12-1.04 1.53-0.675 0.395-1.53 0.594-2.57 0.594h-1.88v-3.98zm-58.6 0.814 1.93 4.74h-3.88l1.95-4.74z" stop-color="#000000" stroke-width=".516"/>
  <path id="twentyfour" transform="scale(.265)" d="m126 92.3c-2.52 1e-6 -4.65 0.762-6.4 2.29-1.72 1.52-2.58 3.09-2.58 4.7 0 0.526 0.208 0.997 0.623 1.41 0.415 0.388 0.901 0.582 1.46 0.582 0.526 0 0.955-0.166 1.29-0.498 0.332-0.332 0.595-0.734 0.789-1.21 0.222-0.471 0.471-0.941 0.748-1.41 0.277-0.471 0.747-0.873 1.41-1.21 0.692-0.332 1.55-0.498 2.58-0.498 1.36 0 2.49 0.36 3.41 1.08 0.914 0.72 1.37 1.61 1.37 2.66 0 0.388-0.139 0.832-0.416 1.33-0.249 0.499-0.706 1.09-1.37 1.79-0.637 0.692-1.23 1.32-1.79 1.87s-1.38 1.32-2.49 2.29c-1.11 0.942-1.98 1.67-2.62 2.2-0.609 0.526-1.61 1.34-2.99 2.45-1.36 1.11-2.3 1.88-2.82 2.33v4.36h18.9v-3.66c0-1.83-0.691-2.74-2.08-2.74-1.27 0-1.97 0.748-2.08 2.24h-8.35c4.13-3.55 6.95-6.05 8.48-7.52 1.52-1.5 2.53-2.69 3.03-3.57 0.526-0.914 0.789-1.98 0.789-3.2 0-2.3-0.846-4.21-2.54-5.73-1.69-1.55-3.79-2.33-6.31-2.33zm25 0.666-10 16.7v3.45h11.3v1.58h-1.58c-1.83 0-2.74 0.691-2.74 2.08s0.914 2.08 2.74 2.08h5.48c1.86-1e-5 2.78-0.693 2.78-2.08s-0.846-2.08-2.54-2.08v-1.58c1.69-0.0554 2.54-0.747 2.54-2.08 0-1.38-0.846-2.08-2.54-2.08v-16h-5.44zm1.29 5.9v10.1h-6.23l6.23-10.1z" stop-color="#000000" stroke-width=".868"/>
  <path id="rabbit_prototyping" transform="scale(.265)" d="m102 172c-1.01 0.025-1.89 0.439-2.62 1.24-0.753 0.818-1.13 1.81-1.13 2.96 0 1.17 0.373 2.16 1.12 2.99 0.753 0.818 1.66 1.23 2.73 1.23 1.05 0 1.95-0.411 2.7-1.23 0.763-0.818 1.14-1.79 1.14-2.92 0-0.68-0.11-1.29-0.33-1.82-0.211-0.542-0.475-0.96-0.787-1.25-0.303-0.294-0.647-0.538-1.03-0.73-0.377-0.193-0.703-0.318-0.979-0.373-0.276-0.0644-0.515-0.0957-0.717-0.0957-0.033 0-0.0649-8.1e-4 -0.0977 0zm17.4 0c-1.01 0.025-1.89 0.439-2.62 1.24-0.753 0.818-1.13 1.81-1.13 2.96 0 1.17 0.373 2.16 1.12 2.99 0.753 0.818 1.66 1.23 2.73 1.23 1.05 0 1.95-0.411 2.7-1.23 0.763-0.818 1.14-1.79 1.14-2.92 0-0.68-0.11-1.29-0.33-1.82-0.211-0.542-0.475-0.96-0.787-1.25-0.303-0.294-0.647-0.538-1.03-0.73-0.377-0.193-0.703-0.318-0.979-0.373-0.276-0.0644-0.515-0.0957-0.717-0.0957-0.033 0-0.0649-8.1e-4 -0.0977 0zm52.3 0c-1.1 0.0228-2.01 0.399-2.72 1.13-0.726 0.744-1.09 1.66-1.09 2.73v0.979c0 0.331 0.0378 0.652 0.111 0.965s0.205 0.634 0.398 0.965c0.193 0.322 0.436 0.601 0.73 0.84 0.294 0.239 0.689 0.438 1.19 0.594 0.496 0.147 1.06 0.221 1.68 0.221 0.533 0 1.02-0.0648 1.45-0.193 0.432-0.119 0.957-0.34 1.57-0.662v-1.82c0.386-0.11 0.578-0.338 0.578-0.688 0-0.459-0.308-0.689-0.924-0.689h-2.41c-0.294 0-0.518 0.0493-0.674 0.15-0.156 0.0919-0.234 0.273-0.234 0.539 0 0.459 0.302 0.689 0.908 0.689h1.38v0.949c-0.515 0.23-1.09 0.346-1.72 0.346-1.76 0-2.65-0.768-2.65-2.3v-0.881c0-0.744 0.23-1.34 0.689-1.79 0.469-0.459 1.09-0.689 1.86-0.689 0.505 0 0.919 0.0737 1.24 0.221 0.322 0.138 0.518 0.327 0.592 0.566 0 0.0184 0.0046 0.0542 0.0137 0.109 0.0185 0.046 0.0319 0.0838 0.041 0.111 0.0092 0.0275 0.0246 0.0679 0.043 0.123 0.0184 0.046 0.0363 0.0883 0.0547 0.125 0.0275 0.0276 0.0544 0.059 0.082 0.0957 0.0368 0.0368 0.0746 0.0701 0.111 0.0977 0.0367 0.0183 0.0816 0.0363 0.137 0.0547 0.0643 0.00907 0.129 0.0137 0.193 0.0137 0.266 0 0.445-0.0782 0.537-0.234 0.101-0.156 0.152-0.382 0.152-0.676v-1.07c0-0.303-0.0468-0.529-0.139-0.676-0.0919-0.156-0.262-0.234-0.51-0.234-0.23 0-0.417 0.147-0.564 0.441-0.588-0.294-1.26-0.441-2-0.441-0.0359 0-0.07-7.4e-4 -0.105 0zm-148 0.193c-0.294 0-0.52 0.0493-0.676 0.15-0.156 0.0919-0.234 0.271-0.234 0.537 0 0.459 0.304 0.689 0.91 0.689h0.207v5.28h-0.207c-0.606 0-0.91 0.23-0.91 0.689 0 0.459 0.304 0.689 0.91 0.689h2.07c0.606 0 0.908-0.23 0.908-0.689 0-0.459-0.302-0.689-0.908-0.689h-0.482v-1.68h1.32c0.294 0.101 0.703 0.474 1.23 1.12 0.533 0.634 0.971 1.28 1.31 1.94h1.09c0.606 0 0.91-0.23 0.91-0.689 0-0.459-0.304-0.689-0.91-0.689h-0.18c-0.561-0.891-1.14-1.6-1.74-2.12 0.992-0.542 1.49-1.23 1.49-2.08 1e-6 -0.726-0.284-1.32-0.854-1.77-0.561-0.459-1.29-0.688-2.18-0.688h-3.07zm9.86 0c-0.294 0-0.524 0.0448-0.689 0.137-0.156 0.0919-0.234 0.275-0.234 0.551-1e-6 0.459 0.308 0.689 0.924 0.689h0.869l-2.14 5.28c-0.294 0-0.52 0.0468-0.676 0.139-0.165 0.0919-0.248 0.275-0.248 0.551 0 0.459 0.304 0.689 0.91 0.689h1.83c0.606 0 0.91-0.23 0.91-0.689 0-0.459-0.304-0.689-0.91-0.689h-0.316l0.316-0.799h3.28l0.316 0.799h-0.316c-0.294 0-0.52 0.0513-0.676 0.152-0.156 0.0919-0.234 0.271-0.234 0.537 0 0.459 0.304 0.689 0.91 0.689h1.92c0.606 0 0.908-0.23 0.908-0.689 0-0.459-0.311-0.689-0.936-0.689l-2.74-6.66h-2.98zm8.09 0c-0.285 0-0.51 0.0493-0.676 0.15-0.156 0.0919-0.234 0.271-0.234 0.537 0 0.459 0.304 0.689 0.91 0.689h0.205v5.28h-0.205c-0.606 0-0.91 0.23-0.91 0.689 0 0.459 0.304 0.689 0.91 0.689h4.06c0.818 0 1.47-0.203 1.97-0.607 0.496-0.404 0.746-0.936 0.746-1.6 0-0.845-0.487-1.51-1.46-2 0.579-0.45 0.867-0.969 0.867-1.56 0-0.652-0.257-1.2-0.771-1.63-0.505-0.432-1.15-0.646-1.93-0.646h-3.49zm8.91 0c-0.285 0-0.51 0.0493-0.676 0.15-0.156 0.0919-0.234 0.271-0.234 0.537 0 0.459 0.304 0.689 0.91 0.689h0.205v5.28h-0.205c-0.606 0-0.91 0.23-0.91 0.689 0 0.459 0.304 0.689 0.91 0.689h4.06c0.818 0 1.47-0.203 1.97-0.607 0.496-0.404 0.746-0.936 0.746-1.6 0-0.845-0.487-1.51-1.46-2 0.579-0.45 0.867-0.969 0.867-1.56 0-0.652-0.257-1.2-0.771-1.63-0.505-0.432-1.15-0.646-1.93-0.646h-3.49zm9.07 0c-0.294 0-0.52 0.0493-0.676 0.15-0.156 0.0919-0.234 0.271-0.234 0.537 0 0.459 0.304 0.689 0.91 0.689h1.39v5.28h-1.39c-0.294 0-0.52 0.0513-0.676 0.152-0.156 0.0919-0.234 0.271-0.234 0.537 0 0.459 0.304 0.689 0.91 0.689h4.16c0.606 0 0.908-0.23 0.908-0.689 0-0.266-0.0762-0.445-0.232-0.537-0.156-0.101-0.382-0.152-0.676-0.152h-1.39v-5.28h1.39c0.606 0 0.908-0.23 0.908-0.689 0-0.266-0.0762-0.445-0.232-0.537-0.156-0.101-0.382-0.15-0.676-0.15h-4.16zm6.83 0v2.66c0 0.606 0.23 0.908 0.689 0.908 0.459 0 0.689-0.302 0.689-0.908v-1.28h1.47v5.28h-0.896c-0.294 0-0.52 0.0513-0.676 0.152-0.156 0.0919-0.234 0.271-0.234 0.537 0 0.459 0.304 0.689 0.91 0.689h3.18c0.606 0 0.91-0.23 0.91-0.689 0-0.459-0.304-0.689-0.91-0.689h-0.91v-5.28h1.5v1.28c0 0.606 0.228 0.908 0.688 0.908 0.266 0 0.447-0.0782 0.539-0.234 0.101-0.156 0.15-0.38 0.15-0.674v-2.66h-7.11zm15.5 0c-0.294 0-0.52 0.0493-0.676 0.15-0.156 0.0919-0.234 0.271-0.234 0.537 0 0.459 0.304 0.689 0.91 0.689h0.205v5.28h-0.205c-0.606 0-0.91 0.23-0.91 0.689 0 0.459 0.304 0.689 0.91 0.689h2.95c0.606 0 0.908-0.23 0.908-0.689 0-0.459-0.302-0.689-0.908-0.689h-1.37v-1.38h1.35c0.505 0 0.95-0.0538 1.34-0.164 0.395-0.119 0.708-0.267 0.938-0.441 0.239-0.184 0.436-0.396 0.592-0.635 0.156-0.248 0.263-0.487 0.318-0.717 0.0551-0.23 0.082-0.469 0.082-0.717 0-0.763-0.279-1.39-0.84-1.87-0.561-0.487-1.28-0.73-2.15-0.73h-3.21zm8.57 0c-0.294 0-0.518 0.0493-0.674 0.15-0.156 0.0919-0.234 0.271-0.234 0.537 0 0.459 0.302 0.689 0.908 0.689h0.207v5.28h-0.207c-0.606 0-0.908 0.23-0.908 0.689 0 0.459 0.302 0.689 0.908 0.689h2.07c0.606 0 0.91-0.23 0.91-0.689 0-0.459-0.304-0.689-0.91-0.689h-0.482v-1.68h1.32c0.294 0.101 0.705 0.474 1.23 1.12 0.533 0.634 0.969 1.28 1.31 1.94h1.09c0.606 0 0.91-0.23 0.91-0.689 0-0.459-0.304-0.689-0.91-0.689h-0.178c-0.561-0.891-1.14-1.6-1.74-2.12 0.992-0.542 1.49-1.23 1.49-2.08 0-0.726-0.286-1.32-0.855-1.77-0.561-0.459-1.29-0.688-2.18-0.688h-3.07zm17 0v2.66c0 0.606 0.23 0.908 0.689 0.908 0.459 0 0.689-0.302 0.689-0.908v-1.28h1.47v5.28h-0.896c-0.294 0-0.52 0.0513-0.676 0.152-0.156 0.0919-0.234 0.271-0.234 0.537 0 0.459 0.304 0.689 0.91 0.689h3.18c0.606 0 0.91-0.23 0.91-0.689 0-0.459-0.304-0.689-0.91-0.689h-0.91v-5.28h1.5v1.28c0 0.606 0.228 0.908 0.688 0.908 0.266 0 0.447-0.0782 0.539-0.234 0.101-0.156 0.15-0.38 0.15-0.674v-2.66h-7.11zm17.4 0v2.66c0 0.606 0.23 0.908 0.689 0.908s0.689-0.302 0.689-0.908v-1.28h1.47v5.28h-0.896c-0.294 0-0.52 0.0513-0.676 0.152-0.156 0.0919-0.234 0.271-0.234 0.537 0 0.459 0.304 0.689 0.91 0.689h3.18c0.606 0 0.91-0.23 0.91-0.689 0-0.459-0.304-0.689-0.91-0.689h-0.91v-5.28h1.5v1.28c0 0.606 0.228 0.908 0.688 0.908 0.266 0 0.447-0.0782 0.539-0.234 0.101-0.156 0.15-0.38 0.15-0.674v-2.66h-7.11zm9.54 0c-0.616 0-0.922 0.228-0.922 0.688 0 0.459 0.293 0.689 0.881 0.689l2.28 3.28v2h-0.896c-0.294 0-0.524 0.0468-0.689 0.139-0.156 0.0919-0.234 0.275-0.234 0.551 0 0.459 0.308 0.689 0.924 0.689h3.17c0.616 0 0.924-0.23 0.924-0.689 0-0.459-0.308-0.689-0.924-0.689h-0.896v-2l2.26-3.28c0.597 0 0.895-0.23 0.895-0.689 0-0.266-0.0782-0.445-0.234-0.537-0.156-0.101-0.38-0.15-0.674-0.15h-1.27c-0.294 0-0.522 0.0448-0.688 0.137-0.156 0.0919-0.234 0.275-0.234 0.551 0 0.312 0.183 0.538 0.551 0.676l-1.29 1.88-1.31-1.88c0.349-0.147 0.523-0.373 0.523-0.676 0-0.459-0.302-0.688-0.908-0.688h-1.23zm8.78 0c-0.294 0-0.52 0.0493-0.676 0.15-0.156 0.0919-0.234 0.271-0.234 0.537 0 0.459 0.304 0.689 0.91 0.689h0.207v5.28h-0.207c-0.606 0-0.91 0.23-0.91 0.689 0 0.459 0.304 0.689 0.91 0.689h2.95c0.606 0 0.91-0.23 0.91-0.689 0-0.459-0.304-0.689-0.91-0.689h-1.37v-1.38h1.35c0.505 0 0.952-0.0538 1.34-0.164 0.395-0.119 0.706-0.267 0.936-0.441 0.239-0.184 0.438-0.396 0.594-0.635 0.156-0.248 0.261-0.487 0.316-0.717 0.0551-0.23 0.084-0.469 0.084-0.717 0-0.763-0.281-1.39-0.842-1.87-0.561-0.487-1.28-0.73-2.15-0.73h-3.21zm8.67 0c-0.294 0-0.52 0.0493-0.676 0.15-0.156 0.0919-0.234 0.271-0.234 0.537 0 0.459 0.304 0.689 0.91 0.689h1.39v5.28h-1.39c-0.294 0-0.52 0.0513-0.676 0.152-0.156 0.0919-0.234 0.271-0.234 0.537 0 0.459 0.304 0.689 0.91 0.689h4.16c0.606 0 0.91-0.23 0.91-0.689 0-0.266-0.0782-0.445-0.234-0.537-0.156-0.101-0.382-0.152-0.676-0.152h-1.39v-5.28h1.39c0.606 0 0.91-0.23 0.91-0.689 0-0.266-0.0782-0.445-0.234-0.537-0.156-0.101-0.382-0.15-0.676-0.15h-4.16zm7.65 0c-0.294 0-0.52 0.0493-0.676 0.15-0.156 0.0919-0.234 0.271-0.234 0.537 0 0.459 0.304 0.689 0.91 0.689h0.207v5.28c-0.561 0-0.842 0.23-0.842 0.689s0.308 0.689 0.924 0.689h1.78c0.606 0 0.91-0.23 0.91-0.689 0-0.266-0.0782-0.445-0.234-0.537-0.156-0.101-0.382-0.152-0.676-0.152h-0.482v-4.05l3.57 5.43h1.37v-6.66c0.561 0 0.84-0.23 0.84-0.689 0-0.459-0.304-0.688-0.91-0.688h-1.79c-0.294 0-0.52 0.0493-0.676 0.15-0.156 0.0919-0.234 0.271-0.234 0.537 0 0.459 0.304 0.689 0.91 0.689h0.482v4.03l-3.56-5.4h-1.58zm-57.2 1.18c0.68 0 1.26 0.281 1.74 0.842 0.487 0.561 0.73 1.24 0.73 2.03 0 0.763-0.243 1.42-0.73 1.97-0.487 0.551-1.07 0.828-1.74 0.828-0.68 0-1.26-0.277-1.75-0.828-0.478-0.561-0.717-1.23-0.717-2.01 0-0.772 0.243-1.43 0.73-1.98 0.487-0.561 1.07-0.842 1.74-0.842zm17.4 0c0.68 0 1.26 0.281 1.74 0.842 0.487 0.561 0.73 1.24 0.73 2.03 0 0.763-0.243 1.42-0.73 1.97-0.487 0.551-1.07 0.828-1.74 0.828-0.68 0-1.26-0.277-1.75-0.828-0.478-0.561-0.717-1.23-0.717-2.01 0-0.772 0.243-1.43 0.73-1.98 0.487-0.561 1.07-0.842 1.74-0.842zm-94.6 0.193h1.54c0.441 0 0.803 0.101 1.09 0.303 0.285 0.193 0.428 0.436 0.428 0.73 0 0.34-0.192 0.626-0.578 0.855-0.377 0.221-0.855 0.33-1.43 0.33h-1.05v-2.22zm17.9 0h1.83c0.432 0 0.771 0.0782 1.02 0.234 0.248 0.156 0.371 0.373 0.371 0.648 0 0.312-0.156 0.569-0.469 0.771-0.303 0.193-0.701 0.289-1.2 0.289h-1.56v-1.94zm8.91 0h1.83c0.432 0 0.771 0.0782 1.02 0.234 0.248 0.156 0.371 0.373 0.371 0.648 0 0.312-0.156 0.569-0.469 0.771-0.303 0.193-0.701 0.289-1.2 0.289h-1.56v-1.94zm31.4 0h1.63c0.478 0 0.849 0.116 1.12 0.346 0.276 0.221 0.414 0.527 0.414 0.922 0 0.386-0.138 0.694-0.414 0.924-0.266 0.221-0.637 0.332-1.12 0.332h-1.63v-2.52zm8.57 0h1.54c0.441 0 0.805 0.101 1.09 0.303 0.285 0.193 0.428 0.436 0.428 0.73 0 0.34-0.194 0.626-0.58 0.855-0.377 0.221-0.855 0.33-1.43 0.33h-1.05v-2.22zm52.8 0h1.63c0.478 0 0.851 0.116 1.12 0.346 0.276 0.221 0.412 0.527 0.412 0.922 0 0.386-0.136 0.694-0.412 0.924-0.266 0.221-0.639 0.332-1.12 0.332h-1.63v-2.52zm-109 0.455 1.07 2.65h-2.16l1.09-2.65zm7.49 2.87h1.86c0.588 0 1.06 0.11 1.42 0.33 0.358 0.221 0.537 0.515 0.537 0.883 0 0.496-0.469 0.744-1.41 0.744h-2.41v-1.96zm8.91 0h1.86c0.588 0 1.06 0.11 1.42 0.33 0.358 0.221 0.537 0.515 0.537 0.883 0 0.496-0.469 0.744-1.41 0.744h-2.41v-1.96z" stop-color="#000000" stroke-width=".288"/>
  <path transform="scale(.265)" d="m118 122c-0.42 0.00806-0.777 0.142-1.07 0.4-0.302 0.267-0.453 0.593-0.453 0.98 1e-5 0.387 0.222 0.729 0.664 1.03-0.488 0.307-0.732 0.694-0.732 1.16 0 0.402 0.151 0.729 0.453 0.98 0.302 0.251 0.693 0.377 1.18 0.377 0.488 0 0.884-0.125 1.19-0.377 0.307-0.251 0.459-0.578 0.459-0.98 0-0.468-0.243-0.855-0.73-1.16 0.443-0.297 0.664-0.644 0.664-1.04 0-0.377-0.154-0.698-0.461-0.965-0.307-0.267-0.677-0.4-1.11-0.4-0.0137 0-0.0275-2.6e-4 -0.041 0zm8.04 0-1.02 0.693c-0.0855 0.0603-0.146 0.118-0.182 0.174-0.0352 0.0503-0.0527 0.117-0.0527 0.197 0 0.0905 0.0314 0.163 0.0918 0.219 0.0654 0.0553 0.139 0.082 0.225 0.082 0.131 0 0.235-0.0323 0.311-0.0977l0.619-0.438v3.23h-0.764c-0.161 0-0.284 0.0267-0.369 0.082-0.0855 0.0503-0.127 0.149-0.127 0.295 0 0.251 0.164 0.377 0.496 0.377h2.28c0.332 0 0.498-0.125 0.498-0.377 0-0.251-0.166-0.377-0.498-0.377h-0.762v-4.06h-0.748zm5.41 0c-0.676 0.0189-1.26 0.331-1.75 0.936-0.387 0.488-0.58 1.06-0.58 1.73 0 0.206 0.0147 0.407 0.0449 0.604 0.0302 0.196 0.0856 0.397 0.166 0.604 0.0805 0.206 0.18 0.386 0.301 0.537 0.126 0.151 0.289 0.276 0.49 0.377 0.206 0.0956 0.442 0.143 0.703 0.143 0.483 0 0.859-0.14 1.13-0.422 0.272-0.287 0.408-0.66 0.408-1.12 0-0.427-0.142-0.792-0.424-1.09-0.277-0.302-0.612-0.453-1.01-0.453-0.191 0-0.368 0.0406-0.529 0.121-0.156 0.0805-0.323 0.217-0.504 0.408 0.0855-0.463 0.284-0.842 0.596-1.14 0.317-0.302 0.673-0.453 1.07-0.453 0.0452 0 0.124 0.0175 0.234 0.0527 0.116 0.0302 0.189 0.0449 0.219 0.0449 0.106 0 0.196-0.0378 0.271-0.113 0.0754-0.0754 0.113-0.166 0.113-0.271 0-0.146-0.0813-0.265-0.242-0.355s-0.374-0.135-0.641-0.135c-0.022 0-0.0446-6.1e-4 -0.0664 0zm7.44 0c-0.372 0.01-0.707 0.0956-1 0.256-0.317 0.171-0.477 0.366-0.477 0.582 0 0.101 0.037 0.188 0.107 0.264 0.0754 0.0754 0.163 0.113 0.264 0.113 0.0855 0 0.158-0.0231 0.219-0.0684 0.0654-0.0503 0.121-0.103 0.166-0.158 0.0453-0.0604 0.133-0.113 0.264-0.158 0.131-0.0503 0.294-0.0762 0.49-0.0762 0.262 0 0.468 0.0526 0.619 0.158 0.151 0.101 0.227 0.24 0.227 0.416 0 0.161-0.0693 0.301-0.205 0.422-0.136 0.116-0.296 0.174-0.482 0.174h-0.301c-0.116 0-0.212 0.0351-0.287 0.105-0.0704 0.0704-0.105 0.161-0.105 0.271-1e-5 0.216 0.131 0.333 0.393 0.348 0.367 0.0201 0.65 0.0994 0.852 0.24 0.201 0.141 0.301 0.322 0.301 0.543 0 0.493-0.403 0.74-1.21 0.74-0.216 0-0.397-0.0139-0.543-0.0391-0.146-0.0302-0.245-0.0597-0.295-0.0898-0.0503-0.0352-0.103-0.0646-0.158-0.0898-0.0503-0.0302-0.1-0.0449-0.15-0.0449-0.106 0-0.196 0.0378-0.271 0.113-0.0704 0.0704-0.107 0.158-0.107 0.264 0 0.191 0.142 0.346 0.424 0.467 0.287 0.116 0.66 0.174 1.12 0.174 0.367 0 0.685-0.0442 0.951-0.135 0.272-0.0905 0.476-0.212 0.611-0.363 0.136-0.156 0.233-0.314 0.293-0.475 0.0604-0.161 0.0918-0.333 0.0918-0.514 0-0.483-0.285-0.862-0.854-1.14 0.246-0.146 0.424-0.294 0.529-0.445 0.106-0.156 0.158-0.337 0.158-0.543 0-0.372-0.146-0.684-0.438-0.936-0.287-0.251-0.66-0.377-1.12-0.377-0.0251 0-0.0494-6.7e-4 -0.0742 0zm4.13 0c-0.439 0.00837-0.812 0.146-1.12 0.414-0.312 0.277-0.467 0.562-0.467 0.854 0 0.0956 0.0378 0.18 0.113 0.256 0.0754 0.0704 0.163 0.105 0.264 0.105 0.0956 0 0.172-0.0295 0.232-0.0898 0.0604-0.0604 0.109-0.133 0.145-0.219 0.0402-0.0855 0.0845-0.17 0.135-0.256s0.137-0.158 0.258-0.219c0.126-0.0604 0.281-0.0918 0.467-0.0918 0.246 0 0.453 0.0665 0.619 0.197 0.166 0.131 0.248 0.291 0.248 0.482 0 0.0704-0.0239 0.15-0.0742 0.24-0.0453 0.0905-0.129 0.198-0.25 0.324-0.116 0.126-0.224 0.239-0.324 0.34-0.101 0.101-0.252 0.24-0.453 0.416-0.201 0.171-0.359 0.303-0.475 0.398-0.111 0.0956-0.292 0.244-0.543 0.445-0.246 0.201-0.418 0.343-0.514 0.424v0.791h3.43v-0.664c0-0.332-0.125-0.498-0.377-0.498-0.231 0-0.357 0.137-0.377 0.408h-1.52c0.749-0.644 1.26-1.1 1.54-1.37 0.277-0.272 0.46-0.488 0.551-0.648 0.0956-0.166 0.145-0.361 0.145-0.582 0-0.417-0.154-0.764-0.461-1.04-0.307-0.282-0.689-0.422-1.15-0.422-0.0143 0-0.0288-2.7e-4 -0.043 0zm9.34 0c-0.676 0.0189-1.26 0.331-1.75 0.936-0.387 0.488-0.58 1.06-0.58 1.73 0 0.206 0.0147 0.407 0.0449 0.604 0.0302 0.196 0.0856 0.397 0.166 0.604 0.0805 0.206 0.18 0.386 0.301 0.537 0.126 0.151 0.289 0.276 0.49 0.377 0.206 0.0956 0.442 0.143 0.703 0.143 0.483 0 0.859-0.14 1.13-0.422 0.272-0.287 0.406-0.66 0.406-1.12 0-0.427-0.14-0.792-0.422-1.09-0.277-0.302-0.612-0.453-1.01-0.453-0.191 0-0.368 0.0406-0.529 0.121-0.156 0.0805-0.323 0.217-0.504 0.408 0.0855-0.463 0.284-0.842 0.596-1.14 0.317-0.302 0.673-0.453 1.07-0.453 0.0453 0 0.124 0.0175 0.234 0.0527 0.116 0.0302 0.189 0.0449 0.219 0.0449 0.106 0 0.196-0.0378 0.271-0.113 0.0754-0.0754 0.113-0.166 0.113-0.271 0-0.146-0.0812-0.265-0.242-0.355-0.161-0.0905-0.374-0.135-0.641-0.135-0.022 0-0.0446-6.1e-4 -0.0664 0zm3.25 0c-0.372 0.01-0.707 0.0956-1 0.256-0.317 0.171-0.477 0.366-0.477 0.582 0 0.101 0.0351 0.188 0.105 0.264 0.0754 0.0754 0.165 0.113 0.266 0.113 0.0855 0 0.158-0.0231 0.219-0.0684 0.0654-0.0503 0.119-0.103 0.164-0.158 0.0453-0.0604 0.135-0.113 0.266-0.158 0.131-0.0503 0.294-0.0762 0.49-0.0762 0.262 0 0.466 0.0526 0.617 0.158 0.151 0.101 0.227 0.24 0.227 0.416 0 0.161-0.0673 0.301-0.203 0.422-0.136 0.116-0.296 0.174-0.482 0.174h-0.303c-0.116 0-0.21 0.0351-0.285 0.105-0.0704 0.0704-0.107 0.161-0.107 0.271 0 0.216 0.131 0.333 0.393 0.348 0.367 0.0201 0.652 0.0994 0.854 0.24 0.201 0.141 0.301 0.322 0.301 0.543 0 0.493-0.405 0.74-1.21 0.74-0.216 0-0.397-0.0139-0.543-0.0391-0.146-0.0302-0.243-0.0597-0.293-0.0898-0.0503-0.0352-0.103-0.0646-0.158-0.0898-0.0503-0.0302-0.102-0.0449-0.152-0.0449-0.106 0-0.196 0.0378-0.271 0.113-0.0704 0.0704-0.105 0.158-0.105 0.264 0 0.191 0.142 0.346 0.424 0.467 0.287 0.116 0.66 0.174 1.12 0.174 0.367 0 0.685-0.0442 0.951-0.135 0.272-0.0905 0.476-0.212 0.611-0.363 0.136-0.156 0.233-0.314 0.293-0.475 0.0603-0.161 0.0918-0.333 0.0918-0.514 0-0.483-0.285-0.862-0.854-1.14 0.246-0.146 0.422-0.294 0.527-0.445 0.106-0.156 0.16-0.337 0.16-0.543 0-0.372-0.146-0.684-0.438-0.936-0.287-0.251-0.66-0.377-1.12-0.377-0.0252 0-0.0494-6.7e-4 -0.0742 0zm-37.6 0.754c0.241 0 0.439 0.0637 0.59 0.189 0.151 0.121 0.225 0.278 0.225 0.475 0 0.191-0.0765 0.348-0.232 0.469-0.151 0.121-0.346 0.18-0.582 0.18-0.236 0-0.432-0.059-0.588-0.18-0.151-0.126-0.227-0.285-0.227-0.477 0-0.191 0.0757-0.346 0.227-0.467 0.151-0.126 0.347-0.189 0.588-0.189zm12.8 1.84c0.0101-4.7e-4 0.0212 0 0.0312 0 0.206 0 0.379 0.0765 0.52 0.232 0.141 0.151 0.211 0.335 0.211 0.551 0 0.246-0.0673 0.441-0.203 0.582-0.136 0.141-0.322 0.211-0.559 0.211-0.246 0-0.439-0.0729-0.58-0.219-0.141-0.151-0.24-0.39-0.295-0.717 0.101-0.186 0.237-0.34 0.408-0.461 0.16-0.113 0.315-0.173 0.467-0.18zm20.9 0c0.0101-4.7e-4 0.0212 0 0.0312 0 0.206 0 0.379 0.0765 0.52 0.232 0.141 0.151 0.211 0.335 0.211 0.551 0 0.246-0.0673 0.441-0.203 0.582-0.136 0.141-0.322 0.211-0.559 0.211-0.246 0-0.439-0.0729-0.58-0.219-0.141-0.151-0.24-0.39-0.295-0.717 0.101-0.186 0.237-0.34 0.408-0.461 0.16-0.113 0.315-0.173 0.467-0.18zm-33.7 0.232c0.246 0 0.456 0.0693 0.627 0.205 0.171 0.131 0.256 0.291 0.256 0.482 0 0.191-0.0821 0.349-0.248 0.475-0.166 0.121-0.378 0.182-0.635 0.182-0.256 0-0.467-0.0637-0.633-0.189-0.166-0.126-0.25-0.283-0.25-0.475 0-0.186 0.0868-0.344 0.258-0.475 0.176-0.136 0.384-0.205 0.625-0.205z" stop-color="#000000" stroke-width=".133"/>
  <path id="rabbit" d="m32.4 2.57s-10.9 7.26-10.3 17.9c-6.14-11.8-17-12.6-17-12.6s3.47 12.1 13.1 15.3c-1.72 0.0151-3.19 0.0385-3.72 0.0889-0.235 0.0226-0.432 0.186-0.429 0.422 0.0304 2.77 0.198 5.73 0.451 8.82 0.0193 0.235 0.19 0.409 0.425 0.427 4.15 0.319 8.35 0.361 12.6 0.062 0.235-0.0165 0.412-0.187 0.427-0.422l0.537-8.81c0.0143-0.235-0.197-0.409-0.431-0.442-0.934-0.129-1.74-0.184-2.48-0.188-0.169-7.41e-4 -0.347 1.81e-4 -0.53 1e-3 9.97-9.41 7.37-20.5 7.37-20.5zm-9.59 22.3c0.202-0.0025 0.365 0.16 0.367 0.362l0.0522 5.48c2e-3 0.202-0.158 0.365-0.36 0.367l-0.884 0.0098c-0.202 0.0024-0.368-0.161-0.37-0.363l-0.0522-5.47c-2e-3 -0.202 0.158-0.365 0.36-0.367zm-4.67 0.047c1.12-0.0112 2.04 1.34 2.06 3.03 0.0167 1.68-0.881 3.06-2 3.07-1.12 0.0112-2.04-1.34-2.06-3.03-0.0167-1.68 0.881-3.06 2-3.07zm-2.96 8.28c-0.228-0.0041-0.404 0.0051-0.478 0.0326-0.174 0.0647 0.39 3.84 0.585 4.04 0.195 0.199 1.53 0.306 1.64 0.166 0.111-0.14 0.404-3.93 0.343-3.99-0.259-0.111-1.41-0.242-2.09-0.254zm3.82 0.226c-0.591 0.0049-1.18 0.0345-1.3 0.104-0.227 0.14-0.0272 3.74 0.0057 3.98 0.184 0.132 1.47 0.198 1.74-0.0191 0.245-0.22 1.07-3.96 0.848-4.02-0.113-0.0307-0.704-0.0509-1.3-0.046z" stop-color="#000000" style="-inkscape-stroke:none;font-variation-settings:normal"/>
 </g>
</svg>