<?xml version="1.0" encoding="UTF-8" standalone="no"?>
<!-- Created with Inkscape (http://www.inkscape.org/) -->

<svg
   xmlns:dc="http://purl.org/dc/elements/1.1/"
   xmlns:cc="http://creativecommons.org/ns#"
   xmlns:rdf="http://www.w3.org/1999/02/22-rdf-syntax-ns#"
   xmlns:svg="http://www.w3.org/2000/svg"
   xmlns="http://www.w3.org/2000/svg"
   xmlns:sodipodi="http://sodipodi.sourceforge.net/DTD/sodipodi-0.dtd"
   xmlns:inkscape="http://www.inkscape.org/namespaces/inkscape"
   width="800"
   height="170"
   viewBox="0 0 800.00001 170"
   id="svg4322"
   version="1.1"
   inkscape:version="0.92.2 5c3e80d, 2017-08-06"
   sodipodi:docname="Banner_JH-Ulm.svg">
  <defs
     id="defs4324" />
  <sodipodi:namedview
     id="base"
     pagecolor="#ffffff"
     bordercolor="#666666"
     borderopacity="1.0"
     inkscape:pageopacity="0.0"
     inkscape:pageshadow="2"
     inkscape:zoom="5.6"
     inkscape:cx="368.88582"
     inkscape:cy="65.555088"
     inkscape:document-units="px"
     inkscape:current-layer="g91"
     showgrid="false"
     units="px"
     inkscape:window-width="1362"
     inkscape:window-height="729"
     inkscape:window-x="0"
     inkscape:window-y="18"
     inkscape:window-maximized="0" />
  <metadata
     id="metadata4327">
    <rdf:RDF>
      <cc:Work
         rdf:about="">
        <dc:format>image/svg+xml</dc:format>
        <dc:type
           rdf:resource="http://purl.org/dc/dcmitype/StillImage" />
        <dc:title />
      </cc:Work>
    </rdf:RDF>
  </metadata>
  <g
     inkscape:label="Ebene 1"
     inkscape:groupmode="layer"
     id="layer1"
     transform="translate(0,-882.36214)">
    <g
       transform="translate(297,610.36214)"
       id="g25">
      <g
         id="g27">
        <g
           id="g29">
          <path
             style="fill:#ea690b"
             inkscape:connector-curvature="0"
             d="m -292,290.2 0,13.1 0,13.9 0,13.9 0,13.9 0,13.9 0,13.9 0,13.9 0,14.7 13.9,0 0,13.9 13.9,0 0,13.7 27,0 13.9,0 13.9,0 13.9,0 13.9,0 14.7,0 0,-13.9 13.9,0 0,-13.9 13.9,0 0,-14.7 0,-13.9 0,-13.9 0,-13.9 0,-13.9 0,-13.9 0,-13.9 0,-13.1 -13.9,0 0,-13.9 -27.8,0 0,13.9 -13.9,0 0,13.9 -14.7,0 -13.9,0 -13.1,0 0,-13.9 -13.9,0 0,-13.9 -27.8,0 0,13.9 -13.9,0 z m 13.9,55.5 10.8,0 0,-13.9 100.3,0 0,13.9 13.9,0 0,13.1 0,13.9 0,14.7 -13.9,0 0,13.9 -13.9,0 0,13.9 -14.7,0 -13.9,0 -13.9,0 -13.9,0 -13.1,0 0,-13.9 -13.9,0 0,-13.9 -13.9,0 0,-14.7 0,-13.9 0,-13.1 z"
             id="path31" />
        </g>
      </g>
      <g
         id="g33">
        <path
           style="fill:#ffffff"
           inkscape:connector-curvature="0"
           d="m -279.4,346.2 0,13.3 0,13.9 0,13.9 16,0 0,14 13,0 0,15 14.8,0 13.9,0 13.9,0 13.9,0 13.6,0 0,-15 13,0 0,-14 13,0 0,-13.9 0,-13.9 0,-13.3 -13,0 0,-14 -12.7,0 -14,0 -13.9,0 -13.9,0 -13.9,0 -33.8,0 0,14 -9.9,0 z"
           id="path35" />
        <rect
           x="-180.39999"
           y="359.20001"
           width="13"
           height="15"
           id="rect37" />
        <rect
           x="-263.39999"
           y="359.20001"
           width="13"
           height="15"
           id="rect39" />
        <rect
           x="-209.39999"
           y="374.20001"
           width="14"
           height="13"
           id="rect41" />
        <rect
           x="-237.39999"
           y="387.20001"
           width="42"
           height="14"
           id="rect43" />
        <rect
           x="-237.39999"
           y="374.20001"
           width="15"
           height="13"
           id="rect45" />
      </g>
    </g>
    <g
       transform="translate(297,610.36214)"
       id="g91">
      <polygon
         style="fill:#ea690b"
         points="0.1,409.2 0.1,405 0.1,437 32.9,405 215.4,405 269.5,351.8 0.1,351.8 "
         id="polygon93" />
      <polygon
         style="fill:#00a5dd"
         points="29.7,352.3 500.1,352.3 500.1,333.2 500.1,275.9 0.1,275.9 0.1,333.2 0.1,352.3 0.1,381.9 "
         id="polygon95" />
      <path
         style="fill:#ffffff"
         inkscape:connector-curvature="0"
         d="m 468.1,298 4.7,0 0,-4.7 -4.7,0 0,4.7 z m -6.3,0 4.7,0 0,-4.7 -4.7,0 0,4.7 z m -6.3,0 4.7,0 0,-4.7 -4.7,0 0,4.7 z m -6.3,0 4.7,0 0,-4.7 -4.7,0 0,4.7 z m -6.2,0 4.7,0 0,-4.7 -4.7,0 0,4.7 z m -12.6,0 4.7,0 0,-4.7 -4.7,0 0,4.7 z m -25.2,0 4.7,0 0,-4.7 -4.7,0 0,4.7 z m -18.9,0 4.7,0 0,-4.7 -4.7,0 0,4.7 z m -6.3,0 4.7,0 0,-4.7 -4.7,0 0,4.7 z m -6.3,0 4.7,0 0,-4.7 -4.7,0 0,4.7 z m -31.5,0 4.7,0 0,-4.7 -4.7,0 0,4.7 z m -25.2,0 4.7,0 0,-4.7 -4.7,0 0,4.7 z m -25.2,0 4.7,0 0,-4.7 -4.7,0 0,4.7 z m -56.6,0 4.7,0 0,-4.7 -4.7,0 0,4.7 z m -6.3,0 4.7,0 0,-4.7 -4.7,0 0,4.7 z m -6.3,0 4.7,0 0,-4.7 -4.7,0 0,4.7 z m -6.3,0 4.7,0 0,-4.7 -4.7,0 0,4.7 z m -12.6,0 4.7,0 0,-4.7 -4.7,0 0,4.7 z m -25.2,0 4.7,0 0,-4.7 -4.7,0 0,4.7 z m -12.6,0 4.7,0 0,-4.7 -4.7,0 0,4.7 z m -6.3,0 4.7,0 0,-4.7 -4.7,0 0,4.7 z m -6.3,0 4.7,0 0,-4.7 -4.7,0 0,4.7 z m -6.3,0 4.7,0 0,-4.7 -4.7,0 0,4.7 z m -25.2,0 4.7,0 0,-4.7 -4.7,0 0,4.7 z m -6.3,0 4.7,0 0,-4.7 -4.7,0 0,4.7 z m -6.3,0 4.7,0 0,-4.7 -4.7,0 0,4.7 z m -18.8,0 4.7,0 0,-4.7 -4.7,0 0,4.7 z m -25.2,0 4.7,0 0,-4.7 -4.7,0 0,4.7 z m -18.9,0 4.7,0 0,-4.7 -4.7,0 0,4.7 z m -6.3,0 4.7,0 0,-4.7 -4.7,0 0,4.7 z m -6.3,0 4.7,0 0,-4.7 -4.7,0 0,4.7 z m -6.3,0 4.7,0 0,-4.7 -4.7,0 0,4.7 z m 321.1,1.6 4.7,0 0,-4.7 -4.7,0 0,4.7 z m -12.6,0 4.7,0 0,-4.7 -4.7,0 0,4.7 z m 56.7,1.5 4.7,0 0,-4.7 -4.7,0 0,4.7 z m -25.2,0 4.7,0 0,-4.7 -4.7,0 0,4.7 z m -125.9,0 4.7,0 0,-4.7 -4.7,0 0,4.7 z m -100.8,0 4.7,0 0,-4.7 -4.7,0 0,4.7 z m -12.6,0 4.7,0 0,-4.7 -4.7,0 0,4.7 z m -25.2,0 4.7,0 0,-4.7 -4.7,0 0,4.7 z m -50.3,0 4.7,0 0,-4.7 -4.7,0 0,4.7 z m 402.9,3.2 4.7,0 0,-4.7 -4.7,0 0,4.7 z m -31.4,0 4.7,0 0,-4.7 -4.7,0 0,4.7 z m -18.9,0 4.7,0 0,-4.7 -4.7,0 0,4.7 z m -50.4,0 4.7,0 0,-4.7 -4.7,0 0,4.7 z m -25.2,0 4.7,0 0,-4.7 -4.7,0 0,4.7 z m -12.6,0 4.7,0 0,-4.7 -4.7,0 0,4.7 z m -25.2,0 4.7,0 0,-4.7 -4.7,0 0,4.7 z m -75.5,0 4.7,0 0,-4.7 -4.7,0 0,4.7 z m -12.6,0 4.7,0 0,-4.7 -4.7,0 0,4.7 z m -25.2,0 4.7,0 0,-4.7 -4.7,0 0,4.7 z m -88.1,0 4.7,0 0,-4.7 -4.7,0 0,4.7 z m -25.2,0 4.7,0 0,-4.7 -4.7,0 0,4.7 z m -37.8,0 4.7,0 0,-4.7 -4.7,0 0,4.7 z m 340,3.2 4.7,0 0,-4.7 -4.7,0 0,4.7 z m -125.9,0 4.7,0 0,-4.7 -4.7,0 0,4.7 z m -100.8,0 4.7,0 0,-4.7 -4.7,0 0,4.7 z m -37.8,0 4.7,0 0,-4.7 -4.7,0 0,4.7 z m -50.3,0 4.7,0 0,-4.7 -4.7,0 0,4.7 z m 402.9,3.1 4.7,0 0,-4.7 -4.7,0 0,4.7 z m -37.7,0 4.7,0 0,-4.7 -4.7,0 0,4.7 z m -12.6,0 4.7,0 0,-4.7 -4.7,0 0,4.7 z m -50.4,0 4.7,0 0,-4.7 -4.7,0 0,4.7 z m -25.2,0 4.7,0 0,-4.7 -4.7,0 0,4.7 z m -12.6,0 4.7,0 0,-4.7 -4.7,0 0,4.7 z m -25.2,0 4.7,0 0,-4.7 -4.7,0 0,4.7 z m -75.5,0 4.7,0 0,-4.7 -4.7,0 0,4.7 z m -12.6,0 4.7,0 0,-4.7 -4.7,0 0,4.7 z m -18.9,0 4.7,0 0,-4.7 -4.7,0 0,4.7 z m -6.3,0 4.7,0 0,-4.7 -4.7,0 0,4.7 z m -88.1,0 4.7,0 0,-4.7 -4.7,0 0,4.7 z m -25.2,0 4.7,0 0,-4.7 -4.7,0 0,4.7 z m 302.2,3.2 4.7,0 0,-4.8 -4.7,0 0,4.8 z m -125.9,0 4.7,0 0,-4.8 -4.7,0 0,4.8 z m -100.8,0 4.7,0 0,-4.8 -4.7,0 0,4.8 z m -37.8,0 4.7,0 0,-4.8 -4.7,0 0,4.8 z m -50.3,0 4.7,0 0,-4.8 -4.7,0 0,4.8 z m 402.9,3.2 4.7,0 0,-4.7 -4.7,0 0,4.7 z m -44,0 4.7,0 0,-4.7 -4.7,0 0,4.7 z m -6.3,0 4.7,0 0,-4.7 -4.7,0 0,4.7 z m -50.4,0 4.7,0 0,-4.7 -4.7,0 0,4.7 z m -25.2,0 4.7,0 0,-4.7 -4.7,0 0,4.7 z m -12.6,0 4.7,0 0,-4.7 -4.7,0 0,4.7 z m -6.3,0 4.7,0 0,-4.7 -4.7,0 0,4.7 z m -6.3,0 4.7,0 0,-4.7 -4.7,0 0,4.7 z m -6.3,0 4.7,0 0,-4.7 -4.7,0 0,4.7 z m -6.3,0 4.7,0 0,-4.7 -4.7,0 0,4.7 z m -75.5,0 4.7,0 0,-4.7 -4.7,0 0,4.7 z m -12.6,0 4.7,0 0,-4.7 -4.7,0 0,4.7 z m -12.6,0 4.7,0 0,-4.7 -4.7,0 0,4.7 z m -12.6,0 4.7,0 0,-4.7 -4.7,0 0,4.7 z m -18.9,0 4.7,0 0,-4.7 -4.7,0 0,4.7 z m -6.3,0 4.7,0 0,-4.7 -4.7,0 0,4.7 z m -6.3,0 4.7,0 0,-4.7 -4.7,0 0,4.7 z m -56.6,0 4.7,0 0,-4.7 -4.7,0 0,4.7 z m -25.2,0 4.7,0 0,-4.7 -4.7,0 0,4.7 z m 302.2,3.1 4.7,0 0,-4.7 -4.7,0 0,4.7 z m -18.9,0 4.7,0 0,-4.7 -4.7,0 0,4.7 z m -6.3,0 4.7,0 0,-4.7 -4.7,0 0,4.7 z m -6.3,0 4.7,0 0,-4.7 -4.7,0 0,4.7 z m -94.4,0 4.7,0 0,-4.7 -4.7,0 0,4.7 z m -100.8,0 4.7,0 0,-4.7 -4.7,0 0,4.7 z m -12.6,0 4.7,0 0,-4.7 -4.7,0 0,4.7 z m -6.3,0 4.7,0 0,-4.7 -4.7,0 0,4.7 z m -6.3,0 4.7,0 0,-4.7 -4.7,0 0,4.7 z m -12.6,0 4.7,0 0,-4.7 -4.7,0 0,4.7 z m -50.3,0 4.7,0 0,-4.7 -4.7,0 0,4.7 z m 402.9,3.2 4.7,0 0,-4.7 -4.7,0 0,4.7 z m -37.7,0 4.7,0 0,-4.7 -4.7,0 0,4.7 z m -12.6,0 4.7,0 0,-4.7 -4.7,0 0,4.7 z m -50.4,0 4.7,0 0,-4.7 -4.7,0 0,4.7 z m -25.2,0 4.7,0 0,-4.7 -4.7,0 0,4.7 z m -12.6,0 4.7,0 0,-4.7 -4.7,0 0,4.7 z m -25.2,0 4.7,0 0,-4.7 -4.7,0 0,4.7 z m -75.5,0 4.7,0 0,-4.7 -4.7,0 0,4.7 z m -12.6,0 4.7,0 0,-4.7 -4.7,0 0,4.7 z m -6.3,0 4.7,0 0,-4.7 -4.7,0 0,4.7 z m -18.9,0 4.7,0 0,-4.7 -4.7,0 0,4.7 z m -88.1,0 4.7,0 0,-4.7 -4.7,0 0,4.7 z m -25.2,0 4.7,0 0,-4.7 -4.7,0 0,4.7 z m 302.2,3.1 4.7,0 0,-4.7 -4.7,0 0,4.7 z m -125.9,0 4.7,0 0,-4.7 -4.7,0 0,4.7 z m -100.8,0 4.7,0 0,-4.7 -4.7,0 0,4.7 z m -12.6,0 4.7,0 0,-4.7 -4.7,0 0,4.7 z m -25.2,0 4.7,0 0,-4.7 -4.7,0 0,4.7 z m -50.3,0 4.7,0 0,-4.7 -4.7,0 0,4.7 z m -25.2,0 4.7,0 0,-4.7 -4.7,0 0,4.7 z m 428.1,3.2 4.7,0 0,-4.7 -4.7,0 0,4.7 z m -31.4,0 4.7,0 0,-4.7 -4.7,0 0,4.7 z m -18.9,0 4.7,0 0,-4.7 -4.7,0 0,4.7 z m -50.4,0 4.7,0 0,-4.7 -4.7,0 0,4.7 z m -25.2,0 4.7,0 0,-4.7 -4.7,0 0,4.7 z m -12.6,0 4.7,0 0,-4.7 -4.7,0 0,4.7 z m -25.2,0 4.7,0 0,-4.7 -4.7,0 0,4.7 z m -75.5,0 4.7,0 0,-4.7 -4.7,0 0,4.7 z m -12.6,0 4.7,0 0,-4.7 -4.7,0 0,4.7 z m -25.2,0 4.7,0 0,-4.7 -4.7,0 0,4.7 z m -88.1,0 4.7,0 0,-4.7 -4.7,0 0,4.7 z m -25.2,0 4.7,0 0,-4.7 -4.7,0 0,4.7 z m 327.4,3.2 4.7,0 0,-4.8 -4.7,0 0,4.8 z m -25.2,0 4.7,0 0,-4.8 -4.7,0 0,4.8 z m -125.9,0 4.7,0 0,-4.8 -4.7,0 0,4.8 z m -100.8,0 4.7,0 0,-4.8 -4.7,0 0,4.8 z m -12.6,0 4.7,0 0,-4.8 -4.7,0 0,4.8 z m -25.2,0 4.7,0 0,-4.8 -4.7,0 0,4.8 z m -50.3,0 4.7,0 0,-4.8 -4.7,0 0,4.8 z m -25.2,0 4.7,0 0,-4.8 -4.7,0 0,4.8 z m 428.1,3.1 4.7,0 0,-4.7 -4.7,0 0,4.7 z m -25.1,0 4.7,0 0,-4.7 -4.7,0 0,4.7 z m -25.2,0 4.7,0 0,-4.7 -4.7,0 0,4.7 z m -18.9,0 4.7,0 0,-4.7 -4.7,0 0,4.7 z m -6.3,0 4.7,0 0,-4.7 -4.7,0 0,4.7 z m -6.3,0 4.7,0 0,-4.7 -4.7,0 0,4.7 z m -18.9,0 4.7,0 0,-4.7 -4.7,0 0,4.7 z m -25.2,0 4.7,0 0,-4.7 -4.7,0 0,4.7 z m -12.6,0 4.7,0 0,-4.7 -4.7,0 0,4.7 z m -25.2,0 4.7,0 0,-4.7 -4.7,0 0,4.7 z m -56.6,0 4.7,0 0,-4.7 -4.7,0 0,4.7 z m -6.3,0 4.7,0 0,-4.7 -4.7,0 0,4.7 z m -6.3,0 4.7,0 0,-4.7 -4.7,0 0,4.7 z m -6.3,0 4.7,0 0,-4.7 -4.7,0 0,4.7 z m -12.6,0 4.7,0 0,-4.7 -4.7,0 0,4.7 z m -25.2,0 4.7,0 0,-4.7 -4.7,0 0,4.7 z m -12.6,0 4.7,0 0,-4.7 -4.7,0 0,4.7 z m -6.3,0 4.7,0 0,-4.7 -4.7,0 0,4.7 z m -6.3,0 4.7,0 0,-4.7 -4.7,0 0,4.7 z m -6.3,0 4.7,0 0,-4.7 -4.7,0 0,4.7 z m -25.2,0 4.7,0 0,-4.7 -4.7,0 0,4.7 z m -6.3,0 4.7,0 0,-4.7 -4.7,0 0,4.7 z m -6.3,0 4.7,0 0,-4.7 -4.7,0 0,4.7 z m -25.1,0 4.7,0 0,-4.7 -4.7,0 0,4.7 z m -6.3,0 4.7,0 0,-4.7 -4.7,0 0,4.7 z m -6.3,0 4.7,0 0,-4.7 -4.7,0 0,4.7 z m -25.2,0 4.7,0 0,-4.7 -4.7,0 0,4.7 z m -6.3,0 4.7,0 0,-4.7 -4.7,0 0,4.7 z m -6.3,0 4.7,0 0,-4.7 -4.7,0 0,4.7 z"
         id="path97" />
      <g
         transform="matrix(0.96836532,0,0,0.96836532,-15.07542,254.39873)"
         aria-label="ULM"
         style="font-style:normal;font-variant:normal;font-weight:bold;font-stretch:normal;font-size:32px;line-height:125%;font-family:'Capri Pro';-inkscape-font-specification:'Capri Pro Bold';text-align:start;letter-spacing:0px;word-spacing:0px;writing-mode:lr-tb;text-anchor:start;fill:#000000;fill-opacity:1;stroke:none;stroke-width:1px;stroke-linecap:butt;stroke-linejoin:miter;stroke-opacity:1"
         id="text1550">
        <path
           inkscape:connector-curvature="0"
           d="m 59.110244,116.19171 h 5.338666 v 19.264 q 0,0.82133 0.373333,1.49333 0.373334,0.63467 0.933334,1.12 0.597333,0.448 1.306666,0.70933 0.709334,0.224 1.381334,0.224 0.746666,0 1.418666,-0.26133 0.709334,-0.26133 1.232,-0.70933 0.522667,-0.48534 0.821334,-1.08267 0.336,-0.63467 0.336,-1.344 v -19.41333 h 5.338666 v 20.01066 q 0,1.792 -0.784,3.28534 -0.746667,1.49333 -2.016,2.576 -1.269333,1.08266 -2.912,1.68 -1.642666,0.59733 -3.434666,0.59733 -1.792,0 -3.472,-0.59733 -1.68,-0.59734 -2.986667,-1.68 -1.306666,-1.08267 -2.090666,-2.576 -0.784,-1.49334 -0.784,-3.28534 z"
           style="font-style:normal;font-variant:normal;font-weight:bold;font-stretch:normal;font-size:37.33333206px;font-family:Ebisu;-inkscape-font-specification:'Ebisu Bold';fill:#ffffff"
           id="path1552" />
        <path
           inkscape:connector-curvature="0"
           d="m 96.533992,138.81571 v 5.33866 H 81.824659 v -28.03733 h 5.338667 v 22.25067 q 0,0.448 0.447999,0.448 z"
           style="font-style:normal;font-variant:normal;font-weight:bold;font-stretch:normal;font-size:37.33333206px;font-family:Ebisu;-inkscape-font-specification:'Ebisu Bold';fill:#ffffff"
           id="path1554" />
        <path
           inkscape:connector-curvature="0"
           d="m 121.77133,116.15437 h 7.13066 v 28 h -5.264 v -18.40533 q 0,-0.0373 -0.0373,0.0373 -0.0373,0.0747 -0.224,0.56 -0.18667,0.48534 -0.63467,1.60534 -0.41066,1.12 -1.19466,3.17333 -0.784,2.05333 -1.97867,5.22667 -1.19467,3.17333 -2.912,7.80266 h -4.06933 l -6.608,-18.55466 v 18.55466 h -5.488 v -28 h 7.01866 l 7.13067,19.56267 z"
           style="font-style:normal;font-variant:normal;font-weight:bold;font-stretch:normal;font-size:37.33333206px;font-family:Ebisu;-inkscape-font-specification:'Ebisu Bold';fill:#ffffff"
           id="path1556" />
      </g>
    </g>
  </g>
</svg>
