<?xml version="1.0" encoding="UTF-8" standalone="no"?>
<svg
   xmlns:dc="http://purl.org/dc/elements/1.1/"
   xmlns:cc="http://creativecommons.org/ns#"
   xmlns:rdf="http://www.w3.org/1999/02/22-rdf-syntax-ns#"
   xmlns:svg="http://www.w3.org/2000/svg"
   xmlns="http://www.w3.org/2000/svg"
   width="184.05621"
   height="15.81"
   viewBox="0 0 184.05621 15.810001"
   id="svg4152"
   version="1.1">
  <metadata
     id="metadata4160">
    <rdf:RDF>
      <cc:Work
         rdf:about="">
        <dc:format>image/svg+xml</dc:format>
        <dc:type
           rdf:resource="http://purl.org/dc/dcmitype/StillImage" />
        <dc:title></dc:title>
      </cc:Work>
    </rdf:RDF>
  </metadata>
  <defs
     id="defs4158" />
  <g
     id="text4162"
     style="font-style:normal;font-variant:normal;font-weight:normal;font-stretch:normal;font-size:40px;line-height:559.99999046%;font-family:'TeX Gyre Adventor';-inkscape-font-specification:'TeX Gyre Adventor, Normal';text-align:start;letter-spacing:0px;word-spacing:0px;writing-mode:lr-tb;text-anchor:start;fill:#000000;fill-opacity:1;stroke:none;stroke-width:1px;stroke-linecap:butt;stroke-linejoin:miter;stroke-opacity:1">
    <path
       id="path3336"
       style="font-style:normal;font-variant:normal;font-weight:800;font-stretch:normal;font-size:21.25px;font-family:'Avenir LT Std';-inkscape-font-specification:'Avenir LT Std Ultra-Bold';letter-spacing:0px;fill:#ffffff"
       d="m 3.91,9.0737498 0.74375,0 c 1.42375,0 2.975,0.0425 2.975,1.7425002 0,1.12625 -0.65875,1.93375 -2.04,1.93375 -1.36,0 -2.01875,-0.68 -2.23125,-1.7425 L 0,11.79375 c 0.61624999,2.69875 2.72,3.88875 5.3975,3.88875 2.95375,0 5.41875,-1.4875 5.41875,-4.505 0,-1.7425002 -1.02,-3.2725002 -2.82625,-3.5062502 l 0,-0.06375 c 1.6575,-0.34 2.57125,-1.63625 2.57125,-3.29375 0,-2.89 -2.40125,-4.18625003 -5.07875,-4.18625003 -2.55,0 -4.69625001,0.99875003 -5.35500001,3.61250003 l 3.50625001,0.7225 c 0.19125,-0.78625 0.87125,-1.4025 1.87,-1.4025 1.04125,0 1.87,0.65875 1.87,1.5725 0,1.42375 -1.25375,1.67875 -2.4225,1.67875 l -1.04125,0 0,2.7625 z" />
    <path
       id="path3338"
       style="font-style:normal;font-variant:normal;font-weight:800;font-stretch:normal;font-size:21.25px;font-family:'Avenir LT Std';-inkscape-font-specification:'Avenir LT Std Ultra-Bold';letter-spacing:0px;fill:#ffffff"
       d="m 16.485684,9.0737498 0.74375,0 c 1.42375,0 2.975,0.0425 2.975,1.7425002 0,1.12625 -0.65875,1.93375 -2.04,1.93375 -1.36,0 -2.01875,-0.68 -2.23125,-1.7425 l -3.3575,0.78625 c 0.61625,2.69875 2.72,3.88875 5.3975,3.88875 2.95375,0 5.41875,-1.4875 5.41875,-4.505 0,-1.7425002 -1.02,-3.2725002 -2.82625,-3.5062502 l 0,-0.06375 c 1.6575,-0.34 2.57125,-1.63625 2.57125,-3.29375 0,-2.89 -2.40125,-4.18625003 -5.07875,-4.18625003 -2.55,0 -4.69625,0.99875003 -5.355,3.61250003 l 3.50625,0.7225 c 0.19125,-0.78625 0.87125,-1.4025 1.87,-1.4025 1.04125,0 1.87,0.65875 1.87,1.5725 0,1.42375 -1.25375,1.67875 -2.4225,1.67875 l -1.04125,0 0,2.7625 z" />
    <path
       id="path3340"
       style="font-style:normal;font-variant:normal;font-weight:800;font-stretch:normal;font-size:21.25px;font-family:'Avenir LT Std';-inkscape-font-specification:'Avenir LT Std Ultra-Bold';letter-spacing:0px;fill:#ffffff"
       d="m 25.555117,2.2099998 c 1.275,-1.63625003 3.4,-2.21000002888184 5.07875,-2.21000002888184 4.69625,0 8.1175,3.08125002888184 8.1175,7.90500002888184 0,4.8237502 -3.42125,7.9050002 -8.1175,7.9050002 -2.06125,0 -4.18625,-0.82875 -5.44,-2.61375 l 2.7625,-2.06125 c 0.68,1.02 1.76375,1.615 3.1025,1.615 2.40125,0 4.25,-2.04 4.25,-4.8450002 0,-2.805 -1.84875,-4.845 -4.35625,-4.845 -1.2325,0 -2.18875,0.44625 -2.8475,1.2325 l -2.55,-2.0825 z" />
    <path
       id="path3342"
       style="font-style:normal;font-variant:normal;font-weight:800;font-stretch:normal;font-size:21.25px;font-family:'Avenir LT Std';-inkscape-font-specification:'Avenir LT Std Ultra-Bold';letter-spacing:0px;fill:#ffffff"
       d="m 43.629238,9.0737498 0.74375,0 c 1.42375,0 2.975,0.0425 2.975,1.7425002 0,1.12625 -0.65875,1.93375 -2.04,1.93375 -1.36,0 -2.01875,-0.68 -2.23125,-1.7425 l -3.3575,0.78625 c 0.61625,2.69875 2.72,3.88875 5.3975,3.88875 2.95375,0 5.41875,-1.4875 5.41875,-4.505 0,-1.7425002 -1.02,-3.2725002 -2.82625,-3.5062502 l 0,-0.06375 c 1.6575,-0.34 2.57125,-1.63625 2.57125,-3.29375 0,-2.89 -2.40125,-4.18625003 -5.07875,-4.18625003 -2.55,0 -4.69625,0.99875003 -5.355,3.61250003 l 3.50625,0.7225 c 0.19125,-0.78625 0.87125,-1.4025 1.87,-1.4025 1.04125,0 1.87,0.65875 1.87,1.5725 0,1.42375 -1.25375,1.67875 -2.4225,1.67875 l -1.04125,0 0,2.7625 z" />
    <path
       id="path3344"
       style="font-style:normal;font-variant:normal;font-weight:800;font-stretch:normal;font-size:21.25px;font-family:'Avenir LT Std';-inkscape-font-specification:'Avenir LT Std Ultra-Bold';letter-spacing:0px;fill:#ffffff"
       d="M 69.164766,1.5724998 C 67.889766,0.44624977 66.253516,-2.2888184e-7 64.553516,-2.2888184e-7 c -2.95375,0 -5.7375,1.67875002888184 -5.7375,4.88750002888184 0,5.015 7.055,3.5275 7.055,6.2900002 0,1.0625 -1.21125,1.5725 -2.295,1.5725 -1.105,0 -2.21,-0.53125 -2.89,-1.42375 l -2.35875,2.5925 c 1.42375,1.3175 3.12375,1.89125 5.0575,1.89125 3.1025,0 5.80125,-1.59375 5.80125,-4.95125 0,-5.2700002 -6.9275,-3.5062502 -6.9275,-6.2475002 0,-1.12625 1.29625,-1.55125 2.23125,-1.55125 0.8075,0 1.87,0.31875 2.40125,0.99875 l 2.27375,-2.48625 z" />
    <path
       id="path3346"
       style="font-style:normal;font-variant:normal;font-weight:800;font-stretch:normal;font-size:21.25px;font-family:'Avenir LT Std';-inkscape-font-specification:'Avenir LT Std Ultra-Bold';letter-spacing:0px;fill:#ffffff"
       d="m 74.566914,15.4275 3.315,0 0,-12.1125002 4.2925,0 0,-2.93250003 -11.9,0 0,2.93250003 4.2925,0 0,12.1125002 z" />
    <path
       id="path3348"
       style="font-style:normal;font-variant:normal;font-weight:800;font-stretch:normal;font-size:21.25px;font-family:'Avenir LT Std';-inkscape-font-specification:'Avenir LT Std Ultra-Bold';letter-spacing:0px;fill:#ffffff"
       d="m 95.927812,15.4275 -3.315,0 0,-6.0137502 -1.63625,0 -3.145,6.0137502 -3.97375,0 3.825,-6.3537502 c -2.125,-0.3825 -3.25125,-2.01875 -3.25125,-4.1225 0,-3.50625 2.5925,-4.56875003 5.67375,-4.56875003 l 5.8225,0 0,15.04500023 z m -3.315,-12.2400002 -2.1675,0 c -1.21125,0 -2.57125,0.23375 -2.57125,1.7425 0,1.63625 1.5725,1.67875 2.78375,1.67875 l 1.955,0 0,-3.42125 z" />
    <path
       id="path3350"
       style="font-style:normal;font-variant:normal;font-weight:800;font-stretch:normal;font-size:21.25px;font-family:'Avenir LT Std';-inkscape-font-specification:'Avenir LT Std Ultra-Bold';letter-spacing:0px;fill:#ffffff"
       d="m 108.36836,15.4275 -10.603751,0 0,-3.06 7.288751,0 0,-3.0600002 -6.523751,0 0,-3.06 6.523751,0 0,-2.805 -6.906251,0 0,-3.06000003 10.221251,0 0,15.04500023 z" />
    <path
       id="path3352"
       style="font-style:normal;font-variant:normal;font-weight:800;font-stretch:normal;font-size:21.25px;font-family:'Avenir LT Std';-inkscape-font-specification:'Avenir LT Std Ultra-Bold';letter-spacing:0px;fill:#ffffff"
       d="m 109.49162,15.4275 3.655,0 1.25375,-3.1875 5.84375,0 1.29625,3.1875 3.74,0 -6.545,-15.04500023 -2.74125,0 -6.5025,15.04500023 z m 9.62625,-5.9925002 -3.67625,0 1.8275,-4.675 1.84875,4.675 z" />
    <path
       id="path3354"
       style="font-style:normal;font-variant:normal;font-weight:800;font-stretch:normal;font-size:21.25px;font-family:'Avenir LT Std';-inkscape-font-specification:'Avenir LT Std Ultra-Bold';letter-spacing:0px;fill:#ffffff"
       d="m 126.77285,15.4275 3.315,0 0,-11.5387502 0.0425,0 3.80375,11.5387502 2.52875,0 3.9525,-11.5387502 0.0425,0 0,11.5387502 3.315,0 0,-15.04500023 -4.99375,0 -3.485,9.81750023 -0.0425,0 -3.46375,-9.81750023 -5.015,0 0,15.04500023 z" />
    <path
       id="path3356"
       style="font-style:normal;font-variant:normal;font-weight:800;font-stretch:normal;font-size:21.25px;font-family:'Avenir LT Std';-inkscape-font-specification:'Avenir LT Std Ultra-Bold';letter-spacing:0px;fill:#ffffff"
       d="m 146.77674,15.4275 3.315,0 0,-15.04500023 -3.315,0 0,15.04500023 z" />
    <path
       id="path3358"
       style="font-style:normal;font-variant:normal;font-weight:800;font-stretch:normal;font-size:21.25px;font-family:'Avenir LT Std';-inkscape-font-specification:'Avenir LT Std Ultra-Bold';letter-spacing:0px;fill:#ffffff"
       d="m 167.38658,15.4275 -3.315,0 0,-10.7100002 -0.0425,0 -6.56625,10.7100002 -4.335,0 0,-15.04500023 3.315,0 0,10.45500023 0.0425,0 6.39625,-10.45500023 4.505,0 0,15.04500023 z" />
    <path
       id="path3360"
       style="font-style:normal;font-variant:normal;font-weight:800;font-stretch:normal;font-size:21.25px;font-family:'Avenir LT Std';-inkscape-font-specification:'Avenir LT Std Ultra-Bold';letter-spacing:0px;fill:#ffffff"
       d="m 169.62746,6.5024998 5.88625,0 0,3.06 -2.69875,0 0,2.4437502 c 0.61625,0.34 1.67875,0.74375 3.12375,0.74375 2.82625,0 4.675,-2.04 4.675,-4.8450002 0,-2.805 -1.84875,-4.845 -4.675,-4.845 -1.67875,0 -2.7625,0.48875 -3.655,1.42375 l -2.3375,-2.55 c 1.50875,-1.40250003 3.6125,-1.93375002888184 5.9925,-1.93375002888184 4.69625,0 8.1175,3.08125002888184 8.1175,7.90500002888184 0,4.8237502 -3.42125,7.9050002 -8.1175,7.9050002 -2.21,0 -4.35625,-0.425 -6.31125,-1.445 l 0,-7.8625002 z" />
  </g>
</svg>
