<?xml version="1.0" encoding="UTF-8" standalone="no"?>
<svg
   xmlns:dc="http://purl.org/dc/elements/1.1/"
   xmlns:cc="http://creativecommons.org/ns#"
   xmlns:rdf="http://www.w3.org/1999/02/22-rdf-syntax-ns#"
   xmlns:svg="http://www.w3.org/2000/svg"
   xmlns="http://www.w3.org/2000/svg"
   width="102.01208"
   height="14.1825"
   viewBox="0 0 102.01208 14.1825"
   id="svg4152"
   version="1.1">
  <metadata
     id="metadata4160">
    <rdf:RDF>
      <cc:Work
         rdf:about="">
        <dc:format>image/svg+xml</dc:format>
        <dc:type
           rdf:resource="http://purl.org/dc/dcmitype/StillImage" />
        <dc:title></dc:title>
      </cc:Work>
    </rdf:RDF>
  </metadata>
  <defs
     id="defs4158" />
  <g
     id="text4162"
     style="font-style:normal;font-variant:normal;font-weight:normal;font-stretch:normal;font-size:40px;line-height:559.99999046%;font-family:'TeX Gyre Adventor';-inkscape-font-specification:'TeX Gyre Adventor, Normal';text-align:start;letter-spacing:0px;word-spacing:0px;writing-mode:lr-tb;text-anchor:start;fill:#000000;fill-opacity:1;stroke:none;stroke-width:1px;stroke-linecap:butt;stroke-linejoin:miter;stroke-opacity:1">
    <path
       id="path3336"
       style="font-style:normal;font-variant:normal;font-weight:800;font-stretch:normal;font-size:19.0625px;font-family:'Avenir LT Std';-inkscape-font-specification:'Avenir LT Std Ultra-Bold';letter-spacing:0px;fill:#ffffff"
       d="m -5.7220459e-8,13.839375 2.973749957220459,0 0,-5.2612505 5.6234375,0 0,-2.745 -5.6234375,0 0,-2.745 6.0809375,0 0,-2.74499996 -9.05468745722046,0 0,13.49625046 z" />
    <path
       id="path3338"
       style="font-style:normal;font-variant:normal;font-weight:800;font-stretch:normal;font-size:19.0625px;font-family:'Avenir LT Std';-inkscape-font-specification:'Avenir LT Std Ultra-Bold';letter-spacing:0px;fill:#ffffff"
       d="m 20.830547,13.839375 -9.512188,0 0,-2.745 6.538438,0 0,-2.7450005 -5.852188,0 0,-2.745 5.852188,0 0,-2.51625 -6.195313,0 0,-2.74499996 9.169063,0 0,13.49625046 z" />
    <path
       id="path3340"
       style="font-style:normal;font-variant:normal;font-weight:800;font-stretch:normal;font-size:19.0625px;font-family:'Avenir LT Std';-inkscape-font-specification:'Avenir LT Std Ultra-Bold';letter-spacing:0px;fill:#ffffff"
       d="m 23.344116,13.839375 9.512188,0 0,-2.745 -6.538438,0 0,-2.7450005 5.852188,0 0,-2.745 -5.852188,0 0,-2.51625 6.195313,0 0,-2.74499996 -9.169063,0 0,13.49625046 z" />
    <path
       id="path3342"
       style="font-style:normal;font-variant:normal;font-weight:800;font-stretch:normal;font-size:19.0625px;font-family:'Avenir LT Std';-inkscape-font-specification:'Avenir LT Std Ultra-Bold';letter-spacing:0px;fill:#ffffff"
       d="m 35.255498,13.839375 4.860937,0 c 4.022188,0 7.586875,-2.344688 7.586875,-6.7100005 0,-4.9371875 -3.640937,-6.78624996 -7.987187,-6.78624996 l -4.460625,0 0,13.49625046 z m 2.97375,-10.7512505 1.75375,0 c 2.51625,0 4.632187,1.2390625 4.632187,3.88875 0,3.0690625 -2.077812,4.1175005 -4.841875,4.1175005 l -1.544062,0 0,-8.0062505 z" />
    <path
       id="path3344"
       style="font-style:normal;font-variant:normal;font-weight:800;font-stretch:normal;font-size:19.0625px;font-family:'Avenir LT Std';-inkscape-font-specification:'Avenir LT Std Ultra-Bold';letter-spacing:0px;fill:#ffffff"
       d="m 60.33728,13.839375 -5.528125,0 c -2.401875,0 -5.070625,-0.934063 -5.070625,-3.755313 0,-1.75375 1.181875,-3.0690625 2.954687,-3.2978125 l 0,-0.038125 C 51.301655,6.309687 50.367592,5.280312 50.367592,3.7743745 c 0,-2.93562496 2.573438,-3.43124996 4.937188,-3.43124996 l 5.0325,0 0,13.49625046 z m -2.97375,-10.9800005 -2.020625,0 c -0.934063,0 -2.001563,0.2859375 -2.001563,1.410625 0,1.0865625 0.953125,1.4678125 1.868125,1.4678125 l 2.154063,0 0,-2.8784375 z m 0,5.3946875 -2.249375,0 c -0.972188,0 -2.401875,0.2096875 -2.401875,1.486875 0,1.181875 1.048437,1.582188 1.9825,1.582188 l 2.66875,0 0,-3.069063 z" />
    <path
       id="path3346"
       style="font-style:normal;font-variant:normal;font-weight:800;font-stretch:normal;font-size:19.0625px;font-family:'Avenir LT Std';-inkscape-font-specification:'Avenir LT Std Ultra-Bold';letter-spacing:0px;fill:#ffffff"
       d="m 60.707808,13.839375 3.27875,0 1.124687,-2.859375 5.242188,0 1.162812,2.859375 3.355,0 -5.87125,-13.49625046 -2.459062,0 -5.833125,13.49625046 z m 8.635312,-5.3756255 -3.297812,0 1.639375,-4.19375 1.658437,4.19375 z" />
    <path
       id="path3348"
       style="font-style:normal;font-variant:normal;font-weight:800;font-stretch:normal;font-size:19.0625px;font-family:'Avenir LT Std';-inkscape-font-specification:'Avenir LT Std Ultra-Bold';letter-spacing:0px;fill:#ffffff"
       d="M 87.323525,1.9824995 C 86.179775,0.51468704 84.273525,-4.5776367e-7 82.767588,-4.5776367e-7 78.554775,-4.5776367e-7 75.485713,2.764062 75.485713,7.0912495 c 0,4.3271875 3.069062,7.0912505 7.281875,7.0912505 1.849062,0 3.755312,-0.743438 4.88,-2.344688 L 85.169463,9.9887495 c -0.61,0.9150005 -1.582188,1.4487505 -2.783125,1.4487505 -2.154063,0 -3.8125,-1.8300005 -3.8125,-4.3462505 0,-2.51625 1.658437,-4.34625 3.907812,-4.34625 1.105625,0 1.963438,0.4003125 2.554375,1.105625 l 2.2875,-1.868125 z" />
    <path
       id="path3350"
       style="font-style:normal;font-variant:normal;font-weight:800;font-stretch:normal;font-size:19.0625px;font-family:'Avenir LT Std';-inkscape-font-specification:'Avenir LT Std Ultra-Bold';letter-spacing:0px;fill:#ffffff"
       d="m 102.01208,13.839375 -2.97375,0 0,-6.4050005 -5.49,6.4050005 -4.15563,0 6.51938,-7.224688 -6.00469,-6.27156246 3.888752,0 5.242188,5.60437496 0,-5.60437496 2.97375,0 0,13.49625046 z" />
  </g>
</svg>
