<svg width="48" height="15" viewBox="0 0 48 15" xmlns="http://www.w3.org/2000/svg"><path d="M329.95 21.278h2.96V7.833h-2.96v13.445zm8.66-4.1h-.04V7.833h-2.96v13.445h3.87l5.87-9.571h.04v9.571h2.96V7.833h-4.03l-5.71 9.345zm11.86-6.608h6.06v2.73h-5.6v2.734h5.6v5.241h2.96V7.833h-9.02V10.57zm25.66 3.988a7.321 7.321 0 0 0-.93-3.722 6.383 6.383 0 0 0-2.58-2.469 7.923 7.923 0 0 0-3.75-.873 7.826 7.826 0 0 0-3.74.874 6.313 6.313 0 0 0-2.59 2.488 7.38 7.38 0 0 0-.92 3.7 7.152 7.152 0 0 0 .93 3.7 6.346 6.346 0 0 0 2.58 2.488 8.465 8.465 0 0 0 7.49 0 6.31 6.31 0 0 0 2.59-2.488 7.379 7.379 0 0 0 .92-3.7v.002zm-3.08 0a4.7 4.7 0 0 1-.51 2.222 3.9 3.9 0 0 1-1.48 1.548 4.212 4.212 0 0 1-2.19.56 4.148 4.148 0 0 1-2.18-.57 3.827 3.827 0 0 1-1.47-1.529 4.641 4.641 0 0 1-.52-2.231 4.588 4.588 0 0 1 .53-2.241 3.69 3.69 0 0 1 1.47-1.538 4.59 4.59 0 0 1 4.36 0c.622.372 1.13.907 1.47 1.548.357.689.536 1.456.52 2.231z" fill="#fff" fill-rule="evenodd"/></svg>