<?xml version="1.0" encoding="UTF-8" standalone="no"?>
<svg
   xmlns:dc="http://purl.org/dc/elements/1.1/"
   xmlns:cc="http://creativecommons.org/ns#"
   xmlns:rdf="http://www.w3.org/1999/02/22-rdf-syntax-ns#"
   xmlns:svg="http://www.w3.org/2000/svg"
   xmlns="http://www.w3.org/2000/svg"
   width="46.38055"
   height="14.1825"
   viewBox="0 0 46.38055 14.1825"
   id="svg4152"
   version="1.1">
  <metadata
     id="metadata4160">
    <rdf:RDF>
      <cc:Work
         rdf:about="">
        <dc:format>image/svg+xml</dc:format>
        <dc:type
           rdf:resource="http://purl.org/dc/dcmitype/StillImage" />
        <dc:title></dc:title>
      </cc:Work>
    </rdf:RDF>
  </metadata>
  <defs
     id="defs4158" />
  <g
     id="text4162"
     style="font-style:normal;font-variant:normal;font-weight:normal;font-stretch:normal;font-size:40px;line-height:559.99999046%;font-family:'TeX Gyre Adventor';-inkscape-font-specification:'TeX Gyre Adventor, Normal';text-align:start;letter-spacing:0px;word-spacing:0px;writing-mode:lr-tb;text-anchor:start;fill:#000000;fill-opacity:1;stroke:none;stroke-width:1px;stroke-linecap:butt;stroke-linejoin:miter;stroke-opacity:1">
    <path
       id="path4136"
       style="font-style:normal;font-variant:normal;font-weight:800;font-stretch:normal;font-size:19.0625px;font-family:'Avenir LT Std';-inkscape-font-specification:'Avenir LT Std Ultra-Bold';letter-spacing:0px;fill:#ffffff"
       d="m -2.3841858e-8,13.839375 2.973750023841858,0 0,-13.49625046 -2.973750023841858,0 0,13.49625046 z" />
    <path
       id="path4138"
       style="font-style:normal;font-variant:normal;font-weight:800;font-stretch:normal;font-size:19.0625px;font-family:'Avenir LT Std';-inkscape-font-specification:'Avenir LT Std Ultra-Bold';letter-spacing:0px;fill:#ffffff"
       d="m 18.488237,13.839375 -2.97375,0 0,-9.6075005 -0.03813,0 -5.8903123,9.6075005 -3.88875,0 0,-13.49625046 2.97375,0 0,9.37874996 0.03813,0 5.7378123,-9.37874996 4.04125,0 0,13.49625046 z" />
    <path
       id="path4140"
       style="font-style:normal;font-variant:normal;font-weight:800;font-stretch:normal;font-size:19.0625px;font-family:'Avenir LT Std';-inkscape-font-specification:'Avenir LT Std Ultra-Bold';letter-spacing:0px;fill:#ffffff"
       d="m 30.39188,13.839375 -2.97375,0 0,-5.2612505 -5.623438,0 0,-2.745 5.623438,0 0,-2.745 -6.080938,0 0,-2.74499996 9.054688,0 0,13.49625046 z" />
    <path
       id="path4142"
       style="font-style:normal;font-variant:normal;font-weight:800;font-stretch:normal;font-size:19.0625px;font-family:'Avenir LT Std';-inkscape-font-specification:'Avenir LT Std Ultra-Bold';letter-spacing:0px;fill:#ffffff"
       d="m 31.816802,7.0912495 c 0,4.3271875 3.069062,7.0912505 7.281875,7.0912505 4.212812,0 7.281875,-2.764063 7.281875,-7.0912505 C 46.380552,2.764062 43.311489,-4.5776367e-7 39.098677,-4.5776367e-7 34.885864,-4.5776367e-7 31.816802,2.764062 31.816802,7.0912495 Z m 3.088125,0 c 0,-2.51625 1.658437,-4.34625 4.19375,-4.34625 2.535312,0 4.19375,1.83 4.19375,4.34625 0,2.51625 -1.658438,4.3462505 -4.19375,4.3462505 -2.535313,0 -4.19375,-1.8300005 -4.19375,-4.3462505 z" />
  </g>
</svg>
