<?xml version="1.0" encoding="UTF-8" standalone="no"?>
<svg
   xmlns:dc="http://purl.org/dc/elements/1.1/"
   xmlns:cc="http://creativecommons.org/ns#"
   xmlns:rdf="http://www.w3.org/1999/02/22-rdf-syntax-ns#"
   xmlns:svg="http://www.w3.org/2000/svg"
   xmlns="http://www.w3.org/2000/svg"
   version="1.1"
   id="svg2"
   viewBox="0 0 168.40594 22.32"
   height="22.32"
   width="168.40594">
  <metadata
     id="metadata12">
    <rdf:RDF>
      <cc:Work
         rdf:about="">
        <dc:format>image/svg+xml</dc:format>
        <dc:type
           rdf:resource="http://purl.org/dc/dcmitype/StillImage" />
        <dc:title>Live_Music</dc:title>
      </cc:Work>
    </rdf:RDF>
  </metadata>
  <defs
     id="defs10" />
  <title
     id="title4">Live_Music</title>
  <g
     id="text3340"
     style="font-style:normal;font-variant:normal;font-weight:normal;font-stretch:normal;font-size:40px;line-height:559.99999046%;font-family:'TeX Gyre Adventor';-inkscape-font-specification:'TeX Gyre Adventor, Normal';text-align:start;letter-spacing:0px;word-spacing:0px;writing-mode:lr-tb;text-anchor:start;fill:#000000;fill-opacity:1;stroke:none;stroke-width:1px;stroke-linecap:butt;stroke-linejoin:miter;stroke-opacity:1">
    <path
       id="path3376"
       style="font-style:normal;font-variant:normal;font-weight:800;font-stretch:normal;font-size:30px;font-family:'Avenir LT Std';-inkscape-font-specification:'Avenir LT Std Ultra-Bold';fill:#ffffff"
       d="M 8.5830688e-8,21.780001 13.35,21.780001 l 0,-4.32 -8.6699999,0 0,-16.92000031 -4.680000014169312,0 0,21.24000031 z" />
    <path
       id="path3378"
       style="font-style:normal;font-variant:normal;font-weight:800;font-stretch:normal;font-size:30px;font-family:'Avenir LT Std';-inkscape-font-specification:'Avenir LT Std Ultra-Bold';fill:#ffffff"
       d="m 15.873281,21.780001 4.68,0 0,-21.24000031 -4.68,0 0,21.24000031 z" />
    <path
       id="path3380"
       style="font-style:normal;font-variant:normal;font-weight:800;font-stretch:normal;font-size:30px;font-family:'Avenir LT Std';-inkscape-font-specification:'Avenir LT Std Ultra-Bold';fill:#ffffff"
       d="m 31.229531,21.780001 3.75,0 8.76,-21.24000031 -5.01,0 -5.34,13.92000031 -0.06,0 -5.25,-13.92000031 -5.34,0 8.49,21.24000031 z" />
    <path
       id="path3382"
       style="font-style:normal;font-variant:normal;font-weight:800;font-stretch:normal;font-size:30px;font-family:'Avenir LT Std';-inkscape-font-specification:'Avenir LT Std Ultra-Bold';fill:#ffffff"
       d="m 61.083281,21.780001 -14.97,0 0,-4.32 10.29,0 0,-4.32 -9.21,0 0,-4.3200003 9.21,0 0,-3.96 -9.75,0 0,-4.32000001 14.43,0 0,21.24000031 z" />
    <path
       id="path3384"
       style="font-style:normal;font-variant:normal;font-weight:800;font-stretch:normal;font-size:30px;font-family:'Avenir LT Std';-inkscape-font-specification:'Avenir LT Std Ultra-Bold';fill:#ffffff"
       d="m 73.765313,21.780001 4.68,0 0,-16.2900003 0.06,0 5.37,16.2900003 3.57,0 5.58,-16.2900003 0.06,0 0,16.2900003 4.68,0 0,-21.24000031 -7.05,0 -4.92,13.86000031 -0.06,0 -4.89,-13.86000031 -7.08,0 0,21.24000031 z" />
    <path
       id="path3386"
       style="font-style:normal;font-variant:normal;font-weight:800;font-stretch:normal;font-size:30px;font-family:'Avenir LT Std';-inkscape-font-specification:'Avenir LT Std Ultra-Bold';fill:#ffffff"
       d="m 119.97609,0.54000069 -4.68,0 0,12.87000031 c 0,2.61 -1.8,4.59 -4.26,4.59 -2.49,0 -4.29,-1.98 -4.29,-4.59 l 0,-12.87000031 -4.68,0 0,13.05000031 c 0,5.01 3.06,8.73 8.97,8.73 5.88,0 8.94,-3.72 8.94,-8.73 l 0,-13.05000031 z" />
    <path
       id="path3388"
       style="font-style:normal;font-variant:normal;font-weight:800;font-stretch:normal;font-size:30px;font-family:'Avenir LT Std';-inkscape-font-specification:'Avenir LT Std Ultra-Bold';fill:#ffffff"
       d="m 122.71313,2.2200007 c 1.8,-1.59000001 4.11,-2.22000001335449 6.51,-2.22000001335449 4.17,0 8.1,2.37000001335449 8.1,6.90000001335449 0,7.0800003 -9.96,4.9800003 -9.96,8.8800003 0,1.5 1.71,2.22 3.24,2.22 1.56,0 3.12,-0.75 4.08,-2.01 l 3.33,3.66 c -2.01,1.86 -4.41,2.67 -7.14,2.67 -4.38,0 -8.19,-2.25 -8.19,-6.99 0,-7.4400003 9.78,-4.95 9.78,-8.8200003 0,-1.59 -1.83,-2.19 -3.15,-2.19 -1.14,0 -2.64,0.45 -3.39,1.41 l -3.21,-3.51 z" />
    <path
       id="path3390"
       style="font-style:normal;font-variant:normal;font-weight:800;font-stretch:normal;font-size:30px;font-family:'Avenir LT Std';-inkscape-font-specification:'Avenir LT Std Ultra-Bold';fill:#ffffff"
       d="m 141.43969,21.780001 4.68,0 0,-21.24000031 -4.68,0 0,21.24000031 z" />
    <path
       id="path3392"
       style="font-style:normal;font-variant:normal;font-weight:800;font-stretch:normal;font-size:30px;font-family:'Avenir LT Std';-inkscape-font-specification:'Avenir LT Std Ultra-Bold';fill:#ffffff"
       d="m 149.77594,3.1200007 c 1.8,-2.31000001 4.8,-3.12000001335449 7.17,-3.12000001335449 6.63,0 11.46,4.35000001335449 11.46,11.16000031335449 0,6.81 -4.83,11.16 -11.46,11.16 -2.91,0 -5.91,-1.17 -7.68,-3.69 l 3.9,-2.91 c 0.96,1.44 2.49,2.28 4.38,2.28 3.39,0 6,-2.88 6,-6.84 0,-3.9600003 -2.61,-6.8400003 -6.15,-6.8400003 -1.74,0 -3.09,0.63 -4.02,1.74 l -3.6,-2.94 z" />
  </g>
</svg>
