<?xml version="1.0" encoding="UTF-8" standalone="no"?>
<svg
   xmlns:dc="http://purl.org/dc/elements/1.1/"
   xmlns:cc="http://creativecommons.org/ns#"
   xmlns:rdf="http://www.w3.org/1999/02/22-rdf-syntax-ns#"
   xmlns:svg="http://www.w3.org/2000/svg"
   xmlns="http://www.w3.org/2000/svg"
   version="1.1"
   id="svg2"
   viewBox="0 0 196.5525 22.32"
   height="22.32"
   width="196.55251">
  <metadata
     id="metadata12">
    <rdf:RDF>
      <cc:Work
         rdf:about="">
        <dc:format>image/svg+xml</dc:format>
        <dc:type
           rdf:resource="http://purl.org/dc/dcmitype/StillImage" />
        <dc:title>Live_Music</dc:title>
      </cc:Work>
    </rdf:RDF>
  </metadata>
  <defs
     id="defs10" />
  <title
     id="title4">Live_Music</title>
  <g
     id="text3340"
     style="font-style:normal;font-variant:normal;font-weight:normal;font-stretch:normal;font-size:40px;line-height:559.99999046%;font-family:'TeX Gyre Adventor';-inkscape-font-specification:'TeX Gyre Adventor, Normal';text-align:start;letter-spacing:0px;word-spacing:0px;writing-mode:lr-tb;text-anchor:start;fill:#ffffff;fill-opacity:1;stroke:none;stroke-width:1px;stroke-linecap:butt;stroke-linejoin:miter;stroke-opacity:1">
    <path
       id="path3336"
       style="font-style:normal;font-variant:normal;font-weight:800;font-stretch:normal;font-size:30px;font-family:'Avenir LT Std';-inkscape-font-specification:'Avenir LT Std Ultra-Bold';fill:#ffffff"
       d="m -8.5830688e-8,21.780001 4.679999985830689,0 0,-8.49 2.31,0 4.4400001,8.49 5.61,0 -5.4,-8.97 c 3,-0.54 4.59,-2.8500003 4.59,-5.8200003 0,-4.95 -3.66,-6.45000001 -8.0100001,-6.45000001 l -8.219999985830687,0 0,21.24000031 z M 4.6799999,4.5000007 l 3.06,0 c 1.71,0 3.6300001,0.33 3.6300001,2.46 0,2.31 -2.2200001,2.37 -3.9300001,2.37 l -2.76,0 0,-4.83 z" />
    <path
       id="path3338"
       style="font-style:normal;font-variant:normal;font-weight:800;font-stretch:normal;font-size:30px;font-family:'Avenir LT Std';-inkscape-font-specification:'Avenir LT Std Ultra-Bold';fill:#ffffff"
       d="m 34.603125,21.780001 -14.97,0 0,-4.32 10.29,0 0,-4.32 -9.21,0 0,-4.3200003 9.21,0 0,-3.96 -9.75,0 0,-4.32000001 14.43,0 0,21.24000031 z" />
    <path
       id="path3340"
       style="font-style:normal;font-variant:normal;font-weight:800;font-stretch:normal;font-size:30px;font-family:'Avenir LT Std';-inkscape-font-specification:'Avenir LT Std Ultra-Bold';fill:#ffffff"
       d="m 37.748906,3.1200007 c 1.8,-2.31000001 4.8,-3.12000001335449 7.17,-3.12000001335449 6.63,0 11.46,4.35000001335449 11.46,11.16000031335449 0,6.81 -4.83,11.16 -11.46,11.16 -2.91,0 -5.91,-1.17 -7.68,-3.69 l 3.9,-2.91 c 0.96,1.44 2.49,2.28 4.38,2.28 3.39,0 6,-2.88 6,-6.84 0,-3.9600003 -2.61,-6.8400003 -6.15,-6.8400003 -1.74,0 -3.09,0.63 -4.02,1.74 l -3.6,-2.94 z" />
    <path
       id="path3342"
       style="font-style:normal;font-variant:normal;font-weight:800;font-stretch:normal;font-size:30px;font-family:'Avenir LT Std';-inkscape-font-specification:'Avenir LT Std Ultra-Bold';fill:#ffffff"
       d="m 57.805312,11.160001 c 0,6.81 4.83,11.16 11.46,11.16 6.63,0 11.46,-4.35 11.46,-11.16 0,-6.8100003 -4.83,-11.16000031335449 -11.46,-11.16000031335449 -6.63,0 -11.46,4.35000001335449 -11.46,11.16000031335449 z m 4.86,0 c 0,-3.9600003 2.61,-6.8400003 6.6,-6.8400003 3.99,0 6.6,2.88 6.6,6.8400003 0,3.96 -2.61,6.84 -6.6,6.84 -3.99,0 -6.6,-2.88 -6.6,-6.84 z" />
    <path
       id="path3344"
       style="font-style:normal;font-variant:normal;font-weight:800;font-stretch:normal;font-size:30px;font-family:'Avenir LT Std';-inkscape-font-specification:'Avenir LT Std Ultra-Bold';fill:#ffffff"
       d="m 100.94625,21.780001 -4.68,0 0,-8.49 -2.31,0 -4.44,8.49 -5.61,0 5.4,-8.97 c -3,-0.54 -4.59,-2.8500003 -4.59,-5.8200003 0,-4.95 3.66,-6.45000001 8.01,-6.45000001 l 8.22,0 0,21.24000031 z m -4.68,-17.2800003 -3.06,0 c -1.71,0 -3.63,0.33 -3.63,2.46 0,2.31 2.22,2.37 3.93,2.37 l 2.76,0 0,-4.83 z" />
    <path
       id="path3346"
       style="font-style:normal;font-variant:normal;font-weight:800;font-stretch:normal;font-size:30px;font-family:'Avenir LT Std';-inkscape-font-specification:'Avenir LT Std Ultra-Bold';fill:#ffffff"
       d="m 103.35937,21.780001 7.65,0 c 6.33,0 11.94,-3.69 11.94,-10.56 0,-7.7700003 -5.73,-10.68000031 -12.57,-10.68000031 l -7.02,0 0,21.24000031 z m 4.68,-16.9200003 2.76,0 c 3.96,0 7.29,1.95 7.29,6.1200003 0,4.83 -3.27,6.48 -7.62,6.48 l -2.43,0 0,-12.6000003 z" />
    <path
       id="path3348"
       style="font-style:normal;font-variant:normal;font-weight:800;font-stretch:normal;font-size:30px;font-family:'Avenir LT Std';-inkscape-font-specification:'Avenir LT Std Ultra-Bold';fill:#ffffff"
       d="m 126.09234,21.780001 4.68,0 0,-21.24000031 -4.68,0 0,21.24000031 z" />
    <path
       id="path3350"
       style="font-style:normal;font-variant:normal;font-weight:800;font-stretch:normal;font-size:30px;font-family:'Avenir LT Std';-inkscape-font-specification:'Avenir LT Std Ultra-Bold';fill:#ffffff"
       d="m 155.18859,21.780001 -4.68,0 0,-15.1200003 -0.06,0 -9.27,15.1200003 -6.12,0 0,-21.24000031 4.68,0 0,14.76000031 0.06,0 9.03,-14.76000031 6.36,0 0,21.24000031 z" />
    <path
       id="path3352"
       style="font-style:normal;font-variant:normal;font-weight:800;font-stretch:normal;font-size:30px;font-family:'Avenir LT Std';-inkscape-font-specification:'Avenir LT Std Ultra-Bold';fill:#ffffff"
       d="m 158.35219,9.1800007 8.31,0 0,4.3200003 -3.81,0 0,3.45 c 0.87,0.48 2.37,1.05 4.41,1.05 3.99,0 6.6,-2.88 6.6,-6.84 0,-3.9600003 -2.61,-6.8400003 -6.6,-6.8400003 -2.37,0 -3.9,0.69 -5.16,2.01 l -3.3,-3.6 c 2.13,-1.98000001 5.1,-2.73000001335449 8.46,-2.73000001335449 6.63,0 11.46,4.35000001335449 11.46,11.16000031335449 0,6.81 -4.83,11.16 -11.46,11.16 -3.12,0 -6.15,-0.6 -8.91,-2.04 l 0,-11.1000003 z" />
    <path
       id="path3354"
       style="font-style:normal;font-variant:normal;font-weight:800;font-stretch:normal;font-size:30px;font-family:'Avenir LT Std';-inkscape-font-specification:'Avenir LT Std Ultra-Bold';fill:#ffffff"
       d="m 196.5225,2.2200007 c -1.8,-1.59000001 -4.11,-2.22000001335449 -6.51,-2.22000001335449 -4.17,0 -8.1,2.37000001335449 -8.1,6.90000001335449 0,7.0800003 9.96,4.9800003 9.96,8.8800003 0,1.5 -1.71,2.22 -3.24,2.22 -1.56,0 -3.12,-0.75 -4.08,-2.01 l -3.33,3.66 c 2.01,1.86 4.41,2.67 7.14,2.67 4.38,0 8.19,-2.25 8.19,-6.99 0,-7.4400003 -9.78,-4.95 -9.78,-8.8200003 0,-1.59 1.83,-2.19 3.15,-2.19 1.14,0 2.64,0.45 3.39,1.41 l 3.21,-3.51 z" />
  </g>
</svg>
