<svg width="93" height="15" viewBox="0 0 93 15" xmlns="http://www.w3.org/2000/svg"><title>Releases</title><path d="M.93 14.278h2.96V8.9h1.47l2.81 5.374h3.55L8.3 8.6a3.312 3.312 0 0 0 2.16-1.263 3.912 3.912 0 0 0 .75-2.421 4.272 4.272 0 0 0-.41-1.965 3.4 3.4 0 0 0-1.1-1.253 4.666 4.666 0 0 0-1.62-.665 9.119 9.119 0 0 0-1.94-.2H.93v13.445zM3.89 3.34h1.94c.274 0 .548.02.82.057.257.032.507.106.74.218.213.108.395.268.53.465.152.245.225.53.21.817.019.304-.066.605-.24.855-.156.2-.364.354-.6.446a2.645 2.645 0 0 1-.8.171c-.3.019-.58.029-.85.029H3.89V3.34zm9.46 10.938h9.48v-2.735h-6.52V8.809h5.83V6.074h-5.83V3.568h6.18V.833h-9.14v13.445zm11.96 0h8.45v-2.735h-5.48V.833h-2.97v13.445zm10.2 0h9.48v-2.735h-6.52V8.809h5.83V6.074h-5.83V3.568h6.18V.833h-9.14v13.445zm10.46 0h3.27l1.12-2.848h5.22l1.16 2.848h3.34L54.23.833h-2.44l-5.82 13.445zm8.61-5.355h-3.29l1.63-4.178 1.66 4.178zm15.53-7.026A5.088 5.088 0 0 0 68.19.815a7.529 7.529 0 0 0-2.2-.323 6.737 6.737 0 0 0-1.92.275 4.9 4.9 0 0 0-1.64.826 3.983 3.983 0 0 0-1.57 3.266 3.152 3.152 0 0 0 .47 1.8c.303.449.703.825 1.17 1.1.474.283.981.507 1.51.665.55.165 1.05.329 1.52.494.419.139.813.34 1.17.6.306.222.482.581.47.959.005.222-.057.441-.18.627-.124.181-.288.33-.48.437a2.483 2.483 0 0 1-.66.256c-.73.17-1.497.084-2.17-.247a3.142 3.142 0 0 1-1.15-.94l-2.1 2.317a6.065 6.065 0 0 0 2.08 1.291 7.221 7.221 0 0 0 2.43.4 7.3 7.3 0 0 0 1.99-.266 4.722 4.722 0 0 0 1.65-.816 3.925 3.925 0 0 0 1.13-1.386 4.3 4.3 0 0 0 .42-1.956 3.363 3.363 0 0 0-.46-1.88 3.424 3.424 0 0 0-1.15-1.12 5.971 5.971 0 0 0-1.49-.646c-.53-.152-1.03-.3-1.49-.456a4.445 4.445 0 0 1-1.15-.551 1.075 1.075 0 0 1-.45-.931c-.009-.23.058-.457.19-.646.126-.18.295-.326.49-.427.205-.108.423-.188.65-.237.217-.049.438-.074.66-.076.4.005.795.08 1.17.218.384.127.724.36.98.674l2.03-2.219zm2.34 12.381h9.47v-2.735h-6.51V8.809h5.83V6.074h-5.83V3.568h6.17V.833h-9.13v13.445zM92.97 1.9A5.088 5.088 0 0 0 91.05.818a7.48 7.48 0 0 0-2.2-.323 6.737 6.737 0 0 0-1.92.275 5 5 0 0 0-1.64.826c-.472.37-.86.836-1.14 1.367a4.1 4.1 0 0 0-.43 1.9 3.152 3.152 0 0 0 .47 1.8c.303.449.703.825 1.17 1.1.477.283.988.507 1.52.665.54.165 1.05.329 1.52.494.415.14.806.343 1.16.6.306.222.482.581.47.959.005.222-.057.441-.18.627-.124.181-.288.33-.48.437-.205.12-.428.206-.66.256a3.262 3.262 0 0 1-2.17-.247 3.031 3.031 0 0 1-1.14-.94l-2.11 2.317c.6.57 1.312 1.01 2.09 1.291.78.273 1.603.408 2.43.4a7.226 7.226 0 0 0 1.98-.266 4.722 4.722 0 0 0 1.65-.816 3.821 3.821 0 0 0 1.13-1.386 4.3 4.3 0 0 0 .42-1.956 3.45 3.45 0 0 0-.45-1.88 3.617 3.617 0 0 0-1.15-1.12 6.308 6.308 0 0 0-1.49-.646c-.54-.152-1.03-.3-1.49-.456a4.148 4.148 0 0 1-1.15-.551 1.179 1.179 0 0 1-.27-1.576 1.45 1.45 0 0 1 .49-.427 2.67 2.67 0 0 1 .65-.237 3.1 3.1 0 0 1 .67-.076 3.5 3.5 0 0 1 1.16.218c.384.127.724.36.98.674L92.97 1.9z" fill="#FFF" fill-rule="evenodd"/></svg>