<svg xmlns="http://www.w3.org/2000/svg" viewBox="0 0 595.28 595.28"><defs><style>.a{fill:#1a1a1b;}.b{fill:#979694;}.c{fill:#1d8097;}</style></defs><path class="a" d="M515.59,413.05a10.34,10.34,0,0,0-2.4-6.18,10.76,10.76,0,0,0-6.18-3c-44.52.2-89,.2-133.54.4a74.72,74.72,0,0,0-15.77-17.76c-31.54-25.75-84.83-25.55-116.37,0a80.53,80.53,0,0,0-16,17.56h0c-45.91,0-92,.2-137.93.2a9.07,9.07,0,0,0-7.78,9.78V521.24c0,.4-.8,8.38,5.59,13.38a15.42,15.42,0,0,0,12.17,2.59Q299.52,536,501.62,535a17.13,17.13,0,0,0,10.18-5.58,18,18,0,0,0,4-10C515.59,484.11,515.59,448.58,515.59,413.05Z"/><path class="b" d="M514.19,313.65c-1.19-6.79-4.39-9-10.58-8.58a29.7,29.7,0,0,1-15.17-3.6,24.48,24.48,0,0,1-4-2.79c-6-4.79-12-26.15-14.57-55.29-60.68.8-163.88.6-175.46.6,0,0-100.8,2.59-167.67,1a114.53,114.53,0,0,1-1.59,13c-5.59,34.13-6,37.92-10.38,41.12a37.14,37.14,0,0,1-13.58,5.79c-8.18,1.59-10.58,2-10.58,2-6.18.2-7.58,3.6-7.58,9-.4,25-1.8,49.91-1.8,74.86a72.45,72.45,0,0,0,.4,7.58c.4,3.2.8,6,1.2,7.79a9.93,9.93,0,0,1,4.39-1.8c45.91,0,92-.2,137.93-.2h0a81.06,81.06,0,0,1,16-17.56c31.74-25.55,85-25.75,116.37,0a74.72,74.72,0,0,1,15.77,17.76c44.51-.2,89-.2,133.54-.4a8.61,8.61,0,0,1,6.19,3c.19.4.59.59.79,1a49.64,49.64,0,0,0,1-5.78,40.58,40.58,0,0,0,.4-8.39s.4-21.56-.2-49.5C515,334.21,516,324,514.19,313.65Z"/><path class="c" d="M520.58,238.2c3.39-4,2.4-10,2-12-11.58-68.66-69.47-115-69.47-115-63.47-50.9-136.53-53.7-160.68-53.5-22.56.2-96,1.6-156.69,53.5,0,0-61.88,52.69-63.48,119.76a11.8,11.8,0,0,0,2.2,7.79c2.59,3,6.58,3.59,8,3.79,48.31,6,212,1.6,212,1.6,15.57,0,200.61.39,218-2C513.79,242,518,241.39,520.58,238.2Z"/></svg>