<?xml version="1.0" encoding="UTF-8" standalone="no"?>
<svg
   xmlns:dc="http://purl.org/dc/elements/1.1/"
   xmlns:cc="http://creativecommons.org/ns#"
   xmlns:rdf="http://www.w3.org/1999/02/22-rdf-syntax-ns#"
   xmlns:svg="http://www.w3.org/2000/svg"
   xmlns="http://www.w3.org/2000/svg"
   xmlns:sodipodi="http://sodipodi.sourceforge.net/DTD/sodipodi-0.dtd"
   xmlns:inkscape="http://www.inkscape.org/namespaces/inkscape"
   width="188.62067mm"
   height="188.62067mm"
   viewBox="0 0 188.62067 188.62067"
   version="1.1"
   id="svg8"
   inkscape:version="1.0.2 (e86c870879, 2021-01-15)"
   sodipodi:docname="pkl-einfach-quadrat-favicon-schwarz.svg">
  <defs
     id="defs2" />
  <sodipodi:namedview
     id="base"
     pagecolor="#3e3e3a"
     bordercolor="#666666"
     borderopacity="1.0"
     inkscape:pageopacity="0"
     inkscape:pageshadow="2"
     inkscape:zoom="1.231798"
     inkscape:cx="377.12164"
     inkscape:cy="358.87615"
     inkscape:document-units="mm"
     inkscape:current-layer="layer1"
     showgrid="false"
     inkscape:window-width="5120"
     inkscape:window-height="1407"
     inkscape:window-x="2900"
     inkscape:window-y="1200"
     inkscape:window-maximized="1"
     inkscape:document-rotation="0"
     fit-margin-top="0"
     fit-margin-left="0"
     fit-margin-right="0"
     fit-margin-bottom="0" />
  <metadata
     id="metadata5">
    <rdf:RDF>
      <cc:Work
         rdf:about="">
        <dc:format>image/svg+xml</dc:format>
        <dc:type
           rdf:resource="http://purl.org/dc/dcmitype/StillImage" />
        <dc:title></dc:title>
      </cc:Work>
    </rdf:RDF>
  </metadata>
  <g
     inkscape:label="Ebene 1"
     inkscape:groupmode="layer"
     id="layer1"
     transform="translate(-10.689224,-94.64577)">
    <path
       style="display:inline;fill:#000000;fill-opacity:1;fill-rule:nonzero;stroke:none;stroke-width:0.581995;stroke-linecap:butt;stroke-linejoin:round;stroke-miterlimit:4;stroke-dasharray:none;stroke-dashoffset:0;stroke-opacity:1;paint-order:markers stroke fill"
       d="m 149.53532,106.81665 c -23.98858,5e-5 -44.01161,16.97001 -48.72404,39.55964 -8.276067,-3.70023 -17.23532,-5.62625 -26.300869,-5.65405 -31.348227,0.0251 -58.201509,22.44566 -63.821187,53.28608 2.270938,-3.49056 4.434887,-5.99064 6.567835,-7.56631 3.06515,-2.10694 6.624365,-3.54389 10.17078,-2.37405 1.067722,0.35928 2.049407,0.76327 2.181065,0.89803 2.683775,2.74619 5.345984,4.48492 7.976915,5.20896 2.43072,0.66894 2.99926,0.70888 7.847911,0.55929 1.811172,-0.0558 3.729432,-0.0659 4.26269,-0.0217 0.533238,0.0439 1.677983,0.13879 2.544409,0.20974 5.296316,0.43203 11.209087,3.50837 17.250664,8.97833 19.182562,16.67628 8.970335,-8.82732 11.28149,-17.17777 0.229742,-0.89592 0.796314,-2.74661 1.261389,-4.11104 0.711189,-2.08656 0.764227,-2.71221 0.331847,-3.93973 -0.282819,-0.80269 -0.771109,-2.32758 -1.085121,-3.38926 l -0.570135,-1.92999 1.879759,-0.34858 c 1.041383,-0.19317 2.713031,-0.16158 3.753602,0.0729 1.76263,0.39678 1.928168,0.37434 2.707885,-0.37219 0.596283,-0.57083 3.26319,-1.64811 5.227672,-1.70056 16.382319,-0.43768 16.978309,-3.32641 23.688499,-3.06631 0.2709,0.3992 1.75609,1.63505 2.829,2.42135 4.6178,3.38418 5.93422,5.41195 4.3523,6.92624 -0.57523,0.55068 -0.26592,1.1954 -0.61642,1.91325 -0.52991,1.0852 -2.11386,1.51757 -3.34792,2.00876 -3.45484,-0.50405 -5.45745,0.35363 -8.82472,3.7792 -0.4763,0.48452 -1.01887,0.90957 -1.20624,0.94432 -0.18747,0.034 -1.13716,0.64687 -2.11016,1.36082 -2.17636,1.67615 -4.11598,2.85757 -6.16117,4.29618 -2.14809,1.51775 -2.75703,2.16687 -2.980618,3.17165 -0.154453,0.69481 -0.580834,1.87544 -0.945326,2.62221 1.708864,12.95599 5.633814,41.73496 -18.24122,39.35774 -3.394621,0.46459 -3.917079,0.86712 -4.164218,3.20911 -0.290564,2.75356 -0.593147,3.54131 -2.462695,6.40631 -1.401691,2.14794 -1.580861,2.66101 -1.212147,3.46608 0.237832,0.51979 0.885254,2.98027 1.43862,5.46795 0.553548,2.48764 1.297402,5.08075 1.653287,5.76136 0.355864,0.68061 0.970905,2.04849 1.366732,3.04169 1.438762,3.60995 2.291574,5.51123 4.507881,9.9837 32.777874,-3.72589 57.551034,-31.43983 57.592084,-64.42875 -0.003,-0.0578 -0.005,-0.11548 -0.01,-0.17332 3.73523,0.57419 7.23916,0.89409 10.10875,0.89412 27.49032,-9e-5 49.77563,-22.28537 49.77571,-49.7757 -5e-5,-27.49029 -22.28536,-49.77562 -49.77567,-49.77569 z m -5.13806,15.91544 c 1.96667,0.0274 3.6084,0.2991 6.15622,0.80351 8.54129,1.69099 16.45643,5.99522 22.56892,12.46508 0.38398,0.40643 0.7585,0.82037 1.12451,1.23971 -9.87565,6.19723 -18.14803,14.79113 -24.93215,23.65897 0.10039,0.0468 0.20442,0.0959 0.30524,0.14271 8.22563,-8.73062 17.34399,-16.44985 26.58249,-21.71618 6.78123,8.9794 10.18234,17.12048 9.41553,28.38249 -3.54699,0.63015 -12.43407,0.85646 -21.34889,0.46674 4.68416,2.49222 7.8487,4.57429 7.19014,5.45316 -1.90349,1.41731 -2.34655,1.51191 -6.38073,0.74836 -5.55317,-1.05105 -15.67999,-4.02039 -27.35842,-10.80983 -3.33273,-1.93756 -4.95254,-5.05183 -2.44299,-8.75975 -1.54482,-3.84731 -8.5702,-19.53236 -5.41378,-21.03674 0.50451,5.32606 4.14097,15.48039 5.8756,20.43116 0.0575,0.11869 0.37468,0.33507 0.8862,0.62626 -2.297,-9.55905 -3.4747,-23.54845 -0.64398,-24.40928 0.55087,9.81702 0.11263,17.95679 1.61881,24.93314 0.76829,0.3971 1.78771,0.89279 2.9255,1.43567 -1.84378,-11.19306 -1.32065,-22.52482 0.33676,-33.89573 1.00758,-0.0883 1.87437,-0.1404 2.66849,-0.15658 0.29782,-0.005 0.58557,-0.007 0.86653,-0.003 z m 2.18344,5.20412 c -0.18974,-0.0298 -0.37096,0.0883 -0.42206,0.27348 -3.83395,11.03518 -3.11063,23.17963 -0.28546,30.53877 -0.56197,-4.72851 -0.42678,-9.93774 0.27075,-15.10647 11.38438,1.51415 14.24858,-3.82077 17.7027,-8.49298 -3.01035,-2.36379 -6.02144,-3.90686 -9.01099,-4.97353 -2.98955,-1.06664 -5.33154,-1.78562 -8.25494,-2.23927 z m 2.27493,3.57522 c 4.29466,1.10624 7.68305,2.29252 10.76962,4.40343 -1.94246,3.52271 -6.43138,6.15215 -12.69757,7.41721 l -0.77409,0.22948 c 0.56256,-4.13347 1.48425,-8.23854 2.70204,-12.05012 z m 24.77827,16.41095 c -5.39126,0.20123 -13.07452,6.54487 -14.96369,13.17115 0.61673,0.77569 2.55035,2.98396 7.28906,3.61082 0.73922,0.21082 4.3285,-2.84462 5.43475,-5.90544 -2.42595,-2.69003 -5.83569,-3.66235 -5.93699,-3.77673 l -0.52022,0.0976 c 1.27957,0.54702 4.13939,2.60146 4.25601,3.84565 -2.19477,3.00526 -2.20512,3.0923 -3.30541,3.57722 -1.43364,-0.0373 -3.75021,-1.20195 -4.31118,-1.84932 1.45961,-6.12974 10.3027,-12.02086 14.20397,-12.4637 -0.65304,-0.23899 -1.37615,-0.3361 -2.1463,-0.30734 z m -121.620517,104.4579 -1.107767,0.30131 c -7.53523,2.03809 -12.849961,2.80448 -18.304253,2.54541 6.777724,5.72195 14.656055,9.99439 23.148873,12.55371 -0.812788,-3.92758 -1.715829,-7.91374 -2.29134,-10.04376 z m 11.821091,2.26673 c -0.808108,0.15019 -0.03451,7.8073 1.313595,15.1651 2.553924,0.37891 5.128175,0.60512 7.709055,0.67747 -0.798364,-1.66788 -1.777644,-3.2777 -2.526685,-4.05296 -0.379749,-0.39316 -4.32866,-7.73708 -5.452187,-10.14026 -0.435759,-0.93247 -0.905941,-1.67493 -1.043778,-1.64935 z"
       id="path825-3-6"
       inkscape:connector-curvature="0"
       sodipodi:nodetypes="cccccccccccccccccccccccccccccccccccccccccccccccccccccccscccccccccccccccccccccccccccccccccccccccccccccccc" />
  </g>
</svg>
