<?xml version="1.0" encoding="UTF-8" standalone="no"?>
<!-- Created with Inkscape (http://www.inkscape.org/) -->

<svg
   xmlns:dc="http://purl.org/dc/elements/1.1/"
   xmlns:cc="http://creativecommons.org/ns#"
   xmlns:rdf="http://www.w3.org/1999/02/22-rdf-syntax-ns#"
   xmlns:svg="http://www.w3.org/2000/svg"
   xmlns="http://www.w3.org/2000/svg"
   xmlns:sodipodi="http://sodipodi.sourceforge.net/DTD/sodipodi-0.dtd"
   xmlns:inkscape="http://www.inkscape.org/namespaces/inkscape"
   width="800"
   height="170"
   viewBox="0 0 800.00001 170"
   id="svg4295"
   version="1.1"
   inkscape:version="0.91 r13725"
   sodipodi:docname="Banner_JH-Ost-2016.svg">
  <defs
     id="defs4297" />
  <sodipodi:namedview
     id="base"
     pagecolor="#ffffff"
     bordercolor="#666666"
     borderopacity="1.0"
     inkscape:pageopacity="0.0"
     inkscape:pageshadow="2"
     inkscape:zoom="5.6"
     inkscape:cx="390.26437"
     inkscape:cy="85.870591"
     inkscape:document-units="px"
     inkscape:current-layer="text4153"
     showgrid="false"
     units="px"
     inkscape:window-width="1280"
     inkscape:window-height="861"
     inkscape:window-x="0"
     inkscape:window-y="18"
     inkscape:window-maximized="0" />
  <metadata
     id="metadata4300">
    <rdf:RDF>
      <cc:Work
         rdf:about="">
        <dc:format>image/svg+xml</dc:format>
        <dc:type
           rdf:resource="http://purl.org/dc/dcmitype/StillImage" />
        <dc:title />
      </cc:Work>
    </rdf:RDF>
  </metadata>
  <g
     inkscape:label="Ebene 1"
     inkscape:groupmode="layer"
     id="layer1"
     transform="translate(0,-882.36216)">
    <g
       transform="translate(297,886.16216)"
       id="g3">
      <g
         id="g5">
        <g
           id="g7">
          <path
             style="fill:#fbb03f;fill-opacity:1"
             inkscape:connector-curvature="0"
             d="m -292,14.2 0,13.1 0,13.9 0,13.9 0,13.9 0,13.9 0,13.9 0,13.9 0,14.7 13.9,0 0,13.9 13.9,0 0,13.7 27,0 13.9,0 13.9,0 13.9,0 13.9,0 14.7,0 0,-13.9 13.9,0 0,-13.9 13.9,0 0,-14.7 0,-13.8 0,-13.9 0,-13.9 0,-13.8 0,-13.9 0,-13.9 0,-13.1 -13.9,0 0,-13.9 -27.8,0 0,13.9 -13.9,0 0,13.9 -14.7,0 -13.9,0 -13.1,0 0,-13.9 -13.9,0 0,-13.9 -27.8,0 0,13.9 -13.9,0 z m 13.9,55.5 10.8,0 0,-13.9 100.3,0 0,13.9 13.9,0 0,13.1 0,13.9 0,14.7 -13.9,0 0,13.9 -13.9,0 0,13.9 -14.7,0 -13.9,0 -13.9,0 -13.9,0 -13.1,0 0,-13.9 -13.9,0 0,-13.9 -13.9,0 0,-14.7 0,-13.9 0,-13.1 z"
             id="path9" />
        </g>
      </g>
      <g
         id="g11">
        <path
           style="fill:#ffffff"
           inkscape:connector-curvature="0"
           d="m -279.4,70.2 0,13.3 0,13.9 0,13.9 16,0 0,14 13,0 0,15 14.8,0 13.9,0 13.9,0 13.9,0 13.6,0 0,-15 13,0 0,-14 13,0 0,-13.9 0,-13.9 0,-13.3 -13,0 0,-14 -12.7,0 -14,0 -13.9,0 -13.9,0 -13.9,0 -33.8,0 0,14 -9.9,0 z"
           id="path13" />
        <rect
           x="-180.39999"
           y="83.199997"
           width="13"
           height="15"
           id="rect15" />
        <rect
           x="-263.39999"
           y="83.199997"
           width="13"
           height="15"
           id="rect17" />
        <rect
           x="-209.39999"
           y="98.199997"
           width="14"
           height="13"
           id="rect19" />
        <rect
           x="-237.39999"
           y="111.2"
           width="42"
           height="14"
           id="rect21" />
        <rect
           x="-237.39999"
           y="98.199997"
           width="15"
           height="13"
           id="rect23" />
      </g>
    </g>
    <g
       transform="translate(297,886.16216)"
       id="g123">
      <polygon
         style="fill:#fbb03f;fill-opacity:1"
         points="0,161.2 32.8,129.1 215.3,129.1 269.3,76 0,76 0,133.4 0,129.1 "
         id="polygon125" />
      <polygon
         style="fill:#00a5dd"
         points="29.5,76.5 500.2,76.5 500.2,57.4 500.2,0 0,0 0,57.4 0,76.5 0,106.2 "
         id="polygon127" />
      <path
         style="fill:#ffffff"
         inkscape:connector-curvature="0"
         d="m 468.2,22.1 4.7,0 0,-4.8 -4.7,0 0,4.8 z m -6.3,0 4.7,0 0,-4.8 -4.7,0 0,4.8 z m -6.3,0 4.7,0 0,-4.8 -4.7,0 0,4.8 z m -6.3,0 4.7,0 0,-4.8 -4.7,0 0,4.8 z m -6.3,0 4.7,0 0,-4.8 -4.7,0 0,4.8 z m -12.6,0 4.7,0 0,-4.8 -4.7,0 0,4.8 z m -25.2,0 4.7,0 0,-4.8 -4.7,0 0,4.8 z m -18.9,0 4.7,0 0,-4.8 -4.7,0 0,4.8 z m -6.3,0 4.7,0 0,-4.8 -4.7,0 0,4.8 z m -6.3,0 4.7,0 0,-4.8 -4.7,0 0,4.8 z m -31.5,0 4.7,0 0,-4.8 -4.7,0 0,4.8 z m -25.2,0 4.7,0 0,-4.8 -4.7,0 0,4.8 z m -25.2,0 4.7,0 0,-4.8 -4.7,0 0,4.8 z m -56.6,0 4.7,0 0,-4.8 -4.7,0 0,4.8 z m -6.3,0 4.7,0 0,-4.8 -4.7,0 0,4.8 z m -6.4,0 4.7,0 0,-4.8 -4.7,0 0,4.8 z m -6.2,0 4.7,0 0,-4.8 -4.7,0 0,4.8 z m -12.6,0 4.7,0 0,-4.8 -4.7,0 0,4.8 z m -25.2,0 4.7,0 0,-4.8 -4.7,0 0,4.8 z m -12.6,0 4.7,0 0,-4.8 -4.7,0 0,4.8 z m -6.3,0 4.7,0 0,-4.8 -4.7,0 0,4.8 z m -6.3,0 4.7,0 0,-4.8 -4.7,0 0,4.8 z m -6.3,0 4.7,0 0,-4.8 -4.7,0 0,4.8 z m -25.2,0 4.7,0 0,-4.8 -4.7,0 0,4.8 z m -6.3,0 4.7,0 0,-4.8 -4.7,0 0,4.8 z m -6.3,0 4.7,0 0,-4.8 -4.7,0 0,4.8 z m -18.9,0 4.7,0 0,-4.8 -4.7,0 0,4.8 z m -25.2,0 4.7,0 0,-4.8 -4.7,0 0,4.8 z m -18.9,0 4.7,0 0,-4.8 -4.7,0 0,4.8 z m -6.3,0 4.7,0 0,-4.8 -4.7,0 0,4.8 z m -6.3,0 4.7,0 0,-4.8 -4.7,0 0,4.8 z m -6.3,0 4.7,0 0,-4.8 -4.7,0 0,4.8 z m 321.2,1.6 4.7,0 0,-4.8 -4.7,0 0,4.8 z m -12.6,0 4.7,0 0,-4.8 -4.7,0 0,4.8 z m 56.7,1.5 4.7,0 0,-4.8 -4.7,0 0,4.8 z m -25.2,0 4.7,0 0,-4.8 -4.7,0 0,4.8 z m -125.9,0 4.7,0 0,-4.8 -4.7,0 0,4.8 z m -100.8,0 4.7,0 0,-4.8 -4.7,0 0,4.8 z m -12.6,0 4.7,0 0,-4.8 -4.7,0 0,4.8 z m -25.2,0 4.7,0 0,-4.8 -4.7,0 0,4.8 z m -50.4,0 4.7,0 0,-4.8 -4.7,0 0,4.8 z m 403.1,3.2 4.7,0 0,-4.8 -4.7,0 0,4.8 z m -31.5,0 4.7,0 0,-4.8 -4.7,0 0,4.8 z m -18.9,0 4.7,0 0,-4.8 -4.7,0 0,4.8 z m -50.4,0 4.7,0 0,-4.8 -4.7,0 0,4.8 z m -25.2,0 4.7,0 0,-4.8 -4.7,0 0,4.8 z m -12.6,0 4.7,0 0,-4.8 -4.7,0 0,4.8 z m -25.2,0 4.7,0 0,-4.8 -4.7,0 0,4.8 z m -75.5,0 4.7,0 0,-4.8 -4.7,0 0,4.8 z m -12.6,0 4.7,0 0,-4.8 -4.7,0 0,4.8 z m -25.2,0 4.7,0 0,-4.8 -4.7,0 0,4.8 z m -88.2,0 4.7,0 0,-4.8 -4.7,0 0,4.8 z m -25.2,0 4.7,0 0,-4.8 -4.7,0 0,4.8 z m -37.8,0 4.7,0 0,-4.8 -4.7,0 0,4.8 z m 340.1,3.2 4.7,0 0,-4.8 -4.7,0 0,4.8 z m -125.9,0 4.7,0 0,-4.8 -4.7,0 0,4.8 z m -100.8,0 4.7,0 0,-4.8 -4.7,0 0,4.8 z m -37.8,0 4.7,0 0,-4.8 -4.7,0 0,4.8 z m -50.4,0 4.7,0 0,-4.8 -4.7,0 0,4.8 z m 403.1,3.1 4.7,0 0,-4.7 -4.7,0 0,4.7 z m -37.8,0 4.7,0 0,-4.7 -4.7,0 0,4.7 z m -12.6,0 4.7,0 0,-4.7 -4.7,0 0,4.7 z m -50.4,0 4.7,0 0,-4.7 -4.7,0 0,4.7 z m -25.2,0 4.7,0 0,-4.7 -4.7,0 0,4.7 z m -12.6,0 4.7,0 0,-4.7 -4.7,0 0,4.7 z m -25.2,0 4.7,0 0,-4.7 -4.7,0 0,4.7 z m -75.5,0 4.7,0 0,-4.7 -4.7,0 0,4.7 z m -12.6,0 4.7,0 0,-4.7 -4.7,0 0,4.7 z m -18.9,0 4.7,0 0,-4.7 -4.7,0 0,4.7 z m -6.3,0 4.7,0 0,-4.7 -4.7,0 0,4.7 z m -88.2,0 4.7,0 0,-4.7 -4.7,0 0,4.7 z m -25.2,0 4.7,0 0,-4.7 -4.7,0 0,4.7 z m 302.3,3.2 4.7,0 0,-4.8 -4.7,0 0,4.8 z m -125.9,0 4.7,0 0,-4.8 -4.7,0 0,4.8 z m -100.8,0 4.7,0 0,-4.8 -4.7,0 0,4.8 z m -37.8,0 4.7,0 0,-4.8 -4.7,0 0,4.8 z m -50.4,0 4.7,0 0,-4.8 -4.7,0 0,4.8 z m 403.1,3.2 4.7,0 0,-4.8 -4.7,0 0,4.8 z m -44.1,0 4.7,0 0,-4.8 -4.7,0 0,4.8 z m -6.3,0 4.7,0 0,-4.8 -4.7,0 0,4.8 z m -50.4,0 4.7,0 0,-4.8 -4.7,0 0,4.8 z m -25.2,0 4.7,0 0,-4.8 -4.7,0 0,4.8 z m -12.6,0 4.7,0 0,-4.8 -4.7,0 0,4.8 z m -6.3,0 4.7,0 0,-4.8 -4.7,0 0,4.8 z m -6.3,0 4.7,0 0,-4.8 -4.7,0 0,4.8 z m -6.3,0 4.7,0 0,-4.8 -4.7,0 0,4.8 z m -6.3,0 4.7,0 0,-4.8 -4.7,0 0,4.8 z m -75.5,0 4.7,0 0,-4.8 -4.7,0 0,4.8 z m -12.6,0 4.7,0 0,-4.8 -4.7,0 0,4.8 z m -12.6,0 4.7,0 0,-4.8 -4.7,0 0,4.8 z m -12.6,0 4.7,0 0,-4.8 -4.7,0 0,4.8 z m -18.9,0 4.7,0 0,-4.8 -4.7,0 0,4.8 z m -6.3,0 4.7,0 0,-4.8 -4.7,0 0,4.8 z m -6.3,0 4.7,0 0,-4.8 -4.7,0 0,4.8 z m -56.7,0 4.7,0 0,-4.8 -4.7,0 0,4.8 z m -25.2,0 4.7,0 0,-4.8 -4.7,0 0,4.8 z m 302.3,3.2 4.7,0 0,-4.8 -4.7,0 0,4.8 z m -18.9,0 4.7,0 0,-4.8 -4.7,0 0,4.8 z m -6.3,0 4.7,0 0,-4.8 -4.7,0 0,4.8 z m -6.3,0 4.7,0 0,-4.8 -4.7,0 0,4.8 z m -94.4,0 4.7,0 0,-4.8 -4.7,0 0,4.8 z m -100.8,0 4.7,0 0,-4.8 -4.7,0 0,4.8 z m -12.6,0 4.7,0 0,-4.8 -4.7,0 0,4.8 z m -6.3,0 4.7,0 0,-4.8 -4.7,0 0,4.8 z m -6.3,0 4.7,0 0,-4.8 -4.7,0 0,4.8 z m -12.6,0 4.7,0 0,-4.8 -4.7,0 0,4.8 z m -50.4,0 4.7,0 0,-4.8 -4.7,0 0,4.8 z m 403.1,3.1 4.7,0 0,-4.8 -4.7,0 0,4.8 z m -37.8,0 4.7,0 0,-4.8 -4.7,0 0,4.8 z m -12.6,0 4.7,0 0,-4.8 -4.7,0 0,4.8 z m -50.4,0 4.7,0 0,-4.8 -4.7,0 0,4.8 z m -25.2,0 4.7,0 0,-4.8 -4.7,0 0,4.8 z m -12.6,0 4.7,0 0,-4.8 -4.7,0 0,4.8 z m -25.2,0 4.7,0 0,-4.8 -4.7,0 0,4.8 z m -75.5,0 4.7,0 0,-4.8 -4.7,0 0,4.8 z m -12.6,0 4.7,0 0,-4.8 -4.7,0 0,4.8 z m -6.3,0 4.7,0 0,-4.8 -4.7,0 0,4.8 z m -18.9,0 4.7,0 0,-4.8 -4.7,0 0,4.8 z m -88.2,0 4.7,0 0,-4.8 -4.7,0 0,4.8 z m -25.2,0 4.7,0 0,-4.8 -4.7,0 0,4.8 z m 302.3,3.2 4.7,0 0,-4.8 -4.7,0 0,4.8 z m -125.9,0 4.7,0 0,-4.8 -4.7,0 0,4.8 z m -100.8,0 4.7,0 0,-4.8 -4.7,0 0,4.8 z m -12.6,0 4.7,0 0,-4.8 -4.7,0 0,4.8 z m -25.2,0 4.7,0 0,-4.8 -4.7,0 0,4.8 z m -50.4,0 4.7,0 0,-4.8 -4.7,0 0,4.8 z m -25.2,0 4.7,0 0,-4.8 -4.7,0 0,4.8 z m 428.3,3.2 4.7,0 0,-4.8 -4.7,0 0,4.8 z m -31.5,0 4.7,0 0,-4.8 -4.7,0 0,4.8 z m -18.9,0 4.7,0 0,-4.8 -4.7,0 0,4.8 z m -50.4,0 4.7,0 0,-4.8 -4.7,0 0,4.8 z m -25.2,0 4.7,0 0,-4.8 -4.7,0 0,4.8 z m -12.6,0 4.7,0 0,-4.8 -4.7,0 0,4.8 z m -25.2,0 4.7,0 0,-4.8 -4.7,0 0,4.8 z m -75.5,0 4.7,0 0,-4.8 -4.7,0 0,4.8 z m -12.6,0 4.7,0 0,-4.8 -4.7,0 0,4.8 z m -25.2,0 4.7,0 0,-4.8 -4.7,0 0,4.8 z m -88.2,0 4.7,0 0,-4.8 -4.7,0 0,4.8 z m -25.2,0 4.7,0 0,-4.8 -4.7,0 0,4.8 z m 327.5,3.1 4.7,0 0,-4.8 -4.7,0 0,4.8 z m -25.2,0 4.7,0 0,-4.8 -4.7,0 0,4.8 z m -125.9,0 4.7,0 0,-4.8 -4.7,0 0,4.8 z m -100.8,0 4.7,0 0,-4.8 -4.7,0 0,4.8 z m -12.6,0 4.7,0 0,-4.8 -4.7,0 0,4.8 z m -25.2,0 4.7,0 0,-4.8 -4.7,0 0,4.8 z m -50.4,0 4.7,0 0,-4.8 -4.7,0 0,4.8 z m -25.2,0 4.7,0 0,-4.8 -4.7,0 0,4.8 z m 428.3,3.2 4.7,0 0,-4.8 -4.7,0 0,4.8 z m -25.2,0 4.7,0 0,-4.8 -4.7,0 0,4.8 z m -25.2,0 4.7,0 0,-4.8 -4.7,0 0,4.8 z m -18.9,0 4.7,0 0,-4.8 -4.7,0 0,4.8 z m -6.3,0 4.7,0 0,-4.8 -4.7,0 0,4.8 z m -6.3,0 4.7,0 0,-4.8 -4.7,0 0,4.8 z m -18.9,0 4.7,0 0,-4.8 -4.7,0 0,4.8 z m -25.2,0 4.7,0 0,-4.8 -4.7,0 0,4.8 z m -12.6,0 4.7,0 0,-4.8 -4.7,0 0,4.8 z m -25.2,0 4.7,0 0,-4.8 -4.7,0 0,4.8 z m -56.6,0 4.7,0 0,-4.8 -4.7,0 0,4.8 z m -6.3,0 4.7,0 0,-4.8 -4.7,0 0,4.8 z m -6.4,0 4.7,0 0,-4.8 -4.7,0 0,4.8 z m -6.2,0 4.7,0 0,-4.8 -4.7,0 0,4.8 z m -12.6,0 4.7,0 0,-4.8 -4.7,0 0,4.8 z m -25.2,0 4.7,0 0,-4.8 -4.7,0 0,4.8 z m -12.6,0 4.7,0 0,-4.8 -4.7,0 0,4.8 z m -6.3,0 4.7,0 0,-4.8 -4.7,0 0,4.8 z m -6.3,0 4.7,0 0,-4.8 -4.7,0 0,4.8 z m -6.3,0 4.7,0 0,-4.8 -4.7,0 0,4.8 z m -25.2,0 4.7,0 0,-4.8 -4.7,0 0,4.8 z m -6.3,0 4.7,0 0,-4.8 -4.7,0 0,4.8 z m -6.3,0 4.7,0 0,-4.8 -4.7,0 0,4.8 z m -25.2,0 4.7,0 0,-4.8 -4.7,0 0,4.8 z m -6.3,0 4.7,0 0,-4.8 -4.7,0 0,4.8 z m -6.3,0 4.7,0 0,-4.8 -4.7,0 0,4.8 z m -25.2,0 4.7,0 0,-4.8 -4.7,0 0,4.8 z m -6.3,0 4.7,0 0,-4.8 -4.7,0 0,4.8 z m -6.3,0 4.7,0 0,-4.8 -4.7,0 0,4.8 z"
         id="path129" />
      <g
         style="font-style:normal;font-weight:normal;font-size:34.95647049px;line-height:125%;font-family:sans-serif;letter-spacing:0px;word-spacing:0px;fill:#000000;fill-opacity:1;stroke:none;stroke-width:1px;stroke-linecap:butt;stroke-linejoin:miter;stroke-opacity:1"
         id="text4153">
        <path
           d="m 42.710081,101.70308 q 0,-2.761558 1.048695,-5.208511 1.048694,-2.446953 2.86643,-4.264689 1.817737,-1.817736 4.229733,-2.866431 2.446953,-1.048694 5.243471,-1.048694 2.761561,0 5.208514,1.048694 2.446953,1.048695 4.264689,2.866431 1.817737,1.817736 2.866431,4.264689 1.048694,2.446953 1.048694,5.208511 0,2.79652 -1.048694,5.24347 -1.048694,2.412 -2.866431,4.22974 -1.817736,1.81773 -4.264689,2.86643 -2.446953,1.04869 -5.208514,1.04869 -2.796518,0 -5.243471,-1.04869 -2.411996,-1.0487 -4.229733,-2.86643 -1.817736,-1.81774 -2.86643,-4.22974 -1.048695,-2.44695 -1.048695,-5.24347 z m 4.998776,0 q 0,1.74783 0.664173,3.28591 0.664173,1.50313 1.78278,2.65669 1.153563,1.11861 2.656691,1.78278 1.538085,0.66418 3.285909,0.66418 1.747823,0 3.250951,-0.66418 1.538085,-0.66417 2.656692,-1.78278 1.153564,-1.15356 1.817737,-2.65669 0.664173,-1.53808 0.664173,-3.28591 0,-1.74782 -0.664173,-3.250948 -0.664173,-1.538085 -1.817737,-2.656692 -1.118607,-1.153564 -2.656692,-1.817736 -1.503128,-0.664173 -3.250951,-0.664173 -1.747824,0 -3.285909,0.664173 -1.503128,0.664172 -2.656691,1.817736 -1.118607,1.118607 -1.78278,2.656692 -0.664173,1.503128 -0.664173,3.250948 z"
           style="font-style:normal;font-variant:normal;font-weight:normal;font-stretch:normal;font-family:Ebisu;-inkscape-font-specification:Ebisu;fill:#ffffff;fill-opacity:1"
           id="path4158" />
        <path
           d="m 77.350305,107.85542 q 0.524347,0.87391 1.258433,1.57304 0.769042,0.69913 2.167301,0.69913 1.118607,0 1.852693,-0.804 0.734086,-0.80399 0.734086,-1.85269 0,-0.94382 -0.279652,-1.53808 -0.244695,-0.62922 -0.734086,-1.01374 -0.454434,-0.41948 -1.153563,-0.66417 -0.664173,-0.2447 -1.468172,-0.52435 -1.363303,-0.41948 -2.516866,-1.11861 -1.153564,-0.69913 -2.027475,-1.64295 -0.838956,-0.94383 -1.328346,-2.132347 -0.454434,-1.223477 -0.454434,-2.656692 0,-1.78278 0.524347,-3.215995 0.559303,-1.433215 1.538084,-2.446953 1.013738,-1.013738 2.411997,-1.573041 1.433215,-0.559304 3.181039,-0.559304 0.943824,0 1.957562,0.279652 1.013738,0.279652 1.887649,0.838955 0.908869,0.524347 1.607998,1.328346 0.699129,0.803999 1.048694,1.88765 l -4.509385,2.167301 q -0.419477,-0.908868 -1.118607,-1.18852 -0.664173,-0.279652 -1.18852,-0.279652 -0.978781,0 -1.67791,0.803999 -0.664173,0.769042 -0.664173,1.747823 0,0.769043 0.384521,1.29339 0.384521,0.524347 0.943825,0.908868 0.59426,0.384521 1.223476,0.664173 0.629217,0.244695 1.153564,0.454434 1.642954,0.699129 2.831474,1.468173 1.18852,0.76904 1.922606,1.71287 0.769042,0.94382 1.118607,2.1673 0.384521,1.22347 0.384521,2.83147 0,1.57304 -0.59426,2.9713 -0.559304,1.39826 -1.573041,2.44695 -0.978781,1.01374 -2.342084,1.608 -1.328346,0.59426 -2.86643,0.59426 l -0.314609,0 q -2.237214,0 -3.670429,-0.83895 -1.398259,-0.87392 -2.202258,-1.92261 -0.943824,-1.18852 -1.433215,-2.76156 l 3.985038,-1.71287 z"
           style="font-style:normal;font-variant:normal;font-weight:normal;font-stretch:normal;font-family:Ebisu;-inkscape-font-specification:Ebisu;fill:#ffffff;fill-opacity:1"
           id="path4160" />
        <path
           d="m 97.941852,93.977704 0,-0.209739 q 0,-0.03496 -0.03496,-0.06991 -0.104869,-0.10487 -0.139826,-0.10487 l -5.627991,0 0,-4.998775 16.674232,0 0,4.998775 -5.66294,0 -0.20974,0.174783 0,0.209739 0,20.834056 -4.998778,0 0,-20.834056 z"
           style="font-style:normal;font-variant:normal;font-weight:normal;font-stretch:normal;font-family:Ebisu;-inkscape-font-specification:Ebisu;fill:#ffffff;fill-opacity:1"
           id="path4162" />
      </g>
    </g>
  </g>
</svg>
