<?xml version="1.0" encoding="UTF-8"?>
<svg width="300px" height="236px" viewBox="0 0 300 236" version="1.1" xmlns="http://www.w3.org/2000/svg" xmlns:xlink="http://www.w3.org/1999/xlink">
    <title>spaceinvader</title>
    <defs>
        <path d="M0,0 L300,0 L300,235.7 L0,235.7 L0,0 Z" id="path-1"></path>
    </defs>
    <g id="spaceinvader" stroke="none" fill="none" transform="translate(-0, -0)" xlink:href="#path-1">
        <use fill="#FFFFFF" fill-rule="evenodd" xlink:href="#path-1"></use>
        <path d="M64.5781642,53.6328374 L38.5567837,58.2211089 L33.9685122,32.1997284 L59.9898927,27.6114569 L64.5781642,53.6328374 Z M194.685067,30.6914801 L220.706447,26.1032087 L216.118176,0.0818281668 L190.096795,4.67009963 L194.685067,30.6914801 Z M286.514023,94.9908073 L300.278837,173.054949 L274.257457,177.64322 L265.080914,125.600459 L239.059533,130.188731 L248.236076,182.231492 L222.214696,186.819763 L217.626424,160.798383 L87.5195215,183.73974 L92.107793,209.761121 L66.0864124,214.349392 L56.9098695,162.306631 L30.888489,166.894902 L40.0650319,218.937663 L14.0436514,223.525935 L0.278837048,145.461793 L26.3002176,140.873522 L21.7119461,114.852141 L47.7333266,110.26387 L43.1450552,84.2424894 L69.1664357,79.6542179 L64.5781642,53.6328374 L90.5995447,49.044566 L95.1878162,75.0659465 L173.251958,61.3011321 L168.663686,35.2797516 L194.685067,30.6914801 L199.273338,56.7128606 L225.294719,52.1245892 L229.88299,78.1459697 L255.904371,73.5576982 L260.492642,99.5790788 L286.514023,94.9908073 Z M177.840229,87.3225126 L182.428501,113.343893 L208.449881,108.755622 L203.86161,82.7342412 L177.840229,87.3225126 Z M78.3429786,131.696979 L104.364359,127.108708 L99.7760876,101.087327 L73.7547071,105.675598 L78.3429786,131.696979 Z M144.150554,200.584578 L92.107793,209.761121 L96.6960644,235.782501 L148.738825,226.605958 L144.150554,200.584578 Z M222.214696,186.819763 L170.171934,195.996306 L174.760206,222.017687 L226.802967,212.841144 L222.214696,186.819763 Z" id="Shape" fill="#CA9B34" fill-rule="nonzero"></path>
    </g>
</svg>