<svg version="1.1" xmlns="http://www.w3.org/2000/svg" xmlns:xlink="http://www.w3.org/1999/xlink" width="755.2" height="352.47742" viewBox="975.46667,418.26129,755.2,352.47742"><g fill="none" fill-rule="nonzero" stroke="none" stroke-width="1" stroke-linecap="butt" stroke-linejoin="miter" stroke-miterlimit="10" stroke-dasharray="" stroke-dashoffset="0" font-family="none" font-weight="none" font-size="none" text-anchor="none" style="mix-blend-mode: normal"><g id="Layer_1"><path d="M975.46667,594.37312v176.36559l50.24516,-50.24516h704.95484v-126.12043z" fill="#ea680c"/><path d="M1730.66667,594.37312v-176.11183l-50.24516,50.24516h-704.95484v125.86667z" fill="#00a6de"/><g fill="#ffffff"><rect x="400.6" y="217.52331" transform="scale(2.53763,2.53763)" width="2.8" height="2.8"/><rect x="400.6" y="213.72331" transform="scale(2.53763,2.53763)" width="2.8" height="2.8"/><rect x="400.6" y="200.52331" transform="scale(2.53763,2.53763)" width="2.8" height="2.8"/><rect x="400.6" y="196.72331" transform="scale(2.53763,2.53763)" width="2.8" height="2.8"/><rect x="404.4" y="219.32331" transform="scale(2.53763,2.53763)" width="2.8" height="2.8"/><rect x="404.4" y="196.72331" transform="scale(2.53763,2.53763)" width="2.8" height="2.8"/><rect x="408.1" y="219.32331" transform="scale(2.53763,2.53763)" width="2.8" height="2.8"/><rect x="408.1" y="196.72331" transform="scale(2.53763,2.53763)" width="2.8" height="2.8"/><rect x="411.9" y="219.32331" transform="scale(2.53763,2.53763)" width="2.8" height="2.8"/><rect x="411.9" y="196.72331" transform="scale(2.53763,2.53763)" width="2.8" height="2.8"/><rect x="415.6" y="217.52331" transform="scale(2.53763,2.53763)" width="2.8" height="2.8"/><rect x="415.6" y="213.72331" transform="scale(2.53763,2.53763)" width="2.8" height="2.8"/><rect x="415.6" y="209.92331" transform="scale(2.53763,2.53763)" width="2.8" height="2.8"/><rect x="415.6" y="206.12331" transform="scale(2.53763,2.53763)" width="2.8" height="2.8"/><rect x="415.6" y="202.42331" transform="scale(2.53763,2.53763)" width="2.8" height="2.8"/><rect x="415.6" y="198.62331" transform="scale(2.53763,2.53763)" width="2.8" height="2.8"/><rect x="423.1" y="215.62331" transform="scale(2.53763,2.53763)" width="2.8" height="2.8"/><rect x="423.1" y="211.82331" transform="scale(2.53763,2.53763)" width="2.8" height="2.8"/><rect x="423.1" y="208.02331" transform="scale(2.53763,2.53763)" width="2.8" height="2.8"/><rect x="423.1" y="204.32331" transform="scale(2.53763,2.53763)" width="2.8" height="2.8"/><rect x="423.1" y="200.52331" transform="scale(2.53763,2.53763)" width="2.8" height="2.8"/><rect x="423.1" y="196.72331" transform="scale(2.53763,2.53763)" width="2.8" height="2.8"/><rect x="426.9" y="219.32331" transform="scale(2.53763,2.53763)" width="2.8" height="2.8"/><rect x="430.6" y="219.32331" transform="scale(2.53763,2.53763)" width="2.8" height="2.8"/><rect x="434.4" y="219.32331" transform="scale(2.53763,2.53763)" width="2.8" height="2.8"/><rect x="438.1" y="215.62331" transform="scale(2.53763,2.53763)" width="2.8" height="2.8"/><rect x="438.1" y="211.82331" transform="scale(2.53763,2.53763)" width="2.8" height="2.8"/><rect x="438.1" y="208.02331" transform="scale(2.53763,2.53763)" width="2.8" height="2.8"/><rect x="438.1" y="204.32331" transform="scale(2.53763,2.53763)" width="2.8" height="2.8"/><rect x="438.1" y="200.52331" transform="scale(2.53763,2.53763)" width="2.8" height="2.8"/><rect x="438.1" y="196.72331" transform="scale(2.53763,2.53763)" width="2.8" height="2.8"/><rect x="445.6" y="217.52331" transform="scale(2.53763,2.53763)" width="2.8" height="2.8"/><rect x="445.6" y="213.72331" transform="scale(2.53763,2.53763)" width="2.8" height="2.8"/><rect x="445.6" y="209.92331" transform="scale(2.53763,2.53763)" width="2.8" height="2.8"/><rect x="445.6" y="206.12331" transform="scale(2.53763,2.53763)" width="2.8" height="2.8"/><rect x="445.6" y="202.42331" transform="scale(2.53763,2.53763)" width="2.8" height="2.8"/><rect x="445.6" y="198.62331" transform="scale(2.53763,2.53763)" width="2.8" height="2.8"/><rect x="449.4" y="219.32331" transform="scale(2.53763,2.53763)" width="2.8" height="2.8"/><rect x="449.4" y="196.72331" transform="scale(2.53763,2.53763)" width="2.8" height="2.8"/><rect x="453.1" y="219.32331" transform="scale(2.53763,2.53763)" width="2.8" height="2.8"/><rect x="453.1" y="209.92331" transform="scale(2.53763,2.53763)" width="2.8" height="2.8"/><rect x="453.1" y="196.72331" transform="scale(2.53763,2.53763)" width="2.8" height="2.8"/><rect x="456.9" y="219.32331" transform="scale(2.53763,2.53763)" width="2.8" height="2.8"/><rect x="456.9" y="209.92331" transform="scale(2.53763,2.53763)" width="2.8" height="2.8"/><rect x="456.9" y="196.72331" transform="scale(2.53763,2.53763)" width="2.8" height="2.8"/><rect x="460.6" y="217.52331" transform="scale(2.53763,2.53763)" width="2.8" height="2.8"/><rect x="460.6" y="213.72331" transform="scale(2.53763,2.53763)" width="2.8" height="2.8"/><rect x="460.6" y="209.92331" transform="scale(2.53763,2.53763)" width="2.8" height="2.8"/><rect x="460.6" y="198.62331" transform="scale(2.53763,2.53763)" width="2.8" height="2.8"/><rect x="468.1" y="217.52331" transform="scale(2.53763,2.53763)" width="2.8" height="2.8"/><rect x="468.1" y="213.72331" transform="scale(2.53763,2.53763)" width="2.8" height="2.8"/><rect x="468.1" y="209.92331" transform="scale(2.53763,2.53763)" width="2.8" height="2.8"/><rect x="468.1" y="206.12331" transform="scale(2.53763,2.53763)" width="2.8" height="2.8"/><rect x="468.1" y="202.42331" transform="scale(2.53763,2.53763)" width="2.8" height="2.8"/><rect x="468.1" y="198.62331" transform="scale(2.53763,2.53763)" width="2.8" height="2.8"/><rect x="471.8" y="219.32331" transform="scale(2.53763,2.53763)" width="2.8" height="2.8"/><rect x="471.8" y="208.02331" transform="scale(2.53763,2.53763)" width="2.8" height="2.8"/><rect x="471.8" y="196.72331" transform="scale(2.53763,2.53763)" width="2.8" height="2.8"/><rect x="475.6" y="219.32331" transform="scale(2.53763,2.53763)" width="2.8" height="2.8"/><rect x="475.6" y="208.02331" transform="scale(2.53763,2.53763)" width="2.8" height="2.8"/><rect x="475.6" y="196.72331" transform="scale(2.53763,2.53763)" width="2.8" height="2.8"/><rect x="479.3" y="219.32331" transform="scale(2.53763,2.53763)" width="2.8" height="2.8"/><rect x="479.3" y="208.02331" transform="scale(2.53763,2.53763)" width="2.8" height="2.8"/><rect x="479.3" y="196.72331" transform="scale(2.53763,2.53763)" width="2.8" height="2.8"/><rect x="483.1" y="219.32331" transform="scale(2.53763,2.53763)" width="2.8" height="2.8"/><rect x="483.1" y="196.72331" transform="scale(2.53763,2.53763)" width="2.8" height="2.8"/><rect x="490.6" y="219.32331" transform="scale(2.53763,2.53763)" width="2.8" height="2.8"/><rect x="490.6" y="215.62331" transform="scale(2.53763,2.53763)" width="2.8" height="2.8"/><rect x="490.6" y="211.82331" transform="scale(2.53763,2.53763)" width="2.8" height="2.8"/><rect x="490.6" y="208.02331" transform="scale(2.53763,2.53763)" width="2.8" height="2.8"/><rect x="490.6" y="204.32331" transform="scale(2.53763,2.53763)" width="2.8" height="2.8"/><rect x="490.6" y="200.52331" transform="scale(2.53763,2.53763)" width="2.8" height="2.8"/><rect x="490.6" y="196.72331" transform="scale(2.53763,2.53763)" width="2.8" height="2.8"/><rect x="494.3" y="204.32331" transform="scale(2.53763,2.53763)" width="2.8" height="2.8"/><rect x="498.1" y="208.02331" transform="scale(2.53763,2.53763)" width="2.8" height="2.8"/><rect x="501.8" y="211.82331" transform="scale(2.53763,2.53763)" width="2.8" height="2.8"/><rect x="505.6" y="219.32331" transform="scale(2.53763,2.53763)" width="2.8" height="2.8"/><rect x="505.6" y="215.62331" transform="scale(2.53763,2.53763)" width="2.8" height="2.8"/><rect x="505.6" y="211.82331" transform="scale(2.53763,2.53763)" width="2.8" height="2.8"/><rect x="505.6" y="208.02331" transform="scale(2.53763,2.53763)" width="2.8" height="2.8"/><rect x="505.6" y="204.32331" transform="scale(2.53763,2.53763)" width="2.8" height="2.8"/><rect x="505.6" y="200.52331" transform="scale(2.53763,2.53763)" width="2.8" height="2.8"/><rect x="505.6" y="196.72331" transform="scale(2.53763,2.53763)" width="2.8" height="2.8"/><rect x="513.1" y="219.32331" transform="scale(2.53763,2.53763)" width="2.8" height="2.8"/><rect x="513.1" y="215.62331" transform="scale(2.53763,2.53763)" width="2.8" height="2.8"/><rect x="513.1" y="211.82331" transform="scale(2.53763,2.53763)" width="2.8" height="2.8"/><rect x="513.1" y="208.02331" transform="scale(2.53763,2.53763)" width="2.8" height="2.8"/><rect x="513.1" y="204.32331" transform="scale(2.53763,2.53763)" width="2.8" height="2.8"/><rect x="513.1" y="200.52331" transform="scale(2.53763,2.53763)" width="2.8" height="2.8"/><rect x="513.1" y="196.72331" transform="scale(2.53763,2.53763)" width="2.8" height="2.8"/><rect x="516.8" y="219.32331" transform="scale(2.53763,2.53763)" width="2.8" height="2.8"/><rect x="516.8" y="196.72331" transform="scale(2.53763,2.53763)" width="2.8" height="2.8"/><rect x="520.6" y="219.32331" transform="scale(2.53763,2.53763)" width="2.8" height="2.8"/><rect x="520.6" y="196.72331" transform="scale(2.53763,2.53763)" width="2.8" height="2.8"/><rect x="524.3" y="219.32331" transform="scale(2.53763,2.53763)" width="2.8" height="2.8"/><rect x="524.3" y="196.72331" transform="scale(2.53763,2.53763)" width="2.8" height="2.8"/><rect x="528.1" y="217.52331" transform="scale(2.53763,2.53763)" width="2.8" height="2.8"/><rect x="528.1" y="213.72331" transform="scale(2.53763,2.53763)" width="2.8" height="2.8"/><rect x="528.1" y="209.92331" transform="scale(2.53763,2.53763)" width="2.8" height="2.8"/><rect x="528.1" y="206.12331" transform="scale(2.53763,2.53763)" width="2.8" height="2.8"/><rect x="528.1" y="202.42331" transform="scale(2.53763,2.53763)" width="2.8" height="2.8"/><rect x="528.1" y="198.62331" transform="scale(2.53763,2.53763)" width="2.8" height="2.8"/><rect x="558.1" y="219.32331" transform="scale(2.53763,2.53763)" width="2.8" height="2.8"/><rect x="558.1" y="215.62331" transform="scale(2.53763,2.53763)" width="2.8" height="2.8"/><rect x="558.1" y="211.82331" transform="scale(2.53763,2.53763)" width="2.8" height="2.8"/><rect x="558.1" y="208.02331" transform="scale(2.53763,2.53763)" width="2.8" height="2.8"/><rect x="558.1" y="204.32331" transform="scale(2.53763,2.53763)" width="2.8" height="2.8"/><rect x="558.1" y="200.52331" transform="scale(2.53763,2.53763)" width="2.8" height="2.8"/><rect x="558.1" y="196.72331" transform="scale(2.53763,2.53763)" width="2.8" height="2.8"/><rect x="561.8" y="208.02331" transform="scale(2.53763,2.53763)" width="2.8" height="2.8"/><rect x="565.5" y="208.02331" transform="scale(2.53763,2.53763)" width="2.8" height="2.8"/><rect x="569.3" y="208.02331" transform="scale(2.53763,2.53763)" width="2.8" height="2.8"/><rect x="573" y="219.32331" transform="scale(2.53763,2.53763)" width="2.8" height="2.8"/><rect x="573" y="215.62331" transform="scale(2.53763,2.53763)" width="2.8" height="2.8"/><rect x="573" y="211.82331" transform="scale(2.53763,2.53763)" width="2.8" height="2.8"/><rect x="573" y="208.02331" transform="scale(2.53763,2.53763)" width="2.8" height="2.8"/><rect x="573" y="204.32331" transform="scale(2.53763,2.53763)" width="2.8" height="2.8"/><rect x="573" y="200.52331" transform="scale(2.53763,2.53763)" width="2.8" height="2.8"/><rect x="573" y="196.72331" transform="scale(2.53763,2.53763)" width="2.8" height="2.8"/><rect x="580.5" y="219.32331" transform="scale(2.53763,2.53763)" width="2.8" height="2.8"/><rect x="580.5" y="215.62331" transform="scale(2.53763,2.53763)" width="2.8" height="2.8"/><rect x="580.5" y="211.82331" transform="scale(2.53763,2.53763)" width="2.8" height="2.8"/><rect x="580.5" y="208.02331" transform="scale(2.53763,2.53763)" width="2.8" height="2.8"/><rect x="580.5" y="204.32331" transform="scale(2.53763,2.53763)" width="2.8" height="2.8"/><rect x="580.5" y="200.52331" transform="scale(2.53763,2.53763)" width="2.8" height="2.8"/><rect x="584.3" y="209.92331" transform="scale(2.53763,2.53763)" width="2.8" height="2.8"/><rect x="584.3" y="197.72331" transform="scale(2.53763,2.53763)" width="2.8" height="2.8"/><rect x="588" y="209.92331" transform="scale(2.53763,2.53763)" width="2.8" height="2.8"/><rect x="588" y="196.72331" transform="scale(2.53763,2.53763)" width="2.8" height="2.8"/><rect x="591.8" y="209.92331" transform="scale(2.53763,2.53763)" width="2.8" height="2.8"/><rect x="591.8" y="197.72331" transform="scale(2.53763,2.53763)" width="2.8" height="2.8"/><rect x="595.5" y="219.32331" transform="scale(2.53763,2.53763)" width="2.8" height="2.8"/><rect x="595.5" y="215.62331" transform="scale(2.53763,2.53763)" width="2.8" height="2.8"/><rect x="595.5" y="211.82331" transform="scale(2.53763,2.53763)" width="2.8" height="2.8"/><rect x="595.5" y="208.02331" transform="scale(2.53763,2.53763)" width="2.8" height="2.8"/><rect x="595.5" y="204.32331" transform="scale(2.53763,2.53763)" width="2.8" height="2.8"/><rect x="595.5" y="200.52331" transform="scale(2.53763,2.53763)" width="2.8" height="2.8"/><rect x="603" y="217.52331" transform="scale(2.53763,2.53763)" width="2.8" height="2.8"/><rect x="603" y="213.72331" transform="scale(2.53763,2.53763)" width="2.8" height="2.8"/><rect x="603" y="209.92331" transform="scale(2.53763,2.53763)" width="2.8" height="2.8"/><rect x="603" y="206.12331" transform="scale(2.53763,2.53763)" width="2.8" height="2.8"/><rect x="603" y="202.42331" transform="scale(2.53763,2.53763)" width="2.8" height="2.8"/><rect x="603" y="198.62331" transform="scale(2.53763,2.53763)" width="2.8" height="2.8"/><rect x="606.8" y="219.32331" transform="scale(2.53763,2.53763)" width="2.8" height="2.8"/><rect x="606.8" y="196.72331" transform="scale(2.53763,2.53763)" width="2.8" height="2.8"/><rect x="610.5" y="219.32331" transform="scale(2.53763,2.53763)" width="2.8" height="2.8"/><rect x="610.5" y="196.72331" transform="scale(2.53763,2.53763)" width="2.8" height="2.8"/><rect x="614.3" y="219.32331" transform="scale(2.53763,2.53763)" width="2.8" height="2.8"/><rect x="614.3" y="196.72331" transform="scale(2.53763,2.53763)" width="2.8" height="2.8"/><rect x="618" y="217.52331" transform="scale(2.53763,2.53763)" width="2.8" height="2.8"/><rect x="618" y="198.62331" transform="scale(2.53763,2.53763)" width="2.8" height="2.8"/><rect x="625.5" y="219.32331" transform="scale(2.53763,2.53763)" width="2.8" height="2.8"/><rect x="625.5" y="215.62331" transform="scale(2.53763,2.53763)" width="2.8" height="2.8"/><rect x="625.5" y="211.82331" transform="scale(2.53763,2.53763)" width="2.8" height="2.8"/><rect x="625.5" y="208.02331" transform="scale(2.53763,2.53763)" width="2.8" height="2.8"/><rect x="625.5" y="204.32331" transform="scale(2.53763,2.53763)" width="2.8" height="2.8"/><rect x="625.5" y="200.52331" transform="scale(2.53763,2.53763)" width="2.8" height="2.8"/><rect x="625.5" y="196.72331" transform="scale(2.53763,2.53763)" width="2.8" height="2.8"/><rect x="629.3" y="208.02331" transform="scale(2.53763,2.53763)" width="2.8" height="2.8"/><rect x="633" y="211.82331" transform="scale(2.53763,2.53763)" width="2.8" height="2.8"/><rect x="633" y="204.32331" transform="scale(2.53763,2.53763)" width="2.8" height="2.8"/><rect x="636.8" y="215.62331" transform="scale(2.53763,2.53763)" width="2.8" height="2.8"/><rect x="636.8" y="200.52331" transform="scale(2.53763,2.53763)" width="2.8" height="2.8"/><rect x="640.5" y="219.32331" transform="scale(2.53763,2.53763)" width="2.8" height="2.8"/><rect x="640.5" y="196.72331" transform="scale(2.53763,2.53763)" width="2.8" height="2.8"/><rect x="648" y="196.72331" transform="scale(2.53763,2.53763)" width="2.8" height="2.8"/><rect x="651.8" y="196.72331" transform="scale(2.53763,2.53763)" width="2.8" height="2.8"/><rect x="655.5" y="219.32331" transform="scale(2.53763,2.53763)" width="2.8" height="2.8"/><rect x="655.5" y="215.62331" transform="scale(2.53763,2.53763)" width="2.8" height="2.8"/><rect x="655.5" y="211.82331" transform="scale(2.53763,2.53763)" width="2.8" height="2.8"/><rect x="655.5" y="208.02331" transform="scale(2.53763,2.53763)" width="2.8" height="2.8"/><rect x="655.5" y="204.32331" transform="scale(2.53763,2.53763)" width="2.8" height="2.8"/><rect x="655.5" y="200.52331" transform="scale(2.53763,2.53763)" width="2.8" height="2.8"/><rect x="655.5" y="196.72331" transform="scale(2.53763,2.53763)" width="2.8" height="2.8"/><rect x="659.2" y="196.72331" transform="scale(2.53763,2.53763)" width="2.8" height="2.8"/><rect x="663" y="196.72331" transform="scale(2.53763,2.53763)" width="2.8" height="2.8"/></g></g><g fill="#ffffff"><path d="M1023.56513,678.47624h-8.00384v-35.52688h12.79888c1.88895,0 3.66086,0.18163 5.31571,0.54489c1.65485,0.36326 3.09982,0.97273 4.33491,1.82841c1.23509,0.85568 2.21589,1.98986 2.94241,3.40254c0.72652,1.42075 1.08978,3.18458 1.08978,5.2915v0c0,2.61548 -0.57314,4.76679 -1.71943,6.45393c-1.14629,1.68714 -2.68006,2.95048 -4.6013,3.79002v0l8.06438,14.2156h-8.99675l-6.80508,-12.79888h-4.41967zM1023.56513,649.33063v9.96545h4.14117c2.10691,0 3.71333,-0.44399 4.81926,-1.33196c1.114,-0.88797 1.671,-2.20378 1.671,-3.94743v0c0,-1.74365 -0.557,-2.96259 -1.671,-3.65682c-1.10593,-0.68616 -2.71235,-1.02924 -4.81926,-1.02924v0z"/><path d="M1057.56511,678.47624h-8.01595v-35.52688h8.01595v13.68281h12.25399v-13.68281h8.06438v35.52688h-8.06438v-14.82103h-12.25399z"/><path d="M1109.64335,678.47624h-22.77644v-35.52688h22.23155v6.75665h-14.2156v7.14412h12.09658v6.6961h-12.09658v8.17336h14.76049z"/><path d="M1125.335,678.47624h-8.01595v-35.52688h8.01595z"/><path d="M1141.9469,678.47624h-7.62847v-35.52688h8.2218l9.26314,17.65446l3.4873,7.84643h0.21796c-0.17759,-1.88895 -0.38748,-3.99587 -0.62965,-6.32073c-0.2341,-2.32487 -0.35115,-4.54076 -0.35115,-6.64767v0v-12.53249h7.62847v35.52688h-8.2218l-9.26314,-17.7029l-3.4873,-7.73745h-0.21796c0.17759,1.96161 0.38344,4.06852 0.61754,6.32073c0.24217,2.25222 0.36326,4.43178 0.36326,6.53869v0z"/><path d="M1182.69141,667.52999h-13.40431v-5.66686h13.40431z"/><path d="M1197.45069,678.47624h-7.62847v-35.52688h8.23391l9.26314,17.65446l3.4873,7.84643h0.21796c-0.18567,-1.88895 -0.39555,-3.99587 -0.62965,-6.32073c-0.2341,-2.32487 -0.35115,-4.54076 -0.35115,-6.64767v0v-12.53249h7.62847v35.52688h-8.23391l-9.26314,-17.7029l-3.4873,-7.73745h-0.21796c0.18567,1.96161 0.39555,4.06852 0.62965,6.32073c0.2341,2.25222 0.35115,4.43178 0.35115,6.53869v0z"/><path d="M1249.43206,678.47624h-22.77644v-35.52688h22.23155v6.75665h-14.2277v7.14412h12.09658v6.6961h-12.09658v8.17336h14.7726z"/><path d="M1271.92879,679.13011v0c-2.25222,0 -4.37931,-0.39151 -6.38128,-1.17454c-1.9939,-0.77496 -3.74562,-1.92528 -5.25517,-3.45098c-1.50955,-1.52569 -2.70024,-3.42676 -3.57206,-5.70319c-0.87183,-2.26836 -1.30774,-4.89191 -1.30774,-7.87065v0c0,-2.93837 0.45609,-5.56192 1.36828,-7.87065c0.90412,-2.30872 2.11902,-4.26226 3.64471,-5.8606c1.52569,-1.59835 3.30567,-2.81325 5.33993,-3.64471c2.03426,-0.83954 4.1775,-1.2593 6.42971,-1.2593v0c2.29258,0 4.34702,0.46417 6.16332,1.3925c1.8163,0.92833 3.32182,2.01004 4.51654,3.24513v0l-4.25015,5.12197c-0.90412,-0.83954 -1.85667,-1.52166 -2.85765,-2.04637c-1.00098,-0.52471 -2.13516,-0.78706 -3.40254,-0.78706v0c-1.2028,0 -2.34101,0.26235 -3.41465,0.78706c-1.06556,0.52471 -1.98986,1.27948 -2.77289,2.26432c-0.78303,0.97677 -1.40057,2.17553 -1.85263,3.59628c-0.45206,1.41268 -0.67809,3.01103 -0.67809,4.79504v0c0,3.6649 0.77899,6.5064 2.33698,8.52451c1.56606,2.01811 3.65682,3.02717 6.2723,3.02717v0c1.45304,0 2.74867,-0.31886 3.88689,-0.95659c1.14629,-0.63772 2.15535,-1.42882 3.02717,-2.3733v0l4.25015,5.013c-2.97874,3.4873 -6.80912,5.23095 -11.49114,5.23095z"/><path d="M1297.41636,678.47624h-8.00384v-35.52688h8.00384v14.55464h0.21796l10.57088,-14.55464h8.82723l-10.72829,14.16716l12.6899,21.35972h-8.76669l-8.66982,-14.97844l-4.14117,5.44891z"/><path d="M1331.24682,660.49484v0l-0.87183,3.26934h7.58004l-0.82339,-3.26934c-0.50856,-1.77594 -0.99695,-3.6649 -1.46515,-5.66686c-0.47627,-1.9939 -0.94851,-3.91918 -1.41672,-5.77584v0h-0.21796c-0.43591,1.88895 -0.88393,3.82231 -1.34406,5.80006c-0.45206,1.98582 -0.93237,3.86671 -1.44093,5.64265zM1326.56076,678.47624h-8.17336l11.11577,-35.52688h9.65062l11.11577,35.52688h-8.5003l-2.17956,-8.43975h-10.84938z"/><path d="M1362.7403,678.47624h-8.01595v-35.52688h12.81099c1.88895,0 3.65682,0.18163 5.3036,0.54489c1.65485,0.36326 3.09982,0.97273 4.33491,1.82841c1.23509,0.85568 2.21589,1.98986 2.94241,3.40254c0.72652,1.42075 1.08978,3.18458 1.08978,5.2915v0c0,2.61548 -0.57314,4.76679 -1.71943,6.45393c-1.13822,1.68714 -2.67198,2.95048 -4.6013,3.79002v0l8.06438,14.2156h-8.98464l-6.81719,-12.79888h-4.40756zM1362.7403,649.33063v9.96545h4.14117c2.10691,0 3.71333,-0.44399 4.81926,-1.33196c1.10593,-0.88797 1.65889,-2.20378 1.65889,-3.94743v0c0,-1.74365 -0.55296,-2.96259 -1.65889,-3.65682c-1.10593,-0.68616 -2.71235,-1.02924 -4.81926,-1.02924v0z"/></g></g></svg>