<svg width="481" height="641" viewBox="0 0 481 641" fill="none" xmlns="http://www.w3.org/2000/svg">
<line y1="0.5" x2="481" y2="0.5" stroke="#29114C"/>
<line y1="40.5" x2="481" y2="40.5" stroke="#29114C"/>
<line y1="80.5" x2="481" y2="80.5" stroke="#29114C"/>
<line y1="120.5" x2="481" y2="120.5" stroke="#29114C"/>
<line y1="160.5" x2="481" y2="160.5" stroke="#29114C"/>
<line y1="200.5" x2="481" y2="200.5" stroke="#29114C"/>
<line y1="240.5" x2="481" y2="240.5" stroke="#29114C"/>
<line y1="280.5" x2="481" y2="280.5" stroke="#29114C"/>
<line y1="320.5" x2="481" y2="320.5" stroke="#29114C"/>
<line y1="360.5" x2="481" y2="360.5" stroke="#29114C"/>
<line y1="400.5" x2="481" y2="400.5" stroke="#29114C"/>
<line y1="440.5" x2="481" y2="440.5" stroke="#29114C"/>
<line y1="480.5" x2="481" y2="480.5" stroke="#29114C"/>
<line y1="520.5" x2="481" y2="520.5" stroke="#29114C"/>
<line y1="560.5" x2="481" y2="560.5" stroke="#29114C"/>
<line y1="600.5" x2="481" y2="600.5" stroke="#29114C"/>
<line y1="640.5" x2="481" y2="640.5" stroke="#29114C"/>
<line x1="0.5" y1="641" x2="0.500006" y2="-7.86099e-09" stroke="#29114C"/>
<line x1="40.5" y1="641" x2="40.5" y2="-7.86099e-09" stroke="#29114C"/>
<line x1="80.5" y1="641" x2="80.5" y2="-7.86099e-09" stroke="#29114C"/>
<line x1="120.5" y1="641" x2="120.5" y2="-7.86099e-09" stroke="#29114C"/>
<line x1="160.5" y1="641" x2="160.5" y2="-7.86099e-09" stroke="#29114C"/>
<line x1="200.5" y1="641" x2="200.5" y2="-7.86099e-09" stroke="#29114C"/>
<line x1="240.5" y1="641" x2="240.5" y2="-7.86099e-09" stroke="#29114C"/>
<line x1="280.5" y1="641" x2="280.5" y2="-7.86099e-09" stroke="#29114C"/>
<line x1="320.5" y1="641" x2="320.5" y2="-7.86099e-09" stroke="#29114C"/>
<line x1="360.5" y1="641" x2="360.5" y2="-7.86099e-09" stroke="#29114C"/>
<line x1="400.5" y1="641" x2="400.5" y2="-7.86099e-09" stroke="#29114C"/>
<line x1="440.5" y1="641" x2="440.5" y2="-7.86099e-09" stroke="#29114C"/>
<line x1="480.5" y1="641" x2="480.5" y2="-7.86099e-09" stroke="#29114C"/>
</svg>
