<svg width="914" height="240" viewBox="0 0 914 240" fill="none" xmlns="http://www.w3.org/2000/svg">
<path d="M167.29 123.402C196.134 111.569 221.152 125.768 221.152 152.689C221.152 206.529 156.988 237 81.639 237C28.954 237 11 224.871 11 206.234C11 196.767 16.004 187.892 38.078 189.963L167.584 201.5C184.655 202.979 192.308 194.992 192.308 186.709C192.308 178.13 185.538 172.213 167.584 169.847L62.214 156.83C39.844 154.168 32.192 140.56 32.192 126.36C32.192 115.414 36.312 101.51 62.214 93.227L177.003 56.545C190.836 52.107 193.191 46.191 193.191 38.795C192.896 29.328 184.067 27.849 176.708 29.92L73.987 60.39C53.089 66.603 13.649 80.211 11.294 40.274C9.823 16.608 28.954 7.437 53.384 7.437H162.58C193.779 7.437 209.379 21.933 209.379 41.457C209.379 52.403 201.726 63.349 188.481 72.815L100.771 134.051C88.998 142.335 94.884 153.28 108.424 147.66L167.29 123.402ZM249.862 52.995C249.862 33.47 268.11 3 333.158 3C420.868 3.591 450.89 22.228 450.89 52.699C450.89 69.857 444.709 75.478 423.517 85.24L374.658 107.723C370.832 109.498 369.066 111.864 369.949 115.414C370.538 118.077 372.892 120.443 379.368 120.739L403.503 121.627C437.351 122.81 453.539 139.672 453.539 179.905C453.539 217.179 414.982 236.704 359.353 236.704C293.423 236.112 238.972 226.054 238.972 175.467C238.972 146.772 248.685 126.952 282.827 124.289L315.203 121.627C321.973 121.035 324.328 117.781 324.328 113.935C324.328 110.089 321.384 106.835 316.675 105.652C267.522 93.227 249.862 79.323 249.862 52.995ZM369.36 134.643C353.172 123.402 343.753 122.514 326.682 134.643L268.11 176.651C259.575 182.863 260.458 194.105 273.114 194.105L425.872 193.217C437.645 193.217 439.117 183.455 430.287 177.242L369.36 134.643ZM331.392 95.298C337.573 108.906 350.523 108.906 362.002 100.623L401.148 72.815C409.978 66.603 410.861 58.911 399.971 53.586L328.154 18.679C309.905 9.804 295.483 17.791 303.136 34.062L331.392 95.298ZM569.018 3C624.94 3 676.448 40.866 676.448 66.899C676.448 88.494 648.193 104.173 625.235 77.252L581.968 26.37C555.184 -4.988 503.676 43.824 544.883 65.715L561.071 74.294C585.795 87.606 577.259 113.639 556.361 119.556L503.382 134.347C491.02 137.897 491.609 148.547 503.088 155.647L598.156 213.629C611.696 221.912 619.054 213.038 616.699 199.725L611.696 171.622C608.752 154.759 608.752 129.022 633.476 126.36C663.498 123.106 672.328 142.335 672.328 163.043C672.328 201.5 639.068 236.704 582.557 236.704C514.861 236.704 467.474 186.117 467.474 115.71C467.474 52.403 499.556 3 569.018 3ZM848.138 123.402C876.982 111.569 902 125.768 902 152.689C902 206.529 837.836 237 762.487 237C709.802 237 691.848 224.871 691.848 206.234C691.848 196.767 696.851 187.892 718.926 189.963L848.432 201.5C865.503 202.979 873.156 194.992 873.156 186.709C873.156 178.13 866.386 172.213 848.432 169.847L743.061 156.83C720.692 154.168 713.04 140.56 713.04 126.36C713.04 115.414 717.16 101.51 743.061 93.227L857.85 56.545C871.684 52.107 874.039 46.191 874.039 38.795C873.744 29.328 864.914 27.849 857.556 29.92L754.835 60.39C733.937 66.603 694.497 80.211 692.142 40.274C690.67 16.608 709.802 7.437 734.231 7.437H843.428C874.627 7.437 890.227 21.933 890.227 41.457C890.227 52.403 882.574 63.349 869.329 72.815L781.619 134.051C769.845 142.335 775.732 153.28 789.271 147.66L848.138 123.402Z" fill="#FF5053" stroke="#FF5053" stroke-width="4.5" stroke-miterlimit="2" stroke-linejoin="round"/>
</svg>
