<svg width="1100" height="1000" viewBox="0 0 1100 1000" fill="none" xmlns="http://www.w3.org/2000/svg">
<path d="M949.812 301.836L950.709 298.706L951.418 297.481L952.308 296.326L953.358 295.271L954.545 294.338L956.837 292.749L959.339 291.224L962.009 290.006L964.795 289.116L967.635 288.576L968.32 288.491L970.755 288.3L973.156 288.348L975.492 288.638L977.731 289.164L979.162 289.584L981.315 290.318L983.36 291.222L985.276 292.294L987.054 293.521L988.45 294.587L989.987 295.843L991.426 297.184L992.76 298.611L993.988 300.113L995.582 302.204L996.565 303.547L997.499 304.918L998.382 306.321L999.215 307.753L1001.29 311.47L1001.83 312.454L1002.36 313.443L1002.88 314.44L1003.39 315.441L1006.56 321.735L1006.67 321.97L1006.79 322.206L1006.91 322.442L1007.03 322.677L1010.55 329.728L1010.86 330.361L1011.17 330.994L1011.48 331.626L1011.79 332.261L1013.78 336.324L1014.62 338.071L1015.46 339.826L1016.28 341.587L1017.1 343.351L1017.49 344.212L1018.52 346.481L1019.53 348.76L1020.53 351.045L1021.5 353.338L1021.97 354.458L1022.67 356.129L1023.36 357.803L1024.04 359.48L1024.71 361.164L1026.66 366.123L1026.82 366.528L1026.98 366.936L1027.14 367.342L1027.3 367.75L1029.64 373.782L1030.09 374.939L1030.55 376.093L1031.01 377.247L1031.47 378.397L1032.45 380.804L1033.35 382.998L1034.27 385.183L1035.2 387.36L1036.16 389.531L1037.2 391.847L1038.26 394.153L1039.33 396.452L1040.43 398.74L1041.46 400.859L1041.98 401.932L1042.51 403.001L1043.04 404.069L1043.57 405.136L1045.8 409.545L1046.36 410.661L1046.9 411.781L1047.45 412.905L1047.99 414.033L1049.42 417.07L1050.25 418.87L1051.04 420.683L1051.8 422.511L1052.52 424.356L1052.98 425.535L1053.77 427.689L1054.5 429.869L1055.17 432.069L1055.78 434.291L1055.93 434.872L1056.48 437.132L1056.96 439.41L1057.37 441.711L1057.71 444.032L1057.84 445L1058.08 447.135L1058.25 449.281L1058.35 451.442L1058.38 453.614L1058.37 455.269L1058.31 457.327L1058.17 459.394L1057.93 461.468L1057.61 463.543L1057.29 465.283L1056.84 467.438L1056.26 469.587L1055.54 471.724L1054.7 473.839L1054.17 475.057L1053.12 477.268L1051.89 479.431L1050.49 481.533L1048.93 483.561L1048.34 484.279L1046.59 486.244L1044.67 488.089L1042.6 489.801L1040.39 491.369L1039.77 491.772L1037.4 493.182L1034.93 494.392L1032.36 495.391L1029.64 496.191L1026.7 496.784L1023.85 497.08L1021.03 497.091L1018.28 496.821L1015.73 496.299L1013.31 495.525L1011.04 494.512L1008.95 493.266L1008.06 492.66L1006.44 491.45L1004.94 490.12L1003.59 488.677L1002.37 487.129L999.761 483.458L999.363 482.892L998.977 482.319L998.596 481.742L998.227 481.161L996.1 477.75L994.888 475.896L993.6 474.091L992.232 472.335L990.792 470.632L988.948 468.642L987 466.732L984.947 464.911L982.8 463.176L982.311 462.799L980.708 461.608L979.065 460.457L977.38 459.354L975.655 458.294L973.045 456.744L971.63 455.914L970.202 455.104L968.757 454.31L967.299 453.532L964.718 452.18L962.827 451.199L960.922 450.234L959.004 449.284L957.076 448.352L953.449 446.614L952.437 446.132L951.42 445.656L950.401 445.183L949.375 444.714L944.821 442.65L943.31 441.946L941.817 441.216L940.343 440.459L938.89 439.677L938.078 439.231L935.418 437.686L932.845 436.042L930.367 434.3L927.983 432.46L926.412 431.15L924.891 429.797L923.417 428.401L921.993 426.967L918.092 422.903L917.929 422.732L917.712 422.507L913.72 418.387L912.303 416.959L910.85 415.564L909.355 414.203L907.821 412.876L906.709 411.938L904.93 410.49L903.092 409.101L901.195 407.771L899.238 406.501L898.662 406.139L896.53 404.872L894.333 403.683L892.07 402.577L889.689 401.53L887.112 400.518L884.534 399.631L881.899 398.845L879.212 398.16L876.56 397.596L873.865 397.129L871.134 396.762L868.373 396.492L867.876 396.453L865.242 396.287L862.591 396.203L859.923 396.199L857.242 396.279L856.28 396.322L853.645 396.474L851.002 396.694L848.358 396.98L845.711 397.334L844.079 397.57L841.708 397.954L839.34 398.409L836.98 398.932L834.626 399.526L831.236 400.514L827.881 401.646L824.568 402.918L821.305 404.328L819.791 405.021L818.342 405.701L816.91 406.417L815.493 407.162L814.093 407.939L810.236 410.135L808.316 411.153L806.338 412.052L804.312 412.827L802.248 413.477L798.792 414.256L795.321 414.666L791.887 414.701L788.543 414.358L788.086 414.285L786.234 413.925L784.437 413.455L782.698 412.874L781.024 412.187L776.295 410.049L775.482 409.674L774.675 409.286L773.878 408.888L773.089 408.48L769.444 406.552L767.515 405.439L765.703 404.194L764.018 402.828L762.465 401.341L761.681 400.53L760.245 398.87L759.008 397.08L757.981 395.171L757.172 393.157L756.932 392.455L756.349 390.276L756.053 388.013L756.047 385.694L756.33 383.349L756.979 380.739L757.977 378.166L759.304 375.668L761.027 373.176L762.757 371.118L764.592 369.291L766.602 367.609L768.763 366.085L770.643 364.869L772.508 363.728L774.428 362.672L776.395 361.709L778.408 360.841L782.848 359.043L784.184 358.535L785.536 358.083L786.903 357.692L788.28 357.359L790.258 356.923L793.544 355.972L796.7 354.594L799.645 352.827L802.309 350.715L803.981 349.04L805.456 347.243L806.721 345.343L807.753 343.363L808.265 342.234L809.194 339.875L809.856 337.484L810.244 335.085L810.357 332.704L810.32 329.444L810.293 328.445L810.24 327.448L810.151 326.461L810.037 325.476L809.086 318.316L809.024 317.936L808.949 317.56L808.855 317.187L808.742 316.823L807.25 312.335L806.342 310.855L804.818 309.858L802.892 309.485L800.826 309.784L799.333 310.443L798.048 311.418L797.071 312.632L796.482 313.982L795.305 318.315L795.044 319.149L794.718 319.975L794.329 320.787L793.875 321.584L792.481 323.851L790.721 326.185L788.499 328.222L785.919 329.878L783.085 331.083L780.907 331.646L778.708 331.924L776.544 331.91L774.459 331.599L772.104 331.072L770.219 330.558L768.425 329.883L766.74 329.054L765.176 328.076L760.945 325.115L760.421 324.742L759.905 324.364L759.395 323.978L758.893 323.584L755.984 321.265L753.926 319.708L751.778 318.243L749.542 316.871L747.226 315.598L744.933 314.467L742.571 313.432L740.149 312.493L737.664 311.648L735.708 311.029L734.031 310.516L732.339 310.035L730.629 309.585L728.904 309.166L723.909 308.008L722.767 307.743L721.619 307.487L720.47 307.237L719.317 306.992L713.923 305.856L712.35 305.524L710.783 305.185L709.216 304.841L707.654 304.491L703.346 303.524L701.669 303.152L699.984 302.796L698.295 302.451L696.601 302.118L693.524 301.527L691.292 301.122L689.048 300.753L686.79 300.422L684.516 300.127L680.63 299.66L679.251 299.512L677.86 299.397L676.46 299.314L675.054 299.266L669.941 299.154L668.173 299.179L666.391 299.332L664.605 299.61L662.829 300.013L659.786 300.81L657.567 301.562L655.468 302.616L653.547 303.944L651.862 305.507L650.211 307.643L649.044 309.966L648.413 312.374L648.342 314.764L648.37 315.069L648.714 316.908L649.389 318.628L650.384 320.192L651.669 321.563L655.325 324.799L655.713 325.133L656.109 325.462L656.513 325.782L656.925 326.093L661.269 329.314L662.614 330.484L663.737 331.829L664.616 333.325L665.236 334.948L665.614 336.242L665.934 338.259L665.764 340.354L665.107 342.447L663.993 344.443L662.365 346.363L660.356 347.992L658.055 349.254L655.575 350.085L654.663 350.303L652.619 350.656L650.589 350.744L648.616 350.561L646.746 350.116L640.682 348.185L640.368 348.086L639.95 347.959L633.521 346.097L631.703 345.712L629.797 345.579L627.844 345.705L625.885 346.082L624.85 346.35L622.278 347.291L619.934 348.713L617.959 350.53L616.456 352.643L615.67 354.429L615.258 356.258L615.231 358.07L615.595 359.8L617.383 365.175L617.465 365.415L619.022 369.789L619.795 372.149L620.441 374.552L620.962 376.996L621.359 379.475L621.543 380.86L621.819 382.593L622.181 384.303L622.627 385.986L623.16 387.639L623.967 389.938L624.675 391.695L625.543 393.377L626.565 394.976L627.739 396.484L629.178 398.167L630.477 399.494L631.97 400.652L633.637 401.627L635.452 402.406L638.441 403.195L641.632 403.485L644.92 403.264L648.205 402.542L649.269 402.227L650.709 401.755L652.124 401.203L653.507 400.575L654.856 399.869L657.442 398.424L660.097 397.13L662.869 396.138L665.71 395.471L668.566 395.139L671.124 395.132L673.612 395.404L675.993 395.954L678.23 396.771L680.583 397.808L681.968 398.463L683.297 399.189L684.573 399.984L685.785 400.842L691.231 404.95L691.463 405.122L691.77 405.352L695.917 408.42L697.86 409.802L699.865 411.118L701.927 412.369L704.049 413.553L706.531 414.818L709.08 415.993L711.695 417.077L714.371 418.066L715.111 418.323L717.128 418.998L719.174 419.627L721.243 420.21L723.337 420.745L725.275 421.215L727.553 421.748L729.852 422.241L732.163 422.699L734.491 423.118L737.761 423.674L739.294 423.931L740.833 424.179L742.374 424.416L743.917 424.643L748.075 425.24L750.011 425.515L751.949 425.781L753.89 426.037L755.835 426.283L757.957 426.545L760.547 426.858L763.147 427.148L765.754 427.413L768.367 427.655L772.692 428.04L773.569 428.115L774.447 428.178L775.328 428.234L776.212 428.281L780.226 428.475L783.053 428.533L785.906 428.441L788.777 428.198L791.652 427.804L794.504 427.264L797.343 426.579L800.152 425.75L802.932 424.782L803.549 424.551L806.073 423.543L808.556 422.434L810.992 421.226L813.376 419.923L817.895 417.331L818.474 417.002L819.059 416.678L819.644 416.363L820.236 416.052L824.77 413.706L827.244 412.556L829.798 411.624L832.409 410.914L835.046 410.441L837.949 410.193L840.811 410.242L843.593 410.581L846.263 411.208L846.728 411.345L848.888 412.093L850.932 413.023L852.842 414.122L854.602 415.388L855.526 416.127L857.192 417.583L858.714 419.16L860.079 420.851L861.283 422.647L861.783 423.474L862.855 425.399L863.777 427.398L864.549 429.463L865.163 431.588L865.341 432.3L865.827 434.56L866.164 436.863L866.35 439.199L866.39 441.56L866.384 441.882L866.269 444.388L865.998 446.909L865.573 449.435L864.974 452.045L864.239 454.595L863.389 457.045L862.403 459.474L861.281 461.874L860.92 462.598L859.795 464.75L858.579 466.871L857.274 468.963L855.88 471.019L854.727 472.654L853.444 474.431L852.111 476.187L850.734 477.919L849.314 479.626L847.672 481.559L846.168 483.299L844.634 485.022L843.074 486.727L841.482 488.414L839.395 490.595L837.983 492.044L836.539 493.471L835.067 494.876L833.563 496.257L831.442 498.173L829.606 499.777L827.712 501.321L825.756 502.806L823.748 504.231L822.435 505.128L820.173 506.601L817.836 507.973L815.434 509.236L812.976 510.385L811.718 510.938L809.342 511.908L806.919 512.742L804.463 513.436L801.97 513.989L798.72 514.49L795.503 514.738L792.315 514.732L789.189 514.475L786.874 514.115L784.622 513.612L782.436 512.971L780.327 512.192L775.128 510.06L774.876 509.959L774.621 509.855L774.369 509.754L774.114 509.655L773.641 509.469L769.126 507.801L764.51 506.304L759.8 504.976L754.874 503.791L754.329 503.67L753.917 503.575L753.508 503.48L753.099 503.385L749.204 502.454L746.278 501.673L743.427 500.75L740.662 499.687L737.986 498.489L735.935 497.439L733.948 496.31L732.035 495.1L730.193 493.809L728.636 492.667L727.136 491.528L725.671 490.351L724.248 489.141L722.864 487.893L721.91 487.007L720.099 485.277L718.347 483.503L716.651 481.681L714.94 479.728L713.358 477.822L711.905 475.969L710.506 474.08L709.163 472.156L708.215 470.763L707.251 469.32L706.309 467.862L705.391 466.392L704.492 464.91L701.906 460.556L701.572 459.998L701.231 459.441L700.888 458.887L700.542 458.334L697.489 453.503L696.713 452.329L695.885 451.192L695.002 450.086L694.072 449.015L691.714 446.419L690.467 445.183L689.085 444.067L687.571 443.081L685.943 442.228L684.017 441.333L681.997 440.58L679.82 440.12L677.537 439.964L675.056 440.136L672.116 440.75L669.403 441.781L666.879 443.213L664.633 444.994L662.939 446.808L661.569 448.795L660.563 450.902L659.942 453.074L659.535 455.174L659.293 456.867L659.219 458.548L659.313 460.206L659.579 461.824L660.565 466.354L660.787 467.306L661.033 468.251L661.304 469.189L661.598 470.116L662.99 474.302L663.578 475.931L664.243 477.529L664.988 479.09L665.807 480.611L667.47 483.246L669.366 485.737L671.488 488.067L673.851 490.255L675.247 491.392L676.675 492.451L678.161 493.45L679.695 494.391L683.629 496.685L684.582 497.248L685.527 497.822L686.464 498.403L687.39 498.997L693.146 502.726L693.673 503.064L694.203 503.394L694.741 503.72L695.282 504.041L698.229 505.754L700.724 507.07L703.361 508.195L706.121 509.119L708.991 509.842L711.392 510.277L713.847 510.573L716.343 510.726L718.87 510.741L722.244 510.666L723.796 510.646L725.345 510.66L726.887 510.704L728.421 510.783L729.517 510.848L733.078 511.129L736.603 511.539L740.082 512.076L743.512 512.74L747.35 513.56L747.568 513.605L756.653 515.567L757.492 515.766L758.316 515.991L759.124 516.247L759.914 516.53L764.218 518.161L765.913 519.001L767.35 520.124L768.481 521.498L769.269 523.076L769.737 525.419L769.513 527.887L768.602 530.328L767.062 532.594L766.483 533.271L765.098 534.687L763.515 535.936L761.773 536.989L759.908 537.82L756.149 539.228L754.39 539.829L752.607 540.325L750.81 540.714L749.006 540.991L746.439 541.31L743.762 541.55L741.102 541.61L738.48 541.488L735.909 541.182L733.094 540.625L730.388 539.845L727.806 538.847L725.37 537.638L723.507 536.601L722.293 535.898L721.114 535.155L719.968 534.375L718.86 533.558L715.28 530.813L714.113 529.933L712.93 529.071L711.734 528.222L710.52 527.389L705.04 523.686L704.743 523.484L704.444 523.282L704.148 523.08L703.849 522.878L696.312 517.737L696.053 517.561L695.712 517.319L689.896 513.19L688.742 512.462L687.496 511.847L686.169 511.35L684.774 510.974L681.757 510.313L679.718 510.093L677.602 510.288L675.513 510.894L673.501 511.915L671.428 513.554L669.901 515.515L668.98 517.686L668.734 519.901L669.095 521.769L669.985 523.431L671.346 524.786L673.099 525.754L677.405 527.451L678.086 527.702L678.785 527.927L679.499 528.123L680.226 528.291L682.382 528.743L685.73 529.636L688.882 530.876L691.793 532.446L694.433 534.325L695.728 535.46L696.931 536.671L698.034 537.959L699.033 539.317L701.06 542.292L701.9 543.455L702.807 544.574L703.779 545.649L704.809 546.675L705.783 547.589L707.906 549.357L710.267 550.884L712.842 552.156L715.599 553.159L717.856 553.748L720.192 554.16L722.588 554.394L725.032 554.451L727.7 554.417L729.652 554.355L731.614 554.219L733.584 554.011L735.551 553.732L739.192 553.147L741.233 552.799L743.268 552.412L745.303 551.985L747.335 551.517L751.473 550.523L753.188 550.135L754.903 549.793L756.622 549.493L758.341 549.238L760.871 548.896L763.669 548.607L766.454 548.49L769.207 548.548L771.984 548.789L774.783 549.224L777.442 549.836L780.004 550.629L782.517 551.629L784.84 552.766L786.979 554.043L788.975 555.472L790.821 557.047L792.582 558.851L794.152 560.795L795.522 562.865L796.714 565.122L797.63 567.306L798.329 569.491L798.841 571.742L799.163 574.044L799.285 575.291L799.423 577.303L799.45 579.333L799.362 581.379L799.165 583.434L798.951 585.169L798.634 587.357L798.232 589.547L797.74 591.736L797.162 593.92L796.907 594.818L796.153 597.287L795.313 599.745L794.379 602.19L793.305 604.735L792.125 607.301L790.911 609.731L789.612 612.138L788.193 614.579L786.685 617.004L785.132 619.335L783.5 621.632L781.739 623.957L779.917 626.225L778.068 628.387L776.148 630.504L774.155 632.575L773.566 633.17L771.731 634.969L769.834 636.72L767.881 638.421L765.868 640.071L763.976 641.577L762.276 642.88L760.523 644.123L758.717 645.306L756.868 646.423L754.21 647.964L752.18 649.054L750.085 650.012L747.934 650.832L745.745 651.509L742.922 652.283L740.833 652.741L738.735 652.976L736.665 652.982L734.65 652.761L732.926 652.471L730.665 651.86L728.661 650.844L726.993 649.464L725.726 647.772L724.902 645.802L724.578 643.661L724.766 641.435L725.463 639.216L726.001 637.97L726.801 636.373L727.802 634.839L728.982 633.393L730.329 632.053L735.489 627.418L735.823 627.118L736.164 626.821L736.505 626.527L736.849 626.235L742.018 621.896L743.584 620.513L745.064 619.063L746.459 617.55L747.757 615.98L749.309 614.001L750.643 612.117L751.766 610.151L752.66 608.124L753.317 606.059L753.555 605.144L753.971 602.824L754.017 600.528L753.691 598.301L753.001 596.187L751.907 594.152L750.457 592.329L748.683 590.757L746.618 589.469L745.625 588.955L743.815 588.133L741.898 587.482L739.886 587.007L737.8 586.712L731.906 586.146L731.364 586.097L730.82 586.053L730.276 586.013L729.73 585.979L723.744 585.632L721.635 585.447L719.562 585.141L717.542 584.714L715.575 584.17L714.611 583.869L712.054 582.922L709.662 581.73L707.466 580.307L705.485 578.666L703.89 577.001L702.506 575.185L701.345 573.235L700.415 571.169L699.058 567.612L698.816 566.959L698.592 566.3L698.379 565.636L698.181 564.966L696.689 559.689L696.215 558.352L695.569 557.091L694.762 555.924L693.796 554.858L692.477 553.575L690.729 552.271L688.626 551.389L686.277 550.975L683.794 551.05L681.296 551.615L678.915 552.637L676.768 554.069L674.967 555.839L673.287 557.849L672.282 559.164L671.423 560.539L670.713 561.963L670.157 563.419L667.934 570.319L667.859 570.558L667.758 570.877L665.312 578.847L665.007 579.848L664.71 580.847L664.416 581.851L664.131 582.852L663.338 585.662L662.541 588.363L661.679 591.056L660.747 593.744L659.752 596.419L658.81 598.793L657.815 601.157L656.77 603.51L655.673 605.852L655.02 607.213L654.065 609.153L653.071 611.083L652.039 613.002L650.969 614.908L649.939 616.703L648.733 618.738L647.463 620.751L646.135 622.74L644.745 624.703L642.757 627.329L640.663 629.898L638.466 632.407L636.169 634.853L634.42 636.609L632.617 638.327L630.767 640.005L628.869 641.643L624.985 644.909L624.306 645.49L623.633 646.08L622.97 646.678L622.319 647.283L618.306 651.063L616.79 652.61L615.42 654.251L614.209 655.973L613.167 657.76L613.036 658.008L611.821 660.778L611.047 663.61L610.728 666.447L610.877 669.228L611.27 671.169L611.901 673.031L612.761 674.794L613.843 676.438L616.105 679.448L616.714 680.304L617.269 681.19L617.776 682.104L618.229 683.044L619.117 685.032L619.922 687.414L620.269 689.939L620.151 692.544L619.567 695.168L618.73 697.346L617.587 699.454L616.159 701.456L614.472 703.316L612.048 705.703L610.905 706.782L609.711 707.818L608.469 708.809L607.184 709.753L603.657 712.233L601.844 713.399L599.929 714.415L597.942 715.269L595.893 715.953L595.411 716.092L592.242 716.775L589.07 717.001L585.988 716.763L583.072 716.071L581.044 715.261L579.186 714.217L577.53 712.955L576.104 711.494L572.473 707.177L572.322 706.998L568.894 703.018L567.342 701.359L565.653 699.812L563.829 698.385L561.879 697.086L560.514 696.248L558.785 695.285L556.954 694.458L555.031 693.77L553.028 693.226L551.244 692.814L548.878 692.413L546.431 692.278L543.932 692.411L541.419 692.81L538.394 693.649L535.471 694.857L532.715 696.407L530.191 698.265L527.225 700.742L526.617 701.26L526.025 701.787L525.441 702.325L524.871 702.874L523.872 703.856L520.673 706.812L517.271 709.591L513.69 712.177L509.944 714.558L508.586 715.368L507.935 715.763L507.298 716.17L506.667 716.59L506.047 717.023L501.732 720.098L499.822 721.67L498.189 723.46L496.882 725.419L495.935 727.49L495.515 728.653L494.998 730.827L495.01 732.973L495.547 734.994L496.589 736.797L497.316 737.744L498.67 739.054L500.408 739.98L502.42 740.464L504.587 740.478L507.268 739.855L509.741 738.581L511.782 736.772L513.21 734.592L514.863 731.047L514.988 730.79L515.158 730.45L517.79 725.495L519.13 723.325L520.76 721.288L522.66 719.419L524.788 717.754L527.286 716.227L529.956 715L532.739 714.1L535.577 713.545L536.399 713.436L538.682 713.234L540.94 713.236L543.147 713.443L545.284 713.852L547.507 714.393L549.511 714.949L551.448 715.627L553.311 716.422L555.089 717.332L557.507 718.679L559.059 719.583L560.565 720.539L562.024 721.547L563.431 722.605L567.646 725.906L568.157 726.298L568.679 726.678L569.209 727.05L569.75 727.41L573.466 729.83L575.425 730.914L577.571 731.742L579.866 732.298L582.271 732.575L585.029 732.548L587.817 732.17L590.579 731.449L593.257 730.4L594.824 729.676L596.655 728.76L598.42 727.73L600.107 726.591L601.706 725.353L605.521 722.193L606.622 721.316L607.761 720.477L608.933 719.678L610.138 718.922L612.574 717.454L615.146 716.094L617.849 715.03L620.636 714.278L623.452 713.856L626.062 713.765L628.613 713.968L631.057 714.462L633.362 715.24L634.396 715.666L636.344 716.587L638.156 717.682L639.814 718.939L641.301 720.35L642.266 721.374L643.657 722.985L644.888 724.703L645.957 726.517L646.855 728.418L647.412 729.75L648.131 731.643L648.727 733.584L649.201 735.565L649.545 737.585L649.789 739.337L650.025 741.345L650.173 743.373L650.237 745.415L650.212 747.471L650.15 749.472L650.057 751.492L649.908 753.517L649.703 755.547L649.445 757.579L649.17 759.521L648.852 761.645L648.491 763.77L648.089 765.895L647.648 768.019L647.283 769.696L646.79 771.863L646.254 774.028L645.677 776.19L645.058 778.35L644.569 779.997L643.911 782.117L643.196 784.231L642.424 786.338L641.601 788.434L641.002 789.905L640.067 792.093L639.051 794.264L637.959 796.414L636.791 798.543L636.135 799.695L634.866 801.819L633.501 803.907L632.041 805.955L630.494 807.96L629.652 809.008L628.027 810.935L626.296 812.798L624.47 814.592L622.549 816.311L621.468 817.234L619.458 818.856L617.347 820.369L615.144 821.767L612.862 823.043L611.641 823.681L609.275 824.813L606.839 825.776L604.353 826.562L601.831 827.165L600.615 827.409L598.084 827.802L595.564 827.959L593.079 827.881L590.665 827.566L589.739 827.397L587.394 826.818L585.202 825.964L583.201 824.85L581.425 823.493L581.197 823.293L579.575 821.579L578.298 819.631L577.395 817.492L576.883 815.207L576.777 812.866L577.06 810.482L577.732 808.102L578.776 805.778L580.154 803.207L580.851 801.983L581.61 800.782L582.433 799.607L583.317 798.46L585.447 795.822L587.023 793.778L588.485 791.681L589.836 789.538L591.068 787.353L591.253 787.003L592.493 784.495L593.561 781.949L594.458 779.374L595.174 776.781L595.338 776.11L595.785 773.954L596.089 771.798L596.249 769.65L596.261 767.519L596.226 766.277L596.057 764.045L595.679 761.861L595.095 759.74L594.307 757.696L593.098 755.353L591.615 753.163L589.869 751.145L587.804 749.256L585.972 747.877L584.085 746.697L582.08 745.66L579.965 744.773L575.218 742.996L574.745 742.816L574.272 742.632L573.802 742.446L573.335 742.255L571.406 741.459L568.001 739.927L564.744 738.199L561.649 736.281L558.72 734.181L557.351 733.125L556.854 732.75L556.34 732.39L555.817 732.041L555.278 731.707L551.987 729.718L549.681 728.605L547.124 727.893L544.39 727.606L541.562 727.75L538.819 728.297L536.14 729.232L533.61 730.525L531.294 732.142L529.139 733.882L527.982 734.891L526.917 735.975L525.955 737.125L525.102 738.33L522.747 741.975L521.954 743.571L521.587 745.226L521.663 746.849L522.183 748.348L523.752 750.213L526.075 751.353L528.849 751.62L531.709 750.98L533.946 750.115L537.052 748.856L540.955 747.566L544.945 746.821L548.919 746.639L552.769 747.025L553.984 747.273L555.171 747.581L556.327 747.947L557.45 748.369L563.908 751.006L564.514 751.248L565.124 751.482L565.737 751.709L566.359 751.928L571.629 753.744L573.399 754.454L575.055 755.324L576.584 756.344L577.967 757.505L579.813 759.58L581.232 761.929L582.198 764.497L582.684 767.227L582.753 768.013L582.82 769.569L582.756 771.144L582.561 772.729L582.236 774.315L581.176 778.6L580.773 779.965L580.244 781.315L579.591 782.638L578.822 783.926L576.949 786.792L575.656 788.421L574.048 789.835L572.197 790.974L570.174 791.793L567.768 792.291L565.383 792.297L563.153 791.81L561.196 790.857L558.926 789.363L557.914 788.625L556.996 787.801L556.178 786.897L555.467 785.92L552.898 781.975L552.136 780.862L551.321 779.782L550.456 778.735L549.543 777.725L547.493 775.56L545.997 774.146L544.327 772.889L542.498 771.8L540.53 770.889L539.644 770.533L537.295 769.761L534.804 769.276L532.213 769.087L529.56 769.196L526.716 769.638L523.904 770.409L521.178 771.494L518.55 772.894L516.253 774.449L514.182 776.192L512.338 778.117L510.746 780.192L510.249 780.925L508.981 782.997L507.941 785.138L507.141 787.327L506.589 789.541L506.239 791.363L505.936 793.29L505.772 795.211L505.744 797.117L505.857 799.002L506.249 803.058L506.365 804.127L506.501 805.192L506.658 806.252L506.838 807.306L507.525 811.098L507.866 813.04L508.177 814.99L508.462 816.946L508.723 818.908L508.834 819.803L509.129 822.347L509.375 824.902L509.571 827.467L509.718 830.041L509.76 830.903L509.839 832.926L509.881 834.955L509.887 836.99L509.858 839.029L509.8 841.396L509.733 843.255L509.615 845.12L509.45 846.989L509.232 848.862L508.918 851.33L508.613 853.342L508.22 855.354L507.74 857.363L507.167 859.367L506.566 861.319L505.85 863.408L504.997 865.474L504.005 867.512L502.886 869.511L502.13 870.772L500.746 872.883L499.18 874.909L497.44 876.838L495.542 878.653L494.861 879.258L492.739 880.989L490.454 882.546L488.037 883.912L485.51 885.073L485.186 885.206L482.404 886.195L479.565 886.91L476.698 887.342L473.849 887.484L471.056 887.335L468.355 886.897L465.779 886.177L463.367 885.183L463.129 885.068L460.991 883.876L459.047 882.471L457.318 880.866L455.826 879.08L455.427 878.538L454.215 876.681L453.213 874.709L452.434 872.637L451.88 870.482L451.687 869.53L451.349 867.356L451.194 865.14L451.226 862.894L451.441 860.63L451.649 859.101L451.988 857.034L452.439 854.968L453.004 852.907L453.677 850.857L454.399 848.835L455.153 846.833L455.974 844.845L456.866 842.869L457.826 840.911L458.607 839.376L459.763 837.177L460.981 834.996L462.256 832.835L463.593 830.695L464.252 829.665L465.628 827.567L467.047 825.488L468.512 823.428L470.023 821.389L471.979 818.797L472.929 817.549L473.889 816.305L474.858 815.067L475.836 813.835L478.871 810.043L479.962 808.662L481.037 807.272L482.094 805.872L483.132 804.464L484.755 802.234L486.246 800.129L487.673 797.997L489.034 795.84L490.332 793.659L490.804 792.839L492.054 790.59L493.216 788.318L494.297 786.024L495.289 783.71L495.743 782.603L496.574 780.449L497.308 778.281L497.949 776.102L498.491 773.917L498.949 771.886L499.321 769.976L499.578 768.068L499.719 766.166L499.746 764.277L499.725 763.1L499.548 760.589L499.112 758.138L498.424 755.766L497.483 753.493L496.99 752.462L496.138 750.904L495.13 749.436L493.968 748.069L492.657 746.814L491.411 745.729L489.56 744.372L487.464 743.292L485.165 742.514L482.709 742.051L479.97 741.916L477.174 742.154L474.382 742.761L471.649 743.726L469.192 744.939L466.915 746.414L464.848 748.128L463.035 750.046L462.028 751.256L460.771 752.892L459.666 754.596L458.719 756.356L457.943 758.158L455.731 763.977L455.626 764.255L455.522 764.534L455.42 764.812L455.319 765.091L453.682 769.688L452.739 772.163L451.675 774.618L450.496 777.046L449.205 779.442L447.767 781.863L446.213 784.242L444.548 786.574L442.777 788.853L441.826 790.025L440.487 791.64L439.105 793.232L437.682 794.797L436.218 796.336L432.828 799.824L431.92 800.753L431.004 801.676L430.083 802.594L429.155 803.507L424.406 808.15L423.502 809.031L422.592 809.91L421.682 810.786L420.765 811.659L417.636 814.631L415.831 816.324L413.998 817.997L412.14 819.649L410.258 821.28L409.585 821.856L407.286 823.786L404.951 825.677L402.575 827.532L400.163 829.347L399.841 829.585L397.608 831.206L395.343 832.791L393.048 834.338L390.726 835.848L389.513 836.621L387.373 837.956L385.208 839.248L383.013 840.499L380.794 841.707L379.144 842.583L376.862 843.755L374.548 844.864L372.206 845.91L369.837 846.89L368.074 847.592L365.741 848.471L363.38 849.262L360.998 849.963L358.599 850.572L357.176 850.906L354.519 851.455L351.854 851.859L349.192 852.117L346.544 852.228L346.184 852.233L343.331 852.18L340.524 851.942L337.778 851.518L335 850.885L332.46 850.12L330.123 849.22L327.894 848.164L325.784 846.956L325.229 846.609L323.323 845.294L321.566 843.833L319.971 842.235L318.546 840.508L318.101 839.913L316.876 838.069L315.869 836.105L315.09 834.038L314.543 831.886L314.464 831.481L314.156 829.128L314.141 826.719L314.418 824.281L314.986 821.841L315.853 819.385L317.004 816.983L318.424 814.662L320.099 812.45L320.417 812.068L322.146 810.157L324.04 808.364L326.085 806.704L328.265 805.19L329.793 804.211L331.81 802.986L333.888 801.858L336.02 800.832L338.198 799.911L341.901 798.449L343.451 797.854L345.01 797.289L346.578 796.753L348.155 796.246L354.788 794.185L355.632 793.92L356.475 793.65L357.316 793.376L358.157 793.098L363.81 791.208L365.833 790.496L367.836 789.723L369.819 788.886L371.774 787.99L374.099 786.881L376.37 785.722L378.569 784.443L380.69 783.05L382.721 781.549L383.761 780.734L385.801 779.013L387.687 777.162L389.404 775.197L390.937 773.133L391.202 772.743L392.622 770.431L393.78 768.042L394.67 765.599L395.28 763.128L395.606 760.622L395.634 758.142L395.363 755.716L394.796 753.369L394.65 752.9L393.901 750.869L392.946 748.93L391.789 747.098L390.438 745.387L389.318 744.107L388.026 742.725L386.64 741.418L385.165 740.189L383.605 739.043L380.737 737.069L379.544 736.267L378.326 735.491L377.087 734.739L375.827 734.013L372.614 732.214L370.935 731.288L369.244 730.381L367.533 729.495L365.806 728.63L363.807 727.641L361.808 726.68L359.779 725.758L357.724 724.875L355.581 724.006L352.679 722.908L349.792 721.911L346.863 720.988L343.893 720.14L341.591 719.543L339.268 718.99L336.923 718.483L334.56 718.021L332.3 717.603L330.322 717.256L328.331 716.943L326.327 716.664L324.312 716.42L322.117 716.173L319.615 715.932L317.091 715.766L314.548 715.676L311.99 715.663L308.779 715.752L305.554 715.961L302.32 716.288L299.082 716.732L294.769 717.402L294.32 717.472L293.871 717.544L293.422 717.617L292.973 717.691L288.99 718.358L285.584 718.899L282.178 719.38L278.772 719.803L275.368 720.166L272.93 720.39L270.494 720.583L268.062 720.746L265.632 720.878L261.23 721.09L260.041 721.145L258.853 721.196L257.666 721.244L256.479 721.287L250.505 721.497L248.87 721.561L247.233 721.637L245.594 721.726L243.954 721.827L240.893 722.026L238.234 722.225L235.572 722.475L232.907 722.776L230.241 723.128L227.061 723.613L223.883 724.171L220.709 724.799L217.543 725.499L217.12 725.597L214.682 726.183L212.249 726.809L209.823 727.474L207.405 728.177L203.979 729.202L202.353 729.694L200.729 730.196L199.108 730.708L197.489 731.231L190.686 733.449L189.983 733.678L189.281 733.909L188.578 734.141L187.876 734.373L181.241 736.573L179.548 737.139L177.856 737.714L176.167 738.298L174.481 738.89L172.453 739.608L169.477 740.682L166.512 741.792L163.559 742.936L160.618 744.117L157.968 745.215L155.33 746.342L152.703 747.497L150.089 748.681L145.846 750.628L145.083 750.976L144.319 751.32L143.552 751.66L142.784 751.996L137.087 754.469L135.154 755.272L133.198 756.011L131.222 756.686L129.23 757.295L126.444 758.097L124.083 758.7L121.705 759.154L119.323 759.456L116.951 759.605L115.43 759.651L112.851 759.61L110.336 759.328L107.911 758.811L105.603 758.062L105.226 757.916L102.884 756.839L100.757 755.494L98.8785 753.902L97.2709 752.081L95.9912 750.112L95.0201 747.99L94.3674 745.739L94.0361 743.292L94.0413 740.822L94.3871 738.422L95.0628 736.03L96.0573 733.682L97.4227 731.311L99.0986 729.066L101.058 726.984L103.312 725.064L105.606 723.476L108.007 722.137L110.527 721.032L113.13 720.175L114.916 719.682L116.994 719.171L119.084 718.783L121.176 718.52L123.261 718.383L128.824 718.186L129.733 718.159L130.64 718.143L131.545 718.137L132.448 718.141L137.169 718.191L139.672 718.201L142.183 718.177L144.698 718.121L147.218 718.032L148.899 717.961L151.347 717.837L153.799 717.671L156.255 717.464L158.714 717.215L160.976 716.967L163.227 716.694L165.478 716.369L167.728 715.993L169.975 715.565L172.449 715.065L174.782 714.551L177.103 713.952L179.409 713.272L181.696 712.509L183.413 711.903L185.898 710.955L188.335 709.879L190.714 708.682L193.026 707.367L193.805 706.897L196.171 705.367L198.424 703.698L200.55 701.901L202.613 699.908L204.609 697.702L206.343 695.469L207.877 693.144L209.203 690.745L210.295 688.326L211.167 685.868L211.813 683.386L212.229 680.897L212.271 680.558L212.457 678.197L212.445 675.861L212.235 673.56L211.827 671.307L211.596 670.291L211.071 668.29L210.416 666.336L209.633 664.434L208.725 662.59L207.359 660.035L206.693 658.827L205.995 657.638L205.265 656.467L204.504 655.314L202.057 651.708L201.305 650.571L200.583 649.414L199.893 648.239L199.233 647.049L198.051 644.851L197.043 642.814L196.173 640.713L195.445 638.556L194.859 636.346L194.371 633.796L194.07 631.196L193.957 628.56L194.032 625.896L194.092 624.948L194.254 623.034L194.498 621.115L194.823 619.194L195.229 617.272L196.641 611.188L196.698 610.942L196.774 610.614L198.14 604.587L198.557 602.596L198.907 600.607L199.189 598.619L199.403 596.631L199.572 594.773L199.712 592.597L199.733 590.435L199.638 588.292L199.425 586.172L199.262 584.91L198.904 582.766L198.389 580.67L197.718 578.625L196.894 576.645L196.486 575.761L195.47 573.812L194.269 571.964L192.89 570.228L191.341 568.616L190.773 568.077L189.036 566.599L187.123 565.29L185.051 564.165L182.837 563.23L182.304 563.035L179.887 562.291L177.35 561.792L174.724 561.543L171.934 561.552L169.019 561.827L166.21 562.376L163.439 563.194L160.742 564.27L158.141 565.599L155.682 567.155L153.398 568.923L151.318 570.877L150.911 571.297L149.202 573.221L147.683 575.249L146.37 577.365L145.273 579.549L144.707 580.819L143.852 582.931L143.16 585.066L142.633 587.213L142.275 589.367L142.001 591.524L141.805 593.401L141.697 595.27L141.675 597.129L141.741 598.976L142.039 604.007L142.081 604.67L142.128 605.332L142.179 605.993L142.235 606.654L142.71 611.997L142.837 613.661L142.927 615.335L142.977 617.014L142.988 618.699L142.975 621.254L142.916 623.362L142.759 625.48L142.506 627.605L142.157 629.734L141.907 631.07L141.399 633.394L140.745 635.709L139.948 638.011L139.01 640.29L138.584 641.249L137.509 643.464L136.276 645.635L134.89 647.75L133.358 649.801L132.627 650.72L130.951 652.678L129.117 654.53L127.138 656.27L125.027 657.878L123.97 658.629L121.772 660.059L119.454 661.308L117.042 662.364L114.558 663.216L113.437 663.55L110.844 664.18L108.233 664.531L105.645 664.594L103.12 664.373L102.522 664.283L100.002 663.733L97.6598 662.851L95.5446 661.657L93.7007 660.176L92.1122 658.363L90.8954 656.312L90.078 654.073L89.6736 651.626L89.6741 649.285L90.0346 646.986L90.7431 644.7L91.7862 642.468L92.8334 640.566L93.7497 639.022L94.7754 637.522L95.9049 636.066L97.1339 634.67L100.444 631.124L101.462 630.007L102.448 628.87L103.403 627.715L104.326 626.544L106.285 623.991L107.79 621.882L109.123 619.704L110.275 617.468L111.24 615.186L111.496 614.511L112.262 612.165L112.795 609.805L113.091 607.445L113.148 605.103L113.127 604.316L112.939 602.125L112.497 600.001L111.806 597.958L110.872 596.021L110.582 595.504L109.311 593.581L107.759 591.845L105.948 590.322L103.904 589.034L101.592 587.97L99.101 587.19L96.4678 586.704L93.7331 586.52L91.9882 586.499L90.0988 586.531L88.1958 586.67L86.2875 586.917L84.3813 587.267L79.619 588.276L78.0896 588.581L76.5577 588.845L75.0248 589.069L73.4923 589.253L70.2031 589.606L67.6201 589.791L65.063 589.785L62.5499 589.592L60.0977 589.211L59.192 589.034L56.8122 588.447L54.5489 587.644L52.4245 586.634L50.4595 585.427L49.7273 584.919L48.0099 583.555L46.5164 581.997L45.2663 580.269L44.2765 578.393L43.9918 577.746L43.2839 575.686L42.9214 573.515L42.9108 571.271L43.2527 568.998L44.0219 566.529L45.1871 564.128L46.7229 561.85L48.595 559.745L49.0463 559.3L50.7768 557.744L52.6624 556.336L54.6803 555.095L56.8067 554.036L62.9387 551.312L63.2787 551.16L63.7307 550.953L69.4756 548.293L71.7492 547.12L73.9059 545.759L75.9211 544.226L77.7724 542.538L79.7933 540.279L81.5008 537.854L82.8664 535.303L83.8657 532.668L84.5476 530.433L84.8782 529.257L85.1557 528.079L85.3798 526.901L85.5494 525.722L85.8573 523.181L86.301 520.598L87.0033 518.023L87.9592 515.476L89.1607 512.978L90.505 510.696L92.0481 508.49L93.7795 506.378L95.6861 504.374L96.2808 503.793L98.1961 502.048L100.247 500.432L102.42 498.951L104.698 497.616L107.584 496.21L110.573 495.047L113.632 494.14L116.853 493.482L119.423 493.147L121.862 492.999L124.277 493.016L126.652 493.198L132.591 493.87L132.998 493.915L133.543 493.972L139.099 494.518L141.731 494.697L144.397 494.727L147.089 494.606L149.793 494.33L152.84 493.845L155.874 493.169L158.879 492.309L161.944 491.232L164.55 490.159L167.003 489.006L169.395 487.735L171.719 486.351L172.741 485.708L174.968 484.247L177.127 482.703L179.215 481.079L181.226 479.379L183.992 476.946L185.066 475.988L186.125 475.02L187.17 474.037L188.199 473.042L190.78 470.517L192.696 468.691L194.669 466.915L196.696 465.184L198.776 463.505L201.374 461.531L204.044 459.634L206.78 457.822L209.578 456.095L210.372 455.621L212.326 454.482L214.304 453.382L216.304 452.318L218.324 451.292L221.082 449.925L223.087 448.943L225.103 447.985L227.129 447.05L229.166 446.139L233.36 444.292L234.747 443.672L236.128 443.039L237.504 442.396L238.874 441.737L240.478 440.959L243.706 439.338L246.887 437.632L250.018 435.843L253.096 433.97L253.59 433.661L255.377 432.518L257.141 431.341L258.88 430.136L260.594 428.901L261.717 428.078L264.225 426.17L266.658 424.184L269.012 422.127L271.283 420L273.231 418.05L275.107 416.05L276.91 414.005L278.636 411.912L279.078 411.36L280.723 409.24L282.298 407.084L283.801 404.896L285.231 402.678L287.388 399.218L287.889 398.404L288.378 397.588L288.855 396.763L289.32 395.939L290.318 394.141L292.144 391.077L294.179 388.092L296.412 385.2L298.835 382.414L299.894 381.263L300.77 380.281L301.608 379.277L302.409 378.252L303.17 377.207L304.781 374.911L306.243 372.567L307.399 370.127L308.233 367.63L308.733 365.111L309.21 362.679L309.998 360.267L311.086 357.91L312.461 355.634L314.741 352.279L315.259 351.533L315.795 350.796L316.347 350.065L316.916 349.344L320.236 345.221L321.52 343.498L322.648 341.713L323.618 339.872L324.417 337.99L324.556 337.624L325.414 334.773L325.847 331.907L325.848 329.078L325.42 326.332L324.831 324.394L324.017 322.546L322.987 320.806L321.75 319.191L320.326 317.544L319.115 316.234L317.81 314.998L316.416 313.84L314.938 312.763L311.384 310.343L310.436 309.709L309.474 309.092L308.498 308.488L307.509 307.9L302.284 304.857L301.399 304.345L300.51 303.835L299.619 303.329L298.725 302.825L291.747 298.922L291.497 298.781L291.164 298.595L283.86 294.528L283.08 294.091L282.301 293.653L281.525 293.212L280.75 292.772L276.338 290.248L274.809 289.357L273.296 288.448L271.799 287.522L270.32 286.575L268.799 285.586L266.736 284.205L264.722 282.774L262.757 281.292L260.842 279.761L259.274 278.468L258.057 277.435L256.878 276.371L255.737 275.272L254.634 274.144L252.391 271.772L251.22 270.447L250.149 269.053L249.181 267.593L248.321 266.076L247.305 264.126L246.483 262.273L245.895 260.326L245.549 258.302L245.447 256.226L245.452 255.721L245.683 253.107L246.321 250.489L247.354 247.914L248.762 245.433L250.283 243.374L252.049 241.451L254.035 239.693L256.212 238.127L257.376 237.375L259.495 236.111L261.704 234.999L263.986 234.051L266.322 233.269L268.208 232.712L270.598 232.077L273.006 231.569L275.421 231.194L277.834 230.954L280.417 230.767L282.506 230.649L284.587 230.599L286.656 230.612L288.711 230.694L293.95 230.989L294.977 231.05L296.003 231.117L297.027 231.194L298.049 231.277L303.99 231.783L305.664 231.915L307.343 232.025L309.028 232.109L310.718 232.17L314.763 232.229L318.833 232.155L322.921 231.952L327.02 231.62L330.438 231.289L337.798 230.553L339.899 230.453L341.958 230.57L343.947 230.907L345.838 231.458L346.56 231.716L348.891 232.806L350.886 234.285L352.479 236.107L353.619 238.206L354.201 240.162L354.415 242.22L354.256 244.336L353.723 246.46L353.06 248.416L352.392 250.134L351.561 251.816L350.578 253.45L349.446 255.025L345.338 260.29L345.088 260.613L344.839 260.936L344.596 261.26L344.352 261.584L341.308 265.689L339.75 267.921L338.343 270.211L337.092 272.551L336.001 274.935L335.024 277.501L334.236 280.091L333.642 282.697L333.248 285.301L333.192 285.77L333.006 287.999L332.953 290.21L333.035 292.405L333.249 294.573L333.384 295.593L333.74 297.829L334.212 300.031L334.8 302.197L335.506 304.321L336.749 307.753L337.042 308.531L337.35 309.3L337.675 310.061L338.014 310.817L339.849 314.76L340.551 316.514L341.069 318.337L341.392 320.218L341.523 322.146L341.362 325.031L340.782 327.932L339.792 330.807L338.409 333.603L337.662 334.91L336.911 336.156L336.1 337.376L335.229 338.57L334.301 339.738L330.152 344.731L329.512 345.54L328.922 346.37L328.381 347.222L327.889 348.093L325.895 351.86L325.126 353.825L324.877 355.822L325.156 357.743L325.952 359.48L327.297 361.008L329.085 362.14L331.205 362.807L333.536 362.968L337.062 362.826L338.087 362.756L339.116 362.631L340.147 362.448L341.169 362.21L349.003 360.18L349.857 359.948L350.704 359.7L351.549 359.432L352.39 359.145L357.503 357.34L359.673 356.425L361.717 355.262L363.595 353.872L365.32 352.225L367.235 349.755L368.553 347.147L369.278 344.441L369.383 341.748L369.063 339.864L368.418 338.086L367.463 336.455L366.219 335.008L363.548 332.404L362.804 331.642L362.102 330.843L361.441 330.015L360.829 329.157L358.843 326.213L357.711 324.471L356.65 322.686L355.66 320.864L354.739 319.007L352.833 314.964L352.575 314.426L352.307 313.892L352.034 313.36L351.752 312.832L349.608 308.882L348.734 307.057L348.046 305.148L347.548 303.17L347.251 301.137L347.163 298.267L347.448 295.354L348.111 292.436L349.136 289.549L349.515 288.65L350.266 287.002L351.114 285.38L352.063 283.788L353.103 282.234L355.299 279.133L356.374 277.562L357.39 275.969L358.355 274.356L359.261 272.717L360.866 269.453L362.233 266.138L363.358 262.786L364.235 259.41L364.584 257.685L364.871 255.958L365.087 254.235L365.24 252.514L365.542 248.125L365.645 246.929L365.788 245.732L365.977 244.534L366.203 243.335L366.589 241.478L367.358 238.557L368.443 235.671L369.832 232.85L371.512 230.118L372.906 228.204L374.437 226.365L376.099 224.606L377.882 222.937L380.054 221.021L381.519 219.676L382.921 218.277L384.25 216.832L385.539 215.301L387.742 212.323L389.617 209.267L391.18 206.11L392.417 202.885L392.954 201.092L393.389 199.292L393.72 197.489L393.944 195.688L394.579 189.054L395.255 182.162L395.457 180.49L395.739 178.814L396.098 177.141L396.535 175.47L397.314 172.735L397.996 170.691L398.865 168.675L399.915 166.704L401.141 164.794L401.889 163.719L403.553 161.593L405.474 159.621L407.618 157.833L409.958 156.257L412.661 154.819L415.501 153.681L418.427 152.862L421.39 152.376L422.915 152.212L424.931 152.061L426.928 152.037L428.901 152.142L430.839 152.372L435.901 153.15L436.973 153.325L438.038 153.516L439.098 153.724L440.15 153.951L445.535 155.152L447.19 155.514L448.853 155.861L450.524 156.194L452.199 156.511L454.142 156.868L456.981 157.359L459.84 157.795L462.72 158.173L465.617 158.492L468.349 158.737L471.096 158.934L473.853 159.08L476.626 159.172L481.196 159.284L481.878 159.303L482.554 159.329L483.231 159.362L483.909 159.398L489.659 159.744L491.773 159.942L493.836 160.279L495.845 160.752L497.782 161.36L498.948 161.775L501.348 162.792L503.546 164.072L505.515 165.597L507.226 167.344L508.613 169.223L509.721 171.263L510.536 173.441L511.062 175.833L511.285 178.294L511.192 180.695L510.805 183.114L510.091 185.622L509.089 188.115L507.852 190.447L506.364 192.693L504.637 194.823L503.681 195.897L502.18 197.492L500.575 199.01L498.877 200.451L497.092 201.803L492.491 205.091L491.77 205.601L491.046 206.106L490.315 206.603L489.578 207.093L484.09 210.714L482.572 211.747L481.09 212.823L479.644 213.938L478.24 215.093L475.854 217.113L474.001 218.794L472.287 220.581L470.721 222.461L469.258 224.508L467.682 227.155L466.453 229.801L465.528 232.502L464.921 235.226L464.661 237.456L464.62 239.666L464.798 241.841L465.195 243.964L465.618 245.725L466.093 247.463L466.675 249.165L467.357 250.825L468.145 252.436L469.76 255.496L470.413 256.697L471.094 257.882L471.804 259.051L472.545 260.203L475.552 264.769L475.998 265.455L476.439 266.147L476.874 266.842L477.298 267.54L479.68 271.489L480.561 273.041L481.362 274.632L482.083 276.264L482.724 277.928L482.837 278.246L483.691 281.035L484.31 283.901L484.682 286.833L484.815 289.814L484.767 291.806L484.613 293.806L484.35 295.816L483.986 297.826L483.254 301.333L483.004 302.689L482.82 304.044L482.704 305.396L482.656 306.741L482.624 309.636L482.749 311.806L483.168 313.904L483.875 315.906L484.864 317.782L485.251 318.403L486.562 320.153L488.169 321.684L490.046 322.963L492.153 323.971L492.951 324.28L495.1 324.928L497.394 325.257L499.776 325.258L502.317 324.906L505.173 324.106L507.777 322.917L510.157 321.356L512.235 319.479L513.704 317.69L514.866 315.768L515.699 313.755L516.178 311.701L517.008 305.981L517.043 305.755L518.005 300.728L519.312 295.853L520.982 291.014L523.005 286.233L523.176 285.862L525.364 281.114L526.498 278.502L527.499 275.867L528.365 273.211L529.096 270.544L529.64 268.123L530.07 265.7L530.388 263.28L530.591 260.867L530.765 257.936L530.83 256.722L530.875 255.51L530.905 254.3L530.914 253.095L530.914 248.36L530.923 246.862L530.949 245.361L530.993 243.858L531.052 242.353L531.23 238.505L531.328 236.837L531.474 235.163L531.664 233.489L531.899 231.813L532.427 228.385L532.74 226.656L533.148 224.927L533.649 223.204L534.243 221.491L535.347 218.553L536.123 216.747L537.081 214.983L538.21 213.278L539.5 211.65L540.952 209.969L542.617 208.281L544.52 206.799L546.611 205.553L548.847 204.576L549.144 204.467L551.852 203.71L554.598 203.393L557.279 203.524L559.802 204.104L561.841 204.973L563.627 206.156L565.118 207.614L566.267 209.313L566.893 210.476L567.656 212.176L568.174 213.977L568.441 215.851L568.447 217.776L568.306 220.084L568.113 221.968L567.769 223.857L567.278 225.74L566.638 227.61L565.594 230.338L564.87 232.126L564.07 233.899L563.194 235.654L562.243 237.386L559.448 242.272L559.056 242.95L558.661 243.625L558.26 244.302L557.855 244.974L556.761 246.784L554.83 250.019L552.944 253.269L551.105 256.535L549.311 259.814L548.418 261.471L547.996 262.254L547.574 263.031L547.149 263.812L546.721 264.591L542.99 271.359L542.592 272.076L542.194 272.792L541.794 273.51L541.393 274.225L537.774 280.662L537.255 281.597L536.751 282.536L536.259 283.476L535.779 284.423L533.679 288.629L532.795 290.526L532.022 292.445L531.361 294.381L530.816 296.328L530.569 297.32L530.047 299.899L529.772 302.473L529.747 305.023L529.968 307.53L530.402 309.849L531.056 312.098L531.923 314.266L532.999 316.338L534.098 318.217L534.847 319.403L535.685 320.539L536.606 321.616L537.606 322.635L541.019 325.869L541.949 326.617L543.012 327.221L544.188 327.672L545.453 327.96L547.446 328.274L549.731 328.279L552.014 327.623L554.043 326.378L555.604 324.675L556.335 323.264L556.688 321.793L556.642 320.348L556.197 319.008L553.833 314.345L553.575 313.86L553.298 313.387L552.998 312.926L552.679 312.477L550.168 309.088L548.931 307.219L547.898 305.237L547.086 303.153L546.492 300.988L546.094 298.466L545.989 295.882L546.174 293.259L546.649 290.624L546.803 289.972L547.363 287.92L548.078 285.882L548.944 283.867L549.952 281.891L550.321 281.226L551.818 278.727L553.511 276.305L555.388 273.974L557.439 271.746L558.044 271.128L559.697 269.515L561.425 267.964L563.226 266.48L565.095 265.065L567.535 263.296L569.234 262.039L570.896 260.745L572.526 259.415L574.121 258.054L575.566 256.791L577.695 254.889L579.779 252.946L581.809 250.964L583.791 248.947L585.729 246.931L586.852 245.752L587.965 244.562L589.065 243.367L590.153 242.162L593.716 238.191L594.738 237.047L595.756 235.9L596.771 234.75L597.78 233.599L600.674 230.29L602.04 228.721L603.4 227.147L604.754 225.568L606.101 223.985L607.71 222.086L609.302 220.194L610.879 218.297L612.446 216.389L613.994 214.475L614.474 213.881L616.297 211.596L618.099 209.3L619.876 206.993L621.634 204.675L623.317 202.411L624.981 200.135L626.623 197.85L628.244 195.555L631.557 190.823L635.633 184.992L636.875 183.249L638.157 181.524L639.473 179.817L640.824 178.129L643.143 175.374L645.556 172.677L648.06 170.037L650.68 167.438L652.285 165.914L653.891 164.444L655.526 162.995L657.19 161.574L660.707 158.615L661.814 157.673L662.914 156.72L664.001 155.759L665.075 154.788L667.552 152.531L669.568 150.631L671.517 148.679L673.394 146.678L675.196 144.629L677.118 142.285L678.941 139.888L680.663 137.445L682.279 134.957L683.267 133.37L684.163 131.904L685.033 130.427L685.871 128.942L686.682 127.45L689.008 123.07L689.677 121.861L690.388 120.666L691.143 119.488L691.94 118.326L694.266 115.048L695.627 113.307L697.16 111.668L698.854 110.149L700.687 108.765L701.061 108.506L703.73 106.889L706.581 105.596L709.551 104.659L712.575 104.094L714.991 103.92L717.365 103.994L719.67 104.316L721.871 104.882L724.911 105.854L726.303 106.338L727.661 106.877L728.977 107.475L730.249 108.133L735.724 111.125L736.316 111.448L736.899 111.778L737.482 112.11L738.063 112.445L745.274 116.668L745.574 116.844L745.877 117.022L746.177 117.2L746.477 117.376L752.336 120.835L753.576 121.57L754.812 122.312L756.039 123.064L757.263 123.818L760.906 126.074L762.252 126.924L763.581 127.789L764.896 128.673L766.195 129.572L769.228 131.706L770.588 132.695L771.906 133.723L773.184 134.792L774.419 135.895L776.882 138.172L778.064 139.342L779.154 140.584L780.148 141.892L781.044 143.262L782.46 145.603L783.283 147.213L783.878 148.922L784.238 150.709L784.356 152.555L784.354 153.069L784.091 155.687L783.326 158.3L782.076 160.83L780.381 163.204L778.691 164.987L776.771 166.579L774.652 167.953L772.381 169.08L769.742 170.207L767.947 170.914L766.12 171.519L764.269 172.016L762.404 172.404L758.1 173.167L756.298 173.463L754.495 173.712L752.693 173.909L750.896 174.059L747.355 174.306L745.1 174.442L742.845 174.543L740.598 174.602L738.357 174.623L736.518 174.624L733.908 174.606L731.304 174.551L728.712 174.456L726.125 174.326L721.728 174.07L720.803 174.02L719.879 173.981L718.95 173.953L718.018 173.933L713.806 173.871L711.109 173.906L708.391 174.085L705.664 174.414L702.935 174.888L699.901 175.589L696.894 176.468L693.931 177.517L691.026 178.734L690.387 179.024L688.139 180.095L685.936 181.254L683.786 182.501L681.689 183.829L679.676 185.161L677.77 186.458L675.904 187.8L674.073 189.184L672.285 190.612L669.672 192.755L668.155 194.017L666.654 195.295L665.176 196.59L663.714 197.904L660.47 200.856L659.172 202.043L657.882 203.235L656.598 204.437L655.326 205.641L652.802 208.041L651.056 209.692L649.301 211.338L647.533 212.976L645.759 214.605L643.163 216.96L640.548 219.299L637.91 221.62L635.257 223.923L632.405 226.384L631.997 226.734L631.59 227.086L631.183 227.438L630.778 227.79L623.222 234.354L622.925 234.61L622.629 234.868L622.33 235.128L622.033 235.384L615.38 241.129L614.513 241.882L613.652 242.639L612.795 243.398L611.941 244.164L608.752 247.036L606.779 248.777L604.761 250.476L602.704 252.137L600.605 253.755L597.929 255.72L595.194 257.615L592.405 259.437L589.563 261.191L586.979 262.738L585.971 263.331L584.956 263.913L583.931 264.48L582.896 265.033L578.619 267.286L576.5 268.479L574.458 269.786L572.499 271.203L570.639 272.72L569.99 273.279L567.798 275.344L565.817 277.557L564.069 279.901L562.571 282.349L562.007 283.38L561.107 285.206L560.395 287.067L559.872 288.954L559.546 290.847L559.23 293.466L559.167 295.278L559.418 297.036L559.978 298.693L560.836 300.219L562.764 302.286L565.282 303.801L568.242 304.68L571.473 304.87L571.845 304.85L573.577 304.675L575.307 304.322L577.009 303.791L578.656 303.096L584.797 300.144L585.448 299.827L586.095 299.5L586.735 299.164L587.372 298.821L592.911 295.775L594.793 294.73L596.668 293.668L598.531 292.593L600.386 291.505L602.877 290.028L604.979 288.803L607.098 287.61L609.235 286.445L611.392 285.31L612.486 284.745L615.152 283.404L617.848 282.117L620.571 280.891L623.32 279.723L626.149 278.59L629.001 277.524L631.873 276.519L634.762 275.58L635.222 275.436L637.836 274.644L640.459 273.901L643.09 273.211L645.731 272.568L649.158 271.767L650.614 271.419L652.068 271.045L653.518 270.652L654.963 270.24L655.436 270.101L659.482 268.818L663.481 267.366L667.422 265.746L671.295 263.963L672.864 263.185L674.416 262.382L675.957 261.551L677.481 260.695L681.442 258.427L683.19 257.452L684.96 256.518L686.754 255.628L688.567 254.777L689.801 254.219L692.873 252.909L695.997 251.752L699.163 250.744L702.363 249.895L704.924 249.33L707.496 248.867L710.069 248.509L712.641 248.25L715.515 248.021L717.325 247.893L719.136 247.799L720.94 247.738L722.738 247.71L724.219 247.702L727.44 247.744L730.636 247.913L733.795 248.21L736.91 248.632L739.313 249.048L741.68 249.54L744.017 250.105L746.314 250.746L751.721 252.35L752.068 252.455L752.531 252.593L759.078 254.584L760.84 255.115L762.606 255.632L764.38 256.143L766.157 256.641L770.669 257.891L771.899 258.24L773.12 258.603L774.337 258.98L775.543 259.369L778.977 260.505L781.168 261.277L783.304 262.135L785.387 263.069L787.412 264.083L787.81 264.293L790.173 265.628L792.433 267.083L794.584 268.652L796.617 270.334L798.355 271.946L799.991 273.643L801.518 275.42L802.938 277.272L803.815 278.493L804.861 279.996L805.851 281.531L806.787 283.097L807.669 284.694L809.03 287.263L809.777 288.71L810.501 290.166L811.2 291.635L811.874 293.116L814.13 298.198L814.332 298.656L814.534 299.116L814.733 299.577L814.929 300.039L816.912 304.731L817.672 306.427L818.494 308.094L819.379 309.729L820.332 311.33L822.011 313.855L823.85 316.278L825.846 318.594L827.993 320.797L829.381 322.088L830.822 323.333L832.315 324.532L833.858 325.679L835.915 327.158L837.483 328.258L839.082 329.328L840.707 330.367L842.36 331.378L843.901 332.3L845.929 333.487L847.983 334.643L850.064 335.769L852.169 336.861L853.674 337.627L855.491 338.539L857.321 339.433L859.162 340.309L861.016 341.17L866.927 343.87L873.03 346.658L874.788 347.475L876.53 348.31L878.259 349.163L879.975 350.037L881.431 350.788L883.638 351.959L885.809 353.17L887.949 354.423L890.053 355.717L892.311 357.178L894.525 358.686L896.696 360.24L898.899 361.906L900.804 363.408L902.587 364.881L904.338 366.383L906.049 367.92L906.741 368.553L908.393 370.093L910.015 371.66L911.606 373.248L913.167 374.863L913.694 375.418L915.306 377.142L916.889 378.89L918.442 380.659L919.964 382.45L920.39 382.961L921.841 384.718L923.263 386.491L924.66 388.284L926.032 390.092L926.884 391.23L928.05 392.805L929.201 394.389L930.341 395.985L931.461 397.587L933.609 400.686L934.227 401.581L934.843 402.479L935.455 403.38L936.065 404.282L939.7 409.682L940.029 410.165L940.354 410.649L940.683 411.135L941.014 411.617L944.787 417.132L945.355 417.958L945.928 418.781L946.511 419.602L947.096 420.42L950.008 424.453L950.868 425.614L951.756 426.752L952.673 427.874L953.623 428.972L955.857 431.501L957.103 432.834L958.432 434.096L959.845 435.29L961.332 436.414L963.056 437.642L964.855 438.797L966.784 439.803L968.824 440.649L970.969 441.328L971.823 441.56L974.385 442.112L977.047 442.397L979.775 442.414L982.538 442.162L985.328 441.637L988.085 440.85L990.772 439.806L993.36 438.524L993.959 438.191L996.182 436.848L998.291 435.352L1000.26 433.715L1002.09 431.951L1003.03 430.963L1004.72 429.093L1006.26 427.144L1007.65 425.124L1008.9 423.045L1009.55 421.873L1010.66 419.727L1011.64 417.546L1012.48 415.34L1013.19 413.117L1013.51 412.023L1014.1 409.721L1014.58 407.416L1014.94 405.112L1015.17 402.81L1015.25 401.857L1015.37 399.549L1015.39 397.253L1015.31 394.969L1015.12 392.709L1015.02 391.745L1014.75 389.529L1014.39 387.334L1013.95 385.159L1013.43 383.01L1013.11 381.788L1012.54 379.78L1011.93 377.79L1011.26 375.822L1010.53 373.878L1009.89 372.237L1009.16 370.425L1008.4 368.63L1007.61 366.847L1006.78 365.081L1005.77 362.99L1004.99 361.373L1004.18 359.768L1003.36 358.169L1002.52 356.581L1001.27 354.233L1000.42 352.667L999.555 351.106L998.68 349.556L997.787 348.012L996.414 345.654L995.515 344.131L994.59 342.624L993.64 341.132L992.67 339.652L991.353 337.688L990.237 336.064L989.074 334.47L987.865 332.906L986.608 331.372L985.763 330.363L984.237 328.622L982.638 326.938L980.963 325.311L979.219 323.743L977.142 322.032L974.977 320.402L972.731 318.857L970.402 317.401L969.442 316.832L967.825 315.892L966.178 314.989L964.502 314.121L962.801 313.287L956.695 310.387L954.253 309.277L951.698 307.461L950.157 304.878L949.812 301.836Z" fill="#0F000A" stroke="#6A5FDB" stroke-width="2.72236"/>
<path d="M788.473 282.105L786.892 282.976L785.247 283.903L784.23 285.359L784.109 286.952L784.92 288.256L786.76 289.804L787.301 290.366L787.702 291.019L787.949 291.745L788.038 292.517L788.084 298.222L788.029 299.33L787.847 300.446L787.541 301.557L787.112 302.654L785.567 306.101L784.463 307.831L782.861 309.271L780.911 310.29L778.79 310.79L776.768 310.744L774.942 310.177L773.474 309.141L772.485 307.722L770.781 303.98L770.623 303.614L770.479 303.242L770.35 302.862L770.238 302.478L769.248 298.827L768.355 296.508L767.005 294.412L765.232 292.604L763.087 291.13L761.126 290.211L758.994 289.557L756.733 289.173L754.381 289.072L748.694 289.17L748.333 289.177L747.97 289.187L747.611 289.202L747.248 289.217L746.246 289.268L741.351 289.397L736.499 289.296L731.701 288.962L726.973 288.4L725.526 288.19L725.275 288.155L722.532 287.767L718.406 287.217L714.26 286.722L710.093 286.286L705.913 285.906L704.604 285.794L703.812 285.727L703.018 285.655L702.228 285.577L701.437 285.499L696.557 284.993L694.172 284.783L691.767 284.64L689.343 284.566L686.907 284.56L683.602 284.662L680.28 284.888L676.951 285.239L673.618 285.714L673.145 285.789L670.914 286.176L668.684 286.613L666.461 287.099L664.246 287.639L659.967 288.726L658.546 289.078L657.124 289.408L655.697 289.716L654.268 290.004L647.682 291.276L646.604 291.509L645.533 291.791L644.472 292.123L643.423 292.498L639.642 293.954L637.303 295.099L635.226 296.62L633.503 298.447L632.216 300.497L631.472 302.493L631.174 304.513L631.336 306.48L631.952 308.318L633.451 311.452L633.83 312.196L634.255 312.917L634.721 313.612L635.225 314.285L638.428 318.299L639.186 319.506L639.651 320.849L639.813 322.284L639.662 323.767L639.414 324.975L638.635 326.985L637.206 328.781L635.27 330.185L633.02 331.055L631.289 331.301L629.605 331.191L628.058 330.737L626.735 329.957L622.644 326.755L622.259 326.462L621.859 326.179L621.449 325.911L621.028 325.653L618.606 324.222L615.953 322.964L613.018 322.156L609.886 321.822L606.646 321.968L604.574 322.311L602.521 322.843L600.51 323.559L598.564 324.448L592.946 327.323L592.387 327.612L591.832 327.908L591.28 328.209L590.732 328.516L582.585 333.127L581.99 333.474L581.407 333.833L580.832 334.206L580.267 334.595L575.7 337.828L573.997 339.286L572.645 340.984L571.709 342.844L571.235 344.773L571.235 346.619L571.692 348.36L572.58 349.916L573.864 351.216L576.332 353.164L577.393 353.921L578.537 354.588L579.754 355.162L581.039 355.635L588.094 357.899L588.365 357.986L588.638 358.072L588.911 358.155L589.185 358.239L597.064 360.607L598.012 360.928L598.922 361.307L599.79 361.744L600.613 362.239L603.398 364.051L604.977 365.452L606.02 367.226L606.455 369.249L606.253 371.391L605.814 372.71L605.142 373.988L604.26 375.184L603.192 376.272L600.173 378.946L598.678 380.488L597.474 382.194L596.603 384.008L596.088 385.882L595.955 387.967L596.294 389.966L597.088 391.809L598.312 393.418L600.463 395.647L601.287 396.439L602.177 397.175L603.131 397.853L604.141 398.466L609.507 401.485L610.287 401.935L611.054 402.398L611.807 402.879L612.547 403.373L616.264 405.917L617.753 407.057L619.088 408.334L620.264 409.731L621.308 411.308L622.513 413.857L623.223 416.513L623.463 419.296L623.231 422.145L622.841 423.953L622.264 425.749L621.509 427.517L620.583 429.245L617.02 435.234L616.929 435.386L614.82 438.893L612.948 441.832L610.91 444.704L608.713 447.5L606.36 450.211L605.105 451.589L604.301 452.45L603.469 453.291L602.609 454.112L601.727 454.913L597.611 458.547L596.323 459.808L595.191 461.171L594.236 462.619L593.469 464.131L592.414 466.555L591.872 468.346L591.788 470.133L592.167 471.827L593.039 473.409L594.724 475.013L596.886 475.99L599.387 476.313L602.006 475.961L604.123 475.166L606.031 473.967L607.616 472.437L608.778 470.667L611.15 465.924L611.39 465.425L611.614 464.92L611.82 464.415L612.011 463.905L614.102 457.998L614.705 456.477L615.435 454.978L616.283 453.516L617.243 452.095L619.528 448.951L620.715 447.544L622.112 446.286L623.691 445.209L625.405 444.339L628.521 443.393L631.679 443.182L634.647 443.721L637.213 444.969L638.862 446.102L639.629 446.673L640.338 447.299L640.984 447.976L641.565 448.701L644.964 453.317L645.608 454.213L646.226 455.128L646.821 456.054L647.391 456.993L647.64 457.417L649.293 460.476L650.712 463.644L651.895 466.916L652.836 470.277L653.139 471.628L653.407 472.991L653.635 474.365L653.824 475.746L654.157 478.481L654.377 480.641L654.506 482.819L654.545 485.01L654.496 487.214L654.304 490.039L653.967 492.873L653.486 495.711L652.863 498.548L651.795 502.896L651.756 503.06L650.496 508.33L650.074 510.677L649.933 513.011L650.072 515.305L650.492 517.535L651.276 519.899L652.386 522.119L653.806 524.17L655.518 526.026L657.102 527.52L658.022 528.434L658.886 529.39L659.698 530.386L660.45 531.419L660.992 532.203L662.516 534.811L663.635 537.614L664.335 540.567L664.604 543.634L664.56 545.469L664.363 547.319L664.021 549.171L663.528 551.021L662.123 555.609L661.829 556.518L661.496 557.42L661.128 558.318L660.729 559.208L658.884 563.111L657.763 565.087L656.323 566.936L654.605 568.608L652.65 570.064L651.839 570.591L649.384 571.905L646.753 572.791L644.052 573.213L641.398 573.15L638.918 572.609L636.695 571.614L634.831 570.207L633.397 568.449L632.949 567.727L632.098 566.048L631.562 564.239L631.349 562.338L631.46 560.384L632.109 555.772L632.217 555.084L632.343 554.393L632.487 553.706L632.648 553.015L633.343 550.225L634.03 547.229L634.601 544.229L635.057 541.232L635.395 538.241L635.497 537.134L635.627 535.615L635.731 534.096L635.808 532.583L635.862 531.069L635.912 529.129L636.014 526.565L636.186 523.995L636.429 521.42L636.739 518.84L637.107 516.343L637.54 513.845L638.034 511.345L638.597 508.848L639.24 506.139L639.527 504.908L639.803 503.677L640.07 502.446L640.328 501.216L641.159 497.153L641.515 495.326L641.838 493.5L642.126 491.675L642.378 489.851L642.911 485.754L643.046 484.547L643.143 483.339L643.196 482.138L643.211 480.94L643.178 474.542L643.142 473.936L643.039 473.347L642.873 472.777L642.644 472.231L640.806 468.483L639.828 467.405L638.327 466.895L636.61 467.065L635.033 467.877L634.551 468.312L634.149 468.802L633.835 469.334L633.624 469.889L631.972 475.739L631.475 477.257L630.852 478.754L630.103 480.227L629.235 481.66L629.027 481.974L627.048 484.623L624.717 487.067L622.079 489.268L619.177 491.183L617.321 492.268L616.236 492.88L615.133 493.46L614.016 494.006L612.882 494.52L607.317 496.935L605.736 497.632L604.16 498.351L602.598 499.085L601.042 499.839L595.575 502.533L594.467 503.082L593.363 503.637L592.259 504.195L591.161 504.76L585.304 507.781L583.995 508.471L582.699 509.184L581.415 509.92L580.147 510.677L576.397 512.961L574.489 514.199L572.659 515.528L570.914 516.949L569.265 518.454L568.131 519.548L566.296 521.484L564.673 523.541L563.274 525.704L562.119 527.945L561.158 530.426L560.505 532.943L560.166 535.462L560.15 537.954L560.315 540.776L560.391 541.782L560.501 542.781L560.646 543.773L560.823 544.753L561.275 547.005L561.661 549.666L561.768 552.388L561.596 555.143L561.142 557.916L560.582 560.129L559.849 562.327L558.946 564.501L557.879 566.636L556.499 569.168L555.685 570.613L554.826 572.042L553.92 573.453L552.972 574.847L552.657 575.294L550.475 578.238L548.122 581.093L545.608 583.854L542.94 586.513L541.432 587.906L539.883 589.265L538.295 590.587L536.666 591.873L533.72 594.142L532.155 595.378L530.625 596.644L529.127 597.948L527.668 599.281L524.94 601.962L522.365 604.748L519.95 607.63L517.702 610.605L515.564 613.591L515.36 613.872L511.274 619.517L509.999 621.189L508.632 622.809L507.174 624.376L505.632 625.884L504.718 626.739L502.458 628.689L500.037 630.478L497.471 632.092L494.782 633.516L492.186 634.663L489.521 635.626L486.804 636.4L484.062 636.976L481.254 637.463L479.624 637.722L477.997 637.934L476.372 638.099L474.748 638.216L470.369 638.469L468.381 638.605L466.389 638.78L464.398 638.995L462.402 639.251L459.026 639.716L456.897 640.051L454.772 640.466L452.653 640.962L450.547 641.536L447.009 642.57L445.192 643.163L443.414 643.868L441.677 644.682L439.996 645.599L438.214 646.643L435.856 648.232L433.747 650.08L431.935 652.146L430.465 654.38L429.345 656.795L428.647 659.274L428.391 661.756L428.579 664.181L428.637 664.52L429.188 666.642L430.074 668.635L431.28 670.462L432.787 672.089L433.188 672.457L435.058 673.942L437.17 675.174L439.488 676.135L441.976 676.809L442.274 676.869L444.884 677.252L447.575 677.35L450.314 677.16L453.062 676.685L454.781 676.299L456.858 675.77L458.91 675.119L460.929 674.351L462.906 673.468L469.402 670.341L469.689 670.204L470.07 670.023L476.025 667.217L478.358 666.174L480.728 665.225L483.134 664.372L485.562 663.617L486.818 663.254L489.465 662.566L492.133 662.025L494.808 661.633L497.477 661.393L498.44 661.333L501.025 661.259L503.581 661.356L506.089 661.625L508.534 662.063L510.493 662.489L512.378 662.984L514.173 663.636L515.867 664.438L517.444 665.385L518.748 666.259L520.56 667.719L522.042 669.447L523.162 671.399L523.891 673.53L524.218 675.886L524.091 678.321L523.515 680.769L522.506 683.166L521.464 685.177L520.739 686.477L519.925 687.748L519.029 688.983L518.052 690.177L515.456 693.175L513.937 694.745L512.233 696.166L510.371 697.415L508.379 698.474L505.181 699.678L501.871 700.361L498.577 700.495L495.412 700.079L493.092 699.556L492.174 699.369L491.244 699.216L490.299 699.1L489.343 699.019L486.219 698.815L483.071 698.683L479.895 698.696L476.695 698.855L473.483 699.16L469.232 699.658L468.757 699.713L468.285 699.765L467.81 699.816L467.337 699.865L460.357 700.571L458.502 700.782L456.645 701.037L454.785 701.339L452.932 701.685L449.012 702.567L445.12 703.647L441.273 704.92L437.458 706.394L435.687 707.151L433.966 707.934L432.259 708.756L430.574 709.615L426.674 711.658L424.967 712.518L423.236 713.324L421.482 714.074L419.703 714.77L417.514 715.586L414.785 716.501L412.015 717.227L409.219 717.76L406.421 718.094L403.476 718.23L400.569 718.141L397.723 717.828L394.959 717.292L393.769 717.009L391.799 716.487L389.881 715.87L388.019 715.16L386.221 714.357L380.422 711.579L380.268 711.505L375.637 709.269L373.22 708.153L370.745 707.116L368.221 706.157L365.644 705.28L363.094 704.503L360.502 703.805L357.87 703.185L355.203 702.644L353.875 702.396L351.771 702.025L349.653 701.693L347.521 701.399L345.375 701.146L344.93 701.098L341.697 700.788L338.442 700.558L335.166 700.41L331.871 700.341L328.06 700.309L327.531 700.3L327.004 700.283L326.478 700.256L325.955 700.221L320.092 699.78L318.039 699.457L316.141 698.813L314.455 697.869L313.033 696.652L312.17 695.745L310.996 694.059L310.392 692.1L310.397 689.991L311.011 687.863L312.296 685.719L314.14 683.862L316.411 682.425L318.945 681.511L320.194 681.211L322.171 680.879L324.131 680.833L326.02 681.075L327.785 681.598L330.068 682.49L332.113 683.15L334.273 683.579L336.518 683.77L338.817 683.722L340.691 683.585L343.144 683.311L345.594 682.848L348.022 682.2L350.407 681.371L355.893 679.238L356.348 679.063L356.804 678.89L357.264 678.721L357.723 678.554L361.167 677.318L364.642 676.133L368.148 675.065L371.681 674.114L375.299 673.267L377.536 672.805L379.707 672.405L381.876 672.052L384.049 671.746L388.556 671.159L389.95 670.953L391.346 670.695L392.735 670.388L394.119 670.03L395.915 669.534L399.256 668.415L402.474 666.944L405.51 665.148L408.311 663.056L409.968 661.571L411.498 659.989L412.891 658.32L414.133 656.578L415.726 654.155L416.857 652.511L418.075 650.903L419.367 649.337L420.736 647.814L423.37 645.208L426.214 642.776L429.251 640.535L432.46 638.501L433.768 637.734L434.949 637.061L436.146 636.415L437.358 635.8L438.587 635.212L443.503 632.927L445.205 632.052L446.822 631.047L448.346 629.923L449.755 628.688L452.673 626.337L455.978 624.46L459.542 623.136L463.221 622.412L464.253 622.297L465.454 622.194L466.646 622.148L467.831 622.164L469 622.238L472.721 622.57L475.313 622.678L477.943 622.541L480.593 622.163L483.225 621.549L486.124 620.584L488.928 619.342L491.595 617.841L494.092 616.1L496.34 614.363L497.372 613.542L498.375 612.692L499.352 611.816L500.294 610.915L504.416 606.864L505.601 605.715L506.799 604.575L508.013 603.453L509.242 602.34L511.978 599.895L513.763 598.309L515.566 596.738L517.379 595.179L519.211 593.632L524.002 589.615L524.298 589.369L524.597 589.119L524.896 588.873L525.195 588.628L529.376 585.201L531.516 583.375L533.57 581.478L535.535 579.51L537.407 577.479L537.65 577.203L539.442 575.079L541.121 572.897L542.685 570.657L544.126 568.372L545.894 565.418L546.442 564.443L546.939 563.447L547.375 562.441L547.752 561.425L549.114 557.413L549.541 555.519L549.544 553.65L549.117 551.875L548.281 550.268L546.781 548.644L544.822 547.44L542.513 546.728L539.885 546.547L537.725 546.783L535.688 547.335L533.741 548.186L531.945 549.31L529.161 551.362L527.801 552.438L526.534 553.599L525.365 554.833L524.305 556.131L521.262 560.169L520.354 561.341L519.409 562.494L518.43 563.627L517.417 564.74L516.018 566.234L513.76 568.485L511.33 570.597L508.743 572.558L506.017 574.354L503.757 575.659L501.427 576.848L499.039 577.911L496.6 578.852L495.052 579.404L492.668 580.2L490.263 580.904L487.84 581.511L485.403 582.023L483.79 582.33L481.254 582.756L478.713 583.079L476.18 583.29L473.659 583.394L472.572 583.414L469.931 583.395L467.322 583.23L464.757 582.917L462.245 582.463L459.462 581.771L456.774 580.901L454.194 579.852L451.681 578.601L449.624 577.392L447.728 576.102L445.942 574.702L444.275 573.198L443.244 572.202L441.847 570.784L440.525 569.308L439.284 567.778L438.122 566.195L437.295 565.01L436.08 563.187L434.941 561.321L433.879 559.414L432.895 557.464L432.547 556.732L431.602 554.668L430.731 552.572L429.937 550.442L429.215 548.286L429.049 547.759L428.395 545.531L427.818 543.279L427.32 541.002L426.902 538.703L426.821 538.197L426.492 535.895L426.25 533.574L426.098 531.231L426.034 528.876L426.03 528.436L426.063 526.008L426.193 523.571L426.426 521.124L426.773 518.593L427.24 515.974L427.803 513.437L428.475 510.906L429.258 508.385L430.143 505.882L431.136 503.395L432.231 500.927L433.428 498.484L433.647 498.057L434.831 495.838L436.091 493.645L437.424 491.477L438.834 489.337L439.946 487.701L441.138 486.008L442.392 484.345L443.705 482.714L445.08 481.115L446.981 478.972L448.491 477.361L450.093 475.82L451.79 474.353L453.567 472.966L455.033 471.884L457.264 470.367L459.622 469.027L462.082 467.873L464.715 466.885L467.739 466.031L470.7 465.49L473.658 465.239L476.576 465.281L479.208 465.58L481.745 466.125L484.158 466.912L486.424 467.93L487.129 468.295L489.103 469.437L490.935 470.738L492.604 472.189L494.104 473.778L495.45 475.36L496.51 476.674L497.491 478.04L498.396 479.449L499.22 480.907L502.208 486.553L505.129 492.1L505.972 493.619L506.881 495.1L507.857 496.543L508.9 497.944L510.147 499.546L511.524 501.18L513.034 502.713L514.672 504.143L516.43 505.461L517.002 505.86L519.126 507.189L521.4 508.345L523.804 509.312L526.328 510.087L528.999 510.673L531.756 511.051L534.575 511.216L537.441 511.17L537.921 511.144L540.521 510.925L543.123 510.549L545.718 510.018L548.294 509.333L549.414 509.001L551.942 508.171L554.427 507.201L556.855 506.093L559.218 504.853L560.287 504.254L562.539 502.887L564.679 501.381L566.696 499.741L568.575 497.981L570.659 495.692L572.494 493.269L574.066 490.733L575.358 488.11L575.571 487.618L576.325 485.701L576.935 483.765L577.402 481.819L577.724 479.871L578.353 474.912L578.439 474.285L578.532 473.656L578.639 473.027L578.755 472.4L579.551 468.238L580.119 465.937L580.937 463.664L582.002 461.434L583.297 459.272L584.944 457.036L586.833 454.928L588.938 452.972L591.233 451.196L595.552 448.149L595.82 447.951L596.072 447.741L596.314 447.521L596.543 447.288L597.767 445.196L597.813 442.997L596.674 441.2L594.606 440.214L593.815 440.054L593.09 439.953L592.34 439.938L591.58 440.008L590.821 440.163L585.724 441.493L583.467 441.996L581.202 442.322L578.942 442.475L576.709 442.449L570.878 442.147L570.349 442.12L569.818 442.101L569.287 442.084L568.756 442.07L568.027 442.058L563.215 442.078L558.373 442.31L553.507 442.759L548.636 443.421L547.877 443.541L547.345 443.621L546.81 443.698L546.278 443.773L545.745 443.84L540.193 444.533L537.758 444.742L535.35 444.753L532.985 444.567L530.687 444.188L527.88 443.427L525.249 442.364L522.828 441.016L520.657 439.401L520.291 439.089L518.901 437.791L517.65 436.384L516.544 434.877L515.588 433.282L513.918 430.164L513.357 429.079L512.832 427.977L512.345 426.857L511.892 425.723L510.98 423.32L510.176 421.099L509.437 418.854L508.764 416.582L508.161 414.29L507.06 409.844L506.98 409.518L506.866 409.084L505.777 405.017L505 402.596L503.994 400.267L502.76 398.047L501.312 395.949L499.868 394.22L498.274 392.602L496.533 391.105L494.655 389.736L492.858 388.534L491.451 387.63L490.004 386.775L488.513 385.968L486.985 385.212L485.059 384.302L482.806 383.294L480.494 382.368L478.128 381.529L475.712 380.775L472.94 380.033L470.114 379.404L467.239 378.887L464.321 378.485L463.675 378.41L461.368 378.172L459.04 377.998L456.696 377.888L454.337 377.842L448.703 377.808L448.144 377.805L447.582 377.805L447.022 377.806L446.463 377.808L442.444 377.832L439.265 377.82L436.097 377.755L432.941 377.632L429.799 377.456L427.277 377.271L424.767 377.048L422.266 376.794L419.777 376.499L415.919 376.016L414.76 375.876L413.595 375.745L412.431 375.625L411.261 375.512L407.978 375.211L405.164 374.997L402.328 374.87L399.469 374.829L396.597 374.873L393.708 375.007L390.809 375.225L387.902 375.532L384.997 375.921L383.416 376.159L381.296 376.493L379.176 376.862L377.056 377.27L374.942 377.711L372.73 378.192L370.145 378.729L367.558 379.217L364.968 379.659L362.376 380.05L358.674 380.575L357.304 380.753L355.935 380.9L354.568 381.012L353.202 381.096L346.981 381.392L345.674 381.504L344.366 381.715L343.066 382.022L341.783 382.425L338.44 383.986L335.493 386.141L333.107 388.769L331.416 391.722L330.583 393.675L330.355 394.238L330.148 394.805L329.959 395.375L329.794 395.948L329.333 397.652L328.156 400.883L326.408 403.984L324.14 406.872L321.411 409.467L320.043 410.527L318.604 411.506L317.101 412.399L315.543 413.2L311.954 414.912L309.959 415.909L308.003 416.977L306.09 418.114L304.224 419.318L301.371 421.232L299.712 422.366L298.078 423.533L296.469 424.724L294.886 425.946L290.483 429.414L289.592 430.111L288.697 430.805L287.799 431.496L286.897 432.185L281.419 436.338L280.331 437.173L279.252 438.018L278.185 438.876L277.129 439.745L275.743 440.894L273.011 443.25L270.383 445.694L267.864 448.22L265.458 450.823L264.01 452.492L262.609 454.186L261.257 455.909L259.955 457.654L257.921 460.455L256.871 461.875L255.795 463.284L254.695 464.681L253.57 466.066L251.157 468.988L249.823 470.548L248.429 472.073L246.978 473.558L245.472 475.004L243.576 476.763L241.742 478.374L239.805 479.886L237.776 481.296L235.663 482.597L234.282 483.398L231.976 484.619L229.584 485.667L227.127 486.53L224.624 487.201L222.959 487.582L220.661 487.993L218.367 488.178L216.105 488.135L213.905 487.862L211.702 487.472L209.813 486.982L208.086 486.224L206.565 485.211L205.288 483.974L203.888 481.736L203.203 479.181L203.273 476.454L204.092 473.719L204.207 473.456L205.117 471.74L206.294 470.123L207.71 468.64L209.334 467.324L213.573 464.308L214.546 463.638L215.542 462.998L216.56 462.389L217.597 461.81L223.388 458.698L224.74 457.981L226.1 457.278L227.468 456.589L228.843 455.916L232.625 454.087L234.773 453.061L236.932 452.056L239.102 451.076L241.281 450.117L244.955 448.524L246.444 447.863L247.923 447.182L249.391 446.475L250.847 445.745L254.683 443.68L258.422 441.461L262.052 439.09L265.566 436.574L267.063 435.45L267.61 435.039L268.153 434.625L268.694 434.208L269.232 433.787L274.336 429.779L275.911 428.536L277.482 427.289L279.047 426.038L280.607 424.783L286.161 420.292L286.434 420.073L286.708 419.856L286.984 419.639L287.261 419.424L289.34 417.815L292.54 415.117L295.457 412.186L298.06 409.056L300.322 405.761L301.117 404.418L301.853 403.059L302.53 401.684L303.145 400.294L305.058 395.735L305.622 394.434L306.222 393.143L306.855 391.858L307.523 390.583L309.919 386.138L310.698 384.804L311.573 383.502L312.542 382.246L313.598 381.036L316.564 378.282L319.951 375.943L323.659 374.085L327.578 372.766L329.003 372.398L329.911 372.174L330.82 371.978L331.735 371.807L332.649 371.663L336.625 371.093L339.543 370.631L342.456 370.086L345.362 369.457L348.258 368.747L353.039 367.504L353.526 367.378L354.016 367.254L354.505 367.132L354.996 367.013L357.214 366.48L361.383 365.587L365.563 364.91L369.741 364.454L373.905 364.214L375.509 364.183L377.11 364.184L378.704 364.215L380.293 364.283L383.437 364.448L385.971 364.561L388.515 364.63L391.068 364.655L393.629 364.641L396.053 364.606L398.044 364.567L400.039 364.513L402.036 364.441L404.035 364.351L405.903 364.259L408.766 364.103L411.633 363.916L414.502 363.698L417.375 363.449L418.168 363.375L420.718 363.125L423.269 362.85L425.818 362.546L428.37 362.215L431.645 361.747L434.919 361.235L438.192 360.676L441.465 360.074L444.592 359.474L445.577 359.291L446.56 359.118L447.546 358.952L448.53 358.799L453.742 358.008L455.97 357.722L458.192 357.544L460.4 357.477L462.59 357.517L463.095 357.539L466.283 357.809L469.384 358.331L472.375 359.105L475.23 360.123L477.268 361.039L479.208 362.085L481.04 363.256L482.761 364.543L486.389 367.486L486.818 367.828L487.248 368.168L487.685 368.503L488.121 368.836L491.885 371.659L493.656 372.913L495.505 374.081L497.431 375.163L499.431 376.151L501.315 377.027L503.052 377.905L504.702 378.889L506.261 379.974L507.721 381.153L509.895 383.299L511.762 385.669L513.3 388.236L514.492 390.979L515.039 392.49L515.361 393.436L515.651 394.392L515.909 395.361L516.136 396.339L517.162 401.123L517.549 402.499L518.106 403.809L518.83 405.038L519.712 406.171L521.086 407.73L522.779 409.189L524.875 410.219L527.264 410.761L529.822 410.788L532.134 410.377L534.378 409.572L536.458 408.408L538.293 406.931L540.311 404.996L541.393 403.883L542.371 402.705L543.238 401.473L543.992 400.194L545.35 397.653L546.275 395.447L546.728 393.189L546.687 390.968L546.158 388.863L545.337 387.223L544.2 385.763L542.773 384.525L541.096 383.539L536.138 381.185L535.808 381.032L535.476 380.882L535.141 380.735L534.804 380.594L531.617 379.285L528.678 378.042L525.779 376.742L522.917 375.393L520.095 373.987L518.345 373.094L517.369 372.598L516.387 372.11L515.402 371.623L514.415 371.143L508.464 368.275L507.711 367.9L506.968 367.513L506.236 367.108L505.517 366.691L501.506 364.302L499.909 363.219L498.479 361.974L497.229 360.585L496.176 359.065L495.791 358.421L494.79 356.338L494.194 354.091L494.011 351.737L494.25 349.326L494.86 347.039L495.829 344.801L497.141 342.655L498.766 340.648L499.441 339.917L501.108 338.27L502.943 336.762L504.925 335.412L507.031 334.236L509.209 333.141L511.26 332.196L513.364 331.386L515.509 330.721L517.685 330.204L518.994 329.938L521.789 329.526L524.561 329.42L527.268 329.629L529.868 330.146L532.165 330.901L534.3 331.905L536.236 333.149L537.95 334.611L538.966 335.612L540.277 337.027L541.437 338.546L542.44 340.162L543.278 341.864L544.858 345.504L545.194 346.302L545.51 347.105L545.812 347.917L546.094 348.735L547.504 352.362L549.263 355.831L551.361 359.12L553.785 362.204L554.002 362.455L554.502 363.023L555.013 363.578L555.536 364.128L556.069 364.666L559.293 367.862L560.571 369.269L561.683 370.787L562.624 372.405L563.382 374.113L564.158 376.733L564.524 379.471L564.481 382.284L564.025 385.13L563.875 385.783L563.407 387.506L562.811 389.218L562.082 390.905L561.23 392.565L558.993 396.582L558.327 397.745L557.637 398.901L556.916 400.047L556.171 401.183L552.901 406.049L552.198 407.164L551.575 408.301L551.027 409.46L550.558 410.639L549.878 412.526L549.243 415L549.109 417.463L549.482 419.836L550.351 422.044L551.454 423.728L552.864 425.204L554.551 426.44L556.478 427.403L559.755 428.729L560.913 429.164L562.102 429.547L563.319 429.877L564.564 430.15L570.888 431.397L571.901 431.576L572.924 431.718L573.96 431.827L575.008 431.898L579.129 432.103L581.43 432.058L583.752 431.696L586.042 431.025L588.237 430.063L589.845 429.232L591.676 428.091L593.268 426.688L594.563 425.08L595.502 423.332L596.149 420.915L596.07 418.532L595.278 416.352L593.822 414.517L591.716 412.586L591.071 411.947L590.481 411.264L589.953 410.541L589.484 409.781L588.303 407.689L587.099 405.261L586.152 402.719L585.472 400.079L585.064 397.36L584.693 393.642L584.665 393.34L584.639 393.038L584.617 392.734L584.594 392.431L584.49 390.76L584.011 387.097L583.044 383.57L581.604 380.229L579.709 377.113L579.061 376.152L578.454 375.165L577.896 374.155L577.38 373.122L577.168 372.665L575.562 369.676L573.64 366.863L571.414 364.248L568.905 361.849L566.921 360.138L566.72 359.962L566.455 359.728L561.633 355.402L560.539 354.283L559.616 353.045L558.87 351.7L558.315 350.268L557.806 347.332L558.043 344.268L559.015 341.21L560.679 338.3L561.484 337.167L562.262 336.143L563.105 335.155L564.014 334.211L564.983 333.312L569.887 329.012L570.861 328.17L571.851 327.342L572.854 326.53L573.873 325.732L577.157 323.196L579.138 321.617L581.06 319.986L582.926 318.303L584.73 316.57L587.134 314.285L589.642 312.087L592.253 309.982L594.961 307.976L597.901 305.883L598.532 305.438L599.164 304.998L599.799 304.56L600.44 304.125L606.85 299.794L607.96 299.051L609.076 298.317L610.195 297.591L611.322 296.875L614.27 295.015L616.741 293.505L619.259 292.057L621.816 290.679L624.413 289.369L627.203 288.057L630.032 286.826L632.894 285.677L635.785 284.612L636.34 284.417L638.802 283.583L641.279 282.803L643.769 282.079L646.27 281.416L651.389 280.117L652.099 279.933L652.808 279.75L653.518 279.564L654.227 279.376L659.572 277.947L661.958 277.325L664.349 276.732L666.744 276.174L669.143 275.644L672.509 274.925L674.217 274.576L675.93 274.256L677.643 273.971L679.356 273.716L680.689 273.531L684.099 272.982L687.505 272.28L690.89 271.431L694.369 270.399L696.689 269.624L698.87 268.821L701.029 267.955L703.161 267.028L704.852 266.261L707.36 265.195L709.908 264.245L712.493 263.414L715.102 262.704L718.217 262.025L721.341 261.526L724.466 261.204L727.573 261.064L729.209 261.037L731.035 261.035L732.85 261.08L734.654 261.178L736.444 261.323L738.112 261.484L741.087 261.82L744.029 262.25L746.934 262.777L749.842 263.408L752.311 264.025L754.709 264.702L757.07 265.446L759.393 266.256L763.727 267.844L764.283 268.044L764.838 268.245L765.396 268.443L765.954 268.64L773.303 271.204L774.14 271.484L774.99 271.743L775.854 271.98L776.727 272.193L784.032 273.887L784.776 274.11L785.462 274.426L786.079 274.829L786.61 275.307L789.069 277.892L789.715 279.207L789.497 280.736L788.473 282.105Z" fill="#0F000A" stroke="#6A5FDB" stroke-width="2.72236"/>
<path d="M260.29 497.402C289.134 485.569 314.152 499.768 314.152 526.689C314.152 580.529 249.988 611 174.639 611C121.954 611 104 598.871 104 580.234C104 570.767 109.004 561.892 131.078 563.963L260.584 575.5C277.655 576.979 285.308 568.992 285.308 560.709C285.308 552.13 278.538 546.213 260.584 543.847L155.214 530.83C132.844 528.168 125.192 514.56 125.192 500.36C125.192 489.414 129.312 475.51 155.214 467.227L270.003 430.545C283.836 426.107 286.191 420.191 286.191 412.795C285.896 403.328 277.067 401.849 269.708 403.92L166.987 434.39C146.089 440.603 106.649 454.211 104.294 414.274C102.823 390.608 121.954 381.437 146.384 381.437H255.58C286.779 381.437 302.379 395.933 302.379 415.457C302.379 426.403 294.726 437.349 281.481 446.815L193.771 508.051C181.998 516.335 187.884 527.28 201.424 521.66L260.29 497.402ZM342.862 426.995C342.862 407.47 361.11 377 426.158 377C513.868 377.591 543.89 396.228 543.89 426.699C543.89 443.857 537.709 449.478 516.517 459.24L467.658 481.723C463.832 483.498 462.066 485.864 462.949 489.414C463.538 492.077 465.892 494.443 472.368 494.739L496.503 495.627C530.351 496.81 546.539 513.672 546.539 553.905C546.539 591.179 507.982 610.704 452.353 610.704C386.423 610.112 331.972 600.054 331.972 549.467C331.972 520.772 341.685 500.952 375.827 498.289L408.203 495.627C414.973 495.035 417.328 491.781 417.328 487.935C417.328 484.089 414.384 480.835 409.675 479.652C360.522 467.227 342.862 453.323 342.862 426.995ZM462.36 508.643C446.172 497.402 436.753 496.514 419.682 508.643L361.11 550.651C352.575 556.863 353.458 568.105 366.114 568.105L518.872 567.217C530.645 567.217 532.117 557.455 523.287 551.242L462.36 508.643ZM424.392 469.298C430.573 482.906 443.523 482.906 455.002 474.623L494.148 446.815C502.978 440.603 503.861 432.911 492.971 427.586L421.154 392.679C402.905 383.804 388.483 391.791 396.136 408.062L424.392 469.298ZM662.018 377C717.94 377 769.448 414.866 769.448 440.899C769.448 462.494 741.193 478.173 718.235 451.252L674.968 400.37C648.184 369.012 596.676 417.824 637.883 439.715L654.071 448.294C678.795 461.606 670.259 487.639 649.361 493.556L596.382 508.347C584.02 511.897 584.609 522.547 596.088 529.647L691.156 587.629C704.696 595.912 712.054 587.038 709.699 573.725L704.696 545.622C701.752 528.759 701.752 503.022 726.476 500.36C756.498 497.106 765.328 516.335 765.328 537.043C765.328 575.5 732.068 610.704 675.557 610.704C607.861 610.704 560.474 560.117 560.474 489.71C560.474 426.403 592.556 377 662.018 377ZM941.138 497.402C969.982 485.569 995 499.768 995 526.689C995 580.529 930.836 611 855.487 611C802.802 611 784.848 598.871 784.848 580.234C784.848 570.767 789.851 561.892 811.926 563.963L941.432 575.5C958.503 576.979 966.156 568.992 966.156 560.709C966.156 552.13 959.386 546.213 941.432 543.847L836.061 530.83C813.692 528.168 806.04 514.56 806.04 500.36C806.04 489.414 810.16 475.51 836.061 467.227L950.85 430.545C964.684 426.107 967.039 420.191 967.039 412.795C966.744 403.328 957.914 401.849 950.556 403.92L847.835 434.39C826.937 440.603 787.497 454.211 785.142 414.274C783.67 390.608 802.802 381.437 827.231 381.437H936.428C967.627 381.437 983.227 395.933 983.227 415.457C983.227 426.403 975.574 437.349 962.329 446.815L874.619 508.051C862.845 516.335 868.732 527.28 882.271 521.66L941.138 497.402Z" fill="#FF5053" stroke="#FF5053" stroke-width="4.5" stroke-miterlimit="2" stroke-linejoin="round"/>
<rect x="349.251" y="208.686" width="404.372" height="87.503" fill="#0F000A"/>
<rect x="349.251" y="208.686" width="404.372" height="87.503" stroke="#6A5FDB" stroke-width="2.85866"/>
<path d="M389.85 233.584H395.133V270.937H389.85V233.584ZM425.354 233.584H430.637V266.188H449.26V270.937H425.354V233.584ZM476.7 233.584H481.983V266.188H500.606V270.937H476.7V233.584ZM528.046 233.584H551.899V238.333H533.329V249.753H550.405V254.555H533.329V266.188H552.166V270.937H528.046V233.584ZM579.362 256.37V248.152C579.362 238.387 585.232 232.837 594.41 232.837C603.482 232.837 608.231 238.066 608.231 246.017V246.551H602.948V245.964C602.948 241.001 600.173 237.533 594.41 237.533C588.327 237.533 584.645 241.535 584.645 248.045V256.476C584.645 262.986 588.327 266.988 594.357 266.988C600.333 266.988 603.268 263.733 603.268 258.397V257.383H592.756V252.848H608.444V257.917C608.444 266.508 603.215 271.684 594.357 271.684C585.125 271.684 579.362 266.135 579.362 256.37ZM645.058 233.584H653.222L664.748 270.937H659.252L656.477 261.866H641.749L638.975 270.937H633.532L645.058 233.584ZM643.083 257.063H655.143L649.38 238.173H648.847L643.083 257.063ZM691.881 233.584H697.164V266.188H715.787V270.937H691.881V233.584Z" fill="#FF5053"/>
<rect x="210.751" y="684.339" width="681.372" height="87.503" fill="#0F000A"/>
<rect x="210.751" y="684.339" width="681.372" height="87.503" stroke="#6A5FDB" stroke-width="2.85866"/>
<path d="M251.427 709.237H256.71V746.59H251.427V709.237ZM286.932 709.237H295.95L308.65 741.094H309.184V709.237H314.466V746.59H305.448L292.748 714.733H292.215V746.59H286.932V709.237ZM356.961 708.49C364.645 708.49 370.461 712.439 370.461 720.23V721.67H365.232V720.23C365.232 715.16 361.816 713.133 356.961 713.133C352.211 713.133 349.33 715.16 349.33 718.789C349.33 722.417 351.838 723.752 356.694 724.872L358.988 725.406C365.979 727.007 370.888 729.568 370.888 736.238C370.888 742.855 365.552 747.337 357.227 747.337C348.85 747.337 342.873 742.802 342.873 734.21V733.73H348.103V734.21C348.103 739.973 351.731 742.695 357.227 742.695C362.67 742.695 365.712 740.08 365.712 736.345C365.712 732.556 362.67 731.222 357.761 730.102L355.466 729.568C348.476 727.967 344.1 725.352 344.1 718.896C344.1 712.439 349.276 708.49 356.961 708.49ZM396.174 709.237H425.577V713.986H413.517V746.59H408.234V713.986H396.174V709.237ZM480.384 720.496C480.384 726.366 476.756 730.368 471.526 731.436L479.691 746.59H473.661L466.083 731.702H458.186V746.59H452.903V709.291H468.591C475.422 709.291 480.384 713.559 480.384 720.496ZM458.186 714.04V726.953H468.058C472.434 726.953 475.102 724.499 475.102 720.496C475.102 716.441 472.434 714.04 468.058 714.04H458.186ZM508.465 709.237H513.748V733.997C513.748 739.6 516.896 742.642 522.499 742.642C528.102 742.642 531.251 739.6 531.251 733.997V709.237H536.533V733.89C536.533 742.535 531.091 747.337 522.499 747.337C513.908 747.337 508.465 742.535 508.465 733.89V709.237ZM565.258 732.023V723.805C565.258 714.04 571.074 708.49 580.252 708.49C589.324 708.49 594.447 713.72 594.447 721.884V722.738H589.164V721.831C589.164 716.815 586.069 713.186 580.252 713.186C574.169 713.186 570.541 717.188 570.541 723.698V732.129C570.541 738.639 574.223 742.642 580.252 742.642C586.229 742.642 589.164 739.066 589.164 734.05V732.823H594.447V733.997C594.447 742.161 589.11 747.337 580.252 747.337C570.968 747.337 565.258 741.788 565.258 732.023ZM619.38 709.237H648.783V713.986H636.723V746.59H631.44V713.986H619.38V709.237ZM676.109 709.237H681.392V746.59H676.109V709.237ZM710.333 723.591C710.333 713.773 716.149 708.49 725.221 708.49C734.292 708.49 740.109 713.773 740.109 723.591V732.236C740.109 742.055 734.292 747.337 725.221 747.337C716.149 747.337 710.333 742.055 710.333 732.236V723.591ZM715.616 723.378V732.449C715.616 738.746 719.191 742.642 725.221 742.642C731.251 742.642 734.826 738.746 734.826 732.449V723.378C734.826 717.081 731.251 713.186 725.221 713.186C719.191 713.186 715.616 717.081 715.616 723.378ZM769.056 709.237H778.075L790.775 741.094H791.308V709.237H796.591V746.59H787.573L774.873 714.733H774.339V746.59H769.056V709.237ZM839.085 708.49C846.769 708.49 852.586 712.439 852.586 720.23V721.67H847.356V720.23C847.356 715.16 843.941 713.133 839.085 713.133C834.336 713.133 831.455 715.16 831.455 718.789C831.455 722.417 833.963 723.752 838.818 724.872L841.113 725.406C848.103 727.007 853.013 729.568 853.013 736.238C853.013 742.855 847.676 747.337 839.352 747.337C830.974 747.337 824.998 742.802 824.998 734.21V733.73H830.227V734.21C830.227 739.973 833.856 742.695 839.352 742.695C844.795 742.695 847.837 740.08 847.837 736.345C847.837 732.556 844.795 731.222 839.886 730.102L837.591 729.568C830.601 727.967 826.225 725.352 826.225 718.896C826.225 712.439 831.401 708.49 839.085 708.49Z" fill="#FF5053"/>
</svg>
