<?xml version="1.0" encoding="utf-8"?>
<!-- Generator: Adobe Illustrator 17.0.0, SVG Export Plug-In . SVG Version: 6.00 Build 0)  -->
<!DOCTYPE svg PUBLIC "-//W3C//DTD SVG 1.1//EN" "http://www.w3.org/Graphics/SVG/1.1/DTD/svg11.dtd">
<svg version="1.1" id="Layer_1" xmlns="http://www.w3.org/2000/svg" xmlns:xlink="http://www.w3.org/1999/xlink" x="0px" y="0px"
	 width="703.6px" height="328.394px" viewBox="0 0 703.6 328.394" enable-background="new 0 0 703.6 328.394" xml:space="preserve">
<g>
	<g id="Layer_1_1_">
		<path fill="#00498C" d="M908.817,553.548v164.315l46.812-46.812h656.788V553.548H908.817z"/>
		<path fill="#00A6DE" d="M1612.417,553.548V389.47l-46.812,46.812H908.817v117.267H1612.417z"/>
		<g>
			<rect x="947.119" y="514.066" fill="#FFFFFF" width="6.62" height="6.62"/>
			<rect x="947.119" y="505.082" fill="#FFFFFF" width="6.62" height="6.62"/>
			<rect x="947.119" y="473.874" fill="#FFFFFF" width="6.62" height="6.62"/>
			<rect x="947.119" y="464.89" fill="#FFFFFF" width="6.62" height="6.62"/>
			<rect x="956.103" y="518.322" fill="#FFFFFF" width="6.62" height="6.62"/>
			<rect x="956.103" y="464.89" fill="#FFFFFF" width="6.62" height="6.62"/>
			<rect x="964.85" y="518.322" fill="#FFFFFF" width="6.62" height="6.62"/>
			<rect x="964.85" y="464.89" fill="#FFFFFF" width="6.62" height="6.62"/>
			<rect x="973.835" y="518.322" fill="#FFFFFF" width="6.62" height="6.62"/>
			<rect x="973.835" y="464.89" fill="#FFFFFF" width="6.62" height="6.62"/>
			<rect x="982.582" y="514.066" fill="#FFFFFF" width="6.62" height="6.62"/>
			<rect x="982.582" y="505.082" fill="#FFFFFF" width="6.62" height="6.62"/>
			<rect x="982.582" y="496.098" fill="#FFFFFF" width="6.62" height="6.62"/>
			<rect x="982.582" y="487.114" fill="#FFFFFF" width="6.62" height="6.62"/>
			<rect x="982.582" y="478.366" fill="#FFFFFF" width="6.62" height="6.62"/>
			<rect x="982.582" y="469.382" fill="#FFFFFF" width="6.62" height="6.62"/>
			<rect x="1000.314" y="509.574" fill="#FFFFFF" width="6.62" height="6.62"/>
			<rect x="1000.314" y="500.59" fill="#FFFFFF" width="6.62" height="6.62"/>
			<rect x="1000.314" y="491.606" fill="#FFFFFF" width="6.62" height="6.62"/>
			<rect x="1000.314" y="482.858" fill="#FFFFFF" width="6.62" height="6.62"/>
			<rect x="1000.314" y="473.874" fill="#FFFFFF" width="6.62" height="6.62"/>
			<rect x="1000.314" y="464.89" fill="#FFFFFF" width="6.62" height="6.62"/>
			<rect x="1009.298" y="518.322" fill="#FFFFFF" width="6.62" height="6.62"/>
			<rect x="1018.046" y="518.322" fill="#FFFFFF" width="6.62" height="6.62"/>
			<rect x="1027.03" y="518.322" fill="#FFFFFF" width="6.62" height="6.62"/>
			<rect x="1035.778" y="509.574" fill="#FFFFFF" width="6.62" height="6.62"/>
			<rect x="1035.778" y="500.59" fill="#FFFFFF" width="6.62" height="6.62"/>
			<rect x="1035.778" y="491.606" fill="#FFFFFF" width="6.62" height="6.62"/>
			<rect x="1035.778" y="482.858" fill="#FFFFFF" width="6.62" height="6.62"/>
			<rect x="1035.778" y="473.874" fill="#FFFFFF" width="6.62" height="6.62"/>
			<rect x="1035.778" y="464.89" fill="#FFFFFF" width="6.62" height="6.62"/>
			<rect x="1053.51" y="514.066" fill="#FFFFFF" width="6.62" height="6.62"/>
			<rect x="1053.51" y="505.082" fill="#FFFFFF" width="6.62" height="6.62"/>
			<rect x="1053.51" y="496.098" fill="#FFFFFF" width="6.62" height="6.62"/>
			<rect x="1053.51" y="487.114" fill="#FFFFFF" width="6.62" height="6.62"/>
			<rect x="1053.51" y="478.366" fill="#FFFFFF" width="6.62" height="6.62"/>
			<rect x="1053.51" y="469.382" fill="#FFFFFF" width="6.62" height="6.62"/>
			<rect x="1062.494" y="518.322" fill="#FFFFFF" width="6.62" height="6.62"/>
			<rect x="1062.494" y="464.89" fill="#FFFFFF" width="6.62" height="6.62"/>
			<rect x="1071.242" y="518.322" fill="#FFFFFF" width="6.62" height="6.62"/>
			<rect x="1071.242" y="496.098" fill="#FFFFFF" width="6.62" height="6.62"/>
			<rect x="1071.242" y="464.89" fill="#FFFFFF" width="6.62" height="6.62"/>
			<rect x="1080.226" y="518.322" fill="#FFFFFF" width="6.62" height="6.62"/>
			<rect x="1080.226" y="496.098" fill="#FFFFFF" width="6.62" height="6.62"/>
			<rect x="1080.226" y="464.89" fill="#FFFFFF" width="6.62" height="6.62"/>
			<rect x="1088.974" y="514.066" fill="#FFFFFF" width="6.62" height="6.62"/>
			<rect x="1088.974" y="505.082" fill="#FFFFFF" width="6.62" height="6.62"/>
			<rect x="1088.974" y="496.098" fill="#FFFFFF" width="6.62" height="6.62"/>
			<rect x="1088.974" y="469.382" fill="#FFFFFF" width="6.62" height="6.62"/>
			<rect x="1106.706" y="514.066" fill="#FFFFFF" width="6.62" height="6.62"/>
			<rect x="1106.706" y="505.082" fill="#FFFFFF" width="6.62" height="6.62"/>
			<rect x="1106.706" y="496.098" fill="#FFFFFF" width="6.62" height="6.62"/>
			<rect x="1106.706" y="487.114" fill="#FFFFFF" width="6.62" height="6.62"/>
			<rect x="1106.706" y="478.366" fill="#FFFFFF" width="6.62" height="6.62"/>
			<rect x="1106.706" y="469.382" fill="#FFFFFF" width="6.62" height="6.62"/>
			<rect x="1115.453" y="518.322" fill="#FFFFFF" width="6.62" height="6.62"/>
			<rect x="1115.453" y="491.606" fill="#FFFFFF" width="6.62" height="6.62"/>
			<rect x="1115.453" y="464.89" fill="#FFFFFF" width="6.62" height="6.62"/>
			<rect x="1124.437" y="518.322" fill="#FFFFFF" width="6.62" height="6.62"/>
			<rect x="1124.437" y="491.606" fill="#FFFFFF" width="6.62" height="6.62"/>
			<rect x="1124.437" y="464.89" fill="#FFFFFF" width="6.62" height="6.62"/>
			<rect x="1133.185" y="518.322" fill="#FFFFFF" width="6.62" height="6.62"/>
			<rect x="1133.185" y="491.606" fill="#FFFFFF" width="6.62" height="6.62"/>
			<rect x="1133.185" y="464.89" fill="#FFFFFF" width="6.62" height="6.62"/>
			<rect x="1142.169" y="518.322" fill="#FFFFFF" width="6.62" height="6.62"/>
			<rect x="1142.169" y="464.89" fill="#FFFFFF" width="6.62" height="6.62"/>
			<rect x="1159.901" y="518.322" fill="#FFFFFF" width="6.62" height="6.62"/>
			<rect x="1159.901" y="509.574" fill="#FFFFFF" width="6.62" height="6.62"/>
			<rect x="1159.901" y="500.59" fill="#FFFFFF" width="6.62" height="6.62"/>
			<rect x="1159.901" y="491.606" fill="#FFFFFF" width="6.62" height="6.62"/>
			<rect x="1159.901" y="482.858" fill="#FFFFFF" width="6.62" height="6.62"/>
			<rect x="1159.901" y="473.874" fill="#FFFFFF" width="6.62" height="6.62"/>
			<rect x="1159.901" y="464.89" fill="#FFFFFF" width="6.62" height="6.62"/>
			<rect x="1168.649" y="482.858" fill="#FFFFFF" width="6.62" height="6.62"/>
			<rect x="1177.633" y="491.606" fill="#FFFFFF" width="6.62" height="6.62"/>
			<rect x="1186.381" y="500.59" fill="#FFFFFF" width="6.62" height="6.62"/>
			<rect x="1195.365" y="518.322" fill="#FFFFFF" width="6.62" height="6.62"/>
			<rect x="1195.365" y="509.574" fill="#FFFFFF" width="6.62" height="6.62"/>
			<rect x="1195.365" y="500.59" fill="#FFFFFF" width="6.62" height="6.62"/>
			<rect x="1195.365" y="491.606" fill="#FFFFFF" width="6.62" height="6.62"/>
			<rect x="1195.365" y="482.858" fill="#FFFFFF" width="6.62" height="6.62"/>
			<rect x="1195.365" y="473.874" fill="#FFFFFF" width="6.62" height="6.62"/>
			<rect x="1195.365" y="464.89" fill="#FFFFFF" width="6.62" height="6.62"/>
			<rect x="1213.097" y="518.322" fill="#FFFFFF" width="6.62" height="6.62"/>
			<rect x="1213.097" y="509.574" fill="#FFFFFF" width="6.62" height="6.62"/>
			<rect x="1213.097" y="500.59" fill="#FFFFFF" width="6.62" height="6.62"/>
			<rect x="1213.097" y="491.606" fill="#FFFFFF" width="6.62" height="6.62"/>
			<rect x="1213.097" y="482.858" fill="#FFFFFF" width="6.62" height="6.62"/>
			<rect x="1213.097" y="473.874" fill="#FFFFFF" width="6.62" height="6.62"/>
			<rect x="1213.097" y="464.89" fill="#FFFFFF" width="6.62" height="6.62"/>
			<rect x="1221.844" y="518.322" fill="#FFFFFF" width="6.62" height="6.62"/>
			<rect x="1221.844" y="464.89" fill="#FFFFFF" width="6.62" height="6.62"/>
			<rect x="1230.829" y="518.322" fill="#FFFFFF" width="6.62" height="6.62"/>
			<rect x="1230.829" y="464.89" fill="#FFFFFF" width="6.62" height="6.62"/>
			<rect x="1239.576" y="518.322" fill="#FFFFFF" width="6.62" height="6.62"/>
			<rect x="1239.576" y="464.89" fill="#FFFFFF" width="6.62" height="6.62"/>
			<rect x="1248.56" y="514.066" fill="#FFFFFF" width="6.62" height="6.62"/>
			<rect x="1248.56" y="505.082" fill="#FFFFFF" width="6.62" height="6.62"/>
			<rect x="1248.56" y="496.098" fill="#FFFFFF" width="6.62" height="6.62"/>
			<rect x="1248.56" y="487.114" fill="#FFFFFF" width="6.62" height="6.62"/>
			<rect x="1248.56" y="478.366" fill="#FFFFFF" width="6.62" height="6.62"/>
			<rect x="1248.56" y="469.382" fill="#FFFFFF" width="6.62" height="6.62"/>
			<rect x="1319.488" y="518.322" fill="#FFFFFF" width="6.62" height="6.62"/>
			<rect x="1319.488" y="509.574" fill="#FFFFFF" width="6.62" height="6.62"/>
			<rect x="1319.488" y="500.59" fill="#FFFFFF" width="6.62" height="6.62"/>
			<rect x="1319.488" y="491.606" fill="#FFFFFF" width="6.62" height="6.62"/>
			<rect x="1319.488" y="482.858" fill="#FFFFFF" width="6.62" height="6.62"/>
			<rect x="1319.488" y="473.874" fill="#FFFFFF" width="6.62" height="6.62"/>
			<rect x="1319.488" y="464.89" fill="#FFFFFF" width="6.62" height="6.62"/>
			<rect x="1328.236" y="491.606" fill="#FFFFFF" width="6.62" height="6.62"/>
			<rect x="1336.983" y="491.606" fill="#FFFFFF" width="6.62" height="6.62"/>
			<rect x="1345.968" y="491.606" fill="#FFFFFF" width="6.62" height="6.62"/>
			<rect x="1354.715" y="518.322" fill="#FFFFFF" width="6.62" height="6.62"/>
			<rect x="1354.715" y="509.574" fill="#FFFFFF" width="6.62" height="6.62"/>
			<rect x="1354.715" y="500.59" fill="#FFFFFF" width="6.62" height="6.62"/>
			<rect x="1354.715" y="491.606" fill="#FFFFFF" width="6.62" height="6.62"/>
			<rect x="1354.715" y="482.858" fill="#FFFFFF" width="6.62" height="6.62"/>
			<rect x="1354.715" y="473.874" fill="#FFFFFF" width="6.62" height="6.62"/>
			<rect x="1354.715" y="464.89" fill="#FFFFFF" width="6.62" height="6.62"/>
			<rect x="1372.447" y="518.322" fill="#FFFFFF" width="6.62" height="6.62"/>
			<rect x="1372.447" y="509.574" fill="#FFFFFF" width="6.62" height="6.62"/>
			<rect x="1372.447" y="500.59" fill="#FFFFFF" width="6.62" height="6.62"/>
			<rect x="1372.447" y="491.606" fill="#FFFFFF" width="6.62" height="6.62"/>
			<rect x="1372.447" y="482.858" fill="#FFFFFF" width="6.62" height="6.62"/>
			<rect x="1372.447" y="473.874" fill="#FFFFFF" width="6.62" height="6.62"/>
			<rect x="1381.431" y="496.098" fill="#FFFFFF" width="6.62" height="6.62"/>
			<rect x="1381.431" y="467.254" fill="#FFFFFF" width="6.62" height="6.62"/>
			<rect x="1390.179" y="496.098" fill="#FFFFFF" width="6.62" height="6.62"/>
			<rect x="1390.179" y="464.89" fill="#FFFFFF" width="6.62" height="6.62"/>
			<rect x="1399.163" y="496.098" fill="#FFFFFF" width="6.62" height="6.62"/>
			<rect x="1399.163" y="467.254" fill="#FFFFFF" width="6.62" height="6.62"/>
			<rect x="1407.911" y="518.322" fill="#FFFFFF" width="6.62" height="6.62"/>
			<rect x="1407.911" y="509.574" fill="#FFFFFF" width="6.62" height="6.62"/>
			<rect x="1407.911" y="500.59" fill="#FFFFFF" width="6.62" height="6.62"/>
			<rect x="1407.911" y="491.606" fill="#FFFFFF" width="6.62" height="6.62"/>
			<rect x="1407.911" y="482.858" fill="#FFFFFF" width="6.62" height="6.62"/>
			<rect x="1407.911" y="473.874" fill="#FFFFFF" width="6.62" height="6.62"/>
			<rect x="1425.643" y="514.066" fill="#FFFFFF" width="6.62" height="6.62"/>
			<rect x="1425.643" y="505.082" fill="#FFFFFF" width="6.62" height="6.62"/>
			<rect x="1425.643" y="496.098" fill="#FFFFFF" width="6.62" height="6.62"/>
			<rect x="1425.643" y="487.114" fill="#FFFFFF" width="6.62" height="6.62"/>
			<rect x="1425.643" y="478.366" fill="#FFFFFF" width="6.62" height="6.62"/>
			<rect x="1425.643" y="469.382" fill="#FFFFFF" width="6.62" height="6.62"/>
			<rect x="1434.627" y="518.322" fill="#FFFFFF" width="6.62" height="6.62"/>
			<rect x="1434.627" y="464.89" fill="#FFFFFF" width="6.62" height="6.62"/>
			<rect x="1443.375" y="518.322" fill="#FFFFFF" width="6.62" height="6.62"/>
			<rect x="1443.375" y="464.89" fill="#FFFFFF" width="6.62" height="6.62"/>
			<rect x="1452.359" y="518.322" fill="#FFFFFF" width="6.62" height="6.62"/>
			<rect x="1452.359" y="464.89" fill="#FFFFFF" width="6.62" height="6.62"/>
			<rect x="1461.107" y="514.066" fill="#FFFFFF" width="6.62" height="6.62"/>
			<rect x="1461.107" y="469.382" fill="#FFFFFF" width="6.62" height="6.62"/>
			<rect x="1478.839" y="518.322" fill="#FFFFFF" width="6.62" height="6.62"/>
			<rect x="1478.839" y="509.574" fill="#FFFFFF" width="6.62" height="6.62"/>
			<rect x="1478.839" y="500.59" fill="#FFFFFF" width="6.62" height="6.62"/>
			<rect x="1478.839" y="491.606" fill="#FFFFFF" width="6.62" height="6.62"/>
			<rect x="1478.839" y="482.858" fill="#FFFFFF" width="6.62" height="6.62"/>
			<rect x="1478.839" y="473.874" fill="#FFFFFF" width="6.62" height="6.62"/>
			<rect x="1478.839" y="464.89" fill="#FFFFFF" width="6.62" height="6.62"/>
			<rect x="1487.823" y="491.606" fill="#FFFFFF" width="6.62" height="6.62"/>
			<rect x="1496.57" y="500.59" fill="#FFFFFF" width="6.62" height="6.62"/>
			<rect x="1496.57" y="482.858" fill="#FFFFFF" width="6.62" height="6.62"/>
			<rect x="1505.554" y="509.574" fill="#FFFFFF" width="6.62" height="6.62"/>
			<rect x="1505.554" y="473.874" fill="#FFFFFF" width="6.62" height="6.62"/>
			<rect x="1514.302" y="518.322" fill="#FFFFFF" width="6.62" height="6.62"/>
			<rect x="1514.302" y="464.89" fill="#FFFFFF" width="6.62" height="6.62"/>
			<rect x="1532.034" y="464.89" fill="#FFFFFF" width="6.62" height="6.62"/>
			<rect x="1541.018" y="464.89" fill="#FFFFFF" width="6.62" height="6.62"/>
			<rect x="1549.766" y="518.322" fill="#FFFFFF" width="6.62" height="6.62"/>
			<rect x="1549.766" y="509.574" fill="#FFFFFF" width="6.62" height="6.62"/>
			<rect x="1549.766" y="500.59" fill="#FFFFFF" width="6.62" height="6.62"/>
			<rect x="1549.766" y="491.606" fill="#FFFFFF" width="6.62" height="6.62"/>
			<rect x="1549.766" y="482.858" fill="#FFFFFF" width="6.62" height="6.62"/>
			<rect x="1549.766" y="473.874" fill="#FFFFFF" width="6.62" height="6.62"/>
			<rect x="1549.766" y="464.89" fill="#FFFFFF" width="6.62" height="6.62"/>
			<rect x="1558.514" y="464.89" fill="#FFFFFF" width="6.62" height="6.62"/>
			<rect x="1567.498" y="464.89" fill="#FFFFFF" width="6.62" height="6.62"/>
		</g>
	</g>
	<g>
		<text transform="matrix(1 0 0 1 941.7141 631.7341)" fill="#FFFFFF" font-family="'SourceSansPro-Black'" font-size="51.036">BERLIN</text>
		<text transform="matrix(1 0 0 1 941.7141 631.7341)" fill="#FFFFFF" font-family="'SourceSansPro-Black'" font-size="51.036">BERLIN</text>
	</g>
</g>
</svg>
