<?xml version="1.0" encoding="utf-8"?>
<!-- Generator: Adobe Illustrator 17.0.0, SVG Export Plug-In . SVG Version: 6.00 Build 0)  -->
<!DOCTYPE svg PUBLIC "-//W3C//DTD SVG 1.1//EN" "http://www.w3.org/Graphics/SVG/1.1/DTD/svg11.dtd">
<svg version="1.1" id="Layer_1" xmlns="http://www.w3.org/2000/svg" xmlns:xlink="http://www.w3.org/1999/xlink" x="0px" y="0px"
	 width="703.6px" height="328.394px" viewBox="0 0 703.6 328.394" enable-background="new 0 0 703.6 328.394" xml:space="preserve">
<g>
	<g id="Layer_1_1_">
		<path fill="#00498C" d="M0,164.079v164.315l46.812-46.812H703.6V164.079H0z"/>
		<path fill="#00A6DE" d="M703.6,164.079V0l-46.812,46.812H0v117.267H703.6z"/>
		<g>
			<rect x="38.302" y="124.596" fill="#FFFFFF" width="6.62" height="6.62"/>
			<rect x="38.302" y="115.612" fill="#FFFFFF" width="6.62" height="6.62"/>
			<rect x="38.302" y="84.404" fill="#FFFFFF" width="6.62" height="6.62"/>
			<rect x="38.302" y="75.42" fill="#FFFFFF" width="6.62" height="6.62"/>
			<rect x="47.286" y="128.852" fill="#FFFFFF" width="6.62" height="6.62"/>
			<rect x="47.286" y="75.42" fill="#FFFFFF" width="6.62" height="6.62"/>
			<rect x="56.034" y="128.852" fill="#FFFFFF" width="6.62" height="6.62"/>
			<rect x="56.034" y="75.42" fill="#FFFFFF" width="6.62" height="6.62"/>
			<rect x="65.018" y="128.852" fill="#FFFFFF" width="6.62" height="6.62"/>
			<rect x="65.018" y="75.42" fill="#FFFFFF" width="6.62" height="6.62"/>
			<rect x="73.766" y="124.596" fill="#FFFFFF" width="6.62" height="6.62"/>
			<rect x="73.766" y="115.612" fill="#FFFFFF" width="6.62" height="6.62"/>
			<rect x="73.766" y="106.628" fill="#FFFFFF" width="6.62" height="6.62"/>
			<rect x="73.766" y="97.644" fill="#FFFFFF" width="6.62" height="6.62"/>
			<rect x="73.766" y="88.896" fill="#FFFFFF" width="6.62" height="6.62"/>
			<rect x="73.766" y="79.912" fill="#FFFFFF" width="6.62" height="6.62"/>
			<rect x="91.498" y="120.104" fill="#FFFFFF" width="6.62" height="6.62"/>
			<rect x="91.498" y="111.12" fill="#FFFFFF" width="6.62" height="6.62"/>
			<rect x="91.498" y="102.136" fill="#FFFFFF" width="6.62" height="6.62"/>
			<rect x="91.498" y="93.388" fill="#FFFFFF" width="6.62" height="6.62"/>
			<rect x="91.498" y="84.404" fill="#FFFFFF" width="6.62" height="6.62"/>
			<rect x="91.498" y="75.42" fill="#FFFFFF" width="6.62" height="6.62"/>
			<rect x="100.482" y="128.852" fill="#FFFFFF" width="6.62" height="6.62"/>
			<rect x="109.229" y="128.852" fill="#FFFFFF" width="6.62" height="6.62"/>
			<rect x="118.214" y="128.852" fill="#FFFFFF" width="6.62" height="6.62"/>
			<rect x="126.961" y="120.104" fill="#FFFFFF" width="6.62" height="6.62"/>
			<rect x="126.961" y="111.12" fill="#FFFFFF" width="6.62" height="6.62"/>
			<rect x="126.961" y="102.136" fill="#FFFFFF" width="6.62" height="6.62"/>
			<rect x="126.961" y="93.388" fill="#FFFFFF" width="6.62" height="6.62"/>
			<rect x="126.961" y="84.404" fill="#FFFFFF" width="6.62" height="6.62"/>
			<rect x="126.961" y="75.42" fill="#FFFFFF" width="6.62" height="6.62"/>
			<rect x="144.693" y="124.596" fill="#FFFFFF" width="6.62" height="6.62"/>
			<rect x="144.693" y="115.612" fill="#FFFFFF" width="6.62" height="6.62"/>
			<rect x="144.693" y="106.628" fill="#FFFFFF" width="6.62" height="6.62"/>
			<rect x="144.693" y="97.644" fill="#FFFFFF" width="6.62" height="6.62"/>
			<rect x="144.693" y="88.896" fill="#FFFFFF" width="6.62" height="6.62"/>
			<rect x="144.693" y="79.912" fill="#FFFFFF" width="6.62" height="6.62"/>
			<rect x="153.677" y="128.852" fill="#FFFFFF" width="6.62" height="6.62"/>
			<rect x="153.677" y="75.42" fill="#FFFFFF" width="6.62" height="6.62"/>
			<rect x="162.425" y="128.852" fill="#FFFFFF" width="6.62" height="6.62"/>
			<rect x="162.425" y="106.628" fill="#FFFFFF" width="6.62" height="6.62"/>
			<rect x="162.425" y="75.42" fill="#FFFFFF" width="6.62" height="6.62"/>
			<rect x="171.409" y="128.852" fill="#FFFFFF" width="6.62" height="6.62"/>
			<rect x="171.409" y="106.628" fill="#FFFFFF" width="6.62" height="6.62"/>
			<rect x="171.409" y="75.42" fill="#FFFFFF" width="6.62" height="6.62"/>
			<rect x="180.157" y="124.596" fill="#FFFFFF" width="6.62" height="6.62"/>
			<rect x="180.157" y="115.612" fill="#FFFFFF" width="6.62" height="6.62"/>
			<rect x="180.157" y="106.628" fill="#FFFFFF" width="6.62" height="6.62"/>
			<rect x="180.157" y="79.912" fill="#FFFFFF" width="6.62" height="6.62"/>
			<rect x="197.889" y="124.596" fill="#FFFFFF" width="6.62" height="6.62"/>
			<rect x="197.889" y="115.612" fill="#FFFFFF" width="6.62" height="6.62"/>
			<rect x="197.889" y="106.628" fill="#FFFFFF" width="6.62" height="6.62"/>
			<rect x="197.889" y="97.644" fill="#FFFFFF" width="6.62" height="6.62"/>
			<rect x="197.889" y="88.896" fill="#FFFFFF" width="6.62" height="6.62"/>
			<rect x="197.889" y="79.912" fill="#FFFFFF" width="6.62" height="6.62"/>
			<rect x="206.636" y="128.852" fill="#FFFFFF" width="6.62" height="6.62"/>
			<rect x="206.636" y="102.136" fill="#FFFFFF" width="6.62" height="6.62"/>
			<rect x="206.636" y="75.42" fill="#FFFFFF" width="6.62" height="6.62"/>
			<rect x="215.621" y="128.852" fill="#FFFFFF" width="6.62" height="6.62"/>
			<rect x="215.621" y="102.136" fill="#FFFFFF" width="6.62" height="6.62"/>
			<rect x="215.621" y="75.42" fill="#FFFFFF" width="6.62" height="6.62"/>
			<rect x="224.368" y="128.852" fill="#FFFFFF" width="6.62" height="6.62"/>
			<rect x="224.368" y="102.136" fill="#FFFFFF" width="6.62" height="6.62"/>
			<rect x="224.368" y="75.42" fill="#FFFFFF" width="6.62" height="6.62"/>
			<rect x="233.353" y="128.852" fill="#FFFFFF" width="6.62" height="6.62"/>
			<rect x="233.353" y="75.42" fill="#FFFFFF" width="6.62" height="6.62"/>
			<rect x="251.084" y="128.852" fill="#FFFFFF" width="6.62" height="6.62"/>
			<rect x="251.084" y="120.104" fill="#FFFFFF" width="6.62" height="6.62"/>
			<rect x="251.084" y="111.12" fill="#FFFFFF" width="6.62" height="6.62"/>
			<rect x="251.084" y="102.136" fill="#FFFFFF" width="6.62" height="6.62"/>
			<rect x="251.084" y="93.388" fill="#FFFFFF" width="6.62" height="6.62"/>
			<rect x="251.084" y="84.404" fill="#FFFFFF" width="6.62" height="6.62"/>
			<rect x="251.084" y="75.42" fill="#FFFFFF" width="6.62" height="6.62"/>
			<rect x="259.832" y="93.388" fill="#FFFFFF" width="6.62" height="6.62"/>
			<rect x="268.816" y="102.136" fill="#FFFFFF" width="6.62" height="6.62"/>
			<rect x="277.564" y="111.12" fill="#FFFFFF" width="6.62" height="6.62"/>
			<rect x="286.548" y="128.852" fill="#FFFFFF" width="6.62" height="6.62"/>
			<rect x="286.548" y="120.104" fill="#FFFFFF" width="6.62" height="6.62"/>
			<rect x="286.548" y="111.12" fill="#FFFFFF" width="6.62" height="6.62"/>
			<rect x="286.548" y="102.136" fill="#FFFFFF" width="6.62" height="6.62"/>
			<rect x="286.548" y="93.388" fill="#FFFFFF" width="6.62" height="6.62"/>
			<rect x="286.548" y="84.404" fill="#FFFFFF" width="6.62" height="6.62"/>
			<rect x="286.548" y="75.42" fill="#FFFFFF" width="6.62" height="6.62"/>
			<rect x="304.28" y="128.852" fill="#FFFFFF" width="6.62" height="6.62"/>
			<rect x="304.28" y="120.104" fill="#FFFFFF" width="6.62" height="6.62"/>
			<rect x="304.28" y="111.12" fill="#FFFFFF" width="6.62" height="6.62"/>
			<rect x="304.28" y="102.136" fill="#FFFFFF" width="6.62" height="6.62"/>
			<rect x="304.28" y="93.388" fill="#FFFFFF" width="6.62" height="6.62"/>
			<rect x="304.28" y="84.404" fill="#FFFFFF" width="6.62" height="6.62"/>
			<rect x="304.28" y="75.42" fill="#FFFFFF" width="6.62" height="6.62"/>
			<rect x="313.028" y="128.852" fill="#FFFFFF" width="6.62" height="6.62"/>
			<rect x="313.028" y="75.42" fill="#FFFFFF" width="6.62" height="6.62"/>
			<rect x="322.012" y="128.852" fill="#FFFFFF" width="6.62" height="6.62"/>
			<rect x="322.012" y="75.42" fill="#FFFFFF" width="6.62" height="6.62"/>
			<rect x="330.76" y="128.852" fill="#FFFFFF" width="6.62" height="6.62"/>
			<rect x="330.76" y="75.42" fill="#FFFFFF" width="6.62" height="6.62"/>
			<rect x="339.744" y="124.596" fill="#FFFFFF" width="6.62" height="6.62"/>
			<rect x="339.744" y="115.612" fill="#FFFFFF" width="6.62" height="6.62"/>
			<rect x="339.744" y="106.628" fill="#FFFFFF" width="6.62" height="6.62"/>
			<rect x="339.744" y="97.644" fill="#FFFFFF" width="6.62" height="6.62"/>
			<rect x="339.744" y="88.896" fill="#FFFFFF" width="6.62" height="6.62"/>
			<rect x="339.744" y="79.912" fill="#FFFFFF" width="6.62" height="6.62"/>
			<rect x="410.671" y="128.852" fill="#FFFFFF" width="6.62" height="6.62"/>
			<rect x="410.671" y="120.104" fill="#FFFFFF" width="6.62" height="6.62"/>
			<rect x="410.671" y="111.12" fill="#FFFFFF" width="6.62" height="6.62"/>
			<rect x="410.671" y="102.136" fill="#FFFFFF" width="6.62" height="6.62"/>
			<rect x="410.671" y="93.388" fill="#FFFFFF" width="6.62" height="6.62"/>
			<rect x="410.671" y="84.404" fill="#FFFFFF" width="6.62" height="6.62"/>
			<rect x="410.671" y="75.42" fill="#FFFFFF" width="6.62" height="6.62"/>
			<rect x="419.419" y="102.136" fill="#FFFFFF" width="6.62" height="6.62"/>
			<rect x="428.167" y="102.136" fill="#FFFFFF" width="6.62" height="6.62"/>
			<rect x="437.151" y="102.136" fill="#FFFFFF" width="6.62" height="6.62"/>
			<rect x="445.899" y="128.852" fill="#FFFFFF" width="6.62" height="6.62"/>
			<rect x="445.899" y="120.104" fill="#FFFFFF" width="6.62" height="6.62"/>
			<rect x="445.899" y="111.12" fill="#FFFFFF" width="6.62" height="6.62"/>
			<rect x="445.899" y="102.136" fill="#FFFFFF" width="6.62" height="6.62"/>
			<rect x="445.899" y="93.388" fill="#FFFFFF" width="6.62" height="6.62"/>
			<rect x="445.899" y="84.404" fill="#FFFFFF" width="6.62" height="6.62"/>
			<rect x="445.899" y="75.42" fill="#FFFFFF" width="6.62" height="6.62"/>
			<rect x="463.631" y="128.852" fill="#FFFFFF" width="6.62" height="6.62"/>
			<rect x="463.631" y="120.104" fill="#FFFFFF" width="6.62" height="6.62"/>
			<rect x="463.631" y="111.12" fill="#FFFFFF" width="6.62" height="6.62"/>
			<rect x="463.631" y="102.136" fill="#FFFFFF" width="6.62" height="6.62"/>
			<rect x="463.631" y="93.388" fill="#FFFFFF" width="6.62" height="6.62"/>
			<rect x="463.631" y="84.404" fill="#FFFFFF" width="6.62" height="6.62"/>
			<rect x="472.615" y="106.628" fill="#FFFFFF" width="6.62" height="6.62"/>
			<rect x="472.615" y="77.784" fill="#FFFFFF" width="6.62" height="6.62"/>
			<rect x="481.362" y="106.628" fill="#FFFFFF" width="6.62" height="6.62"/>
			<rect x="481.362" y="75.42" fill="#FFFFFF" width="6.62" height="6.62"/>
			<rect x="490.347" y="106.628" fill="#FFFFFF" width="6.62" height="6.62"/>
			<rect x="490.347" y="77.784" fill="#FFFFFF" width="6.62" height="6.62"/>
			<rect x="499.094" y="128.852" fill="#FFFFFF" width="6.62" height="6.62"/>
			<rect x="499.094" y="120.104" fill="#FFFFFF" width="6.62" height="6.62"/>
			<rect x="499.094" y="111.12" fill="#FFFFFF" width="6.62" height="6.62"/>
			<rect x="499.094" y="102.136" fill="#FFFFFF" width="6.62" height="6.62"/>
			<rect x="499.094" y="93.388" fill="#FFFFFF" width="6.62" height="6.62"/>
			<rect x="499.094" y="84.404" fill="#FFFFFF" width="6.62" height="6.62"/>
			<rect x="516.826" y="124.596" fill="#FFFFFF" width="6.62" height="6.62"/>
			<rect x="516.826" y="115.612" fill="#FFFFFF" width="6.62" height="6.62"/>
			<rect x="516.826" y="106.628" fill="#FFFFFF" width="6.62" height="6.62"/>
			<rect x="516.826" y="97.644" fill="#FFFFFF" width="6.62" height="6.62"/>
			<rect x="516.826" y="88.896" fill="#FFFFFF" width="6.62" height="6.62"/>
			<rect x="516.826" y="79.912" fill="#FFFFFF" width="6.62" height="6.62"/>
			<rect x="525.81" y="128.852" fill="#FFFFFF" width="6.62" height="6.62"/>
			<rect x="525.81" y="75.42" fill="#FFFFFF" width="6.62" height="6.62"/>
			<rect x="534.558" y="128.852" fill="#FFFFFF" width="6.62" height="6.62"/>
			<rect x="534.558" y="75.42" fill="#FFFFFF" width="6.62" height="6.62"/>
			<rect x="543.542" y="128.852" fill="#FFFFFF" width="6.62" height="6.62"/>
			<rect x="543.542" y="75.42" fill="#FFFFFF" width="6.62" height="6.62"/>
			<rect x="552.29" y="124.596" fill="#FFFFFF" width="6.62" height="6.62"/>
			<rect x="552.29" y="79.912" fill="#FFFFFF" width="6.62" height="6.62"/>
			<rect x="570.022" y="128.852" fill="#FFFFFF" width="6.62" height="6.62"/>
			<rect x="570.022" y="120.104" fill="#FFFFFF" width="6.62" height="6.62"/>
			<rect x="570.022" y="111.12" fill="#FFFFFF" width="6.62" height="6.62"/>
			<rect x="570.022" y="102.136" fill="#FFFFFF" width="6.62" height="6.62"/>
			<rect x="570.022" y="93.388" fill="#FFFFFF" width="6.62" height="6.62"/>
			<rect x="570.022" y="84.404" fill="#FFFFFF" width="6.62" height="6.62"/>
			<rect x="570.022" y="75.42" fill="#FFFFFF" width="6.62" height="6.62"/>
			<rect x="579.006" y="102.136" fill="#FFFFFF" width="6.62" height="6.62"/>
			<rect x="587.754" y="111.12" fill="#FFFFFF" width="6.62" height="6.62"/>
			<rect x="587.754" y="93.388" fill="#FFFFFF" width="6.62" height="6.62"/>
			<rect x="596.738" y="120.104" fill="#FFFFFF" width="6.62" height="6.62"/>
			<rect x="596.738" y="84.404" fill="#FFFFFF" width="6.62" height="6.62"/>
			<rect x="605.485" y="128.852" fill="#FFFFFF" width="6.62" height="6.62"/>
			<rect x="605.485" y="75.42" fill="#FFFFFF" width="6.62" height="6.62"/>
			<rect x="623.217" y="75.42" fill="#FFFFFF" width="6.62" height="6.62"/>
			<rect x="632.201" y="75.42" fill="#FFFFFF" width="6.62" height="6.62"/>
			<rect x="640.949" y="128.852" fill="#FFFFFF" width="6.62" height="6.62"/>
			<rect x="640.949" y="120.104" fill="#FFFFFF" width="6.62" height="6.62"/>
			<rect x="640.949" y="111.12" fill="#FFFFFF" width="6.62" height="6.62"/>
			<rect x="640.949" y="102.136" fill="#FFFFFF" width="6.62" height="6.62"/>
			<rect x="640.949" y="93.388" fill="#FFFFFF" width="6.62" height="6.62"/>
			<rect x="640.949" y="84.404" fill="#FFFFFF" width="6.62" height="6.62"/>
			<rect x="640.949" y="75.42" fill="#FFFFFF" width="6.62" height="6.62"/>
			<rect x="649.697" y="75.42" fill="#FFFFFF" width="6.62" height="6.62"/>
			<rect x="658.681" y="75.42" fill="#FFFFFF" width="6.62" height="6.62"/>
		</g>
	</g>
	<g>
		<g>
			<path fill="#FFFFFF" d="M36.572,209.088h11.943c6.941,0,12.557,1.735,12.557,8.269c0,2.858-1.634,6.125-5.513,7.146v0.204
				c4.695,0.918,7.044,3.368,7.044,7.758c0,6.84-5.921,9.8-13.066,9.8H36.572V209.088z M48.312,222.154
				c2.858,0,4.186-1.429,4.186-3.471c0-2.041-1.327-2.858-4.186-2.858h-2.96v6.329H48.312z M48.924,235.527
				c3.471,0,5.104-1.327,5.104-3.777c0-2.449-1.634-3.471-5.104-3.471h-3.572v7.248H48.924z"/>
			<path fill="#FFFFFF" d="M67.807,209.088h21.438v7.351H76.586v5.206h10.82v7.35h-10.82v5.921h13.168v7.35H67.807V209.088z"/>
			<path fill="#FFFFFF" d="M114.047,242.264l-5.717-11.127h-3.368v11.127h-8.779v-33.177h12.556c7.146,0,13.271,2.45,13.271,10.719
				c0,4.747-2.145,7.86-5.359,9.596l7.196,12.862H114.047z M104.962,224.196h3.164c3.471,0,5.309-1.531,5.309-4.39
				s-1.838-3.777-5.309-3.777h-3.164V224.196z"/>
			<path fill="#FFFFFF" d="M128.334,209.088h8.779v25.827h12.556v7.35h-21.335V209.088z"/>
			<path fill="#FFFFFF" d="M155.384,209.088h8.779v33.177h-8.779V209.088z"/>
			<path fill="#FFFFFF" d="M171.511,209.088h8.983l7.35,14.802l3.165,7.452h0.204c-0.408-3.572-1.123-8.574-1.123-12.658v-9.596
				h8.37v33.177h-8.982l-7.351-14.853l-3.164-7.401h-0.204c0.408,3.777,1.123,8.575,1.123,12.658v9.596h-8.371V209.088z"/>
		</g>
		<g>
			<path fill="#FFFFFF" d="M36.572,209.088h11.943c6.941,0,12.557,1.735,12.557,8.269c0,2.858-1.634,6.125-5.513,7.146v0.204
				c4.695,0.918,7.044,3.368,7.044,7.758c0,6.84-5.921,9.8-13.066,9.8H36.572V209.088z M48.312,222.154
				c2.858,0,4.186-1.429,4.186-3.471c0-2.041-1.327-2.858-4.186-2.858h-2.96v6.329H48.312z M48.924,235.527
				c3.471,0,5.104-1.327,5.104-3.777c0-2.449-1.634-3.471-5.104-3.471h-3.572v7.248H48.924z"/>
			<path fill="#FFFFFF" d="M67.807,209.088h21.438v7.351H76.586v5.206h10.82v7.35h-10.82v5.921h13.168v7.35H67.807V209.088z"/>
			<path fill="#FFFFFF" d="M114.047,242.264l-5.717-11.127h-3.368v11.127h-8.779v-33.177h12.556c7.146,0,13.271,2.45,13.271,10.719
				c0,4.747-2.145,7.86-5.359,9.596l7.196,12.862H114.047z M104.962,224.196h3.164c3.471,0,5.309-1.531,5.309-4.39
				s-1.838-3.777-5.309-3.777h-3.164V224.196z"/>
			<path fill="#FFFFFF" d="M128.334,209.088h8.779v25.827h12.556v7.35h-21.335V209.088z"/>
			<path fill="#FFFFFF" d="M155.384,209.088h8.779v33.177h-8.779V209.088z"/>
			<path fill="#FFFFFF" d="M171.511,209.088h8.983l7.35,14.802l3.165,7.452h0.204c-0.408-3.572-1.123-8.574-1.123-12.658v-9.596
				h8.37v33.177h-8.982l-7.351-14.853l-3.164-7.401h-0.204c0.408,3.777,1.123,8.575,1.123,12.658v9.596h-8.371V209.088z"/>
		</g>
	</g>
</g>
</svg>
