<?xml version="1.0" encoding="UTF-8" standalone="no"?>
<svg
   inkscape:version="1.1.2 (0a00cf5339, 2022-02-04, custom)"
   sodipodi:docname="logo.svg"
   id="svg1011"
   version="1.1"
   viewBox="0 0 485.76577 108"
   height="144"
   width="647.65039"
   xmlns:inkscape="http://www.inkscape.org/namespaces/inkscape"
   xmlns:sodipodi="http://sodipodi.sourceforge.net/DTD/sodipodi-0.dtd"
   xmlns="http://www.w3.org/2000/svg"
   xmlns:svg="http://www.w3.org/2000/svg"
   xmlns:rdf="http://www.w3.org/1999/02/22-rdf-syntax-ns#"
   xmlns:cc="http://creativecommons.org/ns#"
   xmlns:dc="http://purl.org/dc/elements/1.1/">
  <metadata
     id="metadata1017">
    <rdf:RDF>
      <cc:Work
         rdf:about="">
        <dc:format>image/svg+xml</dc:format>
        <dc:type
           rdf:resource="http://purl.org/dc/dcmitype/StillImage" />
        <dc:title>Freifunk.net</dc:title>
      </cc:Work>
    </rdf:RDF>
  </metadata>
  <defs
     id="defs1015" />
  <sodipodi:namedview
     inkscape:current-layer="g1009"
     inkscape:window-maximized="1"
     inkscape:window-y="0"
     inkscape:window-x="0"
     inkscape:cy="27.035858"
     inkscape:cx="258.23905"
     inkscape:zoom="1.6089743"
     showgrid="false"
     id="namedview1013"
     inkscape:window-height="1003"
     inkscape:window-width="1920"
     inkscape:pageshadow="2"
     inkscape:pageopacity="0"
     guidetolerance="10"
     gridtolerance="10"
     objecttolerance="10"
     borderopacity="1"
     inkscape:document-rotation="0"
     bordercolor="#666666"
     pagecolor="#ffffff"
     inkscape:pagecheckerboard="true"
     inkscape:document-units="mm"
     width="647.65039px"
     units="px" />
  <title
     id="title959">Freifunk.net</title>
  <g
     id="g965"
     transform="matrix(0.63369303,0,0,0.61852455,2.6410537,0.11062788)">
    <path
       id="path961"
       style="fill:#ffffff"
       d="M 67.45,51.55 A 60.49,60.49 0 1 1 7.21,112 60.37,60.37 0 0 1 67.45,51.55 Z" />
    <path
       id="path963"
       style="fill:#ffffff"
       d="m 156.81,0.29 c 47.51,0 86,38.67 86,86.38 0,47.71 -38.51,86.38 -86,86.38 -47.49,0 -86,-38.67 -86,-86.38 0,-47.71 38.49,-86.38 86,-86.38 z" />
  </g>
  <g
     id="g975"
     transform="matrix(0.63369303,0,0,0.61852455,2.6410537,0.11062788)">
    <path
       id="path967"
       style="fill:#dc0468"
       d="M 67.45,163.72 A 51.68,51.68 0 1 1 118.91,112 51.63,51.63 0 0 1 67.45,163.72 Z m 0,-100.82 A 49.15,49.15 0 1 0 116.39,112 49.1,49.1 0 0 0 67.45,62.9 Z" />
    <g
       id="g973">
      <path
         id="path969"
         style="fill:#dc0468"
         d="M 156.8,164.81 C 113.88,164.81 79,129.76 79,86.68 79,43.6 113.88,8.54 156.8,8.54 v 0 c 42.92,0 77.84,35.05 77.84,78.13 0,43.08 -34.91,78.14 -77.84,78.14 z m 0,-141.15 a 63,63 0 1 0 62.72,63 62.94,62.94 0 0 0 -62.71,-63 z" />
      <path
         id="path971"
         style="fill:#dc0468"
         d="M 156.81,142 A 55.35,55.35 0 1 1 211.93,86.65 55.3,55.3 0 0 1 156.81,142 Z m 0,-108.17 A 52.82,52.82 0 1 0 209.4,86.68 52.77,52.77 0 0 0 156.81,33.85 Z" />
    </g>
  </g>
  <path
     id="path977"
     style="fill:#fab313;stroke-width:0.626063"
     d="m 46.207449,62.334198 -7.952847,-7.79341 H 30.76435 l 5.304011,5.201792 H 25.454003 v 5.201792 h 10.614358 l -5.304011,5.201791 h 7.490252 l 7.952847,-7.799594 v 0 z" />
  <path
     id="path979"
     style="fill:#fab313;stroke-width:0.626063"
     d="m 86.155458,62.334198 13.440631,-13.2055 h 12.673861 l -8.94141,8.80779 h 17.97153 v 8.801605 h -17.97153 l 8.97943,8.83253 H 99.596089 Z" />
  <g
     id="g1009"
     transform="translate(151.26802,-158.59358)">
    <text
       xml:space="preserve"
       style="font-style:normal;font-variant:normal;font-weight:normal;font-stretch:normal;font-size:86.005px;line-height:125%;font-family:'24CF2E_0_0';-inkscape-font-specification:'24CF2E_0_0, Normal';font-variant-ligatures:normal;font-variant-caps:normal;font-variant-numeric:normal;font-variant-east-asian:normal;letter-spacing:0px;word-spacing:0px;fill:#ffffff;fill-opacity:1;stroke:none;stroke-width:0.750043px;stroke-linecap:butt;stroke-linejoin:miter;stroke-opacity:1"
       x="25.880941"
       y="243.1315"
       id="text12493"><tspan
         sodipodi:role="line"
         id="tspan12491"
         style="font-style:normal;font-variant:normal;font-weight:normal;font-stretch:normal;font-size:86.005px;font-family:'24CF2E_0_0';-inkscape-font-specification:'24CF2E_0_0, Normal';font-variant-ligatures:normal;font-variant-caps:normal;font-variant-numeric:normal;font-variant-east-asian:normal;stroke-width:0.750043px;fill:#ffffff"
         x="25.880941"
         y="243.1315">freifunk.net</tspan></text>
  </g>
</svg>
