<?xml version="1.0" encoding="UTF-8" standalone="no"?>
<svg
   inkscape:version="1.1.2 (0a00cf5339, 2022-02-04, custom)"
   sodipodi:docname="logo.svg"
   id="svg1011"
   version="1.1"
   viewBox="0 0 485.76577 108"
   height="144"
   width="647.65039"
   xmlns:inkscape="http://www.inkscape.org/namespaces/inkscape"
   xmlns:sodipodi="http://sodipodi.sourceforge.net/DTD/sodipodi-0.dtd"
   xmlns="http://www.w3.org/2000/svg"
   xmlns:svg="http://www.w3.org/2000/svg"
   xmlns:rdf="http://www.w3.org/1999/02/22-rdf-syntax-ns#"
   xmlns:cc="http://creativecommons.org/ns#"
   xmlns:dc="http://purl.org/dc/elements/1.1/">
  <metadata
     id="metadata1017">
    <rdf:RDF>
      <cc:Work
         rdf:about="">
        <dc:format>image/svg+xml</dc:format>
        <dc:type
           rdf:resource="http://purl.org/dc/dcmitype/StillImage" />
        <dc:title>Freifunk.net</dc:title>
      </cc:Work>
    </rdf:RDF>
  </metadata>
  <defs
     id="defs1015" />
  <sodipodi:namedview
     inkscape:current-layer="text12493"
     inkscape:window-maximized="1"
     inkscape:window-y="0"
     inkscape:window-x="0"
     inkscape:cy="27.035858"
     inkscape:cx="253.88846"
     inkscape:zoom="1.6089743"
     showgrid="false"
     id="namedview1013"
     inkscape:window-height="1363"
     inkscape:window-width="3440"
     inkscape:pageshadow="2"
     inkscape:pageopacity="0"
     guidetolerance="10"
     gridtolerance="10"
     objecttolerance="10"
     borderopacity="1"
     inkscape:document-rotation="0"
     bordercolor="#666666"
     pagecolor="#ffffff"
     inkscape:pagecheckerboard="true"
     inkscape:document-units="mm"
     width="647.65039px"
     units="px" />
  <title
     id="title959">Freifunk.net</title>
  <g
     id="g965"
     transform="matrix(0.63369303,0,0,0.61852455,2.6410537,0.11062788)">
    <path
       id="path961"
       style="fill:#ffffff"
       d="M 67.45,51.55 A 60.49,60.49 0 1 1 7.21,112 60.37,60.37 0 0 1 67.45,51.55 Z" />
    <path
       id="path963"
       style="fill:#ffffff"
       d="m 156.81,0.29 c 47.51,0 86,38.67 86,86.38 0,47.71 -38.51,86.38 -86,86.38 -47.49,0 -86,-38.67 -86,-86.38 0,-47.71 38.49,-86.38 86,-86.38 z" />
  </g>
  <g
     id="g975"
     transform="matrix(0.63369303,0,0,0.61852455,2.6410537,0.11062788)">
    <path
       id="path967"
       style="fill:#dc0468"
       d="M 67.45,163.72 A 51.68,51.68 0 1 1 118.91,112 51.63,51.63 0 0 1 67.45,163.72 Z m 0,-100.82 A 49.15,49.15 0 1 0 116.39,112 49.1,49.1 0 0 0 67.45,62.9 Z" />
    <g
       id="g973">
      <path
         id="path969"
         style="fill:#dc0468"
         d="M 156.8,164.81 C 113.88,164.81 79,129.76 79,86.68 79,43.6 113.88,8.54 156.8,8.54 v 0 c 42.92,0 77.84,35.05 77.84,78.13 0,43.08 -34.91,78.14 -77.84,78.14 z m 0,-141.15 a 63,63 0 1 0 62.72,63 62.94,62.94 0 0 0 -62.71,-63 z" />
      <path
         id="path971"
         style="fill:#dc0468"
         d="M 156.81,142 A 55.35,55.35 0 1 1 211.93,86.65 55.3,55.3 0 0 1 156.81,142 Z m 0,-108.17 A 52.82,52.82 0 1 0 209.4,86.68 52.77,52.77 0 0 0 156.81,33.85 Z" />
    </g>
  </g>
  <path
     id="path977"
     style="fill:#fab313;stroke-width:0.626063"
     d="m 46.207449,62.334198 -7.952847,-7.79341 H 30.76435 l 5.304011,5.201792 H 25.454003 v 5.201792 h 10.614358 l -5.304011,5.201791 h 7.490252 l 7.952847,-7.799594 v 0 z" />
  <path
     id="path979"
     style="fill:#fab313;stroke-width:0.626063"
     d="m 86.155458,62.334198 13.440631,-13.2055 h 12.673861 l -8.94141,8.80779 h 17.97153 v 8.801605 h -17.97153 l 8.97943,8.83253 H 99.596089 Z" />
  <g
     id="g1009"
     transform="translate(151.26802,-158.59358)">
    <g
       aria-label="freifunk.net"
       id="text12493"
       style="font-size:86.005px;line-height:125%;font-family:'24CF2E_0_0';-inkscape-font-specification:'24CF2E_0_0, Normal';letter-spacing:0px;word-spacing:0px;fill:#ffffff;stroke-width:0.750043px">
      <path
         d="m 29.40849,243.1315 v -41.70066 h -2.687656 v -7.853 h 2.687656 v -4.7034 q 0,-3.61154 2.183721,-5.62728 2.18372,-2.05774 6.089221,-2.05774 h 6.17321 v 7.76901 q -1.931753,0 -2.729651,0.46194 -0.797898,0.41995 -0.797898,1.51181 v 2.64566 h 3.527549 v 7.853 h -3.527549 v 41.70066 z"
         id="path1053" />
      <path
         d="m 45.82839,243.1315 v -49.55366 h 10.750625 v 4.15747 h 0.167978 q 1.385823,-2.60367 3.317576,-3.82151 1.931753,-1.25984 4.493425,-1.25984 3.569543,0 5.333318,2.14172 1.805769,2.09974 1.805769,6.2992 v 19.14955 H 60.694488 v -15.53801 q 0,-1.72178 -0.461941,-2.30971 -0.419946,-0.62992 -1.511806,-0.62992 -1.007871,0 -1.511807,0.71391 -0.461941,0.71391 -0.461941,2.22572 v 38.42508 z"
         id="path1055" />
      <path
         d="m 85.051372,203.15261 v 9.36481 h 3.947495 v -9.36481 q 0,-1.63779 -0.461941,-2.3097 -0.461941,-0.71391 -1.511807,-0.71391 -1.049866,0 -1.511807,0.71391 -0.46194,0.67191 -0.46194,2.3097 z m 0,29.98417 q 0,1.63779 0.46194,2.3517 0.461941,0.67191 1.511807,0.67191 1.049866,0 1.511807,-0.67191 0.461941,-0.71391 0.461941,-2.3517 v -9.28081 H 99.91747 v 9.19682 q 0,5.37531 -3.401565,8.35693 -3.35957,2.93962 -9.490786,2.93962 -6.929113,0 -9.910732,-3.19159 -2.981619,-3.19159 -2.981619,-10.9186 v -23.72696 q 0,-7.81101 2.939624,-10.9606 2.939624,-3.1496 9.868738,-3.1496 6.089221,0 9.53278,2.85563 3.44356,2.81364 3.44356,7.81101 v 16.83984 H 85.051372 Z"
         id="path1057" />
      <path
         d="m 103.36103,243.1315 v -49.55366 h 10.9186 v 49.55366 z m 0,-52.53528 v -9.4068 h 10.9186 v 9.4068 z"
         id="path1059" />
      <path
         d="m 119.61295,243.1315 v -41.70066 h -2.68766 v -7.853 h 2.68766 v -4.7034 q 0,-3.61154 2.18372,-5.62728 2.18372,-2.05774 6.08922,-2.05774 h 6.17321 v 7.76901 q -1.93175,0 -2.72965,0.46194 -0.7979,0.41995 -0.7979,1.51181 v 2.64566 h 3.52755 v 7.853 h -3.52755 v 41.70066 z"
         id="path1061" />
      <path
         d="m 161.90154,193.57784 v 49.55366 h -10.75063 v -4.11547 h -0.25196 q -1.38583,2.56167 -3.27558,3.77951 -1.84777,1.17585 -4.45143,1.17585 -3.56955,0 -5.37532,-2.05773 -1.76377,-2.09974 -1.76377,-6.2572 v -42.07862 h 10.9186 v 38.46708 q 0,1.63779 0.46194,2.26771 0.50394,0.62992 1.5958,0.62992 1.00787,0 1.42782,-0.67192 0.46194,-0.67191 0.46194,-2.22571 v -38.46708 z"
         id="path1063" />
      <path
         d="m 165.3451,243.1315 v -49.55366 h 10.75062 v 4.15747 h 0.16798 q 1.38582,-2.60367 3.31758,-3.82151 1.93175,-1.25984 4.49342,-1.25984 3.56954,0 5.33332,2.14172 1.80577,2.09974 1.80577,6.2992 v 42.03662 h -11.0026 v -38.42508 q 0,-1.72178 -0.46194,-2.30971 -0.41994,-0.62992 -1.5118,-0.62992 -1.00787,0 -1.51181,0.71391 -0.46194,0.71391 -0.46194,2.22572 v 38.42508 z"
         id="path1065" />
      <path
         d="m 194.65735,243.1315 v -61.94208 h 10.91861 v 33.97366 h 0.16797 l 4.66141,-21.58524 h 11.17057 l -5.41731,21.41726 5.41731,28.1364 h -11.50653 l -4.32545,-25.95268 h -0.16797 v 25.95268 z"
         id="path1067" />
      <path
         d="m 223.71763,243.1315 v -12.64038 h 11.38055 v 12.64038 z"
         id="path1069" />
      <path
         d="m 239.38163,243.1315 v -49.55366 h 10.75062 v 4.15747 h 0.16798 q 1.38582,-2.60367 3.31757,-3.82151 1.93176,-1.25984 4.49343,-1.25984 3.56954,0 5.33332,2.14172 1.80577,2.09974 1.80577,6.2992 v 42.03662 h -11.0026 v -38.42508 q 0,-1.72178 -0.46194,-2.30971 -0.41994,-0.62992 -1.5118,-0.62992 -1.00787,0 -1.51181,0.71391 -0.46194,0.71391 -0.46194,2.22572 v 38.42508 z"
         id="path1071" />
      <path
         d="m 279.44451,203.15261 v 9.36481 h 3.94749 v -9.36481 q 0,-1.63779 -0.46194,-2.3097 -0.46194,-0.71391 -1.51181,-0.71391 -1.04986,0 -1.5118,0.71391 -0.46194,0.67191 -0.46194,2.3097 z m 0,29.98417 q 0,1.63779 0.46194,2.3517 0.46194,0.67191 1.5118,0.67191 1.04987,0 1.51181,-0.67191 0.46194,-0.71391 0.46194,-2.3517 v -9.28081 h 10.9186 v 9.19682 q 0,5.37531 -3.40156,8.35693 -3.35957,2.93962 -9.49079,2.93962 -6.92911,0 -9.91073,-3.19159 -2.98162,-3.19159 -2.98162,-10.9186 v -23.72696 q 0,-7.81101 2.93963,-10.9606 2.93962,-3.1496 9.86873,-3.1496 6.08923,0 9.53279,2.85563 3.44355,2.81364 3.44355,7.81101 v 16.83984 h -14.86609 z"
         id="path1073" />
      <path
         d="m 296.03237,201.51482 v -7.93698 h 2.77165 v -9.19682 h 11.00259 v 9.19682 h 3.19159 v 7.93698 h -3.19159 v 30.11015 q 0,2.30971 0.54593,2.93963 0.58793,0.58792 2.26771,0.58792 h 0.37795 v 7.97898 h -6.88711 q -3.98949,0 -5.66928,-1.80577 -1.63779,-1.84776 -1.63779,-6.88712 v -32.92379 z"
         id="path1075" />
    </g>
  </g>
</svg>
