<?xml version="1.0" encoding="UTF-8" standalone="no"?>
<!-- Created with Inkscape (http://www.inkscape.org/) -->

<svg
   xmlns:dc="http://purl.org/dc/elements/1.1/"
   xmlns:cc="http://creativecommons.org/ns#"
   xmlns:rdf="http://www.w3.org/1999/02/22-rdf-syntax-ns#"
   xmlns:svg="http://www.w3.org/2000/svg"
   xmlns="http://www.w3.org/2000/svg"
   xmlns:sodipodi="http://sodipodi.sourceforge.net/DTD/sodipodi-0.dtd"
   xmlns:inkscape="http://www.inkscape.org/namespaces/inkscape"
   version="1.1"
   id="svg2"
   xml:space="preserve"
   width="254.43544"
   height="255.10266"
   viewBox="0 0 254.43544 255.10266"
   sodipodi:docname="logo.svg"
   inkscape:version="0.92.2 2405546, 2018-03-11"><metadata
     id="metadata8"><rdf:RDF><cc:Work
         rdf:about=""><dc:format>image/svg+xml</dc:format><dc:type
           rdf:resource="http://purl.org/dc/dcmitype/StillImage" /><dc:title></dc:title></cc:Work></rdf:RDF></metadata><defs
     id="defs6"><clipPath
       clipPathUnits="userSpaceOnUse"
       id="clipPath18"><path
         d="M 0,283.465 H 283.465 V 0 H 0 Z"
         id="path16"
         inkscape:connector-curvature="0" /></clipPath></defs><sodipodi:namedview
     pagecolor="#ffffff"
     bordercolor="#666666"
     borderopacity="1"
     objecttolerance="10"
     gridtolerance="10"
     guidetolerance="10"
     inkscape:pageopacity="0"
     inkscape:pageshadow="2"
     inkscape:window-width="1918"
     inkscape:window-height="1042"
     id="namedview4"
     showgrid="false"
     fit-margin-top="0"
     fit-margin-left="0"
     fit-margin-right="0"
     fit-margin-bottom="0"
     inkscape:zoom="2.4976628"
     inkscape:cx="92.067215"
     inkscape:cy="143.17896"
     inkscape:window-x="0"
     inkscape:window-y="18"
     inkscape:window-maximized="0"
     inkscape:current-layer="g10" /><g
     id="g10"
     inkscape:groupmode="layer"
     inkscape:label="Sticker 6"
     transform="matrix(1.3333333,0,0,-1.3333333,-61.759221,316.52773)"><g
       id="g12"><g
         id="g14"
         clip-path="url(#clipPath18)"><g
           id="g20"
           transform="translate(236.9975,143.5558)"><path
             d="m 0,0 c -0.008,0.139 -0.021,0.277 -0.04,0.415 l -0.205,1.529 c -0.03,0.226 -0.074,0.45 -0.131,0.67 l -0.382,1.47 C -0.801,4.251 -0.852,4.415 -0.91,4.577 l -0.527,1.47 c -0.06,0.165 -0.127,0.328 -0.201,0.487 l -0.675,1.441 c -0.051,0.111 -0.107,0.22 -0.166,0.327 l -0.792,1.441 c -0.067,0.124 -0.141,0.246 -0.218,0.365 l -0.938,1.441 c -0.077,0.118 -0.159,0.234 -0.245,0.347 l -1.056,1.382 c -1.072,1.404 -2.738,2.228 -4.505,2.228 h -9.145 c -1.949,8.563 -5.32,16.761 -9.917,24.117 l 6.451,6.47 c 1.287,1.29 1.875,3.12 1.58,4.919 l -0.293,1.794 c -0.023,0.138 -0.05,0.275 -0.083,0.411 l -0.411,1.706 c -0.02,0.084 -0.042,0.168 -0.066,0.251 l -0.469,1.617 c -0.027,0.092 -0.056,0.183 -0.087,0.273 l -0.264,0.765 c -0.021,0.059 -0.357,0.942 -0.357,0.942 -0.033,0.083 -0.067,0.167 -0.103,0.25 l -0.323,0.735 c -0.037,0.084 -0.076,0.167 -0.117,0.25 l -0.396,0.793 -0.352,0.677 c -0.046,0.089 -0.095,0.176 -0.145,0.263 l -0.382,0.647 c -0.052,0.088 -0.106,0.174 -0.162,0.259 l -0.411,0.617 c -0.058,0.087 -0.118,0.173 -0.181,0.257 l -0.44,0.588 c -0.064,0.086 -0.131,0.17 -0.199,0.252 l -0.47,0.558 c -0.068,0.083 -0.14,0.163 -0.213,0.241 l -0.499,0.53 c -0.074,0.078 -0.15,0.154 -0.228,0.228 l -0.528,0.5 c -0.078,0.074 -0.158,0.146 -0.24,0.215 l -0.557,0.471 c -0.082,0.069 -0.166,0.136 -0.252,0.2 l -0.587,0.441 c -0.082,0.063 -0.167,0.123 -0.253,0.18 l -0.616,0.412 c -0.087,0.059 -0.175,0.114 -0.265,0.167 l -0.645,0.382 c -0.085,0.051 -0.171,0.099 -0.259,0.144 l -0.761,0.398 -0.704,0.353 c -0.058,0.029 -0.879,0.408 -0.879,0.408 -0.084,0.039 -0.169,0.075 -0.254,0.109 l -0.734,0.295 c -0.083,0.033 -0.168,0.065 -0.253,0.094 l -0.762,0.265 c -0.08,0.028 -0.161,0.054 -0.244,0.078 l -1.583,0.471 c -0.116,0.035 -0.234,0.066 -0.353,0.093 l -1.671,0.382 c -0.109,0.025 -0.219,0.046 -0.329,0.065 l -1.759,0.294 c -0.312,0.052 -0.624,0.077 -0.934,0.077 -1.494,0 -2.943,-0.591 -4.015,-1.666 l -6.456,-6.475 c -7.35,4.642 -15.509,8.051 -24.001,10.028 v 9.118 c 0,1.56 -0.643,3.051 -1.777,4.122 l -0.437,0.413 -0.467,0.468 c -0.074,0.074 -0.15,0.146 -0.228,0.216 l -0.557,0.5 c -0.077,0.069 -0.156,0.136 -0.236,0.201 l -0.586,0.471 c -0.13,0.104 -0.263,0.202 -0.401,0.294 l -0.616,0.412 c -0.115,0.076 -0.233,0.149 -0.354,0.217 l -0.674,0.382 c -0.084,0.048 -0.17,0.094 -0.256,0.137 l -0.704,0.353 c -0.082,0.041 -0.165,0.08 -0.249,0.117 l -0.733,0.324 c -0.083,0.037 -0.166,0.071 -0.25,0.104 l -0.763,0.293 c -0.08,0.031 -0.161,0.061 -0.243,0.088 l -0.792,0.265 c -0.137,0.045 -0.276,0.086 -0.416,0.121 l -0.821,0.206 c -0.076,0.02 -0.153,0.037 -0.23,0.053 l -0.851,0.176 c -0.136,0.028 -0.273,0.051 -0.41,0.069 l -1.788,0.236 c -0.156,0.02 -0.312,0.035 -0.469,0.042 l -1.848,0.088 c -0.09,0.005 -0.181,0.007 -0.271,0.007 -0.09,0 -0.181,-0.002 -0.271,-0.007 l -1.847,-0.088 c -0.157,-0.007 -0.313,-0.022 -0.469,-0.042 l -1.788,-0.236 c -0.138,-0.018 -0.275,-0.041 -0.411,-0.069 l -0.851,-0.176 c -0.076,-0.016 -0.152,-0.033 -0.229,-0.052 l -0.821,-0.206 c -0.078,-0.02 -0.156,-0.041 -0.233,-0.064 l -0.791,-0.235 c -0.145,-0.043 -0.288,-0.092 -0.429,-0.146 l -0.763,-0.295 c -0.083,-0.032 -0.165,-0.066 -0.246,-0.102 l -0.733,-0.323 c -0.086,-0.038 -0.171,-0.078 -0.255,-0.12 l -0.703,-0.353 c -0.118,-0.059 -0.235,-0.123 -0.348,-0.19 l -0.645,-0.382 c -0.089,-0.053 -0.175,-0.107 -0.261,-0.164 l -0.615,-0.412 c -0.088,-0.059 -0.175,-0.12 -0.259,-0.184 l -0.587,-0.441 c -0.124,-0.094 -0.245,-0.192 -0.361,-0.296 l -0.528,-0.47 c -0.083,-0.075 -0.164,-0.152 -0.243,-0.231 l -0.499,-0.5 c -0.078,-0.078 -0.154,-0.159 -0.227,-0.242 l -0.47,-0.529 c -0.922,-1.04 -1.43,-2.383 -1.427,-3.773 l 0.02,-9.135 c -8.472,-1.95 -16.641,-5.338 -24.008,-9.953 l -6.439,6.458 c -1.073,1.076 -2.522,1.667 -4.015,1.667 -0.329,0 -0.661,-0.029 -0.992,-0.088 l -1.818,-0.324 c -0.084,-0.014 -0.168,-0.031 -0.251,-0.05 l -1.701,-0.382 c -0.116,-0.026 -0.23,-0.056 -0.345,-0.089 l -1.613,-0.471 c -0.091,-0.027 -0.181,-0.055 -0.271,-0.087 l -0.762,-0.264 c -0.06,-0.021 -0.943,-0.36 -0.943,-0.36 -0.084,-0.033 -0.168,-0.067 -0.25,-0.104 l -0.733,-0.323 c -0.083,-0.038 -0.166,-0.076 -0.248,-0.117 l -0.704,-0.353 c -0.03,-0.015 -0.765,-0.4 -0.765,-0.4 -0.089,-0.045 -0.176,-0.094 -0.261,-0.145 l -0.646,-0.382 c -0.088,-0.053 -0.174,-0.107 -0.26,-0.164 l -0.615,-0.412 c -0.088,-0.059 -0.175,-0.12 -0.259,-0.184 l -0.587,-0.441 c -0.084,-0.063 -0.166,-0.129 -0.247,-0.197 l -0.557,-0.47 c -0.082,-0.07 -0.163,-0.142 -0.242,-0.217 l -0.528,-0.5 c -0.078,-0.074 -0.154,-0.15 -0.228,-0.228 l -0.498,-0.53 c -0.075,-0.078 -0.146,-0.159 -0.216,-0.242 l -0.47,-0.559 c -0.067,-0.081 -0.133,-0.164 -0.196,-0.248 l -0.44,-0.588 c -0.063,-0.085 -0.125,-0.172 -0.183,-0.261 l -0.411,-0.617 c -0.056,-0.085 -0.109,-0.171 -0.161,-0.258 l -0.381,-0.647 c -0.051,-0.087 -0.1,-0.174 -0.146,-0.263 l -0.396,-0.762 -0.352,-0.706 c -0.028,-0.057 -0.404,-0.877 -0.404,-0.877 -0.039,-0.086 -0.077,-0.172 -0.111,-0.26 l -0.293,-0.736 c -0.033,-0.081 -0.064,-0.164 -0.092,-0.247 l -0.264,-0.764 c -0.028,-0.081 -0.055,-0.163 -0.079,-0.246 l -0.469,-1.588 c -0.034,-0.115 -0.064,-0.231 -0.09,-0.348 l -0.382,-1.676 c -0.031,-0.138 -0.058,-0.278 -0.079,-0.418 l -0.264,-1.764 c -0.266,-1.775 0.325,-3.572 1.592,-4.843 l 6.483,-6.501 c -4.666,-7.447 -8.074,-15.636 -10.026,-24.086 h -9.038 c -1.812,0 -3.515,-0.866 -4.582,-2.331 l -1.114,-1.529 c -0.069,-0.095 -0.135,-0.191 -0.197,-0.289 l -0.938,-1.471 c -0.06,-0.093 -0.117,-0.189 -0.171,-0.285 l -0.821,-1.471 c -0.073,-0.13 -0.14,-0.263 -0.203,-0.399 l -0.674,-1.471 c -0.068,-0.147 -0.129,-0.296 -0.183,-0.448 l -0.528,-1.471 c -0.058,-0.162 -0.109,-0.327 -0.153,-0.493 l -0.381,-1.471 c -0.044,-0.174 -0.082,-0.351 -0.11,-0.529 l -0.234,-1.471 c -0.03,-0.183 -0.05,-0.367 -0.061,-0.552 l -0.088,-1.47 c -0.011,-0.188 -0.013,-0.377 -0.006,-0.566 l 0.059,-1.471 c 0.009,-0.223 0.031,-0.446 0.066,-0.667 l 0.234,-1.47 c 0.029,-0.179 0.066,-0.356 0.111,-0.531 l 0.382,-1.47 c 0.043,-0.166 0.093,-0.33 0.151,-0.491 l 0.528,-1.471 c 0.06,-0.166 0.127,-0.329 0.201,-0.488 l 0.675,-1.441 c 0.051,-0.111 0.107,-0.221 0.166,-0.328 l 0.792,-1.441 c 0.068,-0.123 0.14,-0.244 0.217,-0.362 l 0.938,-1.441 c 0.057,-0.087 0.117,-0.173 0.178,-0.257 l 1.056,-1.441 c 1.068,-1.458 2.766,-2.319 4.573,-2.319 h 9.154 c 1.95,-8.519 5.333,-16.713 9.952,-24.103 l -6.436,-6.455 c -1.287,-1.289 -1.874,-3.118 -1.581,-4.916 l 0.293,-1.795 c 0.018,-0.108 0.039,-0.216 0.062,-0.324 l 0.382,-1.705 c 0.026,-0.114 0.055,-0.228 0.087,-0.341 l 0.469,-1.617 c 0.027,-0.092 0.056,-0.183 0.087,-0.273 l 0.264,-0.765 c 0.021,-0.059 0.357,-0.942 0.357,-0.942 0.033,-0.084 0.067,-0.168 0.104,-0.251 l 0.323,-0.735 c 0.036,-0.084 0.075,-0.167 0.116,-0.25 l 0.396,-0.791 0.352,-0.677 c 0.046,-0.089 0.095,-0.176 0.146,-0.263 l 0.381,-0.647 c 0.052,-0.087 0.105,-0.173 0.161,-0.258 l 0.411,-0.617 c 0.058,-0.089 0.12,-0.176 0.183,-0.261 l 0.44,-0.588 c 0.063,-0.084 0.129,-0.167 0.196,-0.248 l 0.47,-0.559 c 0.07,-0.083 0.141,-0.164 0.216,-0.242 l 0.498,-0.53 c 0.074,-0.078 0.15,-0.154 0.228,-0.228 l 0.528,-0.5 c 0.078,-0.074 0.158,-0.146 0.24,-0.215 l 0.557,-0.471 c 0.082,-0.069 0.166,-0.136 0.252,-0.2 l 0.586,-0.441 c 0.084,-0.063 0.17,-0.124 0.257,-0.182 l 0.615,-0.411 c 0.086,-0.058 0.172,-0.112 0.26,-0.165 l 0.646,-0.382 c 0.085,-0.051 0.172,-0.099 0.261,-0.145 l 1.351,-0.707 c 0.085,-0.045 0.17,-0.087 0.257,-0.127 l 0.704,-0.324 c 0.086,-0.039 0.173,-0.076 0.26,-0.111 l 0.733,-0.294 c 0.083,-0.034 0.166,-0.065 0.25,-0.094 l 0.763,-0.264 c 0.08,-0.029 0.162,-0.054 0.244,-0.079 l 1.583,-0.471 c 0.116,-0.034 0.233,-0.065 0.351,-0.092 l 1.671,-0.382 c 0.11,-0.026 0.219,-0.047 0.33,-0.066 l 1.76,-0.294 c 0.312,-0.052 0.624,-0.077 0.934,-0.077 1.494,0 2.943,0.591 4.015,1.666 l 6.466,6.485 c 7.378,-4.634 15.531,-8.029 23.981,-9.985 l 0.039,-9.224 c 0.007,-1.812 0.881,-3.512 2.35,-4.572 l 1.466,-1.059 c 0.084,-0.061 0.169,-0.119 0.257,-0.175 l 1.466,-0.941 c 0.093,-0.06 0.189,-0.118 0.287,-0.173 l 1.466,-0.823 c 0.13,-0.073 0.263,-0.141 0.399,-0.204 l 1.466,-0.676 c 0.148,-0.069 0.299,-0.131 0.453,-0.186 l 1.466,-0.529 c 0.128,-0.047 0.258,-0.088 0.389,-0.125 l 1.466,-0.412 c 0.21,-0.059 0.423,-0.106 0.638,-0.14 l 1.466,-0.235 c 0.184,-0.03 0.369,-0.05 0.555,-0.061 l 1.466,-0.089 c 0.114,-0.007 0.228,-0.01 0.342,-0.01 0.113,0 0.227,0.003 0.341,0.01 l 1.466,0.089 c 0.186,0.011 0.371,0.031 0.555,0.061 l 1.466,0.235 c 0.18,0.028 0.359,0.066 0.534,0.112 l 1.466,0.382 c 0.167,0.044 0.332,0.095 0.494,0.153 l 1.467,0.53 c 0.167,0.06 0.331,0.128 0.491,0.204 l 1.436,0.677 c 0.111,0.051 0.219,0.107 0.326,0.166 l 1.437,0.794 c 0.124,0.068 0.246,0.142 0.365,0.219 l 1.436,0.941 c 0.087,0.057 0.173,0.117 0.257,0.178 l 1.437,1.059 c 1.45,1.068 2.306,2.763 2.306,4.564 v 9.214 c 8.451,1.931 16.614,5.312 24.016,9.948 l 6.441,-6.46 c 1.072,-1.076 2.52,-1.667 4.015,-1.667 0.305,0 0.612,0.025 0.919,0.075 l 1.789,0.294 c 0.107,0.018 0.215,0.039 0.322,0.063 l 1.701,0.382 c 0.116,0.026 0.232,0.056 0.346,0.089 l 1.613,0.471 c 0.091,0.027 0.182,0.055 0.271,0.087 l 0.762,0.264 c 0.061,0.021 0.945,0.361 0.945,0.361 0.083,0.032 0.165,0.066 0.246,0.102 l 0.733,0.323 c 0.086,0.038 0.171,0.078 0.255,0.12 l 0.79,0.398 0.675,0.353 c 0.087,0.045 0.174,0.094 0.258,0.144 l 0.646,0.382 c 0.089,0.053 0.178,0.109 0.265,0.167 l 0.615,0.412 c 0.087,0.058 0.171,0.118 0.254,0.18 l 0.587,0.441 c 0.085,0.065 0.169,0.131 0.251,0.201 l 0.557,0.47 c 0.082,0.069 0.161,0.14 0.239,0.213 l 0.527,0.5 c 0.08,0.075 0.157,0.153 0.232,0.232 l 0.499,0.53 c 0.073,0.078 0.143,0.157 0.212,0.239 l 0.469,0.558 c 0.069,0.082 0.136,0.166 0.2,0.252 l 0.44,0.588 c 0.062,0.084 0.122,0.169 0.18,0.256 l 0.411,0.618 c 0.056,0.085 0.11,0.172 0.162,0.26 l 0.381,0.647 c 0.051,0.086 0.1,0.173 0.146,0.262 l 0.397,0.765 0.351,0.705 c 0.029,0.058 0.406,0.881 0.406,0.881 0.038,0.083 0.073,0.167 0.108,0.251 l 0.293,0.735 c 0.033,0.084 0.065,0.169 0.094,0.255 l 0.264,0.764 c 0.028,0.08 0.054,0.161 0.078,0.241 l 0.469,1.588 c 0.034,0.116 0.064,0.232 0.091,0.35 l 0.381,1.676 c 0.025,0.109 0.046,0.217 0.065,0.327 l 0.293,1.765 c 0.299,1.8 -0.286,3.633 -1.572,4.927 l -6.483,6.522 c 4.627,7.406 8.014,15.589 9.964,24.071 h 9.124 c 1.844,0 3.574,0.898 4.636,2.407 l 1.056,1.5 c 0.049,0.07 0.097,0.141 0.143,0.213 l 0.938,1.47 c 0.059,0.094 0.116,0.189 0.17,0.285 l 0.821,1.471 c 0.074,0.131 0.141,0.265 0.204,0.401 l 0.674,1.47 c 0.067,0.147 0.128,0.297 0.183,0.449 l 0.528,1.47 c 0.046,0.129 0.088,0.26 0.125,0.392 l 0.41,1.47 c 0.058,0.207 0.103,0.417 0.137,0.629 l 0.235,1.47 c 0.03,0.185 0.05,0.37 0.061,0.556 l 0.088,1.471 c 0.014,0.225 0.014,0.451 0,0.676 z"
             style="fill:#ffffff;fill-opacity:1;fill-rule:nonzero;stroke:none"
             id="path22"
             inkscape:connector-curvature="0" /></g><g
           id="g24"
           transform="translate(236.9975,143.5558)"><path
             d="m 0,0 c -0.008,0.139 -0.021,0.277 -0.04,0.415 l -0.205,1.529 c -0.03,0.226 -0.074,0.45 -0.131,0.67 l -0.382,1.47 C -0.801,4.251 -0.852,4.415 -0.91,4.577 l -0.527,1.47 c -0.06,0.165 -0.127,0.328 -0.201,0.487 l -0.675,1.441 c -0.051,0.111 -0.107,0.22 -0.166,0.327 l -0.792,1.441 c -0.067,0.124 -0.141,0.246 -0.218,0.365 l -0.938,1.441 c -0.077,0.118 -0.159,0.234 -0.245,0.347 l -1.056,1.382 c -1.072,1.404 -2.738,2.228 -4.505,2.228 h -9.145 c -1.949,8.563 -5.32,16.761 -9.917,24.117 l 6.451,6.47 c 1.287,1.29 1.875,3.12 1.58,4.919 l -0.293,1.794 c -0.023,0.138 -0.05,0.275 -0.083,0.411 l -0.411,1.706 c -0.02,0.084 -0.042,0.168 -0.066,0.251 l -0.469,1.617 c -0.027,0.092 -0.056,0.183 -0.087,0.273 l -0.264,0.765 c -0.021,0.059 -0.357,0.942 -0.357,0.942 -0.033,0.083 -0.067,0.167 -0.103,0.25 l -0.323,0.735 c -0.037,0.084 -0.076,0.167 -0.117,0.25 l -0.396,0.793 -0.352,0.677 c -0.046,0.089 -0.095,0.176 -0.145,0.263 l -0.382,0.647 c -0.052,0.088 -0.106,0.174 -0.162,0.259 l -0.411,0.617 c -0.058,0.087 -0.118,0.173 -0.181,0.257 l -0.44,0.588 c -0.064,0.086 -0.131,0.17 -0.199,0.252 l -0.47,0.558 c -0.068,0.083 -0.14,0.163 -0.213,0.241 l -0.499,0.53 c -0.074,0.078 -0.15,0.154 -0.228,0.228 l -0.528,0.5 c -0.078,0.074 -0.158,0.146 -0.24,0.215 l -0.557,0.471 c -0.082,0.069 -0.166,0.136 -0.252,0.2 l -0.587,0.441 c -0.082,0.063 -0.167,0.123 -0.253,0.18 l -0.616,0.412 c -0.087,0.059 -0.175,0.114 -0.265,0.167 l -0.645,0.382 c -0.085,0.051 -0.171,0.099 -0.259,0.144 l -0.761,0.398 -0.704,0.353 c -0.058,0.029 -0.879,0.408 -0.879,0.408 -0.084,0.039 -0.169,0.075 -0.254,0.109 l -0.734,0.295 c -0.083,0.033 -0.168,0.065 -0.253,0.094 l -0.762,0.265 c -0.08,0.028 -0.161,0.054 -0.244,0.078 l -1.583,0.471 c -0.116,0.035 -0.234,0.066 -0.353,0.093 l -1.671,0.382 c -0.109,0.025 -0.219,0.046 -0.329,0.065 l -1.759,0.294 c -0.312,0.052 -0.624,0.077 -0.934,0.077 -1.494,0 -2.943,-0.591 -4.015,-1.666 l -6.456,-6.475 c -7.35,4.642 -15.509,8.051 -24.001,10.028 v 9.118 c 0,1.56 -0.643,3.051 -1.777,4.122 l -0.437,0.413 -0.467,0.468 c -0.074,0.074 -0.15,0.146 -0.228,0.216 l -0.557,0.5 c -0.077,0.069 -0.156,0.136 -0.236,0.201 l -0.586,0.471 c -0.13,0.104 -0.263,0.202 -0.401,0.294 l -0.616,0.412 c -0.115,0.076 -0.233,0.149 -0.354,0.217 l -0.674,0.382 c -0.084,0.048 -0.17,0.094 -0.256,0.137 l -0.704,0.353 c -0.082,0.041 -0.165,0.08 -0.249,0.117 l -0.733,0.324 c -0.083,0.037 -0.166,0.071 -0.25,0.104 l -0.763,0.293 c -0.08,0.031 -0.161,0.061 -0.243,0.088 l -0.792,0.265 c -0.137,0.045 -0.276,0.086 -0.416,0.121 l -0.821,0.206 c -0.076,0.02 -0.153,0.037 -0.23,0.053 l -0.851,0.176 c -0.136,0.028 -0.273,0.051 -0.41,0.069 l -1.788,0.236 c -0.156,0.02 -0.312,0.035 -0.469,0.042 l -1.848,0.088 c -0.09,0.005 -0.181,0.007 -0.271,0.007 -0.09,0 -0.181,-0.002 -0.271,-0.007 l -1.847,-0.088 c -0.157,-0.007 -0.313,-0.022 -0.469,-0.042 l -1.788,-0.236 c -0.138,-0.018 -0.275,-0.041 -0.411,-0.069 l -0.851,-0.176 c -0.076,-0.016 -0.152,-0.033 -0.229,-0.052 l -0.821,-0.206 c -0.078,-0.02 -0.156,-0.041 -0.233,-0.064 l -0.791,-0.235 c -0.145,-0.043 -0.288,-0.092 -0.429,-0.146 l -0.763,-0.295 c -0.083,-0.032 -0.165,-0.066 -0.246,-0.102 l -0.733,-0.323 c -0.086,-0.038 -0.171,-0.078 -0.255,-0.12 l -0.703,-0.353 c -0.118,-0.059 -0.235,-0.123 -0.348,-0.19 l -0.645,-0.382 c -0.089,-0.053 -0.175,-0.107 -0.261,-0.164 l -0.615,-0.412 c -0.088,-0.059 -0.175,-0.12 -0.259,-0.184 l -0.587,-0.441 c -0.124,-0.094 -0.245,-0.192 -0.361,-0.296 l -0.528,-0.47 c -0.083,-0.075 -0.164,-0.152 -0.243,-0.231 l -0.499,-0.5 c -0.078,-0.078 -0.154,-0.159 -0.227,-0.242 l -0.47,-0.529 c -0.922,-1.04 -1.43,-2.383 -1.427,-3.773 l 0.02,-9.135 c -8.472,-1.95 -16.641,-5.338 -24.008,-9.953 l -6.439,6.458 c -1.073,1.076 -2.522,1.667 -4.015,1.667 -0.329,0 -0.661,-0.029 -0.992,-0.088 l -1.818,-0.324 c -0.084,-0.014 -0.168,-0.031 -0.251,-0.05 l -1.701,-0.382 c -0.116,-0.026 -0.23,-0.056 -0.345,-0.089 l -1.613,-0.471 c -0.091,-0.027 -0.181,-0.055 -0.271,-0.087 l -0.762,-0.264 c -0.06,-0.021 -0.943,-0.36 -0.943,-0.36 -0.084,-0.033 -0.168,-0.067 -0.25,-0.104 l -0.733,-0.323 c -0.083,-0.038 -0.166,-0.076 -0.248,-0.117 l -0.704,-0.353 c -0.03,-0.015 -0.765,-0.4 -0.765,-0.4 -0.089,-0.045 -0.176,-0.094 -0.261,-0.145 l -0.646,-0.382 c -0.088,-0.053 -0.174,-0.107 -0.26,-0.164 l -0.615,-0.412 c -0.088,-0.059 -0.175,-0.12 -0.259,-0.184 l -0.587,-0.441 c -0.084,-0.063 -0.166,-0.129 -0.247,-0.197 l -0.557,-0.47 c -0.082,-0.07 -0.163,-0.142 -0.242,-0.217 l -0.528,-0.5 c -0.078,-0.074 -0.154,-0.15 -0.228,-0.228 l -0.498,-0.53 c -0.075,-0.078 -0.146,-0.159 -0.216,-0.242 l -0.47,-0.559 c -0.067,-0.081 -0.133,-0.164 -0.196,-0.248 l -0.44,-0.588 c -0.063,-0.085 -0.125,-0.172 -0.183,-0.261 l -0.411,-0.617 c -0.056,-0.085 -0.109,-0.171 -0.161,-0.258 l -0.381,-0.647 c -0.051,-0.087 -0.1,-0.174 -0.146,-0.263 l -0.396,-0.762 -0.352,-0.706 c -0.028,-0.057 -0.404,-0.877 -0.404,-0.877 -0.039,-0.086 -0.077,-0.172 -0.111,-0.26 l -0.293,-0.736 c -0.033,-0.081 -0.064,-0.164 -0.092,-0.247 l -0.264,-0.764 c -0.028,-0.081 -0.055,-0.163 -0.079,-0.246 l -0.469,-1.588 c -0.034,-0.115 -0.064,-0.231 -0.09,-0.348 l -0.382,-1.676 c -0.031,-0.138 -0.058,-0.278 -0.079,-0.418 l -0.264,-1.764 c -0.266,-1.775 0.325,-3.572 1.592,-4.843 l 6.483,-6.501 c -4.666,-7.447 -8.074,-15.636 -10.026,-24.086 h -9.038 c -1.812,0 -3.515,-0.866 -4.582,-2.331 l -1.114,-1.529 c -0.069,-0.095 -0.135,-0.191 -0.197,-0.289 l -0.938,-1.471 c -0.06,-0.093 -0.117,-0.189 -0.171,-0.285 l -0.821,-1.471 c -0.073,-0.13 -0.14,-0.263 -0.203,-0.399 l -0.674,-1.471 c -0.068,-0.147 -0.129,-0.296 -0.183,-0.448 l -0.528,-1.471 c -0.058,-0.162 -0.109,-0.327 -0.153,-0.493 l -0.381,-1.471 c -0.044,-0.174 -0.082,-0.351 -0.11,-0.529 l -0.234,-1.471 c -0.03,-0.183 -0.05,-0.367 -0.061,-0.552 l -0.088,-1.47 c -0.011,-0.188 -0.013,-0.377 -0.006,-0.566 l 0.059,-1.471 c 0.009,-0.223 0.031,-0.446 0.066,-0.667 l 0.234,-1.47 c 0.029,-0.179 0.066,-0.356 0.111,-0.531 l 0.382,-1.47 c 0.043,-0.166 0.093,-0.33 0.151,-0.491 l 0.528,-1.471 c 0.06,-0.166 0.127,-0.329 0.201,-0.488 l 0.675,-1.441 c 0.051,-0.111 0.107,-0.221 0.166,-0.328 l 0.792,-1.441 c 0.068,-0.123 0.14,-0.244 0.217,-0.362 l 0.938,-1.441 c 0.057,-0.087 0.117,-0.173 0.178,-0.257 l 1.056,-1.441 c 1.068,-1.458 2.766,-2.319 4.573,-2.319 h 9.154 c 1.95,-8.519 5.333,-16.713 9.952,-24.103 l -6.436,-6.455 c -1.287,-1.289 -1.874,-3.118 -1.581,-4.916 l 0.293,-1.795 c 0.018,-0.108 0.039,-0.216 0.062,-0.324 l 0.382,-1.705 c 0.026,-0.114 0.055,-0.228 0.087,-0.341 l 0.469,-1.617 c 0.027,-0.092 0.056,-0.183 0.087,-0.273 l 0.264,-0.765 c 0.021,-0.059 0.357,-0.942 0.357,-0.942 0.033,-0.084 0.067,-0.168 0.104,-0.251 l 0.323,-0.735 c 0.036,-0.084 0.075,-0.167 0.116,-0.25 l 0.396,-0.791 0.352,-0.677 c 0.046,-0.089 0.095,-0.176 0.146,-0.263 l 0.381,-0.647 c 0.052,-0.087 0.105,-0.173 0.161,-0.258 l 0.411,-0.617 c 0.058,-0.089 0.12,-0.176 0.183,-0.261 l 0.44,-0.588 c 0.063,-0.084 0.129,-0.167 0.196,-0.248 l 0.47,-0.559 c 0.07,-0.083 0.141,-0.164 0.216,-0.242 l 0.498,-0.53 c 0.074,-0.078 0.15,-0.154 0.228,-0.228 l 0.528,-0.5 c 0.078,-0.074 0.158,-0.146 0.24,-0.215 l 0.557,-0.471 c 0.082,-0.069 0.166,-0.136 0.252,-0.2 l 0.586,-0.441 c 0.084,-0.063 0.17,-0.124 0.257,-0.182 l 0.615,-0.411 c 0.086,-0.058 0.172,-0.112 0.26,-0.165 l 0.646,-0.382 c 0.085,-0.051 0.172,-0.099 0.261,-0.145 l 1.351,-0.707 c 0.085,-0.045 0.17,-0.087 0.257,-0.127 l 0.704,-0.324 c 0.086,-0.039 0.173,-0.076 0.26,-0.111 l 0.733,-0.294 c 0.083,-0.034 0.166,-0.065 0.25,-0.094 l 0.763,-0.264 c 0.08,-0.029 0.162,-0.054 0.244,-0.079 l 1.583,-0.471 c 0.116,-0.034 0.233,-0.065 0.351,-0.092 l 1.671,-0.382 c 0.11,-0.026 0.219,-0.047 0.33,-0.066 l 1.76,-0.294 c 0.312,-0.052 0.624,-0.077 0.934,-0.077 1.494,0 2.943,0.591 4.015,1.666 l 6.466,6.485 c 7.378,-4.634 15.531,-8.029 23.981,-9.985 l 0.039,-9.224 c 0.007,-1.812 0.881,-3.512 2.35,-4.572 l 1.466,-1.059 c 0.084,-0.061 0.169,-0.119 0.257,-0.175 l 1.466,-0.941 c 0.093,-0.06 0.189,-0.118 0.287,-0.173 l 1.466,-0.823 c 0.13,-0.073 0.263,-0.141 0.399,-0.204 l 1.466,-0.676 c 0.148,-0.069 0.299,-0.131 0.453,-0.186 l 1.466,-0.529 c 0.128,-0.047 0.258,-0.088 0.389,-0.125 l 1.466,-0.412 c 0.21,-0.059 0.423,-0.106 0.638,-0.14 l 1.466,-0.235 c 0.184,-0.03 0.369,-0.05 0.555,-0.061 l 1.466,-0.089 c 0.114,-0.007 0.228,-0.01 0.342,-0.01 0.113,0 0.227,0.003 0.341,0.01 l 1.466,0.089 c 0.186,0.011 0.371,0.031 0.555,0.061 l 1.466,0.235 c 0.18,0.028 0.359,0.066 0.534,0.112 l 1.466,0.382 c 0.167,0.044 0.332,0.095 0.494,0.153 l 1.467,0.53 c 0.167,0.06 0.331,0.128 0.491,0.204 l 1.436,0.677 c 0.111,0.051 0.219,0.107 0.326,0.166 l 1.437,0.794 c 0.124,0.068 0.246,0.142 0.365,0.219 l 1.436,0.941 c 0.087,0.057 0.173,0.117 0.257,0.178 l 1.437,1.059 c 1.45,1.068 2.306,2.763 2.306,4.564 v 9.214 c 8.451,1.931 16.614,5.312 24.016,9.948 l 6.441,-6.46 c 1.072,-1.076 2.52,-1.667 4.015,-1.667 0.305,0 0.612,0.025 0.919,0.075 l 1.789,0.294 c 0.107,0.018 0.215,0.039 0.322,0.063 l 1.701,0.382 c 0.116,0.026 0.232,0.056 0.346,0.089 l 1.613,0.471 c 0.091,0.027 0.182,0.055 0.271,0.087 l 0.762,0.264 c 0.061,0.021 0.945,0.361 0.945,0.361 0.083,0.032 0.165,0.066 0.246,0.102 l 0.733,0.323 c 0.086,0.038 0.171,0.078 0.255,0.12 l 0.79,0.398 0.675,0.353 c 0.087,0.045 0.174,0.094 0.258,0.144 l 0.646,0.382 c 0.089,0.053 0.178,0.109 0.265,0.167 l 0.615,0.412 c 0.087,0.058 0.171,0.118 0.254,0.18 l 0.587,0.441 c 0.085,0.065 0.169,0.131 0.251,0.201 l 0.557,0.47 c 0.082,0.069 0.161,0.14 0.239,0.213 l 0.527,0.5 c 0.08,0.075 0.157,0.153 0.232,0.232 l 0.499,0.53 c 0.073,0.078 0.143,0.157 0.212,0.239 l 0.469,0.558 c 0.069,0.082 0.136,0.166 0.2,0.252 l 0.44,0.588 c 0.062,0.084 0.122,0.169 0.18,0.256 l 0.411,0.618 c 0.056,0.085 0.11,0.172 0.162,0.26 l 0.381,0.647 c 0.051,0.086 0.1,0.173 0.146,0.262 l 0.397,0.765 0.351,0.705 c 0.029,0.058 0.406,0.881 0.406,0.881 0.038,0.083 0.073,0.167 0.108,0.251 l 0.293,0.735 c 0.033,0.084 0.065,0.169 0.094,0.255 l 0.264,0.764 c 0.028,0.08 0.054,0.161 0.078,0.241 l 0.469,1.588 c 0.034,0.116 0.064,0.232 0.091,0.35 l 0.381,1.676 c 0.025,0.109 0.046,0.217 0.065,0.327 l 0.293,1.765 c 0.299,1.8 -0.286,3.633 -1.572,4.927 l -6.483,6.522 c 4.627,7.406 8.014,15.589 9.964,24.071 h 9.124 c 1.844,0 3.574,0.898 4.636,2.407 l 1.056,1.5 c 0.049,0.07 0.097,0.141 0.143,0.213 l 0.938,1.47 c 0.059,0.094 0.116,0.189 0.17,0.285 l 0.821,1.471 c 0.074,0.131 0.141,0.265 0.204,0.401 l 0.674,1.47 c 0.067,0.147 0.128,0.297 0.183,0.449 l 0.528,1.47 c 0.046,0.129 0.088,0.26 0.125,0.392 l 0.41,1.47 c 0.058,0.207 0.103,0.417 0.137,0.629 l 0.235,1.47 c 0.03,0.185 0.05,0.37 0.061,0.556 l 0.088,1.471 c 0.014,0.225 0.014,0.451 0,0.676 z"
             style="fill:none;stroke:#231f20;stroke-width:0.1;stroke-linecap:butt;stroke-linejoin:miter;stroke-miterlimit:10;stroke-dasharray:none;stroke-opacity:1"
             id="path26"
             inkscape:connector-curvature="0" /></g><g
           id="g28"
           transform="translate(97.9267,114.5446)"><path
             d="M 0,0 -14.837,-14.88 C -21.258,-5.911 -25.598,4.5 -27.416,15.616 H -6.421 C -5.131,10.028 -2.961,4.764 0,0"
             style="fill:#de183b;fill-opacity:1;fill-rule:nonzero;stroke:none"
             id="path30"
             inkscape:connector-curvature="0" /></g><g
           id="g32"
           transform="translate(212.9536,153.3927)"><path
             d="m 0,0 h -20.994 c -1.29,5.558 -3.46,10.822 -6.421,15.586 l 14.866,14.91 C -6.128,21.556 -1.818,11.116 0,0"
             style="fill:#de183b;fill-opacity:1;fill-rule:nonzero;stroke:none"
             id="path34"
             inkscape:connector-curvature="0" /></g><g
           id="g36"
           transform="translate(129.9453,91.4596)"><path
             d="m 0,0 v -21.056 c -10.849,1.794 -21.258,6.087 -30.377,12.645 L -15.54,6.47 C -10.702,3.441 -5.454,1.265 0,0"
             style="fill:#de183b;fill-opacity:1;fill-rule:nonzero;stroke:none"
             id="path38"
             inkscape:connector-curvature="0" /></g><g
           id="g40"
           transform="translate(183.8964,200.504)"><path
             d="m 0,0 v 0 l -14.836,-14.88 c -4.839,3.028 -10.087,5.205 -15.541,6.499 V 12.704 C -19.499,10.881 -9.09,6.587 0,0"
             style="fill:#de183b;fill-opacity:1;fill-rule:nonzero;stroke:none"
             id="path42"
             inkscape:connector-curvature="0" /></g><g
           id="g44"
           transform="translate(168.8837,97.841)"><path
             d="M 0,0 14.836,-14.88 C 5.894,-21.291 -4.486,-25.673 -15.569,-27.467 V -6.411 C -9.999,-5.146 -4.75,-2.97 0,0"
             style="fill:#de183b;fill-opacity:1;fill-rule:nonzero;stroke:none"
             id="path46"
             inkscape:connector-curvature="0" /></g><g
           id="g48"
           transform="translate(130.1503,213.2081)"><path
             d="m 0,0 v -21.056 c -5.541,-1.294 -10.819,-3.47 -15.569,-6.411 l -14.837,14.881 c 8.679,6.234 18.736,10.527 29.439,12.439 C -0.674,-0.118 -0.352,-0.059 0,0"
             style="fill:#de183b;fill-opacity:1;fill-rule:nonzero;stroke:none"
             id="path50"
             inkscape:connector-curvature="0" /></g><g
           id="g52"
           transform="translate(83.1777,184.0651)"><path
             d="m 0,0 14.866,-14.88 c -3.02,-4.853 -5.19,-10.117 -6.48,-15.587 H -12.667 C -10.878,-19.586 -6.539,-9.146 0,0"
             style="fill:#de183b;fill-opacity:1;fill-rule:nonzero;stroke:none"
             id="path54"
             inkscape:connector-curvature="0" /></g><g
           id="g56"
           transform="translate(200.2871,99.4879)"><path
             d="m 0,0 -14.866,14.88 c 3.02,4.852 5.19,10.117 6.48,15.586 H 12.608 C 10.819,19.585 6.539,9.146 0,0"
             style="fill:#de183b;fill-opacity:1;fill-rule:nonzero;stroke:none"
             id="path58"
             inkscape:connector-curvature="0" /></g><g
           id="g60"
           transform="translate(99.5688,83.049)"><path
             d="M 0,0 14.836,14.88 C 8.092,19.115 2.463,24.82 -1.671,31.496 L -16.508,16.615 c 0.008,-0.011 0.018,-0.021 0.026,-0.032 l -9.702,-9.731 0.293,-1.794 0.381,-1.705 0.469,-1.618 0.264,-0.765 0.294,-0.764 0.322,-0.735 0.352,-0.706 0.352,-0.677 0.381,-0.647 0.41,-0.617 0.44,-0.588 0.469,-0.559 0.499,-0.53 0.528,-0.5 0.557,-0.47 0.586,-0.441 0.616,-0.411 0.645,-0.383 0.674,-0.353 0.675,-0.353 0.704,-0.323 0.732,-0.294 0.763,-0.265 1.583,-0.47 1.672,-0.383 1.759,-0.294 L 0,0"
             style="fill:#b21a33;fill-opacity:1;fill-rule:nonzero;stroke:none"
             id="path62"
             inkscape:connector-curvature="0" /></g><g
           id="g64"
           transform="translate(185.5678,169.0079)"><path
             d="m 0,0 14.836,14.88 9.735,9.764 -0.293,1.794 -0.411,1.706 -0.469,1.617 -0.264,0.764 -0.293,0.765 -0.322,0.735 -0.352,0.706 -0.352,0.676 -0.381,0.647 -0.411,0.618 -0.44,0.588 -0.469,0.559 -0.498,0.529 -0.528,0.5 -0.557,0.471 -0.587,0.441 -0.615,0.411 -0.645,0.383 -0.675,0.353 -0.703,0.353 -0.704,0.323 -0.733,0.294 -0.763,0.265 -1.583,0.47 -1.671,0.383 -1.76,0.294 -9.763,-9.793 -14.837,-14.88 C -9.735,12.381 -4.105,6.676 0,0"
             style="fill:#b21a33;fill-opacity:1;fill-rule:nonzero;stroke:none"
             id="path66"
             inkscape:connector-curvature="0" /></g><g
           id="g68"
           transform="translate(141.7324,98.9293)"><path
             d="m 0,0 c 2.023,0 3.665,-1.647 3.665,-3.676 0,-2.029 -1.642,-3.676 -3.665,-3.676 -2.023,0 -3.665,1.647 -3.665,3.676 C -3.665,-1.647 -2.023,0 0,0 M 10.204,-4.646 9.471,-3.353 8.738,-2.147 8.005,-1.029 7.272,0 6.539,0.941 5.806,1.794 5.073,2.559 4.34,3.235 3.607,3.793 2.874,4.264 2.141,4.646 1.408,4.911 0.674,5.058 -0.059,5.117 -0.792,5.058 -1.524,4.911 -2.258,4.646 -2.991,4.264 -3.724,3.793 -4.457,3.235 -5.19,2.559 -5.923,1.794 -6.656,0.941 -7.389,0 l -0.733,-1.029 -0.733,-1.118 -0.733,-1.206 -0.733,-1.293 -0.733,-1.383 -0.733,-1.441 -0.029,-21.056 0.058,-13.851 1.466,-1.059 1.466,-0.94 1.466,-0.824 1.466,-0.676 1.466,-0.53 1.467,-0.411 1.466,-0.236 1.466,-0.088 1.466,0.088 1.466,0.236 1.466,0.382 1.466,0.529 1.437,0.676 1.436,0.794 1.437,0.941 1.437,1.059 v 13.852 21.085 l -0.704,1.441 z"
             style="fill:#b21a33;fill-opacity:1;fill-rule:nonzero;stroke:none"
             id="path70"
             inkscape:connector-curvature="0" /></g><g
           id="g72"
           transform="translate(200.2871,99.5172)"><path
             d="m 0,0 -14.837,14.851 c -4.222,-6.764 -9.91,-12.41 -16.537,-16.557 l 14.808,-14.851 9.734,-9.763 1.789,0.294 1.7,0.382 1.613,0.471 0.762,0.265 0.763,0.294 0.733,0.323 0.703,0.353 0.675,0.353 0.645,0.382 0.616,0.412 0.586,0.441 0.557,0.471 0.528,0.5 0.498,0.529 0.47,0.559 0.439,0.588 0.411,0.618 0.381,0.647 0.352,0.676 0.352,0.706 0.322,0.705 0.293,0.736 0.264,0.764 0.469,1.588 0.382,1.677 0.293,1.764 z"
             style="fill:#b21a33;fill-opacity:1;fill-rule:nonzero;stroke:none"
             id="path74"
             inkscape:connector-curvature="0" /></g><g
           id="g76"
           transform="translate(90.0097,210.3849)"><path
             d="m 0,0 -1.818,-0.323 -1.701,-0.383 -1.612,-0.47 -0.763,-0.265 -0.762,-0.294 -0.733,-0.324 -0.704,-0.352 -0.674,-0.353 -0.645,-0.382 -0.616,-0.412 -0.586,-0.442 -0.557,-0.47 -0.528,-0.5 -0.499,-0.529 -0.469,-0.559 -0.439,-0.588 -0.411,-0.618 -0.381,-0.647 -0.352,-0.676 -0.352,-0.705 -0.322,-0.707 -0.294,-0.735 -0.263,-0.765 -0.47,-1.587 -0.381,-1.677 -0.264,-1.764 9.748,-9.776 c -0.005,-0.006 -0.009,-0.011 -0.013,-0.017 L 8.005,-41.2 c 4.222,6.793 9.911,12.439 16.566,16.556 L 9.735,-9.763 Z"
             style="fill:#b21a33;fill-opacity:1;fill-rule:nonzero;stroke:none"
             id="path78"
             inkscape:connector-curvature="0" /></g><g
           id="g80"
           transform="translate(188.1186,138.1002)"><path
             d="m 0,0 c -2.023,0 -3.665,1.647 -3.665,3.676 0,2.03 1.642,3.676 3.665,3.676 2.023,0 3.665,-1.646 3.665,-3.676 C 3.665,1.647 2.023,0 0,0 m 43.22,5.117 -0.206,1.529 -0.381,1.471 -0.528,1.47 -0.674,1.441 -0.792,1.441 -0.938,1.441 -1.055,1.382 H 24.835 3.812 c 0.001,-0.003 0.001,-0.007 0.001,-0.01 L 2.346,14.704 0.968,13.969 -0.323,13.234 -1.525,12.499 -2.639,11.763 -3.665,11.028 -4.604,10.293 -5.454,9.558 -6.216,8.823 -6.891,8.087 -7.447,7.352 -7.917,6.617 -8.298,5.882 -8.562,5.146 -8.708,4.412 -8.767,3.676 l 0.059,-0.735 0.146,-0.735 0.293,-0.824 0.382,-0.735 0.469,-0.735 0.557,-0.735 0.674,-0.735 0.763,-0.735 0.85,-0.736 0.938,-0.735 1.027,-0.735 1.113,-0.735 1.203,-0.736 1.29,-0.735 1.378,-0.735 1.407,-0.735 h 20.994 c 0.002,0.009 0.003,0.019 0.004,0.029 h 13.777 l 1.056,1.5 0.938,1.47 0.821,1.471 0.675,1.47 0.527,1.471 0.411,1.47 0.235,1.471 0.088,1.469 z"
             style="fill:#b21a33;fill-opacity:1;fill-rule:nonzero;stroke:none"
             id="path82"
             inkscape:connector-curvature="0" /></g><g
           id="g84"
           transform="translate(95.3169,145.4523)"><path
             d="m 0,0 c 2.023,0 3.666,-1.646 3.666,-3.676 0,-2.029 -1.613,-3.676 -3.666,-3.676 -1.994,0 -3.636,1.647 -3.636,3.676 C -3.636,-1.646 -2.023,0 0,0 m -2.346,-14.586 1.408,0.676 1.29,0.735 1.202,0.736 1.114,0.735 1.026,0.735 0.939,0.735 0.85,0.735 0.763,0.736 0.674,0.735 0.557,0.735 0.469,0.735 0.381,0.736 0.264,0.735 0.147,0.734 0.058,0.736 L 8.738,-2.882 8.591,-2.146 8.327,-1.412 7.946,-0.676 7.477,0.059 6.92,0.794 6.246,1.529 5.483,2.265 4.633,3 3.694,3.735 2.668,4.47 1.554,5.205 0.352,5.94 -0.938,6.676 -2.316,7.411 -3.753,8.146 h -21.053 -13.693 l -1.114,-1.529 -0.938,-1.471 -0.821,-1.47 -0.674,-1.47 -0.528,-1.471 -0.382,-1.47 -0.234,-1.471 -0.088,-1.47 0.059,-1.47 0.234,-1.471 0.381,-1.47 0.528,-1.47 0.675,-1.441 0.791,-1.441 0.939,-1.441 1.055,-1.441 h 13.81 l 20.994,0.029 z"
             style="fill:#b21a33;fill-opacity:1;fill-rule:nonzero;stroke:none"
             id="path86"
             inkscape:connector-curvature="0" /></g><g
           id="g88"
           transform="translate(141.7324,184.6237)"><path
             d="m 0,0 c -2.023,0 -3.665,1.647 -3.665,3.676 0,2 1.642,3.646 3.665,3.646 2.023,0 3.665,-1.617 3.665,-3.646 C 3.665,1.647 2.023,0 0,0 m 10.761,43.347 -0.557,0.5 -0.586,0.471 -0.617,0.411 -0.674,0.383 -0.703,0.352 -0.733,0.324 -0.763,0.294 -0.792,0.265 -0.82,0.206 -0.851,0.176 -1.789,0.235 -1.847,0.089 -1.847,-0.089 -1.788,-0.235 -0.851,-0.176 -0.821,-0.206 -0.791,-0.236 -0.763,-0.294 -0.733,-0.323 -0.704,-0.353 -0.645,-0.382 -0.615,-0.412 -0.587,-0.441 -0.528,-0.47 -0.498,-0.5 -0.469,-0.53 0.029,-13.822 V 7.528 l 0.587,-1.5 0.733,-1.382 L -9.529,3.353 -8.796,2.146 -8.063,1.029 -7.33,0 l 0.733,-0.941 0.733,-0.853 0.733,-0.764 0.733,-0.677 0.733,-0.558 0.733,-0.471 0.733,-0.382 0.733,-0.265 0.733,-0.147 0.733,-0.059 0.733,0.059 0.733,0.147 0.792,0.265 0.733,0.382 0.733,0.471 0.733,0.558 0.733,0.677 0.733,0.764 0.733,0.853 0.733,0.941 0.733,1.029 0.733,1.117 0.733,1.207 0.733,1.293 0.733,1.382 0.733,1.471 v 21.085 13.763 l -0.498,0.471 z"
             style="fill:#b21a33;fill-opacity:1;fill-rule:nonzero;stroke:none"
             id="path90"
             inkscape:connector-curvature="0" /></g><g
           id="g92"
           transform="translate(110.1128,144.611)"><path
             d="m 0,0 h 1.517 c 0.455,0 0.797,0.119 1.027,0.359 0.23,0.24 0.345,0.574 0.345,1.003 0,0.429 -0.116,0.766 -0.348,1.01 C 2.309,2.616 1.967,2.738 1.517,2.738 H 0 Z M 1.298,-1.845 H 0 V -5.362 H -2.397 V 4.583 H 1.517 C 2.696,4.583 3.618,4.321 4.283,3.798 4.948,3.275 5.28,2.536 5.28,1.581 5.28,0.889 5.14,0.316 4.859,-0.139 4.58,-0.594 4.141,-0.962 3.545,-1.244 L 5.621,-5.259 V -5.362 H 3.053 Z"
             style="fill:#b21a33;fill-opacity:1;fill-rule:nonzero;stroke:none"
             id="path94"
             inkscape:connector-curvature="0" /></g><g
           id="g96"
           transform="translate(124.6401,149.1935)"><path
             d="m 0,0 v -6.509 c 0,-0.738 -0.157,-1.376 -0.471,-1.916 -0.314,-0.539 -0.765,-0.95 -1.352,-1.232 -0.588,-0.283 -1.282,-0.424 -2.084,-0.424 -1.211,0 -2.165,0.314 -2.861,0.943 -0.696,0.628 -1.052,1.488 -1.066,2.581 V 0 h 2.411 v -6.604 c 0.028,-1.089 0.533,-1.633 1.516,-1.633 0.496,0 0.872,0.137 1.127,0.41 0.256,0.273 0.383,0.717 0.383,1.332 V 0 Z"
             style="fill:#b21a33;fill-opacity:1;fill-rule:nonzero;stroke:none"
             id="path98"
             inkscape:connector-curvature="0" /></g><g
           id="g100"
           transform="translate(131.2651,141.8922)"><path
             d="m 0,0 c 0,0.351 -0.124,0.624 -0.372,0.82 -0.249,0.195 -0.684,0.398 -1.308,0.607 -0.624,0.21 -1.134,0.413 -1.53,0.608 -1.289,0.633 -1.933,1.503 -1.933,2.609 0,0.552 0.161,1.037 0.482,1.459 0.321,0.421 0.775,0.749 1.362,0.983 0.588,0.235 1.248,0.351 1.981,0.351 0.714,0 1.356,-0.127 1.922,-0.382 C 1.172,6.8 1.612,6.437 1.926,5.966 2.241,5.495 2.397,4.956 2.397,4.351 h -2.39 c 0,0.405 -0.124,0.719 -0.372,0.942 -0.248,0.223 -0.584,0.335 -1.008,0.335 -0.428,0 -0.766,-0.095 -1.014,-0.283 -0.248,-0.189 -0.372,-0.429 -0.372,-0.721 0,-0.255 0.137,-0.486 0.41,-0.693 C -2.076,3.724 -1.596,3.51 -0.908,3.289 -0.221,3.067 0.344,2.83 0.786,2.575 1.86,1.956 2.397,1.102 2.397,0.014 c 0,-0.87 -0.327,-1.553 -0.983,-2.05 -0.656,-0.496 -1.555,-0.743 -2.698,-0.743 -0.806,0 -1.536,0.144 -2.189,0.433 -0.653,0.289 -1.145,0.685 -1.475,1.188 -0.33,0.504 -0.495,1.083 -0.495,1.739 h 2.404 c 0,-0.533 0.138,-0.926 0.413,-1.178 0.275,-0.254 0.723,-0.38 1.342,-0.38 0.396,0 0.709,0.086 0.94,0.256 C -0.115,-0.55 0,-0.31 0,0"
             style="fill:#b21a33;fill-opacity:1;fill-rule:nonzero;stroke:none"
             id="path102"
             inkscape:connector-curvature="0" /></g><g
           id="g104"
           transform="translate(142.6987,147.3424)"><path
             d="M 0,0 H -2.984 V -8.093 H -5.382 V 0 H -8.313 V 1.851 H 0 Z"
             style="fill:#b21a33;fill-opacity:1;fill-rule:nonzero;stroke:none"
             id="path106"
             inkscape:connector-curvature="0" /></g><g
           id="g108"
           transform="translate(149.9726,143.2106)"><path
             d="M 0,0 H -3.866 V -3.961 H -6.263 V 5.983 H 0.389 V 4.132 H -3.866 V 1.844 H 0 Z"
             style="fill:#b21a33;fill-opacity:1;fill-rule:nonzero;stroke:none"
             id="path110"
             inkscape:connector-curvature="0" /></g><g
           id="g112"
           transform="translate(157.5263,143.4698)"><path
             d="m 0,0 h -3.77 v -2.376 h 4.453 v -1.845 h -6.85 V 5.724 H 0.697 V 3.873 H -3.77 V 1.776 H 0 Z"
             style="fill:#b21a33;fill-opacity:1;fill-rule:nonzero;stroke:none"
             id="path114"
             inkscape:connector-curvature="0" /></g><g
           id="g116"
           transform="translate(164.3154,141.8922)"><path
             d="m 0,0 c 0,0.351 -0.124,0.624 -0.372,0.82 -0.249,0.195 -0.684,0.398 -1.308,0.607 -0.624,0.21 -1.134,0.413 -1.53,0.608 -1.289,0.633 -1.933,1.503 -1.933,2.609 0,0.552 0.161,1.037 0.482,1.459 0.321,0.421 0.775,0.749 1.362,0.983 0.587,0.235 1.248,0.351 1.981,0.351 0.714,0 1.356,-0.127 1.922,-0.382 C 1.171,6.8 1.612,6.437 1.926,5.966 2.24,5.495 2.397,4.956 2.397,4.351 h -2.39 c 0,0.405 -0.124,0.719 -0.372,0.942 -0.249,0.223 -0.585,0.335 -1.008,0.335 -0.428,0 -0.766,-0.095 -1.014,-0.283 C -2.635,5.156 -2.759,4.916 -2.759,4.624 -2.759,4.369 -2.623,4.138 -2.35,3.931 -2.076,3.724 -1.596,3.51 -0.908,3.289 -0.221,3.067 0.344,2.83 0.786,2.575 1.86,1.956 2.397,1.102 2.397,0.014 c 0,-0.87 -0.328,-1.553 -0.983,-2.05 -0.656,-0.496 -1.555,-0.743 -2.698,-0.743 -0.806,0 -1.536,0.144 -2.189,0.433 -0.653,0.289 -1.146,0.685 -1.476,1.188 -0.329,0.504 -0.494,1.083 -0.494,1.739 h 2.403 c 0,-0.533 0.139,-0.926 0.414,-1.178 0.275,-0.254 0.723,-0.38 1.342,-0.38 0.396,0 0.709,0.086 0.939,0.256 C -0.115,-0.55 0,-0.31 0,0"
             style="fill:#b21a33;fill-opacity:1;fill-rule:nonzero;stroke:none"
             id="path118"
             inkscape:connector-curvature="0" /></g><g
           id="g120"
           transform="translate(175.7485,147.3424)"><path
             d="M 0,0 H -2.985 V -8.093 H -5.382 V 0 h -2.93 V 1.851 H 0 Z"
             style="fill:#b21a33;fill-opacity:1;fill-rule:nonzero;stroke:none"
             id="path122"
             inkscape:connector-curvature="0" /></g><g
           id="g124"
           transform="translate(125.3872,134.3082)"><path
             d="m 0,0 h 1.516 c 0.467,0 0.79,0.146 0.966,0.437 0.066,0.11 0.1,0.251 0.1,0.423 0,0.279 -0.096,0.498 -0.285,0.659 C 2.107,1.68 1.855,1.761 1.542,1.761 H 0 Z M 0,-2.151 H -0.497 V 2.231 H 1.602 C 2.047,2.231 2.405,2.107 2.674,1.86 2.943,1.617 3.078,1.284 3.078,0.86 3.078,0.313 2.851,-0.06 2.396,-0.258 2.268,-0.315 2.142,-0.357 2.019,-0.384 L 3.17,-2.151 H 2.582 L 1.522,-0.47 H 0 Z"
             style="fill:#b21a33;fill-opacity:1;fill-rule:nonzero;stroke:none"
             id="path126"
             inkscape:connector-curvature="0" /></g><g
           id="g128"
           transform="translate(131.2651,132.587)"><path
             d="M 0,0 C 0.521,0 0.942,0.17 1.264,0.51 1.573,0.836 1.728,1.253 1.728,1.761 1.728,2.269 1.573,2.686 1.264,3.012 0.942,3.352 0.521,3.521 0,3.521 -0.521,3.521 -0.942,3.352 -1.264,3.012 -1.573,2.686 -1.728,2.269 -1.728,1.761 -1.728,1.253 -1.573,0.836 -1.264,0.51 -0.942,0.17 -0.521,0 0,0 M 0,4.005 C 0.653,4.005 1.189,3.787 1.608,3.35 2.019,2.926 2.224,2.396 2.224,1.761 2.224,1.125 2.019,0.596 1.608,0.172 1.189,-0.265 0.653,-0.483 0,-0.483 c -0.653,0 -1.189,0.218 -1.608,0.655 -0.411,0.424 -0.616,0.953 -0.616,1.589 0,0.635 0.205,1.165 0.616,1.589 0.419,0.437 0.955,0.655 1.608,0.655"
             style="fill:#b21a33;fill-opacity:1;fill-rule:nonzero;stroke:none"
             id="path130"
             inkscape:connector-curvature="0" /></g><g
           id="g132"
           transform="translate(138.5463,136.5392)"><path
             d="m 0,0 v -4.382 h -0.496 v 3.627 L -2.118,-2.84 -3.766,-0.755 V -4.382 H -4.263 V 0 h 0.576 L -2.118,-2.079 -0.576,0 Z"
             style="fill:#b21a33;fill-opacity:1;fill-rule:nonzero;stroke:none"
             id="path134"
             inkscape:connector-curvature="0" /></g><g
           id="g136"
           transform="translate(140.1152,136.0626)"><path
             d="M 0,0 V -1.47 H 2.436 V -1.953 H 0 V -3.429 H 2.728 V -3.906 H -0.496 V 0.477 H 2.728 V 0 Z"
             style="fill:#b21a33;fill-opacity:1;fill-rule:nonzero;stroke:none"
             id="path138"
             inkscape:connector-curvature="0" /></g><g
           id="g140"
           transform="translate(147.8208,135.2814)"><path
             d="m 0,0 c 0,-0.19 -0.057,-0.373 -0.169,-0.549 -0.113,-0.177 -0.255,-0.343 -0.427,-0.497 -0.172,-0.155 -0.359,-0.3 -0.559,-0.437 -0.201,-0.137 -0.39,-0.27 -0.566,-0.4 C -1.898,-2.014 -2.047,-2.142 -2.168,-2.267 -2.29,-2.393 -2.357,-2.52 -2.37,-2.648 h 2.356 v -0.477 h -2.945 v 0.272 c 0,0.216 0.061,0.414 0.182,0.592 0.121,0.179 0.274,0.347 0.457,0.503 0.183,0.157 0.38,0.305 0.592,0.444 0.212,0.139 0.409,0.279 0.593,0.42 0.182,0.142 0.335,0.285 0.456,0.431 0.121,0.145 0.182,0.302 0.182,0.469 0,0.256 -0.085,0.457 -0.254,0.603 -0.17,0.145 -0.408,0.218 -0.712,0.218 -0.305,0 -0.549,-0.065 -0.732,-0.195 -0.183,-0.13 -0.292,-0.319 -0.327,-0.566 h -0.497 c 0.036,0.371 0.197,0.671 0.483,0.9 0.287,0.23 0.634,0.345 1.04,0.345 0.463,0 0.831,-0.124 1.105,-0.371 C -0.13,0.702 0,0.388 0,0"
             style="fill:#b21a33;fill-opacity:1;fill-rule:nonzero;stroke:none"
             id="path142"
             inkscape:connector-curvature="0" /></g><g
           id="g144"
           transform="translate(149.9785,132.587)"><path
             d="M 0,0 C 0.583,0.013 0.916,0.395 1,1.146 1.026,1.353 1.039,1.558 1.039,1.761 1.039,2.352 0.958,2.793 0.794,3.085 0.631,3.376 0.366,3.521 0,3.521 -0.366,3.521 -0.631,3.376 -0.794,3.085 -0.958,2.793 -1.04,2.352 -1.04,1.761 -1.04,1.169 -0.958,0.729 -0.794,0.437 -0.631,0.146 -0.367,0 0,0 M -1.536,1.761 C -1.536,3.257 -1.024,4.005 0,4.005 0.556,3.996 0.964,3.762 1.225,3.303 1.432,2.933 1.536,2.418 1.536,1.761 1.536,0.265 1.023,-0.483 0,-0.483 c -1.024,0 -1.536,0.748 -1.536,2.244"
             style="fill:#b21a33;fill-opacity:1;fill-rule:nonzero;stroke:none"
             id="path146"
             inkscape:connector-curvature="0" /></g><g
           id="g148"
           transform="translate(153.8608,136.5392)"><path
             d="m 0,0 v -4.382 h -0.496 v 3.905 H -1.423 V 0 Z"
             style="fill:#b21a33;fill-opacity:1;fill-rule:nonzero;stroke:none"
             id="path150"
             inkscape:connector-curvature="0" /></g><g
           id="g152"
           transform="translate(157.0053,134.778)"><path
             d="M 0,0 C 0.234,0 0.435,0.053 0.602,0.159 0.801,0.287 0.9,0.459 0.9,0.675 0.9,0.892 0.816,1.056 0.648,1.168 0.481,1.281 0.265,1.337 0,1.337 -0.265,1.337 -0.481,1.281 -0.649,1.168 -0.817,1.056 -0.9,0.892 -0.9,0.675 -0.9,0.459 -0.809,0.292 -0.625,0.176 -0.442,0.059 -0.234,0 0,0 m 0,-2.197 c 0.331,0 0.592,0.074 0.784,0.225 0.192,0.15 0.288,0.355 0.288,0.615 0,0.274 -0.106,0.497 -0.318,0.669 -0.198,0.154 -0.45,0.231 -0.754,0.231 -0.305,0 -0.556,-0.077 -0.755,-0.231 -0.212,-0.172 -0.318,-0.392 -0.318,-0.659 0,-0.267 0.096,-0.475 0.288,-0.625 0.192,-0.151 0.454,-0.225 0.785,-0.225 m 0.728,1.986 c 0.26,-0.102 0.465,-0.257 0.616,-0.464 0.15,-0.207 0.225,-0.423 0.225,-0.645 0,-0.223 -0.036,-0.415 -0.106,-0.576 C 1.392,-2.057 1.291,-2.195 1.158,-2.31 0.88,-2.553 0.494,-2.674 0,-2.674 c -0.495,0 -0.88,0.121 -1.159,0.364 -0.273,0.238 -0.41,0.554 -0.41,0.947 0,0.251 0.075,0.481 0.225,0.688 0.15,0.207 0.355,0.362 0.615,0.464 -0.167,0.061 -0.315,0.163 -0.443,0.304 -0.15,0.172 -0.225,0.377 -0.225,0.615 0,0.332 0.119,0.599 0.357,0.802 C -0.801,1.712 -0.455,1.814 0,1.814 0.454,1.814 0.801,1.712 1.039,1.51 1.277,1.307 1.396,1.04 1.396,0.708 1.396,0.36 1.249,0.093 0.953,-0.092 0.874,-0.146 0.798,-0.185 0.728,-0.211"
             style="fill:#b21a33;fill-opacity:1;fill-rule:nonzero;stroke:none"
             id="path154"
             inkscape:connector-curvature="0" /></g></g></g></g></svg>