<svg width="1678" height="1801" viewBox="0 0 1678 1801" fill="none" xmlns="http://www.w3.org/2000/svg">
<path d="M290.659 332.335L159.339 257.346C132.306 241.909 132.491 202.868 159.67 187.688L179.629 176.541L170.829 171.326C155.717 162.371 156.21 140.334 171.708 132.063L172.222 131.789C178.619 128.376 186.308 128.424 192.661 131.917C207.56 140.109 207.467 161.548 192.498 169.61L179.629 176.541L246.771 215.347C259.439 222.669 275.093 222.49 287.59 214.88L291.68 212.39C303.996 204.891 319.394 204.6 331.983 211.63L416.743 258.954C428.298 265.405 442.295 265.724 454.132 259.806L467.162 253.291C474.094 249.825 478.473 242.739 478.473 234.989C478.473 219.396 495.216 209.533 508.854 217.092L543.503 236.295C556.096 243.274 571.511 242.736 583.586 234.897C595.607 227.092 610.944 226.521 623.512 233.412L629.437 236.66C641.844 243.462 656.921 243.203 669.088 235.979L1068.1 -0.934355C1074.53 -4.75445 1081.91 -6.69333 1089.39 -6.53071L1377.27 -0.272456C1396.13 0.13756 1412.14 13.67 1415.69 32.1991L1440.3 160.799C1445.46 187.729 1475.56 201.607 1499.39 188.038L1640.09 107.9C1663.64 94.4859 1693.43 107.885 1699.02 134.407L2018.09 1647.96C2022.23 1667.61 2011.16 1687.29 1992.2 1693.95L1705.13 1794.77C1694.08 1798.65 1681.88 1797.49 1671.76 1791.6L1552.48 1722.2C1542.87 1716.61 1542.32 1702.94 1551.44 1696.6C1560.8 1690.09 1559.92 1675.98 1549.83 1670.68L1420.75 1602.88C1407.6 1595.97 1399.35 1582.33 1399.35 1567.47V1525.51C1399.35 1510.46 1407.81 1496.68 1421.23 1489.85L1433.79 1483.47C1444.51 1478.02 1457.17 1477.92 1467.97 1483.19C1479.56 1488.85 1493.22 1488.3 1504.32 1481.73L1512.54 1476.86C1539 1461.2 1538.64 1422.8 1511.89 1407.64L1161.96 1209.34C1156.68 1206.36 1150.25 1206.25 1144.88 1209.06C1132.58 1215.51 1132.03 1232.92 1143.9 1240.13L1303.71 1337.1C1314.38 1343.58 1320.89 1355.15 1320.89 1367.63C1320.89 1387.34 1304.91 1403.33 1285.19 1403.33H1247.72C1240.82 1403.33 1234.04 1401.54 1228.03 1398.14L740.44 1122.34C727.463 1114.99 711.48 1115.48 698.973 1123.6L669.754 1142.56C657.275 1150.65 641.333 1151.16 628.368 1143.86L149.91 874.682C141.554 869.981 136.383 861.139 136.383 851.551C136.383 841.78 141.751 832.8 150.358 828.174L208.506 796.917C220.203 790.63 234.258 790.557 246.019 796.724L415.235 885.445C427.635 891.947 442.533 891.491 454.513 884.244L484.72 865.971C503.566 854.57 509.649 830.079 498.328 811.185L455.699 740.048C444.373 721.147 419.893 714.966 400.951 726.224L381.5 737.785C369.336 745.015 354.257 745.28 341.847 738.483L76.6496 593.224C49.4227 578.311 48.8224 539.416 75.576 523.669L88.4425 516.097C94.5916 512.478 101.597 510.569 108.732 510.569H139.629C161.72 510.569 179.629 492.66 179.629 470.569V456.411C179.629 434.32 197.538 416.411 219.629 416.411H255.859C263.349 416.411 270.687 414.308 277.04 410.343L292.004 401.002C317.679 384.975 316.942 347.343 290.659 332.335Z" fill="url(#paint0_linear_31_226976)"/>
<path d="M1091.75 399.033L1091.75 470.428C1091.75 474.099 1089.74 477.476 1086.51 479.223L1028.87 510.409C1025.87 512.033 1022.25 512.015 1019.27 510.362L901.187 444.95C892.708 440.253 895.202 427.448 904.825 426.276L1041.86 409.594C1043.2 409.431 1044.49 409 1045.65 408.327L1076.75 390.373C1083.42 386.524 1091.75 391.335 1091.75 399.033Z" fill="#6AB9DA"/>
<path d="M1297.87 -30.6176L955.677 164.395C945.882 169.977 935.776 157.607 943.2 149.122L986.953 99.1189C988.548 97.296 989.427 94.9561 989.427 92.5339V50.8833C989.427 47.3507 991.291 44.0803 994.33 42.2798L1152.3 -51.3031C1153.91 -52.2605 1155.76 -52.7434 1157.64 -52.6964L1293.17 -49.3027C1303.29 -49.0492 1306.67 -35.6326 1297.87 -30.6176Z" fill="#6AB9DA"/>
<path d="M1507.99 286.321L1165.8 481.334C1156 486.916 1145.9 474.545 1153.32 466.06L1197.07 416.057C1198.67 414.234 1199.55 411.894 1199.55 409.472V367.822C1199.55 364.289 1201.41 361.019 1204.45 359.218L1362.42 265.635C1364.03 264.678 1365.89 264.195 1367.76 264.242L1503.29 267.636C1513.42 267.889 1516.79 281.306 1507.99 286.321Z" fill="#6AB9DA"/>
<path d="M953.414 169.166L566.515 391.738C564.998 392.611 563.279 393.07 561.529 393.07H486.798C481.275 393.07 476.798 388.593 476.798 383.07V350.126C476.798 346.542 478.716 343.232 481.825 341.45L812.664 151.822C814.178 150.955 815.893 150.498 817.637 150.498H948.428C958.667 150.498 962.289 164.061 953.414 169.166Z" fill="#6AB9DA"/>
<path d="M1222.65 642.942L1609.55 420.37C1611.07 419.497 1612.79 419.038 1614.54 419.038L1689.27 419.038C1694.79 419.038 1699.27 423.515 1699.27 429.038L1699.27 461.982C1699.27 465.566 1697.35 468.876 1694.24 470.658L1363.4 660.286C1361.89 661.153 1360.17 661.61 1358.43 661.61L1227.64 661.61C1217.4 661.61 1213.78 648.047 1222.65 642.942Z" fill="#6AB9DA"/>
<path d="M1163.54 142.594L776.636 365.166C775.119 366.039 773.4 366.498 771.65 366.498H696.919C691.396 366.498 686.919 362.021 686.919 356.498V323.554C686.919 319.97 688.837 316.66 691.946 314.878L1022.79 125.25C1024.3 124.383 1026.01 123.926 1027.76 123.926H1158.55C1168.79 123.926 1172.41 137.489 1163.54 142.594Z" fill="#6AB9DA"/>
<path d="M1358.61 463.103L904.015 723.783C900.988 725.518 897.275 725.551 894.218 723.868L784.554 663.491C777.423 659.565 777.721 649.218 785.066 645.708L809.463 634.052C811.042 633.298 812.791 632.971 814.535 633.104L879.048 638.027C881.045 638.179 883.043 637.728 884.781 636.732L1217.98 445.752C1219.49 444.884 1221.21 444.428 1222.95 444.428H1353.64C1363.89 444.428 1367.5 458.006 1358.61 463.103Z" fill="#6AB9DA"/>
<path d="M1789.38 121.186L1448.77 315.297C1438.98 320.879 1428.87 308.508 1436.29 300.024L1480.05 250.021C1481.64 248.198 1482.52 245.858 1482.52 243.436V204.302C1482.52 200.689 1484.47 197.358 1487.62 195.586L1650.83 103.783C1652.32 102.941 1654.01 102.498 1655.73 102.498L1784.43 102.498C1794.69 102.498 1798.3 116.106 1789.38 121.186Z" fill="#6AB9DA"/>
<path d="M1999.5 438.125L1658.89 632.235C1649.1 637.817 1638.99 625.447 1646.42 616.962L1690.17 566.959C1691.76 565.136 1692.64 562.796 1692.64 560.374V521.24C1692.64 517.628 1694.59 514.296 1697.74 512.525L1860.95 420.721C1862.44 419.879 1864.13 419.437 1865.85 419.437H1994.55C2004.81 419.437 2008.42 433.044 1999.5 438.125Z" fill="#6AB9DA"/>
<path d="M422.327 356.691L154.381 207.378C147.483 203.534 147.552 193.588 154.502 189.84L174.5 179.057C177.481 177.45 181.072 177.46 184.043 179.085L260.582 220.93C263.643 222.604 267.357 222.561 270.379 220.816L302.919 202.028C305.907 200.304 309.572 200.24 312.617 201.86L431.892 265.323C435.156 267.06 437.195 270.455 437.195 274.151L437.195 347.955C437.195 355.586 428.993 360.405 422.327 356.691Z" fill="#6AB9DA"/>
<path d="M156.079 824.914L218.397 787.913C221.385 786.138 225.08 786.043 228.156 787.66L426.819 892.119L570.589 954.098C580.565 958.398 577.493 973.281 566.631 973.281L511.313 973.281C509.566 973.281 507.849 973.739 506.333 974.609L448.707 1007.7C445.596 1009.49 441.767 1009.47 438.672 1007.66L156.129 842.141C149.558 838.291 149.53 828.802 156.079 824.914Z" fill="#6AB9DA"/>
<path d="M357.923 426.811L421.331 536.637C426.519 545.623 416.279 555.588 407.438 550.158L309.161 489.797C305.998 487.854 302.02 487.823 298.827 489.716L191.686 553.239C185.02 557.191 176.586 552.386 176.586 544.637L176.586 426.712C176.586 421.189 181.063 416.712 186.586 416.712L253.401 416.712C255.156 416.712 256.88 416.25 258.401 415.372L293.407 395.161C296.438 393.412 300.163 393.374 303.229 395.061L354.085 423.05C355.684 423.93 357.011 425.231 357.923 426.811Z" fill="#6AB9DA"/>
<path d="M708.055 939.098L771.73 1049.39C776.905 1058.35 766.722 1068.31 757.877 1062.93L613.995 975.5C612.43 974.549 610.634 974.046 608.802 974.046L530.867 974.046C528.943 974.046 527.061 973.492 525.445 972.449L425.144 907.739C418.846 903.675 419.092 894.382 425.597 890.658L522.895 834.947C526.003 833.167 529.827 833.186 532.918 834.996L704.449 935.469C705.945 936.346 707.188 937.596 708.055 939.098Z" fill="#6AB9DA"/>
<path d="M846.219 810.634L737.129 810.634C735.493 810.634 733.883 810.233 732.438 809.466L615.424 747.322C613.979 746.555 612.369 746.154 610.734 746.154L532.488 746.154C530.565 746.154 528.683 745.6 527.067 744.557L426.766 679.847C420.467 675.783 420.713 666.49 427.218 662.766L524.335 607.159C527.54 605.324 531.496 605.405 534.624 607.37L601.311 649.268C604.527 651.289 608.611 651.313 611.851 649.329L678.396 608.599C682.566 606.048 687.969 606.884 691.171 610.577L767.838 698.981C768.623 699.887 769.564 700.643 770.617 701.216L848.388 743.486C851.439 745.144 853.411 748.266 853.598 751.734L856.205 800.096C856.513 805.822 851.954 810.634 846.219 810.634Z" fill="#6AB9DA"/>
<path fill-rule="evenodd" clip-rule="evenodd" d="M1047.03 316.695H1186.41C1188.13 316.695 1189.82 316.253 1191.31 315.411L1354.52 223.607C1357.67 221.836 1359.62 218.504 1359.62 214.891V174.192C1359.62 172.748 1359.93 171.322 1360.53 170.01L1405.13 73.1593C1409.23 64.2624 1399.42 55.3903 1390.97 60.3587L1359.62 78.8152L1233.93 147.471C1232.46 148.274 1230.82 148.695 1229.14 148.695H1147.52C1145.8 148.695 1144.12 149.138 1142.62 149.98L979.411 241.784C976.262 243.555 974.314 246.887 974.314 250.499V287.472C974.314 291.122 976.302 294.482 979.501 296.238L1016.96 316.801C1020.03 318.486 1023.75 318.443 1026.78 316.687L1027.64 316.191C1032.94 313.118 1040.56 316.501 1046.69 316.69C1046.8 316.694 1046.91 316.695 1047.03 316.695Z" fill="#6AB9DA"/>
<path fill-rule="evenodd" clip-rule="evenodd" d="M857.539 356.948L776.66 356.948C774.942 356.948 773.254 357.39 771.757 358.232L667.579 416.832C664.431 418.603 662.482 421.935 662.482 425.548L662.482 449.382C662.482 450.826 662.169 452.253 661.565 453.564L637.337 506.181C633.24 515.078 643.052 523.95 651.493 518.982L662.482 512.514L743.899 468.038C745.37 467.235 747.018 466.814 748.693 466.814L800.279 466.814C801.997 466.814 803.685 466.372 805.182 465.53L909.36 406.93C912.509 405.159 914.458 401.827 914.458 398.214L914.458 378.107C914.458 374.457 912.469 371.097 909.27 369.341L888.282 357.819C885.213 356.133 881.485 356.177 878.455 357.933C872.803 361.209 864.289 357.079 857.758 356.95C857.686 356.949 857.613 356.948 857.539 356.948Z" fill="#6AB9DA"/>
<path fill-rule="evenodd" clip-rule="evenodd" d="M1155 1029.77L953.997 900.482C947.719 896.444 947.917 887.202 954.362 883.437L1103.18 796.506C1106.25 794.713 1108.13 791.426 1108.13 787.871L1108.13 721.431C1108.13 713.8 1099.93 708.981 1093.26 712.695L894.263 823.593C893.046 824.271 891.701 824.688 890.315 824.816L765.286 836.361C755.532 837.261 752.755 850.194 761.278 855.02L800.904 877.457L939.882 962.137C941.313 963.008 942.502 964.226 943.34 965.676L989.964 1046.43C990.822 1047.92 992.05 1049.16 993.527 1050.04L1177.2 1158.84C1180.31 1160.68 1184.17 1160.7 1187.29 1158.9L1224.97 1137.15C1228.13 1135.32 1230.05 1131.92 1229.97 1128.27L1228.89 1078.28C1228.82 1074.78 1226.91 1071.57 1223.88 1069.83L1158.13 1032.02C1157.34 1031.57 1156.64 1030.99 1155.92 1030.42C1155.63 1030.2 1155.33 1029.98 1155 1029.77Z" fill="#6AB9DA"/>
<path d="M98.7153 510.645C69.2036 512.932 60.4848 552.046 86.2315 566.65L172.804 615.756C175.888 617.505 179.668 617.491 182.738 615.718L266.932 567.109C273.58 563.271 273.603 553.684 266.975 549.813L190.755 505.299C188.997 504.273 186.968 503.807 184.939 503.964L98.7153 510.645Z" fill="#6AB9DA"/>
<path d="M587.979 1059.19C581.331 1063.03 581.307 1072.62 587.935 1076.49L661.841 1119.65C664.941 1121.46 668.775 1121.47 671.884 1119.68L756.005 1071.11C762.653 1067.27 762.676 1057.68 756.048 1053.81L682.143 1010.65C679.042 1008.84 675.209 1008.83 672.1 1010.63L587.979 1059.19Z" fill="#6AB9DA"/>
<path d="M565.782 804.194C559.134 808.032 559.111 817.618 565.739 821.489L639.644 864.651C642.745 866.462 646.578 866.471 649.687 864.676L733.808 816.109C740.456 812.271 740.48 802.684 733.852 798.813L659.946 755.651C656.846 753.841 653.012 753.831 649.903 755.626L565.782 804.194Z" fill="#6AB9DA"/>
<path d="M172.301 135.789C165.653 139.627 165.629 149.213 172.258 153.084L175.68 155.083C178.781 156.894 182.614 156.903 185.723 155.108L191.641 151.691C198.288 147.853 198.312 138.267 191.684 134.396L188.262 132.397C185.161 130.586 181.328 130.577 178.218 132.372L172.301 135.789Z" fill="#6AB9DA"/>
<path d="M186.615 607.267C180.064 611.16 180.1 620.656 186.68 624.499L349.063 719.333C352.202 721.167 356.089 721.152 359.214 719.295L526.624 619.824C533.175 615.931 533.139 606.435 526.559 602.592L364.176 507.757C361.037 505.924 357.15 505.939 354.025 507.796L186.615 607.267Z" fill="#6AB9DA"/>
<path d="M671.613 1028.65C664.313 1032.08 663.865 1042.29 670.836 1046.35L1208.48 1359C1211.32 1360.65 1214.79 1360.8 1217.76 1359.41L1259.81 1339.66C1267.11 1336.23 1267.56 1326.02 1260.59 1321.96L722.942 1009.31C720.104 1007.66 716.637 1007.51 713.665 1008.9L671.613 1028.65Z" fill="#6AB9DA"/>
<defs>
<linearGradient id="paint0_linear_31_226976" x1="518.621" y1="323.809" x2="1315.21" y2="1127.81" gradientUnits="userSpaceOnUse">
<stop stop-color="#5384AB"/>
<stop offset="1" stop-color="#6AB9DA"/>
</linearGradient>
</defs>
</svg>
