<svg width="197" height="23" viewBox="0 0 197 23" xmlns="http://www.w3.org/2000/svg"><title>Recordings</title><path d="M.291 22.379h4.68v-8.49h2.31l4.44 8.49h5.61l-5.4-8.97a5.267 5.267 0 0 0 3.42-2 6.234 6.234 0 0 0 1.17-3.825 6.705 6.705 0 0 0-.645-3.105c-.402-.798-1-1.48-1.74-1.98a7.3 7.3 0 0 0-2.55-1.05 14.5 14.5 0 0 0-3.075-.315H.291V22.379zm4.68-17.28h3.06c.432 0 .863.03 1.29.09.406.05.802.167 1.17.345a2.2 2.2 0 0 1 .84.735c.238.387.353.836.33 1.29.03.48-.103.955-.375 1.35-.245.316-.572.56-.945.705a4.182 4.182 0 0 1-1.275.27c-.47.03-.915.045-1.335.045h-2.76v-4.83zm14.94 17.28h14.97v-4.32h-10.29v-4.32h9.21v-4.32h-9.21v-3.96h9.75v-4.32h-14.43v21.24zm36.21-18.66a7.242 7.242 0 0 0-1.56-1.47 8.58 8.58 0 0 0-1.815-.96 10.151 10.151 0 0 0-1.92-.525 11.24 11.24 0 0 0-1.875-.165 13.077 13.077 0 0 0-4.59.78c-1.35.49-2.585 1.25-3.63 2.235a10.133 10.133 0 0 0-2.385 3.525 12.91 12.91 0 0 0 0 9.24 10.133 10.133 0 0 0 2.385 3.525 10.507 10.507 0 0 0 3.63 2.235c1.471.532 3.026.797 4.59.78a10.586 10.586 0 0 0 4.26-.9 8.121 8.121 0 0 0 3.42-2.79l-3.9-2.91A5.083 5.083 0 0 1 50.9 18a5.278 5.278 0 0 1-2.55.6 5.509 5.509 0 0 1-2.355-.51 5.768 5.768 0 0 1-1.9-1.425 6.822 6.822 0 0 1-1.275-2.16 8.29 8.29 0 0 1 0-5.475 6.624 6.624 0 0 1 1.29-2.175 5.818 5.818 0 0 1 4.395-1.935 5.643 5.643 0 0 1 2.325.45 4.6 4.6 0 0 1 1.695 1.29l3.596-2.941zm2.775 12.66a10.133 10.133 0 0 0 2.385 3.525 10.5 10.5 0 0 0 3.63 2.235 13.9 13.9 0 0 0 9.18 0c1.35-.49 2.585-1.25 3.63-2.235a10.133 10.133 0 0 0 2.385-3.525 12.91 12.91 0 0 0 0-9.24 10.133 10.133 0 0 0-2.385-3.525 10.516 10.516 0 0 0-3.63-2.235 13.9 13.9 0 0 0-9.18 0 10.5 10.5 0 0 0-3.63 2.235 10.133 10.133 0 0 0-2.385 3.525 12.91 12.91 0 0 0 .004 9.24h-.004zm4.47-7.35a6.23 6.23 0 0 1 1.335-2.175 6.084 6.084 0 0 1 2.085-1.425 7.482 7.482 0 0 1 5.43 0 6.1 6.1 0 0 1 2.085 1.425 6.289 6.289 0 0 1 1.335 2.175 8.29 8.29 0 0 1 0 5.475 6.318 6.318 0 0 1-1.335 2.16 6.1 6.1 0 0 1-2.085 1.425 7.482 7.482 0 0 1-5.43 0 6.084 6.084 0 0 1-2.085-1.425 6.257 6.257 0 0 1-1.335-2.16 8.29 8.29 0 0 1 0-5.475zm20.774 13.35h4.68v-8.49h2.31l4.44 8.49h5.61l-5.4-8.97a5.267 5.267 0 0 0 3.42-2 6.234 6.234 0 0 0 1.17-3.825 6.705 6.705 0 0 0-.645-3.105c-.402-.798-1-1.48-1.74-1.98a7.3 7.3 0 0 0-2.55-1.05 14.5 14.5 0 0 0-3.075-.315h-8.22V22.379zm4.68-17.28h3.06c.432 0 .863.03 1.29.09.406.05.802.167 1.17.345a2.2 2.2 0 0 1 .84.735c.238.387.353.836.33 1.29.03.48-.103.955-.375 1.35-.245.316-.572.56-.945.705a4.182 4.182 0 0 1-1.275.27c-.467.03-.912.045-1.335.045h-2.76v-4.83zm14.76 17.28h7.65a14.8 14.8 0 0 0 4.53-.69 11.605 11.605 0 0 0 3.81-2.025 9.773 9.773 0 0 0 2.625-3.3 10.1 10.1 0 0 0 .975-4.545 11.116 11.116 0 0 0-1-4.95 9.038 9.038 0 0 0-2.715-3.315 11.087 11.087 0 0 0-4-1.845 20.036 20.036 0 0 0-4.845-.57h-7.02v21.24h-.01zm4.68-16.92h2.76c.948-.004 1.892.122 2.805.375a6.893 6.893 0 0 1 2.325 1.125 5.428 5.428 0 0 1 1.575 1.905c.407.846.607 1.776.585 2.715a7.129 7.129 0 0 1-.585 3.045 5.251 5.251 0 0 1-1.605 2.01c-.72.53-1.542.905-2.415 1.1-.989.227-2 .337-3.015.33h-2.43V5.459zm18.03 16.92h4.68V1.139h-4.68v21.24zm8.939 0h4.68V7.259h.06l9.27 15.12h6.12V1.139h-4.68V15.9h-.06l-9.03-14.76h-6.36v21.24-.001zm43.68-12.6H170.6v4.32h3.81v3.45a9.963 9.963 0 0 1-1.77.705 8.945 8.945 0 0 1-2.64.345 6.951 6.951 0 0 1-2.715-.51 6.093 6.093 0 0 1-2.085-1.425 6.287 6.287 0 0 1-1.335-2.16 8.29 8.29 0 0 1 0-5.475c.29-.809.745-1.55 1.335-2.175a6.093 6.093 0 0 1 2.085-1.425 6.951 6.951 0 0 1 2.715-.51 7.7 7.7 0 0 1 3 .51c.814.35 1.548.86 2.16 1.5l3.3-3.6a9.192 9.192 0 0 0-3.765-2.115A16.988 16.988 0 0 0 170 .6a13.085 13.085 0 0 0-4.59.78c-1.35.49-2.585 1.25-3.63 2.235a10.133 10.133 0 0 0-2.385 3.525 12.91 12.91 0 0 0 0 9.24 10.133 10.133 0 0 0 2.385 3.525 10.507 10.507 0 0 0 3.63 2.235c1.471.532 3.026.796 4.59.78 1.543.002 3.081-.16 4.59-.48a16.942 16.942 0 0 0 4.32-1.56V9.78l-.001-.001zm17.82-6.96a8.026 8.026 0 0 0-3.03-1.71 11.914 11.914 0 0 0-3.48-.51 10.622 10.622 0 0 0-3.03.435 7.825 7.825 0 0 0-2.595 1.305 6.508 6.508 0 0 0-1.8 2.16 6.38 6.38 0 0 0-.675 3 4.978 4.978 0 0 0 .735 2.85 5.784 5.784 0 0 0 1.845 1.74c.754.446 1.56.799 2.4 1.05.86.26 1.66.52 2.4.78.66.218 1.282.537 1.845.945.48.352.756.92.735 1.515a1.72 1.72 0 0 1-.285.99c-.194.284-.45.52-.75.69a3.762 3.762 0 0 1-1.05.405 5.124 5.124 0 0 1-1.155.135 5.181 5.181 0 0 1-2.265-.525 4.861 4.861 0 0 1-1.815-1.485l-3.33 3.66a9.623 9.623 0 0 0 3.3 2.04c2.253.761 4.68.834 6.975.21a7.6 7.6 0 0 0 2.61-1.29 6.27 6.27 0 0 0 1.785-2.19 6.828 6.828 0 0 0 .66-3.09 5.4 5.4 0 0 0-.72-2.97 5.575 5.575 0 0 0-1.815-1.77 9.7 9.7 0 0 0-2.355-1.02c-.84-.24-1.625-.48-2.355-.72a6.818 6.818 0 0 1-1.815-.87 1.691 1.691 0 0 1-.72-1.47c-.011-.363.094-.72.3-1.02.203-.283.47-.514.78-.675.321-.17.665-.297 1.02-.375a4.834 4.834 0 0 1 1.05-.12c.63.01 1.254.126 1.845.345.606.2 1.143.57 1.545 1.065l3.21-3.51z" fill="#FFF" fill-rule="evenodd"/></svg>