<svg xmlns="http://www.w3.org/2000/svg" width="337.718" height="83" fill="none" viewBox="0 0 337.718 83"><g class="frame-container-wrapper"><g class="frame-container-blur"><g class="frame-container-shadows"><g class="fills"><rect width="337.718" height="83" class="frame-background" rx="0" ry="0"/></g><g class="frame-children"><path d="M19.223 79.984q-3.96 0-7.416-.576-3.456-.504-5.976-1.512-2.087-.72-2.951-2.088t-.792-2.88.792-2.736a4.74 4.74 0 0 1 2.088-1.8q1.295-.504 2.88.072 3.167 1.296 5.759 1.656 2.592.432 4.392.432 4.39 0 6.551-1.872 2.232-1.8 2.232-5.688v-4.536h.576q-1.08 3.024-4.392 4.968-3.312 1.872-7.2 1.872-4.75 0-8.279-2.16-3.528-2.232-5.543-6.192Q0 52.984 0 47.656q0-4.032 1.152-7.272T4.32 34.84a14 14 0 0 1 4.967-3.528q2.952-1.296 6.48-1.296 4.03 0 7.2 1.872 3.239 1.872 4.319 4.896l-.72 2.952v-3.168q0-3.096 1.656-4.752 1.727-1.656 4.751-1.656t4.608 1.656q1.656 1.656 1.656 4.752V61.48q0 9.216-5.184 13.824-5.184 4.68-14.83 4.68m.503-24.12q2.16 0 3.672-.936 1.512-1.008 2.376-2.808.864-1.872.864-4.464 0-3.888-1.872-6.048t-5.04-2.16q-2.015 0-3.6 1.008-1.583.936-2.447 2.808-.792 1.8-.792 4.392 0 3.888 1.872 6.048 1.871 2.16 4.967 2.16M53.06 79.84q-3.024 0-4.68-1.656t-1.656-4.824V36.568q0-3.096 1.584-4.752 1.656-1.656 4.68-1.656 3.095 0 4.68 1.656 1.655 1.656 1.655 4.752v4.176l-.792-3.528q1.008-3.24 4.176-5.184 3.24-2.016 7.343-2.016 4.608 0 8.064 2.232 3.527 2.232 5.471 6.336t1.944 9.936q0 5.688-1.944 9.864t-5.471 6.408q-3.456 2.232-8.064 2.232-3.96 0-7.127-1.872-3.168-1.872-4.248-4.896h.864V73.36q0 3.168-1.728 4.824-1.656 1.656-4.751 1.656m12.959-22.248q1.944 0 3.383-.936 1.512-1.008 2.376-2.952.864-2.016.864-5.184 0-4.824-1.872-6.912-1.872-2.16-4.751-2.16-1.944 0-3.456.936t-2.376 2.952q-.864 1.944-.864 5.184 0 4.752 1.872 6.912t4.824 2.16m31.677 9.288q-3.024 0-4.68-1.656T91.361 60.4V36.568q0-3.096 1.584-4.752 1.654-1.656 4.68-1.656 3.022 0 4.607 1.656 1.584 1.656 1.584 4.752v3.384L103.024 37q1.728-3.384 4.895-5.184 3.24-1.8 7.344-1.8 4.248 0 6.983 1.656 2.736 1.584 4.104 5.04 1.368 3.384 1.368 8.568V60.4q0 3.168-1.656 4.824t-4.752 1.656-4.751-1.656-1.656-4.824V45.784q0-3.24-1.152-4.608-1.08-1.368-3.24-1.368-2.88 0-4.608 1.872-1.727 1.8-1.727 4.896V60.4q0 6.48-6.48 6.48" class="fills" style="font-weight:900;font-size:72px;font-family:Nunito;dominant-baseline:ideographic;white-space:pre;fill:#4d4643;fill-opacity:1"/><g class="frame-container-wrapper"><g class="frame-container-blur"><g class="frame-container-shadows"><g class="fills"><rect width="103" height="83" x="131.718" class="frame-background" rx="16" ry="16" style="fill:#ea5b0c;fill-opacity:1"/></g><g class="frame-children"><path d="M148.974 67.354q-3.17 0-4.612-1.434-1.37-1.507-1.37-4.375 0-2.009.866-3.586.936-1.578 2.378-3.084l12.612-13.126q2.81-3.013 3.963-5.164 1.226-2.153 1.226-4.304 0-2.726-1.802-4.088-1.8-1.363-5.19-1.363-1.728 0-3.674.502-1.947.43-4.18 1.578-1.947.86-3.532.502-1.514-.358-2.594-1.578a6 6 0 0 1-1.298-2.797q-.216-1.578.505-3.084.72-1.578 2.594-2.582a26.5 26.5 0 0 1 6.847-2.582A33.6 33.6 0 0 1 158.92 16q5.91 0 9.873 1.721 4.036 1.722 6.126 5.021 2.09 3.228 2.09 8.033 0 3.012-.937 5.882-.865 2.868-2.883 5.737-1.945 2.87-5.26 6.097l-11.676 11.476v-3.3h17.801q2.666 0 4.036 1.363 1.44 1.364 1.441 3.945 0 2.582-1.441 4.017-1.37 1.362-4.036 1.362Zm62.123.646q-3.027 0-4.757-1.65-1.657-1.65-1.657-4.877v-2.582h-14.486q-3.172 0-4.972-1.434-1.73-1.435-1.73-4.376 0-1.72.648-3.299.649-1.65 2.306-3.945l17.585-25.534q1.442-2.151 3.243-3.155 1.802-1.005 4.252-1.005 2.739 0 4.324 1.65 1.586 1.578 1.586 4.877v26.251h1.73q2.737 0 4.107 1.291 1.441 1.291 1.441 3.658 0 2.44-1.441 3.73-1.37 1.29-4.108 1.291h-1.73v2.582q0 3.156-1.657 4.877-1.585 1.65-4.684 1.65m-6.414-19.079V31.995h2.018l-13.55 20.01v-3.084Z" class="fills" style="font-weight:900;font-size:72px;font-family:Nunito;dominant-baseline:ideographic;white-space:pre;fill:#f6f5f4"/></g></g></g></g><path d="M245.794 67.141q-3.25 0-5.199-1.936-1.878-1.937-1.877-5.093 0-3.084 1.877-4.949 1.95-1.935 5.199-1.936 3.393 0 5.198 1.936 1.878 1.865 1.878 4.95 0 3.154-1.878 5.092-1.805 1.936-5.198 1.936m26.507.359q-4.55 0-8.087-2.223-3.466-2.224-5.488-6.384-1.95-4.16-1.95-9.826 0-5.81 1.95-9.898 2.022-4.089 5.488-6.312 3.537-2.223 8.087-2.223 3.97 0 7.148 1.865t4.26 4.805h-.795V21.955q0-3.156 1.661-4.805 1.66-1.65 4.766-1.65 3.033 0 4.693 1.65 1.733 1.65 1.733 4.805v38.946q0 3.156-1.66 4.806-1.59 1.65-4.694 1.65-3.033 0-4.693-1.65-1.661-1.65-1.661-4.806v-4.088l.794 3.515q-1.011 3.227-4.26 5.235-3.177 1.937-7.292 1.937m4.115-9.396q1.95 0 3.466-.932 1.516-1.005 2.31-2.941.867-2.008.867-5.164 0-4.806-1.877-6.886-1.877-2.151-4.766-2.151-1.95 0-3.466.932-1.516.933-2.382 2.94-.867 1.938-.867 5.165 0 4.734 1.877 6.885 1.878 2.152 4.838 2.152m46.139 9.396q-6.499 0-11.264-2.223-4.694-2.295-7.22-6.456-2.528-4.16-2.528-9.826 0-5.451 2.383-9.54 2.455-4.158 6.643-6.454 4.26-2.367 9.675-2.367 3.971 0 7.22 1.29 3.25 1.22 5.56 3.659 2.31 2.367 3.466 5.738 1.228 3.37 1.228 7.53 0 1.435-.795 2.152-.793.645-2.527.646h-22.094v-6.025h16.03l-1.156.933q0-2.654-.722-4.304-.723-1.65-2.166-2.51-1.372-.861-3.466-.861-2.238 0-3.9 1.076-1.587 1.004-2.454 3.012-.866 2.01-.866 5.021v.646q0 5.091 2.238 7.315 2.31 2.152 7.076 2.152 1.588 0 3.61-.358 2.094-.43 3.971-1.148 1.878-.717 3.25-.215 1.371.43 2.093 1.578.795 1.076.867 2.51.072 1.363-.65 2.726-.722 1.29-2.383 2.008a24.7 24.7 0 0 1-5.415 1.721 28.5 28.5 0 0 1-5.704.574" class="fills" style="font-weight:900;font-size:72px;font-family:Nunito;dominant-baseline:ideographic;white-space:pre;fill:#4d4643;fill-opacity:1"/></g></g></g></g></svg>