<?xml version="1.0" encoding="UTF-8" standalone="no"?>
<!-- Created with Inkscape (http://www.inkscape.org/) -->

<svg
   xmlns:dc="http://purl.org/dc/elements/1.1/"
   xmlns:cc="http://creativecommons.org/ns#"
   xmlns:rdf="http://www.w3.org/1999/02/22-rdf-syntax-ns#"
   xmlns:svg="http://www.w3.org/2000/svg"
   xmlns="http://www.w3.org/2000/svg"
   xmlns:sodipodi="http://sodipodi.sourceforge.net/DTD/sodipodi-0.dtd"
   xmlns:inkscape="http://www.inkscape.org/namespaces/inkscape"
   width="380"
   height="60"
   viewBox="0 0 100.54169 15.875"
   version="1.1"
   id="svg4430"
   inkscape:version="0.92.3 (2405546, 2018-03-11)"
   sodipodi:docname="banner.svg">
  <defs
     id="defs4424" />
  <sodipodi:namedview
     id="base"
     pagecolor="#ffffff"
     bordercolor="#666666"
     borderopacity="1.0"
     inkscape:pageopacity="0.0"
     inkscape:pageshadow="2"
     inkscape:zoom="2.8"
     inkscape:cx="229.36437"
     inkscape:cy="-39.193224"
     inkscape:document-units="mm"
     inkscape:current-layer="layer1"
     showgrid="false"
     units="px"
     inkscape:window-width="1865"
     inkscape:window-height="1053"
     inkscape:window-x="55"
     inkscape:window-y="27"
     inkscape:window-maximized="1" />
  <metadata
     id="metadata4427">
    <rdf:RDF>
      <cc:Work
         rdf:about="">
        <dc:format>image/svg+xml</dc:format>
        <dc:type
           rdf:resource="http://purl.org/dc/dcmitype/StillImage" />
        <dc:title></dc:title>
      </cc:Work>
    </rdf:RDF>
  </metadata>
  <g
     inkscape:label="Layer 1"
     inkscape:groupmode="layer"
     id="layer1"
     transform="translate(0,-281.125)">
    <g
       transform="matrix(0.03947493,0,0,0.03947493,-4.1365976,279.66656)"
       id="g4580">
      <path
         id="path4362"
         d="m 170.2,402.1 2.2,0.1 c 1,0 1.7,-0.8 1.6,-1.7 -0.1,-0.5 -0.1,-0.9 -0.2,-1.4 -0.1,-0.9 -1,-1.5 -1.9,-1.3 l -0.7,0.2 c -1.2,0.3 -2.5,-0.3 -3,-1.4 -0.7,-1.4 0.2,-3.1 1.6,-3.4 l 0.7,-0.2 c 0.9,-0.2 1.4,-1.2 1,-2.1 -0.2,-0.4 -0.4,-0.9 -0.6,-1.3 -0.4,-0.8 -1.4,-1.2 -2.2,-0.7 l -0.7,0.4 c -1,0.6 -2.4,0.5 -3.2,-0.5 -1.1,-1.2 -0.7,-3 0.6,-3.8 l 0.6,-0.4 c 0.8,-0.5 1,-1.6 0.4,-2.3 -0.3,-0.4 -0.6,-0.7 -0.9,-1.1 -0.6,-0.7 -1.7,-0.7 -2.3,0 l -0.6,0.6 c -0.9,1 -2.5,1.1 -3.5,0.1 -1,-0.9 -1.1,-2.5 -0.2,-3.5 l 0.5,-0.5 c 0.6,-0.7 0.5,-1.8 -0.3,-2.4 -0.4,-0.3 -0.8,-0.5 -1.2,-0.8 -0.8,-0.5 -1.8,-0.2 -2.2,0.6 l -0.3,0.7 c -0.5,1.1 -1.8,1.7 -3,1.3 -1.5,-0.5 -2.2,-2.2 -1.5,-3.5 l 0.3,-0.6 c 0.4,-0.9 0,-1.9 -0.9,-2.2 -0.4,-0.1 -0.9,-0.3 -1.3,-0.4 -0.9,-0.3 -1.8,0.3 -2,1.2 l -0.1,0.8 c -0.2,1.2 -1.2,2.1 -2.5,2.1 -1.6,0 -2.7,-1.4 -2.5,-2.9 l 0.1,-0.7 c 0.2,-0.9 -0.5,-1.8 -1.5,-1.8 -0.5,0 -0.9,0 -1.4,0 -0.9,0 -1.6,0.8 -1.5,1.7 l 0.1,0.8 c 0.1,1.2 -0.6,2.4 -1.8,2.7 -1.5,0.4 -3,-0.6 -3.2,-2.1 l -0.1,-0.7 c -0.1,-0.9 -1,-1.6 -2,-1.3 -0.5,0.1 -0.9,0.2 -1.3,0.4 -0.9,0.3 -1.3,1.2 -1,2.1 l 0.3,0.8 c 0.5,1.3 -0.1,2.7 -1.3,3.3 -0.9,0.9 -2.4,0.7 -2.9,-0.5 l -0.6,-1.5 c -0.4,-0.9 -1.4,-1.2 -2.2,-0.7 -0.4,0.2 -0.8,0.5 -1.2,0.7 -0.8,0.5 -0.9,1.6 -0.3,2.3 l 0.5,0.7 c 1,1.2 0.7,3 -0.7,3.8 -1.1,0.6 -2.4,0.3 -3.2,-0.7 l -0.4,-0.5 c -0.6,-0.7 -1.7,-0.8 -2.4,-0.1 0,0 0,0 0,0 -0.3,0.3 -0.6,0.7 -0.9,1 -0.6,0.7 -0.4,1.8 0.3,2.3 l 0.6,0.4 c 1,0.7 1.4,2 0.9,3.1 -0.7,1.4 -2.4,1.9 -3.7,1 l -0.6,-0.4 c -0.8,-0.5 -1.9,-0.3 -2.3,0.6 -0.2,0.4 -0.4,0.8 -0.6,1.3 -0.4,0.8 0.1,1.8 0.9,2.1 l 0.7,0.2 c 1.2,0.4 1.9,1.5 1.8,2.8 -0.2,1.6 -1.8,2.5 -3.2,2 l -0.7,-0.2 c -0.9,-0.3 -1.9,0.3 -2,1.2 -0.1,0.5 -0.1,0.9 -0.2,1.4 -0.1,0.9 0.6,1.7 1.5,1.8 h 0.8 c 1.4,0 2.5,1.2 2.4,2.6 1,0.9 0.3,2.5 -1,2.5 l -2.2,-0.1 c -1,0 -1.7,0.8 -1.6,1.7 0.1,0.5 0.1,0.9 0.2,1.4 0.1,0.9 1,1.5 1.9,1.3 l 0.8,-0.2 c 1.3,-0.3 2.7,0.5 3,1.8 0.3,1.3 -0.5,2.7 -1.8,3 l -0.7,0.2 c -0.9,0.2 -1.4,1.2 -1,2.1 0.2,0.4 0.4,0.9 0.6,1.3 0.4,0.8 1.4,1.2 2.2,0.7 l 0.7,-0.4 c 1.2,-0.7 2.7,-0.3 3.4,0.9 0.7,1.2 0.3,2.7 -0.8,3.4 l -0.6,0.4 c -0.8,0.5 -1,1.6 -0.4,2.3 0.3,0.4 0.6,0.7 0.9,1.1 0.6,0.7 1.7,0.7 2.3,0 l 0.6,-0.6 c 0.9,-1 2.5,-1.1 3.5,-0.1 1,0.9 1.1,2.5 0.2,3.5 l -0.5,0.5 c -0.6,0.7 -0.5,1.8 0.3,2.4 0.4,0.3 0.8,0.5 1.2,0.8 0.8,0.5 1.8,0.2 2.2,-0.6 l 0.3,-0.7 c 0.5,-1.1 1.8,-1.7 3,-1.3 1.5,0.5 2.2,2.2 1.5,3.5 l -0.3,0.6 c -0.4,0.9 0,1.9 0.9,2.2 0.4,0.1 0.9,0.3 1.3,0.4 0.9,0.3 1.8,-0.3 2,-1.2 l 0.1,-0.8 c 0.2,-1.4 1.5,-2.3 2.9,-2 1.4,0.2 2.3,1.5 2,2.9 l -0.1,0.7 c -0.2,0.9 0.5,1.8 1.5,1.8 0.5,0 0.9,0 1.4,0 0.9,0 1.6,-0.8 1.5,-1.7 l -0.1,-0.8 c -0.2,-1.4 0.8,-2.6 2.2,-2.7 1.4,-0.1 2.6,0.8 2.8,2.2 l 0.1,0.7 c 0.1,0.9 1,1.6 2,1.3 0.5,-0.1 0.9,-0.2 1.3,-0.4 0.9,-0.3 1.3,-1.2 1,-2.1 l -0.3,-0.8 c -0.5,-1.3 0.1,-2.7 1.3,-3.3 1.3,-0.5 2.7,0.1 3.3,1.3 l 0.3,0.6 c 0.4,0.9 1.4,1.2 2.2,0.7 0.4,-0.2 0.8,-0.5 1.2,-0.7 0.8,-0.5 0.9,-1.6 0.3,-2.3 l -0.5,-0.7 c -0.9,-1.1 -0.7,-2.6 0.4,-3.5 1.1,-0.9 2.6,-0.7 3.5,0.4 l 0.4,0.5 c 0.6,0.7 1.7,0.8 2.4,0.1 0,0 0,0 0,0 0.3,-0.3 0.6,-0.7 0.9,-1 0.6,-0.7 0.4,-1.8 -0.3,-2.3 l -0.7,-0.5 c -1.1,-0.8 -1.4,-2.3 -0.7,-3.5 0.8,-1.1 2.3,-1.4 3.5,-0.6 l 0.6,0.4 c 0.8,0.5 1.9,0.3 2.3,-0.6 0.2,-0.4 0.4,-0.8 0.6,-1.3 0.4,-0.8 -0.1,-1.8 -0.9,-2.1 l -0.8,-0.3 c -1.3,-0.4 -2,-1.9 -1.6,-3.2 0.4,-1.3 1.8,-2 3.1,-1.6 l 0.7,0.2 c 0.9,0.3 1.9,-0.3 2,-1.2 0.1,-0.5 0.1,-0.9 0.2,-1.4 0.1,-0.9 -0.6,-1.7 -1.5,-1.8 h -0.8 c -1.4,0 -2.5,-1.2 -2.4,-2.6 -0.7,-0.9 -0.1,-2.5 1.2,-2.4 z m -52.3,-6 c 0.5,-1.2 1.8,-1.9 3.1,-1.4 1.2,0.5 1.9,1.8 1.4,3.1 -0.5,1.2 -1.8,1.9 -3.1,1.4 -1.3,-0.5 -1.9,-1.9 -1.4,-3.1 z m 3.9,18.7 c -1.2,0.5 -2.6,0 -3.2,-1.2 -0.5,-1.2 0,-2.6 1.2,-3.2 1.2,-0.5 2.6,0 3.2,1.2 0.6,1.3 0,2.7 -1.2,3.2 z m 4.2,-8.6 c -0.9,0 -1.6,-0.6 -1.6,-1.5 0,-0.9 0.6,-1.6 1.5,-1.6 0.9,0 1.6,0.6 1.6,1.5 0,0.8 -0.6,1.6 -1.5,1.6 z m 23.6,-13.4 c 0.6,0.6 0.7,1.6 0.1,2.2 -0.6,0.6 -1.6,0.7 -2.2,0.1 -0.6,-0.6 -0.7,-1.6 -0.1,-2.2 0.5,-0.7 1.5,-0.7 2.2,-0.1 z m -5.4,-9 c 0.5,-1.2 1.8,-1.9 3.1,-1.4 1.2,0.5 1.9,1.8 1.4,3.1 -0.5,1.2 -1.8,1.9 -3.1,1.4 -1.2,-0.5 -1.9,-1.8 -1.4,-3.1 z m -5.5,5.1 c 0.9,0 1.6,0.6 1.6,1.5 0,0.9 -0.6,1.6 -1.5,1.6 -0.9,0 -1.6,-0.6 -1.6,-1.5 -0.1,-0.9 0.6,-1.6 1.5,-1.6 z m -9,-5.7 c 1.2,-0.5 2.6,0 3.2,1.2 0.5,1.2 0,2.6 -1.2,3.2 -1.2,0.5 -2.6,0 -3.2,-1.2 -0.5,-1.3 0,-2.7 1.2,-3.2 z m -1.4,12.8 c -0.6,-0.6 -0.7,-1.6 -0.1,-2.2 0.6,-0.6 1.6,-0.7 2.2,-0.1 0.6,0.6 0.7,1.6 0.1,2.2 -0.6,0.6 -1.5,0.7 -2.2,0.1 z m 0.9,16.9 c 0.6,-0.6 1.6,-0.7 2.2,-0.1 0.6,0.6 0.7,1.6 0.1,2.2 -0.6,0.6 -1.6,0.7 -2.2,0.1 -0.7,-0.6 -0.7,-1.6 -0.1,-2.2 z m 5.5,11.2 c -0.5,1.2 -1.8,1.9 -3.1,1.4 -1.2,-0.5 -1.9,-1.8 -1.4,-3.1 0.5,-1.2 1.8,-1.9 3.1,-1.4 1.2,0.5 1.8,1.9 1.4,3.1 z m 5.5,-5.1 c -0.9,0 -1.6,-0.6 -1.6,-1.5 0,-0.9 0.6,-1.6 1.5,-1.6 0.9,0 1.6,0.6 1.6,1.5 0,0.9 -0.7,1.6 -1.5,1.6 z m -6,-9.2 c -3.1,-2.8 -3.2,-7.6 -0.4,-10.6 2.8,-3.1 7.6,-3.2 10.6,-0.4 3.1,2.8 3.2,7.6 0.4,10.6 -2.8,3.1 -7.6,3.3 -10.6,0.4 z m 14.9,14.9 c -1.2,0.5 -2.6,0 -3.2,-1.2 -0.5,-1.2 0,-2.6 1.2,-3.2 1.2,-0.5 2.6,0 3.2,1.2 0.5,1.3 0,2.7 -1.2,3.2 z m 1.5,-10.6 c -0.6,0.6 -1.6,0.7 -2.2,0.1 -0.6,-0.6 -0.7,-1.6 -0.1,-2.2 0.6,-0.6 1.6,-0.7 2.2,-0.1 0.7,0.6 0.7,1.6 0.1,2.2 z m 2.4,-9.2 c -0.9,0 -1.6,-0.6 -1.6,-1.5 0,-0.9 0.6,-1.6 1.5,-1.6 0.9,0 1.6,0.6 1.6,1.5 0,0.8 -0.6,1.5 -1.5,1.6 z m 4,-11.8 c 1.2,-0.5 2.6,0 3.2,1.2 0.5,1.2 0,2.6 -1.2,3.2 -1.2,0.5 -2.6,0 -3.2,-1.2 -0.5,-1.2 0,-2.7 1.2,-3.2 z m 4,18.7 c -0.5,1.2 -1.8,1.9 -3.1,1.4 -1.2,-0.5 -1.9,-1.8 -1.4,-3.1 0.5,-1.2 1.8,-1.9 3.1,-1.4 1.2,0.5 1.8,1.9 1.4,3.1 z"
         class="st0"
         inkscape:connector-curvature="0"
         style="fill:#006699" />
      <path
         id="path4364"
         d="m 209.2,229.5 h 60.2 c 1.7,0 3.1,-1.4 3.1,-3.1 v -1 c 0,-1.7 -1.4,-3.1 -3.1,-3.1 h -60.2 c -1.7,0 -3.1,1.4 -3.1,3.1 v 1 c -0.1,1.7 1.3,3.1 3.1,3.1 z"
         class="st0"
         inkscape:connector-curvature="0"
         style="fill:#006699" />
      <path
         id="path4366"
         d="m 218.6,215.3 v 1 c 0,1.7 1.4,3.1 3.1,3.1 h 35 c 1.7,0 3.1,-1.4 3.1,-3.1 v -1 c 0,-1.7 -1.4,-3.1 -3.1,-3.1 h -35 c -1.6,-0.1 -3.1,1.4 -3.1,3.1 z"
         class="st0"
         inkscape:connector-curvature="0"
         style="fill:#006699" />
      <path
         id="path4368"
         d="m 209.2,239.2 h 60.2 c 1.7,0 3.1,-1.4 3.1,-3.1 v -1 c 0,-1.7 -1.4,-3.1 -3.1,-3.1 h -60.2 c -1.7,0 -3.1,1.4 -3.1,3.1 v 1 c -0.1,1.7 1.3,3.1 3.1,3.1 z"
         class="st0"
         inkscape:connector-curvature="0"
         style="fill:#006699" />
      <path
         id="path4370"
         d="m 209.2,248.9 h 60.2 c 1.7,0 3.1,-1.4 3.1,-3.1 v -1 c 0,-1.7 -1.4,-3.1 -3.1,-3.1 h -60.2 c -1.7,0 -3.1,1.4 -3.1,3.1 v 1 c -0.1,1.6 1.3,3.1 3.1,3.1 z"
         class="st0"
         inkscape:connector-curvature="0"
         style="fill:#006699" />
      <path
         id="path4372"
         d="m 316.4,47.7 45.2,82.6 c -1.7,1.7 -2.2,4.3 -1,6.6 1.5,2.7 4.8,3.6 7.4,2.2 2.7,-1.5 3.6,-4.8 2.2,-7.4 -1.2,-2.2 -3.7,-3.2 -6.1,-2.7 L 318.9,46.4 c 1.7,-1.7 2.2,-4.3 1,-6.6 -1.5,-2.7 -4.8,-3.6 -7.4,-2.2 -2.7,1.5 -3.6,4.8 -2.2,7.4 1.2,2.2 3.7,3.3 6.1,2.7 z"
         class="st0"
         inkscape:connector-curvature="0"
         style="fill:#006699" />
      <path
         id="path4374"
         d="m 220.4,154.7 c 2.5,0.3 4.8,-1.1 5.8,-3.3 l 26.9,3.6 -1.1,8 32.5,4.4 1.1,-8 15,1.9 c 0.3,2.4 2.2,4.5 4.7,4.8 3,0.4 5.8,-1.7 6.2,-4.7 0.4,-3 -1.7,-5.8 -4.7,-6.2 -2.5,-0.3 -4.7,1 -5.7,3.2 l -15.1,-1.9 1,-7.5 -32.5,-4.4 -1,7.5 -26.9,-3.6 c -0.3,-2.4 -2.2,-4.3 -4.7,-4.7 -3,-0.4 -5.8,1.7 -6.2,4.7 -0.4,3 1.7,5.8 4.7,6.2 z m 36.6,-6.8 26.7,3.6 -1.7,12.6 -26.7,-3.6 z"
         class="st0"
         inkscape:connector-curvature="0"
         style="fill:#006699" />
      <rect
         id="rect4376"
         height="2.9000001"
         width="9.3000002"
         class="st0"
         transform="matrix(0.1329,-0.9911,0.9911,0.1329,73.0374,393.3195)"
         y="153.5"
         x="256.70001"
         style="fill:#006699" />
      <rect
         id="rect4378"
         height="2.9000001"
         width="9.3000002"
         class="st0"
         transform="matrix(0.1333,-0.9911,0.9911,0.1333,79.0666,402.4831)"
         y="154.60001"
         x="265"
         style="fill:#006699" />
      <rect
         id="rect4380"
         height="2.9000001"
         width="9.3000002"
         class="st0"
         transform="matrix(0.1332,-0.9911,0.9911,0.1332,85.1905,411.7213)"
         y="155.7"
         x="273.29999"
         style="fill:#006699" />
      <path
         id="path4382"
         d="m 323,376.9 c 3,0 5.5,-2.5 5.5,-5.5 0,-3 -2.5,-5.5 -5.5,-5.5 -2.5,0 -4.6,1.7 -5.3,4 h -27.2 v -15.6 h -2.9 v 34.2 h 2.9 v -15.6 h 27.2 c 0.6,2.3 2.7,4 5.3,4 z"
         class="st0"
         inkscape:connector-curvature="0"
         style="fill:#006699" />
      <path
         id="path4384"
         d="m 266.8,388.8 v 2.9 c 5.4,0 9.5,-8 9.9,-19 v 0 c 0,-0.3 0,-0.6 0,-0.9 0,-0.3 0,-0.6 0,-0.9 v 0 c -0.4,-10.9 -4.5,-19 -9.9,-19 v 2.9 c 3,0 6.4,6.1 7,15.1 h -27.1 c -0.6,-2.3 -2.8,-4 -5.3,-4 -3,0 -5.5,2.5 -5.5,5.5 0,3 2.5,5.5 5.5,5.5 2.5,0 4.6,-1.7 5.3,-4 h 27.1 c -0.3,9.5 -3.8,15.9 -7,15.9 z"
         class="st0"
         inkscape:connector-curvature="0"
         style="fill:#006699" />
      <path
         id="path4386"
         d="m 187.1,410.9 10.1,-16.3 -5.9,-9.9 25.6,2.4 -13.4,-21.9 25.6,2.4 -13.4,-21.9 25.6,2.4 -13.4,-21.9 25.6,2.4 -13.4,-21.9 25.6,2.4 -13.7,-21.9 11.5,0.9 6.6,-10.5 c 2.4,0.9 5.2,0.1 6.6,-2.2 1.6,-2.6 0.8,-5.9 -1.8,-7.5 -2.6,-1.6 -5.9,-0.8 -7.5,1.8 -1.4,2.3 -1,5.2 1,6.9 l -5.9,9.5 -14.3,-1.1 13.4,21.9 -25.6,-2.4 13.4,21.9 -25.6,-2.4 13.4,21.9 -25.6,-2.4 13.4,21.9 -25.6,-2.4 13.4,21.9 -25.5,-2.4 7.3,12.3 -9.5,15.2 c -2.4,-0.9 -5.2,-0.1 -6.6,2.2 -1.6,2.6 -0.8,5.9 1.8,7.5 2.6,1.6 5.9,0.8 7.5,-1.8 1.7,-2.3 1.2,-5.2 -0.7,-7 z"
         class="st0"
         inkscape:connector-curvature="0"
         style="fill:#006699" />
      <path
         id="path4388"
         d="m 391.1,160 h -5.3 c -0.8,0 -1.5,0.6 -1.6,1.3 -0.6,6.3 -6.4,12.4 -8.4,12.5 -1.1,0 -1.4,-0.4 -2.3,-1.4 l -0.3,-0.4 c -0.1,-0.1 -0.2,-0.2 -0.3,-0.3 3.1,-3.6 4.6,-8.4 4.6,-13.1 0,-4.9 -1.7,-9.7 -5.1,-12.7 -0.6,-0.5 -1.5,-0.6 -2.1,-0.1 -5.7,4 -6.2,16.7 -1,25.1 -0.5,0.5 -1,1 -1.4,1.4 -1,1.1 -1.8,2 -2.5,2.1 -1.7,-0.3 -3.4,-1.3 -4.8,-2.9 5,-8.9 4.4,-20.6 -1.5,-25.6 -0.6,-0.5 -1.7,-0.5 -2.3,0 -5.3,4.9 -5.2,13.8 -2.8,20.5 0.7,1.9 1.6,3.7 2.6,5.2 -2,1.8 -4,2.9 -5.5,2.9 -0.8,0 -1.7,-0.9 -2.7,-1.7 -0.2,-0.2 -0.5,-0.5 -0.8,-0.7 2.1,-2.9 3.4,-6.5 3.4,-9.9 0,-0.7 0,-1.4 0.1,-2.2 0,-0.9 0.1,-1.8 0.1,-2.8 0,-4 -0.7,-8.4 -5,-11.7 -0.6,-0.4 -1.4,-0.5 -2,0 -5.2,3.7 -6.4,17.2 -0.6,26.6 -1.4,1.4 -3.1,2.3 -4.7,2.3 -3.5,0 -7.1,-1.4 -9.5,-12.5 -0.1,-0.7 -0.8,-1.2 -1.6,-1.2 h -2.7 c -0.6,-2.4 -2.7,-4.2 -5.3,-4.2 -3,0 -5.5,2.5 -5.5,5.5 0,3 2.5,5.5 5.5,5.5 2.4,0 4.5,-1.6 5.2,-3.8 h 1.5 c 1.2,5.1 3.7,13.8 12.4,13.7 2.5,0 4.8,-1.1 6.7,-2.9 0.2,0.1 0.3,0.3 0.5,0.4 1.2,1.1 2.8,2.5 5,2.5 2.9,-0.1 5.6,-2 7.4,-3.5 1.9,1.9 4.1,3.1 6.4,3.4 0.1,0 0.1,0 0.2,0 2.2,0 3.6,-1.5 5.1,-3.1 0.1,-0.1 0.2,-0.2 0.3,-0.4 l 0.2,0.2 c 0.9,1.1 2.1,2.5 4.9,2.5 4.3,-0.1 10.1,-7.4 11.3,-13.8 h 3.8 c 0.6,2.4 2.7,4.1 5.3,4.1 3,0 5.5,-2.5 5.5,-5.5 0,-3 -2.5,-5.5 -5.5,-5.5 -2.1,0.2 -4.2,1.9 -4.9,4.2 z m -45.9,-11.2 c 3.1,3.1 2.9,7.2 2.7,11.2 0,0.8 -0.1,1.5 -0.1,2.3 0,2.5 -0.9,5.1 -2.1,7.2 -3.4,-6.8 -3.6,-16.8 -0.5,-20.7 z m 12.8,0.5 c 3.4,4.3 3.6,12.5 0.5,19.3 -0.5,-0.9 -1,-2 -1.4,-3.1 -1.9,-5 -2.2,-12 0.9,-16.2 z m 13.2,-0.1 c 4,4.8 4.1,13.4 0.3,19.3 -3.1,-6 -3.7,-15.3 -0.3,-19.3 z"
         class="st0"
         inkscape:connector-curvature="0"
         style="fill:#006699" />
      <polygon
         id="polygon4390"
         points="399.6,301 408.6,301.4 409.8,298.1 384.5,297.1 383.2,300.4 392.2,300.7 "
         class="st0"
         style="fill:#006699" />
      <path
         id="path4392"
         d="m 411.1,274.3 c 1,-2.6 -0.4,-5.4 -2.9,-6.4 -1.2,-0.5 -2.6,-0.4 -3.8,0.1 -1.2,0.6 -2.1,1.5 -2.6,2.8 l -2.3,5.8 c -4.5,0.4 -8.7,3.2 -10.3,7.8 l -0.3,0.9 23.4,0.9 c -0.5,-2.4 -1.7,-4.5 -3.4,-6.2 z m -6.6,-2.4 c 0.2,-0.5 0.6,-0.9 1.1,-1.2 0.5,-0.2 1.1,-0.2 1.6,-0.1 1.1,0.4 1.6,1.6 1.2,2.6 l -1.9,4.9 c -0.6,-0.3 -1.2,-0.6 -1.8,-0.9 -0.7,-0.3 -1.4,-0.4 -2.1,-0.6 z"
         class="st0"
         inkscape:connector-curvature="0"
         style="fill:#006699" />
      <path
         id="path4394"
         d="m 403.6,290.3 -7.4,-0.3 v 0 l -9,-0.4 -1.2,3.3 9,0.4 v 0 l 7.4,0.3 v 0 l 9,0.4 0.4,-1 c 0.3,-0.7 0.5,-1.5 0.6,-2.2 z"
         class="st0"
         inkscape:connector-curvature="0"
         style="fill:#006699" />
      <polygon
         id="polygon4396"
         points="380.4,307.9 389.4,308.3 396.8,308.6 405.7,308.9 407,305.7 398,305.3 390.6,305 381.7,304.7 "
         class="st0"
         style="fill:#006699" />
      <path
         id="path4398"
         d="m 387.8,312.5 v 0 l -9,-0.4 -0.9,2.5 c -0.1,0.2 -0.2,0.5 -0.2,0.7 l 25.3,1 1.2,-3.3 -12.5,-0.5 z"
         class="st0"
         inkscape:connector-curvature="0"
         style="fill:#006699" />
      <path
         id="path4400"
         d="m 380.8,327.5 -3.2,8.2 v 0 c -1,2.6 0.3,5.4 2.9,6.4 0.6,0.2 1.2,0.3 1.7,0.3 0.7,0 1.4,-0.2 2.1,-0.5 1.2,-0.6 2.1,-1.5 2.6,-2.8 l 3.2,-8.3 c 4.5,-0.4 8.6,-3.3 10.3,-7.8 l 0.9,-2.4 -24.2,-1 c 0.3,3.1 1.6,5.9 3.7,7.9 z m 3.4,10.7 c -0.2,0.5 -0.6,0.9 -1.1,1.2 -0.5,0.2 -1.1,0.2 -1.6,0.1 -1.1,-0.4 -1.6,-1.6 -1.2,-2.6 l 2.9,-7.4 c 0.6,0.3 1.2,0.6 1.8,0.8 0.7,0.3 1.4,0.4 2.1,0.6 z"
         class="st0"
         inkscape:connector-curvature="0"
         style="fill:#006699" />
      <path
         id="path4402"
         d="m 119.5,335.1 28.3,0.2 c 1.3,0 2.1,-1 1.7,-2.2 -0.4,-1.2 -1.8,-2.2 -3.1,-2.2 l -28.3,-0.2 c -1.3,0 -2.1,1 -1.7,2.2 0.4,1.2 1.8,2.2 3.1,2.2 z"
         class="st0"
         inkscape:connector-curvature="0"
         style="fill:#006699" />
      <path
         id="path4404"
         d="m 150.2,342.9 c 1.3,0 2.1,-1 1.7,-2.2 -0.4,-1.2 -1.8,-2.2 -3.1,-2.2 l -28.3,-0.2 c -1.3,0 -2.1,1 -1.7,2.2 0.4,1.2 1.8,2.2 3.1,2.2 z"
         class="st0"
         inkscape:connector-curvature="0"
         style="fill:#006699" />
      <path
         id="path4406"
         d="M 151.3,346.2 123,346 c -1.3,0 -2.1,1 -1.7,2.2 0.4,1.2 1.8,2.2 3.1,2.2 l 28.3,0.2 c 1.3,0 2.1,-1 1.7,-2.2 -0.4,-1.2 -1.8,-2.2 -3.1,-2.2 z"
         class="st0"
         inkscape:connector-curvature="0"
         style="fill:#006699" />
      <path
         id="path4408"
         d="m 153.8,353.8 -28.3,-0.2 c -1.3,0 -2.1,1 -1.7,2.2 0.4,1.2 1.8,2.2 3.1,2.2 l 28.3,0.2 c 1.3,0 2.1,-1 1.7,-2.2 -0.4,-1.2 -1.8,-2.1 -3.1,-2.2 z"
         class="st0"
         inkscape:connector-curvature="0"
         style="fill:#006699" />
      <path
         id="path4410"
         d="m 128,361.3 c -1.3,0 -2.1,1 -1.7,2.2 0.4,1.2 1.8,2.2 3.1,2.2 l 28.3,0.2 c 1.3,0 2.1,-1 1.7,-2.2 -0.4,-1.2 -1.8,-2.2 -3.1,-2.2 z"
         class="st0"
         inkscape:connector-curvature="0"
         style="fill:#006699" />
      <path
         id="path4412"
         d="m 331.1,344.7 c 2,-0.3 2,-1 0.1,-1.6 -1.9,-0.6 -1.9,-1.7 -0.1,-2.4 1.8,-0.7 1.7,-1.4 -0.2,-1.6 -2,-0.2 -2.2,-1.2 -0.6,-2.3 1.6,-1.1 1.4,-1.8 -0.6,-1.5 -2,0.3 -2.5,-0.7 -1.1,-2.1 1.3,-1.5 0.9,-2.1 -0.9,-1.3 -1.8,0.8 -2.6,-0.1 -1.6,-1.8 1,-1.7 0.4,-2.2 -1.2,-1.1 -1.6,1.1 -2.5,0.5 -2,-1.4 0.5,-1.9 -0.1,-2.2 -1.4,-0.8 -1.3,1.5 -2.3,1.1 -2.2,-0.9 0.1,-2 -0.6,-2.2 -1.5,-0.4 -0.9,1.7 -2,1.6 -2.4,-0.4 -0.4,-1.9 -1.1,-2 -1.6,-0.1 -0.5,1.9 -1.6,2 -2.4,0.2 -0.8,-1.8 -1.5,-1.7 -1.6,0.3 -0.1,2 -1.1,2.3 -2.3,0.7 -1.2,-1.6 -1.9,-1.3 -1.5,0.7 0.4,1.9 -0.5,2.5 -2.1,1.3 -1.5,-1.2 -2.1,-0.8 -1.3,1 0.8,1.8 0.1,2.6 -1.7,1.7 -1.8,-0.9 -2.2,-0.3 -1,1.3 1.2,1.5 0.7,2.5 -1.3,2 -1.9,-0.4 -2.2,0.2 -0.7,1.5 1.6,1.2 1.2,2.2 -0.8,2.3 -2,0.1 -2.1,0.7 -0.3,1.6 1.8,0.8 1.7,1.9 -0.2,2.4 -1.9,0.5 -1.9,1.2 0,1.6 1.9,0.4 2.1,1.5 0.3,2.4 -1.8,0.9 -1.6,1.6 0.4,1.6 2,-0.1 2.4,0.9 0.9,2.2 -1.5,1.3 -1.2,1.9 0.8,1.4 1.9,-0.5 2.5,0.4 1.4,2 -1.2,1.6 -0.7,2.1 1.1,1.2 1.7,-0.9 2.5,-0.2 1.8,1.6 -0.8,1.8 -0.2,2.2 1.3,0.9 1.5,-1.3 2.4,-0.8 2.1,1.2 -0.3,2 0.4,2.2 1.5,0.6 1.1,-1.6 2.2,-1.3 2.3,0.6 0.1,2 0.9,2.1 1.6,0.2 0.7,-1.8 1.8,-1.8 2.4,0.1 0.6,1.9 1.3,1.8 1.6,-0.1 0.3,-2 1.3,-2.2 2.4,-0.5 1,1.7 1.7,1.5 1.5,-0.5 -0.2,-2 0.8,-2.4 2.2,-1 1.4,1.4 2,1 1.4,-0.8 -0.6,-1.9 0.2,-2.5 1.9,-1.5 1.7,1.1 2.2,0.5 1.1,-1.1 -1,-1.7 -0.4,-2.5 1.5,-1.9 1.9,0.6 2.2,0 0.8,-1.4 -1.4,-1.4 -0.9,-2.4 1,-2.2 2,0.2 2.2,-0.5 0.5,-1.5 -1.5,-1.1 -1.3,-2.1 0.7,-2.4 z m -5.7,-3.3 -4.9,-0.5 c -0.4,-2.1 -1.9,-3.9 -3.9,-4.7 l 0.5,-4.9 c 4.5,1.3 7.9,5.4 8.3,10.1 z m -12.2,-10.4 -0.5,4.9 c -2.1,0.4 -3.9,1.9 -4.7,3.9 l -4.9,-0.5 c 1.2,-4.6 5.3,-7.9 10.1,-8.3 z m -10.5,12.2 4.9,0.5 c 0.4,2.1 1.9,3.9 3.9,4.7 l -0.5,4.9 c -4.5,-1.2 -7.9,-5.3 -8.3,-10.1 z m 12.2,10.4 0.5,-4.9 c 2.1,-0.4 3.9,-1.9 4.7,-3.9 l 4.9,0.5 c -1.2,4.6 -5.3,8 -10.1,8.3 z"
         class="st0"
         inkscape:connector-curvature="0"
         style="fill:#006699" />
      <path
         id="path4414"
         d="m 302.6,236.8 c 0.1,0 0.1,0 0.2,0 0,-0.2 0,-0.5 0,-0.7 -0.1,0 -0.1,0 -0.2,0 -0.6,0.1 -1.2,-0.1 -1.2,-0.5 -0.1,-0.4 0.4,-0.8 1,-0.9 0.1,0 0.1,0 0.2,0 0,-0.2 -0.1,-0.5 -0.2,-0.7 -0.1,0 -0.1,0 -0.2,0.1 -0.6,0.2 -1.2,0.1 -1.3,-0.3 -0.1,-0.4 0.3,-0.8 0.9,-1 0.1,0 0.1,0 0.2,-0.1 -0.1,-0.2 -0.2,-0.4 -0.3,-0.7 0,0 -0.1,0.1 -0.1,0.1 -0.6,0.3 -1.2,0.2 -1.3,-0.1 -0.1,-0.3 0.1,-0.9 0.7,-1.2 0.1,0 0.1,-0.1 0.2,-0.1 -0.1,-0.2 -0.2,-0.4 -0.4,-0.6 0,0 -0.1,0.1 -0.1,0.1 -0.5,0.4 -1.1,0.4 -1.3,0.1 -0.2,-0.3 0,-0.9 0.5,-1.2 0,0 0.1,-0.1 0.1,-0.1 -0.1,-0.2 -0.3,-0.4 -0.5,-0.5 0,0 -0.1,0.1 -0.1,0.1 -0.4,0.4 -1,0.6 -1.3,0.3 -0.3,-0.3 -0.1,-0.9 0.3,-1.3 0,0 0.1,-0.1 0.1,-0.1 -0.2,-0.2 -0.3,-0.3 -0.5,-0.5 0,0 0,0.1 -0.1,0.1 -0.4,0.5 -0.9,0.7 -1.2,0.5 -0.3,-0.2 -0.3,-0.8 0.1,-1.3 0,0 0,-0.1 0.1,-0.1 -0.2,-0.1 -0.4,-0.2 -0.6,-0.4 0,0 0,0 0,0.1 -0.3,0.6 -0.8,0.9 -1.2,0.7 -0.3,-0.2 -0.4,-0.8 -0.1,-1.3 0,0 0,0 0,-0.1 -0.2,-0.1 -0.4,-0.2 -0.6,-0.3 0,0 0,0 0,0 -0.2,0.6 -0.7,1 -1,0.9 -0.4,-0.1 -0.5,-0.7 -0.3,-1.3 0,0 0,0 0,0 -0.2,-0.1 -0.4,-0.1 -0.7,-0.2 0,0 0,0 0,0 -0.1,0.6 -0.5,1.1 -0.9,1 -0.4,-0.1 -0.6,-0.6 -0.5,-1.2 0,0 0,0 0,0 -0.2,0 -0.4,0 -0.7,-0.1 0,0.6 -0.3,1.1 -0.7,1.1 -0.4,0 -0.7,-0.5 -0.7,-1.1 -0.2,0 -0.4,0 -0.7,0.1 0.1,0.6 -0.2,1.1 -0.5,1.2 -0.4,0.1 -0.8,-0.4 -0.9,-1 -0.2,0 -0.4,0.1 -0.6,0.2 0.2,0.6 0,1.1 -0.3,1.2 -0.4,0.1 -0.8,-0.2 -1,-0.8 -0.2,0.1 -0.4,0.2 -0.6,0.3 0.2,0.5 0.2,1.1 -0.2,1.2 -0.4,0.1 -0.8,-0.1 -1.1,-0.6 -0.2,0.1 -0.4,0.2 -0.6,0.3 0.3,0.5 0.3,1 0,1.2 -0.3,0.2 -0.8,0 -1.2,-0.4 -0.2,0.1 -0.3,0.3 -0.5,0.4 0.4,0.4 0.4,0.9 0.2,1.2 -0.3,0.3 -0.8,0.2 -1.2,-0.2 -0.1,0.2 -0.3,0.3 -0.4,0.5 0.4,0.4 0.6,0.8 0.4,1.1 -0.2,0.3 -0.7,0.3 -1.2,0 -0.1,0.2 -0.2,0.4 -0.4,0.6 0.4,0.3 0.7,0.7 0.5,1 -0.2,0.3 -0.7,0.4 -1.2,0.2 -0.1,0.2 -0.2,0.4 -0.3,0.6 0.5,0.2 0.8,0.6 0.7,0.9 -0.1,0.3 -0.6,0.5 -1.1,0.4 -0.1,0.2 -0.1,0.4 -0.2,0.6 0.5,0.1 0.8,0.5 0.8,0.8 -0.1,0.3 -0.5,0.6 -1,0.5 0,0.2 0,0.4 -0.1,0.7 0.5,0.1 0.9,0.4 0.9,0.7 0,0.3 -0.4,0.6 -0.9,0.7 0,0.2 0,0.4 0,0.7 0.5,0 0.9,0.2 1,0.5 0.1,0.3 -0.3,0.7 -0.8,0.8 0,0.2 0.1,0.4 0.1,0.6 0.5,-0.1 1,0.1 1.1,0.4 0.1,0.3 -0.2,0.7 -0.7,1 0.1,0.2 0.2,0.4 0.2,0.6 0.5,-0.2 1,-0.1 1.1,0.2 0.2,0.3 -0.1,0.8 -0.5,1.1 0.1,0.2 0.2,0.4 0.3,0.6 0.5,-0.3 1,-0.3 1.2,0 0.2,0.3 0,0.8 -0.4,1.1 0.1,0.2 0.3,0.3 0.4,0.5 0.4,-0.3 0.9,-0.4 1.2,-0.2 0.3,0.3 0.2,0.8 -0.2,1.2 0.2,0.2 0.3,0.3 0.5,0.4 0.4,-0.4 0.9,-0.6 1.1,-0.4 0.3,0.2 0.3,0.7 0,1.2 0.2,0.1 0.4,0.2 0.6,0.4 0.3,-0.5 0.8,-0.7 1.1,-0.6 0.3,0.2 0.4,0.7 0.2,1.3 0.2,0.1 0.4,0.2 0.6,0.3 0.2,-0.5 0.6,-0.9 1,-0.8 0.4,0.1 0.5,0.7 0.3,1.2 0.2,0.1 0.4,0.1 0.6,0.2 0.1,-0.6 0.5,-1 0.9,-0.9 0.4,0.1 0.6,0.6 0.5,1.2 0.2,0 0.4,0.1 0.7,0.1 0,-0.6 0.3,-1.1 0.7,-1.1 0.4,0 0.7,0.5 0.7,1.1 0.2,0 0.4,0 0.7,0 -0.1,-0.6 0.1,-1.2 0.5,-1.2 0.4,-0.1 0.8,0.4 0.9,1 0,0 0,0 0,0 0.2,0 0.4,-0.1 0.7,-0.1 0,0 0,0 0,0 -0.2,-0.6 -0.1,-1.2 0.3,-1.3 0.4,-0.1 0.8,0.3 1,0.9 0,0 0,0 0,0.1 0.2,-0.1 0.4,-0.2 0.6,-0.2 0,0 0,0 0,0 -0.3,-0.6 -0.2,-1.2 0.1,-1.3 0.3,-0.2 0.9,0.1 1.2,0.7 0,0 0,0.1 0,0.1 0.2,-0.1 0.4,-0.2 0.6,-0.3 0,0 0,0 0,-0.1 -0.4,-0.5 -0.4,-1.1 -0.1,-1.3 0.3,-0.2 0.9,0 1.2,0.5 0,0 0,0.1 0.1,0.1 0.2,-0.1 0.4,-0.3 0.5,-0.4 0,0 -0.1,0 -0.1,-0.1 -0.4,-0.4 -0.6,-1 -0.3,-1.3 0.3,-0.3 0.9,-0.1 1.3,0.3 0,0 0.1,0.1 0.1,0.1 0.2,-0.2 0.3,-0.3 0.5,-0.5 0,0 -0.1,0 -0.1,-0.1 -0.5,-0.4 -0.7,-0.9 -0.5,-1.2 0.2,-0.3 0.8,-0.3 1.3,0.1 0,0 0.1,0.1 0.1,0.1 0.1,-0.2 0.3,-0.4 0.4,-0.6 0,0 -0.1,0 -0.1,-0.1 -0.6,-0.3 -0.9,-0.8 -0.7,-1.2 0.2,-0.4 0.8,-0.4 1.3,-0.1 0.1,0 0.1,0.1 0.2,0.1 0.1,-0.2 0.2,-0.4 0.3,-0.7 -0.1,0 -0.1,0 -0.2,0 -0.6,-0.2 -1,-0.7 -0.9,-1 0.1,-0.4 0.7,-0.5 1.3,-0.3 0.1,0 0.1,0 0.2,0.1 0.1,-0.2 0.1,-0.5 0.2,-0.7 -0.1,0 -0.1,0 -0.2,0 -0.6,-0.1 -1.1,-0.5 -1,-0.9 0.1,-0.4 0.6,-0.6 1.2,-0.5 0.1,0 0.1,0 0.2,0 0,-0.2 0.1,-0.5 0.1,-0.7 -0.1,0 -0.1,0 -0.2,0 -0.6,0 -1.1,-0.3 -1.1,-0.7 0.1,-0.5 0.6,-0.8 1.3,-0.8 z M 287,227.6 c 0.9,-1.6 4.8,-1.4 7.9,0.4 3.1,1.8 5.2,5 4.2,6.6 -0.9,1.6 -4.4,0.8 -7.5,-0.9 -3.1,-1.8 -5.5,-4.5 -4.6,-6.1 z m -2.4,1.1 c 0.5,-0.3 1.1,-0.1 1.3,0.4 0.3,0.5 0.1,1.1 -0.4,1.3 -0.5,0.3 -1.1,0.1 -1.3,-0.4 -0.2,-0.5 -0.1,-1.1 0.4,-1.3 z m -2.2,15.5 c -1.9,0 -3.6,-3.4 -3.6,-7 0,-3.6 1.7,-7 3.6,-7 1.9,0 2.9,3.4 2.9,7 0,3.6 -1.1,7 -2.9,7 z m 2.2,1.6 c -0.5,-0.3 -0.6,-0.9 -0.4,-1.3 0.3,-0.5 0.9,-0.6 1.3,-0.4 0.5,0.3 0.6,0.9 0.4,1.3 -0.2,0.5 -0.8,0.7 -1.3,0.4 z m 10.2,0.7 c -3.1,1.8 -6.9,2 -7.9,0.4 -0.9,-1.6 1.5,-4.3 4.6,-6 3.1,-1.8 6.6,-2.6 7.5,-0.9 1,1.5 -1.1,4.8 -4.2,6.5 z m 3.7,-8.3 c -0.5,0 -1,-0.4 -1,-1 0,-0.5 0.4,-1 1,-1 0.5,0 1,0.4 1,1 0,0.6 -0.5,1 -1,1 z"
         class="st0"
         inkscape:connector-curvature="0"
         style="fill:#006699" />
      <path
         id="path4416"
         d="m 166.2,243.8 c 0.1,0.6 0.1,1.2 0.1,1.8 0,4.7 -2,10.1 -5.7,11.4 -0.7,0.2 -2.9,0.5 -2.9,0.5 -0.8,0.1 -1.3,0.9 -1.2,1.7 0.1,0.8 0.9,1.3 1.7,1.2 l 2.9,-0.5 c 0,0 0,0 0,0 0,0 0,0 0,0 0.8,0 1.4,0.6 1.4,1.4 0,0.5 -0.2,0.9 -0.6,1.2 0,0 0,0 0,0 l -2.6,1.3 c -0.7,0.4 -1,1.2 -0.7,2 0.4,0.7 1.2,1 2,0.7 l 2.6,-1.3 c 0,0 0,0 0,0 0.1,0 0.2,-0.1 0.4,-0.1 0.8,0 1.4,0.6 1.4,1.4 0,0.3 -0.1,0.6 -0.3,0.9 0,0 0,0 0,0 l -2.2,2 c -0.6,0.5 -0.6,1.5 -0.1,2.1 0.5,0.6 1.5,0.6 2.1,0.1 l 2.2,-2 c 0,0 0,0 0,0 0.2,-0.1 0.5,-0.2 0.8,-0.2 0.8,0 1.4,0.6 1.4,1.4 0,0.2 0,0.4 -0.1,0.5 0,0 0,0 0,0 l -1.7,2.8 c -0.4,0.7 -0.2,1.6 0.5,2 0.7,0.4 1.6,0.2 2,-0.5 l 1.7,-2.8 c 0,0 0,0 0,0 0.3,-0.3 0.6,-0.5 1.1,-0.5 0.8,0 1.4,0.6 1.4,1.4 0,0.1 0,0.1 0,0.2 0,0 0,0 0,0 l -0.9,3.2 c -0.2,0.8 0.2,1.6 1,1.8 0.8,0.2 1.6,-0.2 1.8,-1 l 0.9,-3.2 c 0,0 0,0 0,0 0,-0.1 0.1,-0.2 0.2,-0.3 0.4,0.2 0.9,0.4 1.5,0.5 v -43.6 c 0,-1.3 1.1,-2.4 2.4,-2.4 1.3,0 2.4,1.1 2.4,2.4 v 43.6 c 0.5,-0.1 0.9,-0.3 1.2,-0.4 0.1,0.1 0.1,0.2 0.2,0.3 0,0 0,0 0,0 l 0.9,3.2 c 0.2,0.8 1,1.2 1.8,1 0.8,-0.2 1.2,-1 1,-1.8 l -0.9,-3.2 c 0,0 0,0 0,0 0,-0.1 0,-0.1 0,-0.2 0,-0.8 0.6,-1.4 1.4,-1.4 0.4,0 0.8,0.2 1.1,0.5 0,0 0,0 0,0 l 1.7,2.8 c 0.4,0.7 1.3,0.9 2,0.5 0.7,-0.4 0.9,-1.3 0.5,-2 l -1.7,-2.8 c 0,0 0,0 0,0 -0.1,-0.2 -0.1,-0.3 -0.1,-0.5 0,-0.8 0.6,-1.4 1.4,-1.4 0.3,0 0.5,0.1 0.8,0.2 0,0 0,0 0,0 l 2.2,2 c 0.6,0.5 1.5,0.5 2.1,-0.1 0.5,-0.6 0.5,-1.5 -0.1,-2.1 l -2.2,-2 c 0,0 0,0 0,0 -0.2,-0.2 -0.3,-0.5 -0.3,-0.9 0,-0.8 0.6,-1.4 1.4,-1.4 0.1,0 0.3,0 0.4,0.1 0,0 0,0 0,0 l 2.6,1.3 c 0.7,0.4 1.6,0 2,-0.7 0.4,-0.7 0.1,-1.6 -0.7,-2 l -2.6,-1.3 c 0,0 0,0 0,0 -0.4,-0.3 -0.6,-0.7 -0.6,-1.2 0,-0.8 0.6,-1.4 1.4,-1.4 0,0 0,0 0,0 0,0 0,0 0,0 l 2.9,0.5 c 0.8,0.1 1.6,-0.4 1.7,-1.2 0.1,-0.8 -0.4,-1.6 -1.2,-1.7 0,0 -2.2,-0.3 -2.9,-0.5 -3.9,-1.3 -5.7,-6.7 -5.7,-11.4 0,-0.6 0,-1.2 0.1,-1.8 0,0 0,0 0,0 0,-0.1 0,-0.3 0,-0.4 0,-2 -1.4,-3.7 -3.3,-4.2 0,0 0,0 0,0 -2.9,-0.7 -5,-3.2 -5,-6.3 0,-0.1 0,-0.2 0,-0.3 h 1.7 c 0.2,0 0.3,-0.1 0.3,-0.3 v -0.8 c 0,-0.2 -0.1,-0.3 -0.3,-0.3 h -1.8 c -0.1,-0.6 -0.3,-1.2 -0.5,-1.8 l 1.5,-0.9 c 0.2,-0.1 0.2,-0.3 0.1,-0.5 l -0.4,-0.7 c -0.1,-0.2 -0.3,-0.2 -0.5,-0.1 l -1.4,0.9 c -0.3,-0.4 -0.7,-0.8 -1.1,-1.1 l 0.8,-1.5 c 0.1,-0.2 0,-0.4 -0.1,-0.4 l -0.7,-0.4 c -0.2,-0.1 -0.4,0 -0.4,0.1 l -0.8,1.4 c -0.5,-0.2 -1.1,-0.4 -1.8,-0.5 v -1.7 c 0,-0.2 -0.1,-0.3 -0.3,-0.3 h -0.8 c -0.2,0 -0.3,0.1 -0.3,0.3 v 1.7 c -0.6,0.1 -1.2,0.2 -1.7,0.5 l -0.8,-1.4 c -0.1,-0.2 -0.3,-0.2 -0.4,-0.1 l -0.7,0.4 c -0.2,0.1 -0.2,0.3 -0.1,0.4 l 0.8,1.4 c -0.4,0.3 -0.8,0.7 -1.1,1.1 l -1.4,-0.9 c -0.2,-0.1 -0.4,-0.1 -0.5,0.1 l -0.4,0.7 c -0.1,0.2 -0.1,0.4 0.1,0.5 l 1.4,0.9 c -0.3,0.6 -0.4,1.2 -0.5,1.8 h -1.7 c -0.2,0 -0.3,0.1 -0.3,0.3 v 0.8 c 0,0.2 0.1,0.3 0.3,0.3 h 1.7 c 0,0.1 0,0.3 0,0.3 0,3.1 -2.1,5.6 -5,6.3 0,0 0,0 0,0 -1.9,0.4 -3.3,2.1 -3.3,4.2 0,0.1 0,0.2 0,0.4 0,0 0,0 0,0 z m 29.2,16.9 c 0,2.8 -2.3,5.1 -5.1,5.1 -2.8,0 -5.1,-2.3 -5.1,-5.1 0,-2.8 2.3,-5.1 5.1,-5.1 2.8,0 5.1,2.3 5.1,5.1 z m -7.6,-19.4 c 2.2,0 4,1.8 4,4 v 4 c 0,2.2 -1.8,4 -4,4 -2.2,0 -4,-1.8 -4,-4 v -4 c 0.1,-2.2 1.8,-4 4,-4 z m -18.6,4 c 0,-2.2 1.8,-4 4,-4 2.2,0 4,1.8 4,4 v 4 c 0,2.2 -1.8,4 -4,4 -2.2,0 -4,-1.8 -4,-4 z m 1.6,10.3 c 2.8,0 5,2.2 5,5 0,2.8 -2.2,5 -5,5 -2.8,0 -5,-2.2 -5,-5 0,-2.8 2.3,-5 5,-5 z"
         class="st0"
         inkscape:connector-curvature="0"
         style="fill:#006699" />
      <path
         id="path4418"
         d="m 183.2,282.7 c -0.5,0 -0.9,0 -1.4,0 -1.5,0 -2.8,0.9 -3.4,2.2 -0.2,0.5 -0.4,1 -0.4,1.6 0,2.1 1.7,3.8 3.8,3.8 16.4,0 30,-12.5 31.7,-28.5 h 113 c 1.3,0.3 2.9,0.6 3.3,0.7 0.1,0.4 0.2,0.9 0.3,1.3 -0.9,0.5 -3.3,2 -3.9,2.7 l 0.3,0.9 0.3,0.9 c 0.9,0.3 4.1,0.2 4.9,0.1 0.2,0.4 0.4,0.8 0.6,1.2 -0.7,0.6 -2.9,2.7 -3.3,3.5 l 0.5,0.8 0.5,0.8 c 1.1,0.1 5,-1 5,-1 0,0 0,0 0,-0.1 0.2,0.2 0.3,0.4 0.5,0.6 -0.4,0.6 -2.1,3.4 -2.3,4.3 l 0.7,0.7 0.7,0.7 c 1,-0.2 4,-1.9 4.5,-2.2 0.3,0.2 0.6,0.5 0.9,0.7 -0.3,0.9 -1.2,3.8 -1.1,4.7 l 0.8,0.5 0.8,0.5 c 0.8,-0.4 2.9,-2.4 3.6,-3.1 0.4,0.2 0.7,0.4 1.1,0.5 -0.1,1.1 -0.3,3.7 0,4.5 l 0.9,0.3 0.9,0.3 c 0.7,-0.5 2.1,-2.7 2.7,-3.6 0.6,0.1 1.1,0.3 1.7,0.3 0.2,1.1 0.6,3.7 1,4.5 l 0.9,0.1 0.9,0.1 c 0.6,-0.7 1.5,-3.3 1.9,-4.3 0.5,0 1,0 1.6,-0.1 0.5,1 1.7,3.3 2.3,3.9 l 0.9,-0.2 0.9,-0.2 c 0.3,-0.7 0.4,-3.1 0.5,-4.3 0.6,-0.2 1.1,-0.3 1.7,-0.5 0.7,0.9 2.3,2.9 3,3.3 l 0.9,-0.4 0.9,-0.4 c 0.1,-0.8 -0.3,-3.4 -0.5,-4.5 0.4,-0.2 0.8,-0.5 1.3,-0.8 0.8,0.6 3.1,2.3 4,2.5 l 0.7,-0.6 0.7,-0.6 c -0.1,-0.8 -1.2,-3.2 -1.7,-4.2 0.4,-0.4 0.8,-0.8 1.2,-1.2 1,0.5 3.4,1.6 4.3,1.7 l 0.6,-0.7 0.6,-0.7 c -0.3,-0.9 -2,-3.4 -2.6,-4.1 0.2,-0.3 0.4,-0.7 0.6,-1 0.7,0.1 4,0.7 4.9,0.5 l 0.4,-0.9 0.4,-0.9 c -0.5,-0.8 -3.1,-2.8 -3.7,-3.3 0.1,-0.4 0.3,-0.8 0.4,-1.2 0.7,-0.1 4,-0.5 4.8,-1 l 0.1,-0.9 0.1,-0.9 c -0.7,-0.6 -3.2,-1.5 -4.2,-1.9 0.1,-0.6 0.1,-1.2 0.1,-1.7 0.8,-0.2 3.8,-1.2 4.5,-1.8 l -0.1,-0.9 -0.1,-0.9 c -0.8,-0.5 -4.1,-1.1 -4.8,-1.2 -0.1,-0.5 -0.2,-0.9 -0.3,-1.4 0.9,-0.5 3.3,-2 3.9,-2.6 l -0.3,-0.9 -0.3,-0.9 c -0.9,-0.3 -4,-0.2 -4.8,-0.1 -0.2,-0.4 -0.4,-0.8 -0.6,-1.2 0.7,-0.7 2.8,-2.7 3.3,-3.5 l -0.5,-0.8 -0.5,-0.8 c -1,-0.1 -4.7,0.9 -5,1 -0.1,-0.2 -0.3,-0.4 -0.4,-0.5 0.4,-0.7 2.1,-3.4 2.3,-4.3 l -0.7,-0.7 -0.7,-0.7 c -1,0.2 -3.9,1.8 -4.5,2.2 -0.3,-0.2 -0.6,-0.5 -0.9,-0.7 0.3,-0.9 1.2,-3.8 1.1,-4.7 l -0.8,-0.5 -0.8,-0.5 c -0.8,0.4 -2.9,2.4 -3.6,3.1 -0.4,-0.2 -0.7,-0.4 -1.1,-0.5 0.1,-1.1 0.3,-3.7 0,-4.5 l -0.9,-0.3 -0.9,-0.3 c -0.7,0.5 -2.1,2.7 -2.7,3.6 -0.6,-0.1 -1.2,-0.3 -1.8,-0.3 -0.1,-0.7 -0.3,-1.7 -0.5,-2.6 0,-0.1 0,-0.2 0,-0.4 0,-0.9 -0.3,-1.7 -0.8,-2.3 -0.7,-0.9 -1.7,-1.4 -2.9,-1.4 -1,0 -2,0 -2.9,0.1 -7.4,0.7 -14.4,3.9 -19.9,9.2 -5.4,5.3 -8.7,12.1 -9.5,19.4 H 208 c -1.1,0 -2,0.9 -2,2 v 3.3 c 0,0.1 0,0.2 0,0.2 -0.8,12 -10.6,21.7 -22.8,22.4 z m 155.9,-37.6 7.7,7.7 c -0.8,1.2 -1.3,2.5 -1.5,3.9 h -10.8 c 0.2,-4.4 1.9,-8.4 4.6,-11.6 z m 0.2,26.7 c -2.7,-3.1 -4.4,-7 -4.9,-11.4 h 10.8 c 0.3,1.4 0.8,2.6 1.6,3.8 z m 14,7.2 c -4.3,-0.4 -8.2,-2.1 -11.3,-4.6 l 7.6,-7.6 c 1.1,0.7 2.4,1.3 3.7,1.5 z m 3.6,0 v -10.7 c 1.4,-0.3 2.6,-0.8 3.7,-1.5 l 7.6,7.6 c -3.1,2.5 -7,4.2 -11.3,4.6 z m 14,-7.2 -7.6,-7.6 c 0.8,-1.1 1.3,-2.4 1.6,-3.8 h 10.8 c -0.4,4.3 -2.1,8.2 -4.8,11.4 z m 0.3,-26.7 c 2.6,3.2 4.3,7.2 4.7,11.6 H 365 c -0.2,-1.4 -0.8,-2.7 -1.5,-3.9 z m -16.1,-11.7 c 1.2,0 2.3,-0.6 2.9,-1.4 v 5.8 c 4,0.6 7.6,2.2 10.5,4.7 l -7.7,7.7 c -0.9,-0.6 -1.8,-1.1 -2.8,-1.4 v 9.4 c 0,1.6 -1.3,2.9 -2.9,2.9 -1.6,0 -2.9,-1.3 -2.9,-2.9 v -9.4 c -1,0.3 -2,0.8 -2.8,1.4 l -7.7,-7.7 c 2.9,-2.5 6.5,-4.2 10.5,-4.7 v -4.1 c 0.9,-0.2 1.9,-0.3 2.9,-0.3 z"
         class="st0"
         inkscape:connector-curvature="0"
         style="fill:#006699" />
      <path
         id="path4420"
         d="m 190.3,223.3 c 0.7,0.2 0.7,0.6 0,0.9 -0.7,0.3 -0.6,0.5 0.1,0.6 0.7,0.1 0.8,0.4 0.2,0.8 -0.6,0.4 -0.5,0.6 0.2,0.5 0.7,-0.1 0.9,0.2 0.4,0.8 -0.5,0.5 -0.3,0.7 0.3,0.5 0.7,-0.3 0.9,0 0.6,0.6 -0.3,0.6 -0.1,0.8 0.4,0.4 0.6,-0.4 0.9,-0.2 0.7,0.5 -0.2,0.7 0,0.8 0.5,0.3 0.5,-0.5 0.8,-0.4 0.8,0.3 0,0.7 0.2,0.8 0.6,0.1 0.3,-0.6 0.7,-0.6 0.8,0.1 0.1,0.7 0.4,0.7 0.6,0 0.2,-0.7 0.6,-0.7 0.9,-0.1 0.3,0.6 0.5,0.6 0.6,-0.1 0,-0.7 0.4,-0.8 0.8,-0.3 0.4,0.6 0.7,0.4 0.5,-0.2 -0.2,-0.7 0.2,-0.9 0.7,-0.5 0.6,0.4 0.8,0.3 0.4,-0.4 -0.3,-0.6 0,-0.9 0.6,-0.6 0.6,0.3 0.8,0.1 0.4,-0.5 -0.4,-0.5 -0.2,-0.9 0.4,-0.7 0.7,0.1 0.8,-0.1 0.2,-0.5 -0.6,-0.4 -0.4,-0.8 0.3,-0.8 0.7,0 0.8,-0.3 0.1,-0.6 -0.6,-0.3 -0.6,-0.7 0.1,-0.9 0.7,-0.2 0.7,-0.4 0,-0.6 -0.7,-0.1 -0.7,-0.5 -0.1,-0.8 0.6,-0.3 0.6,-0.6 -0.2,-0.6 -0.7,0 -0.8,-0.3 -0.3,-0.8 0.5,-0.5 0.4,-0.7 -0.3,-0.5 -0.7,0.2 -0.9,-0.1 -0.5,-0.7 0.4,-0.6 0.2,-0.8 -0.4,-0.4 -0.6,0.3 -0.9,0.1 -0.6,-0.6 0.3,-0.7 0.1,-0.8 -0.5,-0.3 -0.5,0.5 -0.9,0.3 -0.8,-0.4 0.1,-0.7 -0.1,-0.8 -0.5,-0.2 -0.4,0.6 -0.8,0.5 -0.8,-0.2 -0.1,-0.7 -0.3,-0.7 -0.6,-0.1 -0.3,0.7 -0.6,0.6 -0.9,0 -0.2,-0.7 -0.5,-0.6 -0.6,0.1 -0.1,0.7 -0.5,0.8 -0.8,0.2 -0.4,-0.6 -0.6,-0.5 -0.5,0.2 0.1,0.7 -0.3,0.9 -0.8,0.4 -0.5,-0.5 -0.7,-0.4 -0.5,0.3 0.2,0.7 -0.1,0.9 -0.7,0.5 -0.6,-0.4 -0.8,-0.2 -0.4,0.4 0.4,0.6 0.1,0.9 -0.5,0.7 -0.7,-0.2 -0.8,0 -0.3,0.5 0.5,0.5 0.3,0.8 -0.4,0.8 -0.7,-0.1 -0.8,0.2 -0.2,0.5 0.6,0.4 0.5,0.7 -0.2,0.8 -0.4,0.1 -0.5,0.3 0.2,0.6 z m 2.3,-0.9 1.6,0.7 c -0.1,0.8 0.2,1.5 0.8,2 l -0.7,1.6 c -1.5,-0.8 -2.2,-2.6 -1.7,-4.3 z m 2.8,5 0.7,-1.6 c 0.8,0.1 1.5,-0.2 2,-0.8 l 1.6,0.7 c -0.9,1.5 -2.6,2.1 -4.3,1.7 z m 5,-2.9 -1.6,-0.7 c 0.1,-0.8 -0.2,-1.5 -0.8,-2 l 0.7,-1.6 c 1.5,0.9 2.1,2.7 1.7,4.3 z m -2.9,-4.9 -0.7,1.6 c -0.8,-0.1 -1.5,0.2 -2,0.7 l -1.6,-0.7 c 0.9,-1.4 2.7,-2 4.3,-1.6 z"
         class="st0"
         inkscape:connector-curvature="0"
         style="fill:#006699" />
      <path
         id="path4422"
         d="m 375.4,414.5 c -3.2,1.6 -5.2,4.7 -5.7,8 L 353,423 c -0.1,-0.3 -0.1,-0.5 -0.2,-0.8 -0.9,-2.3 -3.3,-3.7 -5.7,-3.4 l -12.2,-30.4 c 1.9,-1.5 2.7,-4.1 1.8,-6.4 -1.1,-2.8 -4.3,-4.2 -7.1,-3 -2.8,1.1 -4.2,4.3 -3,7.1 0.9,2.3 3.3,3.7 5.7,3.4 l 12.2,30.4 c -1.9,1.5 -2.7,4.1 -1.8,6.4 1.1,2.8 4.3,4.2 7.1,3 1.6,-0.6 2.7,-1.9 3.2,-3.4 l 16.8,-0.5 c 0.2,1.1 0.5,2.3 1,3.3 2.7,5.2 9,7.3 14.2,4.6 5.2,-2.7 7.3,-9 4.6,-14.2 -2.6,-5.2 -9,-7.2 -14.2,-4.6 z m 5.6,11.2 c -0.9,0.4 -2.1,0 -2.5,-0.9 -0.4,-0.9 0,-2.1 0.9,-2.5 0.9,-0.4 2.1,0 2.5,0.9 0.4,0.9 0,2 -0.9,2.5 z m -9.1,-4.7 5.7,2.4 c -0.1,0.4 -0.1,0.8 0,1.2 l -5.7,2.4 c -0.7,-2.1 -0.6,-4.2 0,-6 z m 10.9,2.3 2,-0.8 c 0.3,0.3 0.9,0.5 1.3,0.3 0.5,-0.2 0.7,-0.7 0.7,-1.1 l 1.7,-0.7 c 0.7,2 0.7,4 0,5.9 l -5.7,-2.4 c 0,-0.4 0.1,-0.8 0,-1.2 z M 388,420 c 0,0.1 0.1,0.1 0.1,0.2 l -1.7,0.7 c -0.3,-0.3 -0.9,-0.5 -1.3,-0.3 -0.5,0.2 -0.7,0.7 -0.7,1.1 l -2,0.8 c -0.2,-0.3 -0.5,-0.6 -0.8,-0.8 l 2.3,-5.7 c 1.7,0.8 3.2,2.2 4.1,4 z m -4.9,-4.3 -2.4,5.7 c -0.4,-0.1 -0.8,-0.1 -1.1,0 l -2.4,-5.7 c 2,-0.7 4,-0.7 5.9,0 z m -6.9,0.4 c 0.1,0 0.1,-0.1 0.2,-0.1 l 2.4,5.7 c -0.3,0.2 -0.6,0.5 -0.8,0.8 l -5.7,-2.4 c 0.8,-1.6 2.1,-3.1 3.9,-4 z m -3.8,11.8 c 0,-0.1 -0.1,-0.2 -0.1,-0.2 l 5.7,-2.4 c 0.2,0.3 0.5,0.6 0.8,0.8 l -2.4,5.7 c -1.7,-0.7 -3.1,-2.1 -4,-3.9 z m 4.8,4.3 2.4,-5.7 c 0.4,0.1 0.8,0.1 1.2,0 l 2.4,5.7 c -2,0.7 -4.1,0.7 -6,0 z m 7,-0.4 c -0.1,0 -0.1,0.1 -0.2,0.1 l -2.4,-5.7 c 0.3,-0.2 0.6,-0.5 0.8,-0.8 l 5.7,2.3 c -0.8,1.7 -2.1,3.2 -3.9,4.1 z"
         class="st0"
         inkscape:connector-curvature="0"
         style="fill:#006699" />
      <circle
         id="ellipse4424"
         cy="320.60001"
         cx="124.3"
         class="st0"
         transform="matrix(0.133,-0.9911,0.9911,0.133,-210.0312,401.1328)"
         r="5.5"
         style="fill:#006699" />
      <circle
         id="ellipse4426"
         cy="307.29999"
         cx="126.4"
         class="st0"
         transform="matrix(0.1331,-0.9911,0.9911,0.1331,-195.0619,391.6808)"
         r="5.5"
         style="fill:#006699" />
      <circle
         id="ellipse4428"
         cy="281.20001"
         cx="135.2"
         class="st0"
         transform="matrix(0.1331,-0.9911,0.9911,0.1331,-161.5035,377.8025)"
         r="5.5"
         style="fill:#006699" />
      <circle
         id="ellipse4430"
         cy="267.89999"
         cx="141.5"
         class="st0"
         transform="matrix(0.1331,-0.9911,0.9911,0.1331,-142.8751,372.5575)"
         r="5.5"
         style="fill:#006699" />
      <circle
         id="ellipse4432"
         cy="255.5"
         cx="149.2"
         class="st0"
         transform="matrix(0.133,-0.9911,0.9911,0.133,-123.9297,369.3698)"
         r="5.5"
         style="fill:#006699" />
      <circle
         id="ellipse4434"
         cy="245.2"
         cx="158.8"
         class="st0"
         transform="matrix(0.133,-0.9911,0.9911,0.133,-105.3625,369.9386)"
         r="5.5"
         style="fill:#006699" />
      <path
         id="path4436"
         d="m 348.8,351.7 c 5.2,-14.5 10.3,-28.9 15.5,-43.4 -0.2,0.1 -0.3,0.1 -0.4,0.2 -5.9,2.9 -11.7,5.7 -17.6,8.6 -0.3,0.1 -0.4,0.3 -0.5,0.6 -0.3,1.5 -0.7,2.9 -1,4.4 -3.7,15.7 -7.3,31.4 -11,47 0,0.1 0,0.3 -0.1,0.5 8.1,-3.4 16,-6.8 24.1,-10.2 -2.5,12.1 -4.9,24 -7.4,36 -2,-1.1 -4,-2.2 -6,-3.4 2,7.3 4,14.5 6,21.8 5,-5.9 10,-11.8 15,-17.7 -2.6,0.4 -5,0.8 -7.6,1.1 5.6,-19 11.1,-38 16.6,-57 -8.5,4 -17,7.7 -25.6,11.5 z"
         class="st0"
         inkscape:connector-curvature="0"
         style="fill:#006699" />
      <path
         id="path4438"
         d="m 342.6,380.4 c 0.5,-0.5 0.8,-0.4 0.8,0.3 0,0.7 0.2,0.8 0.6,0.1 0.3,-0.6 0.7,-0.6 0.8,0.1 0.1,0.7 0.4,0.7 0.6,0 0.2,-0.7 0.6,-0.7 0.9,-0.1 0.3,0.6 0.5,0.6 0.6,-0.1 0,-0.7 0.4,-0.8 0.8,-0.3 0.4,0.6 0.7,0.4 0.5,-0.2 -0.2,-0.7 0.2,-0.9 0.7,-0.5 0.5,0.4 0.8,0.3 0.4,-0.4 -0.3,-0.6 0,-0.9 0.6,-0.6 0.6,0.3 0.8,0.1 0.4,-0.5 -0.4,-0.5 -0.2,-0.9 0.4,-0.7 0.7,0.1 0.8,-0.1 0.2,-0.5 -0.6,-0.4 -0.4,-0.8 0.3,-0.8 0.7,0 0.8,-0.3 0.1,-0.6 -0.6,-0.3 -0.6,-0.7 0.1,-0.9 0.7,-0.2 0.7,-0.4 0,-0.6 -0.7,-0.1 -0.7,-0.5 -0.1,-0.8 0.6,-0.3 0.6,-0.6 -0.1,-0.6 -0.7,0 -0.8,-0.3 -0.3,-0.8 0.5,-0.5 0.4,-0.7 -0.3,-0.5 -0.7,0.2 -0.9,-0.1 -0.5,-0.7 0.4,-0.6 0.2,-0.8 -0.4,-0.4 -0.6,0.3 -0.9,0.1 -0.6,-0.6 0.3,-0.7 0.1,-0.8 -0.5,-0.3 -0.5,0.5 -0.9,0.3 -0.8,-0.4 0.1,-0.7 -0.1,-0.8 -0.5,-0.2 -0.4,0.6 -0.8,0.5 -0.8,-0.2 -0.1,-0.7 -0.3,-0.7 -0.6,-0.1 -0.3,0.7 -0.6,0.6 -0.9,0 -0.2,-0.7 -0.5,-0.6 -0.6,0.1 -0.1,0.7 -0.5,0.8 -0.8,0.2 -0.4,-0.6 -0.6,-0.5 -0.5,0.2 0.1,0.7 -0.3,0.9 -0.8,0.4 -0.5,-0.5 -0.7,-0.4 -0.5,0.3 0.2,0.7 -0.1,0.9 -0.7,0.5 -0.6,-0.4 -0.8,-0.2 -0.4,0.4 0.4,0.6 0.1,0.9 -0.5,0.7 -0.7,-0.2 -0.8,0 -0.3,0.5 0.5,0.5 0.3,0.8 -0.4,0.8 -0.7,0 -0.8,0.2 -0.2,0.5 0.6,0.4 0.5,0.7 -0.2,0.8 -0.7,0.1 -0.7,0.4 0,0.6 0.7,0.2 0.7,0.6 0,0.9 -0.7,0.3 -0.6,0.5 0.1,0.6 0.7,0.1 0.8,0.4 0.2,0.8 -0.6,0.4 -0.5,0.6 0.2,0.5 0.7,-0.1 0.9,0.2 0.4,0.8 -0.5,0.5 -0.3,0.7 0.3,0.5 0.7,-0.3 0.9,0 0.6,0.6 -0.3,0.6 -0.1,0.8 0.4,0.4 0.6,-0.4 0.9,-0.2 0.7,0.5 -0.2,0.7 0.2,0.8 0.6,0.3 z m 1.6,-1.7 0.7,-1.6 c 0.8,0.1 1.5,-0.2 2,-0.7 l 1.6,0.7 c -0.8,1.4 -2.6,2.1 -4.3,1.6 z m 5,-2.8 -1.6,-0.7 c 0.1,-0.8 -0.2,-1.5 -0.8,-2 l 0.7,-1.6 c 1.5,0.9 2.1,2.6 1.7,4.3 z m -2.9,-5 -0.7,1.6 c -0.8,-0.1 -1.5,0.2 -2,0.7 l -1.6,-0.7 c 0.9,-1.4 2.7,-2 4.3,-1.6 z m -4.9,2.9 1.6,0.7 c -0.1,0.8 0.2,1.5 0.8,2 l -0.7,1.6 c -1.5,-0.9 -2.2,-2.7 -1.7,-4.3 z"
         class="st0"
         inkscape:connector-curvature="0"
         style="fill:#006699" />
      <path
         id="path4440"
         d="m 369.7,413.4 c 0,0 0.1,0 0.1,0 0,-0.1 0,-0.3 0,-0.4 0,0 -0.1,0 -0.1,0 -0.3,0.1 -0.6,-0.1 -0.7,-0.3 0,-0.2 0.2,-0.4 0.5,-0.5 0,0 0.1,0 0.1,0 0,-0.1 -0.1,-0.2 -0.1,-0.4 0,0 -0.1,0 -0.1,0 -0.3,0.1 -0.6,0 -0.7,-0.2 -0.1,-0.2 0.1,-0.4 0.5,-0.5 0,0 0.1,0 0.1,0 0,-0.1 -0.1,-0.2 -0.1,-0.3 0,0 0,0 -0.1,0 -0.3,0.1 -0.6,0.1 -0.7,-0.1 -0.1,-0.2 0.1,-0.5 0.4,-0.6 0,0 0.1,0 0.1,0 -0.1,-0.1 -0.1,-0.2 -0.2,-0.3 0,0 0,0 -0.1,0 -0.3,0.2 -0.6,0.2 -0.7,0.1 -0.1,-0.2 0,-0.5 0.3,-0.7 0,0 0,0 0.1,0 -0.1,-0.1 -0.2,-0.2 -0.2,-0.3 0,0 0,0 0,0 -0.2,0.2 -0.5,0.3 -0.7,0.2 -0.1,-0.1 -0.1,-0.5 0.2,-0.7 0,0 0,0 0.1,0 -0.1,-0.1 -0.2,-0.2 -0.3,-0.2 0,0 0,0 0,0 -0.2,0.3 -0.5,0.4 -0.7,0.3 -0.2,-0.1 -0.1,-0.4 0.1,-0.7 0,0 0,0 0,0 -0.1,-0.1 -0.2,-0.1 -0.3,-0.2 0,0 0,0 0,0 -0.1,0.3 -0.4,0.5 -0.6,0.4 -0.2,-0.1 -0.2,-0.4 -0.1,-0.7 0,0 0,0 0,0 -0.1,0 -0.2,-0.1 -0.3,-0.1 0,0 0,0 0,0 -0.1,0.3 -0.3,0.5 -0.5,0.5 -0.2,-0.1 -0.3,-0.4 -0.2,-0.7 0,0 0,0 0,0 -0.1,0 -0.2,-0.1 -0.3,-0.1 0,0 0,0 0,0 -0.1,0.3 -0.3,0.6 -0.5,0.5 -0.2,0 -0.3,-0.3 -0.3,-0.7 0,0 0,0 0,0 -0.1,0 -0.2,0 -0.4,0 0,0.3 -0.2,0.6 -0.4,0.6 -0.2,0 -0.4,-0.3 -0.4,-0.6 -0.1,0 -0.2,0 -0.3,0 0,0.3 -0.1,0.6 -0.3,0.6 -0.2,0 -0.4,-0.2 -0.5,-0.5 -0.1,0 -0.2,0.1 -0.3,0.1 0.1,0.3 0,0.6 -0.2,0.6 -0.2,0.1 -0.4,-0.1 -0.5,-0.4 -0.1,0 -0.2,0.1 -0.3,0.1 0.1,0.3 0.1,0.6 -0.1,0.6 -0.2,0 -0.4,-0.1 -0.6,-0.3 -0.1,0.1 -0.2,0.1 -0.3,0.2 0.2,0.3 0.2,0.5 0,0.6 -0.2,0.1 -0.4,0 -0.6,-0.2 -0.1,0.1 -0.2,0.1 -0.3,0.2 0.2,0.2 0.2,0.5 0.1,0.6 -0.1,0.1 -0.4,0.1 -0.6,-0.1 -0.1,0.1 -0.2,0.2 -0.2,0.3 0.2,0.2 0.3,0.4 0.2,0.6 -0.1,0.1 -0.4,0.1 -0.6,0 -0.1,0.1 -0.1,0.2 -0.2,0.3 0.2,0.2 0.4,0.4 0.3,0.5 -0.1,0.2 -0.3,0.2 -0.6,0.1 0,0.1 -0.1,0.2 -0.1,0.3 0.2,0.1 0.4,0.3 0.3,0.5 -0.1,0.2 -0.3,0.3 -0.6,0.2 0,0.1 -0.1,0.2 -0.1,0.3 0.3,0.1 0.4,0.3 0.4,0.4 0,0.2 -0.3,0.3 -0.5,0.3 0,0.1 0,0.2 0,0.3 0.3,0 0.5,0.2 0.5,0.4 0,0.2 -0.2,0.3 -0.5,0.4 0,0.1 0,0.2 0,0.3 0.3,0 0.5,0.1 0.5,0.3 0,0.2 -0.2,0.4 -0.4,0.4 0,0.1 0,0.2 0.1,0.3 0.3,0 0.5,0 0.6,0.2 0.1,0.2 -0.1,0.4 -0.4,0.5 0,0.1 0.1,0.2 0.1,0.3 0.3,-0.1 0.5,-0.1 0.6,0.1 0.1,0.2 0,0.4 -0.3,0.6 0.1,0.1 0.1,0.2 0.2,0.3 0.2,-0.1 0.5,-0.1 0.6,0 0.1,0.2 0,0.4 -0.2,0.6 0.1,0.1 0.1,0.2 0.2,0.3 0.2,-0.2 0.5,-0.2 0.6,-0.1 0.1,0.1 0.1,0.4 -0.1,0.6 0.1,0.1 0.2,0.2 0.3,0.2 0.2,-0.2 0.4,-0.3 0.6,-0.2 0.2,0.1 0.1,0.4 0,0.6 0.1,0.1 0.2,0.1 0.3,0.2 0.2,-0.3 0.4,-0.4 0.6,-0.3 0.2,0.1 0.2,0.4 0.1,0.7 0.1,0 0.2,0.1 0.3,0.1 0.1,-0.3 0.3,-0.5 0.5,-0.4 0.2,0.1 0.3,0.3 0.2,0.7 0.1,0 0.2,0.1 0.3,0.1 0.1,-0.3 0.3,-0.5 0.5,-0.5 0.2,0 0.3,0.3 0.3,0.6 0.1,0 0.2,0 0.3,0 0,-0.3 0.2,-0.6 0.4,-0.6 0.2,0 0.4,0.3 0.4,0.6 0.1,0 0.2,0 0.4,0 0,-0.3 0.1,-0.6 0.3,-0.6 0.2,0 0.4,0.2 0.5,0.5 0,0 0,0 0,0 0.1,0 0.2,0 0.3,-0.1 0,0 0,0 0,0 -0.1,-0.3 0,-0.6 0.2,-0.7 0.2,-0.1 0.4,0.1 0.5,0.5 0,0 0,0 0,0 0.1,0 0.2,-0.1 0.3,-0.1 0,0 0,0 0,0 -0.2,-0.3 -0.1,-0.6 0.1,-0.7 0.2,-0.1 0.5,0.1 0.6,0.4 0,0 0,0 0,0 0.1,-0.1 0.2,-0.1 0.3,-0.2 0,0 0,0 0,0 -0.2,-0.3 -0.2,-0.6 -0.1,-0.7 0.2,-0.1 0.5,0 0.7,0.3 0,0 0,0 0,0.1 0.1,-0.1 0.2,-0.2 0.3,-0.2 0,0 0,0 0,0 -0.2,-0.2 -0.3,-0.5 -0.2,-0.7 0.1,-0.1 0.5,-0.1 0.7,0.2 0,0 0,0 0.1,0.1 0.1,-0.1 0.2,-0.2 0.2,-0.3 0,0 0,0 -0.1,0 -0.3,-0.2 -0.4,-0.5 -0.3,-0.7 0.1,-0.2 0.4,-0.1 0.7,0.1 0,0 0,0 0.1,0.1 0.1,-0.1 0.1,-0.2 0.2,-0.3 0,0 0,0 -0.1,0 -0.3,-0.1 -0.5,-0.4 -0.4,-0.6 0.1,-0.2 0.4,-0.2 0.7,-0.1 0,0 0.1,0 0.1,0 0.1,-0.1 0.1,-0.2 0.2,-0.3 0,0 -0.1,0 -0.1,0 -0.3,-0.1 -0.5,-0.3 -0.5,-0.5 0.1,-0.2 0.4,-0.3 0.7,-0.2 0,0 0.1,0 0.1,0 0,-0.1 0.1,-0.2 0.1,-0.4 0,0 -0.1,0 -0.1,0 -0.3,-0.1 -0.6,-0.3 -0.5,-0.5 0,-0.2 0.3,-0.3 0.7,-0.3 0,0 0.1,0 0.1,0 0,-0.1 0,-0.3 0,-0.4 0,0 -0.1,0 -0.1,0 -0.3,0 -0.6,-0.2 -0.6,-0.4 0,-0.2 0.1,-0.1 0.4,-0.1 z m -8.1,-4.8 c 0.5,-0.8 2.5,-0.7 4.1,0.2 1.6,0.9 2.7,2.6 2.2,3.5 -0.5,0.8 -2.3,0.4 -4,-0.5 -1.6,-0.9 -2.8,-2.3 -2.3,-3.2 z m -1.3,0.6 c 0.2,-0.1 0.6,-0.1 0.7,0.2 0.1,0.2 0.1,0.6 -0.2,0.7 -0.2,0.1 -0.6,0.1 -0.7,-0.2 -0.1,-0.2 0,-0.6 0.2,-0.7 z m -1.2,8.2 c -1,0 -1.9,-1.8 -1.9,-3.7 0,-1.9 0.9,-3.7 1.9,-3.7 1,0 1.5,1.8 1.5,3.7 0.1,1.9 -0.5,3.7 -1.5,3.7 z m 1.2,0.8 c -0.2,-0.1 -0.3,-0.5 -0.2,-0.7 0.1,-0.2 0.5,-0.3 0.7,-0.2 0.2,0.1 0.3,0.5 0.2,0.7 -0.1,0.3 -0.5,0.4 -0.7,0.2 z m 5.4,0.4 c -1.6,0.9 -3.6,1 -4.1,0.2 -0.5,-0.8 0.8,-2.2 2.4,-3.2 1.6,-0.9 3.5,-1.3 4,-0.5 0.5,0.8 -0.7,2.6 -2.3,3.5 z m 1.9,-4.4 c -0.3,0 -0.5,-0.2 -0.5,-0.5 0,-0.3 0.2,-0.5 0.5,-0.5 0.3,0 0.5,0.2 0.5,0.5 0,0.3 -0.2,0.5 -0.5,0.5 z"
         class="st0"
         inkscape:connector-curvature="0"
         style="fill:#006699" />
      <path
         id="path4442"
         d="m 363.1,428.8 c -1,1.4 -0.8,3.2 0.3,4.4 l 3.9,-5.6 c -1.4,-0.6 -3.2,-0.1 -4.2,1.2 z"
         class="st0"
         inkscape:connector-curvature="0"
         style="fill:#006699" />
      <path
         id="path4444"
         d="m 364.5,434 c 1.5,0.7 3.3,0.2 4.3,-1.2 1,-1.4 0.8,-3.2 -0.3,-4.4 z"
         class="st0"
         inkscape:connector-curvature="0"
         style="fill:#006699" />
      <path
         id="path4446"
         d="m 357.5,341.6 c 1,1.4 2.8,1.9 4.3,1.2 l -3.9,-5.6 c -1.2,1.2 -1.4,3 -0.4,4.4 z"
         class="st0"
         inkscape:connector-curvature="0"
         style="fill:#006699" />
      <path
         id="path4448"
         d="m 363.2,337.6 c -1,-1.4 -2.8,-1.9 -4.3,-1.2 l 3.9,5.6 c 1.2,-1.1 1.4,-3 0.4,-4.4 z"
         class="st0"
         inkscape:connector-curvature="0"
         style="fill:#006699" />
      <path
         id="path4450"
         d="m 276.2,422.7 c -0.6,-1.5 -1.7,-2.3 -3.3,-2.5 -2.2,-0.2 -4.5,-0.4 -6.7,-0.6 -1.6,-0.1 -2.8,0.5 -3.6,1.9 -0.1,0.2 -0.3,0.3 -0.5,0.3 -0.9,-0.1 -1.8,-0.2 -2.7,-0.2 -0.3,0 -0.4,-0.1 -0.5,-0.4 -0.6,-1.5 -1.7,-2.3 -3.3,-2.4 -2.2,-0.2 -4.4,-0.4 -6.6,-0.6 -0.5,0 -1,0 -1.4,0.1 -1,0.3 -1.7,0.9 -2.3,1.8 -0.1,0.1 -0.2,0.2 -0.3,0.2 -1.1,-0.1 -2.2,-0.2 -3.2,-0.3 -0.5,-1.7 -1.7,-2.6 -3.4,-2.8 -2.2,-0.2 -4.5,-0.4 -6.7,-0.6 -0.5,0 -1,0 -1.4,0.2 -1,0.3 -1.7,0.9 -2.2,1.8 -0.1,0.1 -0.2,0.3 -0.4,0.2 -1,-0.1 -2,-0.1 -3,-0.2 -0.1,0 -0.3,-0.1 -0.3,-0.2 -0.6,-1.5 -1.7,-2.4 -3.3,-2.6 -2.2,-0.2 -4.4,-0.4 -6.6,-0.6 -0.5,0 -1,0 -1.5,0.2 -1,0.3 -1.7,0.9 -2.2,1.8 -0.1,0.1 -0.2,0.2 -0.4,0.2 -1,-0.1 -2,-0.1 -3,-0.2 -0.1,0 -0.3,-0.1 -0.3,-0.2 -0.5,-1.6 -1.7,-2.4 -3.3,-2.6 -2.2,-0.2 -4.5,-0.4 -6.7,-0.6 -1.6,-0.1 -2.8,0.5 -3.6,1.9 -0.1,0.1 -0.3,0.2 -0.4,0.2 -0.5,0 -0.9,-0.1 -1.4,-0.1 -0.1,0.7 -0.1,1.4 -0.2,2.2 0.5,0 0.9,0.1 1.4,0.1 0.2,0 0.3,0.1 0.4,0.3 0.5,1.5 1.6,2.3 3.1,2.5 2.3,0.2 4.6,0.4 6.9,0.6 1.5,0.1 2.7,-0.5 3.4,-1.8 0.2,-0.4 0.5,-0.4 0.8,-0.4 0.9,0.1 1.7,0.2 2.6,0.2 0.2,0 0.3,0.1 0.4,0.3 0.6,1.5 1.6,2.3 3.2,2.5 2.3,0.2 4.5,0.4 6.8,0.6 1.6,0.1 2.8,-0.5 3.5,-1.9 0.1,-0.2 0.3,-0.3 0.5,-0.2 0.9,0.1 1.8,0.2 2.7,0.2 0.3,0 0.4,0.1 0.5,0.4 0.6,1.5 1.7,2.3 3.2,2.4 2.2,0.2 4.5,0.4 6.7,0.6 0.5,0 1,0 1.4,-0.1 1.1,-0.3 1.9,-1 2.4,-2 1.1,0.1 2.2,0.2 3.2,0.3 0.1,0 0.2,0.2 0.3,0.3 0.6,1.5 1.7,2.4 3.4,2.5 2.2,0.2 4.4,0.4 6.6,0.5 0.5,0 1,0 1.5,-0.1 1,-0.3 1.7,-0.9 2.2,-1.7 0.1,-0.1 0.2,-0.3 0.3,-0.2 1,0.1 2,0.2 3,0.2 0.1,0 0.2,0.1 0.3,0.2 0.6,1.6 1.8,2.5 3.5,2.6 2.1,0.2 4.3,0.4 6.4,0.5 1.7,0.1 3,-0.5 3.8,-1.9 0.1,-0.1 0.2,-0.2 0.3,-0.2 0.6,0 1.1,0.1 1.7,0.1 l 0.2,-2.2 c -0.5,0 -1,-0.1 -1.6,-0.1 -0.1,-0.1 -0.2,-0.2 -0.3,-0.4 z M 204.4,419 c 0.3,0.2 0.7,0.2 1.1,0.3 -0.3,0.5 -0.8,0.7 -1.3,0.8 -0.3,0.1 -0.6,0.1 -0.9,0 -2.2,-0.2 -4.3,-0.4 -6.5,-0.5 -0.7,-0.1 -1.3,-0.4 -1.7,-0.9 0,0 -0.1,-0.1 -0.1,-0.2 0,0 0,-0.1 -0.1,-0.2 0.8,0.1 1.6,0.1 1.8,-1 0.1,-0.4 -0.1,-0.8 -0.5,-1 -0.3,-0.2 -0.7,-0.2 -1.1,-0.3 0.3,-0.5 0.8,-0.7 1.3,-0.8 0.3,-0.1 0.6,-0.1 0.9,0 2.2,0.2 4.3,0.4 6.4,0.5 0.8,0.1 1.5,0.5 2,1.3 -0.6,0 -1.1,-0.2 -1.5,0.3 -0.2,0.2 -0.3,0.4 -0.3,0.7 0,0.4 0.2,0.8 0.5,1 z m 17.8,1.6 c 0.2,0 0.4,0 0.7,0.1 -0.6,0.7 -1.3,1 -2.1,0.9 -2.2,-0.2 -4.5,-0.4 -6.7,-0.6 -0.8,-0.1 -1.4,-0.5 -1.9,-1.2 0.8,0 1.7,0.1 1.8,-1 0.1,-1.1 -0.8,-1.1 -1.6,-1.2 0.5,-0.7 1.2,-1 1.9,-0.9 2.3,0.2 4.6,0.4 7,0.6 0.8,0.1 1.3,0.5 1.8,1.3 -0.2,0 -0.4,0 -0.6,0 -0.7,0 -1.2,0.4 -1.2,1 -0.2,0.4 0.2,0.9 0.9,1 z m 17.2,1.4 c 0.2,0 0.4,0 0.6,0.1 -0.6,0.7 -1.2,1 -2,0.9 -2.3,-0.2 -4.6,-0.4 -6.8,-0.6 -0.8,-0.1 -1.4,-0.5 -1.8,-1.2 0.3,0 0.6,0 0.8,0 0.6,-0.1 1,-0.5 1,-1.1 0,-0.5 -0.4,-0.9 -1,-1 -0.2,0 -0.4,0 -0.7,-0.1 0.6,-0.8 1.3,-1 2.1,-0.9 2.2,0.2 4.4,0.4 6.6,0.6 0.2,0 0.4,0.1 0.6,0.1 0.6,0.2 1,0.6 1.4,1.1 -0.2,0 -0.4,0 -0.6,0 -0.7,0 -1.2,0.4 -1.3,1 0,0.5 0.5,1 1.1,1.1 z m 17.9,1.5 c -0.5,0.7 -1.2,1 -1.9,0.9 -2.3,-0.2 -4.6,-0.4 -7,-0.6 -0.8,-0.1 -1.3,-0.5 -1.8,-1.2 0.3,0 0.6,0 0.8,0 0.6,-0.1 1,-0.5 1,-1.1 0,-0.5 -0.4,-1 -1,-1.1 -0.2,0 -0.4,0 -0.6,-0.1 0.5,-0.7 1.2,-1 2,-0.9 2.3,0.2 4.6,0.4 7,0.6 0.8,0.1 1.4,0.5 1.8,1.3 -0.8,-0.1 -1.6,-0.1 -1.8,0.8 -0.3,1.2 0.5,1.4 1.5,1.4 z m 17.2,1.5 c -0.5,0.7 -1.2,1 -1.9,0.9 -2.3,-0.2 -4.6,-0.4 -7,-0.6 -0.8,-0.1 -1.3,-0.5 -1.8,-1.2 0.9,0.1 1.7,0.1 1.8,-0.9 0.1,-1 -0.8,-1.2 -1.6,-1.2 0.5,-0.7 1.2,-1 2,-0.9 2.3,0.2 4.6,0.4 6.9,0.6 0.8,0.1 1.6,0.7 1.7,1.2 -0.8,-0.1 -1.6,-0.1 -1.7,1 0,0.9 0.8,1 1.6,1.1 z"
         class="st0"
         inkscape:connector-curvature="0"
         style="fill:#006699" />
      <path
         id="path4452"
         d="m 313.2,413 c -3.6,1.8 -5.7,5.4 -5.8,9.1 l -16.7,0.5 c 0,0 0,0 0,0 -1.1,-2.8 -4.3,-4.2 -7.1,-3 -2.8,1.1 -4.2,4.3 -3,7.1 1.1,2.8 4.3,4.2 7.1,3 1.8,-0.7 3,-2.3 3.4,-4.2 l 16.8,-0.5 c 0.2,0.8 0.5,1.5 0.8,2.2 2.7,5.2 9,7.3 14.2,4.6 5.2,-2.7 7.3,-9 4.6,-14.2 -2.7,-5.1 -9.1,-7.2 -14.3,-4.6 z m 5.6,11.2 c -0.9,0.4 -2.1,0 -2.5,-0.9 -0.4,-0.9 0,-2.1 0.9,-2.5 0.9,-0.4 2.1,0 2.5,0.9 0.5,0.9 0,2.1 -0.9,2.5 z m -9,-4.7 5.7,2.4 c -0.1,0.4 -0.1,0.8 0,1.2 l -5.7,2.4 c -0.8,-2.1 -0.7,-4.1 0,-6 z m 10.8,2.4 2,-0.8 c 0.3,0.3 0.9,0.5 1.3,0.3 0.5,-0.2 0.7,-0.7 0.7,-1.1 l 1.7,-0.7 c 0.7,2 0.7,4 0,5.9 l -5.7,-2.4 c 0.1,-0.4 0.1,-0.8 0,-1.2 z m 5.2,-3.4 c 0,0.1 0.1,0.1 0.1,0.2 l -1.7,0.7 c -0.3,-0.3 -0.9,-0.5 -1.3,-0.3 -0.5,0.2 -0.7,0.7 -0.7,1.1 l -2,0.8 c -0.2,-0.3 -0.5,-0.6 -0.8,-0.8 l 2.3,-5.7 c 1.7,0.9 3.2,2.2 4.1,4 z m -4.9,-4.3 -2.4,5.7 c -0.4,-0.1 -0.8,-0.1 -1.1,0 l -2.4,-5.7 c 2,-0.7 4.1,-0.6 5.9,0 z m -6.9,0.5 c 0.1,0 0.1,-0.1 0.2,-0.1 l 2.4,5.7 c -0.3,0.2 -0.6,0.5 -0.8,0.8 l -5.7,-2.4 c 0.8,-1.7 2.1,-3.1 3.9,-4 z m -3.8,11.8 c 0,-0.1 -0.1,-0.2 -0.1,-0.3 l 5.7,-2.4 c 0.2,0.3 0.5,0.6 0.8,0.8 l -2.4,5.7 c -1.7,-0.7 -3.1,-2 -4,-3.8 z m 4.9,4.2 2.4,-5.7 c 0.4,0.1 0.8,0.1 1.2,0 l 2.4,5.7 c -2.1,0.8 -4.2,0.7 -6,0 z m 6.9,-0.4 c -0.1,0 -0.1,0.1 -0.2,0.1 l -2.4,-5.7 c 0.3,-0.2 0.6,-0.5 0.8,-0.8 l 5.7,2.3 c -0.8,1.7 -2.1,3.2 -3.9,4.1 z"
         class="st0"
         inkscape:connector-curvature="0"
         style="fill:#006699" />
      <path
         id="path4454"
         d="m 180.6,358.2 v 0 c 1.8,0 2,-1.2 3.2,-2.3 2.1,-1.8 3.5,-0.9 12.4,-5.2 9.8,-4.8 7.5,-16.5 7.5,-16.5 0.9,0.2 2.7,0.8 2.7,0.2 0,-0.6 -2.3,-5.6 -2.9,-6.8 -1.4,-3 -1.6,-4.3 -2.8,0.6 0,0 -2.3,6.4 -1.8,6.7 0.4,0.3 0.8,-0.1 1.9,-0.4 0,0 0.3,5.9 -1.4,8.9 -3.4,6.1 -13.1,5.5 -14.8,4.1 -1.4,-1.2 -2.3,-3.5 -2.3,-10.9 0,-7.5 0,-22.6 0,-23.8 0,-1.2 0,-4 0,-4 0,0 0.8,-0.5 0.8,-1.6 1.9,-1 3.3,-3 3.2,-5.3 -0.1,-3.2 -2.7,-5.7 -5.9,-5.7 -2,0 -3.7,1.1 -4.7,2.6 l -39.8,-5.4 c -0.3,-2.4 -2.2,-4.4 -4.7,-4.7 -3,-0.4 -5.8,1.7 -6.2,4.7 -0.4,3 1.7,5.8 4.7,6.2 2.5,0.3 4.8,-1.1 5.7,-3.3 l 39.2,5.4 c 0,0.2 0,0.4 0,0.5 0.1,2.2 1.4,4.1 3.2,5 0,1.1 0.8,1.6 0.8,1.6 0,0 0,2.8 0,4 0,1.2 0,16.3 0,23.8 0,7.5 -0.9,9.7 -2.3,10.9 -1.6,1.4 -11.4,2 -14.8,-4.1 -1.7,-3 -1.4,-8.9 -1.4,-8.9 1.2,0.3 1.5,0.7 1.9,0.4 0.4,-0.3 -1.8,-6.7 -1.8,-6.7 -1.2,-4.9 -1.4,-3.6 -2.8,-0.6 -0.5,1.1 -2.9,6.2 -2.9,6.8 0,0.6 1.8,0 2.7,-0.2 0,0 -2.4,11.7 7.5,16.5 8.9,4.3 10.3,3.4 12.4,5.2 1.5,1.1 1.7,2.3 3.5,2.3 z m -2.2,-54.9 c -0.2,-0.4 -0.3,-0.8 -0.3,-1.2 0,-1.4 1.1,-2.6 2.5,-2.7 1.4,0 2.6,1.1 2.7,2.5 0,0.5 -0.1,0.9 -0.3,1.3 -0.4,-0.7 -1,-1.1 -2.3,-1 -1.3,-0.1 -2,0.4 -2.3,1.1 z"
         class="st0"
         inkscape:connector-curvature="0"
         style="fill:#006699" />
      <rect
         id="rect4456"
         height="9.5"
         width="2.9000001"
         class="st0"
         transform="matrix(0.1555,-0.9878,0.9878,0.1555,14.1703,446.6799)"
         y="210.3"
         x="266.89999"
         style="fill:#006699" />
      <rect
         id="rect4458"
         height="9.5"
         width="2.9000001"
         class="st0"
         transform="matrix(0.1554,-0.9878,0.9878,0.1554,22.6945,460.5313)"
         y="212.3"
         x="279.20001"
         style="fill:#006699" />
      <rect
         id="rect4460"
         height="9.5"
         width="2.9000001"
         class="st0"
         transform="matrix(0.1554,-0.9878,0.9878,0.1554,30.7289,473.6013)"
         y="214.10001"
         x="290.89999"
         style="fill:#006699" />
      <rect
         id="rect4462"
         height="2.9000001"
         width="9.5"
         class="st0"
         y="218.39999"
         x="299.5"
         style="fill:#006699" />
      <rect
         id="rect4464"
         height="2.9000001"
         width="9.5"
         class="st0"
         transform="matrix(0.9172,-0.3983,0.3983,0.9172,-60.5492,143.6769)"
         y="216.10001"
         x="310.79999"
         style="fill:#006699" />
      <rect
         id="rect4466"
         height="2.9000001"
         width="9.5"
         class="st0"
         transform="matrix(0.257,-0.9664,0.9664,0.257,37.8318,467.3488)"
         y="207.60001"
         x="318.10001"
         style="fill:#006699" />
      <rect
         id="rect4468"
         height="2.9000001"
         width="9.5"
         class="st0"
         transform="matrix(0.1505,-0.9886,0.9886,0.1505,81.7105,489.642)"
         y="195.8"
         x="321"
         style="fill:#006699" />
      <rect
         id="rect4470"
         height="9.5"
         width="2.9000001"
         class="st0"
         transform="matrix(0.353,-0.9356,0.9356,0.353,2.4843,342.9439)"
         y="164.89999"
         x="247.7"
         style="fill:#006699" />
      <rect
         id="rect4472"
         height="9.5"
         width="2.9000001"
         class="st0"
         transform="matrix(0.2879,-0.9577,0.9577,0.2879,19.1046,372.6165)"
         y="168.7"
         x="258.60001"
         style="fill:#006699" />
      <rect
         id="rect4474"
         height="9.5"
         width="2.9000001"
         class="st0"
         transform="matrix(0.2374,-0.9714,0.9714,0.2374,35.3394,398.2172)"
         y="171.89999"
         x="269.79999"
         style="fill:#006699" />
      <rect
         id="rect4476"
         height="9.5"
         width="2.9000001"
         class="st0"
         transform="matrix(0.5,-0.866,0.866,0.5,-23.6345,277.4614)"
         y="154.5"
         x="227"
         style="fill:#006699" />
      <rect
         id="rect4478"
         height="9.5"
         width="2.9000001"
         class="st0"
         transform="matrix(0.4999,-0.8661,0.8661,0.4999,-23.3575,289.1649)"
         y="160.10001"
         x="237.2"
         style="fill:#006699" />
      <rect
         id="rect4480"
         height="9.5"
         width="2.9000001"
         class="st0"
         transform="matrix(0.2246,-0.9745,0.9745,0.2246,44.4762,414.7293)"
         y="174.7"
         x="281.39999"
         style="fill:#006699" />
      <rect
         id="rect4482"
         height="9.5"
         width="2.9000001"
         class="st0"
         transform="matrix(0.1862,-0.9825,0.9825,0.1862,61.0802,437.553)"
         y="177.2"
         x="293.20001"
         style="fill:#006699" />
      <rect
         id="rect4484"
         height="9.5"
         width="2.9000001"
         class="st0"
         transform="matrix(0.1163,-0.9932,0.9932,0.1163,88.1351,466.3811)"
         y="178.89999"
         x="304.70001"
         style="fill:#006699" />
      <rect
         id="rect4486"
         height="2.9000001"
         width="9.5"
         class="st0"
         y="182.7"
         x="313.10001"
         style="fill:#006699" />
      <rect
         id="rect4488"
         height="2.9000001"
         width="9.5"
         class="st0"
         y="143.2"
         x="228.5"
         style="fill:#006699" />
      <rect
         id="rect4490"
         height="2.9000001"
         width="9.5"
         class="st0"
         transform="matrix(0.9916,-0.1295,0.1295,0.9916,-16.553,32.9811)"
         y="142.3"
         x="240.7"
         style="fill:#006699" />
      <rect
         id="rect4492"
         height="2.9000001"
         width="9.5"
         class="st0"
         transform="matrix(0.9835,-0.181,0.181,0.9835,-21.412,48.7897)"
         y="140.3"
         x="251.89999"
         style="fill:#006699" />
      <rect
         id="rect4494"
         height="2.9000001"
         width="9.5"
         class="st0"
         transform="matrix(0.9835,-0.181,0.181,0.9835,-20.8408,50.8294)"
         y="138.2"
         x="263.39999"
         style="fill:#006699" />
      <rect
         id="rect4496"
         height="2.9000001"
         width="9.5"
         class="st0"
         transform="matrix(0.9916,-0.1294,0.1294,0.9916,-15.4823,37.4106)"
         y="136.3"
         x="275.29999"
         style="fill:#006699" />
      <rect
         id="rect4498"
         height="2.9000001"
         width="9.5"
         class="st0"
         transform="matrix(0.9991,-0.04221909,0.04221909,0.9991,-5.5216,12.436)"
         y="135.5"
         x="286.89999"
         style="fill:#006699" />
      <rect
         id="rect4500"
         height="9.5"
         width="2.9000001"
         class="st0"
         transform="matrix(0.1136,-0.9935,0.9935,0.1136,132.4059,422.5695)"
         y="132.39999"
         x="301.60001"
         style="fill:#006699" />
      <rect
         id="rect4502"
         height="9.5"
         width="2.9000001"
         class="st0"
         transform="matrix(0.385,-0.9229,0.9229,0.385,63.9108,376.044)"
         y="135.3"
         x="312.70001"
         style="fill:#006699" />
      <rect
         id="rect4504"
         height="9.5"
         width="2.9000001"
         class="st0"
         y="48.599998"
         x="308.20001"
         style="fill:#006699" />
      <rect
         id="rect4506"
         height="9.5"
         width="2.9000001"
         class="st0"
         transform="matrix(0.9926,-0.1216,0.1216,0.9926,-5.5929,38.2563)"
         y="60.200001"
         x="309.20001"
         style="fill:#006699" />
      <rect
         id="rect4508"
         height="9.5"
         width="2.9000001"
         class="st0"
         transform="matrix(0.9455,-0.3255,0.3255,0.9455,-7.6868,106.129)"
         y="71.300003"
         x="311.79999"
         style="fill:#006699" />
      <rect
         id="rect4510"
         height="9.5"
         width="2.9000001"
         class="st0"
         transform="matrix(0.9455,-0.3256,0.3256,0.9455,-11.0153,107.9365)"
         y="82.199997"
         x="315.60001"
         style="fill:#006699" />
      <rect
         id="rect4512"
         height="9.5"
         width="2.9000001"
         class="st0"
         transform="matrix(0.9147,-0.404,0.404,0.9147,-12.4034,138.5271)"
         y="93.900002"
         x="320.60001"
         style="fill:#006699" />
      <rect
         id="rect4514"
         height="9.5"
         width="2.9000001"
         class="st0"
         transform="matrix(0.866,-0.5,0.5,0.866,-10.877,178.5888)"
         y="104.9"
         x="326.29999"
         style="fill:#006699" />
      <rect
         id="rect4516"
         height="9.5"
         width="2.9000001"
         class="st0"
         transform="matrix(0.8282,-0.5605,0.5605,0.8282,-9.9278,208.3523)"
         y="115.6"
         x="333.39999"
         style="fill:#006699" />
      <rect
         id="rect4518"
         height="9.5"
         width="2.9000001"
         class="st0"
         transform="matrix(0.656,-0.7548,0.7548,0.656,76.7797,262.5254)"
         y="42.299999"
         x="324.89999"
         style="fill:#006699" />
      <rect
         id="rect4520"
         height="9.5"
         width="2.9000001"
         class="st0"
         transform="matrix(0.656,-0.7548,0.7548,0.656,73.6959,272.8869)"
         y="50.900002"
         x="334.79999"
         style="fill:#006699" />
      <rect
         id="rect4522"
         height="9.5"
         width="2.9000001"
         class="st0"
         transform="matrix(0.656,-0.7548,0.7548,0.656,70.7173,283.006)"
         y="59.200001"
         x="344.29999"
         style="fill:#006699" />
      <rect
         id="rect4524"
         height="9.5"
         width="2.9000001"
         class="st0"
         transform="matrix(0.7071,-0.7071,0.7071,0.7071,52.563,272.2262)"
         y="67.900002"
         x="353.39999"
         style="fill:#006699" />
      <rect
         id="rect4526"
         height="9.5"
         width="2.9000001"
         class="st0"
         transform="matrix(0.7375,-0.6753,0.6753,0.7375,40.3428,266.6801)"
         y="76.699997"
         x="361.79999"
         style="fill:#006699" />
      <rect
         id="rect4528"
         height="9.5"
         width="2.9000001"
         class="st0"
         transform="matrix(0.7787,-0.6274,0.6274,0.7787,25.6132,252.8201)"
         y="85.400002"
         x="369.70001"
         style="fill:#006699" />
      <rect
         id="rect4530"
         height="9.5"
         width="2.9000001"
         class="st0"
         transform="matrix(0.8905,-0.4549,0.4549,0.8905,-4.3155,182.7541)"
         y="95.599998"
         x="376.20001"
         style="fill:#006699" />
      <rect
         id="rect4532"
         height="9.5"
         width="2.9000001"
         class="st0"
         transform="matrix(0.9504,-0.3112,0.3112,0.9504,-15.7701,124.3465)"
         y="106.9"
         x="380.29999"
         style="fill:#006699" />
      <rect
         id="rect4534"
         height="9.5"
         width="2.9000001"
         class="st0"
         transform="matrix(0.9829,-0.1843,0.1843,0.9829,-16.0543,72.9946)"
         y="118.1"
         x="383.10001"
         style="fill:#006699" />
      <rect
         id="rect4536"
         height="9.5"
         width="2.9000001"
         class="st0"
         transform="matrix(0.9829,-0.1843,0.1843,0.9829,-18.0311,73.5581)"
         y="129"
         x="385.10001"
         style="fill:#006699" />
      <rect
         id="rect4538"
         height="9.5"
         width="2.9000001"
         class="st0"
         transform="matrix(0.2161,-0.9764,0.9764,0.2161,172.3303,495.5106)"
         y="135.7"
         x="393.29999"
         style="fill:#006699" />
      <rect
         id="rect4540"
         height="9.5"
         width="2.9000001"
         class="st0"
         transform="matrix(0.3284,-0.9445,0.9445,0.3284,136.5848,480.5671)"
         y="139.5"
         x="404.79999"
         style="fill:#006699" />
      <rect
         id="rect4542"
         height="9.5"
         width="2.9000001"
         class="st0"
         transform="matrix(0.5314,-0.8471,0.8471,0.5314,68.5771,423.0712)"
         y="144.8"
         x="415.20001"
         style="fill:#006699" />
      <path
         id="path4544"
         d="m 452.9,197 c -4.2,0 -7.6,3.4 -7.6,7.6 0,4.2 3.4,7.6 7.6,7.6 4.2,0 7.6,-3.4 7.6,-7.6 0,-4.2 -3.4,-7.6 -7.6,-7.6 z m -2.4,11 c -0.4,-0.3 -0.7,-0.6 -1,-1 0.6,-0.8 1.5,-1.4 2.5,-1.7 0.1,0.1 0.1,0.1 0.2,0.2 -0.2,1 -0.8,1.9 -1.7,2.5 z m 1.5,-4.1 c -1,-0.2 -1.9,-0.8 -2.5,-1.7 0.3,-0.4 0.6,-0.7 1,-1 0.8,0.6 1.4,1.5 1.7,2.5 -0.1,0.1 -0.2,0.1 -0.2,0.2 z m 3.2,4.1 c -0.8,-0.6 -1.4,-1.5 -1.7,-2.5 0.1,-0.1 0.1,-0.1 0.2,-0.2 1,0.2 1.9,0.8 2.5,1.7 -0.2,0.4 -0.6,0.7 -1,1 z m -1.4,-4.1 c -0.1,-0.1 -0.1,-0.1 -0.2,-0.2 0.2,-1 0.8,-1.9 1.7,-2.5 0.4,0.3 0.7,0.6 1,1 -0.6,0.9 -1.5,1.5 -2.5,1.7 z"
         class="st0"
         inkscape:connector-curvature="0"
         style="fill:#006699" />
      <path
         id="path4546"
         d="m 348,138.7 c 1.5,-2.6 0.5,-6 -2.1,-7.5 -0.9,-0.5 -1.9,-0.7 -2.9,-0.7 l -2.7,-4.7 -2.5,1.5 2.4,4.2 c -0.7,0.5 -1.3,1.1 -1.7,1.8 -1,1.8 -0.9,3.9 0.1,5.5 l -4.9,3.9 c -0.1,-0.1 -0.2,-0.1 -0.3,-0.2 -2.6,-1.4 -5.7,-0.6 -7.3,1.9 l -5,-2.4 -1.3,2.6 5.4,2.6 c 0,1.9 1,3.8 2.8,4.9 2.6,1.5 6,0.5 7.5,-2.1 0.9,-1.6 0.9,-3.5 0.1,-5.1 l 5.1,-4 c 2.7,1.3 5.9,0.4 7.3,-2.2 z"
         class="st0"
         inkscape:connector-curvature="0"
         style="fill:#006699" />
      <rect
         id="rect4548"
         height="9.5"
         width="2.9000001"
         class="st0"
         transform="matrix(0.7997,-0.6003,0.6003,0.7997,-16.2307,297.5682)"
         y="168.39999"
         x="436.5"
         style="fill:#006699" />
      <rect
         id="rect4550"
         height="9.5"
         width="2.9000001"
         class="st0"
         transform="rotate(-36.898546,444.79805,182.21744)"
         y="177.5"
         x="443.29999"
         style="fill:#006699" />
      <rect
         id="rect4552"
         height="9.5"
         width="2.9000001"
         class="st0"
         transform="rotate(-36.898546,451.66926,191.13267)"
         y="186.39999"
         x="450.20001"
         style="fill:#006699" />
      <path
         id="path4554"
         d="m 272.3,409 c -0.7,-0.8 -1.2,-1.2 -1.2,-1.2 0.5,-0.2 0.9,-0.5 1.3,-0.8 l -4,1.1 z"
         class="st0"
         inkscape:connector-curvature="0"
         style="fill:#006699" />
      <path
         id="path4556"
         d="m 308.4,414.9 c 0,0 -6.3,-11.3 -31.6,-14.3 0,0 -0.7,3.9 -4.4,6.5 v 0 c 0,0 24.6,-0.5 35.6,7.8 z"
         class="st0"
         inkscape:connector-curvature="0"
         style="fill:#006699" />
      <path
         id="path4558"
         d="m 303.8,414.9 h 2.6 c 0,0 -11.9,-6.5 -34.1,-5.9 1.2,1.4 2.8,4 2.8,7.8 z"
         class="st0"
         inkscape:connector-curvature="0"
         style="fill:#006699" />
      <path
         id="path4560"
         d="m 417.3,159.7 c -1.7,0 -3.5,0.3 -5.1,0.9 -1.3,-1.6 -2.3,-2.8 -2.5,-2.8 -0.6,-0.3 -3.3,2.1 -3.3,2.1 0,0 0.7,1.4 1.7,3.4 -1.2,1.2 -2.2,2.6 -2.9,4.1 -1.9,-0.2 -3.3,-0.4 -3.5,-0.4 -0.6,0.1 -1.3,2.6 -0.9,3.8 0.1,0.2 1.4,0.7 3.3,1.4 -0.1,1.7 0.2,3.5 0.9,5.2 -1.5,1.2 -2.7,2.1 -2.8,2.2 -0.4,0.4 0.9,2.8 2.1,3.3 0.2,0.1 1.5,-0.5 3.4,-1.4 1.2,1.3 2.7,2.3 4.2,2.9 -0.3,2 -0.4,3.5 -0.4,3.6 0.1,0.6 2.6,1.3 3.8,0.9 0.2,-0.1 0.7,-1.5 1.4,-3.5 1.7,0 3.3,-0.3 5,-0.9 1.3,1.6 2.2,2.8 2.4,3 0.4,0.4 2.8,-0.9 3.3,-2.1 0.1,-0.2 -0.6,-1.6 -1.5,-3.6 1.3,-1.2 2.3,-2.7 3,-4.3 2.2,0.2 3.9,0.3 4.1,0.3 0.6,-0.2 0.9,-3.8 0.9,-3.8 0,0 -1.7,-0.5 -3.9,-1.3 0,-1.7 -0.3,-3.3 -0.9,-4.9 1.7,-1.4 2.9,-2.5 3,-2.7 0.3,-0.6 -2.1,-3.3 -2.1,-3.3 0,0 -1.5,0.8 -3.6,1.8 -1.2,-1.3 -2.6,-2.2 -4.2,-2.9 0.2,-2.1 0.3,-3.7 0.2,-3.9 -0.2,-0.6 -3.8,-0.9 -3.8,-0.9 0,0 -0.6,1.7 -1.3,3.8 z m 5.4,9.3 c 2,3.2 1,7.4 -2.2,9.4 -3.2,2 -7.4,1 -9.4,-2.2 -2,-3.2 -1,-7.4 2.2,-9.4 3.2,-1.9 7.4,-1 9.4,2.2 z"
         class="st0"
         inkscape:connector-curvature="0"
         style="fill:#006699" />
      <circle
         id="ellipse4562"
         cy="171.3"
         cx="415.60001"
         class="st0"
         transform="matrix(0.8771,-0.4803,0.4803,0.8771,-31.2008,220.6181)"
         r="3.3"
         style="fill:#006699" />
      <path
         id="path4564"
         d="m 436,220.4 c -3,0 -5.5,2.5 -5.5,5.5 0,0 0,0.1 0,0.1 l -29.6,15.1 16.1,31.6 4,-2 c -7.4,-14.6 -2.2,-32.2 11.6,-40.5 0.9,0.8 2.1,1.2 3.4,1.2 3,0 5.5,-2.5 5.5,-5.5 0,-3 -2.5,-5.5 -5.5,-5.5 z"
         class="st0"
         inkscape:connector-curvature="0"
         style="fill:#006699" />
      <path
         id="path4566"
         d="m 445.3,212.1 c -1.4,0 -2.7,0.6 -3.7,1.4 l -44.3,-27.6 c 0.1,-0.5 0.2,-1 0.2,-1.6 0,-3 -2.5,-5.5 -5.5,-5.5 -3,0 -5.5,2.5 -5.5,5.5 0,2.5 1.7,4.6 4,5.3 v 18.7 c -0.6,0.3 -1.1,0.9 -1.1,1.8 0,1 0.6,2 1.4,2.7 -0.9,0.9 -1.9,2.4 -2,4.6 -2.9,-1.6 -6.7,-1.9 -9,-0.7 -2.5,1.3 -3.7,3.6 -3.7,7.3 0,3.7 1.2,6 3.7,7.3 2.8,1.5 7.9,0.7 10.8,-1.9 0,0.5 0.3,0.9 0.6,1.1 h -0.5 c -0.4,0 -0.7,0.4 -0.7,0.9 v 0.2 c 0,0.3 0.1,0.6 0.3,0.8 -1,0.8 -1.3,1.6 -1.3,1.6 0,0 0.6,1 1.4,1.5 -0.2,0.1 -0.3,0.3 -0.3,0.5 v 0.1 c 0,0.3 0.3,0.5 0.7,0.5 v 0.5 c 0,0 0.5,0.4 0.5,1.3 0,0.9 -0.4,1.5 -0.5,1.7 -0.2,0.1 -0.5,0.3 -0.5,0.8 0,0.2 0.1,0.4 0.2,0.5 -0.4,0 -0.6,0.3 -0.6,0.5 v 0.1 c 0,0.2 0.1,0.3 0.3,0.4 -0.4,0.1 -0.8,0.5 -0.8,0.9 v 0.2 c 0,0.5 0.4,0.9 0.9,0.9 h 0.4 v 22.2 c -0.2,0.1 -0.3,0.2 -0.3,0.3 v 0.1 c 0,0.1 0.1,0.2 0.1,0.3 -0.3,0.1 -0.5,0.3 -0.5,0.7 v 0.1 c 0,0.4 0.3,0.7 0.7,0.7 h 0.1 c 0,0.1 0,0.1 0,0.2 0,0.5 0.5,1 1.2,1 0.7,0 1.2,-0.4 1.2,-1 0,-0.1 0,-0.1 0,-0.2 h 0.1 c 0.4,0 0.7,-0.3 0.7,-0.7 V 268 c 0,-0.3 -0.2,-0.6 -0.5,-0.7 0.1,-0.1 0.1,-0.2 0.1,-0.3 v -0.1 c 0,-0.1 -0.1,-0.3 -0.3,-0.3 V 266 c 1.8,0 4.5,0 5,0 0.8,0 0.8,-0.5 0.8,-0.9 0,-0.4 0,-0.9 0,-0.9 h -1.9 v -2 h 2.7 c 0,0 0,-0.5 0,-1.2 0,-0.7 0,-1.1 -1.1,-1.1 -0.8,0 -4.1,0 -5.6,0 v -15.4 h 0.4 c 0.5,0 0.9,-0.4 0.9,-0.9 v -0.2 c 0,-0.5 -0.3,-0.8 -0.8,-0.9 0.2,-0.1 0.3,-0.3 0.3,-0.4 V 242 c 0,-0.3 -0.3,-0.5 -0.6,-0.5 0.1,-0.2 0.2,-0.3 0.2,-0.5 0,-0.5 -0.3,-0.6 -0.5,-0.8 -0.2,-0.1 -0.5,-0.7 -0.5,-1.7 0,-1 0.5,-1.3 0.5,-1.3 v -0.5 c 0.4,0 0.7,-0.3 0.7,-0.5 V 236 c 0,-0.2 -0.1,-0.4 -0.3,-0.5 0.8,-0.5 1.4,-1.5 1.4,-1.5 0,0 -0.3,-0.9 -1.3,-1.6 0.2,-0.2 0.3,-0.5 0.3,-0.8 v -0.2 c 0,-0.5 -0.3,-0.9 -0.7,-0.9 h -0.5 c 0.3,-0.2 0.6,-0.6 0.6,-1.1 2.9,2.7 8,3.4 10.8,1.9 2.5,-1.3 3.7,-3.6 3.7,-7.3 0,-3.7 -1.2,-6 -3.7,-7.3 -2.3,-1.2 -6.1,-0.9 -9,0.7 -0.1,-2.2 -1.1,-3.7 -2,-4.6 0.8,-0.9 1.4,-1.8 1.4,-2.7 0,-0.9 -0.4,-1.5 -1.1,-1.8 v -18.7 c 0.9,-0.2 1.6,-0.7 2.3,-1.2 L 440,216 c -0.1,0.5 -0.2,1 -0.2,1.6 0,3 2.5,5.5 5.5,5.5 3,0 5.5,-2.5 5.5,-5.5 0,-3.1 -2.5,-5.5 -5.5,-5.5 z m -61.4,5.6 c 1.1,-0.2 2.7,0.1 4.2,0.8 -0.7,1 -1.8,2.4 -2.8,4 -1,-1.9 -2.2,-3.6 -2.8,-4.4 0.4,-0.1 0.9,-0.3 1.4,-0.4 z m -4.2,8.8 c -0.2,-2.2 2.4,-1.1 2.4,-2.4 0,-1.2 -2.6,-0.2 -2.4,-2.4 0.1,-1.4 0.9,-2.5 2.1,-3.2 0.8,1.2 2,3 3,4.9 -1.5,2.5 -2.7,5.2 -2.1,6.8 -1.7,-0.7 -2.8,-2 -3,-3.7 z m 7,3.3 c -0.1,0.2 -0.2,0.4 -0.4,0.5 -0.6,0.1 -1.3,0.2 -1.8,0.2 -0.6,-0.1 -0.8,-0.5 -0.9,-0.6 -0.5,-1.1 0.4,-3.3 1.7,-5.7 1.1,2.3 1.9,4.5 1.4,5.6 z m 3.5,-6.4 c 0.1,0 0.3,-0.1 0.6,-0.2 -0.2,0.3 -0.3,0.6 -0.3,0.9 0,0.3 0.1,0.6 0.3,0.9 -0.2,-0.1 -0.4,-0.2 -0.6,-0.2 -0.8,0 -1.4,0.7 -1.3,1.4 0.1,0.7 1.2,0.8 2.1,0.5 0.1,1.2 -1.6,2.5 -3.5,3.2 0.4,-1.3 -0.2,-3.5 -1.7,-6.5 1,-1.6 2.1,-3.2 3.1,-4.5 1.3,0.7 2.2,1.6 2.1,2.6 -0.9,-0.3 -2,-0.2 -2.1,0.5 -0.1,0.7 0.6,1.4 1.3,1.4 z m 2.1,4.6 c -0.1,0 -0.2,0 -0.3,0 -0.1,0 -0.2,0 -0.3,0 0.5,-1 0.2,-1.9 -0.3,-2.4 0.2,0.1 0.3,0.1 0.5,0.1 0.2,0 0.4,0 0.5,-0.1 -0.3,0.5 -0.6,1.3 -0.1,2.4 z m 8.3,1.9 c -0.1,0.1 -0.2,0.5 -0.9,0.6 -0.5,0 -1.2,-0.1 -1.8,-0.2 -0.2,-0.1 -0.3,-0.3 -0.4,-0.5 -0.5,-1.1 0.2,-3.3 1.4,-5.6 1.3,2.4 2.2,4.7 1.7,5.7 z m 3.9,-8.2 c 0.2,2.2 -2.4,1.1 -2.4,2.4 0,1.2 2.6,0.2 2.4,2.4 -0.2,1.8 -1.3,3.1 -3.1,3.7 0.6,-1.5 -0.6,-4.2 -2.1,-6.8 1,-1.9 2.2,-3.7 3,-4.9 1.3,0.7 2,1.8 2.2,3.2 z m -4.3,-4 c 0.5,0.1 1,0.2 1.4,0.4 -0.6,0.8 -1.7,2.5 -2.8,4.4 -1,-1.6 -2.1,-3.1 -2.8,-4 1.5,-0.6 3.1,-0.9 4.2,-0.8 z m -4.9,1.2 c 1,1.3 2.1,2.9 3.1,4.5 -1.6,3 -2.2,5.2 -1.7,6.5 -1.9,-0.7 -3.6,-1.9 -3.5,-3.2 0.9,0.3 2,0.2 2.1,-0.5 0.1,-0.7 -0.5,-1.4 -1.3,-1.4 -0.1,0 -0.3,0.1 -0.6,0.2 0.2,-0.3 0.3,-0.6 0.3,-0.9 0,-0.3 -0.1,-0.6 -0.3,-0.9 0.2,0.1 0.4,0.2 0.6,0.2 0.8,0 1.4,-0.7 1.3,-1.4 -0.1,-0.7 -1.2,-0.8 -2.1,-0.5 -0.2,-1 0.8,-1.9 2.1,-2.6 z m -1.1,-1.1 c 0,0.1 0,0.2 0,0.3 -0.3,0.2 -0.6,0.5 -0.8,0.7 -1.7,1.7 -1.4,3 -0.7,3.8 -0.2,-0.1 -0.3,-0.1 -0.5,-0.1 -0.2,0 -0.4,0 -0.5,0.1 0.7,-0.8 1,-2.1 -0.7,-3.8 -0.3,-0.3 -0.5,-0.5 -0.8,-0.7 0,-0.1 0,-0.2 0,-0.3 0,-2.8 2.1,-4.4 2.1,-4.4 0,0 1.9,1.6 1.9,4.4 z m -2,-5.5 c -0.9,0 -1.6,-1.1 -1.6,-1.9 0,-0.8 1,-1.1 1.6,-1.1 0.6,0 1.5,0.3 1.5,1.1 0,0.8 -0.6,1.9 -1.5,1.9 z"
         class="st0"
         inkscape:connector-curvature="0"
         style="fill:#006699" />
      <path
         id="path4568"
         d="m 136.9,310.3 -1.6,-0.5 c -0.3,1 -0.5,2.1 -0.5,3.2 h 1.7 c 0,0.9 0.1,1.9 0.4,2.7 l -1.6,0.5 c 0.3,1 0.7,2 1.3,3 l 1.4,-0.9 c 0.5,0.8 1.1,1.5 1.8,2.1 l -1.1,1.3 c 0.8,0.7 1.7,1.3 2.7,1.8 l 0.7,-1.5 c 0,0 0,0 0,0 0.9,0.4 1.7,0.7 2.6,0.8 l -0.3,1.7 c 1.1,0.2 2.2,0.2 3.2,0 l -0.2,-1.7 c 0.9,-0.1 1.8,-0.4 2.7,-0.7 l 0.7,1.5 c 1,-0.4 1.9,-1 2.8,-1.7 l -1.1,-1.3 c 0.7,-0.6 1.3,-1.3 1.8,-2.1 l 1.4,0.9 c 0.3,-0.5 0.6,-0.9 0.8,-1.4 0.2,-0.5 0.4,-1 0.6,-1.5 l -1.6,-0.5 c 0.3,-0.9 0.4,-1.8 0.4,-2.7 h 1.7 c 0,-1.1 -0.1,-2.2 -0.4,-3.2 l -1.6,0.4 c -0.2,-0.9 -0.6,-1.7 -1.1,-2.5 l 1.4,-0.9 c -0.6,-0.9 -1.3,-1.8 -2.1,-2.5 l -1.1,1.3 c -0.7,-0.6 -1.4,-1.1 -2.3,-1.5 l 0.7,-1.5 v 0 c -1,-0.5 -2,-0.8 -3.1,-1 l -0.3,1.7 c -0.9,-0.1 -1.9,-0.2 -2.8,0 l -0.2,-1.7 c -1.1,0.1 -2.1,0.4 -3.1,0.9 l 0.7,1.5 c -0.8,0.4 -1.6,0.9 -2.4,1.5 l -1.1,-1.3 c -0.8,0.7 -1.6,1.5 -2.2,2.4 l 1.4,0.9 c -0.3,0.4 -0.5,0.8 -0.7,1.2 -0.1,0.5 -0.3,0.9 -0.4,1.3 z m 15.1,-0.4 c 0.4,0.7 0.7,1.4 0.8,2.2 -1.4,0.8 -3.1,1.1 -4.8,0.7 0,-0.1 -0.1,-0.3 -0.2,-0.4 1.1,-1.4 2.6,-2.3 4.2,-2.5 z m -4.9,5 c 1.3,1 2.2,2.5 2.5,4.2 -0.7,0.4 -1.4,0.7 -2.2,0.8 -0.8,-1.4 -1.1,-3.1 -0.7,-4.8 0.1,-0.1 0.2,-0.2 0.4,-0.2 z m -2,-8.3 c 0.8,1.4 1.1,3.1 0.7,4.8 -0.1,0 -0.3,0.1 -0.4,0.2 -1.3,-1 -2.2,-2.5 -2.5,-4.2 0.7,-0.4 1.4,-0.7 2.2,-0.8 z m -0.7,7 c 0,0.1 0.1,0.3 0.2,0.4 -1,1.3 -2.5,2.2 -4.2,2.5 -0.4,-0.7 -0.7,-1.4 -0.8,-2.2 1.4,-0.8 3.1,-1.1 4.8,-0.7 z"
         class="st0"
         inkscape:connector-curvature="0"
         style="fill:#006699" />
      <path
         id="path4570"
         d="m 227.8,309.3 c 0.6,-0.3 0.4,-4.2 0.4,-4.2 0,0 -1.7,-0.3 -4.1,-0.7 -0.2,-1.8 -0.8,-3.6 -1.7,-5.3 1.5,-1.6 2.6,-2.9 2.6,-3.1 0.2,-0.7 -2.7,-3.2 -2.7,-3.2 0,0 -1.4,1 -3.3,2.3 -1.4,-1.1 -3,-1.9 -4.7,-2.4 0,-2.1 -0.1,-3.6 -0.1,-3.8 -0.1,-0.6 -3,-1 -4.2,-0.4 -0.2,0.1 -0.5,1.6 -1,3.7 -1.8,0.2 -3.6,0.8 -5.3,1.7 -1.5,-1.5 -2.6,-2.5 -2.8,-2.6 -0.5,-0.3 -2.8,1.4 -3.2,2.7 -0.1,0.2 0.8,1.5 2,3.3 -1.2,1.5 -2,3.2 -2.5,4.9 -2.1,0 -3.7,0.1 -3.9,0.1 -0.6,0.1 -1,3 -0.4,4.2 0.1,0.2 1.7,0.6 3.9,1 0.2,1.8 0.8,3.5 1.7,5.1 -1.5,1.6 -2.7,2.8 -2.8,2.9 -0.3,0.5 1.4,2.8 2.7,3.2 0.2,0.1 1.6,-0.8 3.5,-2.1 1.5,1.2 3.2,2 5,2.5 0.1,2.4 0.2,4.1 0.3,4.3 0.3,0.6 4.2,0.4 4.2,0.4 0,0 0.3,-1.8 0.8,-4.3 1.7,-0.2 3.5,-0.8 5,-1.7 1.7,1.6 3.1,2.7 3.3,2.8 0.7,0.2 3.2,-2.7 3.2,-2.7 0,0 -1,-1.5 -2.5,-3.5 1.2,-1.5 2,-3.1 2.4,-4.8 2.3,0 4,-0.2 4.2,-0.3 z m -10.5,5 c -4.6,3.8 -11.4,3.2 -15.2,-1.3 -3.8,-4.6 -3.2,-11.4 1.3,-15.2 4.6,-3.8 11.4,-3.2 15.2,1.3 3.9,4.5 3.3,11.4 -1.3,15.2 z"
         class="st0"
         inkscape:connector-curvature="0"
         style="fill:#006699" />
      <circle
         id="ellipse4572"
         cy="306"
         cx="210.3"
         class="st0"
         transform="matrix(0.766,-0.6428,0.6428,0.766,-147.4955,206.8194)"
         r="7.6999998"
         style="fill:#006699" />
      <circle
         id="circle4574"
         r="5.5"
         cy="184.39999"
         cx="330.70001"
         class="st0"
         style="fill:#006699" />
      <path
         id="path4576"
         d="m 365.5,198.4 c 3.4,4 9.3,4.5 13.3,1.1 4,-3.4 4.5,-9.3 1.1,-13.3 -3.4,-4 -9.3,-4.5 -13.3,-1.1 -0.7,0.6 -1.2,1.2 -1.7,1.9 l -6,-0.5 c -0.4,-0.8 -0.8,-1.5 -1.4,-2.2 -3.8,-4.4 -10.4,-5 -14.8,-1.2 -4.4,3.8 -5,10.4 -1.2,14.8 2.7,3.2 7,4.4 10.8,3.3 v 20.3 c 0,0.9 0.7,1.6 1.6,1.6 h 2.6 c 0.9,0 1.6,-0.7 1.6,-1.6 v -24.3 c 1.6,-2.2 2.3,-5 1.9,-7.6 l 3.7,0.3 c -0.9,2.8 -0.2,6 1.8,8.5 z m 5,0 c 0.1,0 0.2,0.1 0.3,0.1 -0.1,-0.1 -0.2,-0.1 -0.3,-0.1 z m 0.6,0.1 c -0.1,-1.6 0.3,-3.2 1.3,-4.5 0.1,0 0.3,0 0.4,0 0.8,1.5 0.9,3.1 0.5,4.7 -0.7,0.1 -1.5,0 -2.2,-0.2 z m 7.6,-3.7 c 0.1,-0.3 0.2,-0.6 0.3,-0.9 -0.1,0.3 -0.2,0.6 -0.3,0.9 z m 0.5,-3.2 c 0.1,0.8 0,1.5 -0.2,2.3 -1.6,0.1 -3.2,-0.3 -4.5,-1.3 0,-0.1 0,-0.3 0,-0.4 1.5,-0.8 3.2,-1 4.7,-0.6 z m -4.5,-5.5 c 0.1,0 0.2,0.1 0.3,0.1 -0.1,-0.1 -0.2,-0.1 -0.3,-0.1 z m -0.3,-0.1 c 0.1,1.6 -0.3,3.2 -1.3,4.5 -0.1,0 -0.3,0 -0.4,0 -0.8,-1.5 -0.9,-3.1 -0.5,-4.7 0.7,-0.1 1.4,0 2.2,0.2 z m -5.5,1 c -0.1,0.1 -0.2,0.1 -0.3,0.2 v 0 c 0.1,-0.1 0.2,-0.1 0.3,-0.2 z m -2.3,3.1 v 0 c -0.1,0.2 -0.1,0.3 -0.2,0.5 0.1,-0.2 0.1,-0.4 0.2,-0.5 z m -0.2,0.5 c 1.6,-0.1 3.2,0.3 4.5,1.3 0,0.1 0,0.3 0,0.4 -1.5,0.8 -3.1,0.9 -4.7,0.5 0,-0.7 0,-1.5 0.2,-2.2 z m -10.4,3.8 c 0.1,-0.2 0.2,-0.5 0.3,-0.7 -0.1,0.2 -0.2,0.5 -0.3,0.7 z m 0.3,-0.9 c 0.1,-0.2 0.1,-0.3 0.2,-0.5 0,0.2 -0.1,0.3 -0.2,0.5 z m 0.2,-0.6 c -1.8,0.2 -3.6,-0.3 -5,-1.4 0,-0.2 0,-0.3 0,-0.5 1.6,-0.9 3.5,-1 5.2,-0.6 0.1,0.8 0,1.7 -0.2,2.5 z m 0.2,-2.6 c 0,-0.3 -0.1,-0.6 -0.2,-1 0.1,0.3 0.2,0.7 0.2,1 z m -0.2,-1 c 0.1,0 0.1,0 0,0 0.1,0 0,0 0,0 z m -1.7,-3.2 v 0 c 0,0 -0.1,-0.1 -0.1,-0.1 0,0 0.1,0.1 0.1,0.1 z m -3.4,-2 c 0.2,1.8 -0.3,3.6 -1.4,5 -0.2,0 -0.3,0 -0.5,0 -0.9,-1.6 -1,-3.5 -0.6,-5.2 0.8,-0.1 1.6,-0.1 2.5,0.2 z m -8.5,4.1 c -0.1,0.3 -0.2,0.6 -0.3,0.9 0,-0.3 0.1,-0.6 0.3,-0.9 z m -0.4,1 c 1.8,-0.2 3.6,0.3 5,1.4 0,0.2 0,0.3 0,0.5 -1.6,0.9 -3.5,1 -5.2,0.6 -0.1,-0.8 0,-1.7 0.2,-2.5 z m 5.2,8.9 c -0.2,-1.8 0.3,-3.6 1.4,-5 0.2,0 0.3,0 0.5,0 0.9,1.6 1,3.5 0.6,5.2 -0.8,0 -1.7,0 -2.5,-0.2 z"
         class="st0"
         inkscape:connector-curvature="0"
         style="fill:#006699" />
      <path
         id="path4578"
         d="m 277.4,294.9 -1.9,-0.2 c -0.8,-0.1 -1.5,0.6 -1.4,1.4 0,0.4 0.1,0.8 0.1,1.2 0.1,0.8 0.8,1.3 1.6,1.2 l 0.7,-0.1 c 1.1,-0.2 2.2,0.5 2.4,1.6 0.2,1.1 -0.5,2.2 -1.6,2.4 l -0.6,0.1 c -0.8,0.2 -1.2,1 -1,1.7 0.1,0.4 0.3,0.7 0.4,1.1 0.3,0.7 1.1,1 1.8,0.7 l 0.6,-0.3 c 1,-0.5 2.3,-0.1 2.8,0.9 0.5,1 0.1,2.3 -0.9,2.8 l -0.5,0.3 c -0.7,0.4 -0.9,1.3 -0.4,1.9 0.2,0.3 0.5,0.6 0.7,0.9 0.5,0.6 1.4,0.7 1.9,0.1 l 0.5,-0.5 c 0.8,-0.8 2.1,-0.8 2.9,0.1 0.8,0.8 0.8,2.1 0,2.9 l -0.4,0.4 c -0.6,0.5 -0.5,1.5 0.1,2 0.3,0.2 0.6,0.5 0.9,0.7 0.6,0.5 1.5,0.3 1.9,-0.4 l 0.3,-0.6 c 0.5,-0.9 1.6,-1.3 2.5,-1 1.2,0.5 1.7,1.9 1.1,3 l -0.3,0.5 c -0.4,0.7 -0.1,1.6 0.7,1.9 0.4,0.1 0.7,0.3 1.1,0.4 0.7,0.3 1.5,-0.2 1.7,-0.9 l 0.2,-0.7 c 0.3,-1.1 1.4,-1.8 2.5,-1.5 1.1,0.3 1.8,1.4 1.6,2.5 l -0.1,0.6 c -0.2,0.8 0.4,1.5 1.2,1.6 0.4,0 0.8,0.1 1.2,0.1 0.8,0 1.4,-0.6 1.4,-1.4 v -0.7 c -0.1,-1.1 0.8,-2.1 2,-2.2 1.1,-0.1 2.1,0.8 2.2,2 v 0.6 c 0,0.8 0.8,1.4 1.6,1.2 0.4,-0.1 0.8,-0.2 1.1,-0.2 0.8,-0.2 1.2,-1 0.9,-1.7 l -0.2,-0.7 c -0.4,-1.1 0.2,-2.3 1.3,-2.6 1.1,-0.4 2.3,0.2 2.7,1.3 l 0.2,0.5 c 0.3,0.7 1.1,1.1 1.8,0.7 0.3,-0.2 0.7,-0.4 1,-0.6 0.7,-0.4 0.9,-1.3 0.4,-1.9 l -0.4,-0.6 c -0.7,-0.9 -0.5,-2.2 0.5,-2.9 0.9,-0.7 2.2,-0.5 2.9,0.5 l 0.3,0.5 c 0.5,0.6 1.4,0.7 2,0.2 0,0 0,0 0,0 0.3,-0.3 0.6,-0.5 0.8,-0.8 0.5,-0.6 0.5,-1.4 -0.2,-1.9 l -0.6,-0.4 c -0.9,-0.7 -1.1,-2 -0.4,-2.9 0.7,-0.9 2,-1.1 2.9,-0.4 l 0.5,0.4 c 0.6,0.5 1.5,0.3 1.9,-0.4 0.2,-0.3 0.4,-0.7 0.6,-1 0.4,-0.7 0,-1.5 -0.7,-1.8 l -0.7,-0.3 c -1.1,-0.4 -1.6,-1.6 -1.2,-2.7 0.4,-1.1 1.6,-1.6 2.7,-1.2 l 0.5,0.2 c 0.7,0.3 1.6,-0.1 1.7,-0.9 0.1,-0.4 0.2,-0.8 0.2,-1.1 0.1,-0.8 -0.4,-1.5 -1.2,-1.5 l -0.7,-0.1 c -1.1,-0.1 -2,-1.1 -1.9,-2.3 -0.8,-0.8 -0.1,-2.1 0.9,-2 l 1.9,0.2 c 0.8,0.1 1.5,-0.6 1.4,-1.4 0,-0.4 -0.1,-0.8 -0.1,-1.2 -0.1,-0.8 -0.8,-1.3 -1.6,-1.2 l -0.6,0.1 c -1,0.2 -2,-0.3 -2.4,-1.3 -0.5,-1.2 0.3,-2.5 1.5,-2.8 l 0.6,-0.1 c 0.8,-0.2 1.2,-1 1,-1.7 -0.1,-0.4 -0.3,-0.7 -0.4,-1.1 -0.3,-0.7 -1.1,-1 -1.8,-0.7 l -0.6,0.3 c -0.9,0.5 -2,0.3 -2.6,-0.5 -0.8,-1.1 -0.5,-2.5 0.7,-3.1 l 0.5,-0.3 c 0.7,-0.4 0.9,-1.3 0.4,-1.9 -0.2,-0.3 -0.5,-0.6 -0.7,-0.9 -0.5,-0.6 -1.4,-0.7 -1.9,-0.1 l -0.5,0.5 c -0.8,0.8 -2.1,0.8 -2.9,-0.1 -0.8,-0.8 -0.8,-2.1 0,-2.9 l 0.4,-0.4 c 0.6,-0.5 0.5,-1.5 -0.1,-2 -0.3,-0.2 -0.6,-0.5 -0.9,-0.7 -0.6,-0.5 -1.5,-0.3 -1.9,0.4 l -0.3,0.6 c -0.5,0.9 -1.6,1.3 -2.5,1 -1.2,-0.5 -1.7,-1.9 -1.1,-3 l 0.3,-0.5 c 0.4,-0.7 0.1,-1.6 -0.7,-1.9 -0.4,-0.1 -0.7,-0.3 -1.1,-0.4 -0.7,-0.3 -1.5,0.2 -1.7,0.9 l -0.1,0.6 c -0.2,1 -1.1,1.7 -2.1,1.6 -1.3,-0.1 -2.2,-1.3 -1.9,-2.6 l 0.1,-0.6 c 0.2,-0.8 -0.4,-1.5 -1.2,-1.6 -0.4,0 -0.8,-0.1 -1.2,-0.1 -0.8,0 -1.4,0.6 -1.4,1.4 v 0.6 c 0.1,1 -0.6,2 -1.6,2.2 -1.3,0.3 -2.5,-0.7 -2.5,-1.9 v -0.6 c 0,-0.8 -0.8,-1.4 -1.6,-1.2 -0.4,0.1 -0.8,0.2 -1.1,0.2 -0.8,0.2 -1.2,1 -0.9,1.7 l 0.2,0.7 c 0.4,1.1 -0.2,2.3 -1.3,2.6 -0.8,0.7 -2,0.4 -2.4,-0.6 l -0.4,-1.2 c -0.3,-0.7 -1.1,-1.1 -1.8,-0.7 -0.3,0.2 -0.7,0.4 -1,0.6 -0.7,0.4 -0.9,1.3 -0.4,1.9 l 0.4,0.6 c 0.7,1 0.4,2.5 -0.8,3.1 -0.9,0.4 -2,0.1 -2.6,-0.7 l -0.3,-0.4 c -0.5,-0.6 -1.4,-0.7 -2,-0.2 0,0 0,0 0,0 -0.3,0.3 -0.6,0.5 -0.8,0.8 -0.5,0.6 -0.5,1.4 0.2,1.9 l 0.5,0.4 c 0.8,0.6 1.1,1.8 0.6,2.6 -0.6,1.2 -2.1,1.4 -3.1,0.7 l -0.5,-0.4 c -0.6,-0.5 -1.5,-0.3 -1.9,0.4 -0.2,0.3 -0.4,0.7 -0.6,1 -0.4,0.7 0,1.5 0.7,1.8 l 0.6,0.2 c 1,0.4 1.5,1.4 1.3,2.4 -0.3,1.3 -1.6,2 -2.8,1.5 l -0.5,-0.2 c -0.7,-0.3 -1.6,0.1 -1.7,0.9 -0.1,0.4 -0.2,0.8 -0.2,1.1 -0.1,0.8 0.4,1.5 1.2,1.5 l 0.7,0.1 c 1.1,0.1 2,1.1 1.9,2.3 0.6,0.9 0,2.2 -1.1,2.1 z m 40.6,-8.6 c 1,-0.4 2.2,0.1 2.6,1.1 0.4,1 -0.1,2.2 -1.1,2.6 -1,0.4 -2.2,-0.1 -2.6,-1.1 -0.4,-1.1 0.1,-2.2 1.1,-2.6 z m -1.3,14.1 c 0.4,-1 1.6,-1.5 2.6,-1 1,0.4 1.5,1.6 1,2.6 -0.4,1 -1.6,1.5 -2.6,1 -1,-0.4 -1.4,-1.6 -1,-2.6 z m -2.6,-7.2 c 0.7,0 1.3,0.6 1.3,1.3 0,0.7 -0.6,1.3 -1.3,1.3 -0.7,0 -1.3,-0.6 -1.3,-1.3 0,-0.7 0.6,-1.3 1.3,-1.3 z M 298,310.9 c -0.4,1 -1.6,1.5 -2.6,1 -1,-0.4 -1.5,-1.6 -1,-2.6 0.4,-1 1.6,-1.5 2.6,-1 1,0.5 1.4,1.6 1,2.6 z m 4.8,-3.9 c -0.7,0 -1.3,-0.6 -1.3,-1.3 0,-0.7 0.6,-1.3 1.3,-1.3 0.7,0 1.3,0.6 1.3,1.3 0,0.7 -0.6,1.3 -1.3,1.3 z m 7.1,5.2 c -1,0.4 -2.2,-0.1 -2.6,-1.1 -0.4,-1 0.1,-2.2 1.1,-2.6 1,-0.4 2.2,0.1 2.6,1.1 0.5,1 -0.1,2.2 -1.1,2.6 z m 1.8,-8.8 c -0.5,0.5 -1.4,0.5 -1.9,0 -0.5,-0.5 -0.5,-1.4 0,-1.9 0.5,-0.5 1.4,-0.5 1.9,0 0.5,0.6 0.5,1.4 0,1.9 z m 0.1,-17.7 c 0.5,0.5 0.5,1.4 0,1.9 -0.5,0.5 -1.4,0.5 -1.9,0 -0.5,-0.5 -0.5,-1.4 0,-1.9 0.6,-0.6 1.4,-0.6 1.9,0 z m -4,-7.7 c 0.4,-1 1.6,-1.5 2.6,-1 1,0.4 1.5,1.6 1,2.6 -0.4,1 -1.6,1.5 -2.6,1 -1,-0.4 -1.5,-1.6 -1,-2.6 z m -4.8,3.9 c 0.7,0 1.3,0.6 1.3,1.3 0,0.7 -0.6,1.3 -1.3,1.3 -0.7,0 -1.3,-0.6 -1.3,-1.3 0,-0.7 0.6,-1.3 1.3,-1.3 z m 4.2,8.5 c 2.4,2.5 2.3,6.4 -0.2,8.8 -2.5,2.4 -6.4,2.3 -8.8,-0.2 -2.4,-2.5 -2.3,-6.4 0.2,-8.8 2.5,-2.4 6.4,-2.3 8.8,0.2 z m -11.4,-13.7 c 1,-0.4 2.2,0.1 2.6,1.1 0.4,1 -0.1,2.2 -1.1,2.6 -1,0.4 -2.2,-0.1 -2.6,-1.1 -0.4,-1 0.1,-2.2 1.1,-2.6 z m -1.7,8.8 c 0.5,-0.5 1.4,-0.5 1.9,0 0.5,0.5 0.5,1.4 0,1.9 -0.5,0.5 -1.4,0.5 -1.9,0 -0.6,-0.6 -0.5,-1.4 0,-1.9 z m -0.1,15.9 c 0.5,-0.5 1.4,-0.5 1.9,0 0.5,0.5 0.5,1.4 0,1.9 -0.5,0.5 -1.4,0.5 -1.9,0 -0.6,-0.6 -0.6,-1.4 0,-1.9 z m -2.3,-8.3 c 0.7,0 1.3,0.6 1.3,1.3 0,0.7 -0.6,1.3 -1.3,1.3 -0.7,0 -1.3,-0.6 -1.3,-1.3 -0.1,-0.8 0.5,-1.4 1.3,-1.3 z m -6.3,-6.2 c 0.4,-1 1.6,-1.5 2.6,-1 1,0.4 1.5,1.6 1,2.6 -0.4,1 -1.6,1.5 -2.6,1 -1,-0.4 -1.5,-1.6 -1,-2.6 z m 0.9,12 c 1,-0.4 2.2,0.1 2.6,1.1 0.4,1 -0.1,2.2 -1.1,2.6 -1,0.4 -2.2,-0.1 -2.6,-1.1 -0.4,-1 0.1,-2.2 1.1,-2.6 z"
         class="st0"
         inkscape:connector-curvature="0"
         style="fill:#006699" />
    </g>
    <g
       transform="matrix(0.26725589,0,0,0.26725589,-18.23548,154.87332)"
       id="g4799">
      <path
         style="fill:#006699"
         inkscape:connector-curvature="0"
         class="st0"
         d="m 146,490.8 c -1.5,2.2 -4,3.3 -7.2,3.3 h -3.9 v -8 h 3.3 c 2,0 3.3,0.6 3.9,2.2 h 0.1 l 1,-6 c -1.6,0.2 -2.6,0.2 -5.6,0.2 h -2.7 v -6.3 h 4.7 c 2.8,0 4.7,0.9 5.6,2.6 h 0.1 l -0.6,-6.4 c -0.8,0.2 -2.3,0.3 -3.8,0.3 h -12.8 v 0.1 c 0.9,0.6 1.9,2.3 1.9,5.3 v 5 l -1.3,1.2 1.3,1.2 v 6.6 c 0,2.9 -1,4.7 -1.9,5.3 v 0.1 h 12.6 c 2.1,0 3,0.1 4.3,0.3 z m -13.8,-6 c -0.3,0 -0.6,-0.3 -0.6,-0.6 0,-0.3 0.3,-0.6 0.6,-0.6 0.3,0 0.6,0.3 0.6,0.6 -0.1,0.3 -0.3,0.6 -0.6,0.6 z"
         id="path4582" />
      <path
         style="fill:#006699"
         inkscape:connector-curvature="0"
         class="st0"
         d="m 168.2,491.8 -2.2,-6.2 0.8,-1.5 -1.6,-0.8 -2.2,-6.2 c -0.7,-2.1 0,-3.6 0.6,-4.2 v -0.1 h -9.4 v 0.1 c 0.7,0.6 1.4,2.1 0.6,4.2 l -2.1,6.2 -1.6,0.8 0.8,1.6 -2.1,6.1 c -1,2.7 -2.5,4.9 -3.5,5.8 v 0.1 h 7.5 v -0.1 c -0.5,-0.5 -0.9,-1.9 0.1,-4.4 l 0.3,-0.9 h 9.2 l 0.3,0.9 c 0.9,2.5 0.6,3.9 0,4.4 v 0.1 h 8 v -0.1 c -1,-0.9 -2.5,-3.1 -3.5,-5.8 z m -13.6,-7.2 c -0.2,0.2 -0.6,0.2 -0.8,0 -0.2,-0.2 -0.2,-0.6 0,-0.8 0.2,-0.2 0.6,-0.2 0.8,0 0.3,0.2 0.3,0.6 0,0.8 z m 0.8,4.2 1.3,-3.8 c 0.8,-2.3 1.7,-4.7 2,-7.4 h 0.1 c 0.4,2.7 1.2,5.1 2.1,7.4 l 1.3,3.8 z m 7.8,-4.2 c -0.2,0.2 -0.6,0.2 -0.8,0 -0.2,-0.2 -0.2,-0.6 0,-0.8 0.2,-0.2 0.6,-0.2 0.8,0 0.2,0.2 0.2,0.6 0,0.8 z"
         id="path4584" />
      <path
         style="fill:#006699"
         inkscape:connector-curvature="0"
         class="st0"
         d="m 186,484.8 -0.4,-1.7 -1.7,0.4 c -0.7,-0.3 -1.3,-0.6 -2,-0.9 -2.3,-1 -4.3,-1.8 -4.3,-3.8 0,-1.8 1.4,-2.7 4.1,-2.7 2.1,0 4.1,0.6 5.6,2.9 h 0.1 l -0.5,-5.8 c -2.1,-0.5 -3.7,-0.7 -5.6,-0.7 -5.5,0 -8.5,3.2 -8.5,6.8 0,1.8 0.5,3.1 1.2,4.2 l 0.1,1.8 1.7,-0.1 c 1.1,0.8 2.4,1.3 3.6,1.8 2.4,1 4.6,1.9 4.6,4.4 0,1.9 -1.2,3.1 -4.1,3.2 -2.9,0.1 -5.2,-1 -7.4,-3.7 h -0.1 l 0.6,6 c 1.6,1 4.3,1.5 7.2,1.4 5.8,-0.1 8.7,-3.3 8.7,-7.3 -0.2,-3.1 -1.3,-4.9 -2.9,-6.2 z m -6,-0.2 c -0.2,0.2 -0.6,0.2 -0.8,0 -0.2,-0.2 -0.2,-0.6 0,-0.8 0.2,-0.2 0.6,-0.2 0.8,0 0.2,0.2 0.2,0.6 0,0.8 z"
         id="path4586" />
      <path
         style="fill:#006699"
         inkscape:connector-curvature="0"
         class="st0"
         d="m 379.7,491.3 c -1.6,1.8 -3,2.4 -5,2.4 h -4.6 l 3.3,-3.7 c 1.5,-1.7 2.6,-3 3.3,-4.2 l 1.6,-0.5 -0.5,-1.6 c 0.4,-1 0.5,-1.9 0.5,-3 0,-4.1 -3,-7 -7.5,-7 -2.1,0 -4,0.4 -5.9,1.1 l -1,5.4 h 0.1 c 1.7,-2.4 3.6,-2.9 5.5,-2.9 2.1,0 4,1.2 3.9,4 0,0.6 -0.1,1.2 -0.3,1.8 l -1.7,0.6 0.5,1.6 c -0.7,1 -1.6,2.3 -2.8,3.8 l -6.6,8.4 v 0.1 h 10.8 c 2.5,0 3.8,0 5.3,0.2 z m -4.6,-7.6 c 0.3,0 0.6,0.3 0.6,0.6 0,0.3 -0.3,0.6 -0.6,0.6 -0.3,0 -0.6,-0.3 -0.6,-0.6 0,-0.4 0.2,-0.6 0.6,-0.6 z"
         id="path4588" />
      <path
         style="fill:#006699"
         inkscape:connector-curvature="0"
         class="st0"
         d="m 230.3,490.8 c -1.5,2.2 -4,3.3 -7.2,3.3 h -3.9 v -8 h 3.3 c 2,0 3.3,0.6 3.9,2.2 h 0.1 l 1,-6 c -1.6,0.2 -2.6,0.2 -5.6,0.2 h -2.7 v -6.3 h 4.7 c 2.8,0 4.7,0.9 5.6,2.6 h 0.1 l -0.6,-6.4 c -0.8,0.2 -2.4,0.3 -3.8,0.3 h -12.8 v 0.1 c 0.9,0.6 1.9,2.3 1.9,5.3 v 5 l -1.2,1.2 1.2,1.2 v 6.6 c 0,2.9 -1,4.7 -1.9,5.3 v 0.1 H 225 c 2.1,0 3,0.1 4.3,0.3 z m -13.4,-6 c -0.3,0 -0.6,-0.3 -0.6,-0.6 0,-0.3 0.3,-0.6 0.6,-0.6 0.3,0 0.6,0.3 0.6,0.6 -0.1,0.3 -0.3,0.6 -0.6,0.6 z"
         id="path4590" />
      <path
         style="fill:#006699"
         inkscape:connector-curvature="0"
         class="st0"
         d="m 302.5,490.8 c -1.5,2.2 -4,3.3 -7.2,3.3 h -3.9 v -8 h 3.3 c 2,0 3.3,0.6 3.9,2.2 h 0.1 l 1,-6 c -1.6,0.2 -2.6,0.2 -5.6,0.2 h -2.7 v -6.3 h 4.7 c 2.8,0 4.7,0.9 5.6,2.6 h 0.1 l -0.6,-6.4 c -0.8,0.2 -2.4,0.3 -3.8,0.3 h -12.8 v 0.1 c 0.9,0.6 1.9,2.3 1.9,5.3 v 5 l -1.2,1.2 1.2,1.2 v 6.6 c 0,2.9 -1,4.7 -1.9,5.3 v 0.1 h 12.6 c 2.1,0 3,0.1 4.3,0.3 z m -13.5,-6 c -0.3,0 -0.6,-0.3 -0.6,-0.6 0,-0.3 0.3,-0.6 0.6,-0.6 0.3,0 0.6,0.3 0.6,0.6 0,0.3 -0.3,0.6 -0.6,0.6 z"
         id="path4592" />
      <path
         style="fill:#006699"
         inkscape:connector-curvature="0"
         class="st0"
         d="m 209,472.6 c -1.6,0.2 -3.1,0.3 -4.9,0.3 h -8.7 c -1.7,0 -3.2,-0.1 -4.9,-0.3 l -0.6,6.5 h 0.1 c 0.8,-1.4 2.5,-2.6 4.6,-2.6 h 2.7 v 6.7 l -1.2,1.2 1.2,1.2 v 6.3 c 0,3 -1.1,4.9 -2.2,5.6 v 0.1 h 9.2 v -0.1 c -1.2,-0.6 -2.2,-2.5 -2.2,-5.6 v -6.3 l 1.3,-1.3 -1.3,-1.3 v -6.7 h 2.7 c 2.1,0 3.8,1.2 4.6,2.6 h 0.1 z m -9.3,12.2 c -0.3,0 -0.6,-0.3 -0.6,-0.6 0,-0.3 0.3,-0.6 0.6,-0.6 0.3,0 0.6,0.3 0.6,0.6 0,0.3 -0.3,0.6 -0.6,0.6 z"
         id="path4594" />
      <path
         style="fill:#006699"
         inkscape:connector-curvature="0"
         class="st0"
         d="m 251.4,492.8 -3.3,-5.4 c 3,-1 4.8,-3.3 4.8,-7.1 0,-4.6 -3.3,-7.5 -9,-7.5 h -10.1 v 0.1 c 0.9,0.6 1.9,2.3 1.9,5.1 v 5.1 l -1.3,1.3 1.3,1.3 v 6.6 c 0,2.9 -1,4.7 -1.9,5.3 v 0.1 h 8.6 v -0.1 c -0.8,-0.6 -1.8,-2.3 -1.8,-5.1 v -16 h 2.5 c 3.1,0 4.8,1.6 4.8,4.2 0,3.2 -1.7,4.4 -4.8,4.4 h -1.7 l 5.5,9.4 c 0.8,1.3 1.4,2.6 1.8,4 l 7.3,-1.3 V 497 c -1.7,-0.6 -3.2,-2 -4.6,-4.2 z m -2.3,-9.1 c 0.3,0 0.6,0.3 0.6,0.6 0,0.3 -0.3,0.6 -0.6,0.6 -0.3,0 -0.6,-0.3 -0.6,-0.6 0,-0.4 0.3,-0.6 0.6,-0.6 z m -10.9,1.1 c -0.3,0 -0.6,-0.3 -0.6,-0.6 0,-0.3 0.3,-0.6 0.6,-0.6 0.3,0 0.6,0.3 0.6,0.6 0,0.3 -0.2,0.6 -0.6,0.6 z"
         id="path4596" />
      <path
         style="fill:#006699"
         inkscape:connector-curvature="0"
         class="st0"
         d="m 321.2,484.4 c -2.3,0 -3.6,-0.1 -4.3,-0.2 l -0.6,5.4 h 0.1 c 1.4,-1.4 3.5,-1.8 5.3,-1.9 v 5.8 c -1.1,0.5 -2.4,0.8 -3.9,0.8 -4.7,0 -7.6,-3.5 -7.6,-9.1 0,-5.6 2.9,-9.1 7.9,-9.1 3.1,0 5.5,1 7.3,3.1 h 0.1 l -0.5,-5.8 c -1.8,-0.6 -4.2,-1 -6.8,-1 -7.1,0 -12.2,4 -13.1,10.9 l -1.3,1.1 1.2,1.3 c 0,7.3 5.1,12.5 12.5,12.5 2.8,0 6.4,-1 8.8,-2.6 v -5.9 c 0,-3.2 0.4,-4.7 1.2,-5.3 v -0.1 h -6.3 z m -13.5,0.4 c -0.3,0 -0.6,-0.3 -0.6,-0.6 0,-0.3 0.3,-0.6 0.6,-0.6 0.3,0 0.6,0.3 0.6,0.6 0,0.3 -0.3,0.6 -0.6,0.6 z"
         id="path4598" />
      <path
         style="fill:#006699"
         inkscape:connector-curvature="0"
         class="st0"
         d="m 346.2,484.4 c -2.3,0 -3.6,-0.1 -4.3,-0.2 l -0.6,5.4 h 0.1 c 1.4,-1.4 3.5,-1.8 5.3,-1.9 v 5.8 c -1.1,0.5 -2.4,0.8 -3.9,0.8 -4.7,0 -7.6,-3.5 -7.6,-9.1 0,-5.6 2.9,-9.1 7.9,-9.1 3.1,0 5.5,1 7.3,3.1 h 0.1 l -0.5,-5.8 c -1.8,-0.6 -4.2,-1 -6.8,-1 -7.1,0 -12.2,4 -13.1,10.8 l -1.3,1.1 1.2,1.3 c 0.1,7.3 5.1,12.5 12.5,12.5 2.8,0 6.4,-1 8.8,-2.6 v -5.9 c 0,-3.2 0.4,-4.7 1.2,-5.3 v -0.1 h -6.3 z m -13.8,0.4 c -0.3,0 -0.6,-0.3 -0.6,-0.6 0,-0.3 0.3,-0.6 0.6,-0.6 0.3,0 0.6,0.3 0.6,0.6 0,0.3 -0.3,0.6 -0.6,0.6 z"
         id="path4600" />
      <path
         style="fill:#006699"
         inkscape:connector-curvature="0"
         class="st0"
         d="m 415.7,492.3 v -6.6 l 1.2,-1.2 -1.2,-1.2 v -3.7 c 0,-2.9 1,-4.7 1.8,-5.3 v -0.1 h -4.8 c -2.5,0 -3.8,0 -4.8,-0.2 l -1.3,5.9 h 0.1 c 1.3,-1.2 2.5,-1.7 4.3,-1.8 v 5.1 l -1.3,1.3 1.3,1.3 v 6.6 c 0,2.9 -1,4.7 -1.8,5.3 v 0.1 h 8.3 v -0.1 c -0.8,-0.8 -1.8,-2.5 -1.8,-5.4 z m -2.3,-7.5 c -0.3,0 -0.6,-0.3 -0.6,-0.6 0,-0.3 0.3,-0.6 0.6,-0.6 0.3,0 0.6,0.3 0.6,0.6 0,0.3 -0.3,0.6 -0.6,0.6 z"
         id="path4602" />
      <path
         style="fill:#006699"
         inkscape:connector-curvature="0"
         class="st0"
         d="m 440.2,484.4 -1.3,-1.2 c -0.6,-6.5 -4.1,-9.7 -9,-9.7 -5.8,0 -9,4 -9,8.5 0,5.2 4,7.8 8.2,7.8 2.3,0 4,-0.7 5.5,-2.5 h 0.1 c -0.4,4.5 -3.2,7.1 -6.3,7.1 -2.4,0 -4.2,-0.5 -5.3,-2 H 423 l 0.5,4.9 c 1.5,0.4 3.1,0.5 4.9,0.5 6.5,0 10.6,-4.5 10.7,-12.4 z m -10.5,2 c -2,0 -4,-1.9 -4,-4.6 0,-2.9 1.9,-4.7 4,-4.7 2.2,0 4,1.8 4,4.7 0,2.7 -1.8,4.6 -4,4.6 z m 6.9,-1.6 c -0.3,0 -0.6,-0.3 -0.6,-0.6 0,-0.3 0.3,-0.6 0.6,-0.6 0.3,0 0.6,0.3 0.6,0.6 0,0.3 -0.3,0.6 -0.6,0.6 z"
         id="path4604" />
      <path
         style="fill:#006699"
         inkscape:connector-curvature="0"
         class="st0"
         d="m 404.6,484.4 -1.3,-1.2 c -0.7,-6.5 -4.3,-9.8 -10.1,-9.8 -5.8,0 -9.4,3.5 -10.2,9.8 l -1.3,1.1 1.1,1.3 c 0,0.1 0,0.1 0,0.2 0,7.8 3.5,12.4 10.1,12.4 6.5,0 10.4,-4.5 10.5,-12.6 z m -19.2,0.4 c -0.3,0 -0.6,-0.3 -0.6,-0.6 0,-0.3 0.3,-0.6 0.6,-0.6 0.3,0 0.6,0.3 0.6,0.6 0,0.3 -0.3,0.6 -0.6,0.6 z m 7.8,10 c -3.6,0 -5.2,-3.2 -5.2,-9.2 0,-5.6 1.9,-8.7 5,-8.7 3.6,0 5.3,3.1 5.3,8.8 0,5.9 -1.9,9.1 -5.1,9.1 z m 7.7,-10 c -0.3,0 -0.6,-0.3 -0.6,-0.6 0,-0.3 0.3,-0.6 0.6,-0.6 0.3,0 0.6,0.3 0.6,0.6 -0.1,0.3 -0.3,0.6 -0.6,0.6 z"
         id="path4606" />
      <path
         style="fill:#006699"
         inkscape:connector-curvature="0"
         class="st0"
         d="m 280.4,472.9 v 0 l -8.6,-0.1 v 0.1 c 0.9,0.6 1.8,2.3 1.8,5.3 v 4.4 h -9.5 v -4.4 c 0,-2.9 1,-4.7 1.8,-5.3 v -0.1 h -8.6 v 0.1 c 0.9,0.6 1.9,2.3 1.9,5.3 v 5 l -1.3,1.3 1.3,1.2 v 6.6 c 0,2.9 -1,4.7 -1.9,5.3 v 0.1 h 8.6 v -0.1 c -0.9,-0.6 -1.8,-2.3 -1.8,-5.3 v -6.1 h 9.5 v 6.2 c 0,2.8 -1,4.5 -1.8,5.1 v 0.1 h 8.6 v -0.1 c -0.9,-0.6 -1.9,-2.3 -1.9,-5.1 v -6.7 l 1.3,-1.3 -1.3,-1.3 v -5 c 0,-2.8 1,-4.6 1.9,-5.2 z m -18.5,11.9 c -0.3,0 -0.6,-0.3 -0.6,-0.6 0,-0.3 0.3,-0.6 0.6,-0.6 0.3,0 0.6,0.3 0.6,0.6 0,0.3 -0.3,0.6 -0.6,0.6 z m 14.4,0 c -0.3,0 -0.6,-0.3 -0.6,-0.6 0,-0.3 0.3,-0.6 0.6,-0.6 0.3,0 0.6,0.3 0.6,0.6 0,0.3 -0.3,0.6 -0.6,0.6 z"
         id="path4608" />
      <path
         style="fill:#006699"
         inkscape:connector-curvature="0"
         class="st0"
         d="M 166.2,518.1 V 518 c 2.1,-0.3 4.1,-2.5 4.1,-5.2 0,-4.2 -2.7,-6.2 -8,-6.2 h -9.8 v 0.1 c 1.1,0.8 2.1,2.5 2.1,5.4 v 4.8 l -1.2,1.2 1.2,1.2 v 6.4 c 0,3.2 -1.2,4.8 -2.1,5.5 v 0.1 h 10.8 c 4.8,0 8.3,-2.7 8.3,-7.3 0,-2.9 -2.5,-5.6 -5.4,-5.9 z m -6.8,-8.1 h 2.6 c 2.1,0 3.3,1 3.3,3 0,2.3 -1.2,3.4 -3.3,3.4 h -2.6 z m -2.5,8.6 c -0.3,0 -0.6,-0.3 -0.6,-0.6 0,-0.3 0.3,-0.6 0.6,-0.6 0.3,0 0.6,0.3 0.6,0.6 0,0.3 -0.3,0.6 -0.6,0.6 z m 5.6,9.2 h -3.1 v -7.9 h 3.1 c 2.7,0 4,1.6 4,3.9 0,2.3 -1.3,4 -4,4 z"
         id="path4610" />
      <path
         style="fill:#006699"
         inkscape:connector-curvature="0"
         class="st0"
         d="m 189.9,506.5 v 0 c 0.8,0.7 1.8,2.4 1.8,5.3 v 9.6 c 0,4.6 -1.6,6.7 -5,6.7 -3.9,0 -5.3,-1.8 -5.3,-6.7 v -9.6 c 0,-3 1,-4.7 1.8,-5.3 v -0.1 h -8.7 v 0.1 c 0.9,0.6 1.9,2.4 1.9,5.3 v 5 l -1.2,1.2 1.2,1.2 v 1.8 c 0,7.3 3.5,10.8 9.9,10.8 6.9,0 10.2,-3.6 10.2,-10.8 v -1.8 l 1.2,-1.2 -1.2,-1.2 v -5 c 0,-3 1,-4.7 1.9,-5.3 v -0.1 h -8.5 z m -11.1,12.1 c -0.3,0 -0.6,-0.3 -0.6,-0.6 0,-0.3 0.3,-0.6 0.6,-0.6 0.3,0 0.6,0.3 0.6,0.6 -0.1,0.3 -0.3,0.6 -0.6,0.6 z m 15.2,0 c -0.3,0 -0.6,-0.3 -0.6,-0.6 0,-0.3 0.3,-0.6 0.6,-0.6 0.3,0 0.6,0.3 0.6,0.6 0,0.3 -0.3,0.6 -0.6,0.6 z"
         id="path4612" />
      <path
         style="fill:#006699"
         inkscape:connector-curvature="0"
         class="st0"
         d="m 225.7,506.6 v 0 l -8.2,-0.1 v 0.1 c 0.9,0.6 1.8,2.3 1.8,5.3 v 6.4 c 0,2 0.1,4.5 0.6,7.3 h -0.1 c -1.1,-2.7 -2.2,-5.3 -3.3,-7.1 l -5.1,-8.6 c -1.2,-2 -1.4,-2.7 -1.5,-3.4 h -8.1 v 0.1 c 1.3,0.9 1.9,3.2 1.9,5.1 v 5.2 l -1.2,1.2 1.2,1.2 v 6.6 c 0,2.9 -1,4.7 -1.9,5.3 v 0.1 h 8.2 v -0.1 c -0.9,-0.6 -1.8,-2.3 -1.8,-5.3 v -6.1 c 0,-2.6 -0.1,-4.9 -0.6,-8.3 h 0.1 c 1.1,3.3 2,5.4 3.7,8.1 l 5,8.2 c 0.7,1.1 1.4,2.4 1.8,3.4 h 7.5 v -0.1 c -0.9,-0.6 -1.9,-2.4 -1.9,-5.3 v -6.6 l 1.2,-1.2 -1.2,-1.2 v -5 c 0,-2.9 1,-4.6 1.9,-5.2 z m -20.1,12 c -0.3,0 -0.6,-0.3 -0.6,-0.6 0,-0.3 0.3,-0.6 0.6,-0.6 0.3,0 0.6,0.3 0.6,0.6 0,0.3 -0.2,0.6 -0.6,0.6 z m 16.1,0 c -0.3,0 -0.6,-0.3 -0.6,-0.6 0,-0.3 0.3,-0.6 0.6,-0.6 0.3,0 0.6,0.3 0.6,0.6 0,0.3 -0.2,0.6 -0.6,0.6 z"
         id="path4614" />
      <path
         style="fill:#006699"
         inkscape:connector-curvature="0"
         class="st0"
         d="m 247.6,506.6 v 0 l -8.8,-0.1 v 0.1 c 0.9,0.6 1.9,2.3 1.9,5.3 v 5 l -1.3,1.3 1.3,1.3 v 6.6 c 0,2.9 -1,4.7 -1.9,5.3 v 0.1 h 8.8 v -0.1 c -0.9,-0.6 -1.9,-2.3 -1.9,-5.3 v -6.6 l 1.2,-1.2 -1.2,-1.2 v -5 c 0,-3.2 1,-4.9 1.9,-5.5 z m -4.5,12 c -0.3,0 -0.6,-0.3 -0.6,-0.6 0,-0.3 0.3,-0.6 0.6,-0.6 0.3,0 0.6,0.3 0.6,0.6 0,0.3 -0.3,0.6 -0.6,0.6 z"
         id="path4616" />
      <path
         style="fill:#006699"
         inkscape:connector-curvature="0"
         class="st0"
         d="m 275.7,506.6 v 0 l -8.2,-0.1 v 0.1 c 0.9,0.6 1.8,2.3 1.8,5.3 v 6.4 c 0,2 0.1,4.5 0.6,7.3 h -0.1 c -1.1,-2.7 -2.2,-5.3 -3.3,-7.1 l -5.1,-8.6 c -1.2,-2 -1.4,-2.7 -1.5,-3.4 h -8.1 v 0.1 c 1.3,0.9 1.9,3.2 1.9,5.1 v 5.2 l -1.2,1.2 1.2,1.2 v 6.6 c 0,2.9 -1,4.7 -1.9,5.3 v 0.1 h 8.2 v -0.1 c -0.9,-0.6 -1.8,-2.3 -1.8,-5.3 v -6.1 c 0,-2.6 -0.1,-4.9 -0.6,-8.3 h 0.1 c 1.1,3.3 2,5.4 3.7,8.1 l 5,8.2 c 0.7,1.1 1.4,2.4 1.8,3.4 h 7.5 v -0.1 c -0.9,-0.6 -1.9,-2.4 -1.9,-5.3 v -6.6 l 1.3,-1.3 -1.3,-1.3 v -5 c 0,-2.7 1,-4.4 1.9,-5 z m -19.9,12 c -0.3,0 -0.6,-0.3 -0.6,-0.6 0,-0.3 0.3,-0.6 0.6,-0.6 0.3,0 0.6,0.3 0.6,0.6 0,0.3 -0.3,0.6 -0.6,0.6 z m 15.7,0 c -0.3,0 -0.6,-0.3 -0.6,-0.6 0,-0.3 0.3,-0.6 0.6,-0.6 0.3,0 0.6,0.3 0.6,0.6 0,0.3 -0.2,0.6 -0.6,0.6 z"
         id="path4618" />
      <path
         style="fill:#006699"
         inkscape:connector-curvature="0"
         class="st0"
         d="m 360.8,506.5 h -10.3 v 0.1 c 0.9,0.6 1.9,2.6 1.9,5.3 v 5 l -1.2,1.2 1.2,1.2 v 6.6 c 0,2.9 -1,4.7 -1.9,5.3 v 0.1 h 9.8 c 8.8,0 13,-4.6 13,-12.4 -0.1,-7.8 -5,-12.4 -12.5,-12.4 z m -6,12.1 c -0.3,0 -0.6,-0.3 -0.6,-0.6 0,-0.3 0.3,-0.6 0.6,-0.6 0.3,0 0.6,0.3 0.6,0.6 0,0.3 -0.2,0.6 -0.6,0.6 z m 5.8,9.1 h -3.3 V 510 h 3.1 c 5.1,0 7.5,2.8 7.5,8.8 0,5.8 -2.5,8.9 -7.3,8.9 z m 10.1,-9.1 c -0.3,0 -0.6,-0.3 -0.6,-0.6 0,-0.3 0.3,-0.6 0.6,-0.6 0.3,0 0.6,0.3 0.6,0.6 0,0.3 -0.3,0.6 -0.6,0.6 z"
         id="path4620" />
      <path
         style="fill:#006699"
         inkscape:connector-curvature="0"
         class="st0"
         d="m 394.7,524.4 c -1.5,2.2 -4,3.3 -7.2,3.3 h -3.9 v -8 h 3.3 c 2,0 3.3,0.6 3.9,2.2 h 0.1 l 1,-6 c -1.6,0.2 -2.6,0.3 -5.6,0.3 h -2.7 V 510 h 4.7 c 2.8,0 4.7,0.9 5.6,2.6 h 0.1 l -0.6,-6.4 c -0.8,0.2 -2.4,0.3 -3.8,0.3 h -12.8 v 0.1 c 0.9,0.6 1.9,2.3 1.9,5.3 v 5 l -1.2,1.2 1.2,1.2 v 6.6 c 0,2.9 -1,4.7 -1.9,5.3 v 0.1 h 12.6 c 2.1,0 3,0.1 4.3,0.3 z M 381,518.6 c -0.3,0 -0.6,-0.3 -0.6,-0.6 0,-0.3 0.3,-0.6 0.6,-0.6 0.3,0 0.6,0.3 0.6,0.6 0,0.3 -0.3,0.6 -0.6,0.6 z"
         id="path4622" />
      <path
         style="fill:#006699"
         inkscape:connector-curvature="0"
         class="st0"
         d="m 408.6,506.5 h -10.3 v 0.1 c 0.9,0.6 1.9,2.6 1.9,5.3 v 5 l -1.2,1.2 1.2,1.2 v 6.6 c 0,2.9 -1,4.7 -1.9,5.3 v 0.1 h 9.8 c 8.8,0 13,-4.6 13,-12.4 -0.1,-7.8 -5,-12.4 -12.5,-12.4 z m -6.1,12.1 c -0.3,0 -0.6,-0.3 -0.6,-0.6 0,-0.3 0.3,-0.6 0.6,-0.6 0.3,0 0.6,0.3 0.6,0.6 0,0.3 -0.2,0.6 -0.6,0.6 z m 5.9,9.1 H 405 V 510 h 3.1 c 5.1,0 7.5,2.8 7.5,8.8 0.1,5.8 -2.5,8.9 -7.2,8.9 z m 10,-9.1 c -0.3,0 -0.6,-0.3 -0.6,-0.6 0,-0.3 0.3,-0.6 0.6,-0.6 0.3,0 0.6,0.3 0.6,0.6 0,0.3 -0.3,0.6 -0.6,0.6 z"
         id="path4624" />
      <path
         style="fill:#006699"
         inkscape:connector-curvature="0"
         class="st0"
         d="m 346.3,506.6 v 0 l -8.2,-0.1 v 0.1 c 0.9,0.6 1.8,2.3 1.8,5.3 v 6.4 c 0,2 0.1,4.5 0.6,7.3 h -0.1 c -1.1,-2.7 -2.2,-5.3 -3.3,-7.1 l -5.1,-8.6 c -1.2,-2 -1.4,-2.7 -1.5,-3.4 h -8.1 v 0.1 c 1.3,0.9 1.9,3.2 1.9,5.1 v 5.2 l -1.2,1.2 1.2,1.2 v 6.6 c 0,2.9 -1,4.7 -1.9,5.3 v 0.1 h 8.2 v -0.1 c -0.9,-0.6 -1.8,-2.3 -1.8,-5.3 v -6.1 c 0,-2.6 -0.1,-4.9 -0.6,-8.3 h 0.1 c 1.1,3.3 2,5.4 3.7,8.1 l 5,8.2 c 0.7,1.1 1.4,2.4 1.8,3.4 h 7.5 v -0.1 c -0.9,-0.6 -1.9,-2.4 -1.9,-5.3 v -6.6 l 1.2,-1.2 -1.2,-1.2 v -5 c 0,-2.9 1,-4.6 1.9,-5.2 z m -20,12 c -0.3,0 -0.6,-0.3 -0.6,-0.6 0,-0.3 0.3,-0.6 0.6,-0.6 0.3,0 0.6,0.3 0.6,0.6 0,0.3 -0.3,0.6 -0.6,0.6 z m 15.8,0 c -0.3,0 -0.6,-0.3 -0.6,-0.6 0,-0.3 0.3,-0.6 0.6,-0.6 0.3,0 0.6,0.3 0.6,0.6 0,0.3 -0.3,0.6 -0.6,0.6 z"
         id="path4626" />
      <path
         style="fill:#006699"
         inkscape:connector-curvature="0"
         class="st0"
         d="m 297.6,506.2 c -1.6,0.2 -3.1,0.3 -4.9,0.3 H 284 c -1.7,0 -3.2,-0.1 -4.9,-0.3 l -0.6,6.5 h 0.1 c 0.8,-1.4 2.5,-2.6 4.6,-2.6 h 2.7 v 6.7 l -1.3,1.2 1.3,1.3 v 6.3 c 0,3 -1.1,4.9 -2.2,5.6 v 0.1 h 9.2 v -0.1 c -1.2,-0.6 -2.2,-2.5 -2.2,-5.6 v -6.3 l 1.2,-1.2 -1.2,-1.2 v -6.7 h 2.7 c 2.1,0 3.8,1.2 4.6,2.6 h 0.1 z m -9.2,12.4 c -0.3,0 -0.6,-0.3 -0.6,-0.6 0,-0.3 0.3,-0.6 0.6,-0.6 0.3,0 0.6,0.3 0.6,0.6 0,0.3 -0.3,0.6 -0.6,0.6 z"
         id="path4628" />
      <path
         style="fill:#006699"
         inkscape:connector-curvature="0"
         class="st0"
         d="m 318.9,524.4 c -1.5,2.2 -4,3.3 -7.2,3.3 h -3.9 v -8 h 3.3 c 2,0 3.3,0.6 3.9,2.2 h 0.1 l 1,-6 c -1.6,0.2 -2.6,0.3 -5.6,0.3 h -2.7 V 510 h 4.7 c 2.8,0 4.7,0.9 5.6,2.6 h 0.1 l -0.6,-6.4 c -0.8,0.2 -2.4,0.3 -3.8,0.3 H 301 v 0.1 c 0.9,0.6 1.9,2.3 1.9,5.3 v 5 l -1.2,1.2 1.2,1.2 v 6.6 c 0,2.9 -1,4.7 -1.9,5.3 v 0.1 h 12.6 c 2.1,0 3,0.1 4.3,0.3 z m -13.7,-5.8 c -0.3,0 -0.6,-0.3 -0.6,-0.6 0,-0.3 0.3,-0.6 0.6,-0.6 0.3,0 0.6,0.3 0.6,0.6 0,0.3 -0.3,0.6 -0.6,0.6 z"
         id="path4630" />
    </g>
  </g>
</svg>
