<svg version="1.1" xmlns="http://www.w3.org/2000/svg" xmlns:xlink="http://www.w3.org/1999/xlink" width="704" height="328.58065" viewBox="909.33333,317.20968,704,328.58065"><g fill="none" fill-rule="nonzero" stroke="none" stroke-width="1" stroke-linecap="butt" stroke-linejoin="miter" stroke-miterlimit="10" stroke-dasharray="" stroke-dashoffset="0" font-family="none" font-weight="none" font-size="none" text-anchor="none" style="mix-blend-mode: normal"><g id="Layer_1"><path d="M909.33333,481.38172v164.4086l46.83871,-46.83871h657.16129v-117.56989z" fill="#51509d"/><path d="M1613.33333,481.38172v-164.17204l-46.83871,46.83871h-657.16129v117.33333z" fill="#00a6de"/><g fill="#ffffff"><rect x="400.6" y="186.79318" transform="scale(2.36559,2.36559)" width="2.8" height="2.8"/><rect x="400.6" y="182.99318" transform="scale(2.36559,2.36559)" width="2.8" height="2.8"/><rect x="400.6" y="169.79318" transform="scale(2.36559,2.36559)" width="2.8" height="2.8"/><rect x="400.6" y="165.99318" transform="scale(2.36559,2.36559)" width="2.8" height="2.8"/><rect x="404.4" y="188.59318" transform="scale(2.36559,2.36559)" width="2.8" height="2.8"/><rect x="404.4" y="165.99318" transform="scale(2.36559,2.36559)" width="2.8" height="2.8"/><rect x="408.1" y="188.59318" transform="scale(2.36559,2.36559)" width="2.8" height="2.8"/><rect x="408.1" y="165.99318" transform="scale(2.36559,2.36559)" width="2.8" height="2.8"/><rect x="411.9" y="188.59318" transform="scale(2.36559,2.36559)" width="2.8" height="2.8"/><rect x="411.9" y="165.99318" transform="scale(2.36559,2.36559)" width="2.8" height="2.8"/><rect x="415.6" y="186.79318" transform="scale(2.36559,2.36559)" width="2.8" height="2.8"/><rect x="415.6" y="182.99318" transform="scale(2.36559,2.36559)" width="2.8" height="2.8"/><rect x="415.6" y="179.19318" transform="scale(2.36559,2.36559)" width="2.8" height="2.8"/><rect x="415.6" y="175.39318" transform="scale(2.36559,2.36559)" width="2.8" height="2.8"/><rect x="415.6" y="171.69318" transform="scale(2.36559,2.36559)" width="2.8" height="2.8"/><rect x="415.6" y="167.89318" transform="scale(2.36559,2.36559)" width="2.8" height="2.8"/><rect x="423.1" y="184.89318" transform="scale(2.36559,2.36559)" width="2.8" height="2.8"/><rect x="423.1" y="181.09318" transform="scale(2.36559,2.36559)" width="2.8" height="2.8"/><rect x="423.1" y="177.29318" transform="scale(2.36559,2.36559)" width="2.8" height="2.8"/><rect x="423.1" y="173.59318" transform="scale(2.36559,2.36559)" width="2.8" height="2.8"/><rect x="423.1" y="169.79318" transform="scale(2.36559,2.36559)" width="2.8" height="2.8"/><rect x="423.1" y="165.99318" transform="scale(2.36559,2.36559)" width="2.8" height="2.8"/><rect x="426.9" y="188.59318" transform="scale(2.36559,2.36559)" width="2.8" height="2.8"/><rect x="430.6" y="188.59318" transform="scale(2.36559,2.36559)" width="2.8" height="2.8"/><rect x="434.4" y="188.59318" transform="scale(2.36559,2.36559)" width="2.8" height="2.8"/><rect x="438.1" y="184.89318" transform="scale(2.36559,2.36559)" width="2.8" height="2.8"/><rect x="438.1" y="181.09318" transform="scale(2.36559,2.36559)" width="2.8" height="2.8"/><rect x="438.1" y="177.29318" transform="scale(2.36559,2.36559)" width="2.8" height="2.8"/><rect x="438.1" y="173.59318" transform="scale(2.36559,2.36559)" width="2.8" height="2.8"/><rect x="438.1" y="169.79318" transform="scale(2.36559,2.36559)" width="2.8" height="2.8"/><rect x="438.1" y="165.99318" transform="scale(2.36559,2.36559)" width="2.8" height="2.8"/><rect x="445.6" y="186.79318" transform="scale(2.36559,2.36559)" width="2.8" height="2.8"/><rect x="445.6" y="182.99318" transform="scale(2.36559,2.36559)" width="2.8" height="2.8"/><rect x="445.6" y="179.19318" transform="scale(2.36559,2.36559)" width="2.8" height="2.8"/><rect x="445.6" y="175.39318" transform="scale(2.36559,2.36559)" width="2.8" height="2.8"/><rect x="445.6" y="171.69318" transform="scale(2.36559,2.36559)" width="2.8" height="2.8"/><rect x="445.6" y="167.89318" transform="scale(2.36559,2.36559)" width="2.8" height="2.8"/><rect x="449.4" y="188.59318" transform="scale(2.36559,2.36559)" width="2.8" height="2.8"/><rect x="449.4" y="165.99318" transform="scale(2.36559,2.36559)" width="2.8" height="2.8"/><rect x="453.1" y="188.59318" transform="scale(2.36559,2.36559)" width="2.8" height="2.8"/><rect x="453.1" y="179.19318" transform="scale(2.36559,2.36559)" width="2.8" height="2.8"/><rect x="453.1" y="165.99318" transform="scale(2.36559,2.36559)" width="2.8" height="2.8"/><rect x="456.9" y="188.59318" transform="scale(2.36559,2.36559)" width="2.8" height="2.8"/><rect x="456.9" y="179.19318" transform="scale(2.36559,2.36559)" width="2.8" height="2.8"/><rect x="456.9" y="165.99318" transform="scale(2.36559,2.36559)" width="2.8" height="2.8"/><rect x="460.6" y="186.79318" transform="scale(2.36559,2.36559)" width="2.8" height="2.8"/><rect x="460.6" y="182.99318" transform="scale(2.36559,2.36559)" width="2.8" height="2.8"/><rect x="460.6" y="179.19318" transform="scale(2.36559,2.36559)" width="2.8" height="2.8"/><rect x="460.6" y="167.89318" transform="scale(2.36559,2.36559)" width="2.8" height="2.8"/><rect x="468.1" y="186.79318" transform="scale(2.36559,2.36559)" width="2.8" height="2.8"/><rect x="468.1" y="182.99318" transform="scale(2.36559,2.36559)" width="2.8" height="2.8"/><rect x="468.1" y="179.19318" transform="scale(2.36559,2.36559)" width="2.8" height="2.8"/><rect x="468.1" y="175.39318" transform="scale(2.36559,2.36559)" width="2.8" height="2.8"/><rect x="468.1" y="171.69318" transform="scale(2.36559,2.36559)" width="2.8" height="2.8"/><rect x="468.1" y="167.89318" transform="scale(2.36559,2.36559)" width="2.8" height="2.8"/><rect x="471.8" y="188.59318" transform="scale(2.36559,2.36559)" width="2.8" height="2.8"/><rect x="471.8" y="177.29318" transform="scale(2.36559,2.36559)" width="2.8" height="2.8"/><rect x="471.8" y="165.99318" transform="scale(2.36559,2.36559)" width="2.8" height="2.8"/><rect x="475.6" y="188.59318" transform="scale(2.36559,2.36559)" width="2.8" height="2.8"/><rect x="475.6" y="177.29318" transform="scale(2.36559,2.36559)" width="2.8" height="2.8"/><rect x="475.6" y="165.99318" transform="scale(2.36559,2.36559)" width="2.8" height="2.8"/><rect x="479.3" y="188.59318" transform="scale(2.36559,2.36559)" width="2.8" height="2.8"/><rect x="479.3" y="177.29318" transform="scale(2.36559,2.36559)" width="2.8" height="2.8"/><rect x="479.3" y="165.99318" transform="scale(2.36559,2.36559)" width="2.8" height="2.8"/><rect x="483.1" y="188.59318" transform="scale(2.36559,2.36559)" width="2.8" height="2.8"/><rect x="483.1" y="165.99318" transform="scale(2.36559,2.36559)" width="2.8" height="2.8"/><rect x="490.6" y="188.59318" transform="scale(2.36559,2.36559)" width="2.8" height="2.8"/><rect x="490.6" y="184.89318" transform="scale(2.36559,2.36559)" width="2.8" height="2.8"/><rect x="490.6" y="181.09318" transform="scale(2.36559,2.36559)" width="2.8" height="2.8"/><rect x="490.6" y="177.29318" transform="scale(2.36559,2.36559)" width="2.8" height="2.8"/><rect x="490.6" y="173.59318" transform="scale(2.36559,2.36559)" width="2.8" height="2.8"/><rect x="490.6" y="169.79318" transform="scale(2.36559,2.36559)" width="2.8" height="2.8"/><rect x="490.6" y="165.99318" transform="scale(2.36559,2.36559)" width="2.8" height="2.8"/><rect x="494.3" y="173.59318" transform="scale(2.36559,2.36559)" width="2.8" height="2.8"/><rect x="498.1" y="177.29318" transform="scale(2.36559,2.36559)" width="2.8" height="2.8"/><rect x="501.8" y="181.09318" transform="scale(2.36559,2.36559)" width="2.8" height="2.8"/><rect x="505.6" y="188.59318" transform="scale(2.36559,2.36559)" width="2.8" height="2.8"/><rect x="505.6" y="184.89318" transform="scale(2.36559,2.36559)" width="2.8" height="2.8"/><rect x="505.6" y="181.09318" transform="scale(2.36559,2.36559)" width="2.8" height="2.8"/><rect x="505.6" y="177.29318" transform="scale(2.36559,2.36559)" width="2.8" height="2.8"/><rect x="505.6" y="173.59318" transform="scale(2.36559,2.36559)" width="2.8" height="2.8"/><rect x="505.6" y="169.79318" transform="scale(2.36559,2.36559)" width="2.8" height="2.8"/><rect x="505.6" y="165.99318" transform="scale(2.36559,2.36559)" width="2.8" height="2.8"/><rect x="513.1" y="188.59318" transform="scale(2.36559,2.36559)" width="2.8" height="2.8"/><rect x="513.1" y="184.89318" transform="scale(2.36559,2.36559)" width="2.8" height="2.8"/><rect x="513.1" y="181.09318" transform="scale(2.36559,2.36559)" width="2.8" height="2.8"/><rect x="513.1" y="177.29318" transform="scale(2.36559,2.36559)" width="2.8" height="2.8"/><rect x="513.1" y="173.59318" transform="scale(2.36559,2.36559)" width="2.8" height="2.8"/><rect x="513.1" y="169.79318" transform="scale(2.36559,2.36559)" width="2.8" height="2.8"/><rect x="513.1" y="165.99318" transform="scale(2.36559,2.36559)" width="2.8" height="2.8"/><rect x="516.8" y="188.59318" transform="scale(2.36559,2.36559)" width="2.8" height="2.8"/><rect x="516.8" y="165.99318" transform="scale(2.36559,2.36559)" width="2.8" height="2.8"/><rect x="520.6" y="188.59318" transform="scale(2.36559,2.36559)" width="2.8" height="2.8"/><rect x="520.6" y="165.99318" transform="scale(2.36559,2.36559)" width="2.8" height="2.8"/><rect x="524.3" y="188.59318" transform="scale(2.36559,2.36559)" width="2.8" height="2.8"/><rect x="524.3" y="165.99318" transform="scale(2.36559,2.36559)" width="2.8" height="2.8"/><rect x="528.1" y="186.79318" transform="scale(2.36559,2.36559)" width="2.8" height="2.8"/><rect x="528.1" y="182.99318" transform="scale(2.36559,2.36559)" width="2.8" height="2.8"/><rect x="528.1" y="179.19318" transform="scale(2.36559,2.36559)" width="2.8" height="2.8"/><rect x="528.1" y="175.39318" transform="scale(2.36559,2.36559)" width="2.8" height="2.8"/><rect x="528.1" y="171.69318" transform="scale(2.36559,2.36559)" width="2.8" height="2.8"/><rect x="528.1" y="167.89318" transform="scale(2.36559,2.36559)" width="2.8" height="2.8"/><rect x="558.1" y="188.59318" transform="scale(2.36559,2.36559)" width="2.8" height="2.8"/><rect x="558.1" y="184.89318" transform="scale(2.36559,2.36559)" width="2.8" height="2.8"/><rect x="558.1" y="181.09318" transform="scale(2.36559,2.36559)" width="2.8" height="2.8"/><rect x="558.1" y="177.29318" transform="scale(2.36559,2.36559)" width="2.8" height="2.8"/><rect x="558.1" y="173.59318" transform="scale(2.36559,2.36559)" width="2.8" height="2.8"/><rect x="558.1" y="169.79318" transform="scale(2.36559,2.36559)" width="2.8" height="2.8"/><rect x="558.1" y="165.99318" transform="scale(2.36559,2.36559)" width="2.8" height="2.8"/><rect x="561.8" y="177.29318" transform="scale(2.36559,2.36559)" width="2.8" height="2.8"/><rect x="565.5" y="177.29318" transform="scale(2.36559,2.36559)" width="2.8" height="2.8"/><rect x="569.3" y="177.29318" transform="scale(2.36559,2.36559)" width="2.8" height="2.8"/><rect x="573" y="188.59318" transform="scale(2.36559,2.36559)" width="2.8" height="2.8"/><rect x="573" y="184.89318" transform="scale(2.36559,2.36559)" width="2.8" height="2.8"/><rect x="573" y="181.09318" transform="scale(2.36559,2.36559)" width="2.8" height="2.8"/><rect x="573" y="177.29318" transform="scale(2.36559,2.36559)" width="2.8" height="2.8"/><rect x="573" y="173.59318" transform="scale(2.36559,2.36559)" width="2.8" height="2.8"/><rect x="573" y="169.79318" transform="scale(2.36559,2.36559)" width="2.8" height="2.8"/><rect x="573" y="165.99318" transform="scale(2.36559,2.36559)" width="2.8" height="2.8"/><rect x="580.5" y="188.59318" transform="scale(2.36559,2.36559)" width="2.8" height="2.8"/><rect x="580.5" y="184.89318" transform="scale(2.36559,2.36559)" width="2.8" height="2.8"/><rect x="580.5" y="181.09318" transform="scale(2.36559,2.36559)" width="2.8" height="2.8"/><rect x="580.5" y="177.29318" transform="scale(2.36559,2.36559)" width="2.8" height="2.8"/><rect x="580.5" y="173.59318" transform="scale(2.36559,2.36559)" width="2.8" height="2.8"/><rect x="580.5" y="169.79318" transform="scale(2.36559,2.36559)" width="2.8" height="2.8"/><rect x="584.3" y="179.19318" transform="scale(2.36559,2.36559)" width="2.8" height="2.8"/><rect x="584.3" y="166.99318" transform="scale(2.36559,2.36559)" width="2.8" height="2.8"/><rect x="588" y="179.19318" transform="scale(2.36559,2.36559)" width="2.8" height="2.8"/><rect x="588" y="165.99318" transform="scale(2.36559,2.36559)" width="2.8" height="2.8"/><rect x="591.8" y="179.19318" transform="scale(2.36559,2.36559)" width="2.8" height="2.8"/><rect x="591.8" y="166.99318" transform="scale(2.36559,2.36559)" width="2.8" height="2.8"/><rect x="595.5" y="188.59318" transform="scale(2.36559,2.36559)" width="2.8" height="2.8"/><rect x="595.5" y="184.89318" transform="scale(2.36559,2.36559)" width="2.8" height="2.8"/><rect x="595.5" y="181.09318" transform="scale(2.36559,2.36559)" width="2.8" height="2.8"/><rect x="595.5" y="177.29318" transform="scale(2.36559,2.36559)" width="2.8" height="2.8"/><rect x="595.5" y="173.59318" transform="scale(2.36559,2.36559)" width="2.8" height="2.8"/><rect x="595.5" y="169.79318" transform="scale(2.36559,2.36559)" width="2.8" height="2.8"/><rect x="603" y="186.79318" transform="scale(2.36559,2.36559)" width="2.8" height="2.8"/><rect x="603" y="182.99318" transform="scale(2.36559,2.36559)" width="2.8" height="2.8"/><rect x="603" y="179.19318" transform="scale(2.36559,2.36559)" width="2.8" height="2.8"/><rect x="603" y="175.39318" transform="scale(2.36559,2.36559)" width="2.8" height="2.8"/><rect x="603" y="171.69318" transform="scale(2.36559,2.36559)" width="2.8" height="2.8"/><rect x="603" y="167.89318" transform="scale(2.36559,2.36559)" width="2.8" height="2.8"/><rect x="606.8" y="188.59318" transform="scale(2.36559,2.36559)" width="2.8" height="2.8"/><rect x="606.8" y="165.99318" transform="scale(2.36559,2.36559)" width="2.8" height="2.8"/><rect x="610.5" y="188.59318" transform="scale(2.36559,2.36559)" width="2.8" height="2.8"/><rect x="610.5" y="165.99318" transform="scale(2.36559,2.36559)" width="2.8" height="2.8"/><rect x="614.3" y="188.59318" transform="scale(2.36559,2.36559)" width="2.8" height="2.8"/><rect x="614.3" y="165.99318" transform="scale(2.36559,2.36559)" width="2.8" height="2.8"/><rect x="618" y="186.79318" transform="scale(2.36559,2.36559)" width="2.8" height="2.8"/><rect x="618" y="167.89318" transform="scale(2.36559,2.36559)" width="2.8" height="2.8"/><rect x="625.5" y="188.59318" transform="scale(2.36559,2.36559)" width="2.8" height="2.8"/><rect x="625.5" y="184.89318" transform="scale(2.36559,2.36559)" width="2.8" height="2.8"/><rect x="625.5" y="181.09318" transform="scale(2.36559,2.36559)" width="2.8" height="2.8"/><rect x="625.5" y="177.29318" transform="scale(2.36559,2.36559)" width="2.8" height="2.8"/><rect x="625.5" y="173.59318" transform="scale(2.36559,2.36559)" width="2.8" height="2.8"/><rect x="625.5" y="169.79318" transform="scale(2.36559,2.36559)" width="2.8" height="2.8"/><rect x="625.5" y="165.99318" transform="scale(2.36559,2.36559)" width="2.8" height="2.8"/><rect x="629.3" y="177.29318" transform="scale(2.36559,2.36559)" width="2.8" height="2.8"/><rect x="633" y="181.09318" transform="scale(2.36559,2.36559)" width="2.8" height="2.8"/><rect x="633" y="173.59318" transform="scale(2.36559,2.36559)" width="2.8" height="2.8"/><rect x="636.8" y="184.89318" transform="scale(2.36559,2.36559)" width="2.8" height="2.8"/><rect x="636.8" y="169.79318" transform="scale(2.36559,2.36559)" width="2.8" height="2.8"/><rect x="640.5" y="188.59318" transform="scale(2.36559,2.36559)" width="2.8" height="2.8"/><rect x="640.5" y="165.99318" transform="scale(2.36559,2.36559)" width="2.8" height="2.8"/><rect x="648" y="165.99318" transform="scale(2.36559,2.36559)" width="2.8" height="2.8"/><rect x="651.8" y="165.99318" transform="scale(2.36559,2.36559)" width="2.8" height="2.8"/><rect x="655.5" y="188.59318" transform="scale(2.36559,2.36559)" width="2.8" height="2.8"/><rect x="655.5" y="184.89318" transform="scale(2.36559,2.36559)" width="2.8" height="2.8"/><rect x="655.5" y="181.09318" transform="scale(2.36559,2.36559)" width="2.8" height="2.8"/><rect x="655.5" y="177.29318" transform="scale(2.36559,2.36559)" width="2.8" height="2.8"/><rect x="655.5" y="173.59318" transform="scale(2.36559,2.36559)" width="2.8" height="2.8"/><rect x="655.5" y="169.79318" transform="scale(2.36559,2.36559)" width="2.8" height="2.8"/><rect x="655.5" y="165.99318" transform="scale(2.36559,2.36559)" width="2.8" height="2.8"/><rect x="659.2" y="165.99318" transform="scale(2.36559,2.36559)" width="2.8" height="2.8"/><rect x="663" y="165.99318" transform="scale(2.36559,2.36559)" width="2.8" height="2.8"/></g></g><g fill="#ffffff"><path d="M954.18217,552.26529h-7.4725v-33.11828h20.88235v6.29857h-13.40986v7.67567h11.47965v6.29857h-11.47965z"/><path d="M981.35068,552.26529h-7.4725v-33.11828h11.94245c1.76089,0 3.41267,0.16932 4.95533,0.50795c1.53513,0.33863 2.87838,0.90678 4.02973,1.70445c1.15135,0.79767 2.06566,1.85495 2.74292,3.17186c0.67727,1.32443 1.0159,2.96868 1.0159,4.93275v0c0,2.43816 -0.53052,4.44361 -1.59157,6.01637c-1.06857,1.57276 -2.50212,2.75045 -4.30064,3.53307v0l7.51765,13.25183h-8.37552l-6.35501,-11.93116h-4.10874zM981.35068,525.09566v9.28982h3.86041c1.96407,0 3.46158,-0.41388 4.49253,-1.24165c1.03095,-0.82777 1.54642,-2.05437 1.54642,-3.67981v0c0,-1.62544 -0.51547,-2.76174 -1.54642,-3.4089c-1.03095,-0.63964 -2.52846,-0.95946 -4.49253,-0.95946v0z"/><path d="M1012.93269,535.50297v0l-0.81272,3.04769h7.06614l-0.76757,-3.04769c-0.47409,-1.65554 -0.92936,-3.41643 -1.36582,-5.28267c-0.44399,-1.85872 -0.88421,-3.65347 -1.32067,-5.38426v0h-0.20318c-0.40636,1.76089 -0.82024,3.56317 -1.24165,5.40684c-0.42893,1.85119 -0.88045,3.60456 -1.35453,5.26009zM1008.56433,552.26529h-7.61924l10.36216,-33.11828h8.99634l10.36216,33.11828h-7.92401l-2.0318,-7.86757h-10.11383z"/><path d="M1041.92981,552.26529h-7.11129v-33.11828h7.67567l8.63513,16.45755l3.25087,7.31447h0.20318c-0.17308,-1.76089 -0.36873,-3.72496 -0.58696,-5.89221c-0.21823,-2.16725 -0.32734,-4.23291 -0.32734,-6.19698v0v-11.68283h7.11129v33.11828h-7.67567l-8.63513,-16.5027l-3.25087,-7.21288h-0.20318c0.17308,1.82862 0.36873,3.79269 0.58696,5.89221c0.21823,2.09952 0.32734,4.13132 0.32734,6.09539v0z"/><path d="M1076.61596,552.26529h-7.46121v-33.11828h7.46121v13.56788h0.20318l9.85421,-13.56788h8.22877l-10.00095,13.20668l11.82957,19.9116h-8.17234l-8.08203,-13.96296l-3.86041,5.07949z"/><path d="M1108.356,552.26529h-7.46121v-33.11828h20.87106v6.29857h-13.40986v7.67567h11.47965v6.29857h-11.47965z"/><path d="M1141.11195,552.87483v0c-4.29687,0 -7.58161,-1.26799 -9.85421,-3.80397c-2.26508,-2.54351 -3.39761,-6.59205 -3.39761,-12.14563v0v-17.77822h7.51765v18.54579c0,3.25087 0.48914,5.51971 1.46741,6.80652c0.9858,1.2868 2.40805,1.93021 4.26677,1.93021v0c1.86624,0 3.30731,-0.6434 4.32321,-1.93021c1.0159,-1.2868 1.52385,-3.55564 1.52385,-6.80652v0v-18.54579h7.21288v17.77822c0,5.55358 -1.10996,9.60212 -3.32989,12.14563c-2.21993,2.53598 -5.46327,3.80397 -9.73005,3.80397z"/><path d="M1169.86074,552.26529h-7.4725v-33.11828h11.94245c1.76089,0 3.41267,0.16932 4.95533,0.50795c1.53513,0.33863 2.87838,0.90678 4.02973,1.70445c1.15135,0.79767 2.06566,1.85495 2.74292,3.17186c0.67727,1.32443 1.0159,2.96868 1.0159,4.93275v0c0,2.43816 -0.53052,4.44361 -1.59157,6.01637c-1.06857,1.57276 -2.50212,2.75045 -4.30064,3.53307v0l7.51765,13.25183h-8.37552l-6.35501,-11.93116h-4.10874zM1169.86074,525.09566v9.28982h3.86041c1.96407,0 3.46158,-0.41388 4.49253,-1.24165c1.03095,-0.82777 1.54642,-2.05437 1.54642,-3.67981v0c0,-1.62544 -0.51547,-2.76174 -1.54642,-3.4089c-1.03095,-0.63964 -2.52846,-0.95946 -4.49253,-0.95946v0z"/><path d="M1207.13178,552.26529h-7.51765v-26.81971h-9.08664v-6.29857h25.70222v6.29857h-9.09793z"/><path d="M1220.13415,560.39247h-4.87631l10.20413,-44.19157h4.87631z"/><path d="M1242.97944,552.26529h-6.70493v-33.11828h8.18362l5.32782,14.73052c0.33863,0.9858 0.66222,1.99417 0.97075,3.02512c0.30101,1.03095 0.62083,2.05437 0.95946,3.07027v0h0.20318c0.33863,-1.0159 0.65469,-2.03932 0.94817,-3.07027c0.28596,-1.03095 0.59825,-2.03932 0.93688,-3.02512v0l5.22623,-14.73052h8.12719v33.11828h-6.80652v-12.13434c0,-0.81272 0.03386,-1.71198 0.10159,-2.69777c0.06773,-0.97827 0.15427,-1.96783 0.25962,-2.96868c0.09783,-1.00085 0.19942,-1.98288 0.30477,-2.9461c0.09783,-0.96322 0.19942,-1.85119 0.30477,-2.66391v0h-0.20318l-2.69777,7.86757l-4.71828,12.65358h-4.12003l-4.71828,-12.65358l-2.64134,-7.86757h-0.20318c0.09783,0.81272 0.19942,1.70069 0.30477,2.66391c0.09783,0.96322 0.19942,1.94526 0.30477,2.9461c0.09783,1.00085 0.1806,1.99041 0.24833,2.96868c0.06773,0.9858 0.10159,1.88506 0.10159,2.69777v0z"/><path d="M1283.30947,535.50297v0l-0.81272,3.04769h7.05485l-0.75628,-3.04769c-0.47409,-1.65554 -0.93312,-3.41643 -1.37711,-5.28267c-0.43646,-1.85872 -0.87668,-3.65347 -1.32067,-5.38426v0h-0.20318c-0.40636,1.76089 -0.82024,3.56317 -1.24165,5.40684c-0.42141,1.85119 -0.86916,3.60456 -1.34324,5.26009zM1278.94111,552.26529h-7.61924l10.36216,-33.11828h8.98505l10.36216,33.11828h-7.92401l-2.0318,-7.86757h-10.10254z"/><path d="M1312.65651,552.26529h-7.46121v-33.11828h7.46121z"/><path d="M1328.14218,552.26529h-7.11129v-33.11828h7.67567l8.63513,16.45755l3.25087,7.31447h0.20318c-0.17308,-1.76089 -0.36873,-3.72496 -0.58696,-5.89221c-0.21823,-2.16725 -0.32734,-4.23291 -0.32734,-6.19698v0v-11.68283h7.11129v33.11828h-7.67567l-8.63513,-16.5027l-3.25087,-7.21288h-0.20318c0.17308,1.82862 0.36873,3.79269 0.58696,5.89221c0.21823,2.09952 0.32734,4.13132 0.32734,6.09539v0z"/></g></g></svg>