<svg width="1430" height="360" xmlns="http://www.w3.org/2000/svg"><path d="M1162.35 384.214c-1.55-.2-3.44.1-4.6-.674-7.08-4.773-8.01-13.6-12.81-19.906.84-3.08 1.17-6.463 2.73-9.114.74-1.269 3.83-1.59 5.85-1.567 2.52.028 4.66 1.5 7.5-.516 5.28-3.715 5.51-3.324 8.04.765 1.11 1.81 2.57 3.441 3.5 5.33a8.078 8.078 0 0 1 .9 4.453 122.325 122.325 0 0 1-2.76 14.256c-1.09 3.954-3.92 6.455-8.35 6.973zm221.82-175.782c2.12-.42 4.207-.985 6.25-1.689 5.3-2.252 10.53-1.283 15.72.148 5.19 1.431 7.07 5.609 4.03 9.815-3.4 4.723-7.37 9.044-11.22 13.433a2.549 2.549 0 0 1-2.26-.575c-1.31-2.875-2.07-5.339-6.16-6.348-6.11-1.517-11.82-4.714-17.66-7.281a1.792 1.792 0 0 1-.38-1.5c.18-.961.34-2.494.92-2.723 3.49-1.353 7.11-2.4 10.67-3.544.037.087.067.177.09.269v-.005zm58.48 115.705a4.508 4.508 0 0 1-1.08-4.182l1.08 4.182zm-393.88-10.15c-5.16 1.353-7.23 2.01-9.35 2.428a8.3 8.3 0 0 1-9.67-6.369c-.87-3.7 1.2-7.927 4.81-9.077 4.12-1.317 8.31-2.85 12.53-3.123a8.73 8.73 0 0 1 6.73 3.52c1.51 2.5 1.49 5.987 1.81 9.077.06.614-1.3 1.671-2.19 2.013a45.007 45.007 0 0 1-4.67 1.531zm332.51 1.36c.405-2.05.997-4.059 1.77-6a4.319 4.319 0 0 1 5.24-2.509c2.07.5 4.2.763 6.23 1.382 2.12.641 3.98 4.4 3.33 6.635a12.388 12.388 0 0 1-1.86 4.373c-1.5 1.832-1.56 5.264-5.38 4.746-6.02-.822-7.84-2.118-9.33-8.624v-.003zM699.8 77.641c-.2.575-.386 3.139-1.721 4.123a7.44 7.44 0 0 1-6.031.818 24.257 24.257 0 0 1-8.242-5.017 6.707 6.707 0 0 1-1.57-5.789c.538-1.5 3.118-2.846 4.978-3.134 1.976-.3 4.154 1.058 6.265 1.1 4.325.1 5.256 3.1 6.321 7.9v-.001zm295.817 304.775a43.978 43.978 0 0 1-7.4-2.187c-2.288-1.046-2.328-3.525-1.266-5.6.918-1.795 1.85-3.888 4.728-2.972 2.533.8 5.287 1 7.706 2.009 1.261.525 2.271 2.093 2.971 3.412.89 1.67-.79 3.674-3.512 4.485-.52.159-1.049.281-3.231.854l.004-.001zM579.1 100.181a19.282 19.282 0 0 1-4.8-.432c-1.92-.549-2.872-4.178-2.234-6.944.682-2.926 2.581-4.348 5.36-3.962.525.065 1.016.327 1.538.421 4.9.849 6.016 1.781 6.192 5.278.129 2.733-1.193 4.2-6.056 5.64v-.001zm684.889-9.793a44 44 0 0 1-6.59-1.093 2.423 2.423 0 0 1-1.55-3.728c3.22-5.794 8.43-6.545 13.4-1.947a3.352 3.352 0 0 1-.98 5.319c-1 .379-2.04.7-4.28 1.45v-.001zm105.36-.54c-1.306.291-2.643.42-3.98.383a3.409 3.409 0 0 1-2.18-1.855c-1.3-2.921 2.31-8.471 5.34-7.957 2.51.418 5.03 1.452 6.18 4.252.87 2.124-.7 3.865-5.36 5.178v-.001zm-311.8 155.782c.46-.726 1.05-2.124 1.36-2.063 2.62.433 5.198 1.1 7.7 1.992.55.207.65 1.876.74 2.9a1.749 1.749 0 0 1-.75 1.384c-3.07 1.611-7.73-.6-9.05-4.21v-.003zm177.2 150.964c.05-1.007.11-2.019.17-3.029 1.298.065 2.584.286 3.83.657.88.359 2 1.337 2.05 2.116.1 1.311-.16 3.417-.97 3.839-1.01.52-2.88-.064-4.08-.721-.65-.375-.69-1.873-1-2.862zm4.91-224.163a26.2 26.2 0 0 1 4.31-1.912c.91-.226 2 .283 3 .464a2.458 2.458 0 0 1-.39 1.168 75.3 75.3 0 0 1-5.83 1.469 4.137 4.137 0 0 1-1.09-1.189zm36.53-42.434a7.4 7.4 0 0 1-1.45-2.355c-.09-.5.76-1.168 1.2-1.761a6.287 6.287 0 0 1 1.44 2.189c.09.557-.74 1.259-1.19 1.927zm-25.52.908c-.66-.458-1.3-.917-1.95-1.37a7.055 7.055 0 0 1 2.32-1.485c.54-.1 1.24.776 1.88 1.219-.75.544-1.5 1.09-2.25 1.636zm-94.95 16.808a15.2 15.2 0 0 1-2.07.524 3.611 3.611 0 0 1-3.48-2.569 3.474 3.474 0 0 1 1.26-3.526c1.35-.738 2.73-1.619 4.39-.96 1.4.556 3.19.7 3.55 2.58.27 1.419-1.1 2.935-3.65 3.951zm179.98 21.607a11.11 11.11 0 0 1-2.12.855 2.609 2.609 0 0 1-1.02-.344c.052-.219.163-.419.32-.579a11.68 11.68 0 0 0 4.76-3.4c.394-.1.808-.096 1.2.011-.009.222-.05.442-.12.653a4.474 4.474 0 0 1-.95 1.7c-.645.447-1.34.818-2.07 1.106v-.002zM183.727 214.8c.146.272.218.578.209.886-2.048 2.417-4.094 4.845-6.253 7.148-.636.492-1.4.794-2.2.87-2.468.493-5.118-1.316-7.528 1.638-1.281 1.58-4.154 2.074-5.916 3.846-.768.772-2.14.981-3.279 1.362-.764.261-1.554.438-2.356.527-.9.095-13.666-5.5-13.822-6.222-.735-3.627-5.339-5.225-4.952-9.32.405-4.35 4.528-5.13 7.311-7.209a30.226 30.226 0 0 0 4.489-3.93c1.621-1.784 3.309-1.725 5.406-1.088 2.278.694 4.691.928 7 1.522 1.523.387 3.569.615 4.356 1.675 3.932 5.346 9.2 7.2 15.566 6.954.633-.024 1.3.857 1.968 1.341h.001zm-82.256 94.674c-1.145-.144-2.532.074-3.385-.5-5.214-3.509-5.891-10.006-9.427-14.646.615-2.266.864-4.756 2.007-6.708.543-.932 2.816-1.169 4.311-1.151 1.849.02 3.416 1.1 5.517-.381 3.878-2.734 4.046-2.445 5.908.564.819 1.334 1.892 2.529 2.577 3.924a5.88 5.88 0 0 1 .66 3.275 89.4 89.4 0 0 1-2.031 10.491 6.726 6.726 0 0 1-6.138 5.13l.001.002zm368.199-77.023a32.564 32.564 0 0 1-1.717 4.857c-1.235 2.449-1.342 4.457 1.065 6.232a3.1 3.1 0 0 1 .755 4.249c-.906 1.744-1.949 4.516-3.269 4.726-2.953.475-6.584.364-8.732-2.164-2.363-2.781-6.043-5.015-4.187-10.168.949-2.646-1.191-5.974-.045-9.287 1.169-3.376 4.382-6.4 7.618-5.362 2.564.83 4.847 2.587 7.144 4.1.558.364.7 1.368 1.368 2.819v-.002zM983.244 127.2a19.219 19.219 0 0 0 2.314-.618c2.553-1.03 4.709-.255 6.612 1.448 1.761 1.566 3.28 3.455 5.2 4.789 1.693 1.19 2 2.288.8 3.8-2.964 3.721-5.917 7.454-9.025 11.045-1.464 1.687-4.33 1.233-6.1-.7a73.237 73.237 0 0 1-5.556-6.232 17.123 17.123 0 0 1-2.352-5.356 5.745 5.745 0 0 1 3.509-6.759c1.5-.531 3.092-.834 4.645-1.241l-.047-.176zm260.516 143a34.364 34.364 0 0 0 4.61-1.241c3.89-1.657 7.74-.943 11.56.108 3.82 1.051 5.21 4.128 2.97 7.224-2.5 3.472-5.42 6.655-8.25 9.884a1.885 1.885 0 0 1-1.67-.423c-.96-2.115-1.52-3.93-4.53-4.674-4.5-1.115-8.7-3.467-12.99-5.355a1.278 1.278 0 0 1-.28-1.108c.13-.707.25-1.837.67-2 2.57-.994 5.23-1.768 7.86-2.612.022.065.038.132.05.2v-.003zM469.331 97.816c1.722 4.6-1.151 7.624-3.853 10.552a4.3 4.3 0 0 1-3.325 1.038c-4.311-.635-8.655-1.306-12.217-4.2-1.365-1.114-2.048-2.429-1.195-4.119.9-1.788 1.969-3.483 2.878-5.262 1.622-3.215 3.688-5.109 7.606-3.408.954.414 2.342-.3 3.51-.245 3.778.17 5.564 1.755 6.6 5.643l-.004.001zM215.419 261.924a7.223 7.223 0 0 1-3.329-.353 52.947 52.947 0 0 1-8.09-4.991 3.312 3.312 0 0 1-.8-3.075 20.883 20.883 0 0 1 3.73-6 7.858 7.858 0 0 1 10.766-.024 38.089 38.089 0 0 1 3.834 4.493 6.14 6.14 0 0 1-2.575 9.005 33.98 33.98 0 0 1-3.532.944l-.004.001zm375.254-148.601c-1.538.49-3.104.887-4.689 1.19-2.334.33-5.613-2.635-5.878-5.1-.352-3.385 2.694-8.42 5.83-9.631 4.5-1.741 10.246.255 12.509 4.351 1.148 2.089.045 6.7-1.988 7.586-1.831.792-3.8 1.263-5.713 1.879l-.071-.275zm-222.5 158.6c-3.792 1-5.32 1.482-6.878 1.788a6.1 6.1 0 0 1-7.116-4.687 5.739 5.739 0 0 1 3.539-6.679c3.034-.97 6.113-2.1 9.222-2.3a6.446 6.446 0 0 1 4.95 2.591c1.111 1.84 1.1 4.407 1.331 6.679.039.455-.956 1.232-1.609 1.483a31.6 31.6 0 0 1-3.439 1.125zm-92.478-99.877a1.82 1.82 0 0 1 .962-.055c6.686 5.028 12.876 10.557 17.58 17.561a219.662 219.662 0 0 1 3.829 5.955 1.4 1.4 0 0 1-.14 1.1.977.977 0 0 1-.759.479 5.637 5.637 0 0 1-2.241-.815c-6.273-5.346-13.933-9.411-16.412-18.267-.5-1.787-2.2-3.227-3.277-4.873.057-.394.215-.767.458-1.082v-.003zM106.4 95.518c-5.91 1.539-9.031-.631-9.711-6.939a3.633 3.633 0 0 1 1.3-2.94c3.738-2.245 7.8-1.65 11.487-.062 2.447 1.058 2.46 4 2.5 6.359.019 1.835-1.671 2.509-3.247 2.965-.769.225-1.552.413-2.327.617h-.002zm773.902 47.167a16.152 16.152 0 0 1-3.785-2.085 3.6 3.6 0 0 1-.918-3.1c1.479-3.742 3.105-7.412 7.935-8.129 1.437-.212 2.667-1.6 4.056-2.348 1.53-.829 1.969.313 2.327 1.458.133.378.225.768.277 1.165.509 5.408-5.451 10.3-9.892 13.035v.004zm-757.107.273c-.157.423-.29 2.309-1.27 3.034a5.473 5.473 0 0 1-4.438.6 17.9 17.9 0 0 1-6.067-3.691 4.925 4.925 0 0 1-1.152-4.259c.4-1.1 2.293-2.1 3.665-2.307 1.449-.221 3.053.779 4.609.813 3.18.067 3.863 2.275 4.653 5.81zM329.06 322.281a32.134 32.134 0 0 1-5.441-1.61c-1.685-.767-1.714-2.594-.932-4.119.675-1.321 1.361-2.862 3.479-2.188 1.861.587 3.887.737 5.669 1.479a5.44 5.44 0 0 1 2.188 2.508c.655 1.232-.586 2.7-2.582 3.3-.385.12-.773.208-2.381.63zm691.86-140.859a2.312 2.312 0 0 1-.85-.789c-.2-1.54-.75-3.254-.3-4.616a37.349 37.349 0 0 1 3.33-6.362c1.43-2.485 4.08-4.211 4.2-3.237.24 1.786.49 3.87-.19 5.413a89.51 89.51 0 0 1-5.31 9.336c-.265.163-.569.25-.88.255zM34.369 159.546a14.4 14.4 0 0 1-3.532-.317c-1.414-.4-2.114-3.073-1.645-5.113.5-2.151 1.9-3.2 3.946-2.912.389.046.748.24 1.131.308 3.607.628 4.427 1.314 4.559 3.884.093 2.009-.879 3.091-4.46 4.15h.001zm765.566-70.521c.254.842.367 1.72.334 2.6-.15.667-.931 1.762-1.294 1.7-2.622-.4-5.205-1.016-7.793-1.652a1.692 1.692 0 0 1-.351-1.1c-.227-3.084 3.134-6.4 6.035-5.851.763.143 1.444.57 1.906 1.194.494.992.884 2.033 1.163 3.106v.003zm-302.806 51.541a32.013 32.013 0 0 1-4.847-.805 1.779 1.779 0 0 1-1.142-2.741c2.369-4.267 6.2-4.816 9.86-1.435a2.463 2.463 0 0 1-.72 3.914c-.737.279-1.5.515-3.151 1.067zm358.479 1.154a7.184 7.184 0 0 1-2.335.544 2.729 2.729 0 0 1-1.431-1.233 1.361 1.361 0 0 1 .246-1.108c.41-.678.8-1.67 1.41-1.871 2.985-1 6.031-1.807 9.061-2.617.38-.015.74.17.947.488a1.47 1.47 0 0 1-.167 1.159c-.615 1-1.117 2.355-2.047 2.847a36.256 36.256 0 0 1-5.634 1.984l-.05-.193zm217.572 61.308c.71 2.278 1.32 4.552-.33 6.705-.178.344-.462.62-.81.791a2.641 2.641 0 0 1-1.74-.6c-1.05-1.588-1.79-3.4-2.89-4.945-1.32-1.866.28-2.855 1.05-3.985.96-1.4 3.36-1.409 3.91-.169.32.714.54 1.471.81 2.2v.003zm-457.315-51.084c-.961.213-1.946.307-2.93.278a2.514 2.514 0 0 1-1.6-1.362c-.964-2.149 1.7-6.233 3.932-5.858 1.844.306 3.694 1.07 4.543 3.129.639 1.564-.52 2.847-3.943 3.813h-.002zm420.837 7.1c.15-.689.04-2.178.72-2.783.65-.6 2.21-.6 3.23-.314a4.888 4.888 0 0 1 2.82 1.966c.455 1 .384 2.162-.19 3.1-2.28 2.291-5.51 1.422-6.58-1.971v.002zm-731.573 51.677c.335-.532.773-1.56 1-1.516a32.28 32.28 0 0 1 5.664 1.463c.412.154.477 1.381.542 2.131a1.281 1.281 0 0 1-.542 1.023c-2.264 1.182-5.694-.445-6.66-3.1l-.004-.001zM116.694 358.246c.911-1.315 1.3-2.332 2.026-2.808 1.171-.758 2.049-.067 2.58 1.129.591 1.336.039 2.3-1.191 2.511-.863.147-1.833-.417-3.415-.832zM752.727 43.253c.035-.325.154-.636.347-.9a13.665 13.665 0 0 1 3.2-1.242 2.1 2.1 0 0 1 1.743.746 4.228 4.228 0 0 1-.686 2.185 1.818 1.818 0 0 1-2.839.722 14.865 14.865 0 0 1-1.767-1.513l.002.002zM268.251 165.85a3.491 3.491 0 0 1 .136-1.416 2.513 2.513 0 0 1 1.594-.433c.663.286 1.269.69 1.786 1.195.237.228.424.503.549.808-.525.415-1.185 1.161-1.66 1.069a8.932 8.932 0 0 1-2.405-1.223zm869.189 77.856a18.546 18.546 0 0 1 3.16-1.406 5.812 5.812 0 0 1 2.21.343 1.76 1.76 0 0 1-.29.859c-1.41.418-2.85.775-4.28 1.078a2.849 2.849 0 0 1-.8-.874zM197.789 214.54c.438-.657.821-1.59 1.081-1.556.98.09 1.921.422 2.742.964.325.234.078 1.294 0 1.968-.261.151-.57.196-.864.124-.983-.438-1.928-.971-2.957-1.5h-.002zm966.523-2.059a5.613 5.613 0 0 1-1.07-1.734c.177-.504.484-.953.89-1.3a4.52 4.52 0 0 1 1.05 1.614c.08.406-.54.927-.87 1.415v.005zm-18.78.664c-.48-.336-.95-.674-1.43-1.01a5.243 5.243 0 0 1 1.71-1.093c.39-.069.91.577 1.38.9-.56.4-1.11.806-1.66 1.207v-.004zM16.613 260.1a4.591 4.591 0 0 1-1.536 1.327 4.449 4.449 0 0 1-1.954-.509 4.8 4.8 0 0 1 1.56-1.322 4.48 4.48 0 0 1 1.93.5v.004zM356.482 91.011c-.394.523-.707 1.309-1.141 1.395a4.189 4.189 0 0 1-1.819-.6 2.19 2.19 0 0 1 .668-.957c.767-.016 1.535.039 2.292.163v-.001z" fill="#A41C31" fill-rule="evenodd"/></svg>