<?xml version="1.0" encoding="UTF-8" standalone="no"?>
<!-- Created with Inkscape (http://www.inkscape.org/) -->

<svg
   width="194.53156mm"
   height="23.642002mm"
   viewBox="0 0 194.53127 23.641968"
   version="1.1"
   id="svg5"
   inkscape:version="1.2.2 (b0a8486541, 2022-12-01)"
   sodipodi:docname="KC2023einzeln.svg"
   inkscape:export-filename="KC2023einzeln.png"
   inkscape:export-xdpi="300"
   inkscape:export-ydpi="300"
   xmlns:inkscape="http://www.inkscape.org/namespaces/inkscape"
   xmlns:sodipodi="http://sodipodi.sourceforge.net/DTD/sodipodi-0.dtd"
   xmlns="http://www.w3.org/2000/svg"
   xmlns:svg="http://www.w3.org/2000/svg">
  <sodipodi:namedview
     id="namedview7"
     pagecolor="#ffffff"
     bordercolor="#eeeeee"
     borderopacity="1"
     inkscape:showpageshadow="true"
     inkscape:pageopacity="1"
     inkscape:pagecheckerboard="true"
     inkscape:deskcolor="#505050"
     inkscape:document-units="mm"
     showgrid="false"
     inkscape:zoom="1.1774113"
     inkscape:cx="341.42698"
     inkscape:cy="217.00148"
     inkscape:window-width="1692"
     inkscape:window-height="1015"
     inkscape:window-x="10"
     inkscape:window-y="55"
     inkscape:window-maximized="1"
     inkscape:current-layer="layer1" />
  <defs
     id="defs2" />
  <g
     inkscape:label="Ebene 1"
     inkscape:groupmode="layer"
     id="layer1"
     transform="translate(-9.2127497,-21.211067)">
    <g
       id="g1827">
      <path
         id="path644"
         style="font-size:8.89542px;line-height:1.25;font-family:Bungee;-inkscape-font-specification:Bungee;text-align:start;letter-spacing:0.571849px;text-anchor:start;fill:#161650;stroke-width:0.517164"
         d="m 46.429599,21.211067 c -1.197062,0 -2.188293,0.09631 -2.973461,0.289388 -0.78517,0.193074 -1.403131,0.463786 -1.853634,0.81132 -0.437637,0.347535 -0.746365,0.765581 -0.926558,1.254704 -0.167326,0.476249 -0.251148,1.010392 -0.251148,1.602486 v 6.584094 c 0,0.592095 0.08382,1.132484 0.251148,1.621607 0.180201,0.476249 0.488921,0.88805 0.926558,1.235583 0.450503,0.334662 1.068464,0.598617 1.853634,0.791683 0.785168,0.193071 1.776399,0.289905 2.973461,0.289905 1.19706,0 2.181527,-0.09684 2.953825,-0.289905 0.78517,-0.193075 1.39636,-0.457021 1.833997,-0.791683 0.450504,-0.347533 0.759752,-0.759334 0.927075,-1.235583 0.180205,-0.489123 0.270268,-1.029512 0.270268,-1.621607 v -6.584094 c 0,-0.592094 -0.09007,-1.126237 -0.270268,-1.602486 -0.167332,-0.489123 -0.476571,-0.907169 -0.927075,-1.254704 -0.437637,-0.347534 -1.048827,-0.618246 -1.833997,-0.81132 -0.772298,-0.193072 -1.756765,-0.289388 -2.953825,-0.289388 z M 9.9077977,21.500455 c -0.2445607,0 -0.4246904,0.0583 -0.5405355,0.17415 -0.1029725,0.102973 -0.1545125,0.276337 -0.1545125,0.520898 v 12.511381 c 0,0.244559 0.05154,0.424689 0.1545125,0.540536 0.1158447,0.102968 0.2959744,0.154512 0.5405355,0.154512 H 12.90038 c 0.244562,0 0.418443,-0.05155 0.521415,-0.154512 0.115845,-0.115846 0.173633,-0.295975 0.173633,-0.540536 v -4.421435 h 2.548682 c 0.205947,0 0.360565,0.0583 0.463537,0.174149 0.102973,0.115845 0.154513,0.276712 0.154513,0.482658 v 3.764628 c 0,0.24456 0.05154,0.424689 0.154512,0.540536 0.115845,0.102967 0.295975,0.154512 0.540536,0.154512 h 2.973462 c 0.244561,0 0.417925,-0.05155 0.520898,-0.154512 0.115845,-0.115846 0.17415,-0.295975 0.17415,-0.540536 v -5.444629 c 0,-0.772298 -0.219172,-1.390255 -0.656808,-1.853633 -0.424763,-0.476253 -0.997429,-0.733433 -1.718241,-0.772046 l 1.969389,-4.498951 c 0.09011,-0.205947 0.09635,-0.360048 0.01912,-0.46302 -0.07723,-0.115845 -0.225083,-0.17415 -0.443901,-0.17415 h -2.973462 c -0.244561,0 -0.443953,0.05154 -0.598413,0.154513 -0.154459,0.0901 -0.276801,0.250968 -0.366902,0.482657 l -1.988509,4.498951 h -0.772563 v -4.441073 c 0,-0.244562 -0.05779,-0.417926 -0.173633,-0.520898 -0.102973,-0.115846 -0.276854,-0.17415 -0.521415,-0.17415 z m 15.6445233,0 c -0.24456,0 -0.424689,0.0583 -0.540536,0.17415 -0.102968,0.102973 -0.154512,0.276337 -0.154512,0.520898 v 12.511381 c 0,0.244559 0.05154,0.424689 0.154512,0.540536 0.115846,0.102968 0.295975,0.154512 0.540536,0.154512 h 2.896464 c 0.244565,0 0.41793,-0.05155 0.520898,-0.154512 0.115846,-0.115846 0.17415,-0.295975 0.17415,-0.540536 v -6.371187 l 3.301607,3.996655 v 2.374532 c 0,0.24456 0.05155,0.424689 0.154513,0.540536 0.115845,0.102967 0.295974,0.154512 0.540535,0.154512 h 2.895947 c 0.244566,0 0.418448,-0.05155 0.521416,-0.154512 0.115846,-0.115846 0.173632,-0.295975 0.173632,-0.540536 V 22.195503 c 0,-0.244562 -0.05779,-0.417926 -0.173632,-0.520898 -0.102973,-0.115846 -0.276855,-0.17415 -0.521416,-0.17415 h -2.895947 c -0.24456,0 -0.424689,0.0583 -0.540535,0.17415 -0.102968,0.102973 -0.154513,0.276337 -0.154513,0.520898 v 4.112927 l -3.746024,-4.28656 c -0.167331,-0.193074 -0.340696,-0.327912 -0.520899,-0.405143 -0.167332,-0.07723 -0.373489,-0.116272 -0.61805,-0.116272 z m 31.077173,0 c -0.244558,0 -0.425206,0.0583 -0.541053,0.17415 -0.102968,0.102973 -0.153995,0.276337 -0.153995,0.520898 v 7.452775 c 0,0.411892 0.01249,0.798179 0.03824,1.158586 0.03861,0.347533 0.141693,0.759332 0.309025,1.235583 l 0.965316,2.664437 c 0.06436,0.205953 0.167437,0.373585 0.309025,0.502295 0.15446,0.128711 0.33459,0.192753 0.540536,0.192753 h 2.548681 c 0.205945,0 0.379828,-0.04477 0.521415,-0.134875 0.141588,-0.102973 0.237902,-0.251344 0.289388,-0.444418 l 0.907439,-3.147094 c 0.03862,-0.128719 0.0839,-0.212018 0.135392,-0.250631 0.06436,-0.05149 0.135164,-0.07752 0.21239,-0.07752 h 0.173633 c 0.07724,0 0.141783,0.02603 0.19327,0.07752 0.06435,0.03862 0.115375,0.121914 0.153995,0.250631 l 0.888318,3.147094 c 0.05149,0.205943 0.160815,0.354314 0.328146,0.444418 0.167331,0.0901 0.354225,0.134875 0.560172,0.134875 h 2.567802 c 0.205943,0 0.366811,-0.06404 0.482658,-0.192753 0.128715,-0.141589 0.225028,-0.309221 0.289388,-0.502295 l 0.965833,-2.625679 c 0.167335,-0.476251 0.263648,-0.88805 0.289388,-1.235584 0.03862,-0.360406 0.05788,-0.746693 0.05788,-1.158586 v -7.491532 c 0,-0.244562 -0.05779,-0.417926 -0.173633,-0.520898 -0.102972,-0.115845 -0.276854,-0.17415 -0.521415,-0.17415 h -2.876827 c -0.24456,0 -0.424689,0.0583 -0.540535,0.17415 -0.102968,0.102973 -0.154513,0.276337 -0.154513,0.520898 v 7.105509 l -1.119828,-2.432926 c -0.102974,-0.218818 -0.23833,-0.373436 -0.40566,-0.463538 -0.167332,-0.0901 -0.372972,-0.134875 -0.617534,-0.134875 h -0.810803 c -0.24456,0 -0.450717,0.04477 -0.61805,0.134875 -0.167334,0.0901 -0.302691,0.24472 -0.40566,0.463538 l -1.119828,2.432926 v -7.105509 c 0,-0.244562 -0.05779,-0.417926 -0.173633,-0.520898 -0.102973,-0.115846 -0.276854,-0.17415 -0.521415,-0.17415 z m 17.459399,0 c -0.244559,0 -0.424689,0.0583 -0.540535,0.17415 -0.102969,0.102973 -0.154513,0.276337 -0.154513,0.520898 v 12.511381 c 0,0.244559 0.05154,0.424689 0.154513,0.540536 0.115844,0.102968 0.295974,0.154512 0.540535,0.154512 H 83.9162 c 0.244565,0 0.418447,-0.05155 0.521415,-0.154512 0.115847,-0.115846 0.173633,-0.295975 0.173633,-0.540536 v -6.081799 c 0,-0.244562 -0.05779,-0.418443 -0.173633,-0.521415 -0.102972,-0.115846 -0.276854,-0.173633 -0.521415,-0.173633 h -2.799312 c -0.24456,0 -0.425206,0.05779 -0.541052,0.173633 -0.102968,0.102973 -0.154513,0.276854 -0.154513,0.521415 v 3.127974 h -2.6448 v -9.557556 c 0,-0.244562 -0.05779,-0.417926 -0.173633,-0.520898 -0.102972,-0.115846 -0.276854,-0.17415 -0.521415,-0.17415 z m 14.65957,0 c -0.244559,0 -0.424689,0.0583 -0.540535,0.17415 -0.102968,0.102973 -0.154513,0.276337 -0.154513,0.520898 v 12.511381 c 0,0.244559 0.05155,0.424689 0.154513,0.540536 0.115845,0.102968 0.295974,0.154512 0.540535,0.154512 h 8.958627 c 0.244565,0 0.418447,-0.05155 0.521415,-0.154512 0.115846,-0.115846 0.173633,-0.295975 0.173633,-0.540536 v -2.258777 c 0,-0.244562 -0.05779,-0.418442 -0.173633,-0.521415 -0.102973,-0.115845 -0.276854,-0.173633 -0.521415,-0.173633 h -5.328874 v -1.660364 h 3.765145 c 0.244566,0 0.418447,-0.05154 0.521415,-0.154512 0.115847,-0.115845 0.173633,-0.295975 0.173633,-0.540536 v -2.066023 c 0,-0.244562 -0.05779,-0.418443 -0.173633,-0.521416 -0.102972,-0.115845 -0.276854,-0.173632 -0.521415,-0.173632 h -3.765145 v -1.486731 h 5.328874 c 0.244565,0 0.418447,-0.05154 0.521415,-0.154513 0.115846,-0.115844 0.173633,-0.295975 0.173633,-0.540535 v -2.259294 c 0,-0.244562 -0.05779,-0.417926 -0.173633,-0.520898 -0.102973,-0.115846 -0.276854,-0.17415 -0.521415,-0.17415 z m 13.868407,0 c -0.24456,0 -0.4247,0.0583 -0.54054,0.17415 -0.10297,0.102973 -0.15451,0.276337 -0.15451,0.520898 v 12.511381 c 0,0.244559 0.0515,0.424689 0.15451,0.540536 0.11584,0.102968 0.29598,0.154512 0.54054,0.154512 h 6.50658 c 1.60895,0 2.79957,-0.321734 3.57187,-0.965316 0.78517,-0.643581 1.17771,-1.634812 1.17771,-2.973462 v -6.023921 c 0,-1.33865 -0.39254,-2.329364 -1.17771,-2.972945 -0.7723,-0.643582 -1.96292,-0.965833 -3.57187,-0.965833 z m 19.48666,0 c -1.60895,0 -2.80583,0.322251 -3.59099,0.965833 -0.7723,0.643582 -1.15859,1.634295 -1.15859,2.972945 v 6.023921 c 0,1.33865 0.38629,2.329881 1.15859,2.973462 0.78516,0.643582 1.98204,0.965316 3.59099,0.965316 h 6.0818 c 0.24456,0 0.41844,-0.05155 0.52142,-0.154512 0.11584,-0.115846 0.17363,-0.295975 0.17363,-0.540536 V 28.74084 c 0,-0.244561 -0.0578,-0.418443 -0.17363,-0.521415 -0.10298,-0.115845 -0.27686,-0.173633 -0.52142,-0.173633 h -2.99258 c -0.24456,0 -0.42469,0.05779 -0.54053,0.173633 -0.10297,0.102972 -0.15452,0.276854 -0.15452,0.521415 v 3.012219 h -1.87275 c -0.29605,0 -0.52147,-0.07757 -0.67593,-0.232027 -0.14159,-0.154459 -0.21239,-0.392377 -0.21239,-0.714168 v -4.614706 c 0,-0.32179 0.0968,-0.559708 0.28991,-0.714168 0.19307,-0.167331 0.48878,-0.251147 0.8878,-0.251147 h 4.01629 c 0.24456,0 0.41844,-0.05154 0.52141,-0.154513 0.11585,-0.115845 0.17364,-0.295974 0.17364,-0.540535 v -2.336292 c 0,-0.244562 -0.0578,-0.417926 -0.17364,-0.520898 -0.10297,-0.115845 -0.27685,-0.17415 -0.52141,-0.17415 z m 11.06858,0 c -0.24456,0 -0.42469,0.0583 -0.54054,0.17415 -0.10296,0.102973 -0.15451,0.276337 -0.15451,0.520898 v 12.511381 c 0,0.244559 0.0515,0.424689 0.15451,0.540536 0.11585,0.102968 0.29598,0.154512 0.54054,0.154512 h 8.95862 c 0.24457,0 0.41845,-0.05155 0.52142,-0.154512 0.11585,-0.115846 0.17415,-0.295975 0.17415,-0.540536 v -2.258777 c 0,-0.244562 -0.0583,-0.418442 -0.17415,-0.521415 -0.10297,-0.115845 -0.27685,-0.173633 -0.52142,-0.173633 h -5.32835 v -1.660364 h 3.76463 c 0.24456,0 0.41844,-0.05154 0.52141,-0.154512 0.11585,-0.115845 0.17363,-0.295975 0.17363,-0.540536 v -2.066023 c 0,-0.244562 -0.0578,-0.418443 -0.17363,-0.521416 -0.10297,-0.115845 -0.27685,-0.173632 -0.52141,-0.173632 h -3.76463 v -1.486731 h 5.32835 c 0.24457,0 0.41845,-0.05154 0.52142,-0.154513 0.11585,-0.115844 0.17415,-0.295975 0.17415,-0.540535 v -2.259294 c 0,-0.244562 -0.0583,-0.417926 -0.17415,-0.520898 -0.10297,-0.115846 -0.27685,-0.17415 -0.52142,-0.17415 z m -86.752329,1.081588 c 0.164196,0 0.297656,0.133802 0.297656,0.298173 v 0.683162 c 0,0.164031 -0.133436,0.297656 -0.297656,0.297656 -0.164174,0 -0.297656,-0.133619 -0.297656,-0.297656 v -0.683162 c 0,-0.16437 0.133437,-0.298173 0.297656,-0.298173 z m -2.566252,0.687296 c 0.106187,0 0.205445,0.05769 0.258382,0.149862 l 0.342098,0.591695 c 0.03976,0.06964 0.05008,0.15028 0.02946,0.22686 -0.02062,0.07688 -0.06971,0.14082 -0.13901,0.18035 -0.04321,0.02613 -0.09522,0.04031 -0.148311,0.04031 -0.104834,0 -0.203862,-0.05679 -0.258382,-0.148311 L 43.596181,23.71634 c -0.03951,-0.06836 -0.05037,-0.148329 -0.02997,-0.225309 0.0204,-0.07707 0.06939,-0.141604 0.137976,-0.181384 0.0456,-0.02632 0.09717,-0.04031 0.149345,-0.04031 z m 5.131987,0 v 5.17e-4 c 0.05211,0 0.103638,0.01389 0.148828,0.04031 0.06854,0.03927 0.117873,0.103333 0.138493,0.18035 0.0207,0.07707 0.0099,0.157523 -0.02997,0.226343 l -0.340547,0.592212 c -0.05457,0.09168 -0.153565,0.148311 -0.258899,0.148311 -0.05249,0 -0.104355,-0.01461 -0.149345,-0.04134 -0.06824,-0.03912 -0.117873,-0.103074 -0.138493,-0.179834 -0.02058,-0.07663 -0.0098,-0.156609 0.02997,-0.225309 l 0.342098,-0.592212 c 0.05285,-0.092 0.151924,-0.149345 0.257866,-0.149345 z m -2.57297,1.149284 c 0.925694,-0.0023 1.797881,0.342536 2.472718,0.982886 0.720248,0.683441 1.116707,1.606776 1.116727,2.599324 0,1.344642 -0.742516,2.564115 -1.937866,3.182752 -0.28216,0.146032 -0.457336,0.438346 -0.457336,0.762744 v 1.015959 c 0,0.35083 -0.21523,0.652832 -0.520382,0.780314 -0.04652,0.32641 -0.327556,0.577742 -0.666626,0.577742 -0.339583,0 -0.621303,-0.252136 -0.667143,-0.579292 -0.314091,-0.136963 -0.519865,-0.47422 -0.519865,-0.900721 v -0.895035 c 0,-0.324227 -0.174266,-0.615306 -0.454752,-0.760161 -0.585813,-0.302561 -1.076807,-0.76079 -1.420069,-1.324467 -0.353614,-0.580676 -0.533535,-1.24868 -0.519865,-1.932698 0.01788,-0.897953 0.377601,-1.754518 1.012859,-2.411739 0.635536,-0.657501 1.479542,-1.045907 2.376082,-1.092957 0.06214,-0.0032 0.123808,-0.0045 0.185518,-0.0047 z m 0.0088,0.320394 c -0.05908,0 -0.118207,0.0016 -0.177767,0.0047 -0.815204,0.04277 -1.583173,0.396305 -2.162142,0.995288 -0.578794,0.598791 -0.906174,1.37849 -0.922424,2.195215 -0.0124,0.622894 0.151032,1.23165 0.472839,1.760099 0.312658,0.513395 0.759962,0.930085 1.293462,1.205611 0.22929,0.118421 0.407113,0.306962 0.51418,0.533301 H 47.4006 c 0.107511,-0.226531 0.286209,-0.415269 0.516247,-0.534334 1.088425,-0.563313 1.764276,-1.673782 1.764234,-2.898015 0,-0.903663 -0.361223,-1.744011 -1.016993,-2.366263 -0.612265,-0.580958 -1.402913,-0.895553 -2.242757,-0.895553 z m -4.445206,0.409277 c 0.05209,0 0.103678,0.01363 0.148828,0.03979 l 0.592212,0.341581 c 0.142209,0.08309 0.190817,0.265721 0.109037,0.407211 -0.05477,0.09357 -0.151503,0.149345 -0.258899,0.149345 -0.05248,0 -0.103768,-0.01461 -0.148828,-0.04134 l -0.591179,-0.340547 c -0.142098,-0.08396 -0.191054,-0.266067 -0.109554,-0.406694 0.0526,-0.09205 0.151594,-0.149345 0.258383,-0.149346 z m 8.887829,0 c 0.106422,0 0.205056,0.05741 0.257866,0.149862 0.03967,0.06859 0.05029,0.148596 0.02945,0.225826 -0.02081,0.07698 -0.06999,0.141538 -0.13901,0.180868 l -0.592211,0.340547 c -0.04419,0.02626 -0.09531,0.04082 -0.147795,0.04082 -0.104631,0 -0.203682,-0.05681 -0.258382,-0.148312 -0.08189,-0.141733 -0.0333,-0.324187 0.108004,-0.407727 l 0.592728,-0.342098 c 0.04562,-0.02615 0.09736,-0.03979 0.149345,-0.03979 z m 55.440551,0.04031 h 2.29753 c 0.30892,0 0.53434,0.07705 0.67592,0.23151 0.15446,0.141588 0.23151,0.373257 0.23151,0.695048 v 4.691704 c 0,0.32179 -0.077,0.559708 -0.23151,0.714168 -0.14158,0.15446 -0.367,0.232027 -0.67592,0.232027 h -2.29753 z m -60.055773,0.427364 h 0.342098 c 0.182792,0 0.331763,0.148969 0.331763,0.331763 v 0.07441 c 0.191411,0.04819 0.372227,0.123115 0.541052,0.223759 l 0.05271,-0.05219 c 0.129263,-0.129221 0.339474,-0.129221 0.468705,0 l 0.241846,0.241845 c 0.06247,0.06247 0.09663,0.145921 0.09663,0.234611 0,0.08869 -0.03414,0.171625 -0.09663,0.234095 l -0.05219,0.05219 c 0.100656,0.168786 0.175569,0.350134 0.223759,0.541569 h 0.07441 c 0.18279,0 0.331267,0.14897 0.331246,0.331762 v 0.342098 c 0,0.182794 -0.148449,0.331246 -0.331246,0.331246 h -0.07441 c -0.04819,0.191414 -0.123095,0.372786 -0.223759,0.541569 l 0.05219,0.05271 c 0.06247,0.06247 0.09715,0.145405 0.09715,0.234095 0,0.08869 -0.03466,0.172131 -0.09715,0.234611 l -0.241846,0.241845 c -0.06248,0.06248 -0.145921,0.09663 -0.234611,0.09663 -0.0887,0 -0.171604,-0.03415 -0.234094,-0.09663 l -0.05271,-0.05219 c -0.168765,0.100645 -0.349618,0.175579 -0.541052,0.223759 v 0.07441 c 0,0.182794 -0.148963,0.331246 -0.331763,0.331246 h -0.342098 c -0.182797,0 -0.331763,-0.148451 -0.331763,-0.331246 v -0.07441 c -0.191411,-0.04818 -0.372252,-0.123085 -0.541052,-0.223759 l -0.05271,0.05219 c -0.06248,0.06248 -0.145404,0.09663 -0.234094,0.09663 -0.0887,0 -0.172121,-0.03415 -0.234611,-0.09663 l -0.241846,-0.241845 c -0.06247,-0.06247 -0.09715,-0.145944 -0.09715,-0.234611 0,-0.08869 0.03466,-0.171625 0.09715,-0.234095 l 0.05219,-0.05271 C 44.56419,28.875935 44.48928,28.694563 44.44109,28.503128 h -0.07441 c -0.182792,0 -0.331246,-0.148449 -0.331246,-0.331246 v -0.342098 c 0,-0.182791 0.148447,-0.331762 0.331246,-0.331762 h 0.07441 c 0.04818,-0.191436 0.123091,-0.372783 0.223759,-0.541569 l -0.05219,-0.05219 c -0.06247,-0.06247 -0.09715,-0.145405 -0.09715,-0.234095 0,-0.08869 0.03466,-0.172141 0.09715,-0.234611 l 0.241846,-0.241845 c 0.129262,-0.12922 0.339474,-0.12922 0.468705,0 l 0.05219,0.05219 c 0.168765,-0.100647 0.350131,-0.175569 0.541569,-0.223759 v -0.07441 c 0,-0.182794 0.148964,-0.331763 0.331763,-0.331763 z m 0,0.320911 c -0.0056,0 -0.01085,0.0054 -0.01085,0.01085 v 0.203605 c 0,0.0774 -0.05514,0.143613 -0.131258,0.157613 -0.239962,0.04414 -0.462618,0.136495 -0.661975,0.273885 -0.0637,0.04393 -0.149899,0.03613 -0.204639,-0.0186 l -0.14366,-0.143661 c -0.0039,-0.0039 -0.01109,-0.0039 -0.01499,0 l -0.241845,0.241846 c -0.002,0.002 -0.0031,0.0047 -0.0031,0.0078 0,0.0031 0.0012,0.0053 0.0031,0.0072 l 0.14366,0.14366 c 0.05474,0.05473 0.06251,0.140929 0.0186,0.204639 -0.137399,0.19937 -0.229735,0.422034 -0.273885,0.661975 -0.01402,0.07611 -0.08021,0.131258 -0.157614,0.131258 h -0.203605 c -0.0056,0 -0.01085,0.0054 -0.01085,0.01085 v 0.342098 c 0,0.0055 0.0055,0.01085 0.01085,0.01085 h 0.203605 c 0.0774,0 0.143504,0.05515 0.157614,0.131259 0.04414,0.239938 0.136471,0.462595 0.273885,0.661975 0.04393,0.06371 0.03614,0.149908 -0.0186,0.204638 l -0.14366,0.143661 c -0.002,0.002 -0.0031,0.0041 -0.0031,0.0072 0,0.0031 0.0012,0.0059 0.0031,0.0078 l 0.241845,0.241846 c 0.0039,0.0039 0.01109,0.0039 0.01499,0 l 0.14366,-0.143661 c 0.03103,-0.03103 0.0718,-0.04703 0.113171,-0.04703 0.03158,0 0.06336,0.0094 0.09095,0.02842 0.199393,0.137392 0.422553,0.229745 0.662492,0.273885 0.0761,0.01401 0.131258,0.0802 0.131258,0.157613 v 0.203605 c 0,0.0054 0.0055,0.01085 0.01085,0.01085 h 0.342098 c 0.0054,0 0.01085,-0.0055 0.01085,-0.01085 v -0.203605 c 0,-0.07739 0.05514,-0.143613 0.131258,-0.157613 0.23994,-0.04414 0.462615,-0.136471 0.661975,-0.273885 0.06373,-0.04393 0.149899,-0.03613 0.204639,0.0186 l 0.143144,0.143661 c 0.0039,0.0039 0.0116,0.0039 0.0155,0 l 0.241845,-0.241846 c 0.002,-0.002 0.0031,-0.0047 0.0031,-0.0078 0,-0.0031 -0.0012,-0.0053 -0.0031,-0.0072 l -0.14366,-0.143661 c -0.05477,-0.05473 -0.06251,-0.140928 -0.0186,-0.204638 0.137394,-0.199392 0.229219,-0.422036 0.273369,-0.661975 0.014,-0.07611 0.08073,-0.131259 0.158129,-0.131259 h 0.203606 c 0.0054,0 0.01033,-0.0054 0.01033,-0.01085 v -0.342098 c 0,-0.0055 -0.0049,-0.01085 -0.01033,-0.01085 H 48.26928 c -0.0774,0 -0.144019,-0.05515 -0.158129,-0.131258 -0.04414,-0.239941 -0.135977,-0.462604 -0.273369,-0.661975 -0.0439,-0.06371 -0.03614,-0.149909 0.0186,-0.204639 l 0.14366,-0.14366 c 0.002,-0.002 0.0031,-0.0041 0.0031,-0.0072 0,-0.0031 -0.0012,-0.0059 -0.0031,-0.0078 l -0.241845,-0.241846 c -0.0039,-0.0039 -0.0116,-0.0039 -0.0155,0 l -0.143144,0.143144 c -0.05474,0.05473 -0.140939,0.06305 -0.204639,0.01912 -0.199369,-0.137391 -0.422013,-0.229745 -0.661975,-0.273885 -0.0761,-0.01401 -0.131258,-0.08021 -0.131258,-0.157613 v -0.203605 c 0,-0.0055 -0.0055,-0.01085 -0.01085,-0.01085 z m 0.171049,0.7059 c 0.748841,0 1.358057,0.609214 1.358057,1.358056 0,0.748846 -0.609216,1.358057 -1.358057,1.358057 -0.748842,0 -1.358057,-0.609211 -1.358057,-1.358057 0,-0.748842 0.609215,-1.358056 1.358057,-1.358056 z m 0,0.32091 c -0.571949,0 -1.037146,0.465196 -1.037146,1.037146 0,0.571954 0.465197,1.037146 1.037146,1.037146 0.57195,0 1.037146,-0.465192 1.037146,-1.037146 0,-0.57195 -0.465196,-1.037146 -1.037146,-1.037146 z m 0,0.363286 c 0.371473,0 0.673861,0.302391 0.673861,0.67386 0,0.371471 -0.302388,0.673861 -0.673861,0.673861 -0.37147,0 -0.673861,-0.30239 -0.673861,-0.673861 0,-0.371469 0.302391,-0.67386 0.673861,-0.67386 z m 0,0.32091 c -0.194574,0 -0.35295,0.158375 -0.35295,0.35295 0,0.19458 0.158365,0.35295 0.35295,0.35295 0.194572,0 0.35295,-0.158371 0.35295,-0.35295 0,-0.194575 -0.158365,-0.35295 -0.35295,-0.35295 z m -5.13147,0.06563 h 0.683163 c 0.164192,0 0.298173,0.133824 0.298173,0.298173 0,0.164349 -0.133978,0.298149 -0.298173,0.298174 h -0.683163 c -0.164196,0 -0.297656,-0.133803 -0.297656,-0.298174 0,-0.16435 0.133436,-0.298173 0.297656,-0.298173 z m 9.579777,0 h 0.683163 c 0.164198,0 0.297656,0.133824 0.297656,0.298173 0,0.164368 -0.133436,0.298174 -0.297656,0.298174 h -0.683163 c -0.164224,0 -0.298173,-0.133803 -0.298173,-0.298174 0,-0.16435 0.133932,-0.298173 0.298173,-0.298173 z m -8.299752,2.224154 c 0.106185,0 0.205016,0.05705 0.257866,0.148828 0.08161,0.14084 0.03315,0.324007 -0.108521,0.407727 l -0.592728,0.341065 c -0.04543,0.02597 -0.09744,0.03979 -0.149862,0.03979 -0.106652,0 -0.205445,-0.05785 -0.257865,-0.150379 -0.0395,-0.06815 -0.05008,-0.147766 -0.02946,-0.224276 0.0206,-0.07664 0.07029,-0.1407 0.139526,-0.18035 l 0.591696,-0.342098 c 0.04571,-0.0262 0.09728,-0.04031 0.149344,-0.04031 z m 7.703406,0 c 0.05205,0 0.103658,0.01415 0.148828,0.04031 l 0.592212,0.342098 c 0.06902,0.03949 0.11839,0.103613 0.13901,0.18035 0.02055,0.07651 0.0097,0.156619 -0.02997,0.225826 -0.05457,0.09198 -0.153481,0.148829 -0.258899,0.148829 -0.05162,0 -0.102545,-0.014 -0.147795,-0.03979 l -0.592729,-0.341065 c -0.1423,-0.08411 -0.190737,-0.266747 -0.109037,-0.407727 0.05391,-0.0918 0.152722,-0.148828 0.258382,-0.148828 z m -4.734078,1.816427 c 0.01021,0.06253 0.0155,0.126313 0.0155,0.191203 v 0.172599 h 1.732711 v -0.171566 c 0,-0.06517 0.0055,-0.129446 0.0155,-0.192236 h -1.7632 z m 0.01602,0.684712 v 0.363803 c 0.0034,-2.53e-4 0.0068,-5.17e-4 0.01034,-5.17e-4 h 1.711007 c 0.0037,0 0.0074,2.82e-4 0.01085,5.17e-4 v -0.363803 z m 0.04393,0.684196 c 0.07729,0.225097 0.251319,0.363286 0.480074,0.363286 h 0.684196 c 0.232992,0 0.431304,-0.152603 0.499194,-0.363286 z m 0.508496,0.684196 c 0.05853,0.11409 0.176891,0.192753 0.313676,0.192753 0.136806,0 0.255693,-0.07868 0.314193,-0.192753 z" />
      <path
         id="path662"
         style="font-size:8.89542px;line-height:1.25;font-family:Bungee;-inkscape-font-specification:Bungee;text-align:start;letter-spacing:0.571849px;text-anchor:start;fill:#5f5fd3;stroke-width:0.517164"
         d="m 150.78602,21.500455 c -1.60895,0 -2.80582,0.328499 -3.59099,0.984953 -0.7723,0.643581 -1.15859,1.634812 -1.15859,2.973462 v 6.004284 c 0,1.33865 0.38629,2.329881 1.15859,2.973462 0.78517,0.643582 1.98204,0.965316 3.59099,0.965316 h 4.71134 c 0.24457,0 0.41845,-0.05155 0.52142,-0.154512 0.11584,-0.115846 0.17363,-0.295975 0.17363,-0.540536 V 32.40935 c 0,-0.244561 -0.0578,-0.418443 -0.17363,-0.521415 -0.10297,-0.115846 -0.27685,-0.173633 -0.52142,-0.173633 h -3.8809 c -0.39902,0 -0.69524,-0.0708 -0.88832,-0.21239 -0.19307,-0.15446 -0.28939,-0.392378 -0.28939,-0.714169 v -4.595585 c 0,-0.32179 0.0963,-0.559708 0.28939,-0.714168 0.19308,-0.167331 0.4893,-0.251147 0.88832,-0.251147 h 3.8809 c 0.24457,0 0.41845,-0.05154 0.52142,-0.154513 0.11584,-0.115845 0.17363,-0.295974 0.17363,-0.540535 v -2.336292 c 0,-0.244562 -0.0578,-0.417926 -0.17363,-0.520898 -0.10297,-0.115845 -0.27685,-0.17415 -0.52142,-0.17415 z m 11.95689,0 c -0.25743,0 -0.46983,0.05154 -0.63717,0.154513 -0.15446,0.102972 -0.27004,0.26384 -0.34726,0.482657 l -1.68,4.383195 c -0.25744,0.669325 -0.45007,1.255006 -0.57878,1.756999 -0.11585,0.501994 -0.17415,0.94607 -0.17415,1.332219 v 5.096846 c 0,0.24456 0.0515,0.424689 0.15451,0.540536 0.11584,0.102967 0.29597,0.154512 0.54054,0.154512 h 2.83859 c 0.24456,0 0.41793,-0.05155 0.52089,-0.154512 0.11585,-0.115846 0.17415,-0.295975 0.17415,-0.540536 V 32.00369 h 3.41737 v 2.703194 c 0,0.24456 0.0578,0.424689 0.17363,0.540536 0.12872,0.102967 0.32186,0.154512 0.57929,0.154512 h 2.91559 c 0.24456,0 0.41792,-0.05155 0.52089,-0.154512 0.11584,-0.115846 0.17415,-0.295975 0.17415,-0.540536 v -5.096846 c 0,-0.386149 -0.0646,-0.830225 -0.19327,-1.332219 -0.11584,-0.501993 -0.30274,-1.087674 -0.56017,-1.756999 l -1.67948,-4.383195 c -0.0772,-0.218817 -0.19957,-0.379685 -0.36691,-0.482657 -0.15446,-0.102973 -0.35385,-0.154513 -0.59841,-0.154513 z m 12.90309,0 c -0.24456,0 -0.42469,0.0583 -0.54053,0.17415 -0.10297,0.102973 -0.15452,0.276337 -0.15452,0.520898 v 12.511381 c 0,0.244559 0.0515,0.424689 0.15452,0.540536 0.11584,0.102968 0.29597,0.154512 0.54053,0.154512 h 2.87683 c 0.24457,0 0.41845,-0.05155 0.52141,-0.154512 0.11585,-0.115846 0.17364,-0.295975 0.17364,-0.540536 v -6.795968 l 1.13895,2.104265 c 0.11584,0.218818 0.2512,0.379685 0.40566,0.482658 0.16732,0.0901 0.37348,0.135392 0.61805,0.135392 h 0.77204 c 0.24457,0 0.44395,-0.04529 0.59841,-0.135392 0.16733,-0.102974 0.30894,-0.26384 0.42478,-0.482658 l 1.13947,-2.104265 v 6.795968 c 0,0.24456 0.0516,0.424689 0.15451,0.540536 0.11585,0.102967 0.29598,0.154512 0.54054,0.154512 h 2.97294 c 0.24457,0 0.41845,-0.05155 0.52142,-0.154512 0.11584,-0.115846 0.17363,-0.295975 0.17363,-0.540536 V 22.195503 c 0,-0.244562 -0.0578,-0.417926 -0.17363,-0.520898 -0.10297,-0.115846 -0.27685,-0.17415 -0.52142,-0.17415 h -3.12745 c -0.20595,0 -0.37983,0.04529 -0.52142,0.135392 -0.12871,0.0901 -0.25106,0.237954 -0.3669,0.443901 l -1.71824,3.147095 c -0.0644,0.115844 -0.12217,0.19966 -0.17364,0.251147 -0.0386,0.05149 -0.0969,0.07752 -0.17415,0.07752 h -0.17363 c -0.0772,0 -0.1418,-0.02603 -0.19327,-0.07752 -0.0386,-0.05149 -0.0897,-0.135302 -0.15399,-0.251147 l -1.73788,-3.147095 c -0.11584,-0.205947 -0.24444,-0.353799 -0.38603,-0.443901 -0.12872,-0.0901 -0.29634,-0.135392 -0.50229,-0.135392 z m 17.63303,0 c -0.24456,0 -0.42469,0.0583 -0.54053,0.17415 -0.10297,0.102973 -0.15451,0.276337 -0.15451,0.520898 v 12.511381 c 0,0.244559 0.0515,0.424689 0.15451,0.540536 0.11584,0.102968 0.29597,0.154512 0.54053,0.154512 h 2.9931 c 0.24457,0 0.41793,-0.05155 0.5209,-0.154512 0.11585,-0.115846 0.17415,-0.295975 0.17415,-0.540536 v -3.204972 h 2.22002 c 1.75054,0 2.94793,-0.347246 3.59151,-1.042314 0.64358,-0.695069 0.96532,-1.603 0.96532,-2.722831 V 25.2656 c 0,-1.119832 -0.32174,-2.027247 -0.96532,-2.722315 -0.64358,-0.695068 -1.84097,-1.04283 -3.59151,-1.04283 z m 3.64939,3.610632 h 1.73737 c 0.37327,0 0.61795,0.09683 0.7338,0.289905 0.11585,0.193075 0.17415,0.41173 0.17415,0.656291 v 1.023193 c 0,0.244561 -0.0583,0.463216 -0.17415,0.656291 -0.11585,0.193074 -0.36053,0.289905 -0.7338,0.289905 h -1.73737 z m -31.90709,0.115756 h 0.48266 c 0.0772,0 0.1418,0.02603 0.19326,0.07751 0.0644,0.05149 0.12217,0.135302 0.17364,0.251148 l 0.90744,2.934704 h -3.03134 l 0.90743,-2.934704 c 0.0515,-0.115845 0.10305,-0.199661 0.15452,-0.251148 0.0644,-0.05149 0.13516,-0.07751 0.21239,-0.07751 z" />
      <path
         id="path1734"
         style="font-weight:500;font-size:7.72054px;line-height:1.25;font-family:'MonoLisa 2022-1';-inkscape-font-specification:'MonoLisa 2022-1 Medium';text-align:center;letter-spacing:1.42614px;text-anchor:middle;fill:#161650;stroke-width:0.206799"
         d="m 36.079327,36.931554 v 1.12758 h 1.019059 v -1.12758 z m 70.040173,0 v 1.12758 h 1.01906 v -1.12758 z m 4.62245,0.664043 v 0.726053 h 1.44384 v 3.29644 c 0,1.181241 0.57903,1.767851 1.54409,1.767851 0.39375,0 0.76417,-0.09264 1.11932,-0.254765 v -0.787549 c -0.3011,0.185292 -0.66422,0.285771 -0.96532,0.285771 -0.6022,0 -0.88005,-0.401633 -0.88005,-1.07332 v -3.960481 z m 41.2378,0 v 2.022615 c -0.27794,-0.409188 -0.70239,-0.633036 -1.24282,-0.633036 -1.02684,0 -1.63711,0.834003 -1.63711,2.23914 0,1.358813 0.61027,2.161625 1.63711,2.161625 0.58676,0 1.03412,-0.270211 1.31206,-0.772046 l 0.13126,0.695048 h 0.61805 V 37.595597 Z M 9.2127497,37.904622 v 5.404321 h 1.8298623 c 1.196682,0 1.906861,-0.594715 1.906861,-1.606104 0,-0.633084 -0.332016,-1.088623 -0.911056,-1.297078 0.432351,-0.247057 0.671794,-0.655872 0.671794,-1.196309 0,-0.818377 -0.656064,-1.30483 -1.7601,-1.30483 z m 39.1299113,0.208256 -0.17725,0.949813 -0.918807,0.200504 v 0.525033 h 0.918807 v 2.184879 c 0,0.795214 0.516992,1.412834 1.605587,1.412834 0.339703,0 0.695252,-0.06138 1.004073,-0.161747 v -0.772046 c -0.28566,0.115808 -0.617707,0.17725 -0.918807,0.17725 -0.648525,0 -0.872815,-0.285621 -0.872815,-0.764295 v -2.076875 h 1.791622 v -0.725537 h -1.791622 v -0.949813 z m 44.57144,0 -0.177767,0.949813 -0.918807,0.200504 v 0.525033 h 0.918807 v 2.184879 c 0,0.795214 0.516992,1.412834 1.605586,1.412834 0.339704,0 0.695253,-0.06138 1.004074,-0.161747 v -0.772046 c -0.28566,0.115808 -0.617707,0.17725 -0.918807,0.17725 -0.648525,0 -0.872299,-0.285621 -0.872299,-0.764295 v -2.076875 h 1.791106 v -0.725537 h -1.791106 v -0.949813 z m 76.407219,0 -0.17776,0.949813 -0.91881,0.200504 v 0.525033 h 0.91881 v 2.184879 c 0,0.795214 0.5175,1.412834 1.6061,1.412834 0.3397,0 0.69474,-0.06138 1.00356,-0.161747 v -0.772046 c -0.28566,0.115808 -0.61771,0.17725 -0.91881,0.17725 -0.64852,0 -0.8723,-0.285621 -0.8723,-0.764295 v -2.076875 h 1.79111 v -0.725537 h -1.79111 V 38.112878 Z M 24.873293,38.26739 24.57977,39.108683 c -0.239336,-0.08493 -0.532563,-0.123507 -0.864546,-0.123507 -1.181241,0 -1.875855,0.50208 -1.875855,1.351339 0,0.494114 0.27018,0.857051 0.764295,1.050065 l -0.401526,1.11156 0.463021,0.470772 c 0.980507,0 2.285648,0.05414 2.285648,0.540536 0,0.331982 -0.586978,0.563821 -3.150195,0.571541 v 0.772046 c 2.848877,0 4.00699,-0.463084 4.00699,-1.381828 0,-0.849258 -0.988149,-1.150472 -2.817915,-1.189075 l 0.123506,-0.772046 c 0.13897,0.02316 0.293139,0.03101 0.45527,0.03101 1.181241,0 1.876371,-0.494266 1.876371,-1.328084 0,-0.370585 -0.146842,-0.671596 -0.42478,-0.88005 l 0.779797,-1.065568 z m 57.305546,0 -0.293523,0.841293 c -0.239335,-0.08493 -0.532564,-0.123507 -0.864546,-0.123507 -1.181242,0 -1.875855,0.50208 -1.875855,1.351339 0,0.494114 0.270181,0.857051 0.764295,1.050065 l -0.401526,1.11156 0.463021,0.470772 c 0.980508,0 2.285648,0.05414 2.285648,0.540536 0,0.331982 -0.586979,0.563821 -3.150195,0.571541 v 0.772046 c 2.848876,0 4.00699,-0.463084 4.00699,-1.381828 0,-0.849258 -0.988149,-1.150472 -2.817915,-1.189075 l 0.123506,-0.772046 c 0.138969,0.02316 0.293138,0.03101 0.45527,0.03101 1.18124,0 1.876371,-0.494266 1.876371,-1.328084 0,-0.370585 -0.146841,-0.671596 -0.42478,-0.88005 l 0.779797,-1.065568 z m -72.101543,0.393775 h 0.818555 c 0.687128,0 0.942061,0.192851 0.942061,0.733288 0,0.540438 -0.254933,0.733806 -0.942061,0.733806 h -0.818555 z m 53.779663,0.154512 c -0.710289,0 -1.536738,0.43203 -2.023132,1.080554 l -0.153996,-0.83354 h -1.498099 v 0.725537 h 0.880049 v 2.794661 h -1.11156 v 0.726054 h 3.551721 v -0.726054 h -1.621606 v -2.230871 c 0.563599,-0.409188 1.243172,-0.625285 1.976623,-0.625285 z m -46.455045,0.169499 c -1.30477,0 -2.053621,0.980578 -2.053621,2.339392 0,1.320212 0.77991,2.061373 1.968872,2.061373 0.548158,0 1.08861,-0.146325 1.551843,-0.424264 v -0.772046 c -0.416909,0.262498 -0.911247,0.439767 -1.474846,0.439767 -0.71801,0 -1.104087,-0.293308 -1.173571,-1.142566 h 3.011185 c 0.0077,-0.13897 0.0078,-0.254867 0.0078,-0.409277 0,-1.320211 -0.656372,-2.092379 -1.837614,-2.092379 z m 12.734623,0 c -1.30477,0 -2.053621,0.980578 -2.053621,2.339392 0,1.320212 0.77991,2.061373 1.968872,2.061373 0.548157,0 1.088611,-0.146325 1.551843,-0.424264 v -0.772046 c -0.416909,0.262498 -0.911247,0.439767 -1.474845,0.439767 -0.718011,0 -1.104087,-0.293308 -1.173572,-1.142566 H 31.9664 c 0.0077,-0.13897 0.0078,-0.254867 0.0078,-0.409277 0,-1.320211 -0.656372,-2.092379 -1.837614,-2.092379 z m 12.595614,0 c -1.065433,0 -1.652096,0.54059 -1.652096,1.328084 0,1.598151 2.501656,0.934312 2.501656,1.837614 0,0.293381 -0.27825,0.478524 -0.980818,0.478524 -0.517276,0 -1.003531,-0.107867 -1.513086,-0.331763 v 0.772046 c 0.501834,0.239337 1.126944,0.31626 1.613338,0.31626 1.119477,0 1.72961,-0.517274 1.72961,-1.289327 0,-1.605871 -2.516642,-0.864372 -2.516642,-1.8526 0,-0.308822 0.24682,-0.501778 0.97255,-0.501778 0.42463,0 0.795006,0.05367 1.366325,0.293005 v -0.772046 c -0.486393,-0.185293 -1.073046,-0.278019 -1.520837,-0.278019 z m 12.873633,0 c -1.30477,0 -2.053622,0.980578 -2.053622,2.339392 0,1.320212 0.77991,2.061373 1.968872,2.061373 0.548158,0 1.088612,-0.146325 1.551843,-0.424264 v -0.772046 c -0.416908,0.262498 -0.911245,0.439767 -1.474845,0.439767 -0.718009,0 -1.104087,-0.293308 -1.173572,-1.142566 h 3.011186 c 0.0077,-0.13897 0.0078,-0.254867 0.0078,-0.409277 0,-1.320211 -0.656373,-2.092379 -1.837613,-2.092379 z m 19.595703,0 c -0.663966,0 -1.204181,0.3861 -1.62109,1.050065 l -0.146761,-0.97255 h -0.617533 v 4.246252 h 0.818554 v -2.709912 c 0.548158,-0.663965 0.872419,-0.918807 1.289327,-0.918807 0.463232,0 0.656291,0.270025 0.656291,0.725537 v 2.903182 h 0.818038 v -3.003434 c 0,-0.895582 -0.478816,-1.320333 -1.196826,-1.320333 z m 24.975223,0 c -1.304769,0 -2.053625,0.980578 -2.053625,2.339392 0,1.320212 0.779908,2.061373 1.968875,2.061373 0.54816,0 1.0886,-0.146325 1.55184,-0.424264 v -0.772046 c -0.41691,0.262498 -0.91125,0.439767 -1.47485,0.439767 -0.718,0 -1.104082,-0.293308 -1.173567,-1.142566 h 3.011187 c 0.008,-0.13897 0.008,-0.254867 0.008,-0.409277 0,-1.320211 -0.65636,-2.092379 -1.83761,-2.092379 z m 19.10167,0 c -1.30477,0 -2.05362,0.980578 -2.05362,2.339392 0,1.320212 0.77991,2.061373 1.96887,2.061373 0.54816,0 1.08862,-0.146325 1.55185,-0.424264 v -0.772046 c -0.41691,0.262498 -0.91125,0.439767 -1.47485,0.439767 -0.71801,0 -1.10357,-0.293308 -1.17305,-1.142566 h 3.01067 c 0.008,-0.13897 0.008,-0.254867 0.008,-0.409277 h -5.1e-4 c 0,-1.320211 -0.65638,-2.092379 -1.83762,-2.092379 z m 6.8616,0 c -0.66396,0 -1.20418,0.3861 -1.62109,1.050065 l -0.14676,-0.97255 h -0.61805 v 4.246252 h 0.81855 v -2.709912 c 0.54816,-0.663965 0.87242,-0.918807 1.28933,-0.918807 0.46324,0 0.65629,0.270025 0.65629,0.725537 v 2.903182 h 0.81856 v -3.003434 c 0,-0.895582 -0.47882,-1.320333 -1.19683,-1.320333 z m 19.10168,0 c -0.66397,0 -1.20418,0.3861 -1.62109,1.050065 l -0.14676,-0.97255 h -0.61754 v 4.246252 h 0.81804 v -2.709912 c 0.54816,-0.663965 0.87242,-0.918807 1.28933,-0.918807 0.46323,0 0.65629,0.270025 0.65629,0.725537 v 2.903182 h 0.81855 v -3.003434 c 0,-0.895582 -0.47881,-1.320333 -1.19682,-1.320333 z m 18.46915,0 c -1.06543,0 -1.65261,0.54059 -1.65261,1.328084 0,1.598151 2.50166,0.934312 2.50166,1.837614 0,0.293381 -0.27774,0.478524 -0.98031,0.478524 -0.51726,0 -1.00405,-0.107867 -1.5136,-0.331763 v 0.772046 c 0.50183,0.239337 1.12746,0.31626 1.61386,0.31626 1.11948,0 1.72909,-0.517274 1.72909,-1.289327 0,-1.605871 -2.51664,-0.864372 -2.51664,-1.8526 0,-0.308822 0.24682,-0.501778 0.97255,-0.501778 0.42463,0 0.79552,0.05367 1.36684,0.293005 v -0.772046 c -0.4864,-0.185293 -1.07305,-0.278019 -1.52084,-0.278019 z m 12.84263,0 c -0.45552,0 -1.00414,0.116043 -1.53686,0.316776 v 0.772046 c 0.51727,-0.231615 0.91112,-0.331762 1.44384,-0.331762 0.54816,0 0.82631,0.223485 0.82631,0.671276 v 0.324528 c -2.02278,0.0077 -2.67891,0.578717 -2.67891,1.466578 0,0.741171 0.49375,1.181323 1.32757,1.181323 0.69485,0 1.15049,-0.277817 1.45159,-0.872298 l 0.14676,0.7953 h 0.8108 l -0.23926,-1.30483 v -1.667598 c 0,-0.818377 -0.57134,-1.351339 -1.55184,-1.351339 z m 13.25914,0 c -0.66397,0 -1.20418,0.3861 -1.62109,1.050065 l -0.14676,-0.97255 h -0.61754 v 4.246252 h 0.81856 v -2.709912 c 0.54815,-0.663965 0.87242,-0.918807 1.28933,-0.918807 0.46323,0 0.65577,0.270025 0.65577,0.725537 v 2.903182 h 0.81855 v -3.003434 c 0,-0.895582 -0.47881,-1.320333 -1.19682,-1.320333 z m 5.87354,0 c -1.30477,0 -2.05362,0.980578 -2.05362,2.339392 0,1.320212 0.7794,2.061373 1.96836,2.061373 0.54816,0 1.08861,-0.146325 1.55184,-0.424264 v -0.772046 c -0.41691,0.262498 -0.91073,0.439767 -1.47433,0.439767 -0.71801,0 -1.10409,-0.293308 -1.17357,-1.142566 h 3.01067 c 0.008,-0.13897 0.008,-0.254867 0.008,-0.409277 h -5.2e-4 c 0,-1.320211 -0.65586,-2.092379 -1.8371,-2.092379 z m 6.86108,0 c -0.66396,0 -1.20418,0.3861 -1.62109,1.050065 l -0.14676,-0.97255 h -0.61753 v 4.246252 h 0.81804 v -2.709912 c 0.54816,-0.663965 0.87242,-0.918807 1.28932,-0.918807 0.46324,0 0.65629,0.270025 0.65629,0.725537 v 2.903182 h 0.81856 v -3.003434 c 0,-0.895582 -0.47882,-1.320333 -1.19683,-1.320333 z m -167.633693,0.07751 v 0.725537 h 1.312581 v 2.794661 h -1.544092 v 0.726054 h 3.551205 v -0.726054 h -1.189075 v -3.520198 z m 31.504536,0 v 3.003434 c 0,0.895582 0.478301,1.319816 1.19631,1.319816 0.663965,0 1.204698,-0.3861 1.621606,-1.050065 l 0.146761,0.973067 h 0.617534 v -4.246252 h -0.818555 v 2.709912 c -0.548158,0.663965 -0.872417,0.918807 -1.289327,0.918807 -0.463231,0 -0.656291,-0.270543 -0.656291,-0.726054 v -2.902665 z m 38.535637,0 v 0.725537 h 1.31258 v 2.794661 h -1.54409 v 0.726054 h 3.5512 v -0.726054 h -1.18907 v -3.520198 z m 31.50453,0 v 3.003434 c 0,0.895582 0.4783,1.319816 1.19631,1.319816 0.66396,0 1.2047,-0.3861 1.62161,-1.050065 l 0.14676,0.973067 h 0.61753 v -4.246252 h -0.81855 v 2.709912 c -0.54816,0.663965 -0.87243,0.918807 -1.28933,0.918807 -0.46324,0 -0.65629,-0.270543 -0.65629,-0.726054 v -2.902665 z m 44.57093,0 v 3.003434 c 0,0.895582 0.4783,1.319816 1.19631,1.319816 0.66396,0 1.20469,-0.3861 1.6216,-1.050065 l 0.14676,0.973067 h 0.61754 v -4.246252 h -0.81856 v 2.709912 c -0.54816,0.663965 -0.87242,0.918807 -1.28933,0.918807 -0.46323,0 -0.65629,-0.270543 -0.65629,-0.726054 v -2.902665 z m -30.0607,0.648539 c 0.74117,0 1.01131,0.40905 1.01131,1.513086 0,1.049993 -0.27014,1.436088 -1.01131,1.436088 -0.74117,0 -1.01131,-0.40905 -1.01131,-1.513086 0,-1.049993 0.27014,-1.436088 1.01131,-1.436088 z m -133.62027,0.03101 c 0.687128,0 0.957295,0.269774 1.01906,1.049548 h -2.146639 c 0.07721,-0.779774 0.40957,-1.049548 1.127579,-1.049548 z m 6.297807,0 c 0.656246,0 0.941545,0.154415 0.941545,0.517281 0,0.362864 -0.285299,0.516764 -0.941545,0.516764 -0.663965,0 -0.949813,-0.1539 -0.949813,-0.516764 0,-0.362866 0.285848,-0.517281 0.949813,-0.517281 z m 6.436817,0 c 0.687127,0 0.957294,0.269774 1.019059,1.049548 h -2.146639 c 0.07721,-0.779774 0.40957,-1.049548 1.12758,-1.049548 z m 25.468729,0 c 0.687128,0 0.957296,0.269774 1.01906,1.049548 H 54.42446 c 0.07721,-0.779774 0.409054,-1.049548 1.127063,-1.049548 z m 25.4,0 c 0.656246,0 0.941545,0.154415 0.941545,0.517281 0,0.362864 -0.285299,0.516764 -0.941545,0.516764 -0.663965,0 -0.949813,-0.1539 -0.949813,-0.516764 0,-0.362866 0.285848,-0.517281 0.949813,-0.517281 z m 19.170927,0 c 0.68713,0 0.95781,0.269774 1.01957,1.049548 h -2.146637 c 0.07721,-0.779774 0.409054,-1.049548 1.127067,-1.049548 z m 19.10219,0 c 0.68712,0 0.95729,0.269774 1.01906,1.049548 h -2.14612 c 0.0772,-0.779774 0.40905,-1.049548 1.12706,-1.049548 z m 76.40722,0 c 0.68713,0 0.95729,0.269774 1.01906,1.049548 h -2.14612 c 0.0772,-0.779774 0.40905,-1.049548 1.12706,-1.049548 z M 10.077296,40.884802 h 1.042314 c 0.687127,0 0.942061,0.223649 0.942061,0.841292 0,0.602201 -0.254934,0.826306 -0.942061,0.826306 h -1.042314 z m 167.209434,0.378271 v 0.308508 c 0,0.640804 -0.46319,1.057817 -1.15032,1.057817 -0.46324,0 -0.67179,-0.20044 -0.67179,-0.571025 0,-0.57904 0.49417,-0.78758 1.82211,-0.7953 z" />
    </g>
  </g>
</svg>
