<?xml version="1.0" encoding="UTF-8" standalone="no"?>
<!-- Created with Inkscape (http://www.inkscape.org/) -->

<svg
   xmlns:dc="http://purl.org/dc/elements/1.1/"
   xmlns:cc="http://creativecommons.org/ns#"
   xmlns:rdf="http://www.w3.org/1999/02/22-rdf-syntax-ns#"
   xmlns:svg="http://www.w3.org/2000/svg"
   xmlns="http://www.w3.org/2000/svg"
   xmlns:xlink="http://www.w3.org/1999/xlink"
   xmlns:sodipodi="http://sodipodi.sourceforge.net/DTD/sodipodi-0.dtd"
   xmlns:inkscape="http://www.inkscape.org/namespaces/inkscape"
   id="svg4192"
   version="1.1"
   inkscape:version="0.91 r13725"
   width="297mm"
   height="210mm"
   viewBox="0 0 1052.3622 744.09449"
   sodipodi:docname="logo-final_embedded.svg"
   inkscape:export-filename="/home/smash/nextCloud/Documents/bbq2018/logo/1079752.png.png"
   inkscape:export-xdpi="90"
   inkscape:export-ydpi="90">
  <metadata
     id="metadata4198">
    <rdf:RDF>
      <cc:Work
         rdf:about="">
        <dc:format>image/svg+xml</dc:format>
        <dc:type
           rdf:resource="http://purl.org/dc/dcmitype/StillImage" />
        <dc:title></dc:title>
      </cc:Work>
    </rdf:RDF>
  </metadata>
  <defs
     id="defs4196">
    <linearGradient
       inkscape:collect="always"
       id="linearGradient6868">
      <stop
         style="stop-color:#ff0000;stop-opacity:1;"
         offset="0"
         id="stop6870" />
      <stop
         style="stop-color:#ff0000;stop-opacity:0;"
         offset="1"
         id="stop6872" />
    </linearGradient>
    <linearGradient
       inkscape:collect="always"
       xlink:href="#linearGradient6868"
       id="linearGradient6874"
       x1="96.775253"
       y1="271.05798"
       x2="439.87119"
       y2="271.05798"
       gradientUnits="userSpaceOnUse" />
    <filter
       style="color-interpolation-filters:sRGB"
       height="1.4"
       width="1.4"
       y="-0.2"
       x="-0.2"
       inkscape:label="Outline"
       id="filter8048">
      <feGaussianBlur
         in="SourceAlpha"
         stdDeviation="4"
         result="blur1"
         id="feGaussianBlur8050" />
      <feComposite
         in="blur1"
         in2="SourceGraphic"
         operator="out"
         result="composite1"
         id="feComposite8052" />
      <feColorMatrix
         values="1 0 0 0 0 0 1 0 0 0 0 0 1 0 0 0 0 0 100 -1 "
         result="colormatrix1"
         id="feColorMatrix8054" />
      <feGaussianBlur
         stdDeviation="0.5"
         result="blur2"
         id="feGaussianBlur8056" />
      <feComposite
         in="blur2"
         in2="blur2"
         operator="in"
         result="composite2"
         id="feComposite8058" />
      <feColorMatrix
         values="1 0 0 0 0 0 1 0 0 0 0 0 1 0 0 0 0 0 50 -5 "
         result="colormatrix2"
         id="feColorMatrix8060" />
      <feGaussianBlur
         stdDeviation="1"
         result="blur3"
         id="feGaussianBlur8062" />
      <feColorMatrix
         values="1 0 0 0 0 0 1 0 0 0 0 0 1 0 0 0 0 0 5 -1 "
         result="colormatrix3"
         id="feColorMatrix8064" />
      <feFlood
         flood-opacity="1"
         flood-color="rgb(44,0,0)"
         result="flood"
         id="feFlood8066" />
      <feComposite
         in="flood"
         in2="colormatrix3"
         operator="in"
         result="composite3"
         id="feComposite8068" />
      <feComposite
         in="SourceGraphic"
         in2="colormatrix3"
         operator="out"
         result="composite4"
         id="feComposite8070" />
      <feComposite
         in="composite4"
         in2="composite3"
         k2="1"
         k3="1"
         operator="arithmetic"
         result="composite5"
         id="feComposite8072"
         k1="0"
         k4="0" />
    </filter>
    <filter
       style="color-interpolation-filters:sRGB"
       height="1.4"
       width="1.4"
       y="-0.2"
       x="-0.2"
       inkscape:label="Outline"
       id="filter10141">
      <feGaussianBlur
         in="SourceAlpha"
         stdDeviation="7.33"
         result="blur1"
         id="feGaussianBlur10143" />
      <feComposite
         in="blur1"
         in2="SourceGraphic"
         operator="out"
         result="composite1"
         id="feComposite10145" />
      <feColorMatrix
         values="1 0 0 0 0 0 1 0 0 0 0 0 1 0 0 0 0 0 100 -12.57 "
         result="colormatrix1"
         id="feColorMatrix10147" />
      <feGaussianBlur
         stdDeviation="0.92"
         result="blur2"
         id="feGaussianBlur10149" />
      <feComposite
         in="blur2"
         in2="blur2"
         operator="atop"
         result="composite2"
         id="feComposite10151" />
      <feColorMatrix
         values="1 0 0 0 0 0 1 0 0 0 0 0 1 0 0 0 0 0 50 -10.16 "
         result="colormatrix2"
         id="feColorMatrix10153" />
      <feGaussianBlur
         stdDeviation="1"
         result="blur3"
         id="feGaussianBlur10155" />
      <feColorMatrix
         values="1 0 0 0 0 0 1 0 0 0 0 0 1 0 0 0 0 0 5 -1 "
         result="colormatrix3"
         id="feColorMatrix10157" />
      <feFlood
         flood-opacity="1"
         flood-color="rgb(0,0,0)"
         result="flood"
         id="feFlood10159" />
      <feComposite
         in="flood"
         in2="colormatrix3"
         operator="in"
         result="composite3"
         id="feComposite10161" />
      <feComposite
         in="SourceGraphic"
         in2="colormatrix3"
         operator="out"
         result="composite4"
         id="feComposite10163" />
      <feComposite
         in="composite4"
         in2="composite3"
         k2="1"
         k3="1"
         operator="arithmetic"
         result="composite5"
         id="feComposite10165"
         k1="0"
         k4="0" />
    </filter>
    <filter
       inkscape:label="Warm Inside"
       inkscape:menu="Morphology"
       inkscape:menu-tooltip="Blurred colorized contour, filled inside"
       style="color-interpolation-filters:sRGB"
       id="filter10183">
      <feColorMatrix
         values="1 0 0 0 0 0 1 0 0 0 0 0 1 0 0 0 0 0 1 0 "
         result="fbSourceGraphic"
         id="feColorMatrix10185" />
      <feGaussianBlur
         stdDeviation="3"
         result="result1"
         id="feGaussianBlur10187" />
      <feOffset
         dx="2"
         dy="2"
         result="result6"
         id="feOffset10189" />
      <feComposite
         operator="in"
         result="result2"
         in="result6"
         in2="result1"
         id="feComposite10191" />
      <feColorMatrix
         values="110"
         result="result3"
         type="hueRotate"
         id="feColorMatrix10193" />
      <feBlend
         mode="screen"
         in="result2"
         in2="result3"
         result="result4"
         id="feBlend10195" />
      <feConvolveMatrix
         order="3 3"
         kernelMatrix="-2 0 2 0 4 0 2 0 2"
         divisor="2"
         bias="0"
         targetX="0"
         in="result4"
         result="result5"
         id="feConvolveMatrix10197" />
      <feComposite
         operator="atop"
         in="result2"
         in2="result5"
         id="feComposite10199" />
    </filter>
    <filter
       style="color-interpolation-filters:sRGB;"
       height="1.4"
       width="1.4"
       y="-0.2"
       x="-0.2"
       inkscape:label="Outline"
       id="filter11107">
      <feGaussianBlur
         in="SourceAlpha"
         stdDeviation="7.33"
         result="blur1"
         id="feGaussianBlur11109" />
      <feComposite
         in="blur1"
         in2="SourceGraphic"
         operator="out"
         result="composite1"
         id="feComposite11111" />
      <feColorMatrix
         values="1 0 0 0 0 0 1 0 0 0 0 0 1 0 0 0 0 0 100 -12.57 "
         result="colormatrix1"
         id="feColorMatrix11113" />
      <feGaussianBlur
         stdDeviation="0.92"
         result="blur2"
         id="feGaussianBlur11115" />
      <feComposite
         in="blur2"
         in2="blur2"
         operator="atop"
         result="composite2"
         id="feComposite11117" />
      <feColorMatrix
         values="1 0 0 0 0 0 1 0 0 0 0 0 1 0 0 0 0 0 50 -10.16 "
         result="colormatrix2"
         id="feColorMatrix11119" />
      <feGaussianBlur
         stdDeviation="1"
         result="blur3"
         id="feGaussianBlur11121" />
      <feColorMatrix
         values="1 0 0 0 0 0 1 0 0 0 0 0 1 0 0 0 0 0 5 -1 "
         result="colormatrix3"
         id="feColorMatrix11123" />
      <feFlood
         flood-opacity="1"
         flood-color="rgb(0,0,0)"
         result="flood"
         id="feFlood11125" />
      <feComposite
         in="flood"
         in2="colormatrix3"
         k2="1"
         operator="in"
         result="composite3"
         id="feComposite11127" />
      <feComposite
         in="SourceGraphic"
         in2="colormatrix3"
         operator="out"
         result="composite4"
         id="feComposite11129" />
      <feComposite
         in="composite4"
         in2="composite3"
         k2="1"
         k3="1"
         operator="arithmetic"
         result="composite5"
         id="feComposite11131" />
    </filter>
    <filter
       style="color-interpolation-filters:sRGB;"
       height="1.4"
       width="1.4"
       y="-0.2"
       x="-0.2"
       inkscape:label="Outline"
       id="filter12740">
      <feGaussianBlur
         in="SourceAlpha"
         stdDeviation="7.33"
         result="blur1"
         id="feGaussianBlur12742" />
      <feComposite
         in="blur1"
         in2="SourceGraphic"
         operator="out"
         result="composite1"
         id="feComposite12744" />
      <feColorMatrix
         values="1 0 0 0 0 0 1 0 0 0 0 0 1 0 0 0 0 0 100 -12.57 "
         result="colormatrix1"
         id="feColorMatrix12746" />
      <feGaussianBlur
         stdDeviation="0.92"
         result="blur2"
         id="feGaussianBlur12748" />
      <feComposite
         in="blur2"
         in2="blur2"
         operator="over"
         result="composite2"
         id="feComposite12750" />
      <feColorMatrix
         values="1 0 0 0 0 0 1 0 0 0 0 0 1 0 0 0 0 0 50 -10.16 "
         result="colormatrix2"
         id="feColorMatrix12752" />
      <feGaussianBlur
         stdDeviation="1"
         result="blur3"
         id="feGaussianBlur12754" />
      <feColorMatrix
         values="1 0 0 0 0 0 1 0 0 0 0 0 1 0 0 0 0 0 5 -1 "
         result="colormatrix3"
         id="feColorMatrix12756" />
      <feFlood
         flood-opacity="1"
         flood-color="rgb(0,0,0)"
         result="flood"
         id="feFlood12758" />
      <feComposite
         in="flood"
         in2="colormatrix3"
         k2="1"
         operator="in"
         result="composite3"
         id="feComposite12760" />
      <feComposite
         in="SourceGraphic"
         in2="colormatrix3"
         operator="out"
         result="composite4"
         id="feComposite12762" />
      <feComposite
         in="composite4"
         in2="composite3"
         k2="1"
         k3="1"
         operator="arithmetic"
         result="composite5"
         id="feComposite12764" />
    </filter>
  </defs>
  <sodipodi:namedview
     pagecolor="#ffffff"
     bordercolor="#666666"
     borderopacity="1"
     objecttolerance="10"
     gridtolerance="10"
     guidetolerance="10"
     inkscape:pageopacity="0"
     inkscape:pageshadow="2"
     inkscape:window-width="1920"
     inkscape:window-height="1043"
     id="namedview4194"
     showgrid="false"
     fit-margin-top="0"
     fit-margin-left="0"
     fit-margin-right="0"
     fit-margin-bottom="0"
     inkscape:zoom="0.89957241"
     inkscape:cx="405.37364"
     inkscape:cy="355.91946"
     inkscape:window-x="0"
     inkscape:window-y="1100"
     inkscape:window-maximized="1"
     inkscape:current-layer="layer4"
     units="mm" />
  <g
     inkscape:groupmode="layer"
     id="layer1"
     inkscape:label="rost"
     style="display:inline"
     transform="translate(0,254.01633)">
    <path
       transform="translate(0,-1.4695573e-6)"
       style="display:inline;opacity:1;fill-opacity:1"
       d="m 106.76142,374.95786 c -4.70846,-7.29142 -72.399589,-260.37715 -71.760811,-268.30162 0.285427,-3.54108 1.434662,-8.024331 2.553838,-9.962813 3.389275,-5.870375 13.508557,-11.709922 20.586357,-11.879783 3.673147,-0.08814 9.586514,1.515074 13.140791,3.562767 3.554233,2.047751 7.562747,5.93775 8.907693,8.644664 1.344946,2.706885 4.958229,13.930245 8.029486,24.940815 5.584134,20.01918 5.584134,20.01918 41.939446,10.24301 36.35529,-9.77617 36.35529,-9.77617 36.66701,-25.32896 0.17146,-8.554035 1.66421,-25.479304 3.31724,-37.6117 3.41427,-25.058929 10.79963,-55.077464 19.28795,-78.3977709 8.10564,-22.2689801 30.9718,-64.7215311 46.16442,-85.7073711 6.87637,-9.498478 19.07641,-24.427588 27.1112,-33.175808 8.03477,-8.74823 21.34883,-21.74904 29.58679,-28.89066 8.23795,-7.14164 23.39395,-18.71029 33.67996,-25.70814 10.28602,-6.99783 28.07859,-17.41295 39.53904,-23.14473 11.46045,-5.73176 30.04551,-13.7649 41.30013,-17.85144 34.87755,-12.66398 64.17687,-18.59403 103.61391,-20.97092 12.79363,-0.77107 33.41224,-0.65145 45.81911,0.26584 12.40688,0.9173 31.31669,3.35806 42.02177,5.42391 23.99825,4.63116 55.28586,14.37266 77.19923,24.03629 20.94707,9.23747 51.98913,27.14855 69.43374,40.06284 20.50633,15.1809 39.96125,33.00828 57.25006,52.4607 8.59859,9.67467 22.30639,27.65195 30.46176,39.949511 14.828,22.359214 14.828,22.359214 50.91237,12.724954 36.08438,-9.63426 36.08438,-9.63426 30.9108,-29.763452 -2.84549,-11.071073 -5.328,-22.597413 -5.51667,-25.614123 -0.18869,-3.01671 1.33769,-8.38988 3.39196,-11.94035 2.05418,-3.55052 6.37376,-7.8956 9.59886,-9.65583 6.10174,-3.33025 17.87266,-3.40878 23.50524,-0.1568 1.79385,1.03568 4.85439,3.81585 6.80119,6.17815 4.50546,5.46704 73.31051,261.1481 72.61041,269.82199 -0.2872,3.55893 -1.4379,8.05681 -2.5571,9.99529 -3.3892,5.87037 -13.5086,11.70992 -20.5862,11.87978 -3.67326,0.0882 -9.58668,-1.51509 -13.14093,-3.56277 -3.55425,-2.04776 -7.5627,-5.93776 -8.90769,-8.64466 -1.34499,-2.7069 -4.9582,-13.93025 -8.02949,-24.94083 -5.58412,-20.019176 -5.58412,-20.019176 -41.93943,-10.24301 -36.35531,9.77617 -36.35531,9.77617 -36.6866,25.31766 -0.4433,20.79573 -4.54871,51.1333 -10.01992,74.04379 -2.4622,10.31041 -7.60165,27.5497 -11.421,38.30957 -8.99447,25.33923 -30.87281,66.67105 -47.30911,89.3748 -6.87638,9.49845 -19.07642,24.42757 -27.1112,33.1758 -8.03477,8.74823 -21.34884,21.74903 -29.58678,28.89066 -8.23797,7.14162 -23.47008,18.7685 -33.84915,25.83747 -10.37908,7.06898 -29.59089,18.10804 -42.69292,24.53123 -13.10203,6.4232 -33.51076,14.97003 -45.35272,18.99297 -11.84196,4.02293 -31.56742,9.30835 -43.83433,11.74537 -12.26691,2.43702 -34.21479,5.2396 -48.77309,6.22797 -14.55829,0.98838 -36.75491,1.05008 -49.32582,0.13718 -12.57092,-0.91295 -33.15394,-3.77107 -45.74005,-6.35137 -12.58613,-2.58031 -31.02006,-7.42457 -40.9643,-10.76502 -29.47056,-9.89964 -51.48847,-20.38353 -79.50617,-37.85708 -28.56151,-17.81267 -49.73447,-34.90321 -70.77447,-57.12819 -16.19344,-17.10547 -34.91761,-41.32588 -45.6994,-59.11385 -8.05765,-13.29369 -8.05765,-13.29369 -44.43034,-3.58245 -36.3727,9.71126 -36.3727,9.71126 -31.19912,29.84044 2.84549,11.07107 5.32798,22.59743 5.51667,25.61414 0.18871,3.01669 -1.33768,8.38985 -3.39195,11.94034 -2.05419,3.55053 -6.37377,7.89561 -9.59889,9.65583 -6.32178,3.45037 -17.93597,3.3803 -24.00484,-0.14488 -2.06902,-1.20096 -5.28522,-4.54478 -7.14794,-7.42936 z m 61.55049,-91.74082 c 32.93028,-8.94388 32.93028,-8.94388 29.85299,-16.44197 -8.96975,-21.85578 -17.9979,-48.88443 -21.61797,-64.72033 -2.24391,-9.81601 -5.19799,-25.95005 -6.5646,-35.8534 -1.36662,-9.90335 -2.91967,-18.25719 -3.45123,-18.56408 -0.53156,-0.3069 -15.74768,3.42022 -33.81362,8.2825 -32.847152,8.84051 -32.847152,8.84051 -15.92852,72.05757 9.30525,34.76939 17.2953,63.43454 17.75565,63.70032 0.46036,0.26579 15.65564,-3.54149 33.7673,-8.46061 z M 395.5379,416.57626 c 9.10452,4.0107 24.07526,9.78661 33.26832,12.8354 21.36811,7.08647 50.92982,13.09275 73.07974,14.84814 23.43163,1.85699 50.25988,1.07811 73.06897,-2.12129 35.35972,-4.95987 73.8696,-17.12808 105.20109,-33.24106 20.66617,-10.62807 48.83468,-29.8494 66.00545,-45.04011 30.3959,-26.89076 56.01274,-59.57126 73.98034,-94.3799 6.07979,-11.77839 14.35607,-30.5744 18.39174,-41.76892 4.03565,-11.1945 9.43069,-30.58848 11.98893,-43.09774 2.55827,-12.50924 5.32831,-32.07873 6.15567,-43.48776 0.82737,-11.40901 0.82097,-31.24147 -0.0148,-44.072109 -0.83519,-12.830653 -3.50757,-33.136783 -5.93864,-45.124755 -2.43107,-11.987972 -7.41724,-30.262216 -11.08039,-40.609444 -3.66315,-10.3472135 -10.66288,-27.185255 -15.55499,-37.417865 -4.89208,-10.232596 -14.5795,-27.091081 -21.5276,-37.463271 -6.94809,-10.372191 -19.62845,-26.741167 -28.17857,-36.375521 -8.55013,-9.634335 -22.98479,-23.798085 -32.07704,-31.474975 -31.10706,-26.26532 -69.9654,-48.32061 -107.36738,-60.94018 -19.4213,-6.55283 -47.93374,-12.9285 -67.50044,-15.09381 -24.7466,-2.73851 -51.7654,-2.55709 -76.82775,0.51588 -12.36473,1.5161 -32.78087,5.51627 -45.36922,8.88931 -12.58836,3.37304 -32.26935,10.11685 -43.73555,14.98626 -44.42038,18.86419 -82.68667,46.12835 -115.38347,82.20903 -6.29707,6.94877 -18.03332,22.063908 -26.08055,33.589214 -11.31896,16.211071 -17.18285,26.379787 -25.90179,44.916881 -6.19875,13.1789977 -13.90108,32.54633 -17.11626,43.038501 -3.21517,10.492157 -7.33109,26.879074 -9.14648,36.415337 -1.81541,9.536279 -3.98449,27.528296 -4.82019,39.982281 -0.83572,12.453986 -0.80356,31.893216 0.0714,43.198276 0.87501,11.30509 3.22829,29.38494 5.22953,40.17747 2.00123,10.79253 6.82019,29.11158 10.70881,40.709 3.88863,11.59742 11.72733,30.51924 17.41937,42.0485 5.69203,11.52927 15.55476,28.61202 21.91714,37.96172 6.36241,9.34966 17.54469,23.90061 24.84953,32.33541 14.43385,16.6666 35.46727,36.00025 53.28396,48.9779 16.88294,12.2975 40.40767,25.88348 59.00075,34.0748 z M 309.20327,177.08214 C 255.15451,-24.654196 255.15451,-24.654196 263.25392,-38.682794 c 4.45469,-7.715719 8.44651,-13.828204 8.87073,-13.583279 1.23921,0.715471 120.56231,444.931633 119.84773,446.169323 -0.3565,0.61748 -6.96442,-2.52398 -14.68428,-6.98104 -14.03611,-8.10375 -14.03611,-8.10375 -68.08483,-209.84007 z m 15.98377,172.19671 c -5.2954,-4.64375 -10.95378,-9.84262 -12.57417,-11.55307 -3.40307,-3.59226 -81.05982,-289.911615 -80.76504,-297.779611 0.22999,-6.139047 9.25654,-33.9114377 12.01539,-36.9683398 1.14752,-1.2714968 21.04356,69.3860968 50.34267,178.7839208 38.20823,142.66294 47.61735,180.36583 44.52725,178.42329 -2.15491,-1.35468 -8.25067,-6.26242 -13.5461,-10.90619 z M 346.95662,166.56099 C 284.03279,-68.651138 284.03279,-68.651138 292.42401,-79.088171 c 4.61517,-5.740365 9.09872,-10.626611 9.96345,-10.858307 0.86474,-0.23171 31.75745,112.222842 68.65049,249.898998 36.89304,137.67614 66.81014,250.78466 66.48245,251.35224 -0.78996,1.36825 -6.95007,-0.46353 -18.32577,-5.44934 -9.3142,-4.08228 -9.3142,-4.08228 -72.23801,-239.29443 z m 37.99279,-10.34114 c -69.78139,-260.44611 -69.78139,-260.44611 -59.62857,-269.63524 5.58405,-5.05403 10.29286,-9.10829 10.46403,-9.00947 0.17118,0.0988 33.20983,122.9668325 73.41923,273.04001 73.108,272.8603 73.108,272.8603 61.01348,270.43483 -6.65195,-1.33403 -12.85776,-2.86617 -13.79064,-3.40476 -0.93288,-0.5386 -33.09777,-118.18001 -71.47753,-261.42537 z M 276.51232,294.51552 c -5.33813,-7.72776 -12.61608,-19.2878 -16.17324,-25.68896 -11.58632,-20.84965 -22.74289,-49.39565 -29.14216,-74.56512 -8.42082,-33.12061 -11.53522,-63.7858 -9.65315,-95.047374 1.80769,-30.025898 1.4895,-30.873705 34.3176,91.436384 17.36785,64.7086 31.47204,117.83533 31.34268,118.0594 -0.12933,0.22407 -0.40416,0.28337 -0.61064,0.13185 -0.20653,-0.15152 -4.74299,-6.59832 -10.08109,-14.3261 z M 424.23583,146.00426 c -74.78749,-279.12789 -74.78749,-279.12789 -65.4303,-285.27986 5.14647,-3.38358 9.8513,-6.30692 10.45521,-6.49629 1.1625,-0.36455 154.58895,570.50725 153.72886,571.99699 -0.2767,0.47924 -5.61665,0.52504 -11.86654,0.10178 -6.24992,-0.42328 -11.52913,-0.86525 -11.7316,-0.98215 -0.20246,-0.11688 -34.0225,-125.82009 -75.15563,-279.34044 z m 38.00807,-9.92733 c -42.58908,-158.953691 -77.11804,-289.55515 -76.73101,-290.22549 0.91164,-1.579 20.07493,-11.27883 21.15291,-10.70691 1.40044,0.74312 158.74847,589.60619 157.59861,589.80113 -4.90919,0.83236 -22.22492,1.50103 -23.26846,0.89855 C 540.2714,425.42588 504.83296,295.0306 462.2439,136.07693 Z m 37.85197,-10.50995 c -79.47397,-296.61701 -79.47397,-296.61701 -67.67491,-300.33863 11.79904,-3.72162 11.79904,-3.72162 91.67746,294.09354 79.87843,297.81517 79.87843,297.81517 73.49105,299.76497 -3.51306,1.07239 -9.00464,2.20795 -12.20352,2.52347 -5.81613,0.57365 -5.81613,0.57365 -85.29008,-296.04335 z m 37.91404,-10.27825 c -69.98259,-261.19275 -79.15222,-297.21167 -75.96402,-298.39164 1.99424,-0.73808 7.47568,-1.90905 12.18097,-2.6022 8.5551,-1.2602 8.5551,-1.2602 87.96579,295.16416 79.41069,296.42434 79.41069,296.42434 68.48949,300.27572 -6.00667,2.11825 -11.40748,3.57063 -12.00178,3.22752 -0.59431,-0.34313 -36.89602,-134.29622 -80.67045,-297.67356 z m 39.33032,-10.05172 c -43.14829,-161.040576 -78.18304,-293.26592 -77.85502,-293.83406 0.32803,-0.56816 5.62903,-1.26932 11.78001,-1.55812 11.1836,-0.52511 11.1836,-0.52511 88.84105,289.296409 77.65744,289.821531 77.65744,289.821531 67.70961,294.958581 -5.47131,2.82537 -10.41502,4.86732 -10.98602,4.53766 -0.57101,-0.32968 -36.34134,-132.35989 -79.48963,-293.40047 z M 615.17867,94.676608 C 538.65538,-190.929 538.65538,-190.929 551.72736,-190.19464 c 13.07198,0.73437 13.07198,0.73437 87.58749,278.829975 74.51549,278.095615 74.51549,278.095615 63.83181,285.090925 -5.87602,3.84741 -10.85491,6.89646 -11.06418,6.77563 C 691.8732,380.38101 657.26649,251.75968 615.17867,94.676608 Z M 653.08722,84.377837 C 613.21689,-64.429965 581.10847,-186.3075 581.73514,-186.46111 c 0.62668,-0.15361 6.67431,0.96696 13.43917,2.49017 12.29974,2.76947 12.29974,2.76947 81.95267,262.320674 69.65293,259.551216 69.65293,259.551216 63.12545,265.609996 -3.59011,3.33235 -7.89611,7.43361 -9.56888,9.11394 -1.67276,1.68034 -3.50566,2.78709 -4.07312,2.45947 -0.56745,-0.32762 -33.6529,-122.3475 -73.52321,-271.155303 z m 37.9438,-10.167175 c -60.16676,-224.562632 -66.5792,-250.067422 -62.58014,-248.906192 2.45058,0.71159 8.79715,2.94042 14.10345,4.95295 9.64783,3.65914 9.64783,3.65914 72.46164,237.702524 62.81382,234.043366 62.81382,234.043366 55.23138,243.878286 -4.17031,5.40921 -8.61699,10.45086 -9.88149,11.20367 -1.511,0.89959 -25.27741,-84.39409 -69.33484,-248.831238 z M 730.21205,63.601709 C 670.9113,-157.7334 670.9113,-157.7334 685.35492,-149.39437 c 14.44363,8.33903 14.44363,8.33903 67.79292,207.560074 53.3493,199.221046 53.3493,199.221046 45.26149,213.229536 -4.44829,7.70467 -8.26976,13.90343 -8.49217,13.77504 -0.22239,-0.12844 -27.0897,-99.83426 -59.70511,-221.568571 z m 37.9165,-10.269068 C 741.86652,-44.693357 721.25212,-124.3926 722.31874,-123.77678 c 1.06663,0.61581 8.47543,6.94497 16.46399,14.06479 14.52469,12.945125 14.52469,12.945125 53.06213,156.039895 C 829.88227,187.566 830.3466,189.55748 827.63103,199.813 c -3.68134,13.90281 -9.59889,31.17147 -10.79119,31.49094 -0.52919,0.14177 -22.44927,-79.94529 -48.71129,-177.971299 z m 37.94441,-10.164938 c -16.19408,-60.461056 -28.88761,-109.608102 -28.20788,-109.215657 2.03289,1.173693 16.6379,24.031868 24.13593,37.774965 10.71387,19.6374113 20.44648,45.310363 26.97349,71.151576 6.12989,24.268956 9.44292,48.234203 9.75231,70.544573 0.22619,16.30978 -1.10446,39.10956 -2.30122,39.43024 -0.49986,0.13392 -14.15856,-49.22463 -30.35263,-109.685697 z M 927.11194,79.97827 c 32.85351,-8.842213 32.85351,-8.842213 15.74881,-72.6778194 -17.10468,-63.8355916 -17.10468,-63.8355916 -49.97777,-55.0664276 -18.08018,4.823049 -33.12415,9.204098 -33.43106,9.735665 -0.30689,0.531552 2.74754,8.990653 6.78763,18.797989 4.04009,9.8073503 10.41276,29.278309 14.1615,43.268804 3.74875,13.99051 7.96533,34.039197 9.37018,44.552641 1.40484,10.513445 2.98919,19.366459 3.52074,19.673352 0.53157,0.306893 15.75055,-3.420993 33.81997,-8.284204 z"
       id="path4922"
       inkscape:connector-curvature="0" />
  </g>
  <g
     inkscape:groupmode="layer"
     id="layer3"
     inkscape:label="knoten"
     style="display:inline;opacity:1"
     transform="translate(0,254.01633)">
    <g
       style="display:inline;fill:#ff0000"
       transform="translate(222.98057,-95.519899)"
       id="g5004">
      <g
         id="g11185"
         style="fill:#ff0000;filter:url(#filter12740)"
         transform="matrix(0.98545367,0,0,0.98545367,4.7668556,1.5020979)">
        <path
           inkscape:connector-curvature="0"
           id="path5006"
           d="M 155.51758,-1.9648438 C 110.11564,-1.3300852 64.720205,1.2292741 19.451172,4.3300781 10.743347,7.9293113 8.704426,18.684076 6.1474753,26.721903 -0.75768874,56.47437 -2.2672593,87.285538 -1.7777616,117.73897 c 1.87156988,36.06808 1.4877175,72.80582 10.7324623,107.97295 2.5283193,7.51178 5.6988913,18.40821 15.0492053,19.41308 83.514864,2.07873 167.072674,-0.40956 250.585934,1.89611 9.6285,-0.35345 22.33107,0.0932 28.09961,-9.23791 5.17738,-17.09599 9.64609,-34.76765 10.5,-52.70312 0.65458,-5.90301 -2.28873,-13.92364 -9.46875,-13.17774 -5.98128,-0.6107 -10.75268,4.59291 -10.88672,10.38282 -1.78068,13.40748 -2.51823,29.16201 -13.08593,39.12695 -7.92275,4.50876 -17.73948,2.90572 -26.46094,3.99609 -56.94899,2.05919 -114.06991,-0.20988 -171.069744,0.79436 -15.16391,0.0127 -32.861091,2.68677 -45.606038,-7.56194 C 27.64717,209.529 26.585728,195.76975 23.339693,183.98037 16.527556,150.16545 19.145945,115.49045 19.442193,81.269722 20.752491,63.803511 21.233718,44.208444 32.613281,29.820312 40.629515,20.308285 54.474638,23.280016 65.355756,21.530882 125.4824,17.687335 186.10562,15.248617 246.2893,19.43132 c 12.62441,1.658932 26.3542,1.494752 37.60328,7.980789 10.51162,8.956746 5.25728,24.251633 10.30078,35.626953 3.22242,5.626764 10.83633,4.426014 16.29492,3.697266 5.32027,-0.683901 3.15097,-6.911536 3.58399,-10.832031 -0.60979,-16.485101 -3.10419,-34.63991 -14.64844,-47.2968751 -5.52267,-4.9217565 -13.88427,-3.1534012 -20.59375,-4.9414063 -40.87586,-5.123162 -82.1707,-5.665686 -123.3125,-5.6308594 z"
           style="fill:#ff0000;stroke:none" />
        <path
           inkscape:connector-curvature="0"
           id="path5008"
           d="m 210.75977,23.654297 c -2.93481,15.889645 -5.02486,32.78789 -0.58399,48.585937 2.69774,8.362021 12.66867,10.288891 19.69922,13.615235 35.69576,12.134459 73.93887,4.871901 110.6831,5.148379 32.56988,-1.33331 66.95765,-4.728856 97.49816,9.395022 7.20136,3.54996 14.02007,8.38557 19.21718,14.75347 -18.32588,-8.78482 -38.39993,-15.873912 -59.0449,-14.12767 -60.36613,-0.18879 -120.86259,1.36057 -181.13284,-1.479748 -5.14069,0.150215 -10.2649,-1.318532 -13.96023,-5.446358 -23.59669,-19.233127 -37.57086,-47.046356 -57.40695,-69.864189 -7.23823,-0.372179 -14.47654,-0.742781 -21.71485,-1.113281 15.12123,19.187106 29.93251,38.62649 45.83471,57.146645 9.90277,12.631172 19.211,28.360891 35.56764,33.173671 73.5571,4.87882 147.36778,2.58396 220.9707,5.38867 9.92747,1.45768 21.83602,4.00593 27.87109,12.02344 -13.47905,-4.04921 -27.40509,-6.30052 -41.4978,-5.92378 -63.85219,-1.53231 -127.76221,-3.97294 -191.6272,-1.95904 -13.22933,0.33807 -27.92448,2.58047 -36.95011,13.33442 -26.41925,24.81006 -46.77375,55.04963 -67.78231,84.34136 6.73529,-0.45876 14.24914,0.89575 20.5293,-0.62304 22.98901,-23.44487 37.13027,-55.31339 65.33984,-73.38867 13.25302,-8.54276 29.26896,-9.76299 44.57086,-8.23952 61.27287,1.87846 122.73899,1.07009 183.93109,2.32936 7.90235,0.64912 16.02118,2.28302 22.73633,6.71289 -46.88667,-2.9673 -93.86897,-0.19314 -140.78406,-0.47962 -28.26487,-0.35541 -57.24036,-2.67281 -84.87609,4.62024 -8.29986,2.14892 -16.66138,7.64758 -17.98243,16.78516 -4.06479,16.60576 -3.32457,34.04784 -1.06054,50.86328 5.45101,2.46213 14.43922,2.67329 16.42187,-4.26953 3.80759,-13.22838 -3.55663,-27.26361 1.39844,-40.40039 0.6705,-5.8279 6.28613,-8.50601 11.68547,-8.30263 65.19122,-9.23439 131.56179,-0.7033 197.21687,-3.28917 2.66434,1.12562 -1.04197,3.74148 0.13477,5.83399 1.12079,7.2326 10.13479,7.52702 15.58483,9.55329 31.02056,7.91628 62.65626,-4.86227 88.83199,-20.88845 2.23248,-1.19996 8.3285,-5.65405 4.0949,-1.67265 -20.24853,20.72814 -49.47787,29.61503 -77.82453,30.64086 -6.25954,0.77387 -14.25554,2.47125 -16.27118,9.46265 10.41365,11.66916 27.79973,9.89551 41.60506,7.01415 29.67483,-5.22065 58.61329,-22.39831 73.14235,-49.40879 2.75086,-5.29328 4.58925,-11.01878 5.71939,-16.86708 -2.59671,0.0282 -8.54456,-0.18132 -5.98242,-4.43164 2.23595,-4.96257 5.33342,-12.32244 -0.55469,-16.0957 -4.5196,-3.70328 -9.29808,1.61606 -11.20508,5.50781 -1.81523,3.97743 -3.85427,4.53664 -4.31054,-0.19336 -3.97659,-14.75735 -6.78044,-32.669066 -21.20703,-41.144529 -3.84374,-3.501868 -7.90917,1.107695 -8.63672,4.871093 -0.0888,4.50143 4.04848,9.015515 5.33398,13.654297 4.90195,12.174619 9.64393,25.107119 10.46485,38.027339 -0.94033,1.92936 -5.83754,6.18857 -5.61582,1.36599 -5.31703,-22.69341 -18.29718,-42.544068 -30.39004,-62.073016 -5.82602,-4.783809 -13.57824,-12.913151 -21.82618,-8.603516 -4.99012,1.367425 0.74738,5.297226 1.66797,8.03711 14.81432,23.135337 31.90755,46.752622 37.81641,73.654292 -1.36569,2.1812 -3.16902,3.82571 -4.56641,0.95118 -8.08819,-28.92683 -27.14954,-53.313584 -46.02539,-75.996098 -4.81953,-2.578443 -11.02524,-9.152038 -16.70117,-4.609374 -4.10355,2.435677 -1.20933,5.543963 1.44888,8.19885 15.61487,19.277015 31.98417,38.518262 41.46518,61.769902 -8.57765,-16.94448 -19.88824,-32.82505 -34.0294,-45.504002 -35.00034,-21.144419 -77.44272,-22.0217 -117.12008,-21.045445 -34.88641,0.646264 -70.20299,3.762531 -104.71184,-2.579462 -10.7739,-4.36967 -10.16385,-17.654054 -9.16064,-27.185059 0.50746,-7.041657 1.0715,-14.408747 -1.56397,-21.1333 -4.20475,0.918258 -12.47619,-1.988318 -14.375,1.578125 z"
           style="fill:#ff0000;stroke:none" />
        <path
           inkscape:connector-curvature="0"
           id="path5010"
           d="m 572.74805,150.07422 c -6.50254,1.85089 -7.53145,10.2412 -11.87696,14.69922 -14.91227,21.71951 -35.57085,40.62161 -61.03906,48.26758 -12.44289,6.68878 -29.45517,0.26142 -40.04101,11.30468 6.93505,10.37644 20.44116,13.56956 32.10082,10.88162 9.70915,-2.13156 19.61005,-4.4623 28.72723,-8.03107 27.69869,-15.75693 49.55892,-42.68668 56.81062,-73.96773 -1.01771,-1.62197 -2.53729,-3.44698 -4.68164,-3.1543 z"
           style="fill:#ff0000;stroke:none" />
        <path
           inkscape:connector-curvature="0"
           id="path5012"
           d="m 578.11523,170.64258 c -4.16413,1.14842 -4.87311,7.84372 -7.71793,11.09279 -12.72823,22.14972 -26.67356,47.17806 -51.6141,57.33885 -7.25764,2.8389 -15.06959,3.77664 -22.74218,3.27539 -0.58577,4.37351 -0.21186,8.69896 4.33203,10.37109 13.28084,6.70591 28.71811,0.73774 41.21093,-5.04492 25.70965,-12.90161 40.2627,-41.15764 44.44141,-68.50781 -1.10545,-3.99066 -2.82527,-8.91216 -7.91016,-8.52539 z"
           style="fill:#ff0000;stroke:none" />
        <path
           inkscape:connector-curvature="0"
           id="path5014"
           d="m 568.84961,231.51953 c -5.552,5.09059 -11.10473,10.18037 -16.65625,15.27149 22.88486,23.49413 34.11345,58.71146 25.77539,90.55078 -0.98333,8.0823 -3.72267,16.1185 -9.75978,21.91838 -4.25325,5.18231 -10.59849,8.57197 -15.20311,12.96443 -1.37286,5.64146 -1.82915,11.31997 -3.08398,16.9668 8.47913,-1.34987 15.51572,-7.0325 22.04101,-12.26563 18.71092,-16.36195 27.32675,-41.77772 27.91602,-66.08398 -0.29469,-5.58989 -2.62361,-11.20216 -1.0586,-16.77344 18.96787,4.99024 40.56446,7.11534 58.44531,-2.56445 -0.65087,-7.34049 -4.51838,-16.60444 -13.16406,-16.56055 -12.70696,0.22509 -25.38489,7.57993 -37.80468,1.61133 -19.04989,-8.44149 -26.57655,-29.5969 -35.48243,-46.83594 -0.65494,0.60026 -1.30989,1.20052 -1.96484,1.80078 z"
           style="fill:#ff0000;stroke:none" />
        <path
           inkscape:connector-curvature="0"
           id="path5016"
           d="m 539.87695,254.79883 c -4.85038,0.15713 -9.56057,1.60019 -14.07031,3.30078 -4.80903,31.60724 -37.00094,51.29329 -39.91797,83.53516 -0.57159,6.8591 0.55023,13.77029 2.72852,20.27343 4.42413,-2.22124 14.77505,0.33464 14.7561,-5.46436 -0.79071,-26.05964 16.1053,-48.26511 32.94702,-66.31103 5.13238,9.94478 2.95926,21.99025 2.2793,32.66602 -4.13034,31.27092 -17.85259,61.43025 -15.9668,93.63867 0.042,20.77506 8.36135,43.35185 27.29688,53.9707 3.35173,3.30396 9.61335,1.73099 9.70703,-3.36718 0.65193,-3.36409 0.0556,-6.94635 1.51562,-10.13868 -15.13235,-11.65693 -18.8324,-31.97688 -20.45987,-49.75374 5.32979,-41.49441 21.0612,-83.23839 12.78995,-125.50798 -1.85848,-9.17073 -4.99879,-18.0811 -9.36914,-26.35742 -1.38935,-0.3282 -2.80621,-0.5295 -4.23633,-0.48437 z"
           style="fill:#ff0000;stroke:none" />
      </g>
    </g>
  </g>
  <g
     inkscape:groupmode="layer"
     id="layer4"
     inkscape:label="schrift"
     style="display:inline"
     transform="translate(0,254.01633)">
    <g
       transform="matrix(1.4814304,0,0,1.4814304,32.284264,-246.4218)"
       style="font-style:normal;font-variant:normal;font-weight:normal;font-stretch:normal;line-height:0%;font-family:Aachen;-inkscape-font-specification:Aachen;text-align:start;letter-spacing:0px;word-spacing:0px;writing-mode:lr-tb;text-anchor:start;display:inline;fill:#ff0000;fill-opacity:1;stroke:none;stroke-width:2;stroke-linecap:round;stroke-linejoin:round;stroke-miterlimit:4;stroke-dasharray:none;stroke-opacity:1;filter:url(#filter10141)"
       id="text8074">
      <path
         d="m 254.93645,384.63321 -20.625,0 0,-17.5 q 4.45312,-3.78906 11.21093,-5.54688 6.79688,-1.75781 15.11719,-1.75781 4.14063,0 8.67188,0.42969 5.11718,0.50781 8.86718,3.47656 3.75,2.96875 5.70313,7.46094 1.99219,4.49219 1.99219,9.41406 0,3.51563 -1.01563,6.79688 -0.97656,3.28125 -3.00781,6.13281 -2.03125,2.8125 -5.03906,4.84375 -1.32813,0.89844 -3.86719,2.1875 -2.53906,1.28906 -4.80469,2.38281 -2.26562,1.05469 -4.92187,2.30469 -2.65625,1.25 -3.90625,1.875 -2.38282,0.97656 -3.71094,2.85156 -1.28906,1.875 -1.28906,4.64844 l 1.95312,0 q 3.78906,0 5.70313,-1.36719 1.95312,-1.36719 2.34375,-6.13281 l 20,0 0,21.25 -50.625,0 0,-17.5 q 0,-3.39844 0.85937,-6.28906 0.85938,-2.89063 3.08594,-5.58594 2.26562,-2.69531 6.05469,-5 3.08593,-1.75781 8.28125,-4.21875 5.23437,-2.5 7.65625,-3.78906 2.42187,-1.28907 3.4375,-2.61719 1.28906,-1.5625 1.28906,-3.94531 0,-2.1875 -1.17188,-3.78907 -1.17187,-1.64062 -3.24218,-1.64062 -5,0 -5,6.25 l 0,4.375 z"
         style="font-style:normal;font-variant:normal;font-weight:normal;font-stretch:normal;font-size:80px;line-height:1.25;font-family:Aachen;-inkscape-font-specification:Aachen;fill:#ff0000;stroke:none;stroke-width:2;stroke-linecap:round;stroke-linejoin:round;stroke-miterlimit:4;stroke-dasharray:none;stroke-opacity:1"
         id="path4231" />
      <path
         d="m 289.31145,407.75821 0,-27.5 q 0,-6.64063 2.30468,-10.97656 2.34375,-4.33594 6.05469,-6.52344 3.75,-2.1875 8.24219,-2.96875 4.49219,-0.78125 9.64844,-0.78125 4.375,0 8.47656,0.70312 4.10156,0.66407 7.89062,2.77344 3.82813,2.10938 6.21094,6.32813 2.42188,4.21875 2.42188,10.82031 l 0,28.75 q 0,6.67969 -2.1875,10.97656 -2.1875,4.29688 -5.82032,6.52344 -3.63281,2.22656 -7.85156,2.96875 -4.17969,0.78125 -9.14062,0.78125 -8.98438,0 -14.84375,-2.46094 -5.82032,-2.46094 -8.63282,-7.30469 -2.77343,-4.88281 -2.77343,-12.10937 z m 30,0 0,-28.125 q 0,-2.73438 -1.21094,-4.17969 -1.21094,-1.44531 -3.16406,-1.44531 -2.89063,0 -3.63282,1.48437 -0.74218,1.48438 -0.74218,4.14063 l 0,28.75 q 0,3.16406 0.85937,4.72656 0.89844,1.52344 3.51563,1.52344 2.61718,0 3.47656,-1.60156 0.89844,-1.64063 0.89844,-5.27344 z"
         style="font-style:normal;font-variant:normal;font-weight:normal;font-stretch:normal;font-size:80px;line-height:1.25;font-family:Aachen;-inkscape-font-specification:Aachen;fill:#ff0000;stroke:none;stroke-width:2;stroke-linecap:round;stroke-linejoin:round;stroke-miterlimit:4;stroke-dasharray:none;stroke-opacity:1"
         id="path4233" />
      <path
         d="m 346.81145,360.25821 23.75,0 0,50.625 q 0,1.5625 0.42968,2.89062 0.42969,1.28907 2.07032,2.10938 l 0,12.5 -26.25,0 0,-12.5 q 1.67968,-0.82031 2.07031,-1.95313 0.42969,-1.17187 0.42969,-3.04687 l 0,-33.125 q 0,-2.03125 -0.42969,-3.28125 -0.42969,-1.28906 -2.07031,-1.71875 l 0,-12.5 z"
         style="font-style:normal;font-variant:normal;font-weight:normal;font-stretch:normal;font-size:80px;line-height:1.25;font-family:Aachen;-inkscape-font-specification:Aachen;fill:#ff0000;stroke:none;stroke-width:2;stroke-linecap:round;stroke-linejoin:round;stroke-miterlimit:4;stroke-dasharray:none;stroke-opacity:1"
         id="path4235" />
      <path
         d="m 390.56145,392.75821 q -8.86719,-3.71094 -8.86719,-14.0625 0,-1.05469 0.11719,-2.1875 0.46875,-8.90625 6.71875,-13.20313 6.28906,-4.29687 18.90625,-4.29687 5.85937,0 10.46875,1.13281 4.60937,1.13281 7.92968,3.47656 3.35938,2.30469 5.15625,5.70313 1.83594,3.39844 2.07032,7.8125 0.0781,1.09375 0.0781,1.64062 0,9.29688 -8.20312,13.98438 3.55468,1.48437 5.625,3.98437 2.07031,2.5 2.89062,5.50782 0.85938,2.96875 0.85938,6.13281 0,0.35156 0,0.66406 0.0391,0.27344 0.0391,0.74219 0,10.85937 -6.71875,15.35156 -6.71875,4.49219 -20.19531,4.49219 -11.79688,0 -19.375,-4.72656 -7.53907,-4.72657 -7.53907,-15.42969 0,-0.27344 0,-0.46875 0.0391,-0.23438 0.0391,-0.625 0.27343,-4.53125 1.44531,-7.73438 1.21094,-3.20312 3.32031,-5.07812 2.10938,-1.875 5.23438,-2.8125 z m 21.25,-13.125 q 0,-2.65625 -0.74219,-4.14063 -0.74219,-1.48437 -3.63281,-1.48437 -2.53907,0 -3.47657,1.71875 -0.89843,1.67969 -0.89843,4.53125 0,6.875 4.375,6.875 2.38281,0 3.35937,-1.64063 1.01563,-1.67968 1.01563,-5.85937 z m 0,26.875 q 0,-7.5 -4.375,-7.5 -2.85157,0 -3.63282,2.1875 -0.74218,2.1875 -0.74218,5.3125 0,2.61719 0.19531,4.41406 0.23437,1.75781 1.21094,3.04688 0.97656,1.28906 2.96875,1.28906 2.53906,0 3.4375,-2.38281 0.9375,-2.38282 0.9375,-6.36719 z"
         style="font-style:normal;font-variant:normal;font-weight:normal;font-stretch:normal;font-size:80px;line-height:1.25;font-family:Aachen;-inkscape-font-specification:Aachen;fill:#ff0000;stroke:none;stroke-width:2;stroke-linecap:round;stroke-linejoin:round;stroke-miterlimit:4;stroke-dasharray:none;stroke-opacity:1"
         id="path4237" />
    </g>
    <g
       transform="translate(0,-1.4695573e-6)"
       style="font-style:normal;font-variant:normal;font-weight:normal;font-stretch:normal;line-height:0%;font-family:Aachen;-inkscape-font-specification:Aachen;letter-spacing:0px;word-spacing:0px;display:inline;fill:#ff0000;fill-opacity:1;stroke:none;stroke-width:1px;stroke-linecap:butt;stroke-linejoin:miter;stroke-opacity:1;filter:url(#filter11107)"
       id="text10765">
      <path
         d="m 174.16447,202.24049 0,-8.4375 q 0,-2.10937 -1.18652,-3.33984 -1.14258,-1.23047 -2.72461,-1.23047 -1.80176,0 -3.16406,1.58203 -1.36231,1.53809 -1.36231,4.39453 l 0,35.15625 q 0,2.417 1.36231,3.86719 1.3623,1.40625 3.16406,1.40625 1.62598,0 2.76856,-1.31836 1.14257,-1.3623 1.14257,-3.95508 l 0,-11.95312 23.90625,0 0,24.60937 q -2.50488,3.99903 -10.54687,6.24024 -7.99805,2.19726 -17.57813,2.19726 -13.05175,0 -20.96191,-5.58105 -7.86621,-5.625 -7.86621,-17.62207 l 0,-31.64063 q 0,-6.06445 1.58203,-10.54687 1.62598,-4.52637 4.83399,-7.4707 3.25195,-2.98829 8.12988,-4.43848 4.87793,-1.4502 11.46972,-1.4502 9.62403,0 16.875,1.80176 7.29493,1.75781 14.0625,5.93262 l 0,21.79687 -23.90625,0 z"
         style="font-style:normal;font-variant:normal;font-weight:normal;font-stretch:normal;font-size:90px;line-height:125%;font-family:Aachen;-inkscape-font-specification:Aachen;text-align:start;writing-mode:lr-tb;text-anchor:start;fill:#ff0000"
         id="path4214" />
      <path
         d="m 202.9926,174.11549 24.60937,0 0,21.79688 q 1.62598,-1.23047 4.43848,-1.93359 2.85645,-0.74708 6.02051,-0.74708 7.38281,0 12.87598,3.64747 5.49316,3.60351 5.49316,10.98632 l 0,21.79688 q 0,2.63672 0.13184,4.04297 0.13183,1.40625 0.74707,2.41699 0.65918,0.9668 1.93359,1.27441 l 0,13.35938 -23.20313,0 q -1.40625,-9.84375 -1.40625,-16.875 l 0,-18.98438 q 0,-2.98828 -1.01074,-4.6582 -1.01074,-1.66992 -3.07617,-1.66992 -1.27441,0 -2.94434,0.70312 l 0,22.5 q 0,1.49414 0.0879,2.50489 0.13183,1.01074 0.57128,1.93359 0.4834,0.87891 1.4502,1.18652 l 0,13.35938 -26.71875,0 0,-13.35938 q 1.88965,-0.96679 2.3291,-2.3291 0.4834,-1.3623 0.4834,-3.99902 l 0,-36.5625 q 0,-2.46094 -0.4834,-4.17481 -0.4834,-1.71386 -2.3291,-2.15332 l 0,-14.0625 z"
         style="font-style:normal;font-variant:normal;font-weight:normal;font-stretch:normal;font-size:90px;line-height:125%;font-family:Aachen;-inkscape-font-specification:Aachen;text-align:start;writing-mode:lr-tb;text-anchor:start;fill:#ff0000"
         id="path4216" />
      <path
         d="m 264.8676,200.13112 q 9.66797,-7.03125 26.01562,-7.03125 4.17481,0 8.26172,0.92285 4.13086,0.87891 7.51465,2.90039 3.38379,1.97754 5.40528,5.27344 2.02148,3.25195 2.02148,7.77832 l 0,22.5 q 0,1.27441 0.21973,2.10937 0.21972,0.83496 0.57129,1.36231 0.35156,0.52734 0.92285,1.09863 0.57129,0.52735 1.09863,1.05469 l 0,12.65625 -23.20313,0 0,-4.21875 q -0.57128,0.35156 -2.46093,1.66992 -1.88965,1.31836 -3.33985,2.10938 -1.45019,0.74707 -3.73535,1.27441 -2.28515,0.57129 -5.22949,0.57129 -3.33984,0 -6.24023,-0.92285 -2.85645,-0.87891 -5.18555,-2.8125 -2.28516,-1.97754 -3.73535,-5.22949 -1.4502,-3.2959 -1.71387,-7.91016 0,-4.57031 2.19727,-7.9541 2.24121,-3.38379 5.58105,-5.36133 3.33984,-2.02149 6.9873,-2.85645 l 15.46875,-4.92187 q 0,-0.74707 0,-1.36231 0.0439,-0.65918 0.0439,-1.58203 0,-2.06543 -0.57129,-3.25195 -0.52734,-1.23047 -2.28516,-1.53809 -0.61523,-0.0879 -0.8789,-0.0879 -2.02149,0 -3.03223,2.10938 -1.01074,2.10937 -1.01074,5.71289 l -19.6875,0 0,-14.0625 z m 27.42187,33.75 0,-6.32813 q -2.10937,0.35157 -5.27343,1.66993 -3.16407,1.31836 -3.16407,3.95507 0,3.60352 2.8125,3.60352 1.49415,0 3.25196,-0.9668 1.75781,-1.01074 2.37304,-1.93359 z"
         style="font-style:normal;font-variant:normal;font-weight:normal;font-stretch:normal;font-size:90px;line-height:125%;font-family:Aachen;-inkscape-font-specification:Aachen;text-align:start;writing-mode:lr-tb;text-anchor:start;fill:#ff0000"
         id="path4218" />
      <path
         d="m 319.71135,231.06862 0,-19.6875 q 0,-6.81152 2.37305,-10.72266 2.37304,-3.95508 7.82226,-5.75683 5.49317,-1.80176 15.11719,-1.80176 9.58008,0 15.07324,1.66992 5.49317,1.62598 7.86621,5.58106 2.37305,3.91113 2.37305,11.03027 l 0,21.09375 q 0,5.97656 -1.58203,9.75586 -1.53809,3.73535 -4.61426,5.71289 -3.07617,1.97754 -7.69043,2.76855 -4.57031,0.74707 -11.42578,0.74707 -6.76758,0 -11.38184,-0.83496 -4.57031,-0.8789 -7.69043,-3.07617 -3.12011,-2.24121 -4.70214,-6.19629 -1.53809,-3.99902 -1.53809,-10.2832 z m 29.53125,1.40625 0,-21.79688 q 0,-1.53808 -0.61523,-2.63671 -0.61524,-1.14258 -1.53809,-1.71387 -0.92285,-0.57129 -2.06543,-0.57129 -1.71387,0 -2.98828,1.45019 -1.23047,1.4502 -1.23047,4.17481 l 0,21.09375 q 0,2.72461 1.23047,4.26269 1.27441,1.53809 2.98828,1.53809 1.09863,0 2.02148,-0.65918 0.9668,-0.65918 1.58204,-1.93359 0.61523,-1.31836 0.61523,-3.20801 z"
         style="font-style:normal;font-variant:normal;font-weight:normal;font-stretch:normal;font-size:90px;line-height:125%;font-family:Aachen;-inkscape-font-specification:Aachen;text-align:start;writing-mode:lr-tb;text-anchor:start;fill:#ff0000"
         id="path4220" />
      <path
         d="m 375.25822,228.95924 20.39063,0 0,4.21875 q 0,2.417 1.3623,3.73536 1.36231,1.27441 3.20801,1.27441 1.58203,0 2.76856,-1.01074 1.23047,-1.05469 1.23047,-2.8125 0,-0.57129 -0.13184,-1.18653 -0.4834,-2.15332 -2.8125,-3.38379 -2.3291,-1.27441 -4.79004,-1.80175 -2.41699,-0.52735 -7.20703,-1.4502 -4.79004,-0.92285 -6.28418,-1.80176 -4.57031,-1.93359 -6.89941,-5.71289 -2.32911,-3.77929 -2.32911,-8.30566 0,-4.79004 2.46094,-9.05274 2.46094,-4.30664 6.76758,-6.45996 2.76855,-1.40625 6.76758,-2.10937 3.99902,-0.70313 8.52539,-0.70313 4.52637,0 7.91015,0.70313 2.37305,0.43945 5.49317,1.3623 3.12012,0.92286 6.28418,2.54883 3.20801,1.62598 5.09765,3.82324 l 0,13.35938 -19.6875,0 0,-3.51563 q 0,-2.28515 -1.31835,-3.47168 -1.31836,-1.18652 -3.12012,-1.18652 -1.62598,0 -2.8125,0.87891 -1.18653,0.8789 -1.18653,2.37304 0,1.97754 1.05469,3.12012 1.05469,1.14258 2.37305,1.62598 1.3623,0.43945 5.71289,1.58203 4.52637,0.83496 7.07519,1.45019 2.54883,0.57129 5.44922,2.10938 2.94434,1.53809 5.00977,4.26269 2.10937,2.72461 2.85644,6.94336 0.35157,2.19727 0.35157,3.91114 0,6.06445 -3.38379,10.01953 -3.38379,3.91113 -8.87696,5.66894 -5.49316,1.75782 -11.90917,1.75782 -6.63575,0 -12.74415,-1.66993 -1.93359,-0.30761 -4.79003,-1.45019 -2.8125,-1.18652 -5.00977,-2.50488 -2.15332,-1.36231 -2.85645,-2.37305 l 0,-14.76563 z"
         style="font-style:normal;font-variant:normal;font-weight:normal;font-stretch:normal;font-size:90px;line-height:125%;font-family:Aachen;-inkscape-font-specification:Aachen;text-align:start;writing-mode:lr-tb;text-anchor:start;fill:#ff0000"
         id="path4222" />
      <path
         d="m 459.63322,174.11549 29.53125,0 q 10.06348,0 16.39161,1.09864 6.37207,1.05468 10.45898,5.22949 4.08691,4.13086 4.08691,12.65625 0,4.70215 -1.27441,8.39355 -1.27441,3.69141 -4.08691,6.1084 -2.8125,2.37305 -7.29493,3.07617 3.82325,0.43946 6.54786,2.06543 2.72461,1.58203 4.35058,3.95508 1.66992,2.3291 2.46094,5.22949 0.79102,2.90039 0.79102,6.24024 0,0.70312 -0.0879,2.19726 -0.30761,4.70215 -1.49414,8.26172 -1.14257,3.51563 -3.99902,6.28418 -2.85644,2.76856 -7.86621,4.30664 -5.00977,1.53809 -12.65625,1.53809 l -35.85938,0 0,-14.0625 q 2.37305,-0.9668 2.94434,-2.68067 0.57129,-1.71386 0.57129,-5.05371 l 0,-31.64062 q 0,-3.69141 -0.61523,-5.80078 -0.57129,-2.15332 -2.9004,-2.63672 l 0,-14.76563 z m 26.71875,16.17188 0,14.0625 q 5.44922,0 7.69043,-1.01074 2.24122,-1.05469 2.24122,-4.52637 0,-0.43945 -0.0879,-1.49414 -0.48339,-4.48242 -2.59277,-5.75684 -2.10937,-1.27441 -7.25098,-1.27441 z m 0,28.125 0,16.17187 q 3.69141,0 5.80079,-0.52734 2.10937,-0.57129 3.12011,-2.06543 1.01075,-1.49414 1.01075,-4.43848 0,-1.3623 -0.0879,-2.10937 -0.43945,-4.57031 -2.10937,-5.80078 -1.66992,-1.23047 -5.27344,-1.23047 l -2.46094,0 z"
         style="font-style:normal;font-variant:normal;font-weight:normal;font-stretch:normal;font-size:90px;line-height:125%;font-family:Aachen;-inkscape-font-specification:Aachen;text-align:start;writing-mode:lr-tb;text-anchor:start;fill:#ff0000"
         id="path4224" />
      <path
         d="m 527.13322,174.11549 29.53125,0 q 10.06348,0 16.39161,1.09864 6.37207,1.05468 10.45898,5.22949 4.08691,4.13086 4.08691,12.65625 0,4.70215 -1.27441,8.39355 -1.27441,3.69141 -4.08691,6.1084 -2.8125,2.37305 -7.29493,3.07617 3.82325,0.43946 6.54786,2.06543 2.72461,1.58203 4.35058,3.95508 1.66992,2.3291 2.46094,5.22949 0.79102,2.90039 0.79102,6.24024 0,0.70312 -0.0879,2.19726 -0.30761,4.70215 -1.49414,8.26172 -1.14257,3.51563 -3.99902,6.28418 -2.85644,2.76856 -7.86621,4.30664 -5.00977,1.53809 -12.65625,1.53809 l -35.85938,0 0,-14.0625 q 2.37305,-0.9668 2.94434,-2.68067 0.57129,-1.71386 0.57129,-5.05371 l 0,-31.64062 q 0,-3.69141 -0.61523,-5.80078 -0.57129,-2.15332 -2.9004,-2.63672 l 0,-14.76563 z m 26.71875,16.17188 0,14.0625 q 5.44922,0 7.69043,-1.01074 2.24122,-1.05469 2.24122,-4.52637 0,-0.43945 -0.0879,-1.49414 -0.48339,-4.48242 -2.59277,-5.75684 -2.10937,-1.27441 -7.25098,-1.27441 z m 0,28.125 0,16.17187 q 3.69141,0 5.80079,-0.52734 2.10937,-0.57129 3.12011,-2.06543 1.01075,-1.49414 1.01075,-4.43848 0,-1.3623 -0.0879,-2.10937 -0.43945,-4.57031 -2.10937,-5.80078 -1.66992,-1.23047 -5.27344,-1.23047 l -2.46094,0 z"
         style="font-style:normal;font-variant:normal;font-weight:normal;font-stretch:normal;font-size:90px;line-height:125%;font-family:Aachen;-inkscape-font-specification:Aachen;text-align:start;writing-mode:lr-tb;text-anchor:start;fill:#ff0000"
         id="path4226" />
      <path
         d="m 593.9301,228.95924 0,-30.9375 q 0,-6.37207 1.62598,-10.98632 1.66992,-4.65821 5.05371,-7.64649 3.38379,-2.98828 8.70117,-4.48242 5.36133,-1.49414 12.74414,-1.49414 9.7998,0 16.3916,2.41699 6.63574,2.37305 9.8877,7.38281 3.25195,5.00977 3.25195,12.7002 l 0,33.04687 q 0,4.30664 -1.01074,7.86621 -1.01074,3.51563 -3.91114,6.89942 l 4.92188,4.21875 -7.73438,14.0625 q -5.49316,-1.97754 -9.84375,-4.48242 -4.30664,-2.50489 -7.73437,-5.36133 -1.4502,0.17578 -3.64746,0.17578 -4.87793,0 -10.41504,-1.05469 -5.49316,-1.01074 -8.4375,-2.63672 -4.17481,-2.37304 -7.03125,-7.33886 -2.8125,-5.00977 -2.8125,-12.34864 z m 23.90625,-31.64062 0,30.23437 q 0,2.417 0.21973,3.95508 0.26367,1.53809 1.3623,2.68067 1.09863,1.09863 3.33984,1.09863 2.59278,0 3.42774,-1.36231 0.83496,-1.40625 0.83496,-3.99902 0,-0.79101 -0.0439,-1.27441 0,-0.52735 0,-1.09864 l 0,-30.23437 q 0,-4.08692 -1.09863,-5.53711 -1.09863,-1.49414 -3.82324,-1.49414 -4.21875,0 -4.21875,7.03125 z"
         style="font-style:normal;font-variant:normal;font-weight:normal;font-stretch:normal;font-size:90px;line-height:125%;font-family:Aachen;-inkscape-font-specification:Aachen;text-align:start;writing-mode:lr-tb;text-anchor:start;fill:#ff0000"
         id="path4228" />
    </g>
  </g>
</svg>
