<svg width="369" height="35" viewBox="0 0 369 35" fill="none" xmlns="http://www.w3.org/2000/svg">
<path d="M26.59 19.63L81.39 18.52C85.46 13.22 88.78 8.64 91.48 4.55L22.18 5.67C19.56 8.51 17.01 11.43 14.53 14.44C8.43 21.85 3.57 28.67 0 34.76L16.69 34.35C18.79 30.33 22.02 25.45 26.59 19.63Z" fill="black"/>
<path d="M136.38 3.8L135.48 4.72C126.47 13.87 117.68 22.94 108.89 32.11L124.69 31.73L152.76 3.54L136.38 3.8Z" fill="black"/>
<path d="M116.81 4.12L100.44 4.39L86.73 32.65L102.53 32.27C107.25 23.18 111.86 14.15 116.36 5.05L116.81 4.12Z" fill="black"/>
<path d="M179.05 3.1L161.57 3.39C159.09 6.42 156.66 9.59 154.31 12.89C149.52 19.62 145.85 25.78 143.3 31.27L161.82 30.82C163.53 25.86 166.88 19.69 171.86 12.55C174.21 9.19 176.61 6.03 179.05 3.1Z" fill="black"/>
<path d="M233.11 2.22L215.77 2.5C214.25 5.38 212.39 8.49 210.18 11.82C205.49 18.88 200.47 25.01 195.4 30.01L213.79 29.56C218.67 24.12 223.31 18.07 227.58 11.49C229.69 8.26 231.52 5.17 233.11 2.22Z" fill="black"/>
<path d="M254.65 1.87L238.1 2.14L220.5 29.4L237.5 28.98L247.9 12.5L248.2 12.49L248.96 28.7L269.45 28.2L267.28 6.9L274.48 1.54L254.93 1.86L254.65 1.87Z" fill="black"/>
<path d="M299.65 1.13C297.83 3.73 296.09 6.42 294.46 9.17C290.44 15.97 287.5 22.22 285.66 27.81L302.35 27.4C303.3 23.71 305.15 19.24 308.06 13.9L362.86 12.79C365.41 7.94 367.41 3.74 368.94 0L299.65 1.13Z" fill="black"/>
</svg>