<?xml version="1.0" encoding="utf-8"?>
<!-- Generator: Adobe Illustrator 24.1.1, SVG Export Plug-In . SVG Version: 6.00 Build 0)  -->
<svg version="1.1" id="Layer_1" xmlns="http://www.w3.org/2000/svg" xmlns:xlink="http://www.w3.org/1999/xlink" x="0px" y="0px"
	 viewBox="0 0 595.3 595.3" style="enable-background:new 0 0 595.3 595.3;" xml:space="preserve">
<style type="text/css">
	.st0{clip-path:url(#SVGID_2_);}
	.st1{fill:#6E6F71;}
	.st2{fill:#595A5C;}
	.st3{fill:#AA6427;}
	.st4{fill:#444445;}
	.st5{fill:none;stroke:#444445;stroke-width:12;stroke-miterlimit:10;}
</style>
<g>
	<defs>
		<circle id="SVGID_1_" cx="297.6" cy="297.6" r="297.6"/>
	</defs>
	<clipPath id="SVGID_2_">
		<use xlink:href="#SVGID_1_"  style="overflow:visible;"/>
	</clipPath>
	<g class="st0">
		<path class="st1" d="M403.5,344.4c0.6,1.7,0.4,3.5-0.6,5c-5.1,7.6-10.9,14.8-17.3,21.4c-5.2,5.3-10.8,10.4-16.8,14.9
			c-2.4,1.8-5.7,1.4-7.6-0.9l-12.1-14.9c-13,6.8-28.6,10.5-45,10.5c-3.5,0-7.1-0.2-10.7-0.5c-14.2-1.4-27.1-5.4-37.9-11.6
			c-9.8,10.3-17.4,22.7-22.2,35.9c-7.9,21.6-6.9,41.3-4.5,54.7c0.5,0.7,0.9,1.5,1,2.5c0,0.1,0.3,1.9,0.9,4.6
			c3.4-8.6,7.5-16.8,16.7-19.3c7.5-1.7,15.6-0.8,22,3.5c0.1-0.1,0.1-0.2,0.1-0.2c1.8-2.4,5.3-2.9,7.7-1.1
			c0.6,0.5,15.2,11.7,13.2,30.3c-1.2,11.2-8.3,21.3-18.4,26.4c-2,1-7.9,3.6-15.1,3.6c-2.4,0-5-0.3-7.6-1.1
			c-13-3.8-20.6-15.3-24.9-25.9c-1.3,5.3-2.4,10.7-3.4,16.1c-7.6,40.5-11.5,60.9-1,75c2.2,3,5.3,6.2,8.8,9.3
			c11-14.9,30.4-20.2,45.1-11.6c13.2,7.7,18.8,24,14.5,39.6c4.6-0.1,9.7-0.5,15.3-0.9c6.4-0.4,13.6-0.9,21.9-1.2c0.4,0,0.8,0,2,0.1
			c2.9,0.1,9.5,0.4,17.6,0.2c-5.1-16.1,0.4-33.2,14.1-41.1c14.4-8.3,33.2-3.5,44.3,10.5c4.1-5.9,7.6-12.8,9.3-20.4
			c2.4-11.1-0.4-18-5.4-30.4c-3.3-8-7.3-18-11-32c-5-18.7-7.6-38-7.8-57.5c0-1.7,0.7-3.3,2-4.3c9.6-7.8,17.7-17,24.1-27.3
			c7.1-11.3,10.1-21.7,16-42.4c0.3-1,0.6-2.2,1-3.5c-1.6,0.4-3.4,0.6-5.3,0.6c-1.1,0-2.2-0.1-3.4-0.2c-7.1-1-11.9-4.8-14.1-7
			c-1.5-1.5-2-3.7-1.4-5.6C406.1,346.9,404.7,345.7,403.5,344.4z"/>
		<path class="st2" d="M416.6,345.7c1.3,1.2,4,3.4,7.9,4c5.4,0.8,9.6-2,11-3.1c3.6-13.4,7.4-28.6,6.7-31.9c-3.3-4.1-7.5-6.8-7.6-6.8
			c-2.2-1.4-4.5-2.4-6.9-3c-1.7-0.4-5.6-1.5-10.4-0.5c0,0-3,0.6-6.7,2.7c-0.5,0.3-4.9,3.1-7.8,7.6c-3.7,5.6-5,16.8,0.6,29.5
			c0,0.1,0.1,0.2,0.1,0.3c1.3,1.3,2.6,2.5,4,3.6c0.3-0.8,0.7-1.6,1.3-2.2C410.9,343.6,414.4,343.6,416.6,345.7z"/>
		<path class="st2" d="M334.5,229c-0.1-1.2,0.1-2.5,0.9-3.6c1.7-2.5,5.1-3.2,7.6-1.6c0.3,0.2,0.6,0.4,1.1,0.8
			c29.7-17.1,47.6-102.6,45.2-153.3c-1.2-24.9-6.7-33.5-9.8-34.7c-7.2-2.8-27.8,17.3-45.8,44.7c-10,15.3-11.3,23.4-13.5,38.3
			c-0.8,5.4-1.7,11.4-3.2,18.9c-2.1,10.9-4.2,17-6.2,23c-2.1,6.2-4.2,12.6-6.7,25.3c-1.8,9.2-3.2,18.6-4,27.9c0,0.4-0.1,0.8-0.3,1.2
			C306.5,225,321.5,227.1,334.5,229z"/>
		<path class="st1" d="M336.9,233.1c-1.4-1-2.3-2.5-2.4-4.1c-13-1.9-28-4.1-34.4-13.2c-0.7,2.2-2.8,3.8-5.2,3.8h-1.1
			c-2.6,0-4.9-1.9-5.4-4.5c-1.5-7.9-3.2-15.8-5-23.7c-3.4-14.7-5.8-22.2-7.7-28.1c-1.9-6.1-3.4-11-5.3-20.3
			c-1.5-7.5-2.4-13.6-3.2-18.9c-2.2-14.8-3.4-23-13.5-38.3c-18-27.4-38.6-47.5-45.8-44.7c-6.7,2.6-12.2,26.6-9.1,65.9
			c4.4,55.2,23.6,115.4,48.6,124c1.7-1.6,3.5-3.2,5.4-4.6c2.4-1.9,5.9-1.5,7.7,0.9c1.9,2.4,1.5,5.9-0.9,7.7
			c-4.2,3.3-8,6.9-11.3,10.8c-16.9,19.9-19.1,42.5-19.4,49c0,0.8-0.1,1.8-0.1,3.1c0,0.2,0.1,22.7,11.9,41.8
			c9.8,15.9,29.9,26.7,53.6,29.1c26.1,2.6,51.3-5.4,65.7-20.7c7.3-7.9,16.1-22.2,16.1-45.8C376.3,260.4,340.9,235.8,336.9,233.1z"/>
		<g>
			<polygon class="st3" points="369.1,473.5 275,419.2 275,527.9 			"/>
			<path class="st4" d="M275,533.4c-1,0-1.9-0.2-2.8-0.7c-1.7-1-2.8-2.8-2.8-4.8V419.2c0-2,1-3.8,2.8-4.8c1.7-1,3.8-1,5.5,0
				l94.2,54.4c1.7,1,2.8,2.8,2.8,4.8s-1,3.8-2.8,4.8l-94.2,54.4C276.9,533.2,275.9,533.4,275,533.4z M280.5,428.7v89.6l77.6-44.8
				L280.5,428.7z"/>
		</g>
		<path class="st2" d="M251.2,599.9c-1.9-1.3-7.7-5.3-14.1-10.3c7.6-10.8,21.1-15,31.1-9.2c9.3,5.4,12.8,18.2,8.5,29.7
			c-6.9-0.7-13.2-2.6-20-6.5C255.5,602.8,254.1,601.9,251.2,599.9z"/>
		<path class="st2" d="M382.4,599.3c-1.9,1.1-4,2.1-4,2.1c-1.1,0.5-1.9,0.9-2,0.9c0,0-0.1,0-0.1,0.1c-2.4,1.1-8.2,3.7-15.4,5.1
			c-0.8,0.2-1.9,0.4-4.2,0.6c-5-11.8-1.6-25.3,8.1-30.9c10.2-5.9,24.1-1.5,31.6,9.9C389.2,594.7,382.5,599.2,382.4,599.3z"/>
		<path class="st2" d="M247.4,446.6c-9.2,2.5-13.3,10.7-16.7,19.3c2,8.8,7.9,27.6,21.6,31.6c6.7,1.9,13.4-1.2,14.7-1.8
			c6.9-3.4,11.7-10.2,12.5-17.7c1.3-12.4-8.4-20-8.9-20.3c-2.3-1.8-2.8-5.1-1.2-7.5C263,445.8,254.9,444.9,247.4,446.6z"/>
		<g>
			<path class="st4" d="M310.1,332.6c10.3,0,17.4-6.2,17.3-11.7c0-0.5-0.1-1.1-0.2-1.6c-1.3-5-8.2-10.2-17.6-10.2
				c-10.3,0-17.4,6.2-17.3,11.7c0,0.5,0.1,1.1,0.2,1.6C293.7,327.4,300.7,332.6,310.1,332.6z"/>
			<path class="st4" d="M424,412c7.9-12.7,11.1-23.6,17.3-45.3c13.7-47.7,13.6-53.6,9.8-58.6c-4.6-6-10.5-9.6-10.7-9.7
				c-3.1-1.9-6.3-3.3-9.8-4.3c-2.2-0.6-8.1-2.2-15.5-0.6c-0.8,0.2-4.8,1.1-9.8,3.8c0,0-0.1,0.1-0.1,0.1c-0.3,0.2-6.9,4.1-11.5,10.9
				c-6.1,9.2-6.7,23.5-1.5,37.2c-4.3,6.2-9.2,12-14.4,17.4c-3.6,3.7-7.4,7.2-11.4,10.5l-7.7-9.5c3.5-2.5,6.8-5.4,9.7-8.4
				c8.7-9.3,19.1-26.1,19.1-53.3c0.1-34.6-20.9-58.6-34.1-70.4c17.9-13.1,29.2-42.4,35.6-65.9c8.4-30.7,12.9-67.1,11.6-95.1
				c-1.2-25.7-6.9-40.7-16.8-44.5c-9.6-3.7-21.8,3.1-37.5,20.8c-10.7,12.1-19.7,25.6-21.4,28.1c-11.4,17.3-12.9,27.4-15.1,42.7
				c-0.8,5.3-1.7,11.2-3.1,18.5c-2,10.2-3.8,15.7-5.8,21.6c-2.2,6.5-4.5,13.3-7.1,26.7c-0.1,0.4-0.2,0.8-0.2,1.2
				c-3.1-13.1-5.3-20.1-7.1-25.8c-1.8-5.8-3.3-10.4-5-19.1c-1.4-7.3-2.3-13.2-3.1-18.5c-2.3-15.3-3.8-25.4-15.1-42.7
				c-1.7-2.6-10.7-16-21.4-28.1c-15.7-17.7-27.9-24.5-37.5-20.8c-19.5,7.5-17.8,56.4-16.1,77.1c2.4,30,8.9,60.8,18,84.6
				c9.2,24.3,20.7,40.3,33.5,47c-18.7,22.4-21.1,47.7-21.4,55c0,0.8-0.1,1.9-0.1,3.4c0,1,0,25.9,13.5,47.7
				c3.8,6.2,8.8,11.7,14.7,16.4c-10.2,11.1-18.2,24.3-23.3,38.3c-9,24.6-7.6,47-4.7,61.8c-3.3,11.2-6,22.6-8.2,34.1
				c-8,42.3-12.3,65.6,1,83.6c8.6,11.6,28.2,25.3,34,29.3c3.1,2.1,4.6,3.1,6.3,4.1c9.4,5.4,17.9,7.6,27.1,8.2
				c0.6,0.2,1.1,0.3,1.7,0.3c0.4,0,0.8-0.1,1.2-0.1c1.2,0,2.4,0.1,3.6,0.1c5.9,0,12.3-0.4,19.4-0.9c6.3-0.4,13.4-0.9,21.4-1.2
				c0.2,0,0.7,0,1.3,0c3.4,0.1,11.2,0.5,21,0.1c8.6-0.3,12.3-0.8,15-1.4c8.4-1.7,14.9-4.6,17.7-5.9c0.3-0.1,1.2-0.5,2.4-1.1
				c0.1,0,2.5-1.2,4.8-2.5c0.3-0.2,29.2-19.1,35.6-48.7c3.1-14.5-0.7-23.8-6-36.9c-3.1-7.7-7-17.3-10.6-30.7
				c-4.5-17-7-34.5-7.4-52.2C409.1,432.1,417.3,422.6,424,412z M229,298c0-1.3,0.1-2.4,0.1-3.1c0.3-6.5,2.4-29.1,19.4-49
				c3.4-3.9,7.2-7.6,11.3-10.8c2.4-1.9,2.8-5.3,0.9-7.7c-1.9-2.4-5.3-2.8-7.7-0.9c-1.9,1.5-3.7,3-5.4,4.6
				c-25-8.6-44.2-68.8-48.6-124c-3.1-39.4,2.3-63.3,9.1-65.9c7.2-2.8,27.8,17.3,45.8,44.7c10,15.3,11.3,23.4,13.5,38.3
				c0.8,5.4,1.7,11.4,3.2,18.9c1.8,9.3,3.3,14.2,5.3,20.3c1.9,6,4.2,13.4,7.7,28.1c1.9,7.9,3.5,15.9,5,23.7c0.5,2.6,2.8,4.5,5.4,4.5
				h1.1c2.9,0,5.2-2.2,5.5-5c0.8-9.3,2.2-18.6,4-27.9c2.5-12.6,4.6-19.1,6.7-25.3c2-5.9,4-12.1,6.2-23c1.5-7.5,2.4-13.6,3.2-18.9
				c2.2-14.8,3.4-23,13.5-38.3c18-27.4,38.5-47.5,45.8-44.7c3.1,1.2,8.6,9.8,9.8,34.7c2.4,50.7-15.6,136.2-45.2,153.3
				c-0.5-0.3-0.9-0.6-1.1-0.8c-2.5-1.7-6-1-7.6,1.6c-1.7,2.5-1,6,1.6,7.6c4,2.7,39.4,27.3,39.4,69.2c0,23.6-8.8,38-16.1,45.8
				c-14.4,15.4-39.5,23.3-65.7,20.7c-23.7-2.3-43.8-13.2-53.6-29.1C229,320.7,229,298.2,229,298z M251.2,599.9
				c-1.9-1.3-7.7-5.3-14.1-10.3c7.6-10.8,21.1-15,31.1-9.2c9.3,5.4,12.8,18.2,8.5,29.7c-6.9-0.7-13.2-2.6-20-6.5
				C255.5,602.8,254.1,601.9,251.2,599.9z M382.4,599.3c-1.9,1.1-4,2.1-4,2.1c-1.1,0.5-1.9,0.9-2,0.9c0,0-0.1,0-0.1,0.1
				c-2.4,1.1-8.2,3.7-15.4,5.1c-0.8,0.2-1.9,0.4-4.2,0.6c-5-11.8-1.6-25.3,8.1-30.9c10.2-5.9,24.1-1.5,31.6,9.9
				C389.2,594.7,382.5,599.2,382.4,599.3z M396.3,495.3c3.7,14.1,7.8,24,11,32c5.1,12.4,7.8,19.2,5.4,30.4
				c-1.7,7.7-5.2,14.6-9.3,20.4c-11.1-14-29.9-18.9-44.3-10.5c-13.7,7.9-19.1,25-14.1,41.1c-8.2,0.2-14.7-0.1-17.6-0.2
				c-1.2-0.1-1.6-0.1-2-0.1c-8.2,0.3-15.5,0.8-21.9,1.2c-5.7,0.4-10.7,0.7-15.3,0.9c4.3-15.6-1.3-31.9-14.5-39.6
				c-14.7-8.5-34.1-3.3-45.1,11.6c-3.5-3.1-6.6-6.4-8.8-9.3c-10.5-14.1-6.6-34.5,1-75c1-5.4,2.2-10.7,3.4-16.1
				c4.4,10.5,12,22.1,24.9,25.9c2.6,0.8,5.2,1.1,7.6,1.1c7.2,0,13-2.6,15.1-3.6c10.2-5.1,17.2-15.2,18.4-26.4
				c2-18.6-12.5-29.8-13.2-30.3c-2.4-1.8-5.9-1.3-7.7,1.1c-1.8,2.4-1.4,5.9,1,7.7c0.4,0.3,10.2,8,8.9,20.3
				c-0.8,7.5-5.6,14.3-12.5,17.7c-1.3,0.6-8,3.7-14.7,1.8c-17.9-5.2-22.5-35.9-22.5-36.2c-0.1-0.9-0.5-1.8-1-2.5
				c-2.5-13.4-3.4-33.1,4.5-54.7c4.8-13.2,12.4-25.5,22.2-35.9c10.8,6.2,23.7,10.2,37.9,11.6c3.6,0.4,7.2,0.5,10.7,0.5
				c16.3,0,32-3.7,45-10.5l12.1,14.9c1.9,2.3,5.3,2.7,7.6,0.9c5.9-4.5,11.6-9.6,16.8-14.9c6.4-6.6,12.2-13.8,17.3-21.4
				c1.1-1.6,1.2-3.6,0.5-5.3c-5.6-12.7-4.3-23.9-0.6-29.5c3-4.5,7.4-7.3,7.8-7.6c3.7-2,6.6-2.6,6.7-2.7c4.9-1,8.8,0,10.4,0.5
				c2.4,0.6,4.7,1.6,6.9,3c0,0,4.3,2.7,7.6,6.8c0.8,3.3-3,18.5-6.7,31.9c-1.4,1.1-5.5,3.9-11,3.1c-3.9-0.6-6.7-2.7-7.9-4
				c-2.2-2.1-5.7-2.1-7.8,0.1c-2.1,2.2-2.1,5.7,0.1,7.8c2.2,2.2,7,6,14.1,7c1.2,0.2,2.3,0.2,3.4,0.2c1.9,0,3.7-0.2,5.3-0.6
				c-0.4,1.3-0.7,2.5-1,3.5c-5.9,20.7-8.9,31.1-16,42.4c-6.5,10.3-14.6,19.5-24.1,27.3c-1.3,1.1-2,2.7-2,4.3
				C388.7,457.3,391.3,476.6,396.3,495.3z"/>
			<path class="st4" d="M269.7,291.4c0.5,0.1,0.9,0.2,1.4,0.2c5,0,10.5-6.8,10.5-16.5c0-8.8-4.7-15.2-9.1-16.3
				c-0.5-0.1-0.9-0.2-1.4-0.2c-5,0-10.5,6.8-10.5,16.5C260.6,283.9,265.2,290.3,269.7,291.4z"/>
			<path class="st4" d="M337.8,288.9c0.5,0.1,0.9,0.2,1.4,0.2c5,0,10.5-6.8,10.5-16.5c0-8.8-4.7-15.2-9.1-16.3
				c-0.5-0.1-0.9-0.2-1.4-0.2c-5,0-10.5,6.8-10.5,16.5C328.7,281.5,333.4,287.9,337.8,288.9z"/>
		</g>
	</g>
</g>
<circle class="st5" cx="297.6" cy="297.6" r="297.6"/>
</svg>
