<?xml version="1.0" encoding="UTF-8" standalone="no"?>
<!-- Created with Inkscape (http://www.inkscape.org/) -->

<svg
   xmlns:dc="http://purl.org/dc/elements/1.1/"
   xmlns:cc="http://creativecommons.org/ns#"
   xmlns:rdf="http://www.w3.org/1999/02/22-rdf-syntax-ns#"
   xmlns:svg="http://www.w3.org/2000/svg"
   xmlns="http://www.w3.org/2000/svg"
   xmlns:sodipodi="http://sodipodi.sourceforge.net/DTD/sodipodi-0.dtd"
   xmlns:inkscape="http://www.inkscape.org/namespaces/inkscape"
   width="800"
   height="170"
   viewBox="0 0 800.00001 170"
   id="svg4295"
   version="1.1"
   inkscape:version="0.92.3 (2405546, 2018-03-11)"
   sodipodi:docname="Banner.svg">
  <defs
     id="defs4297" />
  <sodipodi:namedview
     id="base"
     pagecolor="#ffffff"
     bordercolor="#666666"
     borderopacity="1.0"
     inkscape:pageopacity="0.0"
     inkscape:pageshadow="2"
     inkscape:zoom="1.8136184"
     inkscape:cx="245.72417"
     inkscape:cy="35.210658"
     inkscape:document-units="px"
     inkscape:current-layer="g123"
     showgrid="false"
     units="px"
     inkscape:window-width="1865"
     inkscape:window-height="1053"
     inkscape:window-x="55"
     inkscape:window-y="27"
     inkscape:window-maximized="1"
     showguides="true"
     inkscape:guide-bbox="true">
    <sodipodi:guide
       position="336.3808,50.507627"
       orientation="0,1"
       id="guide4185"
       inkscape:locked="false" />
    <sodipodi:guide
       position="333.85542,87.125657"
       orientation="1,0"
       id="guide4187"
       inkscape:locked="false" />
  </sodipodi:namedview>
  <metadata
     id="metadata4300">
    <rdf:RDF>
      <cc:Work
         rdf:about="">
        <dc:format>image/svg+xml</dc:format>
        <dc:type
           rdf:resource="http://purl.org/dc/dcmitype/StillImage" />
        <dc:title />
      </cc:Work>
    </rdf:RDF>
  </metadata>
  <g
     inkscape:label="Ebene 1"
     inkscape:groupmode="layer"
     id="layer1"
     transform="translate(0,-882.36216)">
    <g
       transform="translate(297,886.16216)"
       id="g3">
      <g
         id="g5">
        <g
           id="g7"
           style="fill:#e86913;fill-opacity:1">
          <path
             style="fill:#e86913;fill-opacity:1"
             inkscape:connector-curvature="0"
             d="m -292,14.2 0,13.1 0,13.9 0,13.9 0,13.9 0,13.9 0,13.9 0,13.9 0,14.7 13.9,0 0,13.9 13.9,0 0,13.7 27,0 13.9,0 13.9,0 13.9,0 13.9,0 14.7,0 0,-13.9 13.9,0 0,-13.9 13.9,0 0,-14.7 0,-13.8 0,-13.9 0,-13.9 0,-13.8 0,-13.9 0,-13.9 0,-13.1 -13.9,0 0,-13.9 -27.8,0 0,13.9 -13.9,0 0,13.9 -14.7,0 -13.9,0 -13.1,0 0,-13.9 -13.9,0 0,-13.9 -27.8,0 0,13.9 -13.9,0 z m 13.9,55.5 10.8,0 0,-13.9 100.3,0 0,13.9 13.9,0 0,13.1 0,13.9 0,14.7 -13.9,0 0,13.9 -13.9,0 0,13.9 -14.7,0 -13.9,0 -13.9,0 -13.9,0 -13.1,0 0,-13.9 -13.9,0 0,-13.9 -13.9,0 0,-14.7 0,-13.9 0,-13.1 z"
             id="path9" />
        </g>
      </g>
      <g
         id="g11">
        <path
           style="fill:#ffffff"
           inkscape:connector-curvature="0"
           d="m -279.4,70.2 0,13.3 0,13.9 0,13.9 16,0 0,14 13,0 0,15 14.8,0 13.9,0 13.9,0 13.9,0 13.6,0 0,-15 13,0 0,-14 13,0 0,-13.9 0,-13.9 0,-13.3 -13,0 0,-14 -12.7,0 -14,0 -13.9,0 -13.9,0 -13.9,0 -33.8,0 0,14 -9.9,0 z"
           id="path13" />
        <rect
           x="-180.39999"
           y="83.199997"
           width="13"
           height="15"
           id="rect15" />
        <rect
           x="-263.39999"
           y="83.199997"
           width="13"
           height="15"
           id="rect17" />
        <rect
           x="-209.39999"
           y="98.199997"
           width="14"
           height="13"
           id="rect19" />
        <rect
           x="-237.39999"
           y="111.2"
           width="42"
           height="14"
           id="rect21" />
        <rect
           x="-237.39999"
           y="98.199997"
           width="15"
           height="13"
           id="rect23" />
      </g>
    </g>
    <g
       transform="translate(297,886.16216)"
       id="g123">
      <polygon
         style="fill:#e86913;fill-opacity:1"
         points="0,161.2 32.8,129.1 215.3,129.1 269.3,76 0,76 0,133.4 0,129.1 "
         id="polygon125" />
      <polygon
         style="fill:#00a5dd"
         points="29.5,76.5 500.2,76.5 500.2,57.4 500.2,0 0,0 0,57.4 0,76.5 0,106.2 "
         id="polygon127" />
      <path
         style="fill:#ffffff"
         inkscape:connector-curvature="0"
         d="m 468.2,22.1 4.7,0 0,-4.8 -4.7,0 0,4.8 z m -6.3,0 4.7,0 0,-4.8 -4.7,0 0,4.8 z m -6.3,0 4.7,0 0,-4.8 -4.7,0 0,4.8 z m -6.3,0 4.7,0 0,-4.8 -4.7,0 0,4.8 z m -6.3,0 4.7,0 0,-4.8 -4.7,0 0,4.8 z m -12.6,0 4.7,0 0,-4.8 -4.7,0 0,4.8 z m -25.2,0 4.7,0 0,-4.8 -4.7,0 0,4.8 z m -18.9,0 4.7,0 0,-4.8 -4.7,0 0,4.8 z m -6.3,0 4.7,0 0,-4.8 -4.7,0 0,4.8 z m -6.3,0 4.7,0 0,-4.8 -4.7,0 0,4.8 z m -31.5,0 4.7,0 0,-4.8 -4.7,0 0,4.8 z m -25.2,0 4.7,0 0,-4.8 -4.7,0 0,4.8 z m -25.2,0 4.7,0 0,-4.8 -4.7,0 0,4.8 z m -56.6,0 4.7,0 0,-4.8 -4.7,0 0,4.8 z m -6.3,0 4.7,0 0,-4.8 -4.7,0 0,4.8 z m -6.4,0 4.7,0 0,-4.8 -4.7,0 0,4.8 z m -6.2,0 4.7,0 0,-4.8 -4.7,0 0,4.8 z m -12.6,0 4.7,0 0,-4.8 -4.7,0 0,4.8 z m -25.2,0 4.7,0 0,-4.8 -4.7,0 0,4.8 z m -12.6,0 4.7,0 0,-4.8 -4.7,0 0,4.8 z m -6.3,0 4.7,0 0,-4.8 -4.7,0 0,4.8 z m -6.3,0 4.7,0 0,-4.8 -4.7,0 0,4.8 z m -6.3,0 4.7,0 0,-4.8 -4.7,0 0,4.8 z m -25.2,0 4.7,0 0,-4.8 -4.7,0 0,4.8 z m -6.3,0 4.7,0 0,-4.8 -4.7,0 0,4.8 z m -6.3,0 4.7,0 0,-4.8 -4.7,0 0,4.8 z m -18.9,0 4.7,0 0,-4.8 -4.7,0 0,4.8 z m -25.2,0 4.7,0 0,-4.8 -4.7,0 0,4.8 z m -18.9,0 4.7,0 0,-4.8 -4.7,0 0,4.8 z m -6.3,0 4.7,0 0,-4.8 -4.7,0 0,4.8 z m -6.3,0 4.7,0 0,-4.8 -4.7,0 0,4.8 z m -6.3,0 4.7,0 0,-4.8 -4.7,0 0,4.8 z m 321.2,1.6 4.7,0 0,-4.8 -4.7,0 0,4.8 z m -12.6,0 4.7,0 0,-4.8 -4.7,0 0,4.8 z m 56.7,1.5 4.7,0 0,-4.8 -4.7,0 0,4.8 z m -25.2,0 4.7,0 0,-4.8 -4.7,0 0,4.8 z m -125.9,0 4.7,0 0,-4.8 -4.7,0 0,4.8 z m -100.8,0 4.7,0 0,-4.8 -4.7,0 0,4.8 z m -12.6,0 4.7,0 0,-4.8 -4.7,0 0,4.8 z m -25.2,0 4.7,0 0,-4.8 -4.7,0 0,4.8 z m -50.4,0 4.7,0 0,-4.8 -4.7,0 0,4.8 z m 403.1,3.2 4.7,0 0,-4.8 -4.7,0 0,4.8 z m -31.5,0 4.7,0 0,-4.8 -4.7,0 0,4.8 z m -18.9,0 4.7,0 0,-4.8 -4.7,0 0,4.8 z m -50.4,0 4.7,0 0,-4.8 -4.7,0 0,4.8 z m -25.2,0 4.7,0 0,-4.8 -4.7,0 0,4.8 z m -12.6,0 4.7,0 0,-4.8 -4.7,0 0,4.8 z m -25.2,0 4.7,0 0,-4.8 -4.7,0 0,4.8 z m -75.5,0 4.7,0 0,-4.8 -4.7,0 0,4.8 z m -12.6,0 4.7,0 0,-4.8 -4.7,0 0,4.8 z m -25.2,0 4.7,0 0,-4.8 -4.7,0 0,4.8 z m -88.2,0 4.7,0 0,-4.8 -4.7,0 0,4.8 z m -25.2,0 4.7,0 0,-4.8 -4.7,0 0,4.8 z m -37.8,0 4.7,0 0,-4.8 -4.7,0 0,4.8 z m 340.1,3.2 4.7,0 0,-4.8 -4.7,0 0,4.8 z m -125.9,0 4.7,0 0,-4.8 -4.7,0 0,4.8 z m -100.8,0 4.7,0 0,-4.8 -4.7,0 0,4.8 z m -37.8,0 4.7,0 0,-4.8 -4.7,0 0,4.8 z m -50.4,0 4.7,0 0,-4.8 -4.7,0 0,4.8 z m 403.1,3.1 4.7,0 0,-4.7 -4.7,0 0,4.7 z m -37.8,0 4.7,0 0,-4.7 -4.7,0 0,4.7 z m -12.6,0 4.7,0 0,-4.7 -4.7,0 0,4.7 z m -50.4,0 4.7,0 0,-4.7 -4.7,0 0,4.7 z m -25.2,0 4.7,0 0,-4.7 -4.7,0 0,4.7 z m -12.6,0 4.7,0 0,-4.7 -4.7,0 0,4.7 z m -25.2,0 4.7,0 0,-4.7 -4.7,0 0,4.7 z m -75.5,0 4.7,0 0,-4.7 -4.7,0 0,4.7 z m -12.6,0 4.7,0 0,-4.7 -4.7,0 0,4.7 z m -18.9,0 4.7,0 0,-4.7 -4.7,0 0,4.7 z m -6.3,0 4.7,0 0,-4.7 -4.7,0 0,4.7 z m -88.2,0 4.7,0 0,-4.7 -4.7,0 0,4.7 z m -25.2,0 4.7,0 0,-4.7 -4.7,0 0,4.7 z m 302.3,3.2 4.7,0 0,-4.8 -4.7,0 0,4.8 z m -125.9,0 4.7,0 0,-4.8 -4.7,0 0,4.8 z m -100.8,0 4.7,0 0,-4.8 -4.7,0 0,4.8 z m -37.8,0 4.7,0 0,-4.8 -4.7,0 0,4.8 z m -50.4,0 4.7,0 0,-4.8 -4.7,0 0,4.8 z m 403.1,3.2 4.7,0 0,-4.8 -4.7,0 0,4.8 z m -44.1,0 4.7,0 0,-4.8 -4.7,0 0,4.8 z m -6.3,0 4.7,0 0,-4.8 -4.7,0 0,4.8 z m -50.4,0 4.7,0 0,-4.8 -4.7,0 0,4.8 z m -25.2,0 4.7,0 0,-4.8 -4.7,0 0,4.8 z m -12.6,0 4.7,0 0,-4.8 -4.7,0 0,4.8 z m -6.3,0 4.7,0 0,-4.8 -4.7,0 0,4.8 z m -6.3,0 4.7,0 0,-4.8 -4.7,0 0,4.8 z m -6.3,0 4.7,0 0,-4.8 -4.7,0 0,4.8 z m -6.3,0 4.7,0 0,-4.8 -4.7,0 0,4.8 z m -75.5,0 4.7,0 0,-4.8 -4.7,0 0,4.8 z m -12.6,0 4.7,0 0,-4.8 -4.7,0 0,4.8 z m -12.6,0 4.7,0 0,-4.8 -4.7,0 0,4.8 z m -12.6,0 4.7,0 0,-4.8 -4.7,0 0,4.8 z m -18.9,0 4.7,0 0,-4.8 -4.7,0 0,4.8 z m -6.3,0 4.7,0 0,-4.8 -4.7,0 0,4.8 z m -6.3,0 4.7,0 0,-4.8 -4.7,0 0,4.8 z m -56.7,0 4.7,0 0,-4.8 -4.7,0 0,4.8 z m -25.2,0 4.7,0 0,-4.8 -4.7,0 0,4.8 z m 302.3,3.2 4.7,0 0,-4.8 -4.7,0 0,4.8 z m -18.9,0 4.7,0 0,-4.8 -4.7,0 0,4.8 z m -6.3,0 4.7,0 0,-4.8 -4.7,0 0,4.8 z m -6.3,0 4.7,0 0,-4.8 -4.7,0 0,4.8 z m -94.4,0 4.7,0 0,-4.8 -4.7,0 0,4.8 z m -100.8,0 4.7,0 0,-4.8 -4.7,0 0,4.8 z m -12.6,0 4.7,0 0,-4.8 -4.7,0 0,4.8 z m -6.3,0 4.7,0 0,-4.8 -4.7,0 0,4.8 z m -6.3,0 4.7,0 0,-4.8 -4.7,0 0,4.8 z m -12.6,0 4.7,0 0,-4.8 -4.7,0 0,4.8 z m -50.4,0 4.7,0 0,-4.8 -4.7,0 0,4.8 z m 403.1,3.1 4.7,0 0,-4.8 -4.7,0 0,4.8 z m -37.8,0 4.7,0 0,-4.8 -4.7,0 0,4.8 z m -12.6,0 4.7,0 0,-4.8 -4.7,0 0,4.8 z m -50.4,0 4.7,0 0,-4.8 -4.7,0 0,4.8 z m -25.2,0 4.7,0 0,-4.8 -4.7,0 0,4.8 z m -12.6,0 4.7,0 0,-4.8 -4.7,0 0,4.8 z m -25.2,0 4.7,0 0,-4.8 -4.7,0 0,4.8 z m -75.5,0 4.7,0 0,-4.8 -4.7,0 0,4.8 z m -12.6,0 4.7,0 0,-4.8 -4.7,0 0,4.8 z m -6.3,0 4.7,0 0,-4.8 -4.7,0 0,4.8 z m -18.9,0 4.7,0 0,-4.8 -4.7,0 0,4.8 z m -88.2,0 4.7,0 0,-4.8 -4.7,0 0,4.8 z m -25.2,0 4.7,0 0,-4.8 -4.7,0 0,4.8 z m 302.3,3.2 4.7,0 0,-4.8 -4.7,0 0,4.8 z m -125.9,0 4.7,0 0,-4.8 -4.7,0 0,4.8 z m -100.8,0 4.7,0 0,-4.8 -4.7,0 0,4.8 z m -12.6,0 4.7,0 0,-4.8 -4.7,0 0,4.8 z m -25.2,0 4.7,0 0,-4.8 -4.7,0 0,4.8 z m -50.4,0 4.7,0 0,-4.8 -4.7,0 0,4.8 z m -25.2,0 4.7,0 0,-4.8 -4.7,0 0,4.8 z m 428.3,3.2 4.7,0 0,-4.8 -4.7,0 0,4.8 z m -31.5,0 4.7,0 0,-4.8 -4.7,0 0,4.8 z m -18.9,0 4.7,0 0,-4.8 -4.7,0 0,4.8 z m -50.4,0 4.7,0 0,-4.8 -4.7,0 0,4.8 z m -25.2,0 4.7,0 0,-4.8 -4.7,0 0,4.8 z m -12.6,0 4.7,0 0,-4.8 -4.7,0 0,4.8 z m -25.2,0 4.7,0 0,-4.8 -4.7,0 0,4.8 z m -75.5,0 4.7,0 0,-4.8 -4.7,0 0,4.8 z m -12.6,0 4.7,0 0,-4.8 -4.7,0 0,4.8 z m -25.2,0 4.7,0 0,-4.8 -4.7,0 0,4.8 z m -88.2,0 4.7,0 0,-4.8 -4.7,0 0,4.8 z m -25.2,0 4.7,0 0,-4.8 -4.7,0 0,4.8 z m 327.5,3.1 4.7,0 0,-4.8 -4.7,0 0,4.8 z m -25.2,0 4.7,0 0,-4.8 -4.7,0 0,4.8 z m -125.9,0 4.7,0 0,-4.8 -4.7,0 0,4.8 z m -100.8,0 4.7,0 0,-4.8 -4.7,0 0,4.8 z m -12.6,0 4.7,0 0,-4.8 -4.7,0 0,4.8 z m -25.2,0 4.7,0 0,-4.8 -4.7,0 0,4.8 z m -50.4,0 4.7,0 0,-4.8 -4.7,0 0,4.8 z m -25.2,0 4.7,0 0,-4.8 -4.7,0 0,4.8 z m 428.3,3.2 4.7,0 0,-4.8 -4.7,0 0,4.8 z m -25.2,0 4.7,0 0,-4.8 -4.7,0 0,4.8 z m -25.2,0 4.7,0 0,-4.8 -4.7,0 0,4.8 z m -18.9,0 4.7,0 0,-4.8 -4.7,0 0,4.8 z m -6.3,0 4.7,0 0,-4.8 -4.7,0 0,4.8 z m -6.3,0 4.7,0 0,-4.8 -4.7,0 0,4.8 z m -18.9,0 4.7,0 0,-4.8 -4.7,0 0,4.8 z m -25.2,0 4.7,0 0,-4.8 -4.7,0 0,4.8 z m -12.6,0 4.7,0 0,-4.8 -4.7,0 0,4.8 z m -25.2,0 4.7,0 0,-4.8 -4.7,0 0,4.8 z m -56.6,0 4.7,0 0,-4.8 -4.7,0 0,4.8 z m -6.3,0 4.7,0 0,-4.8 -4.7,0 0,4.8 z m -6.4,0 4.7,0 0,-4.8 -4.7,0 0,4.8 z m -6.2,0 4.7,0 0,-4.8 -4.7,0 0,4.8 z m -12.6,0 4.7,0 0,-4.8 -4.7,0 0,4.8 z m -25.2,0 4.7,0 0,-4.8 -4.7,0 0,4.8 z m -12.6,0 4.7,0 0,-4.8 -4.7,0 0,4.8 z m -6.3,0 4.7,0 0,-4.8 -4.7,0 0,4.8 z m -6.3,0 4.7,0 0,-4.8 -4.7,0 0,4.8 z m -6.3,0 4.7,0 0,-4.8 -4.7,0 0,4.8 z m -25.2,0 4.7,0 0,-4.8 -4.7,0 0,4.8 z m -6.3,0 4.7,0 0,-4.8 -4.7,0 0,4.8 z m -6.3,0 4.7,0 0,-4.8 -4.7,0 0,4.8 z m -25.2,0 4.7,0 0,-4.8 -4.7,0 0,4.8 z m -6.3,0 4.7,0 0,-4.8 -4.7,0 0,4.8 z m -6.3,0 4.7,0 0,-4.8 -4.7,0 0,4.8 z m -25.2,0 4.7,0 0,-4.8 -4.7,0 0,4.8 z m -6.3,0 4.7,0 0,-4.8 -4.7,0 0,4.8 z m -6.3,0 4.7,0 0,-4.8 -4.7,0 0,4.8 z"
         id="path129" />
      <g
         id="g131"
         transform="translate(30.052038,-3.788072)">
        <g
           style="font-style:normal;font-variant:normal;font-weight:bold;font-stretch:normal;font-size:40px;line-height:125%;font-family:'Source Sans Pro';-inkscape-font-specification:'Source Sans Pro, Bold';text-align:start;letter-spacing:0px;word-spacing:0px;writing-mode:lr-tb;text-anchor:start;fill:#ffffff;fill-opacity:1;stroke:none;stroke-width:1px;stroke-linecap:butt;stroke-linejoin:miter;stroke-opacity:1"
           id="text4153" />
      </g>
      <text
         xml:space="preserve"
         style="font-style:normal;font-weight:normal;font-size:23.35585213px;line-height:125%;font-family:Sans;font-variant-ligatures:normal;font-variant-caps:normal;font-variant-numeric:normal;font-feature-settings:normal;text-align:start;letter-spacing:0px;word-spacing:0px;writing-mode:lr-tb;text-anchor:start;fill:#000000;fill-opacity:1;stroke:none;stroke-width:0.58389628px;stroke-linecap:butt;stroke-linejoin:miter;stroke-opacity:1"
         x="26.564285"
         y="114.33456"
         id="text6135"><tspan
           sodipodi:role="line"
           id="tspan6133"
           x="26.564285"
           y="114.33456"
           style="font-style:normal;font-variant:normal;font-weight:normal;font-stretch:normal;font-size:23.35585213px;font-family:ebisu;-inkscape-font-specification:'ebisu, Normal';font-variant-ligatures:normal;font-variant-caps:normal;font-variant-numeric:normal;font-feature-settings:normal;text-align:start;writing-mode:lr-tb;text-anchor:start;fill:#ffffff;fill-opacity:1;stroke-width:0.58389628px">HEIDELBERG</tspan></text>
    </g>
  </g>
</svg>
