<?xml version="1.0" encoding="UTF-8" standalone="no"?>
<svg
   xmlns:dc="http://purl.org/dc/elements/1.1/"
   xmlns:cc="http://creativecommons.org/ns#"
   xmlns:rdf="http://www.w3.org/1999/02/22-rdf-syntax-ns#"
   xmlns:svg="http://www.w3.org/2000/svg"
   xmlns="http://www.w3.org/2000/svg"
   xmlns:xlink="http://www.w3.org/1999/xlink"
   viewBox="0 0 146.03126 169.57857"
   height="169.57857"
   width="146.03127"
   xml:space="preserve"
   id="svg2"
   version="1.1"><metadata
     id="metadata8"><rdf:RDF><cc:Work
         rdf:about=""><dc:format>image/svg+xml</dc:format><dc:type
           rdf:resource="http://purl.org/dc/dcmitype/StillImage" /><dc:title></dc:title></cc:Work></rdf:RDF></metadata><defs
     id="defs6"><linearGradient
       id="linearGradient30"
       spreadMethod="pad"
       gradientTransform="matrix(0,-46.513853,-46.513853,0,26.250064,37.547485)"
       gradientUnits="userSpaceOnUse"
       y2="0"
       x2="1"
       y1="0"
       x1="0"><stop
         id="stop24"
         offset="0"
         style="stop-opacity:1;stop-color:#f14531" /><stop
         id="stop26"
         offset="0.330076"
         style="stop-opacity:1;stop-color:#d23128" /><stop
         id="stop28"
         offset="1"
         style="stop-opacity:1;stop-color:#98131a" /></linearGradient><linearGradient
       spreadMethod="pad"
       y2="0"
       x2="1"
       y1="0"
       x1="0"
       gradientTransform="matrix(0,-46.513853,-46.513853,0,26.250064,37.547485)"
       gradientUnits="userSpaceOnUse"
       id="linearGradient825"
       xlink:href="#linearGradient30" /><linearGradient
       spreadMethod="pad"
       y2="0"
       x2="1"
       y1="0"
       x1="0"
       gradientTransform="matrix(0,-46.513853,-46.513853,0,26.250064,37.547485)"
       gradientUnits="userSpaceOnUse"
       id="linearGradient827"
       xlink:href="#linearGradient30" /></defs><g
     transform="matrix(2.1597516,0,0,-2.1597516,16.322149,141.48276)"
     id="g10"><path
       id="path33"
       d="M -3.0094223,43.967414 26.133028,61.28313 55.960901,44.322183 56.896678,32.391033 47.187997,24.904821 57.949425,18.705303 55.726956,7.0080987 28.706414,-8.7831285 -5.4494237,6.4232377 Z"
       style="fill:#ffffff;stroke:none;stroke-width:0.99017888px;stroke-linecap:butt;stroke-linejoin:miter;stroke-opacity:1" /><path
       d="m 26.261813,-13.008806 -0.01189,0.0072 -0.01228,-0.0072 -0.01188,0.02115 -33.7259426,19.4554097 h -0.05724 l 0.01084,39.5468203 33.8140806,19.494239 33.78992,-19.492661 V 30.444071 h -0.06509 l 0.06509,-0.112484 -6.97152,-4.021578 6.97152,-4.021975 -0.0021,-0.0037 0.0021,-0.0011 V 6.5575257 h -0.033 l 0.033,-0.05677 -33.783715,-19.4884177 -0.01188,-0.02115 m 3.360402,41.496813 v 0 l 0.05518,-31.3412863 23.37799,13.3983213 v 7.698707 l -6.976007,4.024087 -7.107108,-4.099869 v 8.083293 l 14.083115,8.124087 v 7.59652 L 26.256672,57.431595 -0.55549667,41.96421 V 10.545041 L 22.62034,-2.8120226 V 24.438571 l -5.585269,-3.230491 -7.002413,4.039665 20.93621,12.112133 7.00545,-4.041778 -8.352094,-4.830093"
       style="fill:url(#linearGradient827);fill-opacity:1;fill-rule:nonzero;stroke:none;stroke-width:0.13202386"
       id="path32" /></g><g
     id="g826"
     transform="matrix(2.1597516,0,0,-2.1597516,16.322149,141.48276)"><path
       style="fill:#ffffff;stroke:none;stroke-width:0.99017888px;stroke-linecap:butt;stroke-linejoin:miter;stroke-opacity:1"
       d="M -3.0094223,43.967414 26.133028,61.28313 55.960901,44.322183 56.896678,32.391033 47.187997,24.904821 57.949425,18.705303 55.726956,7.0080987 28.706414,-8.7831285 -5.4494237,6.4232377 Z"
       id="path822" /><path
       id="path824"
       style="fill:url(#linearGradient825);fill-opacity:1;fill-rule:nonzero;stroke:none;stroke-width:0.13202386"
       d="m 26.261813,-13.008806 -0.01189,0.0072 -0.01228,-0.0072 -0.01188,0.02115 -33.7259426,19.4554097 h -0.05724 l 0.01084,39.5468203 33.8140806,19.494239 33.78992,-19.492661 V 30.444071 h -0.06509 l 0.06509,-0.112484 -6.97152,-4.021578 6.97152,-4.021975 -0.0021,-0.0037 0.0021,-0.0011 V 6.5575257 h -0.033 l 0.033,-0.05677 -33.783715,-19.4884177 -0.01188,-0.02115 m 3.360402,41.496813 v 0 l 0.05518,-31.3412863 23.37799,13.3983213 v 7.698707 l -6.976007,4.024087 -7.107108,-4.099869 v 8.083293 l 14.083115,8.124087 v 7.59652 L 26.256672,57.431595 -0.55549667,41.96421 V 10.545041 L 22.62034,-2.8120226 V 24.438571 l -5.585269,-3.230491 -7.002413,4.039665 20.93621,12.112133 7.00545,-4.041778 -8.352094,-4.830093" /></g></svg>