<?xml version="1.0" encoding="UTF-8" standalone="no"?>
<!-- Created with Inkscape (http://www.inkscape.org/) -->

<svg
   width="1920"
   height="1080"
   viewBox="0 0 1920 1080"
   id="svg2"
   version="1.1"
   inkscape:version="1.3.2 (091e20e, 2023-11-25)"
   sodipodi:docname="bg-plain.svg"
   inkscape:export-filename="bg.png"
   inkscape:export-xdpi="96"
   inkscape:export-ydpi="96"
   xml:space="preserve"
   xmlns:inkscape="http://www.inkscape.org/namespaces/inkscape"
   xmlns:sodipodi="http://sodipodi.sourceforge.net/DTD/sodipodi-0.dtd"
   xmlns:xlink="http://www.w3.org/1999/xlink"
   xmlns="http://www.w3.org/2000/svg"
   xmlns:svg="http://www.w3.org/2000/svg"
   xmlns:rdf="http://www.w3.org/1999/02/22-rdf-syntax-ns#"
   xmlns:cc="http://creativecommons.org/ns#"
   xmlns:dc="http://purl.org/dc/elements/1.1/"><title
     id="title4199">Intro GLT Talk $id</title><defs
     id="defs4"><clipPath
       clipPathUnits="userSpaceOnUse"
       id="clipPath4215"><rect
         style="opacity:1;fill:#ff0000;fill-opacity:1;stroke:#ff0000;stroke-width:1;stroke-linecap:round;stroke-linejoin:round;stroke-miterlimit:4;stroke-dasharray:1, 3;stroke-dashoffset:0;stroke-opacity:1"
         id="rect4217"
         width="598.23157"
         height="820.54736"
         x="1321.2684"
         y="111.3658" /></clipPath><linearGradient
       inkscape:collect="always"
       id="linearGradient4313"><stop
         style="stop-color:#ffdf00;stop-opacity:1"
         offset="0"
         id="stop4315" /><stop
         style="stop-color:#e1ecff;stop-opacity:0"
         offset="1"
         id="stop4317" /></linearGradient><linearGradient
       inkscape:collect="always"
       xlink:href="#linearGradient4313"
       id="linearGradient4159"
       x1="1157.7411"
       y1="845.13428"
       x2="1019.1442"
       y2="-16.928713"
       gradientUnits="userSpaceOnUse"
       gradientTransform="matrix(1.111049,0,0,1.7357139,42.487372,-407.41737)" /><clipPath
       clipPathUnits="userSpaceOnUse"
       id="clipPath4215-3"><rect
         style="opacity:1;fill:#ff0000;fill-opacity:1;stroke:#ff0000;stroke-width:1;stroke-linecap:round;stroke-linejoin:round;stroke-miterlimit:4;stroke-dasharray:1, 3;stroke-dashoffset:0;stroke-opacity:1"
         id="rect4217-6"
         width="598.23157"
         height="820.54736"
         x="1321.2684"
         y="111.3658" /></clipPath><clipPath
       clipPathUnits="userSpaceOnUse"
       id="clipPath2"><g
         inkscape:label="Clip"
         id="use2"><rect
           style="opacity:0.836834;fill:#000000;fill-opacity:1;stroke:none;stroke-width:0.924999"
           id="rect2"
           width="1919.0751"
           height="1079.075"
           x="0.46250004"
           y="-27.175339" /></g></clipPath></defs><sodipodi:namedview
     id="base"
     pagecolor="#ffffff"
     bordercolor="#666666"
     borderopacity="1.0"
     inkscape:pageopacity="0.0"
     inkscape:pageshadow="2"
     inkscape:zoom="0.22761629"
     inkscape:cx="1039.0293"
     inkscape:cy="584.3167"
     inkscape:document-units="px"
     inkscape:current-layer="layer1"
     showgrid="false"
     units="px"
     inkscape:window-width="1728"
     inkscape:window-height="1051"
     inkscape:window-x="0"
     inkscape:window-y="38"
     inkscape:window-maximized="1"
     inkscape:showpageshadow="2"
     inkscape:pagecheckerboard="0"
     inkscape:deskcolor="#d1d1d1" /><metadata
     id="metadata7"><rdf:RDF><cc:Work
         rdf:about=""><dc:format>image/svg+xml</dc:format><dc:type
           rdf:resource="http://purl.org/dc/dcmitype/StillImage" /><dc:title>Intro GLT Talk $id</dc:title><cc:license
           rdf:resource="http://creativecommons.org/publicdomain/zero/1.0/" /><dc:creator><cc:Agent><dc:title>meisterluk</dc:title></cc:Agent></dc:creator><dc:identifier>$id</dc:identifier><dc:language>$language</dc:language><dc:rights><cc:Agent><dc:title>CC-BY AT 4.0</dc:title></cc:Agent></dc:rights></cc:Work><cc:License
         rdf:about="http://creativecommons.org/publicdomain/zero/1.0/"><cc:permits
           rdf:resource="http://creativecommons.org/ns#Reproduction" /><cc:permits
           rdf:resource="http://creativecommons.org/ns#Distribution" /><cc:permits
           rdf:resource="http://creativecommons.org/ns#DerivativeWorks" /></cc:License></rdf:RDF></metadata><g
     inkscape:label="Layer 1"
     inkscape:groupmode="layer"
     id="layer1"
     transform="translate(0,27.63784)"><g
       id="BG"
       transform="matrix(0.9375,0,0,0.9375,-96.5625,-404.51252)"
       style="display:inline;stroke-width:1.06667"><rect
         id="BG_color-1b"
         class="cls-21"
         width="2048"
         height="1152"
         x="103"
         y="402"
         style="display:inline;fill:#455b40;stroke-width:1.06667" /><g
         id="Sun_Shine-1b_copy"
         data-name="Sun_Shine-1b copy"
         style="display:inline;stroke-width:1.06667"
         transform="translate(103,402)"><rect
           id="BG_color-3"
           class="cls-18"
           width="2048"
           height="1152"
           x="0"
           y="0"
           style="display:inline;fill:#93bf88;stroke-width:1.06666" /><polygon
           id="BG_color-3-2"
           data-name="BG_color-3"
           class="cls-19"
           points="1689.45,2386.77 0,2386.77 0,0 1689.45,1009.05 "
           style="display:inline;fill:#749e69;stroke-width:1.05297"
           transform="scale(1.2122288,0.84653524)"
           inkscape:label="BG_color-3-2" /><polygon
           id="BG_color-3-3"
           data-name="BG_color-3"
           class="cls-14"
           points="0,0 1127.32,1771.07 1689.45,2386.77 0,2386.77 "
           style="display:inline;fill:#627f5b;stroke-width:1.05297"
           transform="scale(1.2122288,0.84653524)" /><path
           class="cls-20"
           d="m 308.275,-46.811007 c 31.275,39.2250004 49.97,88.93 49.97,142.995 0,126.779997 -102.775,229.559997 -229.56,229.559997 -47.69,0 -91.98,-14.545 -128.685,-39.435 V -46.791007 Z"
           id="path2"
           style="display:inline;fill:#a8d397;stroke-width:1.06667"
           inkscape:label="sun" /></g></g><g
       id="Uhr_Turm_tiny_color-1d"
       style="display:inline;stroke-width:1.06642"
       transform="matrix(0.93793583,0,0,0.93749999,335.40431,-571.00102)"><path
         class="cls-21"
         d="m 1689.45,1731.5822 v -172.812 c 0,0 -251.66,-94.88 -414.08,-82.19 -151.83,11.86 -374.33705,93.5576 -534.58705,118.1776 -166.15,25.52 -323.20075,-61.3834 -525.37075,-64.8734 -161.489998,-2.78 -573.01055,93.1362 -573.01055,93.1362 v 108.572 l 2047.04835,-4e-4 z"
         id="path1"
         style="fill:#455b40;stroke-width:1.06642"
         sodipodi:nodetypes="ccccccccc" /><g
         id="Uhr-Turm_b"
         style="display:inline;stroke-width:1.06642"><path
           id="path21-9-0-5-7-1-8-0-06-58-2"
           class="cls-21"
           d="m 1515.84,1151.61 c -6.96,3.21 -12.44,8.84 -19.32,12.2 -5.33,3.32 -9.05,8.68 -11.17,14.5 -17.39,34.72 -33.46,70.13 -51.88,104.36 -4.43,7.84 -9.29,16.04 -17,21.06 -4.13,2.43 -9.16,2.07 -13.6,3.34 -8.75,5.82 -17.52,11.74 -26.41,17.27 2.94,6.39 0.95,13.54 1.3,20.28 -0.13,9.2 -0.26,18.42 0.06,27.62 5.74,1.23 12.61,-1.48 17.47,2.83 3.17,2.55 4.04,6.85 3.51,10.71 -0.04,22.41 0.5,44.86 -0.35,67.24 -1.11,4.58 -4.5,8.3 -8.51,10.61 -0.47,18.31 -0.3,36.63 -0.32,54.95 29.91,7.6 59.59,15.71 89.63,22.49 11.49,1.51 23.1,0.44 34.64,0.76 35.76,-0.02 71.53,-0.04 107.29,-0.06 0.09,-2.94 0.52,-6.42 -2.05,-8.48 -6.55,-7.37 -15.3,-13.87 -17.67,-23.95 -1.99,-9.33 1.32,-19.03 -1.17,-28.28 -2.42,-4.34 -4.82,-8.9 -5.17,-13.98 -0.22,-6.47 0.12,-12.97 0,-19.45 0.08,-21.58 -0.12,-43.18 0.37,-64.75 1.17,-7.57 8.26,-12.63 15.33,-14.2 0.49,-4.68 -0.15,-9.46 -0.16,-14.19 -0.16,-8.12 -0.66,-16.3 0.24,-24.38 0.46,-3.33 2.5,-6.32 3.06,-9.53 -3.03,-4.34 -7.5,-7.5 -10.94,-11.53 -2.99,-3.29 -6.46,-7.36 -11.41,-6.87 -7.64,-0.82 -13.17,-7.01 -16.83,-13.26 -14.47,-21.14 -21.29,-46.13 -31.2,-69.48 -9.11,-22.75 -17.62,-45.55 -27.54,-67.94 l -0.19,0.08 z"
           style="fill:#455b40;stroke-width:1.06642" /><path
           id="path21-9-0-5-7-1-4-2-6-9"
           class="cls-21"
           d="m 1516.49,1146.55 c -0.83,-0.08 -1.67,0.13 -2.37,0.59 l -24.68,16.29 c -0.83,0.55 -1.94,1.66 -2.47,2.5 -1.27,2.06 -3.68,6.18 -6.41,12 -4.05,8.63 -46.75,96.06 -47.85,98.31 -1.1,2.25 -9.88,16.44 -15.16,21.8 -0.73,0.74 -1.92,1.52 -1.92,1.52 0.09,0 3.5,-0.32 3.5,-0.32 l 0.08,2.68 -15.95,0.33 c -1.17,0.02 -2.93,0.55 -3.93,1.18 -6.27,3.93 -26.95,16.8 -30.58,17.62 3.38,2.59 4.88,2.39 4.88,2.39 l -0.51,50.2 c -0.01,1.52 1.16,2.78 2.67,2.87 l 18.77,1.14 v 83.29 h -6.53 c -3.18,-0.03 -2.75,3.08 -2.75,3.08 l -0.04,57.98 94.18,24.21 h 146.09 v -12.31 l -20.34,-21.83 0.41,-27.01 c 0.04,-4.3 0.11,-5.19 -2.35,-7.63 l -3.81,-3.96 0.11,-2.5 v -96.94 l 11.8,-0.62 c 2.33,-0.12 4.14,-2.07 4.09,-4.41 v 0 c 0,0 -1.02,-44.4 -1.02,-44.4 h 1.85 c 1.06,-0.02 1.94,-0.86 1.99,-1.92 l 0.22,-4.1 -18.08,-18.48 c -1.21,-1.23 -2.87,-1.91 -4.59,-1.86 l -16.36,0.45 1.47,-3.38 3.36,-1.15 c 0,0 -11.69,-13 -19.31,-32.38 -7.18,-18.27 -40.1,-101.74 -43.87,-111.3 -0.19,-0.49 -0.66,-1.19 -1.04,-1.57 l -1.35,-1.33 c -0.6,-0.59 -1.38,-0.95 -2.21,-1.03 v 0 z m -36.1,131.33 95,16.06 -0.16,3.33 c -0.05,1.11 -0.52,2.16 -1.3,2.94 l -12.7,12.72 -79.85,-10.29 c -0.72,-0.09 -1.26,-0.69 -1.29,-1.41 l -0.68,-18.52 -2.42,18.55 c -0.11,0.84 -0.72,1.52 -1.54,1.73 l -46.92,11.69 -5.99,-9.37 c -0.45,-0.71 -0.51,-1.6 -0.16,-2.36 l 2.6,-5.59 55.4,-19.47 z m 24.29,9.68 0.03,14.58 c 0,0 15.26,3.16 15.16,2.5 -0.1,-0.66 0.25,-16.08 0.25,-16.08 l -15.45,-1.01 z m -42.98,1.08 -7.64,2.77 c 0.03,3.08 -0.26,14.68 -0.26,14.68 l 7.65,-1.93 0.26,-15.52 z m 84.05,5.06 -0.92,14.49 13.2,2.7 -0.77,-15.69 z m -105.96,2.39 -7.46,1.74 -0.18,13.18 7.46,-1.74 z m 136.64,25.23 32.9,0.69 0.32,42.77 c 0.01,1.61 -1.29,2.93 -2.9,2.94 -0.03,0 -0.06,0 -0.1,0 l -6.89,-0.18 c -0.75,-0.02 -1.36,-0.6 -1.43,-1.34 l -1.92,-20.92 -1.43,21.44 c -0.04,0.66 -0.6,1.17 -1.27,1.16 l -125.28,-3.08 c -0.84,-0.02 -1.51,-0.7 -1.53,-1.54 l -0.47,-26.72 -2.99,26.79 c -0.1,0.85 -0.77,1.53 -1.63,1.62 l -60.87,6.36 c -0.75,0.08 -1.43,-0.46 -1.53,-1.21 l -2.81,-21.81 -1.93,21.27 c -0.08,0.88 -0.81,1.56 -1.69,1.57 l -11.37,0.17 c -1.64,0.02 -2.99,-1.28 -3.01,-2.92 v -0.07 l 0.36,-45.15 40.81,-0.65 -28.99,22.09 73.92,-12.9 134.1,10.01 -22.4,-20.39 z m -106.47,54.14 h 120.41 c 2.1,0 3.79,1.69 3.79,3.79 v 91.49 c 0,2.1 -1.69,3.79 -3.79,3.79 h -120.41 c -2.1,0 -3.79,-1.69 -3.79,-3.79 v -91.49 c 0,-2.1 1.69,-3.79 3.79,-3.79 z m -40.77,19.17 c 10.01,-1 18.13,10.24 18.13,25.09 v 0 c 0,14.85 -8.12,27.7 -18.13,28.7 v 0 c -10.01,1 -18.13,-10.24 -18.13,-25.09 v 0 c 0,-14.85 8.12,-27.7 18.13,-28.7 z m 0.63,1.89 -1.98,0.2 c -0.61,0.06 -1.1,0.83 -1.1,1.73 v 5.69 c -5.66,2.28 -9.73,10.03 -9.76,18.6 0,10 5.46,17.56 12.2,16.89 q 0,0 0,0 c 6.74,-0.67 12.21,-9.32 12.21,-19.32 v 0 c -0.02,-3.44 -0.7,-6.74 -1.97,-9.5 l 0.68,-1.08 c 0.35,-0.55 0.34,-1.36 0,-1.87 l -1.46,-2.24 c -0.33,-0.51 -0.91,-0.43 -1.26,0.12 l -0.64,1.01 c -1.69,-1.83 -3.7,-2.92 -5.83,-3.17 v -5.55 c 0,-0.9 -0.49,-1.58 -1.1,-1.52 v 0 z m 1.1,11.75 c 1.32,0.21 2.57,0.85 3.67,1.89 l -3.67,5.77 z m -4.17,0.58 v 11.52 c 0,2.19 2.99,4.87 4.84,2.76 l 5.52,-8.68 c 0.73,1.85 1.13,3.96 1.17,6.16 0,7.45 -4.07,13.89 -9.09,14.39 0,0 0,0 0,0 -5.02,0.5 -9.09,-5.13 -9.09,-12.58 v 0 c 0.02,-6.03 2.74,-11.57 6.65,-13.57 z m 38.86,71.47 h 130.42 c 2.17,0 3.92,1.75 3.92,3.92 v 19.59 c 0,2.17 -1.75,3.92 -3.92,3.92 h -130.42 c -2.17,0 -3.92,-1.75 -3.92,-3.92 v -19.59 c 0,-2.17 1.75,-3.92 3.92,-3.92 z m -0.38,34.7 h 133.78 l 18.47,19.22 v 6.34 h -133.31 v -6.62 z"
           style="fill:#455b40;stroke-width:1.06642" /><rect
           id="rect837-8-6-2-8-9-8-6-2-9"
           class="cls-21"
           x="1473.4399"
           y="1487.59"
           width="44.970001"
           height="7.8400002"
           rx="2.5999999"
           ry="2.5999999"
           style="fill:#455b40;stroke-width:1.06642" /><rect
           id="rect837-3-9-9-2-1-3-7-1-8-6"
           class="cls-21"
           x="1573.54"
           y="1487.22"
           width="19.959999"
           height="7.8400002"
           rx="2.5999999"
           ry="2.5999999"
           style="fill:#455b40;stroke-width:1.06642" /><path
           id="path25-1-9-3-9-1-8-4-0"
           class="cls-21"
           d="m 1496.93,1339.84 0.17,4.76 4.49,-0.03 0.23,-4.36 -4.89,-0.36 z"
           style="fill:#455b40;stroke-width:1.06642" /><path
           id="path25-5-9-8-7-2-7-7-7-2"
           class="cls-21"
           d="m 1544.74,1343.58 0.17,4.76 4.49,-0.03 0.23,-4.36 -4.89,-0.36 z"
           style="fill:#455b40;stroke-width:1.06642" /><path
           id="path25-7-4-4-4-0-2-9-24-7"
           class="cls-21"
           d="m 1447.78,1341.42 -0.05,4.76 -2.96,0.02 -0.21,-4.36 z"
           style="fill:#455b40;stroke-width:1.06642" /><path
           id="path25-5-0-7-8-5-2-7-2-0-6"
           class="cls-21"
           d="m 1416.31,1345.75 -0.05,4.76 -2.96,0.02 -0.21,-4.36 z"
           style="fill:#455b40;stroke-width:1.06642" /><path
           id="path26-8-1-2-3-2-0-6-1"
           class="cls-21"
           d="m 1602.16,1342.35 0.46,8.59 3.31,0.11 0.2,-8.2 z"
           style="fill:#455b40;stroke-width:1.06642" /><path
           id="path26-2-4-0-5-7-26-2-2-3"
           class="cls-21"
           d="m 1389.1,1343.17 -0.33,8.59 -3.3,0.16 -0.33,-8.19 z"
           style="fill:#455b40;stroke-width:1.06642" /><path
           id="path27-5-3-4-5-1-3-9-2"
           class="cls-21"
           d="m 1387.13,1315.84 13.33,-8.71 c 1.32,-0.86 2.85,-1.34 4.42,-1.38 l 12.73,-0.33 7.37,10.41 -3.15,2.92 -40.37,0.68 z"
           style="fill:#455b40;stroke-width:1.06642" /><path
           id="path28-0-0-7-9-0-7-9-1"
           class="cls-21"
           d="m 1430.86,1288.19 c 0,0 8.35,-16.43 10.2,-20.46 1.71,-3.72 41.21,-85.73 47.13,-98.02 0.41,-0.85 1.38,-1.95 2.17,-2.47 l 21.7,-14.25 2.58,-1.49 c 0.77,-0.44 1.73,-0.38 2.43,0.15 l 0.68,0.51 c 0.82,0.62 1.46,1.46 1.83,2.43 l 45,117.69 c 0,0 7.06,14.22 12.03,17.3 -11.36,-2.11 -93.09,-16.26 -93.09,-16.26 l 26.45,-107.14 -29.2,107.47 -53.49,17.79 c 0,0 2.24,-1.57 3.58,-3.26 v 0 z"
           style="fill:#455b40;stroke-width:1.06642" /><path
           id="path29-3-4-4-2-6-5-0-5"
           class="cls-21"
           d="m 1401.8,1340.12 30.76,-23.69 45.71,-11.84 82.32,9.75 5.56,6.13 7.68,1.44 18.35,17.06 -123.26,-10.09 7.6,-20.81 -10.31,20.45 -64.4,11.61 z"
           style="fill:#455b40;stroke-width:1.06642" /><path
           id="path30-6-4-4-2-1-9-8-9"
           class="cls-21"
           d="m 1564.13,1314.12 3.86,4.27 44.39,-0.24 -13.82,-15.09 c -1.1,-1.2 -2.67,-1.87 -4.29,-1.85 l -16.78,0.29 -13.36,12.63 z"
           style="fill:#455b40;stroke-width:1.06642" /></g></g></g></svg>
