<?xml version="1.0" encoding="UTF-8" standalone="no"?>
<svg
   xmlns:dc="http://purl.org/dc/elements/1.1/"
   xmlns:cc="http://creativecommons.org/ns#"
   xmlns:rdf="http://www.w3.org/1999/02/22-rdf-syntax-ns#"
   xmlns:svg="http://www.w3.org/2000/svg"
   xmlns="http://www.w3.org/2000/svg"
   viewBox="0 0 793.70074 559.37006"
   height="559.37006"
   width="793.70074"
   xml:space="preserve"
   id="svg4508"
   version="1.1"><metadata
     id="metadata4514"><rdf:RDF><cc:Work
         rdf:about=""><dc:format>image/svg+xml</dc:format><dc:type
           rdf:resource="http://purl.org/dc/dcmitype/StillImage" /><dc:title></dc:title></cc:Work></rdf:RDF></metadata><defs
     id="defs4512"><clipPath
       id="clipPath4530"
       clipPathUnits="userSpaceOnUse"><path
         id="path4528"
         d="M 0,362.164 H 596 V 69.039 H 0 Z" /></clipPath><clipPath
       id="clipPath4540"
       clipPathUnits="userSpaceOnUse"><path
         id="path4538"
         d="M 11,89 H 587 V 344 H 11 Z" /></clipPath></defs><g
     transform="matrix(1.3333333,0,0,-1.3333333,0,559.37004)"
     id="g4516"><path
       d="m 288.852,305.883 h -11.547 l -18.379,-36.438 -18.614,36.438 h -11.628 l 30.164,-57.809 z"
       style="fill:#231f20;fill-opacity:1;fill-rule:nonzero;stroke:none"
       id="path4520" /><path
       d="m 334.059,258.91 h -30 v 14.618 h 18.613 v 9.343 h -18.613 v 13.59 h 28.902 v 9.344 H 293.613 V 249.57 h 40.446 z"
       style="fill:#231f20;fill-opacity:1;fill-rule:nonzero;stroke:none"
       id="path4522" /><path
       id="path4544"
       style="fill:#231f20;fill-opacity:1;fill-rule:nonzero;stroke:none"
       d="m 355.129,296.46153 h 10.84 c 7.929,0 12.011,-4.086 12.011,-8.954 0,-4.878 -4.16,-8.882 -12.011,-8.882 h -10.84 z m 0,-27.176 h 12.801 l 9.187,-19.719 h 11.547 l -10.836,22.231 c 6.594,3.296 10.524,9.113 10.524,15.71 0,10.133 -9.114,18.297 -22.305,18.297 H 344.68 v -56.238 h 10.449 z" /><path
       id="path4546"
       style="fill:#231f20;fill-opacity:1;fill-rule:nonzero;stroke:none"
       d="m 246.203,199.57053 6.754,-1.809 c 5.57,-1.496 9.656,-3.14 9.656,-7.461 0,-4.082 -3.765,-7.382 -12.25,-7.382 -7.222,0 -13.902,2.425 -21.597,8.953 v -11.867 c 5.261,-3.918 13.746,-6.52 21.515,-6.52 11.785,0 23.172,6.055 23.172,17.68 0,11.308 -10.84,15.152 -17.672,17.039 l -6.758,1.89 c -5.656,1.571 -9.656,2.989 -9.656,6.672 0,3.692 3.926,5.739 10.055,5.739 6.832,0 14.605,-2.516 21.051,-7.309 v 11.707 c -2.754,1.57 -10.528,5.105 -20.11,5.105 -11.07,0 -21.679,-4.781 -21.679,-15.867 0,-10.293 9.031,-14.293 17.519,-16.57" /><path
       id="path4548"
       style="fill:#231f20;fill-opacity:1;fill-rule:nonzero;stroke:none"
       d="m 315.055,173.48453 c 8.718,0 15.472,2.992 19.007,4.957 v 11.313 c -4.558,-3.93 -12.019,-6.836 -19.167,-6.836 -12.25,0 -21.043,8.554 -21.043,19.793 0,11.234 8.793,19.793 21.043,19.793 7.148,0 14.609,-2.911 19.167,-6.829 v 11.305 c -3.535,1.965 -10.289,4.949 -19.007,4.949 -17.75,0 -31.653,-12.57 -31.653,-29.218 0,-16.653 13.903,-29.227 31.653,-29.227" /><path
       id="path4550"
       style="fill:#231f20;fill-opacity:1;fill-rule:nonzero;stroke:none"
       d="m 355.062,198.38653 h 29.981 v -23.797 h 10.445 v 56.243 h -10.445 v -22.785 h -29.981 v 22.785 h -10.449 v -56.243 h 10.449 z" /><path
       id="path4552"
       style="fill:#231f20;fill-opacity:1;fill-rule:nonzero;stroke:none"
       d="m 461.355,230.82853 -11.308,-31.258 -12.57,32.437 -12.567,-32.437 -11.312,31.258 h -11.387 l 22.621,-57.418 12.57,31.808 12.559,-31.808 22.781,57.418 z" /><path
       id="path4554"
       style="fill:#231f20;fill-opacity:1;fill-rule:nonzero;stroke:none"
       d="m 503.031,182.83653 c -11.312,0 -20.113,8.636 -20.113,19.875 0,11.234 8.801,19.871 20.113,19.871 11.309,0 20.031,-8.637 20.031,-19.871 0,-11.239 -8.722,-19.875 -20.031,-19.875 m 0,49.093 c -16.969,0 -30.633,-13.117 -30.633,-29.218 0,-16.184 13.664,-29.227 30.633,-29.227 16.883,0 30.633,13.043 30.633,29.227 0,16.101 -13.75,29.218 -30.633,29.218" /><path
       id="path4556"
       style="fill:#231f20;fill-opacity:1;fill-rule:nonzero;stroke:none"
       d="m 511.59,234.68353 c 3.137,0 6.203,2.199 6.203,5.496 0,3.219 -3.066,5.422 -6.203,5.422 -3.141,0 -6.207,-2.203 -6.207,-5.422 0,-3.297 3.066,-5.496 6.207,-5.496" /><path
       id="path4558"
       style="fill:#231f20;fill-opacity:1;fill-rule:nonzero;stroke:none"
       d="m 494.391,234.68353 c 3.14,0 6.203,2.199 6.203,5.496 0,3.219 -3.063,5.422 -6.203,5.422 -3.145,0 -6.207,-2.203 -6.207,-5.422 0,-3.297 3.062,-5.496 6.207,-5.496" /><path
       id="path4560"
       style="fill:#231f20;fill-opacity:1;fill-rule:nonzero;stroke:none"
       d="m 563.703,203.64453 h -10.84 v 17.836 h 10.84 c 7.934,0 12.02,-4.082 12.02,-8.953 0,-4.879 -4.164,-8.883 -12.02,-8.883 m 11.859,-6.828 c 6.598,3.301 10.524,9.113 10.524,15.711 0,10.129 -9.109,18.301 -22.305,18.301 h -21.363 v -56.235 h 10.445 v 19.711 h 12.805 l 9.184,-19.711 h 11.55 z" /><path
       id="path4562"
       style="fill:#231f20;fill-opacity:1;fill-rule:nonzero;stroke:none"
       d="m 269.375,132.95753 h -30.242 v 22.781 H 228.684 V 99.492527 h 10.449 v 23.805003 h 30.242 V 99.492527 h 10.445 v 56.246003 h -10.445 z" /><path
       id="path4564"
       style="fill:#231f20;fill-opacity:1;fill-rule:nonzero;stroke:none"
       d="m 304.918,117.48053 9.426,18.613 9.426,-18.613 z M 284.344,99.492527 h 11.625 l 4.316,8.644003 h 28.195 l 4.399,-8.644003 h 11.629 l -30.086,57.808003 z" /><path
       id="path4566"
       style="fill:#231f20;fill-opacity:1;fill-rule:nonzero;stroke:none"
       d="m 385.176,124.94553 c 0,-10.926 -6.52,-16.887 -15,-16.887 -8.485,0 -15.082,6.129 -15.082,16.887 v 30.945 h -10.446 v -31.582 c 0,-16.019 11.157,-25.676003 25.528,-25.676003 14.371,0 25.449,9.895003 25.449,25.676003 v 31.582 h -10.449 z" /><path
       id="path4568"
       style="fill:#231f20;fill-opacity:1;fill-rule:nonzero;stroke:none"
       d="m 431.996,133.26953 -6.762,1.883 c -5.652,1.57 -9.656,2.98 -9.656,6.676 0,3.687 3.922,5.73 10.055,5.73 6.832,0 14.609,-2.511 21.047,-7.301 v 11.696 c -2.746,1.574 -10.524,5.113 -20.11,5.113 -11.074,0 -21.675,-4.793 -21.675,-15.867 0,-10.293 9.031,-14.293 17.515,-16.57 l 6.758,-1.805 c 5.574,-1.496 9.656,-3.141 9.656,-7.469 0,-4.082 -3.765,-7.379 -12.254,-7.379 -7.226,0 -13.902,2.438 -21.601,8.957 v -11.867 c 5.265,-3.918 13.75,-6.512003 21.523,-6.512003 11.785,0 23.172,6.043003 23.172,17.668003 0,11.309 -10.84,15.157 -17.668,17.047" /><path
       id="path4570"
       style="fill:#231f20;fill-opacity:1;fill-rule:nonzero;stroke:none"
       d="m 97.43,249.64053 v 0.008 H 78.684 v -18.758 H 97.43 Z" /><path
       id="path4572"
       style="fill:#231f20;fill-opacity:1;fill-rule:nonzero;stroke:none"
       d="m 22.445,118.39453 v 131.254 h 18.746 v 18.754 h 18.747 v 18.75 h 18.746 v 18.746 h 18.75 v -18.746 h 18.746 v -18.75 h 18.746 v -18.754 h 18.746 v -93.762 h -18.746 v -18.73 h 18.746 V 99.644527 H 116.18 V 155.88653 H 41.191 v -37.492 H 78.684 V 99.632527 H 22.445 Z M 11.82,89.019527 H 191.168 V 343.40253 H 11.82 Z" /></g></svg>