<?xml version="1.0" encoding="UTF-8" standalone="no"?>
<svg
   xmlns:dc="http://purl.org/dc/elements/1.1/"
   xmlns:cc="http://creativecommons.org/ns#"
   xmlns:rdf="http://www.w3.org/1999/02/22-rdf-syntax-ns#"
   xmlns:svg="http://www.w3.org/2000/svg"
   xmlns="http://www.w3.org/2000/svg"
   xmlns:sodipodi="http://sodipodi.sourceforge.net/DTD/sodipodi-0.dtd"
   xmlns:inkscape="http://www.inkscape.org/namespaces/inkscape"
   width="200px"
   height="200px"
   viewBox="0 0 200 200"
   version="1.1"
   id="svg3331"
   sodipodi:docname="Chaosradio-Avatar_invertiert-transparent.svg"
   inkscape:export-filename="/home/danimo/Downloads/Chaosradio-Avatar_invertiert_transparent.png"
   inkscape:export-xdpi="96"
   inkscape:export-ydpi="96"
   inkscape:version="0.92.3 (2405546, 2018-03-11)">
  <metadata
     id="metadata3337">
    <rdf:RDF>
      <cc:Work
         rdf:about="">
        <dc:format>image/svg+xml</dc:format>
        <dc:type
           rdf:resource="http://purl.org/dc/dcmitype/StillImage" />
        <dc:title>Avatar invertiert</dc:title>
      </cc:Work>
    </rdf:RDF>
  </metadata>
  <defs
     id="defs3335" />
  <sodipodi:namedview
     pagecolor="#ffffff"
     bordercolor="#666666"
     borderopacity="1"
     objecttolerance="10"
     gridtolerance="10"
     guidetolerance="10"
     inkscape:pageopacity="0"
     inkscape:pageshadow="2"
     inkscape:window-width="956"
     inkscape:window-height="1041"
     id="namedview3333"
     showgrid="false"
     inkscape:zoom="1.18"
     inkscape:cx="-66.101695"
     inkscape:cy="100"
     inkscape:window-x="960"
     inkscape:window-y="18"
     inkscape:window-maximized="0"
     inkscape:current-layer="svg3331" />
  <!-- Generator: Sketch 52.2 (67145) - http://www.bohemiancoding.com/sketch -->
  <title
     id="title3213">Avatar invertiert</title>
  <desc
     id="desc3215">Created with Sketch.</desc>
  <g
     style="fill:#ffcc00;fill-rule:evenodd;stroke:none;stroke-width:1"
     transform="translate(25,37)"
     id="Logo">
    <g
       id="chaosradio-logo">
      <g
         id="Chaosknoten">
        <path
           inkscape:connector-curvature="0"
           id="path3219"
           d="m 123.99095,76.609635 0.51877,1.320847 c 1.23488,3.145515 1.68987,5.357392 1.83737,8.940947 0.16944,4.094103 -0.26262,7.74892 -1.96893,16.664451 -1.47857,7.72699 -1.46064,7.55033 -1.0211,9.95357 0.75922,4.15017 1.80299,6.5544 3.76146,8.66362 0.47218,0.50781 0.48663,0.5711 0.36902,1.59095 -0.0678,0.5838 -0.18688,1.23115 -0.26536,1.4387 -0.22475,0.59278 -0.92143,0.46819 -2.19917,-0.39393 -3.27334,-2.20789 -4.99411,-5.77749 -5.31379,-11.02475 -0.23796,-3.91022 0.15299,-6.8564 1.83488,-13.829156 1.50175,-6.226994 1.70283,-7.473339 1.79851,-11.162542 l 0.083,-3.207558 -0.46495,-0.853904 c -0.2554,-0.469435 -0.50905,-0.84892 -0.56362,-0.84294 -0.16869,0.01844 -2.21636,2.447841 -3.46071,4.105316 -2.71296,3.61495 -4.25283,7.180315 -4.53314,10.497259 l -0.10839,1.282973 -0.87583,0.182143 c -1.76338,0.365779 -1.80548,0.353819 -2.05416,-0.586794 -0.33214,-1.257309 -0.17516,-4.397093 0.28854,-5.778239 0.6299,-1.872508 2.04269,-4.495017 4.06196,-7.540365 2.24228,-3.380731 3.70391,-6.050084 4.24186,-7.747675 0.44053,-1.389119 0.49361,-1.421262 2.58364,-1.569767 z" />
        <path
           inkscape:connector-curvature="0"
           id="path3221"
           d="m 118.69709,104.28962 v 1.58771 c 0,1.87674 0.48065,1.61661 -3.86262,2.09177 -3.05432,0.33389 -3.35183,0.3471 -4.82517,0.21653 l -0.73231,-0.0655 0.0897,-0.67126 c 0.13829,-1.02957 0.80034,-1.88597 1.85831,-2.40374 0.82076,-0.40116 1.20199,-0.4652 3.56761,-0.59601 1.45639,-0.0807 2.93098,-0.14951 3.27658,-0.15324 z" />
        <path
           inkscape:connector-curvature="0"
           id="path3223"
           d="m 130.00889,71.257475 0.0443,0.03862 c 0.22201,0.696927 3.01694,5.911296 3.6446,6.798588 1.35847,1.920349 3.16146,3.289037 4.93231,3.74427 0.41312,0.106146 1.03505,0.301993 1.38214,0.435299 0.9142,0.351328 2.16927,0.29975 4.277,-0.175914 3.15249,-0.711628 4.15614,-0.509552 4.87898,0.983223 0.59901,1.237624 0.47866,1.456146 -1.09036,1.982391 -2.75158,0.923173 -6.377,0.963289 -10.01088,0.110382 -1.11902,-0.262873 -1.52841,-0.300498 -1.67492,-0.154484 -0.21927,0.219518 -0.23123,1.662956 -0.0329,4.029069 0.11138,1.327326 0.0733,1.905399 -0.23048,3.488372 -0.92243,4.810964 -2.72517,8.331479 -5.68231,11.098509 -1.16636,1.09136 -1.5907,1.37915 -2.3569,1.59991 -0.51428,0.14801 -1.36644,0.48613 -1.89418,0.751 l -0.9598,0.4814 -0.10714,-0.42708 c -0.13879,-0.55216 0.0391,-1.6495 0.37076,-2.29086 0.39693,-0.7677 1.51919,-1.91537 2.91179,-2.97833 1.43522,-1.095844 2.68107,-2.374333 3.09668,-3.178153 0.89552,-1.731229 1.50174,-7.457891 1.10507,-10.43397 -0.54045,-4.054485 -2.63871,-8.567941 -5.37459,-11.561462 -0.45996,-0.503821 -0.83671,-0.990449 -0.83671,-1.081146 0,-0.09095 0.80357,-0.909469 1.78605,-1.818688 0.59178,-0.486379 1.09859,-1.147176 1.82143,-1.440947 z" />
        <path
           inkscape:connector-curvature="0"
           id="path3225"
           d="m 132.28978,58.070681 0.14502,0.03663 c 0.51703,0.328156 0.89527,0.817774 1.10183,1.391113 0.224,0.893023 -1.06296,5.19294 -2.29112,7.655233 -2.37259,4.756395 -6.35481,7.993106 -11.2921,9.177907 -1.37392,0.329401 -3.4824,0.406395 -4.31064,0.156976 -0.25191,-0.07575 -0.72284,-0.301495 -1.04651,-0.501827 -0.48289,-0.298256 -0.58854,-0.463954 -0.58854,-0.922924 v -0.559136 l 1.13049,-0.110631 c 2.82408,-0.276578 5.10448,-1.20897 7.35025,-3.00598 2.39626,-1.91711 4.47159,-4.680648 7.84858,-10.450166 1.08688,-1.856811 1.77234,-2.863455 1.95274,-2.867193 z" />
        <path
           inkscape:connector-curvature="0"
           id="path3227"
           d="m 29.797176,0.0326412 c 0.175664,0.04858804 0.380233,0.03787375 0.526744,0.14576412 0.318688,0.23546511 0.368023,0.78787375 0.375499,1.11901998 0.02068,0.9326411 -0.26711,2.1640365 -0.754485,2.9676079 -0.08272,0.1554817 -2.048921,2.4373754 -4.378655,5.0725914 -2.659635,3.0647844 -5.480233,6.0271594 -7.656728,9.4701824 2.539784,-0.118355 5.080067,-0.229485 7.6201,-0.340116 15.094684,-0.654817 31.402824,-0.116611 40.570266,1.339286 2.067608,0.328405 2.447342,0.618937 3.440033,2.631229 1.003156,2.034219 1.578239,4.346262 1.727741,6.94809 0.162957,2.830315 0.09643,3.500083 -0.359801,3.622674 -0.583804,0.156728 -2.45083,0.115615 -2.78073,-0.0613 -0.476911,-0.255149 -0.81927,-1.339535 -1.097343,-3.476162 -0.589535,-4.532891 -1.390864,-5.598588 -4.816694,-6.40814 -3.826744,-0.903987 -9.646595,-1.241611 -21.226744,-1.231146 -11.254485,0.01022 -19.94701,0.356312 -28.668937,1.142193 C 10.162375,23.168518 9.5464286,23.284631 8.8774086,23.62375 7.1446844,24.501578 5.85,26.553239 5.0568937,29.678571 4.4491694,32.07309 4.3263289,33.6451 4.1464286,41.331728 3.8875415,52.38289 4.3078904,57.734801 5.8856312,63.458721 c 0.9533223,3.459219 1.7454319,4.633056 3.8028239,5.63696 2.2881229,1.115781 1.3923589,1.076163 24.0964289,1.068937 19.677907,-0.006 26.175996,-0.128821 28.729983,-0.544435 2.376329,-0.38696 3.738538,-2.851744 4.520432,-8.180482 0.364784,-2.485714 0.408638,-2.635964 0.893272,-3.068771 0.982974,-0.878322 2.270931,-0.772674 2.819353,0.231229 0.492608,0.901994 0.389451,3.818771 -0.241446,6.831977 -0.81304,3.88505 -1.558554,6.514784 -1.992109,7.030316 -0.846927,1.006395 -3.343356,1.607392 -7.095349,1.708804 -1.151661,0.0309 -14.302824,0.01819 -29.225332,-0.0289 L 5.0618771,74.059136 4.516196,73.670183 C 3.8302326,73.180814 2.7827242,71.053156 2.3170266,69.202326 1.5127076,66.008223 1.0465116,62.512126 0.78837209,57.729817 0.69119601,55.933555 0.45498339,52.052492 0.26312292,49.104817 -0.1173588,43.253322 -0.089701,39.590532 0.37524917,34.115282 1.0771595,25.852824 2.352907,20.896844 4.0671927,19.773588 4.379402,19.646512 4.2877076,19.672674 4.8475914,19.597924 6.0119601,19.44294 7.1900332,19.377409 8.3613787,19.303156 10.297674,19.179319 12.235714,19.082641 14.173256,18.985465 16.604402,15.318937 19.507724,11.981312 22.310133,8.5965947 26.175249,3.9381229 27.634385,1.4461794 29.428654,0.10639535 Z" />
        <path
           inkscape:connector-curvature="0"
           id="path3229"
           d="m 130.69311,53.040448 c 0.86387,0 0.86262,-0.09942 0.0349,2.422924 -1.86877,5.696013 -5.72492,10.410299 -11.23405,13.73397 -1.23887,0.747259 -1.47334,0.81902 -5.25798,1.607891 -4.25855,0.88779 -4.40606,0.90299 -5.67134,0.590282 -1.09136,-0.269851 -1.74718,-0.623422 -2.5363,-1.367691 l -0.64286,-0.606229 0.3917,-0.317193 c 0.60698,-0.491611 1.91811,-0.820764 4.29493,-1.078405 1.19751,-0.130067 2.51612,-0.346097 2.93048,-0.480897 4.55582,-1.479319 7.39635,-3.3 11.07858,-7.100333 1.80174,-1.8598 5.51063,-6.460215 5.78521,-7.176079 0.0558,-0.145017 0.35731,-0.22824 0.82675,-0.22824 z" />
        <path
           inkscape:connector-curvature="0"
           id="path3231"
           d="m 49.874502,23.563953 c 0.730315,0 1.339784,0.01894 1.354485,0.04186 0.01495,0.02317 0.07425,1.888455 0.132558,4.145183 0.115864,4.491777 0.171678,4.770598 1.1848,5.924501 0.738539,0.841196 1.20324,1.053239 2.768771,1.263538 3.316445,0.446014 5.856479,0.518771 17.936462,0.515781 7.455399,-0.0015 13.613372,0.07002 14.822093,0.171927 5.669851,0.479153 10.206728,1.611628 14.156559,3.533472 1.91562,0.932143 2.12891,1.086877 3.4946,2.537791 2.56994,2.729153 5.05839,6.376744 6.48165,9.500083 l 0.64884,1.423754 -0.0608,-1.020349 c -0.13505,-2.276163 -3.48688,-7.824668 -8.73314,-14.457558 -0.97749,-1.235631 -1.77733,-2.305316 -1.77733,-2.377077 0,-0.240697 0.74078,-0.651578 1.17559,-0.651578 0.76495,0 2.73762,1.331811 3.63438,2.453323 4.57475,5.722923 7.43247,10.384136 8.76478,14.294601 0.29801,0.875083 0.71961,1.778073 0.93663,2.006312 l 0.39469,0.415366 1.01337,-1.013372 -0.43331,-1.499751 c -0.96752,-3.348837 -2.023,-5.419435 -6.09169,-11.951911 -3.1044,-4.984385 -3.12384,-5.039451 -1.76761,-5.039451 0.58679,0 0.94485,0.153239 1.94726,0.835714 0.67575,0.459718 1.34776,0.930648 1.49402,1.046512 0.42832,0.340116 3.78264,6.028405 4.94626,8.387541 0.58829,1.192276 1.33954,3.043356 1.66994,4.113538 0.87558,2.837044 0.87857,2.840033 1.83164,2.003323 0.60972,-0.535715 0.62018,-0.564369 0.52251,-1.474087 -0.22724,-2.121927 -1.44643,-5.929734 -2.89236,-9.033389 -0.40291,-0.865614 -0.73306,-1.674418 -0.73306,-1.797757 0,-0.123339 0.21827,-0.468189 0.48489,-0.766944 0.46719,-0.522508 0.50307,-0.53372 0.96304,-0.295515 0.77865,0.40216 2.11395,1.862044 2.68355,2.933223 0.29153,0.54892 0.96205,2.449086 1.48954,4.222176 0.52774,1.77309 1.0196,3.224003 1.09285,3.224003 0.0735,0 0.38298,-0.312707 0.68771,-0.695182 1.40557,-1.764369 1.91512,-2.01005 2.61802,-1.261794 0.45449,0.483638 0.46246,1.116528 0.0292,2.375581 -0.44726,1.301163 -0.43007,1.661462 0.0917,1.89917 0.23472,0.106893 0.53621,0.194352 0.67002,0.194352 0.3289,0 0.30573,0.435299 -0.083,1.565531 -1.15041,3.343356 -3.63064,6.293273 -7.54534,8.973588 -3.71886,2.545515 -8.54353,4.136961 -13.11902,4.326828 -2.26994,0.09419 -3.59029,-0.169186 -4.71753,-0.941113 -0.86636,-0.593024 -0.89751,-1.113289 -0.0987,-1.651495 0.87259,-0.588289 2.02575,-0.863123 4.43347,-1.05623 7.47733,-0.600249 13.13596,-3.317441 17.24302,-8.2799 0.64486,-0.778904 0.65931,-0.817276 0.19436,-0.512292 -5.10025,3.346844 -10.65798,5.790199 -14.86819,6.537209 -1.26329,0.224252 -2.20117,0.271096 -4.10357,0.205316 -2.61254,-0.09045 -4.1721,-0.404153 -5.97733,-1.202741 -0.99867,-0.441529 -1.125747,-0.670266 -1.052491,-1.890449 l 0.04211,-0.709136 -13.733223,-0.08447 c -7.553571,-0.04635 -15.501329,-0.08397 -17.662126,-0.08372 -4.997342,7.47e-4 -9.857392,0.322176 -13.991861,0.925415 -3.07176,-2.347176 -0.150249,-3.183887 3.934137,-3.602243 1.000664,-0.102408 5.180232,-0.176412 9.71387,-0.171926 4.376412,0.0045 12.215532,-0.04111 17.419684,-0.101163 6.059303,-0.07002 11.144103,-0.04161 14.137625,0.07874 2.570925,0.103156 4.707065,0.155482 4.746925,0.115864 0.1667,-0.166694 -1.79128,-1.107309 -2.96262,-1.423256 -2.305817,-0.621927 -3.362793,-0.687957 -13.493275,-0.843438 -5.526827,-0.08497 -14.495432,-0.24294 -19.930067,-0.35108 -15.013455,-0.298256 -16.38289,-0.293771 -17.669352,0.0598 -2.273173,0.624667 -4.261545,1.58098 -5.945681,2.861212 -6.283804,1.275249 -2.171761,-3.036877 -0.616694,-4.116528 1.157641,-0.803571 3.203571,-1.464369 5.202658,-1.679651 2.381312,-0.256894 21.956561,-0.247425 37.116777,0.01744 12.861379,0.225 12.508804,0.195099 16.178324,1.357475 1.13621,0.36005 2.09801,0.622674 2.13688,0.583804 0.0389,-0.03887 -0.13505,-0.340117 -0.38622,-0.669269 -0.59078,-0.774917 -1.9034,-1.636296 -3.27633,-2.15108 C 98.482226,44.91902 97.705316,44.865947 84.61495,44.672342 72.811047,44.497924 67.500997,44.372591 53.379817,43.935797 L 46.764369,43.73098 45.782143,43.240864 c -1.729734,-0.862625 -3.112126,-2.383804 -9.93314,-10.928821 -3.622425,-4.538123 -6.586295,-8.29186 -6.586295,-8.341196 0,-0.168438 3.767441,0.138788 4.006395,0.326661 0.131063,0.103157 1.890698,2.398505 3.910465,5.100748 4.35,5.819352 5.64892,7.394601 7.649502,9.278073 1.981644,1.865282 2.676827,2.324751 3.914701,2.585133 2.384551,0.501578 8.868937,0.618937 23.366113,0.422342 16.806976,-0.227492 22.440448,-0.106395 25.066196,0.539452 2.096262,0.515282 4.67068,1.409302 6.27982,2.180481 0.67898,0.325416 1.26403,0.562376 1.29991,0.526496 0.15623,-0.15623 -0.49983,-1.090615 -1.27425,-1.814951 -2.42965,-2.272674 -6.048337,-3.688455 -10.576494,-4.138455 -1.814202,-0.180149 -12.223505,-0.263123 -19.009136,-0.151744 -2.118438,0.03513 -6.33887,0.06155 -9.378488,0.0593 -4.96495,-0.0032 -5.736877,-0.04136 -7.5902,-0.375249 C 54.471927,38.067357 51.726827,37.186543 50.111711,36.321676 49.14294,35.803154 48.877575,35.566692 48.571595,34.947257 47.690282,33.165696 47.597591,28.314616 48.370764,24.44327 l 0.175665,-0.879319 z" />
      </g>
      <g
         transform="translate(9.468439,28.156146)"
         id="Speaker">
        <path
           inkscape:connector-curvature="0"
           id="path3234"
           d="m 2.1348837,4.9395349 c 0,0.5367109 -0.4350498,0.9715116 -0.9715116,0.9715116 -0.53671097,0 -0.97126247,-0.4348007 -0.97126247,-0.9715116 0,-0.5362126 0.4345515,-0.9712625 0.97126247,-0.9712625 0.5364618,0 0.9715116,0.4350499 0.9715116,0.9712625 z" />
        <path
           inkscape:connector-curvature="0"
           id="path3236"
           d="m 2.1348837,8.8240864 c 0,0.5367109 -0.4350498,0.9717608 -0.9715116,0.9717608 -0.53671097,0 -0.97126247,-0.4350499 -0.97126247,-0.9717608 0,-0.5364618 0.4345515,-0.9715117 0.97126247,-0.9715117 0.5364618,0 0.9715116,0.4350499 0.9715116,0.9715117 z" />
        <path
           inkscape:connector-curvature="0"
           id="path3238"
           d="m 2.1348837,12.709635 c 0,0.536212 -0.4350498,0.971262 -0.9715116,0.971262 -0.53671097,0 -0.97126247,-0.43505 -0.97126247,-0.971262 0,-0.536462 0.4345515,-0.971512 0.97126247,-0.971512 0.5364618,0 0.9715116,0.43505 0.9715116,0.971512 z" />
        <path
           inkscape:connector-curvature="0"
           id="path3240"
           d="m 2.1348837,16.595183 c 0,0.536212 -0.4350498,0.971262 -0.9715116,0.971262 -0.53671097,0 -0.97126247,-0.43505 -0.97126247,-0.971262 0,-0.536711 0.4345515,-0.971512 0.97126247,-0.971512 0.5364618,0 0.9715116,0.434801 0.9715116,0.971512 z" />
        <path
           inkscape:connector-curvature="0"
           id="path3242"
           d="m 2.1348837,20.479485 c 0,0.536711 -0.4350498,0.971512 -0.9715116,0.971512 -0.53671097,0 -0.97126247,-0.434801 -0.97126247,-0.971512 0,-0.536213 0.4345515,-0.971262 0.97126247,-0.971262 0.5364618,0 0.9715116,0.435049 0.9715116,0.971262 z" />
        <path
           inkscape:connector-curvature="0"
           id="path3244"
           d="m 2.1348837,24.365033 c 0,0.536462 -0.4350498,0.971512 -0.9715116,0.971512 -0.53671097,0 -0.97126247,-0.43505 -0.97126247,-0.971512 0,-0.536212 0.4345515,-0.971262 0.97126247,-0.971262 0.5364618,0 0.9715116,0.43505 0.9715116,0.971262 z" />
        <path
           inkscape:connector-curvature="0"
           id="path3246"
           d="m 2.1348837,28.250581 c 0,0.536462 -0.4350498,0.971512 -0.9715116,0.971512 -0.53671097,0 -0.97126247,-0.43505 -0.97126247,-0.971512 0,-0.536711 0.4345515,-0.971262 0.97126247,-0.971262 0.5364618,0 0.9715116,0.434551 0.9715116,0.971262 z" />
        <path
           inkscape:connector-curvature="0"
           id="path3248"
           d="m 2.1348837,32.13613 c 0,0.536461 -0.4350498,0.971511 -0.9715116,0.971511 -0.53671097,0 -0.97126247,-0.43505 -0.97126247,-0.971511 0,-0.536711 0.4345515,-0.971263 0.97126247,-0.971263 0.5364618,0 0.9715116,0.434552 0.9715116,0.971263 z" />
        <path
           inkscape:connector-curvature="0"
           id="path3250"
           d="m 6.0199335,1.0539867 c 0,0.536711 -0.4345514,0.9715116 -0.9712624,0.9715116 -0.5364618,0 -0.9715116,-0.4348006 -0.9715116,-0.9715116 0,-0.53621261 0.4350498,-0.97126245 0.9715116,-0.97126245 0.536711,0 0.9712624,0.43504984 0.9712624,0.97126245 z" />
        <path
           inkscape:connector-curvature="0"
           id="path3252"
           d="m 6.0199335,4.9395349 c 0,0.5367109 -0.4345514,0.9715116 -0.9712624,0.9715116 -0.5364618,0 -0.9715116,-0.4348007 -0.9715116,-0.9715116 0,-0.5362126 0.4350498,-0.9712625 0.9715116,-0.9712625 0.536711,0 0.9712624,0.4350499 0.9712624,0.9712625 z" />
        <path
           inkscape:connector-curvature="0"
           id="path3254"
           d="m 6.0199335,8.8240864 c 0,0.5367109 -0.4345514,0.9717608 -0.9712624,0.9717608 -0.5364618,0 -0.9715116,-0.4350499 -0.9715116,-0.9717608 0,-0.5364618 0.4350498,-0.9715117 0.9715116,-0.9715117 0.536711,0 0.9712624,0.4350499 0.9712624,0.9715117 z" />
        <path
           inkscape:connector-curvature="0"
           id="path3256"
           d="m 6.0199335,12.709635 c 0,0.536212 -0.4345514,0.971262 -0.9712624,0.971262 -0.5364618,0 -0.9715116,-0.43505 -0.9715116,-0.971262 0,-0.536462 0.4350498,-0.971512 0.9715116,-0.971512 0.536711,0 0.9712624,0.43505 0.9712624,0.971512 z" />
        <path
           inkscape:connector-curvature="0"
           id="path3258"
           d="m 6.0199335,16.595183 c 0,0.536212 -0.4345514,0.971262 -0.9712624,0.971262 -0.5364618,0 -0.9715116,-0.43505 -0.9715116,-0.971262 0,-0.536711 0.4350498,-0.971512 0.9715116,-0.971512 0.536711,0 0.9712624,0.434801 0.9712624,0.971512 z" />
        <path
           inkscape:connector-curvature="0"
           id="path3260"
           d="m 6.0199335,20.479485 c 0,0.536711 -0.4345514,0.971512 -0.9712624,0.971512 -0.5364618,0 -0.9715116,-0.434801 -0.9715116,-0.971512 0,-0.536213 0.4350498,-0.971262 0.9715116,-0.971262 0.536711,0 0.9712624,0.435049 0.9712624,0.971262 z" />
        <path
           inkscape:connector-curvature="0"
           id="path3262"
           d="m 6.0199335,24.365033 c 0,0.536462 -0.4345514,0.971512 -0.9712624,0.971512 -0.5364618,0 -0.9715116,-0.43505 -0.9715116,-0.971512 0,-0.536212 0.4350498,-0.971262 0.9715116,-0.971262 0.536711,0 0.9712624,0.43505 0.9712624,0.971262 z" />
        <path
           inkscape:connector-curvature="0"
           id="path3264"
           d="m 6.0199335,28.250581 c 0,0.536462 -0.4345514,0.971512 -0.9712624,0.971512 -0.5364618,0 -0.9715116,-0.43505 -0.9715116,-0.971512 0,-0.536711 0.4350498,-0.971262 0.9715116,-0.971262 0.536711,0 0.9712624,0.434551 0.9712624,0.971262 z" />
        <path
           inkscape:connector-curvature="0"
           id="path3266"
           d="m 6.0199335,32.13613 c 0,0.536461 -0.4345514,0.971511 -0.9712624,0.971511 -0.5364618,0 -0.9715116,-0.43505 -0.9715116,-0.971511 0,-0.536711 0.4350498,-0.971263 0.9715116,-0.971263 0.536711,0 0.9712624,0.434552 0.9712624,0.971263 z" />
        <path
           inkscape:connector-curvature="0"
           id="path3268"
           d="m 6.0199335,36.020681 c 0,0.536213 -0.4345514,0.971262 -0.9712624,0.971262 -0.5364618,0 -0.9715116,-0.435049 -0.9715116,-0.971262 0,-0.536711 0.4350498,-0.971512 0.9715116,-0.971512 0.536711,0 0.9712624,0.434801 0.9712624,0.971512 z" />
        <path
           inkscape:connector-curvature="0"
           id="path3270"
           d="m 9.9054817,1.0539867 c 0,0.536711 -0.4345515,0.9715116 -0.9712624,0.9715116 -0.5364618,0 -0.9715117,-0.4348006 -0.9715117,-0.9715116 0,-0.53621261 0.4350499,-0.97126245 0.9715117,-0.97126245 0.5367109,0 0.9712624,0.43504984 0.9712624,0.97126245 z" />
        <path
           inkscape:connector-curvature="0"
           id="path3272"
           d="m 9.9054817,4.9395349 c 0,0.5367109 -0.4345515,0.9715116 -0.9712624,0.9715116 -0.5364618,0 -0.9715117,-0.4348007 -0.9715117,-0.9715116 0,-0.5362126 0.4350499,-0.9712625 0.9715117,-0.9712625 0.5367109,0 0.9712624,0.4350499 0.9712624,0.9712625 z" />
        <path
           inkscape:connector-curvature="0"
           id="path3274"
           d="m 9.9054817,8.8240864 c 0,0.5367109 -0.4345515,0.9717608 -0.9712624,0.9717608 -0.5364618,0 -0.9715117,-0.4350499 -0.9715117,-0.9717608 0,-0.5364618 0.4350499,-0.9715117 0.9715117,-0.9715117 0.5367109,0 0.9712624,0.4350499 0.9712624,0.9715117 z" />
        <path
           inkscape:connector-curvature="0"
           id="path3276"
           d="m 9.9054817,12.709635 c 0,0.536212 -0.4345515,0.971262 -0.9712624,0.971262 -0.5364618,0 -0.9715117,-0.43505 -0.9715117,-0.971262 0,-0.536462 0.4350499,-0.971512 0.9715117,-0.971512 0.5367109,0 0.9712624,0.43505 0.9712624,0.971512 z" />
        <path
           inkscape:connector-curvature="0"
           id="path3278"
           d="m 9.9054817,16.595183 c 0,0.536212 -0.4345515,0.971262 -0.9712624,0.971262 -0.5364618,0 -0.9715117,-0.43505 -0.9715117,-0.971262 0,-0.536711 0.4350499,-0.971512 0.9715117,-0.971512 0.5367109,0 0.9712624,0.434801 0.9712624,0.971512 z" />
        <path
           inkscape:connector-curvature="0"
           id="path3280"
           d="m 9.9054817,20.479485 c 0,0.536711 -0.4345515,0.971512 -0.9712624,0.971512 -0.5364618,0 -0.9715117,-0.434801 -0.9715117,-0.971512 0,-0.536213 0.4350499,-0.971262 0.9715117,-0.971262 0.5367109,0 0.9712624,0.435049 0.9712624,0.971262 z" />
        <path
           inkscape:connector-curvature="0"
           id="path3282"
           d="m 9.9054817,24.365033 c 0,0.536462 -0.4345515,0.971512 -0.9712624,0.971512 -0.5364618,0 -0.9715117,-0.43505 -0.9715117,-0.971512 0,-0.536212 0.4350499,-0.971262 0.9715117,-0.971262 0.5367109,0 0.9712624,0.43505 0.9712624,0.971262 z" />
        <path
           inkscape:connector-curvature="0"
           id="path3284"
           d="m 9.9054817,28.250581 c 0,0.536462 -0.4345515,0.971512 -0.9712624,0.971512 -0.5364618,0 -0.9715117,-0.43505 -0.9715117,-0.971512 0,-0.536711 0.4350499,-0.971262 0.9715117,-0.971262 0.5367109,0 0.9712624,0.434551 0.9712624,0.971262 z" />
        <path
           inkscape:connector-curvature="0"
           id="path3286"
           d="m 9.9054817,32.13613 c 0,0.536461 -0.4345515,0.971511 -0.9712624,0.971511 -0.5364618,0 -0.9715117,-0.43505 -0.9715117,-0.971511 0,-0.536711 0.4350499,-0.971263 0.9715117,-0.971263 0.5367109,0 0.9712624,0.434552 0.9712624,0.971263 z" />
        <path
           inkscape:connector-curvature="0"
           id="path3288"
           d="m 9.9054817,36.020681 c 0,0.536213 -0.4345515,0.971262 -0.9712624,0.971262 -0.5364618,0 -0.9715117,-0.435049 -0.9715117,-0.971262 0,-0.536711 0.4350499,-0.971512 0.9715117,-0.971512 0.5367109,0 0.9712624,0.434801 0.9712624,0.971512 z" />
        <path
           inkscape:connector-curvature="0"
           id="path3290"
           d="m 13.790033,1.0539867 c 0,0.536711 -0.4348,0.9715116 -0.971511,0.9715116 -0.536213,0 -0.971263,-0.4348006 -0.971263,-0.9715116 0,-0.53621261 0.43505,-0.97126245 0.971263,-0.97126245 0.536711,0 0.971511,0.43504984 0.971511,0.97126245 z" />
        <path
           inkscape:connector-curvature="0"
           id="path3292"
           d="m 13.790033,4.9395349 c 0,0.5367109 -0.4348,0.9715116 -0.971511,0.9715116 -0.536213,0 -0.971263,-0.4348007 -0.971263,-0.9715116 0,-0.5362126 0.43505,-0.9712625 0.971263,-0.9712625 0.536711,0 0.971511,0.4350499 0.971511,0.9712625 z" />
        <path
           inkscape:connector-curvature="0"
           id="path3294"
           d="m 13.790033,8.8240864 c 0,0.5367109 -0.4348,0.9717608 -0.971511,0.9717608 -0.536213,0 -0.971263,-0.4350499 -0.971263,-0.9717608 0,-0.5364618 0.43505,-0.9715117 0.971263,-0.9715117 0.536711,0 0.971511,0.4350499 0.971511,0.9715117 z" />
        <path
           inkscape:connector-curvature="0"
           id="path3296"
           d="m 13.790033,12.709635 c 0,0.536212 -0.4348,0.971262 -0.971511,0.971262 -0.536213,0 -0.971263,-0.43505 -0.971263,-0.971262 0,-0.536462 0.43505,-0.971512 0.971263,-0.971512 0.536711,0 0.971511,0.43505 0.971511,0.971512 z" />
        <path
           inkscape:connector-curvature="0"
           id="path3298"
           d="m 13.790033,16.595183 c 0,0.536212 -0.4348,0.971262 -0.971511,0.971262 -0.536213,0 -0.971263,-0.43505 -0.971263,-0.971262 0,-0.536711 0.43505,-0.971512 0.971263,-0.971512 0.536711,0 0.971511,0.434801 0.971511,0.971512 z" />
        <path
           inkscape:connector-curvature="0"
           id="path3300"
           d="m 13.790033,20.479485 c 0,0.536711 -0.4348,0.971512 -0.971511,0.971512 -0.536213,0 -0.971263,-0.434801 -0.971263,-0.971512 0,-0.536213 0.43505,-0.971262 0.971263,-0.971262 0.536711,0 0.971511,0.435049 0.971511,0.971262 z" />
        <path
           inkscape:connector-curvature="0"
           id="path3302"
           d="m 13.790033,24.365033 c 0,0.536462 -0.4348,0.971512 -0.971511,0.971512 -0.536213,0 -0.971263,-0.43505 -0.971263,-0.971512 0,-0.536212 0.43505,-0.971262 0.971263,-0.971262 0.536711,0 0.971511,0.43505 0.971511,0.971262 z" />
        <path
           inkscape:connector-curvature="0"
           id="path3304"
           d="m 13.790033,28.250581 c 0,0.536462 -0.4348,0.971512 -0.971511,0.971512 -0.536213,0 -0.971263,-0.43505 -0.971263,-0.971512 0,-0.536711 0.43505,-0.971262 0.971263,-0.971262 0.536711,0 0.971511,0.434551 0.971511,0.971262 z" />
        <path
           inkscape:connector-curvature="0"
           id="path3306"
           d="m 13.790033,32.13613 c 0,0.536461 -0.4348,0.971511 -0.971511,0.971511 -0.536213,0 -0.971263,-0.43505 -0.971263,-0.971511 0,-0.536711 0.43505,-0.971263 0.971263,-0.971263 0.536711,0 0.971511,0.434552 0.971511,0.971263 z" />
        <path
           inkscape:connector-curvature="0"
           id="path3308"
           d="m 13.790033,36.020681 c 0,0.536213 -0.4348,0.971262 -0.971511,0.971262 -0.536213,0 -0.971263,-0.435049 -0.971263,-0.971262 0,-0.536711 0.43505,-0.971512 0.971263,-0.971512 0.536711,0 0.971511,0.434801 0.971511,0.971512 z" />
        <path
           inkscape:connector-curvature="0"
           id="path3310"
           d="m 17.675581,4.9395349 c 0,0.5367109 -0.435049,0.9715116 -0.971511,0.9715116 -0.536213,0 -0.971263,-0.4348007 -0.971263,-0.9715116 0,-0.5362126 0.43505,-0.9712625 0.971263,-0.9712625 0.536462,0 0.971511,0.4350499 0.971511,0.9712625 z" />
        <path
           inkscape:connector-curvature="0"
           id="path3312"
           d="m 17.675581,8.8240864 c 0,0.5367109 -0.435049,0.9717608 -0.971511,0.9717608 -0.536213,0 -0.971263,-0.4350499 -0.971263,-0.9717608 0,-0.5364618 0.43505,-0.9715117 0.971263,-0.9715117 0.536462,0 0.971511,0.4350499 0.971511,0.9715117 z" />
        <path
           inkscape:connector-curvature="0"
           id="path3314"
           d="m 17.675581,12.709635 c 0,0.536212 -0.435049,0.971262 -0.971511,0.971262 -0.536213,0 -0.971263,-0.43505 -0.971263,-0.971262 0,-0.536462 0.43505,-0.971512 0.971263,-0.971512 0.536462,0 0.971511,0.43505 0.971511,0.971512 z" />
        <path
           inkscape:connector-curvature="0"
           id="path3316"
           d="m 17.675581,16.595183 c 0,0.536212 -0.435049,0.971262 -0.971511,0.971262 -0.536213,0 -0.971263,-0.43505 -0.971263,-0.971262 0,-0.536711 0.43505,-0.971512 0.971263,-0.971512 0.536462,0 0.971511,0.434801 0.971511,0.971512 z" />
        <path
           inkscape:connector-curvature="0"
           id="path3318"
           d="m 17.675581,20.479485 c 0,0.536711 -0.435049,0.971512 -0.971511,0.971512 -0.536213,0 -0.971263,-0.434801 -0.971263,-0.971512 0,-0.536213 0.43505,-0.971262 0.971263,-0.971262 0.536462,0 0.971511,0.435049 0.971511,0.971262 z" />
        <path
           inkscape:connector-curvature="0"
           id="path3320"
           d="m 17.675581,24.365033 c 0,0.536462 -0.435049,0.971512 -0.971511,0.971512 -0.536213,0 -0.971263,-0.43505 -0.971263,-0.971512 0,-0.536212 0.43505,-0.971262 0.971263,-0.971262 0.536462,0 0.971511,0.43505 0.971511,0.971262 z" />
        <path
           inkscape:connector-curvature="0"
           id="path3322"
           d="m 17.675581,28.250581 c 0,0.536462 -0.435049,0.971512 -0.971511,0.971512 -0.536213,0 -0.971263,-0.43505 -0.971263,-0.971512 0,-0.536711 0.43505,-0.971262 0.971263,-0.971262 0.536462,0 0.971511,0.434551 0.971511,0.971262 z" />
        <path
           inkscape:connector-curvature="0"
           id="path3324"
           d="m 17.675581,32.13613 c 0,0.536461 -0.435049,0.971511 -0.971511,0.971511 -0.536213,0 -0.971263,-0.43505 -0.971263,-0.971511 0,-0.536711 0.43505,-0.971263 0.971263,-0.971263 0.536462,0 0.971511,0.434552 0.971511,0.971263 z" />
      </g>
      <path
         style="fill-rule:nonzero"
         inkscape:connector-curvature="0"
         id="Dots"
         d="m 40.316113,63.273339 c 0,1.849086 -0.989452,3.348837 -3.349585,3.348837 -2.799418,-0.659551 -3.348339,-1.866528 -3.348339,-3.348837 0,-1.482309 2.085299,-3.348339 3.348339,-3.348339 1.262791,0 3.348837,1.498754 3.348837,3.348339 z m 16.46686,0 c -0.219518,2.580398 -1.498754,3.348837 -3.348837,3.348837 -1.849834,0 -3.348588,-1.866528 -3.348588,-3.348837 0,-1.482309 1.5,-3.348339 3.349585,-3.348339 1.850083,0 3.567857,0.76794 3.348588,3.348339 z" />
    </g>
  </g>
</svg>
