<?xml version="1.0" encoding="UTF-8" standalone="no"?>
<!-- Created with Inkscape (http://www.inkscape.org/) -->

<svg
   width="1500"
   height="500"
   viewBox="0 0 1500 500"
   version="1.1"
   id="svg349"
   inkscape:version="1.2.1 (9c6d41e410, 2022-07-14, custom)"
   sodipodi:docname="sm-header-2023.svg"
   inkscape:export-filename="sm-header-2023.png"
   inkscape:export-xdpi="96"
   inkscape:export-ydpi="96"
   xmlns:inkscape="http://www.inkscape.org/namespaces/inkscape"
   xmlns:sodipodi="http://sodipodi.sourceforge.net/DTD/sodipodi-0.dtd"
   xmlns="http://www.w3.org/2000/svg"
   xmlns:svg="http://www.w3.org/2000/svg">
  <sodipodi:namedview
     id="namedview351"
     pagecolor="#505050"
     bordercolor="#eeeeee"
     borderopacity="1"
     inkscape:showpageshadow="0"
     inkscape:pageopacity="0"
     inkscape:pagecheckerboard="0"
     inkscape:deskcolor="#505050"
     inkscape:document-units="px"
     showgrid="false"
     inkscape:zoom="0.23403355"
     inkscape:cx="683.66267"
     inkscape:cy="444.38074"
     inkscape:window-width="1362"
     inkscape:window-height="721"
     inkscape:window-x="0"
     inkscape:window-y="22"
     inkscape:window-maximized="1"
     inkscape:current-layer="layer1" />
  <defs
     id="defs346">
    <linearGradient
       id="SVGID_00000049215672759932768630000001529053474238166923_"
       gradientUnits="userSpaceOnUse"
       x1="426.83249"
       y1="17.7253"
       x2="426.83249"
       y2="864.94379">
		<stop
   offset="0"
   style="stop-color:#86C2EB"
   id="stop1107" />

		<stop
   offset="1"
   style="stop-color:#1D71B8"
   id="stop1109" />

	</linearGradient>
    <linearGradient
       id="SVGID_1_"
       gradientUnits="userSpaceOnUse"
       x1="420.94489"
       y1="-8.5038996"
       x2="420.94489"
       y2="1199.0551">
			<stop
   offset="0"
   style="stop-color:#FFFFFF"
   id="stop1044" />

			<stop
   offset="0"
   style="stop-color:#272771"
   id="stop1046" />

			<stop
   offset="1"
   style="stop-color:#1D71B8"
   id="stop1048" />

		</linearGradient>
    <linearGradient
       id="SVGID_00000049215672759932768630000001529053474238166923_-3"
       gradientUnits="userSpaceOnUse"
       x1="426.83249"
       y1="17.7253"
       x2="426.83249"
       y2="864.94379">
		<stop
   offset="0"
   style="stop-color:#86C2EB"
   id="stop1107-6" />

		<stop
   offset="1"
   style="stop-color:#1D71B8"
   id="stop1109-7" />

	</linearGradient>
    <linearGradient
       id="SVGID_00000049215672759932768630000001529053474238166923_-2"
       gradientUnits="userSpaceOnUse"
       x1="426.83249"
       y1="17.7253"
       x2="426.83249"
       y2="864.94379">
		<stop
   offset="0"
   style="stop-color:#86C2EB"
   id="stop1107-9" />

		<stop
   offset="1"
   style="stop-color:#1D71B8"
   id="stop1109-1" />

	</linearGradient>
  </defs>
  <g
     inkscape:label="Ebene 1"
     inkscape:groupmode="layer"
     id="layer1">
    <g
       id="Hintergrund"
       transform="matrix(1.7464198,0,0,1,14.844568,-180.83613)">
	<g
   id="g1053">
		<linearGradient
   id="linearGradient1720"
   gradientUnits="userSpaceOnUse"
   x1="420.94489"
   y1="-8.5038996"
   x2="420.94489"
   y2="1199.0551">
			<stop
   offset="0"
   style="stop-color:#FFFFFF"
   id="stop1714" />

			<stop
   offset="0"
   style="stop-color:#272771"
   id="stop1716" />

			<stop
   offset="1"
   style="stop-color:#1D71B8"
   id="stop1718" />

		</linearGradient>

		<rect
   x="-8.5"
   y="-8.5"
   class="st0"
   width="858.90002"
   height="1207.6"
   id="rect1051"
   style="fill:url(#SVGID_1_)" />

	</g>

</g>
    <g
       id="sterne"
       transform="translate(327.85001,-180.83613)">
	
		<linearGradient
   id="linearGradient1729"
   gradientUnits="userSpaceOnUse"
   x1="426.83249"
   y1="17.7253"
   x2="426.83249"
   y2="864.94379">
		<stop
   offset="0"
   style="stop-color:#86C2EB"
   id="stop1725" />

		<stop
   offset="1"
   style="stop-color:#1D71B8"
   id="stop1727" />

	</linearGradient>

	<path
   style="fill:url(#SVGID_00000049215672759932768630000001529053474238166923_)"
   d="m 159,283.5 c 0,2.7 -2.2,4.9 -4.9,4.9 -2.7,0 -4.9,-2.2 -4.9,-4.9 0,-2.7 2.2,-4.9 4.9,-4.9 2.7,0 4.9,2.2 4.9,4.9 z m 29.8,-97.6 c -2,0 -3.7,1.7 -3.7,3.7 0,2 1.7,3.7 3.7,3.7 2,0 3.7,-1.7 3.7,-3.7 0,-2.1 -1.6,-3.7 -3.7,-3.7 z M 264.3,56.1 c -1.3,0 -2.4,1.1 -2.4,2.4 0,1.3 1.1,2.4 2.4,2.4 1.3,0 2.4,-1.1 2.4,-2.4 0,-1.3 -1.1,-2.4 -2.4,-2.4 z m -110.2,5.5 c -2,0 -3.6,1.6 -3.6,3.6 0,2 1.6,3.6 3.6,3.6 2,0 3.6,-1.6 3.6,-3.6 0,-2 -1.6,-3.6 -3.6,-3.6 z m 47.2,365.9 c -2,0 -3.6,1.6 -3.6,3.6 0,2 1.6,3.6 3.6,3.6 2,0 3.6,-1.6 3.6,-3.6 0,-2 -1.6,-3.6 -3.6,-3.6 z m -43.6,-405 c -2,0 -3.6,1.6 -3.6,3.6 0,2 1.6,3.6 3.6,3.6 2,0 3.6,-1.6 3.6,-3.6 0,-2 -1.6,-3.6 -3.6,-3.6 z m 50.8,279.4 c -2,0 -3.6,1.6 -3.6,3.6 0,2 1.6,3.6 3.6,3.6 2,0 3.6,-1.6 3.6,-3.6 0,-2 -1.6,-3.6 -3.6,-3.6 z M 29.7,118.1 c -2,0 -3.6,1.6 -3.6,3.6 0,2 1.6,3.6 3.6,3.6 2,0 3.6,-1.6 3.6,-3.6 0,-2 -1.6,-3.6 -3.6,-3.6 z M 252,49.6 c -1.3,0 -2.4,1.1 -2.4,2.4 0,1.3 1.1,2.4 2.4,2.4 1.3,0 2.4,-1.1 2.4,-2.4 0,-1.3 -1.1,-2.4 -2.4,-2.4 z m -34.5,17.1 c -1.2,0 -2.3,1 -2.3,2.3 0,1.2 1,2.3 2.3,2.3 1.2,0 2.3,-1 2.3,-2.3 -0.1,-1.3 -1.1,-2.3 -2.3,-2.3 z M 42.3,237.1 c -1.2,0 -2.3,1 -2.3,2.3 0,1.2 1,2.3 2.3,2.3 1.2,0 2.3,-1 2.3,-2.3 0,-1.3 -1,-2.3 -2.3,-2.3 z m 191.8,72 c -1.2,0 -2.3,1 -2.3,2.3 0,1.2 1,2.3 2.3,2.3 1.2,0 2.3,-1 2.3,-2.3 0,-1.3 -1,-2.3 -2.3,-2.3 z M 38.8,37.6 c -2,0 -3.6,1.6 -3.6,3.6 0,2 1.6,3.6 3.6,3.6 2,0 3.6,-1.6 3.6,-3.6 0,-2 -1.6,-3.6 -3.6,-3.6 z m 25.6,7.2 c -1.2,0 -2.3,1 -2.3,2.3 0,1.3 1,2.3 2.3,2.3 1.2,0 2.3,-1 2.3,-2.3 0,-1.3 -1,-2.3 -2.3,-2.3 z m 75.2,5 c -1.2,0 -2.3,1 -2.3,2.3 0,1.2 1,2.3 2.3,2.3 1.2,0 2.3,-1 2.3,-2.3 0,-1.3 -1,-2.3 -2.3,-2.3 z M 39.7,168 c -1.2,0 -2.3,1 -2.3,2.3 0,1.3 1,2.3 2.3,2.3 1.2,0 2.3,-1 2.3,-2.3 0,-1.3 -1.1,-2.3 -2.3,-2.3 z m -7.5,-12.9 c -1.2,0 -2.3,1 -2.3,2.3 0,1.2 1,2.3 2.3,2.3 1.2,0 2.3,-1 2.3,-2.3 -0.1,-1.3 -1.1,-2.3 -2.3,-2.3 z m 278.5,58.2 c -1.6,2.2 -1,5.2 1.1,6.8 2.2,1.6 5.2,1 6.8,-1.1 1.6,-2.2 1,-5.2 -1.1,-6.8 -2.2,-1.6 -5.3,-1 -6.8,1.1 z M 412.5,172 c -1.7,2.4 -1.2,5.8 1.3,7.6 2.4,1.7 5.8,1.2 7.6,-1.3 1.7,-2.4 1.2,-5.8 -1.3,-7.6 -2.5,-1.7 -5.9,-1.1 -7.6,1.3 z m 4.7,-80.5 c -0.8,1.1 -0.5,2.6 0.6,3.4 1.1,0.8 2.6,0.5 3.4,-0.6 0.8,-1.1 0.5,-2.6 -0.6,-3.4 -1.1,-0.8 -2.7,-0.5 -3.4,0.6 z m -53,-72.8 c -0.8,1.1 -0.5,2.6 0.6,3.4 1.1,0.8 2.6,0.5 3.4,-0.6 0.8,-1.1 0.5,-2.6 -0.6,-3.4 -1.1,-0.7 -2.6,-0.4 -3.4,0.6 z m 83.1,146.7 c -0.8,1.1 -0.5,2.6 0.6,3.4 1.1,0.8 2.6,0.5 3.4,-0.6 0.8,-1.1 0.5,-2.6 -0.6,-3.4 -1.1,-0.8 -2.6,-0.5 -3.4,0.6 z M 55.7,839.8 c -1.2,1.6 -0.8,3.9 0.8,5 1.6,1.1 3.9,0.8 5,-0.8 1.1,-1.6 0.8,-3.9 -0.8,-5 -1.6,-1.1 -3.9,-0.9 -5,0.8 z M 323.3,63.1 c -1.2,1.6 -0.8,3.9 0.8,5 1.6,1.2 3.9,0.8 5,-0.8 1.1,-1.6 0.8,-3.9 -0.8,-5 -1.6,-1.2 -3.9,-0.8 -5,0.8 z m 202.2,151.3 c -1.2,1.6 -0.8,3.9 0.8,5 1.6,1.2 3.9,0.8 5,-0.8 1.1,-1.6 0.8,-3.9 -0.8,-5 -1.6,-1.2 -3.9,-0.9 -5,0.8 z m -235.6,56.4 c -1.2,1.6 -0.8,3.9 0.8,5 1.6,1.2 3.9,0.8 5,-0.8 1.1,-1.6 0.8,-3.9 -0.8,-5 -1.6,-1.2 -3.8,-0.8 -5,0.8 z M 351.7,25 c -0.8,1.1 -0.5,2.6 0.6,3.4 1.1,0.8 2.6,0.5 3.4,-0.6 0.8,-1.1 0.5,-2.6 -0.6,-3.4 -1.1,-0.7 -2.6,-0.5 -3.4,0.6 z m -37.4,157.2 c -0.7,1 -0.5,2.4 0.5,3.2 1,0.7 2.4,0.5 3.2,-0.5 0.7,-1 0.5,-2.4 -0.5,-3.2 -1.1,-0.7 -2.5,-0.5 -3.2,0.5 z m 81.6,140 c -0.7,1 -0.5,2.4 0.5,3.2 1,0.8 2.4,0.5 3.2,-0.5 0.7,-1 0.5,-2.4 -0.5,-3.2 -1,-0.8 -2.4,-0.5 -3.2,0.5 z M 546.2,197.6 c -0.7,1 -0.5,2.4 0.5,3.2 1,0.8 2.4,0.5 3.2,-0.5 0.7,-1 0.5,-2.4 -0.5,-3.2 -1.1,-0.8 -2.5,-0.5 -3.2,0.5 z m -397.6,144 c 1.3,0.3 2.6,-0.5 2.9,-1.8 0.3,-1.3 -0.5,-2.6 -1.8,-2.9 -1.3,-0.3 -2.6,0.5 -2.9,1.8 -0.3,1.3 0.5,2.6 1.8,2.9 z M 280,398.1 c 1.2,0.3 2.4,-0.5 2.7,-1.7 0.3,-1.2 -0.5,-2.4 -1.7,-2.7 -1.2,-0.3 -2.4,0.5 -2.7,1.7 -0.3,1.2 0.5,2.4 1.7,2.7 z M 103,376.7 c 1.2,0.3 2.4,-0.5 2.7,-1.7 0.3,-1.2 -0.5,-2.4 -1.7,-2.7 -1.2,-0.3 -2.4,0.5 -2.7,1.7 -0.3,1.2 0.5,2.4 1.7,2.7 z m -9,-44.6 c 1.5,-1.3 1.6,-3.6 0.3,-5.1 -1.3,-1.5 -3.6,-1.6 -5.1,-0.3 -1.5,1.3 -1.6,3.6 -0.3,5.1 1.4,1.4 3.6,1.6 5.1,0.3 z m 23.4,31.5 c 1.5,-1.3 1.6,-3.6 0.3,-5.1 -1.3,-1.5 -3.6,-1.6 -5.1,-0.3 -1.5,1.3 -1.6,3.6 -0.3,5.1 1.3,1.5 3.6,1.6 5.1,0.3 z m 424.5,55.3 c 1.2,0.3 2.4,-0.5 2.7,-1.7 0.3,-1.2 -0.5,-2.4 -1.7,-2.7 -1.2,-0.3 -2.4,0.5 -2.7,1.7 -0.3,1.2 0.5,2.4 1.7,2.7 z m 14.4,-13.1 c 1.5,-1.3 1.6,-3.6 0.3,-5.1 -1.3,-1.5 -3.6,-1.6 -5.1,-0.3 -1.5,1.3 -1.6,3.6 -0.3,5.1 1.3,1.5 3.6,1.7 5.1,0.3 z M 112.7,331.2 c 0.9,-0.8 1,-2.3 0.2,-3.2 -0.8,-0.9 -2.3,-1 -3.2,-0.2 -0.9,0.8 -1,2.3 -0.2,3.2 0.9,1 2.3,1 3.2,0.2 z M 402.2,35.9 c -0.7,1 -0.5,2.4 0.5,3.2 1,0.7 2.4,0.5 3.2,-0.5 0.7,-1 0.5,-2.4 -0.5,-3.2 -1,-0.8 -2.4,-0.6 -3.2,0.5 z m -51.6,246.3 c -0.7,1 -0.5,2.4 0.5,3.2 1,0.7 2.4,0.5 3.2,-0.5 0.7,-1 0.5,-2.4 -0.5,-3.2 -1.1,-0.8 -2.5,-0.5 -3.2,0.5 z m -14.8,-1.3 c -0.7,1 -0.5,2.4 0.5,3.2 1,0.7 2.4,0.5 3.2,-0.5 0.8,-1 0.5,-2.4 -0.5,-3.2 -1.1,-0.8 -2.5,-0.5 -3.2,0.5 z M 518.4,53.6 c -0.7,1 -0.5,2.4 0.5,3.2 1,0.7 2.4,0.5 3.2,-0.5 0.7,-1 0.5,-2.4 -0.5,-3.2 -1.1,-0.7 -2.5,-0.5 -3.2,0.5 z m -14.9,-1.3 c -0.7,1 -0.5,2.4 0.5,3.2 1,0.7 2.4,0.5 3.2,-0.5 0.8,-1 0.5,-2.4 -0.5,-3.2 -1,-0.7 -2.4,-0.5 -3.2,0.5 z M 743,590.8 c 2.6,0.6 5.2,-1 5.9,-3.6 0.6,-2.6 -1,-5.2 -3.6,-5.9 -2.6,-0.6 -5.2,1 -5.9,3.6 -0.6,2.6 1,5.3 3.6,5.9 z m -46.5,-43.2 c 2.3,0.5 4.6,-0.9 5.1,-3.1 0.5,-2.3 -0.9,-4.6 -3.1,-5.1 -2.3,-0.5 -4.6,0.9 -5.1,3.1 -0.6,2.3 0.8,4.6 3.1,5.1 z m -122.6,7.6 c 1.3,0.3 2.6,-0.5 2.9,-1.8 0.3,-1.3 -0.5,-2.6 -1.8,-2.9 -1.3,-0.3 -2.6,0.5 -2.9,1.8 -0.3,1.3 0.5,2.6 1.8,2.9 z m -180.6,45 c 1.3,0 2.4,-1.2 2.4,-2.5 0,-1.3 -1.2,-2.4 -2.5,-2.4 -1.3,0 -2.4,1.2 -2.4,2.5 0,1.3 1.2,2.4 2.5,2.4 z m 249,-117.5 c 1.3,0.3 2.6,-0.5 2.9,-1.8 0.3,-1.3 -0.5,-2.6 -1.8,-2.9 -1.3,-0.3 -2.6,0.5 -2.9,1.8 -0.3,1.3 0.5,2.6 1.8,2.9 z m -64,-2.1 c 1.9,0.5 3.9,-0.7 4.3,-2.7 0.5,-1.9 -0.7,-3.9 -2.7,-4.3 -1.9,-0.5 -3.9,0.7 -4.3,2.7 -0.4,1.9 0.8,3.9 2.7,4.3 z M 148.6,780.4 c -1.9,-0.6 -3.9,0.5 -4.5,2.4 -0.6,1.9 0.5,3.9 2.4,4.5 1.9,0.6 3.9,-0.5 4.5,-2.4 0.6,-1.9 -0.5,-3.9 -2.4,-4.5 z M 682.6,431 c 1.9,0.5 3.9,-0.7 4.3,-2.7 0.5,-1.9 -0.7,-3.9 -2.7,-4.3 -1.9,-0.5 -3.9,0.7 -4.3,2.7 -0.4,1.9 0.8,3.8 2.7,4.3 z m 117.9,188.7 c 1.9,0.5 3.9,-0.7 4.3,-2.7 0.5,-1.9 -0.7,-3.9 -2.7,-4.3 -2,-0.4 -3.9,0.7 -4.3,2.7 -0.4,2 0.8,3.8 2.7,4.3 z M 595.4,459.9 c 1.3,0.3 2.6,-0.5 2.9,-1.8 0.3,-1.3 -0.5,-2.6 -1.8,-2.9 -1.3,-0.3 -2.6,0.5 -2.9,1.8 -0.3,1.3 0.5,2.6 1.8,2.9 z M 405.9,606.4 c 1.3,0 2.4,-1.2 2.4,-2.5 0,-1.3 -1.2,-2.4 -2.5,-2.4 -1.3,0 -2.4,1.2 -2.4,2.5 0,1.3 1.1,2.4 2.5,2.4 z M 712.8,599 c 1.2,0.3 2.4,-0.5 2.7,-1.7 0.3,-1.2 -0.5,-2.4 -1.7,-2.7 -1.2,-0.3 -2.4,0.5 -2.7,1.7 -0.2,1.2 0.5,2.5 1.7,2.7 z m 101.1,-89.3 c 1.2,0.3 2.4,-0.5 2.7,-1.7 0.3,-1.2 -0.5,-2.4 -1.7,-2.7 -1.2,-0.3 -2.4,0.5 -2.7,1.7 -0.2,1.2 0.5,2.4 1.7,2.7 z M 659.3,418 c 1.2,0.3 2.4,-0.5 2.7,-1.7 0.3,-1.2 -0.5,-2.4 -1.7,-2.7 -1.2,-0.3 -2.4,0.5 -2.7,1.7 -0.3,1.2 0.5,2.4 1.7,2.7 z M 45.4,744.7 c -1.2,-0.4 -2.5,0.3 -2.8,1.5 -0.4,1.2 0.3,2.5 1.5,2.8 1.2,0.4 2.5,-0.3 2.8,-1.5 0.4,-1.2 -0.3,-2.5 -1.5,-2.8 z m 78.1,56.6 c -1.2,-0.4 -2.5,0.3 -2.8,1.5 -0.4,1.2 0.3,2.5 1.5,2.8 1.2,0.4 2.5,-0.3 2.8,-1.5 0.3,-1.2 -0.4,-2.4 -1.5,-2.8 z M 825.4,171 c 1.2,0 2.2,-1.1 2.2,-2.3 0,-1.2 -1.1,-2.2 -2.3,-2.2 -1.2,0 -2.2,1.1 -2.2,2.3 0,1.2 1,2.2 2.3,2.2 z m -31.7,395.7 c 1.2,0.3 2.4,-0.5 2.7,-1.7 0.3,-1.2 -0.5,-2.4 -1.7,-2.7 -1.2,-0.3 -2.4,0.5 -2.7,1.7 -0.2,1.2 0.5,2.4 1.7,2.7 z m 4.3,14.2 c 1.2,0.3 2.4,-0.5 2.7,-1.7 0.3,-1.2 -0.5,-2.4 -1.7,-2.7 -1.2,-0.3 -2.4,0.5 -2.7,1.7 -0.2,1.2 0.5,2.4 1.7,2.7 z M 792.8,39 c 1.5,-2.2 0.9,-5.3 -1.3,-6.7 -2.2,-1.5 -5.3,-0.9 -6.7,1.3 -1.5,2.2 -0.9,5.3 1.3,6.7 2.2,1.6 5.2,1 6.7,-1.3 z M 636.5,175.5 c 1.6,-2.4 1,-5.8 -1.5,-7.4 -2.5,-1.6 -5.8,-1 -7.4,1.5 -1.6,2.4 -1,5.8 1.5,7.4 2.5,1.6 5.8,0.9 7.4,-1.5 z m 57.8,-5.2 c 0.7,-1.1 0.4,-2.6 -0.7,-3.4 -1.1,-0.7 -2.6,-0.4 -3.4,0.7 -0.7,1.1 -0.4,2.6 0.7,3.4 1.1,0.8 2.7,0.5 3.4,-0.7 z m 110.6,71.5 c 0.7,-1.1 0.4,-2.6 -0.7,-3.4 -1.1,-0.7 -2.6,-0.4 -3.4,0.7 -0.8,1.1 -0.4,2.6 0.7,3.4 1.1,0.7 2.6,0.4 3.4,-0.7 z M 688.1,52.5 c 0.7,-1.1 0.4,-2.6 -0.7,-3.4 -1.1,-0.7 -2.6,-0.4 -3.4,0.7 -0.7,1.1 -0.4,2.6 0.7,3.4 1.1,0.7 2.6,0.4 3.4,-0.7 z M 805.5,130 c 1.1,-1.7 0.7,-3.9 -1,-5 -1.7,-1.1 -3.9,-0.7 -5,1 -1.1,1.7 -0.7,3.9 1,5 1.7,1.1 3.9,0.6 5,-1 z M 677.8,74.3 c 1.1,-1.7 0.7,-3.9 -1,-5 -1.7,-1.1 -3.9,-0.7 -5,1 -1.1,1.7 -0.7,3.9 1,5 1.7,1.1 3.9,0.6 5,-1 z M 381.2,537.5 c 1.1,-1.7 0.7,-3.9 -1,-5 -1.7,-1.1 -3.9,-0.7 -5,1 -1.1,1.7 -0.7,3.9 1,5 1.7,1.1 3.9,0.6 5,-1 z m -83.1,-25.2 c 1.5,-1.3 1.7,-3.6 0.3,-5.1 -1.3,-1.5 -3.6,-1.7 -5.1,-0.3 -1.5,1.3 -1.7,3.6 -0.3,5.1 1.3,1.4 3.6,1.6 5.1,0.3 z m 235.8,66.9 c 1.5,-1.3 1.7,-3.6 0.3,-5.1 -1.3,-1.5 -3.6,-1.7 -5.1,-0.3 -1.5,1.3 -1.7,3.6 -0.3,5.1 1.4,1.4 3.6,1.6 5.1,0.3 z M 664.3,51.1 c 0.7,-1.1 0.4,-2.6 -0.7,-3.4 -1.1,-0.7 -2.6,-0.4 -3.4,0.7 -0.7,1.1 -0.4,2.6 0.7,3.4 1.1,0.7 2.6,0.4 3.4,-0.7 z m 152.9,184.1 c 0.7,-1.1 0.4,-2.6 -0.7,-3.4 -1.1,-0.8 -2.6,-0.4 -3.4,0.7 -0.7,1.1 -0.4,2.6 0.7,3.4 1.1,0.7 2.6,0.4 3.4,-0.7 z M 778,70.3 c 0.7,-1 0.4,-2.4 -0.6,-3.1 -1,-0.7 -2.4,-0.4 -3.1,0.6 -0.7,1 -0.4,2.4 0.6,3.1 1,0.7 2.4,0.4 3.1,-0.6 z M 541.3,271.2 c 0.9,-0.8 1,-2.2 0.2,-3.2 -0.8,-0.9 -2.2,-1 -3.2,-0.2 -0.9,0.8 -1,2.2 -0.2,3.2 0.8,0.9 2.3,1 3.2,0.2 z M 589.6,31.7 c 0.7,-1 0.4,-2.4 -0.6,-3.1 -1,-0.7 -2.4,-0.4 -3.1,0.6 -0.7,1 -0.4,2.4 0.6,3.1 1,0.7 2.4,0.4 3.1,-0.6 z m 233.9,92.8 c 0.7,-1 0.4,-2.4 -0.6,-3.1 -1,-0.7 -2.4,-0.4 -3.1,0.6 -0.7,1 -0.4,2.4 0.6,3.1 1,0.7 2.4,0.4 3.1,-0.6 z m -80.7,245.2 c -1.2,-0.6 -2.7,-0.1 -3.3,1.1 -0.6,1.2 -0.1,2.7 1.1,3.3 1.2,0.6 2.7,0.1 3.3,-1.1 0.6,-1.2 0.1,-2.7 -1.1,-3.3 z M 592.2,299.8 c -1.1,-0.6 -2.5,-0.1 -3,1 -0.5,1.1 -0.1,2.5 1,3 1.1,0.5 2.5,0.1 3,-1 0.6,-1.1 0.2,-2.5 -1,-3 z m 203.2,46.4 c -1.1,-0.6 -2.5,-0.1 -3,1 -0.5,1.1 -0.1,2.5 1,3 1.1,0.6 2.5,0.1 3,-1 0.6,-1.1 0.1,-2.4 -1,-3 z m -1.7,45.5 c -1.7,0.9 -2.4,3.1 -1.5,4.9 0.9,1.7 3.1,2.4 4.9,1.5 1.7,-0.9 2.4,-3.1 1.5,-4.9 -1,-1.8 -3.2,-2.4 -4.9,-1.5 z m -15.3,-36.1 c -1.7,0.9 -2.4,3.1 -1.5,4.9 0.9,1.7 3.1,2.4 4.9,1.5 1.8,-0.9 2.4,-3.1 1.5,-4.9 -1,-1.8 -3.2,-2.5 -4.9,-1.5 z m -3.1,32.6 c -1.1,0.6 -1.5,2 -0.9,3.1 0.6,1.1 2,1.5 3.1,0.9 1.1,-0.6 1.5,-2 0.9,-3.1 -0.6,-1.1 -2,-1.5 -3.1,-0.9 z m -64.5,-98.6 c 0.7,-1 0.4,-2.4 -0.6,-3.1 -1,-0.7 -2.4,-0.4 -3.1,0.6 -0.7,1 -0.4,2.4 0.6,3.1 1,0.7 2.4,0.5 3.1,-0.6 z m -187.6,16 c 0.9,-0.8 1,-2.2 0.2,-3.2 -0.8,-0.9 -2.2,-1 -3.2,-0.2 -0.9,0.8 -1,2.2 -0.2,3.2 0.8,0.9 2.2,1 3.2,0.2 z m 14.1,4.7 c 0.9,-0.8 1,-2.2 0.2,-3.2 -0.8,-1 -2.2,-1 -3.2,-0.2 -0.9,0.8 -1,2.2 -0.2,3.2 0.8,1 2.2,1.1 3.2,0.2 z m -418,286.4 c 2.2,2.3 5.8,2.4 8.2,0.3 2.3,-2.2 2.4,-5.8 0.3,-8.2 -2.2,-2.3 -5.8,-2.4 -8.2,-0.3 -2.3,2.3 -2.5,5.9 -0.3,8.2 z m -78.6,-2.8 c 0.9,1 2.5,1 3.4,0.1 1,-0.9 1,-2.5 0.1,-3.4 -0.9,-1 -2.5,-1 -3.4,-0.1 -1,0.8 -1.1,2.4 -0.1,3.4 z M 104,568.4 c 0.9,1 2.5,1 3.4,0.1 0.9,-0.9 1,-2.5 0.1,-3.4 -0.9,-1 -2.5,-1 -3.4,-0.1 -0.9,0.9 -1,2.4 -0.1,3.4 z M 85.1,553.5 c 1.4,1.4 3.6,1.5 5.1,0.2 1.4,-1.4 1.5,-3.6 0.2,-5.1 -1.4,-1.4 -3.6,-1.5 -5.1,-0.2 -1.5,1.3 -1.6,3.7 -0.2,5.1 z m 101.2,-12.7 c 1.4,1.4 3.6,1.5 5.1,0.2 1.5,-1.3 1.5,-3.6 0.2,-5.1 -1.4,-1.4 -3.6,-1.5 -5.1,-0.2 -1.5,1.4 -1.5,3.7 -0.2,5.1 z m -75.6,4.7 c 0.9,1 2.5,1 3.4,0.1 0.9,-0.9 1,-2.5 0.1,-3.4 -0.9,-1 -2.5,-1 -3.4,-0.1 -0.9,0.9 -1,2.5 -0.1,3.4 z M 174,517.2 c 0.9,0.9 2.3,1 3.2,0.1 0.9,-0.9 1,-2.3 0.1,-3.2 -0.9,-0.9 -2.3,-1 -3.2,-0.1 -0.9,0.8 -1,2.3 -0.1,3.2 z m -3.7,-114.1 c 2,-0.3 3.3,-2.1 3.1,-4.1 -0.3,-2 -2.1,-3.3 -4.1,-3.1 -2,0.2 -3.3,2.1 -3.1,4.1 0.3,2 2.1,3.4 4.1,3.1 z m -79.7,32.6 c 1.2,-0.2 2.1,-1.3 1.9,-2.5 -0.2,-1.2 -1.3,-2.1 -2.5,-1.9 -1.2,0.2 -2.1,1.3 -1.9,2.5 0.1,1.2 1.3,2.1 2.5,1.9 z m 9.2,11.7 c 1.2,-0.2 2.1,-1.3 1.9,-2.5 -0.2,-1.2 -1.3,-2.1 -2.5,-1.9 -1.2,0.2 -2.1,1.3 -1.9,2.5 0.2,1.2 1.3,2.1 2.5,1.9 z m 583.4,146.9 c 2,0.1 3.7,-1.4 3.8,-3.4 0.1,-2 -1.4,-3.7 -3.4,-3.8 -2,-0.1 -3.7,1.4 -3.8,3.4 -0.1,2 1.5,3.7 3.4,3.8 z M 658,585.7 c 1.2,0.1 2.3,-0.9 2.4,-2.1 0.1,-1.2 -0.9,-2.3 -2.1,-2.4 -1.2,-0.1 -2.3,0.9 -2.4,2.1 -0.1,1.3 0.8,2.4 2.1,2.4 z M 498.3,542 c 0.8,-1 0.6,-2.4 -0.4,-3.2 -1,-0.8 -2.4,-0.6 -3.2,0.4 -0.8,1 -0.6,2.4 0.4,3.2 1,0.8 2.5,0.5 3.2,-0.4 z m 156.8,139.1 c -1.3,-0.4 -2.6,0.4 -3,1.7 -0.4,1.3 0.4,2.6 1.7,3 1.3,0.4 2.6,-0.4 3,-1.7 0.3,-1.3 -0.5,-2.6 -1.7,-3 z M 549.4,672 c -1.2,-0.3 -2.5,0.4 -2.8,1.6 -0.3,1.2 0.4,2.5 1.6,2.8 1.2,0.3 2.5,-0.4 2.8,-1.6 0.3,-1.2 -0.4,-2.4 -1.6,-2.8 z m 153.1,-23.5 c -1.2,-0.3 -2.5,0.4 -2.8,1.6 -0.3,1.2 0.4,2.5 1.6,2.8 1.2,0.3 2.5,-0.4 2.8,-1.6 0.3,-1.2 -0.4,-2.4 -1.6,-2.8 z m 6.6,45.1 c -1.6,1.2 -1.8,3.5 -0.6,5.1 1.2,1.6 3.5,1.8 5.1,0.6 1.6,-1.2 1.8,-3.5 0.6,-5.1 -1.3,-1.6 -3.6,-1.9 -5.1,-0.6 z m -21.6,-32.8 c -1.6,1.2 -1.8,3.5 -0.6,5.1 1.2,1.6 3.5,1.8 5.1,0.6 1.6,-1.2 1.8,-3.5 0.6,-5.1 -1.3,-1.6 -3.6,-1.8 -5.1,-0.6 z m 2.8,32.6 c -1,0.8 -1.1,2.2 -0.4,3.2 0.8,1 2.2,1.1 3.2,0.4 1,-0.8 1.1,-2.2 0.4,-3.2 -0.8,-1 -2.2,-1.2 -3.2,-0.4 z m -230.9,-5.9 c 0.8,-1 0.6,-2.4 -0.4,-3.2 -1,-0.8 -2.4,-0.6 -3.2,0.4 -0.8,1 -0.6,2.4 0.4,3.2 1,0.8 2.5,0.6 3.2,-0.4 z m 14.8,2.1 c 0.8,-1 0.6,-2.4 -0.4,-3.2 -1,-0.8 -2.4,-0.6 -3.2,0.4 -0.8,1 -0.6,2.4 0.4,3.2 1,0.8 2.4,0.6 3.2,-0.4 z m 222.7,125.7 c -1.2,-0.3 -2.5,0.4 -2.8,1.6 -0.3,1.2 0.4,2.5 1.6,2.8 1.2,0.3 2.5,-0.4 2.8,-1.6 0.3,-1.2 -0.4,-2.4 -1.6,-2.8 z m -75.2,17.6 c 0.8,-1 0.6,-2.4 -0.4,-3.2 -1,-0.8 -2.4,-0.6 -3.2,0.4 -0.8,1 -0.6,2.4 0.4,3.2 1,0.8 2.4,0.6 3.2,-0.4 z M 210.2,665 c -1.7,-1 -3.9,-0.4 -4.9,1.3 -1,1.7 -0.4,3.9 1.3,4.9 1.7,1 3.9,0.4 4.9,-1.3 1,-1.7 0.5,-3.9 -1.3,-4.9 z m 18.6,19.2 c -1.1,-0.6 -2.5,-0.3 -3.1,0.8 -0.6,1.1 -0.3,2.5 0.8,3.1 1.1,0.6 2.5,0.3 3.1,-0.8 0.7,-1.1 0.3,-2.5 -0.8,-3.1 z m -104.5,23.9 c 1,0.9 2.5,0.9 3.4,-0.1 0.9,-1 0.9,-2.5 -0.1,-3.4 -1,-0.9 -2.5,-0.9 -3.4,0.1 -0.9,1 -0.9,2.5 0.1,3.4 z M 334,585.9 c 0.9,0.9 2.3,0.8 3.2,-0.1 0.9,-0.9 0.8,-2.3 -0.1,-3.2 -0.9,-0.9 -2.3,-0.8 -3.2,0.1 -0.8,0.9 -0.8,2.3 0.1,3.2 z m 31.3,-53.5 c 1.2,-0.3 2,-1.4 1.8,-2.7 -0.3,-1.2 -1.4,-2 -2.7,-1.8 -1.2,0.3 -2,1.4 -1.8,2.7 0.3,1.3 1.5,2.1 2.7,1.8 z m 376.1,328.2 c -1.1,0.5 -1.6,1.9 -1.1,3 0.5,1.1 1.9,1.6 3,1.1 1.1,-0.5 1.6,-1.9 1.1,-3 -0.5,-1.1 -1.8,-1.6 -3,-1.1 z M 729.3,852 c -1.1,0.5 -1.6,1.9 -1.1,3 0.5,1.1 1.9,1.6 3,1.1 1.1,-0.5 1.6,-1.9 1.1,-3 -0.6,-1.1 -1.9,-1.6 -3,-1.1 z M 230.6,578.8 c -1.3,-0.4 -2.6,0.3 -3,1.6 -0.4,1.3 0.3,2.6 1.6,3 1.3,0.4 2.6,-0.3 3,-1.6 0.5,-1.3 -0.3,-2.6 -1.6,-3 z m 222.3,64.5 c -1.6,1.2 -1.8,3.5 -0.6,5 1.2,1.6 3.5,1.8 5,0.6 1.6,-1.2 1.8,-3.5 0.6,-5 -1.2,-1.5 -3.4,-1.9 -5,-0.6 z M 385.6,511.9 c -1,0.8 -1.2,2.2 -0.4,3.2 0.8,1 2.2,1.2 3.2,0.4 1,-0.8 1.2,-2.2 0.4,-3.2 -0.8,-1 -2.3,-1.1 -3.2,-0.4 z M 277.5,645.8 c -1,0.8 -1.2,2.2 -0.4,3.2 0.8,1 2.2,1.2 3.2,0.4 1,-0.8 1.2,-2.2 0.4,-3.2 -0.8,-1 -2.2,-1.2 -3.2,-0.4 z m -13.8,-5.5 c -1,0.8 -1.2,2.2 -0.4,3.2 0.8,1 2.2,1.2 3.2,0.4 1,-0.8 1.2,-2.2 0.4,-3.2 -0.8,-1 -2.2,-1.2 -3.2,-0.4 z"
   id="path1112" />

</g>
    <g
       id="sterne-2"
       transform="translate(1129.35,-180.83613)">
	
		<linearGradient
   id="linearGradient2243"
   gradientUnits="userSpaceOnUse"
   x1="426.83249"
   y1="17.7253"
   x2="426.83249"
   y2="864.94379">
		<stop
   offset="0"
   style="stop-color:#86C2EB"
   id="stop1725-7" />

		<stop
   offset="1"
   style="stop-color:#1D71B8"
   id="stop1727-0" />

	</linearGradient>

	<path
   style="fill:url(#SVGID_00000049215672759932768630000001529053474238166923_-2)"
   d="m 159,283.5 c 0,2.7 -2.2,4.9 -4.9,4.9 -2.7,0 -4.9,-2.2 -4.9,-4.9 0,-2.7 2.2,-4.9 4.9,-4.9 2.7,0 4.9,2.2 4.9,4.9 z m 29.8,-97.6 c -2,0 -3.7,1.7 -3.7,3.7 0,2 1.7,3.7 3.7,3.7 2,0 3.7,-1.7 3.7,-3.7 0,-2.1 -1.6,-3.7 -3.7,-3.7 z M 264.3,56.1 c -1.3,0 -2.4,1.1 -2.4,2.4 0,1.3 1.1,2.4 2.4,2.4 1.3,0 2.4,-1.1 2.4,-2.4 0,-1.3 -1.1,-2.4 -2.4,-2.4 z m -110.2,5.5 c -2,0 -3.6,1.6 -3.6,3.6 0,2 1.6,3.6 3.6,3.6 2,0 3.6,-1.6 3.6,-3.6 0,-2 -1.6,-3.6 -3.6,-3.6 z m 47.2,365.9 c -2,0 -3.6,1.6 -3.6,3.6 0,2 1.6,3.6 3.6,3.6 2,0 3.6,-1.6 3.6,-3.6 0,-2 -1.6,-3.6 -3.6,-3.6 z m -43.6,-405 c -2,0 -3.6,1.6 -3.6,3.6 0,2 1.6,3.6 3.6,3.6 2,0 3.6,-1.6 3.6,-3.6 0,-2 -1.6,-3.6 -3.6,-3.6 z m 50.8,279.4 c -2,0 -3.6,1.6 -3.6,3.6 0,2 1.6,3.6 3.6,3.6 2,0 3.6,-1.6 3.6,-3.6 0,-2 -1.6,-3.6 -3.6,-3.6 z M 29.7,118.1 c -2,0 -3.6,1.6 -3.6,3.6 0,2 1.6,3.6 3.6,3.6 2,0 3.6,-1.6 3.6,-3.6 0,-2 -1.6,-3.6 -3.6,-3.6 z M 252,49.6 c -1.3,0 -2.4,1.1 -2.4,2.4 0,1.3 1.1,2.4 2.4,2.4 1.3,0 2.4,-1.1 2.4,-2.4 0,-1.3 -1.1,-2.4 -2.4,-2.4 z m -34.5,17.1 c -1.2,0 -2.3,1 -2.3,2.3 0,1.2 1,2.3 2.3,2.3 1.2,0 2.3,-1 2.3,-2.3 -0.1,-1.3 -1.1,-2.3 -2.3,-2.3 z M 42.3,237.1 c -1.2,0 -2.3,1 -2.3,2.3 0,1.2 1,2.3 2.3,2.3 1.2,0 2.3,-1 2.3,-2.3 0,-1.3 -1,-2.3 -2.3,-2.3 z m 191.8,72 c -1.2,0 -2.3,1 -2.3,2.3 0,1.2 1,2.3 2.3,2.3 1.2,0 2.3,-1 2.3,-2.3 0,-1.3 -1,-2.3 -2.3,-2.3 z M 38.8,37.6 c -2,0 -3.6,1.6 -3.6,3.6 0,2 1.6,3.6 3.6,3.6 2,0 3.6,-1.6 3.6,-3.6 0,-2 -1.6,-3.6 -3.6,-3.6 z m 25.6,7.2 c -1.2,0 -2.3,1 -2.3,2.3 0,1.3 1,2.3 2.3,2.3 1.2,0 2.3,-1 2.3,-2.3 0,-1.3 -1,-2.3 -2.3,-2.3 z m 75.2,5 c -1.2,0 -2.3,1 -2.3,2.3 0,1.2 1,2.3 2.3,2.3 1.2,0 2.3,-1 2.3,-2.3 0,-1.3 -1,-2.3 -2.3,-2.3 z M 39.7,168 c -1.2,0 -2.3,1 -2.3,2.3 0,1.3 1,2.3 2.3,2.3 1.2,0 2.3,-1 2.3,-2.3 0,-1.3 -1.1,-2.3 -2.3,-2.3 z m -7.5,-12.9 c -1.2,0 -2.3,1 -2.3,2.3 0,1.2 1,2.3 2.3,2.3 1.2,0 2.3,-1 2.3,-2.3 -0.1,-1.3 -1.1,-2.3 -2.3,-2.3 z m 278.5,58.2 c -1.6,2.2 -1,5.2 1.1,6.8 2.2,1.6 5.2,1 6.8,-1.1 1.6,-2.2 1,-5.2 -1.1,-6.8 -2.2,-1.6 -5.3,-1 -6.8,1.1 z M 412.5,172 c -1.7,2.4 -1.2,5.8 1.3,7.6 2.4,1.7 5.8,1.2 7.6,-1.3 1.7,-2.4 1.2,-5.8 -1.3,-7.6 -2.5,-1.7 -5.9,-1.1 -7.6,1.3 z m 4.7,-80.5 c -0.8,1.1 -0.5,2.6 0.6,3.4 1.1,0.8 2.6,0.5 3.4,-0.6 0.8,-1.1 0.5,-2.6 -0.6,-3.4 -1.1,-0.8 -2.7,-0.5 -3.4,0.6 z m -53,-72.8 c -0.8,1.1 -0.5,2.6 0.6,3.4 1.1,0.8 2.6,0.5 3.4,-0.6 0.8,-1.1 0.5,-2.6 -0.6,-3.4 -1.1,-0.7 -2.6,-0.4 -3.4,0.6 z m 83.1,146.7 c -0.8,1.1 -0.5,2.6 0.6,3.4 1.1,0.8 2.6,0.5 3.4,-0.6 0.8,-1.1 0.5,-2.6 -0.6,-3.4 -1.1,-0.8 -2.6,-0.5 -3.4,0.6 z M 55.7,839.8 c -1.2,1.6 -0.8,3.9 0.8,5 1.6,1.1 3.9,0.8 5,-0.8 1.1,-1.6 0.8,-3.9 -0.8,-5 -1.6,-1.1 -3.9,-0.9 -5,0.8 z M 323.3,63.1 c -1.2,1.6 -0.8,3.9 0.8,5 1.6,1.2 3.9,0.8 5,-0.8 1.1,-1.6 0.8,-3.9 -0.8,-5 -1.6,-1.2 -3.9,-0.8 -5,0.8 z m 202.2,151.3 c -1.2,1.6 -0.8,3.9 0.8,5 1.6,1.2 3.9,0.8 5,-0.8 1.1,-1.6 0.8,-3.9 -0.8,-5 -1.6,-1.2 -3.9,-0.9 -5,0.8 z m -235.6,56.4 c -1.2,1.6 -0.8,3.9 0.8,5 1.6,1.2 3.9,0.8 5,-0.8 1.1,-1.6 0.8,-3.9 -0.8,-5 -1.6,-1.2 -3.8,-0.8 -5,0.8 z M 351.7,25 c -0.8,1.1 -0.5,2.6 0.6,3.4 1.1,0.8 2.6,0.5 3.4,-0.6 0.8,-1.1 0.5,-2.6 -0.6,-3.4 -1.1,-0.7 -2.6,-0.5 -3.4,0.6 z m -37.4,157.2 c -0.7,1 -0.5,2.4 0.5,3.2 1,0.7 2.4,0.5 3.2,-0.5 0.7,-1 0.5,-2.4 -0.5,-3.2 -1.1,-0.7 -2.5,-0.5 -3.2,0.5 z m 81.6,140 c -0.7,1 -0.5,2.4 0.5,3.2 1,0.8 2.4,0.5 3.2,-0.5 0.7,-1 0.5,-2.4 -0.5,-3.2 -1,-0.8 -2.4,-0.5 -3.2,0.5 z M 546.2,197.6 c -0.7,1 -0.5,2.4 0.5,3.2 1,0.8 2.4,0.5 3.2,-0.5 0.7,-1 0.5,-2.4 -0.5,-3.2 -1.1,-0.8 -2.5,-0.5 -3.2,0.5 z m -397.6,144 c 1.3,0.3 2.6,-0.5 2.9,-1.8 0.3,-1.3 -0.5,-2.6 -1.8,-2.9 -1.3,-0.3 -2.6,0.5 -2.9,1.8 -0.3,1.3 0.5,2.6 1.8,2.9 z M 280,398.1 c 1.2,0.3 2.4,-0.5 2.7,-1.7 0.3,-1.2 -0.5,-2.4 -1.7,-2.7 -1.2,-0.3 -2.4,0.5 -2.7,1.7 -0.3,1.2 0.5,2.4 1.7,2.7 z M 103,376.7 c 1.2,0.3 2.4,-0.5 2.7,-1.7 0.3,-1.2 -0.5,-2.4 -1.7,-2.7 -1.2,-0.3 -2.4,0.5 -2.7,1.7 -0.3,1.2 0.5,2.4 1.7,2.7 z m -9,-44.6 c 1.5,-1.3 1.6,-3.6 0.3,-5.1 -1.3,-1.5 -3.6,-1.6 -5.1,-0.3 -1.5,1.3 -1.6,3.6 -0.3,5.1 1.4,1.4 3.6,1.6 5.1,0.3 z m 23.4,31.5 c 1.5,-1.3 1.6,-3.6 0.3,-5.1 -1.3,-1.5 -3.6,-1.6 -5.1,-0.3 -1.5,1.3 -1.6,3.6 -0.3,5.1 1.3,1.5 3.6,1.6 5.1,0.3 z m 424.5,55.3 c 1.2,0.3 2.4,-0.5 2.7,-1.7 0.3,-1.2 -0.5,-2.4 -1.7,-2.7 -1.2,-0.3 -2.4,0.5 -2.7,1.7 -0.3,1.2 0.5,2.4 1.7,2.7 z m 14.4,-13.1 c 1.5,-1.3 1.6,-3.6 0.3,-5.1 -1.3,-1.5 -3.6,-1.6 -5.1,-0.3 -1.5,1.3 -1.6,3.6 -0.3,5.1 1.3,1.5 3.6,1.7 5.1,0.3 z M 112.7,331.2 c 0.9,-0.8 1,-2.3 0.2,-3.2 -0.8,-0.9 -2.3,-1 -3.2,-0.2 -0.9,0.8 -1,2.3 -0.2,3.2 0.9,1 2.3,1 3.2,0.2 z M 402.2,35.9 c -0.7,1 -0.5,2.4 0.5,3.2 1,0.7 2.4,0.5 3.2,-0.5 0.7,-1 0.5,-2.4 -0.5,-3.2 -1,-0.8 -2.4,-0.6 -3.2,0.5 z m -51.6,246.3 c -0.7,1 -0.5,2.4 0.5,3.2 1,0.7 2.4,0.5 3.2,-0.5 0.7,-1 0.5,-2.4 -0.5,-3.2 -1.1,-0.8 -2.5,-0.5 -3.2,0.5 z m -14.8,-1.3 c -0.7,1 -0.5,2.4 0.5,3.2 1,0.7 2.4,0.5 3.2,-0.5 0.8,-1 0.5,-2.4 -0.5,-3.2 -1.1,-0.8 -2.5,-0.5 -3.2,0.5 z M 518.4,53.6 c -0.7,1 -0.5,2.4 0.5,3.2 1,0.7 2.4,0.5 3.2,-0.5 0.7,-1 0.5,-2.4 -0.5,-3.2 -1.1,-0.7 -2.5,-0.5 -3.2,0.5 z m -14.9,-1.3 c -0.7,1 -0.5,2.4 0.5,3.2 1,0.7 2.4,0.5 3.2,-0.5 0.8,-1 0.5,-2.4 -0.5,-3.2 -1,-0.7 -2.4,-0.5 -3.2,0.5 z M 743,590.8 c 2.6,0.6 5.2,-1 5.9,-3.6 0.6,-2.6 -1,-5.2 -3.6,-5.9 -2.6,-0.6 -5.2,1 -5.9,3.6 -0.6,2.6 1,5.3 3.6,5.9 z m -46.5,-43.2 c 2.3,0.5 4.6,-0.9 5.1,-3.1 0.5,-2.3 -0.9,-4.6 -3.1,-5.1 -2.3,-0.5 -4.6,0.9 -5.1,3.1 -0.6,2.3 0.8,4.6 3.1,5.1 z m -122.6,7.6 c 1.3,0.3 2.6,-0.5 2.9,-1.8 0.3,-1.3 -0.5,-2.6 -1.8,-2.9 -1.3,-0.3 -2.6,0.5 -2.9,1.8 -0.3,1.3 0.5,2.6 1.8,2.9 z m -180.6,45 c 1.3,0 2.4,-1.2 2.4,-2.5 0,-1.3 -1.2,-2.4 -2.5,-2.4 -1.3,0 -2.4,1.2 -2.4,2.5 0,1.3 1.2,2.4 2.5,2.4 z m 249,-117.5 c 1.3,0.3 2.6,-0.5 2.9,-1.8 0.3,-1.3 -0.5,-2.6 -1.8,-2.9 -1.3,-0.3 -2.6,0.5 -2.9,1.8 -0.3,1.3 0.5,2.6 1.8,2.9 z m -64,-2.1 c 1.9,0.5 3.9,-0.7 4.3,-2.7 0.5,-1.9 -0.7,-3.9 -2.7,-4.3 -1.9,-0.5 -3.9,0.7 -4.3,2.7 -0.4,1.9 0.8,3.9 2.7,4.3 z M 148.6,780.4 c -1.9,-0.6 -3.9,0.5 -4.5,2.4 -0.6,1.9 0.5,3.9 2.4,4.5 1.9,0.6 3.9,-0.5 4.5,-2.4 0.6,-1.9 -0.5,-3.9 -2.4,-4.5 z M 682.6,431 c 1.9,0.5 3.9,-0.7 4.3,-2.7 0.5,-1.9 -0.7,-3.9 -2.7,-4.3 -1.9,-0.5 -3.9,0.7 -4.3,2.7 -0.4,1.9 0.8,3.8 2.7,4.3 z m 117.9,188.7 c 1.9,0.5 3.9,-0.7 4.3,-2.7 0.5,-1.9 -0.7,-3.9 -2.7,-4.3 -2,-0.4 -3.9,0.7 -4.3,2.7 -0.4,2 0.8,3.8 2.7,4.3 z M 595.4,459.9 c 1.3,0.3 2.6,-0.5 2.9,-1.8 0.3,-1.3 -0.5,-2.6 -1.8,-2.9 -1.3,-0.3 -2.6,0.5 -2.9,1.8 -0.3,1.3 0.5,2.6 1.8,2.9 z M 405.9,606.4 c 1.3,0 2.4,-1.2 2.4,-2.5 0,-1.3 -1.2,-2.4 -2.5,-2.4 -1.3,0 -2.4,1.2 -2.4,2.5 0,1.3 1.1,2.4 2.5,2.4 z M 712.8,599 c 1.2,0.3 2.4,-0.5 2.7,-1.7 0.3,-1.2 -0.5,-2.4 -1.7,-2.7 -1.2,-0.3 -2.4,0.5 -2.7,1.7 -0.2,1.2 0.5,2.5 1.7,2.7 z m 101.1,-89.3 c 1.2,0.3 2.4,-0.5 2.7,-1.7 0.3,-1.2 -0.5,-2.4 -1.7,-2.7 -1.2,-0.3 -2.4,0.5 -2.7,1.7 -0.2,1.2 0.5,2.4 1.7,2.7 z M 659.3,418 c 1.2,0.3 2.4,-0.5 2.7,-1.7 0.3,-1.2 -0.5,-2.4 -1.7,-2.7 -1.2,-0.3 -2.4,0.5 -2.7,1.7 -0.3,1.2 0.5,2.4 1.7,2.7 z M 45.4,744.7 c -1.2,-0.4 -2.5,0.3 -2.8,1.5 -0.4,1.2 0.3,2.5 1.5,2.8 1.2,0.4 2.5,-0.3 2.8,-1.5 0.4,-1.2 -0.3,-2.5 -1.5,-2.8 z m 78.1,56.6 c -1.2,-0.4 -2.5,0.3 -2.8,1.5 -0.4,1.2 0.3,2.5 1.5,2.8 1.2,0.4 2.5,-0.3 2.8,-1.5 0.3,-1.2 -0.4,-2.4 -1.5,-2.8 z M 825.4,171 c 1.2,0 2.2,-1.1 2.2,-2.3 0,-1.2 -1.1,-2.2 -2.3,-2.2 -1.2,0 -2.2,1.1 -2.2,2.3 0,1.2 1,2.2 2.3,2.2 z m -31.7,395.7 c 1.2,0.3 2.4,-0.5 2.7,-1.7 0.3,-1.2 -0.5,-2.4 -1.7,-2.7 -1.2,-0.3 -2.4,0.5 -2.7,1.7 -0.2,1.2 0.5,2.4 1.7,2.7 z m 4.3,14.2 c 1.2,0.3 2.4,-0.5 2.7,-1.7 0.3,-1.2 -0.5,-2.4 -1.7,-2.7 -1.2,-0.3 -2.4,0.5 -2.7,1.7 -0.2,1.2 0.5,2.4 1.7,2.7 z M 792.8,39 c 1.5,-2.2 0.9,-5.3 -1.3,-6.7 -2.2,-1.5 -5.3,-0.9 -6.7,1.3 -1.5,2.2 -0.9,5.3 1.3,6.7 2.2,1.6 5.2,1 6.7,-1.3 z M 636.5,175.5 c 1.6,-2.4 1,-5.8 -1.5,-7.4 -2.5,-1.6 -5.8,-1 -7.4,1.5 -1.6,2.4 -1,5.8 1.5,7.4 2.5,1.6 5.8,0.9 7.4,-1.5 z m 57.8,-5.2 c 0.7,-1.1 0.4,-2.6 -0.7,-3.4 -1.1,-0.7 -2.6,-0.4 -3.4,0.7 -0.7,1.1 -0.4,2.6 0.7,3.4 1.1,0.8 2.7,0.5 3.4,-0.7 z m 110.6,71.5 c 0.7,-1.1 0.4,-2.6 -0.7,-3.4 -1.1,-0.7 -2.6,-0.4 -3.4,0.7 -0.8,1.1 -0.4,2.6 0.7,3.4 1.1,0.7 2.6,0.4 3.4,-0.7 z M 688.1,52.5 c 0.7,-1.1 0.4,-2.6 -0.7,-3.4 -1.1,-0.7 -2.6,-0.4 -3.4,0.7 -0.7,1.1 -0.4,2.6 0.7,3.4 1.1,0.7 2.6,0.4 3.4,-0.7 z M 805.5,130 c 1.1,-1.7 0.7,-3.9 -1,-5 -1.7,-1.1 -3.9,-0.7 -5,1 -1.1,1.7 -0.7,3.9 1,5 1.7,1.1 3.9,0.6 5,-1 z M 677.8,74.3 c 1.1,-1.7 0.7,-3.9 -1,-5 -1.7,-1.1 -3.9,-0.7 -5,1 -1.1,1.7 -0.7,3.9 1,5 1.7,1.1 3.9,0.6 5,-1 z M 381.2,537.5 c 1.1,-1.7 0.7,-3.9 -1,-5 -1.7,-1.1 -3.9,-0.7 -5,1 -1.1,1.7 -0.7,3.9 1,5 1.7,1.1 3.9,0.6 5,-1 z m -83.1,-25.2 c 1.5,-1.3 1.7,-3.6 0.3,-5.1 -1.3,-1.5 -3.6,-1.7 -5.1,-0.3 -1.5,1.3 -1.7,3.6 -0.3,5.1 1.3,1.4 3.6,1.6 5.1,0.3 z m 235.8,66.9 c 1.5,-1.3 1.7,-3.6 0.3,-5.1 -1.3,-1.5 -3.6,-1.7 -5.1,-0.3 -1.5,1.3 -1.7,3.6 -0.3,5.1 1.4,1.4 3.6,1.6 5.1,0.3 z M 664.3,51.1 c 0.7,-1.1 0.4,-2.6 -0.7,-3.4 -1.1,-0.7 -2.6,-0.4 -3.4,0.7 -0.7,1.1 -0.4,2.6 0.7,3.4 1.1,0.7 2.6,0.4 3.4,-0.7 z m 152.9,184.1 c 0.7,-1.1 0.4,-2.6 -0.7,-3.4 -1.1,-0.8 -2.6,-0.4 -3.4,0.7 -0.7,1.1 -0.4,2.6 0.7,3.4 1.1,0.7 2.6,0.4 3.4,-0.7 z M 778,70.3 c 0.7,-1 0.4,-2.4 -0.6,-3.1 -1,-0.7 -2.4,-0.4 -3.1,0.6 -0.7,1 -0.4,2.4 0.6,3.1 1,0.7 2.4,0.4 3.1,-0.6 z M 541.3,271.2 c 0.9,-0.8 1,-2.2 0.2,-3.2 -0.8,-0.9 -2.2,-1 -3.2,-0.2 -0.9,0.8 -1,2.2 -0.2,3.2 0.8,0.9 2.3,1 3.2,0.2 z M 589.6,31.7 c 0.7,-1 0.4,-2.4 -0.6,-3.1 -1,-0.7 -2.4,-0.4 -3.1,0.6 -0.7,1 -0.4,2.4 0.6,3.1 1,0.7 2.4,0.4 3.1,-0.6 z m 233.9,92.8 c 0.7,-1 0.4,-2.4 -0.6,-3.1 -1,-0.7 -2.4,-0.4 -3.1,0.6 -0.7,1 -0.4,2.4 0.6,3.1 1,0.7 2.4,0.4 3.1,-0.6 z m -80.7,245.2 c -1.2,-0.6 -2.7,-0.1 -3.3,1.1 -0.6,1.2 -0.1,2.7 1.1,3.3 1.2,0.6 2.7,0.1 3.3,-1.1 0.6,-1.2 0.1,-2.7 -1.1,-3.3 z M 592.2,299.8 c -1.1,-0.6 -2.5,-0.1 -3,1 -0.5,1.1 -0.1,2.5 1,3 1.1,0.5 2.5,0.1 3,-1 0.6,-1.1 0.2,-2.5 -1,-3 z m 203.2,46.4 c -1.1,-0.6 -2.5,-0.1 -3,1 -0.5,1.1 -0.1,2.5 1,3 1.1,0.6 2.5,0.1 3,-1 0.6,-1.1 0.1,-2.4 -1,-3 z m -1.7,45.5 c -1.7,0.9 -2.4,3.1 -1.5,4.9 0.9,1.7 3.1,2.4 4.9,1.5 1.7,-0.9 2.4,-3.1 1.5,-4.9 -1,-1.8 -3.2,-2.4 -4.9,-1.5 z m -15.3,-36.1 c -1.7,0.9 -2.4,3.1 -1.5,4.9 0.9,1.7 3.1,2.4 4.9,1.5 1.8,-0.9 2.4,-3.1 1.5,-4.9 -1,-1.8 -3.2,-2.5 -4.9,-1.5 z m -3.1,32.6 c -1.1,0.6 -1.5,2 -0.9,3.1 0.6,1.1 2,1.5 3.1,0.9 1.1,-0.6 1.5,-2 0.9,-3.1 -0.6,-1.1 -2,-1.5 -3.1,-0.9 z m -64.5,-98.6 c 0.7,-1 0.4,-2.4 -0.6,-3.1 -1,-0.7 -2.4,-0.4 -3.1,0.6 -0.7,1 -0.4,2.4 0.6,3.1 1,0.7 2.4,0.5 3.1,-0.6 z m -187.6,16 c 0.9,-0.8 1,-2.2 0.2,-3.2 -0.8,-0.9 -2.2,-1 -3.2,-0.2 -0.9,0.8 -1,2.2 -0.2,3.2 0.8,0.9 2.2,1 3.2,0.2 z m 14.1,4.7 c 0.9,-0.8 1,-2.2 0.2,-3.2 -0.8,-1 -2.2,-1 -3.2,-0.2 -0.9,0.8 -1,2.2 -0.2,3.2 0.8,1 2.2,1.1 3.2,0.2 z m -418,286.4 c 2.2,2.3 5.8,2.4 8.2,0.3 2.3,-2.2 2.4,-5.8 0.3,-8.2 -2.2,-2.3 -5.8,-2.4 -8.2,-0.3 -2.3,2.3 -2.5,5.9 -0.3,8.2 z m -78.6,-2.8 c 0.9,1 2.5,1 3.4,0.1 1,-0.9 1,-2.5 0.1,-3.4 -0.9,-1 -2.5,-1 -3.4,-0.1 -1,0.8 -1.1,2.4 -0.1,3.4 z M 104,568.4 c 0.9,1 2.5,1 3.4,0.1 0.9,-0.9 1,-2.5 0.1,-3.4 -0.9,-1 -2.5,-1 -3.4,-0.1 -0.9,0.9 -1,2.4 -0.1,3.4 z M 85.1,553.5 c 1.4,1.4 3.6,1.5 5.1,0.2 1.4,-1.4 1.5,-3.6 0.2,-5.1 -1.4,-1.4 -3.6,-1.5 -5.1,-0.2 -1.5,1.3 -1.6,3.7 -0.2,5.1 z m 101.2,-12.7 c 1.4,1.4 3.6,1.5 5.1,0.2 1.5,-1.3 1.5,-3.6 0.2,-5.1 -1.4,-1.4 -3.6,-1.5 -5.1,-0.2 -1.5,1.4 -1.5,3.7 -0.2,5.1 z m -75.6,4.7 c 0.9,1 2.5,1 3.4,0.1 0.9,-0.9 1,-2.5 0.1,-3.4 -0.9,-1 -2.5,-1 -3.4,-0.1 -0.9,0.9 -1,2.5 -0.1,3.4 z M 174,517.2 c 0.9,0.9 2.3,1 3.2,0.1 0.9,-0.9 1,-2.3 0.1,-3.2 -0.9,-0.9 -2.3,-1 -3.2,-0.1 -0.9,0.8 -1,2.3 -0.1,3.2 z m -3.7,-114.1 c 2,-0.3 3.3,-2.1 3.1,-4.1 -0.3,-2 -2.1,-3.3 -4.1,-3.1 -2,0.2 -3.3,2.1 -3.1,4.1 0.3,2 2.1,3.4 4.1,3.1 z m -79.7,32.6 c 1.2,-0.2 2.1,-1.3 1.9,-2.5 -0.2,-1.2 -1.3,-2.1 -2.5,-1.9 -1.2,0.2 -2.1,1.3 -1.9,2.5 0.1,1.2 1.3,2.1 2.5,1.9 z m 9.2,11.7 c 1.2,-0.2 2.1,-1.3 1.9,-2.5 -0.2,-1.2 -1.3,-2.1 -2.5,-1.9 -1.2,0.2 -2.1,1.3 -1.9,2.5 0.2,1.2 1.3,2.1 2.5,1.9 z m 583.4,146.9 c 2,0.1 3.7,-1.4 3.8,-3.4 0.1,-2 -1.4,-3.7 -3.4,-3.8 -2,-0.1 -3.7,1.4 -3.8,3.4 -0.1,2 1.5,3.7 3.4,3.8 z M 658,585.7 c 1.2,0.1 2.3,-0.9 2.4,-2.1 0.1,-1.2 -0.9,-2.3 -2.1,-2.4 -1.2,-0.1 -2.3,0.9 -2.4,2.1 -0.1,1.3 0.8,2.4 2.1,2.4 z M 498.3,542 c 0.8,-1 0.6,-2.4 -0.4,-3.2 -1,-0.8 -2.4,-0.6 -3.2,0.4 -0.8,1 -0.6,2.4 0.4,3.2 1,0.8 2.5,0.5 3.2,-0.4 z m 156.8,139.1 c -1.3,-0.4 -2.6,0.4 -3,1.7 -0.4,1.3 0.4,2.6 1.7,3 1.3,0.4 2.6,-0.4 3,-1.7 0.3,-1.3 -0.5,-2.6 -1.7,-3 z M 549.4,672 c -1.2,-0.3 -2.5,0.4 -2.8,1.6 -0.3,1.2 0.4,2.5 1.6,2.8 1.2,0.3 2.5,-0.4 2.8,-1.6 0.3,-1.2 -0.4,-2.4 -1.6,-2.8 z m 153.1,-23.5 c -1.2,-0.3 -2.5,0.4 -2.8,1.6 -0.3,1.2 0.4,2.5 1.6,2.8 1.2,0.3 2.5,-0.4 2.8,-1.6 0.3,-1.2 -0.4,-2.4 -1.6,-2.8 z m 6.6,45.1 c -1.6,1.2 -1.8,3.5 -0.6,5.1 1.2,1.6 3.5,1.8 5.1,0.6 1.6,-1.2 1.8,-3.5 0.6,-5.1 -1.3,-1.6 -3.6,-1.9 -5.1,-0.6 z m -21.6,-32.8 c -1.6,1.2 -1.8,3.5 -0.6,5.1 1.2,1.6 3.5,1.8 5.1,0.6 1.6,-1.2 1.8,-3.5 0.6,-5.1 -1.3,-1.6 -3.6,-1.8 -5.1,-0.6 z m 2.8,32.6 c -1,0.8 -1.1,2.2 -0.4,3.2 0.8,1 2.2,1.1 3.2,0.4 1,-0.8 1.1,-2.2 0.4,-3.2 -0.8,-1 -2.2,-1.2 -3.2,-0.4 z m -230.9,-5.9 c 0.8,-1 0.6,-2.4 -0.4,-3.2 -1,-0.8 -2.4,-0.6 -3.2,0.4 -0.8,1 -0.6,2.4 0.4,3.2 1,0.8 2.5,0.6 3.2,-0.4 z m 14.8,2.1 c 0.8,-1 0.6,-2.4 -0.4,-3.2 -1,-0.8 -2.4,-0.6 -3.2,0.4 -0.8,1 -0.6,2.4 0.4,3.2 1,0.8 2.4,0.6 3.2,-0.4 z m 222.7,125.7 c -1.2,-0.3 -2.5,0.4 -2.8,1.6 -0.3,1.2 0.4,2.5 1.6,2.8 1.2,0.3 2.5,-0.4 2.8,-1.6 0.3,-1.2 -0.4,-2.4 -1.6,-2.8 z m -75.2,17.6 c 0.8,-1 0.6,-2.4 -0.4,-3.2 -1,-0.8 -2.4,-0.6 -3.2,0.4 -0.8,1 -0.6,2.4 0.4,3.2 1,0.8 2.4,0.6 3.2,-0.4 z M 210.2,665 c -1.7,-1 -3.9,-0.4 -4.9,1.3 -1,1.7 -0.4,3.9 1.3,4.9 1.7,1 3.9,0.4 4.9,-1.3 1,-1.7 0.5,-3.9 -1.3,-4.9 z m 18.6,19.2 c -1.1,-0.6 -2.5,-0.3 -3.1,0.8 -0.6,1.1 -0.3,2.5 0.8,3.1 1.1,0.6 2.5,0.3 3.1,-0.8 0.7,-1.1 0.3,-2.5 -0.8,-3.1 z m -104.5,23.9 c 1,0.9 2.5,0.9 3.4,-0.1 0.9,-1 0.9,-2.5 -0.1,-3.4 -1,-0.9 -2.5,-0.9 -3.4,0.1 -0.9,1 -0.9,2.5 0.1,3.4 z M 334,585.9 c 0.9,0.9 2.3,0.8 3.2,-0.1 0.9,-0.9 0.8,-2.3 -0.1,-3.2 -0.9,-0.9 -2.3,-0.8 -3.2,0.1 -0.8,0.9 -0.8,2.3 0.1,3.2 z m 31.3,-53.5 c 1.2,-0.3 2,-1.4 1.8,-2.7 -0.3,-1.2 -1.4,-2 -2.7,-1.8 -1.2,0.3 -2,1.4 -1.8,2.7 0.3,1.3 1.5,2.1 2.7,1.8 z m 376.1,328.2 c -1.1,0.5 -1.6,1.9 -1.1,3 0.5,1.1 1.9,1.6 3,1.1 1.1,-0.5 1.6,-1.9 1.1,-3 -0.5,-1.1 -1.8,-1.6 -3,-1.1 z M 729.3,852 c -1.1,0.5 -1.6,1.9 -1.1,3 0.5,1.1 1.9,1.6 3,1.1 1.1,-0.5 1.6,-1.9 1.1,-3 -0.6,-1.1 -1.9,-1.6 -3,-1.1 z M 230.6,578.8 c -1.3,-0.4 -2.6,0.3 -3,1.6 -0.4,1.3 0.3,2.6 1.6,3 1.3,0.4 2.6,-0.3 3,-1.6 0.5,-1.3 -0.3,-2.6 -1.6,-3 z m 222.3,64.5 c -1.6,1.2 -1.8,3.5 -0.6,5 1.2,1.6 3.5,1.8 5,0.6 1.6,-1.2 1.8,-3.5 0.6,-5 -1.2,-1.5 -3.4,-1.9 -5,-0.6 z M 385.6,511.9 c -1,0.8 -1.2,2.2 -0.4,3.2 0.8,1 2.2,1.2 3.2,0.4 1,-0.8 1.2,-2.2 0.4,-3.2 -0.8,-1 -2.3,-1.1 -3.2,-0.4 z M 277.5,645.8 c -1,0.8 -1.2,2.2 -0.4,3.2 0.8,1 2.2,1.2 3.2,0.4 1,-0.8 1.2,-2.2 0.4,-3.2 -0.8,-1 -2.2,-1.2 -3.2,-0.4 z m -13.8,-5.5 c -1,0.8 -1.2,2.2 -0.4,3.2 0.8,1 2.2,1.2 3.2,0.4 1,-0.8 1.2,-2.2 0.4,-3.2 -0.8,-1 -2.2,-1.2 -3.2,-0.4 z"
   id="path1112-9" />

</g>
    <g
       id="sterne-5"
       transform="translate(-473.64999,-180.83613)">
	
		<linearGradient
   id="linearGradient2188"
   gradientUnits="userSpaceOnUse"
   x1="426.83249"
   y1="17.7253"
   x2="426.83249"
   y2="864.94379">
		<stop
   offset="0"
   style="stop-color:#86C2EB"
   id="stop1725-3" />

		<stop
   offset="1"
   style="stop-color:#1D71B8"
   id="stop1727-5" />

	</linearGradient>

	<path
   style="fill:url(#SVGID_00000049215672759932768630000001529053474238166923_-3)"
   d="m 159,283.5 c 0,2.7 -2.2,4.9 -4.9,4.9 -2.7,0 -4.9,-2.2 -4.9,-4.9 0,-2.7 2.2,-4.9 4.9,-4.9 2.7,0 4.9,2.2 4.9,4.9 z m 29.8,-97.6 c -2,0 -3.7,1.7 -3.7,3.7 0,2 1.7,3.7 3.7,3.7 2,0 3.7,-1.7 3.7,-3.7 0,-2.1 -1.6,-3.7 -3.7,-3.7 z M 264.3,56.1 c -1.3,0 -2.4,1.1 -2.4,2.4 0,1.3 1.1,2.4 2.4,2.4 1.3,0 2.4,-1.1 2.4,-2.4 0,-1.3 -1.1,-2.4 -2.4,-2.4 z m -110.2,5.5 c -2,0 -3.6,1.6 -3.6,3.6 0,2 1.6,3.6 3.6,3.6 2,0 3.6,-1.6 3.6,-3.6 0,-2 -1.6,-3.6 -3.6,-3.6 z m 47.2,365.9 c -2,0 -3.6,1.6 -3.6,3.6 0,2 1.6,3.6 3.6,3.6 2,0 3.6,-1.6 3.6,-3.6 0,-2 -1.6,-3.6 -3.6,-3.6 z m -43.6,-405 c -2,0 -3.6,1.6 -3.6,3.6 0,2 1.6,3.6 3.6,3.6 2,0 3.6,-1.6 3.6,-3.6 0,-2 -1.6,-3.6 -3.6,-3.6 z m 50.8,279.4 c -2,0 -3.6,1.6 -3.6,3.6 0,2 1.6,3.6 3.6,3.6 2,0 3.6,-1.6 3.6,-3.6 0,-2 -1.6,-3.6 -3.6,-3.6 z M 29.7,118.1 c -2,0 -3.6,1.6 -3.6,3.6 0,2 1.6,3.6 3.6,3.6 2,0 3.6,-1.6 3.6,-3.6 0,-2 -1.6,-3.6 -3.6,-3.6 z M 252,49.6 c -1.3,0 -2.4,1.1 -2.4,2.4 0,1.3 1.1,2.4 2.4,2.4 1.3,0 2.4,-1.1 2.4,-2.4 0,-1.3 -1.1,-2.4 -2.4,-2.4 z m -34.5,17.1 c -1.2,0 -2.3,1 -2.3,2.3 0,1.2 1,2.3 2.3,2.3 1.2,0 2.3,-1 2.3,-2.3 -0.1,-1.3 -1.1,-2.3 -2.3,-2.3 z M 42.3,237.1 c -1.2,0 -2.3,1 -2.3,2.3 0,1.2 1,2.3 2.3,2.3 1.2,0 2.3,-1 2.3,-2.3 0,-1.3 -1,-2.3 -2.3,-2.3 z m 191.8,72 c -1.2,0 -2.3,1 -2.3,2.3 0,1.2 1,2.3 2.3,2.3 1.2,0 2.3,-1 2.3,-2.3 0,-1.3 -1,-2.3 -2.3,-2.3 z M 38.8,37.6 c -2,0 -3.6,1.6 -3.6,3.6 0,2 1.6,3.6 3.6,3.6 2,0 3.6,-1.6 3.6,-3.6 0,-2 -1.6,-3.6 -3.6,-3.6 z m 25.6,7.2 c -1.2,0 -2.3,1 -2.3,2.3 0,1.3 1,2.3 2.3,2.3 1.2,0 2.3,-1 2.3,-2.3 0,-1.3 -1,-2.3 -2.3,-2.3 z m 75.2,5 c -1.2,0 -2.3,1 -2.3,2.3 0,1.2 1,2.3 2.3,2.3 1.2,0 2.3,-1 2.3,-2.3 0,-1.3 -1,-2.3 -2.3,-2.3 z M 39.7,168 c -1.2,0 -2.3,1 -2.3,2.3 0,1.3 1,2.3 2.3,2.3 1.2,0 2.3,-1 2.3,-2.3 0,-1.3 -1.1,-2.3 -2.3,-2.3 z m -7.5,-12.9 c -1.2,0 -2.3,1 -2.3,2.3 0,1.2 1,2.3 2.3,2.3 1.2,0 2.3,-1 2.3,-2.3 -0.1,-1.3 -1.1,-2.3 -2.3,-2.3 z m 278.5,58.2 c -1.6,2.2 -1,5.2 1.1,6.8 2.2,1.6 5.2,1 6.8,-1.1 1.6,-2.2 1,-5.2 -1.1,-6.8 -2.2,-1.6 -5.3,-1 -6.8,1.1 z M 412.5,172 c -1.7,2.4 -1.2,5.8 1.3,7.6 2.4,1.7 5.8,1.2 7.6,-1.3 1.7,-2.4 1.2,-5.8 -1.3,-7.6 -2.5,-1.7 -5.9,-1.1 -7.6,1.3 z m 4.7,-80.5 c -0.8,1.1 -0.5,2.6 0.6,3.4 1.1,0.8 2.6,0.5 3.4,-0.6 0.8,-1.1 0.5,-2.6 -0.6,-3.4 -1.1,-0.8 -2.7,-0.5 -3.4,0.6 z m -53,-72.8 c -0.8,1.1 -0.5,2.6 0.6,3.4 1.1,0.8 2.6,0.5 3.4,-0.6 0.8,-1.1 0.5,-2.6 -0.6,-3.4 -1.1,-0.7 -2.6,-0.4 -3.4,0.6 z m 83.1,146.7 c -0.8,1.1 -0.5,2.6 0.6,3.4 1.1,0.8 2.6,0.5 3.4,-0.6 0.8,-1.1 0.5,-2.6 -0.6,-3.4 -1.1,-0.8 -2.6,-0.5 -3.4,0.6 z M 55.7,839.8 c -1.2,1.6 -0.8,3.9 0.8,5 1.6,1.1 3.9,0.8 5,-0.8 1.1,-1.6 0.8,-3.9 -0.8,-5 -1.6,-1.1 -3.9,-0.9 -5,0.8 z M 323.3,63.1 c -1.2,1.6 -0.8,3.9 0.8,5 1.6,1.2 3.9,0.8 5,-0.8 1.1,-1.6 0.8,-3.9 -0.8,-5 -1.6,-1.2 -3.9,-0.8 -5,0.8 z m 202.2,151.3 c -1.2,1.6 -0.8,3.9 0.8,5 1.6,1.2 3.9,0.8 5,-0.8 1.1,-1.6 0.8,-3.9 -0.8,-5 -1.6,-1.2 -3.9,-0.9 -5,0.8 z m -235.6,56.4 c -1.2,1.6 -0.8,3.9 0.8,5 1.6,1.2 3.9,0.8 5,-0.8 1.1,-1.6 0.8,-3.9 -0.8,-5 -1.6,-1.2 -3.8,-0.8 -5,0.8 z M 351.7,25 c -0.8,1.1 -0.5,2.6 0.6,3.4 1.1,0.8 2.6,0.5 3.4,-0.6 0.8,-1.1 0.5,-2.6 -0.6,-3.4 -1.1,-0.7 -2.6,-0.5 -3.4,0.6 z m -37.4,157.2 c -0.7,1 -0.5,2.4 0.5,3.2 1,0.7 2.4,0.5 3.2,-0.5 0.7,-1 0.5,-2.4 -0.5,-3.2 -1.1,-0.7 -2.5,-0.5 -3.2,0.5 z m 81.6,140 c -0.7,1 -0.5,2.4 0.5,3.2 1,0.8 2.4,0.5 3.2,-0.5 0.7,-1 0.5,-2.4 -0.5,-3.2 -1,-0.8 -2.4,-0.5 -3.2,0.5 z M 546.2,197.6 c -0.7,1 -0.5,2.4 0.5,3.2 1,0.8 2.4,0.5 3.2,-0.5 0.7,-1 0.5,-2.4 -0.5,-3.2 -1.1,-0.8 -2.5,-0.5 -3.2,0.5 z m -397.6,144 c 1.3,0.3 2.6,-0.5 2.9,-1.8 0.3,-1.3 -0.5,-2.6 -1.8,-2.9 -1.3,-0.3 -2.6,0.5 -2.9,1.8 -0.3,1.3 0.5,2.6 1.8,2.9 z M 280,398.1 c 1.2,0.3 2.4,-0.5 2.7,-1.7 0.3,-1.2 -0.5,-2.4 -1.7,-2.7 -1.2,-0.3 -2.4,0.5 -2.7,1.7 -0.3,1.2 0.5,2.4 1.7,2.7 z M 103,376.7 c 1.2,0.3 2.4,-0.5 2.7,-1.7 0.3,-1.2 -0.5,-2.4 -1.7,-2.7 -1.2,-0.3 -2.4,0.5 -2.7,1.7 -0.3,1.2 0.5,2.4 1.7,2.7 z m -9,-44.6 c 1.5,-1.3 1.6,-3.6 0.3,-5.1 -1.3,-1.5 -3.6,-1.6 -5.1,-0.3 -1.5,1.3 -1.6,3.6 -0.3,5.1 1.4,1.4 3.6,1.6 5.1,0.3 z m 23.4,31.5 c 1.5,-1.3 1.6,-3.6 0.3,-5.1 -1.3,-1.5 -3.6,-1.6 -5.1,-0.3 -1.5,1.3 -1.6,3.6 -0.3,5.1 1.3,1.5 3.6,1.6 5.1,0.3 z m 424.5,55.3 c 1.2,0.3 2.4,-0.5 2.7,-1.7 0.3,-1.2 -0.5,-2.4 -1.7,-2.7 -1.2,-0.3 -2.4,0.5 -2.7,1.7 -0.3,1.2 0.5,2.4 1.7,2.7 z m 14.4,-13.1 c 1.5,-1.3 1.6,-3.6 0.3,-5.1 -1.3,-1.5 -3.6,-1.6 -5.1,-0.3 -1.5,1.3 -1.6,3.6 -0.3,5.1 1.3,1.5 3.6,1.7 5.1,0.3 z M 112.7,331.2 c 0.9,-0.8 1,-2.3 0.2,-3.2 -0.8,-0.9 -2.3,-1 -3.2,-0.2 -0.9,0.8 -1,2.3 -0.2,3.2 0.9,1 2.3,1 3.2,0.2 z M 402.2,35.9 c -0.7,1 -0.5,2.4 0.5,3.2 1,0.7 2.4,0.5 3.2,-0.5 0.7,-1 0.5,-2.4 -0.5,-3.2 -1,-0.8 -2.4,-0.6 -3.2,0.5 z m -51.6,246.3 c -0.7,1 -0.5,2.4 0.5,3.2 1,0.7 2.4,0.5 3.2,-0.5 0.7,-1 0.5,-2.4 -0.5,-3.2 -1.1,-0.8 -2.5,-0.5 -3.2,0.5 z m -14.8,-1.3 c -0.7,1 -0.5,2.4 0.5,3.2 1,0.7 2.4,0.5 3.2,-0.5 0.8,-1 0.5,-2.4 -0.5,-3.2 -1.1,-0.8 -2.5,-0.5 -3.2,0.5 z M 518.4,53.6 c -0.7,1 -0.5,2.4 0.5,3.2 1,0.7 2.4,0.5 3.2,-0.5 0.7,-1 0.5,-2.4 -0.5,-3.2 -1.1,-0.7 -2.5,-0.5 -3.2,0.5 z m -14.9,-1.3 c -0.7,1 -0.5,2.4 0.5,3.2 1,0.7 2.4,0.5 3.2,-0.5 0.8,-1 0.5,-2.4 -0.5,-3.2 -1,-0.7 -2.4,-0.5 -3.2,0.5 z M 743,590.8 c 2.6,0.6 5.2,-1 5.9,-3.6 0.6,-2.6 -1,-5.2 -3.6,-5.9 -2.6,-0.6 -5.2,1 -5.9,3.6 -0.6,2.6 1,5.3 3.6,5.9 z m -46.5,-43.2 c 2.3,0.5 4.6,-0.9 5.1,-3.1 0.5,-2.3 -0.9,-4.6 -3.1,-5.1 -2.3,-0.5 -4.6,0.9 -5.1,3.1 -0.6,2.3 0.8,4.6 3.1,5.1 z m -122.6,7.6 c 1.3,0.3 2.6,-0.5 2.9,-1.8 0.3,-1.3 -0.5,-2.6 -1.8,-2.9 -1.3,-0.3 -2.6,0.5 -2.9,1.8 -0.3,1.3 0.5,2.6 1.8,2.9 z m -180.6,45 c 1.3,0 2.4,-1.2 2.4,-2.5 0,-1.3 -1.2,-2.4 -2.5,-2.4 -1.3,0 -2.4,1.2 -2.4,2.5 0,1.3 1.2,2.4 2.5,2.4 z m 249,-117.5 c 1.3,0.3 2.6,-0.5 2.9,-1.8 0.3,-1.3 -0.5,-2.6 -1.8,-2.9 -1.3,-0.3 -2.6,0.5 -2.9,1.8 -0.3,1.3 0.5,2.6 1.8,2.9 z m -64,-2.1 c 1.9,0.5 3.9,-0.7 4.3,-2.7 0.5,-1.9 -0.7,-3.9 -2.7,-4.3 -1.9,-0.5 -3.9,0.7 -4.3,2.7 -0.4,1.9 0.8,3.9 2.7,4.3 z M 148.6,780.4 c -1.9,-0.6 -3.9,0.5 -4.5,2.4 -0.6,1.9 0.5,3.9 2.4,4.5 1.9,0.6 3.9,-0.5 4.5,-2.4 0.6,-1.9 -0.5,-3.9 -2.4,-4.5 z M 682.6,431 c 1.9,0.5 3.9,-0.7 4.3,-2.7 0.5,-1.9 -0.7,-3.9 -2.7,-4.3 -1.9,-0.5 -3.9,0.7 -4.3,2.7 -0.4,1.9 0.8,3.8 2.7,4.3 z m 117.9,188.7 c 1.9,0.5 3.9,-0.7 4.3,-2.7 0.5,-1.9 -0.7,-3.9 -2.7,-4.3 -2,-0.4 -3.9,0.7 -4.3,2.7 -0.4,2 0.8,3.8 2.7,4.3 z M 595.4,459.9 c 1.3,0.3 2.6,-0.5 2.9,-1.8 0.3,-1.3 -0.5,-2.6 -1.8,-2.9 -1.3,-0.3 -2.6,0.5 -2.9,1.8 -0.3,1.3 0.5,2.6 1.8,2.9 z M 405.9,606.4 c 1.3,0 2.4,-1.2 2.4,-2.5 0,-1.3 -1.2,-2.4 -2.5,-2.4 -1.3,0 -2.4,1.2 -2.4,2.5 0,1.3 1.1,2.4 2.5,2.4 z M 712.8,599 c 1.2,0.3 2.4,-0.5 2.7,-1.7 0.3,-1.2 -0.5,-2.4 -1.7,-2.7 -1.2,-0.3 -2.4,0.5 -2.7,1.7 -0.2,1.2 0.5,2.5 1.7,2.7 z m 101.1,-89.3 c 1.2,0.3 2.4,-0.5 2.7,-1.7 0.3,-1.2 -0.5,-2.4 -1.7,-2.7 -1.2,-0.3 -2.4,0.5 -2.7,1.7 -0.2,1.2 0.5,2.4 1.7,2.7 z M 659.3,418 c 1.2,0.3 2.4,-0.5 2.7,-1.7 0.3,-1.2 -0.5,-2.4 -1.7,-2.7 -1.2,-0.3 -2.4,0.5 -2.7,1.7 -0.3,1.2 0.5,2.4 1.7,2.7 z M 45.4,744.7 c -1.2,-0.4 -2.5,0.3 -2.8,1.5 -0.4,1.2 0.3,2.5 1.5,2.8 1.2,0.4 2.5,-0.3 2.8,-1.5 0.4,-1.2 -0.3,-2.5 -1.5,-2.8 z m 78.1,56.6 c -1.2,-0.4 -2.5,0.3 -2.8,1.5 -0.4,1.2 0.3,2.5 1.5,2.8 1.2,0.4 2.5,-0.3 2.8,-1.5 0.3,-1.2 -0.4,-2.4 -1.5,-2.8 z M 825.4,171 c 1.2,0 2.2,-1.1 2.2,-2.3 0,-1.2 -1.1,-2.2 -2.3,-2.2 -1.2,0 -2.2,1.1 -2.2,2.3 0,1.2 1,2.2 2.3,2.2 z m -31.7,395.7 c 1.2,0.3 2.4,-0.5 2.7,-1.7 0.3,-1.2 -0.5,-2.4 -1.7,-2.7 -1.2,-0.3 -2.4,0.5 -2.7,1.7 -0.2,1.2 0.5,2.4 1.7,2.7 z m 4.3,14.2 c 1.2,0.3 2.4,-0.5 2.7,-1.7 0.3,-1.2 -0.5,-2.4 -1.7,-2.7 -1.2,-0.3 -2.4,0.5 -2.7,1.7 -0.2,1.2 0.5,2.4 1.7,2.7 z M 792.8,39 c 1.5,-2.2 0.9,-5.3 -1.3,-6.7 -2.2,-1.5 -5.3,-0.9 -6.7,1.3 -1.5,2.2 -0.9,5.3 1.3,6.7 2.2,1.6 5.2,1 6.7,-1.3 z M 636.5,175.5 c 1.6,-2.4 1,-5.8 -1.5,-7.4 -2.5,-1.6 -5.8,-1 -7.4,1.5 -1.6,2.4 -1,5.8 1.5,7.4 2.5,1.6 5.8,0.9 7.4,-1.5 z m 57.8,-5.2 c 0.7,-1.1 0.4,-2.6 -0.7,-3.4 -1.1,-0.7 -2.6,-0.4 -3.4,0.7 -0.7,1.1 -0.4,2.6 0.7,3.4 1.1,0.8 2.7,0.5 3.4,-0.7 z m 110.6,71.5 c 0.7,-1.1 0.4,-2.6 -0.7,-3.4 -1.1,-0.7 -2.6,-0.4 -3.4,0.7 -0.8,1.1 -0.4,2.6 0.7,3.4 1.1,0.7 2.6,0.4 3.4,-0.7 z M 688.1,52.5 c 0.7,-1.1 0.4,-2.6 -0.7,-3.4 -1.1,-0.7 -2.6,-0.4 -3.4,0.7 -0.7,1.1 -0.4,2.6 0.7,3.4 1.1,0.7 2.6,0.4 3.4,-0.7 z M 805.5,130 c 1.1,-1.7 0.7,-3.9 -1,-5 -1.7,-1.1 -3.9,-0.7 -5,1 -1.1,1.7 -0.7,3.9 1,5 1.7,1.1 3.9,0.6 5,-1 z M 677.8,74.3 c 1.1,-1.7 0.7,-3.9 -1,-5 -1.7,-1.1 -3.9,-0.7 -5,1 -1.1,1.7 -0.7,3.9 1,5 1.7,1.1 3.9,0.6 5,-1 z M 381.2,537.5 c 1.1,-1.7 0.7,-3.9 -1,-5 -1.7,-1.1 -3.9,-0.7 -5,1 -1.1,1.7 -0.7,3.9 1,5 1.7,1.1 3.9,0.6 5,-1 z m -83.1,-25.2 c 1.5,-1.3 1.7,-3.6 0.3,-5.1 -1.3,-1.5 -3.6,-1.7 -5.1,-0.3 -1.5,1.3 -1.7,3.6 -0.3,5.1 1.3,1.4 3.6,1.6 5.1,0.3 z m 235.8,66.9 c 1.5,-1.3 1.7,-3.6 0.3,-5.1 -1.3,-1.5 -3.6,-1.7 -5.1,-0.3 -1.5,1.3 -1.7,3.6 -0.3,5.1 1.4,1.4 3.6,1.6 5.1,0.3 z M 664.3,51.1 c 0.7,-1.1 0.4,-2.6 -0.7,-3.4 -1.1,-0.7 -2.6,-0.4 -3.4,0.7 -0.7,1.1 -0.4,2.6 0.7,3.4 1.1,0.7 2.6,0.4 3.4,-0.7 z m 152.9,184.1 c 0.7,-1.1 0.4,-2.6 -0.7,-3.4 -1.1,-0.8 -2.6,-0.4 -3.4,0.7 -0.7,1.1 -0.4,2.6 0.7,3.4 1.1,0.7 2.6,0.4 3.4,-0.7 z M 778,70.3 c 0.7,-1 0.4,-2.4 -0.6,-3.1 -1,-0.7 -2.4,-0.4 -3.1,0.6 -0.7,1 -0.4,2.4 0.6,3.1 1,0.7 2.4,0.4 3.1,-0.6 z M 541.3,271.2 c 0.9,-0.8 1,-2.2 0.2,-3.2 -0.8,-0.9 -2.2,-1 -3.2,-0.2 -0.9,0.8 -1,2.2 -0.2,3.2 0.8,0.9 2.3,1 3.2,0.2 z M 589.6,31.7 c 0.7,-1 0.4,-2.4 -0.6,-3.1 -1,-0.7 -2.4,-0.4 -3.1,0.6 -0.7,1 -0.4,2.4 0.6,3.1 1,0.7 2.4,0.4 3.1,-0.6 z m 233.9,92.8 c 0.7,-1 0.4,-2.4 -0.6,-3.1 -1,-0.7 -2.4,-0.4 -3.1,0.6 -0.7,1 -0.4,2.4 0.6,3.1 1,0.7 2.4,0.4 3.1,-0.6 z m -80.7,245.2 c -1.2,-0.6 -2.7,-0.1 -3.3,1.1 -0.6,1.2 -0.1,2.7 1.1,3.3 1.2,0.6 2.7,0.1 3.3,-1.1 0.6,-1.2 0.1,-2.7 -1.1,-3.3 z M 592.2,299.8 c -1.1,-0.6 -2.5,-0.1 -3,1 -0.5,1.1 -0.1,2.5 1,3 1.1,0.5 2.5,0.1 3,-1 0.6,-1.1 0.2,-2.5 -1,-3 z m 203.2,46.4 c -1.1,-0.6 -2.5,-0.1 -3,1 -0.5,1.1 -0.1,2.5 1,3 1.1,0.6 2.5,0.1 3,-1 0.6,-1.1 0.1,-2.4 -1,-3 z m -1.7,45.5 c -1.7,0.9 -2.4,3.1 -1.5,4.9 0.9,1.7 3.1,2.4 4.9,1.5 1.7,-0.9 2.4,-3.1 1.5,-4.9 -1,-1.8 -3.2,-2.4 -4.9,-1.5 z m -15.3,-36.1 c -1.7,0.9 -2.4,3.1 -1.5,4.9 0.9,1.7 3.1,2.4 4.9,1.5 1.8,-0.9 2.4,-3.1 1.5,-4.9 -1,-1.8 -3.2,-2.5 -4.9,-1.5 z m -3.1,32.6 c -1.1,0.6 -1.5,2 -0.9,3.1 0.6,1.1 2,1.5 3.1,0.9 1.1,-0.6 1.5,-2 0.9,-3.1 -0.6,-1.1 -2,-1.5 -3.1,-0.9 z m -64.5,-98.6 c 0.7,-1 0.4,-2.4 -0.6,-3.1 -1,-0.7 -2.4,-0.4 -3.1,0.6 -0.7,1 -0.4,2.4 0.6,3.1 1,0.7 2.4,0.5 3.1,-0.6 z m -187.6,16 c 0.9,-0.8 1,-2.2 0.2,-3.2 -0.8,-0.9 -2.2,-1 -3.2,-0.2 -0.9,0.8 -1,2.2 -0.2,3.2 0.8,0.9 2.2,1 3.2,0.2 z m 14.1,4.7 c 0.9,-0.8 1,-2.2 0.2,-3.2 -0.8,-1 -2.2,-1 -3.2,-0.2 -0.9,0.8 -1,2.2 -0.2,3.2 0.8,1 2.2,1.1 3.2,0.2 z m -418,286.4 c 2.2,2.3 5.8,2.4 8.2,0.3 2.3,-2.2 2.4,-5.8 0.3,-8.2 -2.2,-2.3 -5.8,-2.4 -8.2,-0.3 -2.3,2.3 -2.5,5.9 -0.3,8.2 z m -78.6,-2.8 c 0.9,1 2.5,1 3.4,0.1 1,-0.9 1,-2.5 0.1,-3.4 -0.9,-1 -2.5,-1 -3.4,-0.1 -1,0.8 -1.1,2.4 -0.1,3.4 z M 104,568.4 c 0.9,1 2.5,1 3.4,0.1 0.9,-0.9 1,-2.5 0.1,-3.4 -0.9,-1 -2.5,-1 -3.4,-0.1 -0.9,0.9 -1,2.4 -0.1,3.4 z M 85.1,553.5 c 1.4,1.4 3.6,1.5 5.1,0.2 1.4,-1.4 1.5,-3.6 0.2,-5.1 -1.4,-1.4 -3.6,-1.5 -5.1,-0.2 -1.5,1.3 -1.6,3.7 -0.2,5.1 z m 101.2,-12.7 c 1.4,1.4 3.6,1.5 5.1,0.2 1.5,-1.3 1.5,-3.6 0.2,-5.1 -1.4,-1.4 -3.6,-1.5 -5.1,-0.2 -1.5,1.4 -1.5,3.7 -0.2,5.1 z m -75.6,4.7 c 0.9,1 2.5,1 3.4,0.1 0.9,-0.9 1,-2.5 0.1,-3.4 -0.9,-1 -2.5,-1 -3.4,-0.1 -0.9,0.9 -1,2.5 -0.1,3.4 z M 174,517.2 c 0.9,0.9 2.3,1 3.2,0.1 0.9,-0.9 1,-2.3 0.1,-3.2 -0.9,-0.9 -2.3,-1 -3.2,-0.1 -0.9,0.8 -1,2.3 -0.1,3.2 z m -3.7,-114.1 c 2,-0.3 3.3,-2.1 3.1,-4.1 -0.3,-2 -2.1,-3.3 -4.1,-3.1 -2,0.2 -3.3,2.1 -3.1,4.1 0.3,2 2.1,3.4 4.1,3.1 z m -79.7,32.6 c 1.2,-0.2 2.1,-1.3 1.9,-2.5 -0.2,-1.2 -1.3,-2.1 -2.5,-1.9 -1.2,0.2 -2.1,1.3 -1.9,2.5 0.1,1.2 1.3,2.1 2.5,1.9 z m 9.2,11.7 c 1.2,-0.2 2.1,-1.3 1.9,-2.5 -0.2,-1.2 -1.3,-2.1 -2.5,-1.9 -1.2,0.2 -2.1,1.3 -1.9,2.5 0.2,1.2 1.3,2.1 2.5,1.9 z m 583.4,146.9 c 2,0.1 3.7,-1.4 3.8,-3.4 0.1,-2 -1.4,-3.7 -3.4,-3.8 -2,-0.1 -3.7,1.4 -3.8,3.4 -0.1,2 1.5,3.7 3.4,3.8 z M 658,585.7 c 1.2,0.1 2.3,-0.9 2.4,-2.1 0.1,-1.2 -0.9,-2.3 -2.1,-2.4 -1.2,-0.1 -2.3,0.9 -2.4,2.1 -0.1,1.3 0.8,2.4 2.1,2.4 z M 498.3,542 c 0.8,-1 0.6,-2.4 -0.4,-3.2 -1,-0.8 -2.4,-0.6 -3.2,0.4 -0.8,1 -0.6,2.4 0.4,3.2 1,0.8 2.5,0.5 3.2,-0.4 z m 156.8,139.1 c -1.3,-0.4 -2.6,0.4 -3,1.7 -0.4,1.3 0.4,2.6 1.7,3 1.3,0.4 2.6,-0.4 3,-1.7 0.3,-1.3 -0.5,-2.6 -1.7,-3 z M 549.4,672 c -1.2,-0.3 -2.5,0.4 -2.8,1.6 -0.3,1.2 0.4,2.5 1.6,2.8 1.2,0.3 2.5,-0.4 2.8,-1.6 0.3,-1.2 -0.4,-2.4 -1.6,-2.8 z m 153.1,-23.5 c -1.2,-0.3 -2.5,0.4 -2.8,1.6 -0.3,1.2 0.4,2.5 1.6,2.8 1.2,0.3 2.5,-0.4 2.8,-1.6 0.3,-1.2 -0.4,-2.4 -1.6,-2.8 z m 6.6,45.1 c -1.6,1.2 -1.8,3.5 -0.6,5.1 1.2,1.6 3.5,1.8 5.1,0.6 1.6,-1.2 1.8,-3.5 0.6,-5.1 -1.3,-1.6 -3.6,-1.9 -5.1,-0.6 z m -21.6,-32.8 c -1.6,1.2 -1.8,3.5 -0.6,5.1 1.2,1.6 3.5,1.8 5.1,0.6 1.6,-1.2 1.8,-3.5 0.6,-5.1 -1.3,-1.6 -3.6,-1.8 -5.1,-0.6 z m 2.8,32.6 c -1,0.8 -1.1,2.2 -0.4,3.2 0.8,1 2.2,1.1 3.2,0.4 1,-0.8 1.1,-2.2 0.4,-3.2 -0.8,-1 -2.2,-1.2 -3.2,-0.4 z m -230.9,-5.9 c 0.8,-1 0.6,-2.4 -0.4,-3.2 -1,-0.8 -2.4,-0.6 -3.2,0.4 -0.8,1 -0.6,2.4 0.4,3.2 1,0.8 2.5,0.6 3.2,-0.4 z m 14.8,2.1 c 0.8,-1 0.6,-2.4 -0.4,-3.2 -1,-0.8 -2.4,-0.6 -3.2,0.4 -0.8,1 -0.6,2.4 0.4,3.2 1,0.8 2.4,0.6 3.2,-0.4 z m 222.7,125.7 c -1.2,-0.3 -2.5,0.4 -2.8,1.6 -0.3,1.2 0.4,2.5 1.6,2.8 1.2,0.3 2.5,-0.4 2.8,-1.6 0.3,-1.2 -0.4,-2.4 -1.6,-2.8 z m -75.2,17.6 c 0.8,-1 0.6,-2.4 -0.4,-3.2 -1,-0.8 -2.4,-0.6 -3.2,0.4 -0.8,1 -0.6,2.4 0.4,3.2 1,0.8 2.4,0.6 3.2,-0.4 z M 210.2,665 c -1.7,-1 -3.9,-0.4 -4.9,1.3 -1,1.7 -0.4,3.9 1.3,4.9 1.7,1 3.9,0.4 4.9,-1.3 1,-1.7 0.5,-3.9 -1.3,-4.9 z m 18.6,19.2 c -1.1,-0.6 -2.5,-0.3 -3.1,0.8 -0.6,1.1 -0.3,2.5 0.8,3.1 1.1,0.6 2.5,0.3 3.1,-0.8 0.7,-1.1 0.3,-2.5 -0.8,-3.1 z m -104.5,23.9 c 1,0.9 2.5,0.9 3.4,-0.1 0.9,-1 0.9,-2.5 -0.1,-3.4 -1,-0.9 -2.5,-0.9 -3.4,0.1 -0.9,1 -0.9,2.5 0.1,3.4 z M 334,585.9 c 0.9,0.9 2.3,0.8 3.2,-0.1 0.9,-0.9 0.8,-2.3 -0.1,-3.2 -0.9,-0.9 -2.3,-0.8 -3.2,0.1 -0.8,0.9 -0.8,2.3 0.1,3.2 z m 31.3,-53.5 c 1.2,-0.3 2,-1.4 1.8,-2.7 -0.3,-1.2 -1.4,-2 -2.7,-1.8 -1.2,0.3 -2,1.4 -1.8,2.7 0.3,1.3 1.5,2.1 2.7,1.8 z m 376.1,328.2 c -1.1,0.5 -1.6,1.9 -1.1,3 0.5,1.1 1.9,1.6 3,1.1 1.1,-0.5 1.6,-1.9 1.1,-3 -0.5,-1.1 -1.8,-1.6 -3,-1.1 z M 729.3,852 c -1.1,0.5 -1.6,1.9 -1.1,3 0.5,1.1 1.9,1.6 3,1.1 1.1,-0.5 1.6,-1.9 1.1,-3 -0.6,-1.1 -1.9,-1.6 -3,-1.1 z M 230.6,578.8 c -1.3,-0.4 -2.6,0.3 -3,1.6 -0.4,1.3 0.3,2.6 1.6,3 1.3,0.4 2.6,-0.3 3,-1.6 0.5,-1.3 -0.3,-2.6 -1.6,-3 z m 222.3,64.5 c -1.6,1.2 -1.8,3.5 -0.6,5 1.2,1.6 3.5,1.8 5,0.6 1.6,-1.2 1.8,-3.5 0.6,-5 -1.2,-1.5 -3.4,-1.9 -5,-0.6 z M 385.6,511.9 c -1,0.8 -1.2,2.2 -0.4,3.2 0.8,1 2.2,1.2 3.2,0.4 1,-0.8 1.2,-2.2 0.4,-3.2 -0.8,-1 -2.3,-1.1 -3.2,-0.4 z M 277.5,645.8 c -1,0.8 -1.2,2.2 -0.4,3.2 0.8,1 2.2,1.2 3.2,0.4 1,-0.8 1.2,-2.2 0.4,-3.2 -0.8,-1 -2.2,-1.2 -3.2,-0.4 z m -13.8,-5.5 c -1,0.8 -1.2,2.2 -0.4,3.2 0.8,1 2.2,1.2 3.2,0.4 1,-0.8 1.2,-2.2 0.4,-3.2 -0.8,-1 -2.2,-1.2 -3.2,-0.4 z"
   id="path1112-6" />

</g>
    <g
       id="g2141"
       transform="translate(-11.008678)">
      <g
         id="satellit"
         transform="translate(338.85869,-180.83613)">
	<g
   id="g1131">
		<circle
   class="st4"
   cx="569.20001"
   cy="357.39999"
   r="4"
   id="circle1115"
   style="fill:#ffffff" />

		<circle
   class="st4"
   cx="608.09998"
   cy="348.20001"
   r="4.4000001"
   id="circle1117"
   style="fill:#ffffff" />

		<circle
   class="st4"
   cx="648.79999"
   cy="337.5"
   r="4.0999999"
   id="circle1119"
   style="fill:#ffffff" />

		<circle
   class="st4"
   cx="685.79999"
   cy="329"
   r="3.7"
   id="circle1121"
   style="fill:#ffffff" />

		<circle
   class="st4"
   cx="722.29999"
   cy="322"
   r="3.2"
   id="circle1123"
   style="fill:#ffffff" />

		<circle
   class="st4"
   cx="758.09998"
   cy="315.70001"
   r="2.9000001"
   id="circle1125"
   style="fill:#ffffff" />

		<circle
   class="st4"
   cx="793.40002"
   cy="310.79999"
   r="2.5999999"
   id="circle1127"
   style="fill:#ffffff" />

		<circle
   class="st4"
   cx="826.59998"
   cy="307.20001"
   r="2"
   id="circle1129"
   style="fill:#ffffff" />

	</g>

	<g
   id="g1151">
		<circle
   class="st4"
   cx="50.700001"
   cy="518.40002"
   r="2.5"
   id="circle1133"
   style="fill:#ffffff" />

		<circle
   class="st4"
   cx="86.400002"
   cy="502.39999"
   r="2.9000001"
   id="circle1135"
   style="fill:#ffffff" />

		<circle
   class="st4"
   cx="123.3"
   cy="487.39999"
   r="3.2"
   id="circle1137"
   style="fill:#ffffff" />

		<circle
   class="st4"
   cx="157.89999"
   cy="475.10001"
   r="3.5"
   id="circle1139"
   style="fill:#ffffff" />

		<circle
   class="st4"
   cx="194.60001"
   cy="461"
   r="3.8"
   id="circle1141"
   style="fill:#ffffff" />

		<circle
   class="st4"
   cx="234.3"
   cy="448"
   r="4.1999998"
   id="circle1143"
   style="fill:#ffffff" />

		<circle
   class="st4"
   cx="273.70001"
   cy="435.20001"
   r="4.3000002"
   id="circle1145"
   style="fill:#ffffff" />

		<circle
   class="st4"
   cx="314.39999"
   cy="423.5"
   r="4.4000001"
   id="circle1147"
   style="fill:#ffffff" />

		<circle
   class="st4"
   cx="17.6"
   cy="533.09998"
   r="1.9"
   id="circle1149"
   style="fill:#ffffff" />

	</g>

</g>
      <g
         id="Uboot"
         transform="translate(338.85869,-180.83613)">
	<g
   id="g1202">
		<g
   id="g1196">
			<path
   class="st5"
   d="m 543.2,365.1 c -4.1,0.7 -13.3,0.9 -15.7,0.3 -0.5,-0.1 -2,-0.5 -2.6,-0.8 -4.1,-2.1 -9.8,-7 -23.6,-12.7 -14.2,-5.9 -39.3,-14.3 -80.5,-0.7 -11.3,3.7 -21.9,8.1 -31.4,12.5 l -1.1,-0.8 c -3.5,-2.7 -19.5,-13.9 -39.9,-14.4 -26,-0.7 -58.6,9 -68.6,12.8 0,0 0,0 0,0 -0.2,0.1 -0.5,0.2 -0.7,0.3 0,0 -0.1,0 -0.1,0.1 -0.3,0.1 -0.5,0.2 -0.7,0.3 0,0 0,0 -0.1,0 -0.2,0.1 -0.4,0.2 -0.6,0.3 0,0 -0.1,0 -0.1,0 -0.2,0.1 -0.3,0.2 -0.4,0.2 0,0 0,0 -0.1,0 -0.1,0.1 -0.2,0.1 -0.2,0.2 -1.6,1.6 -0.3,7.1 0.4,10 0.7,2.9 2.3,7.8 4.4,9.1 0.9,0.6 30.7,-9.4 47.4,-4.4 0.8,0.2 1.4,0.5 2.2,0.7 9.6,3.2 13.6,7.3 15.3,9.7 -1,1.3 -2.7,5.9 1.2,23.1 2.1,9.2 3.8,15.2 5.3,19.1 -2.2,1.1 -4.6,2.3 -7.2,3.5 -14.4,6.6 -38.2,13.1 -48.2,15.7 -2.2,0.6 -4.7,1.2 -4.7,1.2 -1.3,0.6 -1.1,5.2 0,9.6 1.1,4.4 2.4,5.9 3.2,6.2 0.2,0.1 1.9,0 4.7,-0.2 0,0 0,0 0,0 v 0 c 10,-0.7 34.2,-3.4 55.9,-9.5 22.1,-6.3 30.4,-10.2 35.7,-13.1 2.1,-1.2 3.9,-2.4 5.5,-3.7 2,0 4,0 6.1,-0.1 42.5,-0.7 77,-11.3 95.8,-28.1 17.9,-15.9 24.1,-30.7 27.9,-36.5 0.6,-0.9 1.1,-1.6 1.6,-1.9 1.9,-1.3 10.4,-4.8 14.4,-6.3 0.1,-0.1 -0.3,-1.7 -0.5,-1.7 z"
   id="path1154"
   style="fill:#ffed00" />

			<path
   class="st6"
   d="m 434.5,347.4 c 0,0 4.1,14.9 16,19.1 7.4,2.6 18.8,2.5 29.4,-4.7 9.1,-6.2 11.2,-13.6 11.2,-13.6 0,0 -15.2,-5.1 -29.5,-4.9 -12.1,0.2 -27.1,4.1 -27.1,4.1 z"
   id="path1156"
   style="fill:#93b2c2" />

			<g
   id="g1160">
				<path
   d="m 462.2,340.3 c 16.3,-0.4 25.6,6.9 25.6,6.9 0,0 -2.7,7.3 -12.7,13.3 -7.6,4.6 -18.8,5.6 -26.8,0.8 -6.8,-4.1 -10.7,-14.7 -10.7,-14.7 0,0 7.6,-5.9 24.6,-6.3 z"
   id="path1158" />

			</g>

			<path
   class="st7"
   d="m 442.8,346.9 c 0,0 9.4,-4.5 20.9,-4.2 11.6,0.3 20.6,5.6 20.6,5.6 0,0 -3,5.5 -9.9,5.5 -6.8,0 -9.9,-5.4 -19.4,-6.9 -7.5,-1.2 -12.2,0 -12.2,0 z"
   id="path1162"
   style="fill:#354b54" />

			<g
   id="g1172">
				
					<ellipse
   transform="matrix(0.9626,-0.2711,0.2711,0.9626,-92.9723,116.8277)"
   class="st6"
   cx="376.39999"
   cy="394.89999"
   rx="13"
   ry="10.3"
   id="ellipse1164"
   style="fill:#93b2c2" />

				<g
   id="g1168">
					<ellipse
   transform="matrix(0.9626,-0.2711,0.2711,0.9626,-92.9768,116.8175)"
   cx="376.29999"
   cy="394.89999"
   rx="9.8000002"
   ry="7.8000002"
   id="ellipse1166" />

				</g>

				<path
   class="st7"
   d="m 369.4,393.3 c 0,0 2.6,-4.6 7.7,-4.6 6.5,0 7,4.4 7,4.4 0,0 -2.6,-1.9 -7.5,-1.8 -4,0 -7.2,2 -7.2,2 z"
   id="path1170"
   style="fill:#354b54" />

			</g>

			<g
   id="g1182">
				
					<ellipse
   transform="matrix(0.9626,-0.2711,0.2711,0.9626,-89.7453,124.2159)"
   class="st6"
   cx="404.70001"
   cy="386.89999"
   rx="13"
   ry="10.3"
   id="ellipse1174"
   style="fill:#93b2c2" />

				<g
   id="g1178">
					<ellipse
   transform="matrix(0.9626,-0.2711,0.2711,0.9626,-89.7498,124.2057)"
   cx="404.70001"
   cy="387"
   rx="9.8000002"
   ry="7.8000002"
   id="ellipse1176" />

				</g>

				<path
   class="st7"
   d="m 397.8,385.3 c 0,0 2.6,-4.6 7.7,-4.6 6.5,0 7,4.4 7,4.4 0,0 -2.6,-1.9 -7.5,-1.8 -4.1,0.1 -7.2,2 -7.2,2 z"
   id="path1180"
   style="fill:#354b54" />

			</g>

			<g
   id="g1192">
				
					<ellipse
   transform="matrix(0.9626,-0.2711,0.2711,0.9626,-86.5183,131.604)"
   class="st6"
   cx="433.10001"
   cy="379"
   rx="13"
   ry="10.3"
   id="ellipse1184"
   style="fill:#93b2c2" />

				<g
   id="g1188">
					<ellipse
   transform="matrix(0.9626,-0.2711,0.2711,0.9626,-86.5228,131.5938)"
   cx="433.10001"
   cy="379"
   rx="9.8000002"
   ry="7.8000002"
   id="ellipse1186" />

				</g>

				<path
   class="st7"
   d="m 426.1,377.3 c 0,0 2.6,-4.6 7.7,-4.6 6.5,0 7,4.4 7,4.4 0,0 -2.6,-1.9 -7.5,-1.8 -4,0.1 -7.2,2 -7.2,2 z"
   id="path1190"
   style="fill:#354b54" />

			</g>

			<path
   class="st5"
   d="m 421,358.6 c 0,0 -8.7,-38.4 -9.5,-42 -0.8,-3.6 -0.8,-8.3 4.2,-11.2 3.7,-2.1 11.7,-3.8 11.7,-3.8 l 2.9,13 c 0,0 -6,0.8 -7.6,3.4 -1,1.6 -0.2,4.7 -0.2,4.7 l 7.4,32.2 z"
   id="path1194"
   style="fill:#ffed00" />

		</g>

		<path
   class="st8"
   d="m 358,379.9 c -21.8,-19.5 -54.2,-13.5 -80.8,-6.9 0.7,2.9 2.3,7.5 4.3,8.9 0.9,0.6 30.7,-9.4 47.4,-4.4 0.8,0.2 1.4,0.5 2.2,0.7 9.5,3.2 13.6,7.2 15.3,9.6 l 0.1,0.1 c 0.9,-1.1 7.6,-6.1 11.5,-8 z"
   id="path1198"
   style="fill:#fbba00" />

		<path
   class="st8"
   d="m 519.3,378.1 c -35.9,36.8 -100.4,44.5 -130.1,48.3 -21.2,22.2 -74.6,30.1 -96.5,33.3 0,0.1 0,0.2 0.1,0.3 1.1,4.4 2.4,5.9 3.2,6.2 0.2,0.1 1.9,0 4.7,-0.2 0,0 0,0 0,0 v 0 c 10,-0.7 34.2,-3.4 55.9,-9.5 22.1,-6.3 30.4,-10.2 35.7,-13.1 2.1,-1.2 3.9,-2.4 5.5,-3.7 2,0 4,0 6.1,-0.1 42.5,-0.7 77,-11.3 95.8,-28.1 17.9,-15.9 24.1,-30.7 27.9,-36.5 0.6,-0.9 1.1,-1.6 1.6,-1.9 0.9,-0.6 3.3,-1.7 5.9,-2.9 -6.4,1.7 -10.8,2.9 -15.8,7.9 z"
   id="path1200"
   style="fill:#fbba00" />

	</g>

</g>
    </g>
  </g>
</svg>
