<?xml version="1.0" encoding="UTF-8" standalone="no"?>
<!-- Created with Inkscape (http://www.inkscape.org/) -->

<svg
   width="112.5306mm"
   height="112.53197mm"
   viewBox="0 0 112.5306 112.53197"
   version="1.1"
   id="svg511"
   sodipodi:docname="icon.svg"
   inkscape:version="1.2 (dc2aedaf03, 2022-05-15)"
   xmlns:inkscape="http://www.inkscape.org/namespaces/inkscape"
   xmlns:sodipodi="http://sodipodi.sourceforge.net/DTD/sodipodi-0.dtd"
   xmlns="http://www.w3.org/2000/svg"
   xmlns:svg="http://www.w3.org/2000/svg">
  <sodipodi:namedview
     id="namedview29"
     pagecolor="#505050"
     bordercolor="#eeeeee"
     borderopacity="1"
     inkscape:showpageshadow="0"
     inkscape:pageopacity="0"
     inkscape:pagecheckerboard="0"
     inkscape:deskcolor="#505050"
     inkscape:document-units="mm"
     showgrid="false"
     inkscape:zoom="0.94709137"
     inkscape:cx="216.45219"
     inkscape:cy="202.72595"
     inkscape:window-width="1362"
     inkscape:window-height="721"
     inkscape:window-x="0"
     inkscape:window-y="22"
     inkscape:window-maximized="1"
     inkscape:current-layer="svg511" />
  <defs
     id="defs508" />
  <path
     fill-rule="nonzero"
     fill="#ec008c"
     fill-opacity="1"
     d="M 105.60871,112.53197 H 6.92051 C 3.09783,112.53197 0,109.43276 0,105.61009 V 6.92188 C 0,3.0992 3.09783,0 6.92051,0 h 98.6882 c 3.82268,0 6.92189,3.0992 6.92189,6.92188 v 98.68821 c 0,3.82267 -3.09921,6.92188 -6.92189,6.92188"
     id="path461"
     style="stroke-width:0.352778" />
  <path
     fill-rule="nonzero"
     fill="#151821"
     fill-opacity="1"
     d="m 51.02324,79.15678 c 0,3.3376 -2.70509,6.04131 -6.04132,6.04131 -3.33623,0 -6.041316,-2.70371 -6.041316,-6.04131 0,-3.33623 2.705086,-6.03994 6.041316,-6.03994 3.33623,0 6.04132,2.70371 6.04132,6.03994"
     id="path463"
     style="stroke-width:0.352778" />
  <path
     fill-rule="nonzero"
     fill="#84a9b9"
     fill-opacity="1"
     d="m 49.11879,79.15678 c 0,2.28478 -1.85208,4.13824 -4.13687,4.13824 -2.28478,0 -4.136866,-1.85346 -4.136866,-4.13824 0,-2.28479 1.852086,-4.13687 4.136866,-4.13687 2.28479,0 4.13687,1.85208 4.13687,4.13687"
     id="path465"
     style="stroke-width:0.352778" />
  <path
     fill-rule="nonzero"
     fill="#151821"
     fill-opacity="1"
     d="m 63.51516,79.15678 c 0,3.3376 -2.70509,6.04131 -6.04132,6.04131 -3.33623,0 -6.04132,-2.70371 -6.04132,-6.04131 0,-3.33623 2.70509,-6.03994 6.04132,-6.03994 3.33623,0 6.04132,2.70371 6.04132,6.03994"
     id="path467"
     style="stroke-width:0.352778" />
  <path
     fill-rule="nonzero"
     fill="#84a9b9"
     fill-opacity="1"
     d="m 61.61071,79.15678 c 0,2.28478 -1.85208,4.13824 -4.13687,4.13824 -2.28479,0 -4.13687,-1.85346 -4.13687,-4.13824 0,-2.28479 1.85208,-4.13687 4.13687,-4.13687 2.28479,0 4.13687,1.85208 4.13687,4.13687"
     id="path469"
     style="stroke-width:0.352778" />
  <path
     fill-rule="nonzero"
     fill="#151821"
     fill-opacity="1"
     d="m 85.84213,79.15678 c 0,3.3376 -2.70509,6.04131 -6.04132,6.04131 -3.33623,0 -6.04131,-2.70371 -6.04131,-6.04131 0,-3.33623 2.70508,-6.03994 6.04131,-6.03994 3.33623,0 6.04132,2.70371 6.04132,6.03994"
     id="path471"
     style="stroke-width:0.352778" />
  <path
     fill-rule="nonzero"
     fill="#84a9b9"
     fill-opacity="1"
     d="m 83.93768,79.15678 c 0,2.28478 -1.85208,4.13824 -4.13687,4.13824 -2.28478,0 -4.13687,-1.85346 -4.13687,-4.13824 0,-2.28479 1.85209,-4.13687 4.13687,-4.13687 2.28479,0 4.13687,1.85208 4.13687,4.13687"
     id="path473"
     style="stroke-width:0.352778" />
  <path
     fill-rule="nonzero"
     fill="#151821"
     fill-opacity="1"
     d="m 47.00902,79.15678 c 0,1.12034 -0.90813,2.02709 -2.0271,2.02709 -1.11896,0 -2.02709,-0.90675 -2.02709,-2.02709 v -4.13687 h 4.05419 z m 0,0"
     id="path475"
     style="stroke-width:0.352778" />
  <path
     fill-rule="nonzero"
     fill="#151821"
     fill-opacity="1"
     d="m 59.50093,79.15678 c 0,1.12034 -0.90812,2.02709 -2.02709,2.02709 -1.11897,0 -2.0271,-0.90675 -2.0271,-2.02709 v -4.13687 h 4.05419 z m 0,0"
     id="path477"
     style="stroke-width:0.352778" />
  <path
     fill-rule="nonzero"
     fill="#151821"
     fill-opacity="1"
     d="m 81.82791,79.15678 c 0,1.12034 -0.90813,2.02709 -2.0271,2.02709 -1.11896,0 -2.02709,-0.90675 -2.02709,-2.02709 v -4.13687 h 4.05419 z m 0,0"
     id="path479"
     style="stroke-width:0.352778" />
  <path
     fill-rule="nonzero"
     fill="#fff200"
     fill-opacity="1"
     d="m 108.23525,61.0342 c -1.60128,-0.091 -5.0822,-0.79513 -5.91178,-1.20992 -0.18603,-0.0923 -0.71107,-0.34589 -0.90537,-0.51263 -1.34497,-1.15204 -3.09094,-3.4823 -7.76525,-6.7896 -4.83415,-3.41891 -13.5406,-8.69128 -30.16801,-7.1217 -4.54063,0.42857 -8.90902,1.17409 -12.86261,2.0271 L 50.26119,47.02506 C 49.16565,45.72833 44.11514,40.16105 36.516637,38.21251 26.83592,35.73066 13.76523,36.59055 9.68072,37.18725 c 0,0 10e-4,-10e-4 10e-4,-10e-4 -0.10197,0.0152 -0.19706,0.0303 -0.28663,0.0441 -0.0193,0.003 -0.0358,0.005 -0.0551,0.01 -0.11024,0.0179 -0.2136,0.0358 -0.3073,0.0524 -0.007,0.001 -0.0152,0.003 -0.0221,0.004 -0.0937,0.0179 -0.17501,0.0358 -0.24805,0.0524 -0.0138,0.003 -0.0289,0.006 -0.0413,0.01 -0.0675,0.0152 -0.1254,0.0303 -0.17088,0.0455 -0.01,0.003 -0.0152,0.005 -0.0234,0.008 -0.0441,0.0152 -0.0799,0.0289 -0.10059,0.0427 -0.72623,0.46991 -0.70556,2.64997 -0.70556,3.79236 0,1.14377 0.18741,3.11574 0.87092,3.80614 0.2949,0.29766 12.32517,-0.93293 18.18459,2.37298 0.26183,0.14746 0.50436,0.2949 0.74828,0.44098 3.31969,2.03122 4.502045,3.89709 4.922348,4.94302 -0.487824,0.38861 -1.503438,2.00642 -1.503438,8.76294 0,3.61598 0.151583,6.01927 0.348641,7.62193 -0.916391,0.23978 -1.908581,0.47818 -2.988961,0.70831 -5.95864,1.27055 -15.45194,1.66881 -19.42758,1.78456 -0.8916,0.0234 -1.84796,0.0427 -1.84796,0.0427 -0.54432,0.12127 -0.86265,1.87 -0.81717,3.61735 0.0455,1.74874 0.4079,2.41157 0.68075,2.59347 0.0606,0.0386 0.69591,0.16261 1.76665,0.32384 10e-4,0 0.003,0 0.003,0 3.81303,0.57464 13.14372,1.63711 21.77438,1.16995 8.830468,-0.47955 12.29072,-1.22094 14.49696,-1.89204 0.88332,-0.2701 1.67432,-0.57878 2.37574,-0.92466 0.74138,0.16398 1.51033,0.33072 2.31097,0.49746 16.01969,3.34588 29.86071,2.29168 38.33978,-2.38262 8.05187,-4.44004 11.6582,-9.48504 13.57092,-11.34401 0.29765,-0.29077 0.55672,-0.49334 0.78272,-0.58705 0.80891,-0.33073 4.32153,-0.92879 5.92694,-1.14101 0.0758,-0.011 0.0717,-0.62288 -0.004,-0.62701"
     id="path481"
     style="stroke-width:0.352778" />
  <path
     fill-rule="nonzero"
     fill="#84a9b9"
     fill-opacity="1"
     d="m 68.94876,45.11648 c 0,0 0.2701,5.95863 4.39595,8.53281 2.55212,1.59163 6.8516,2.55213 11.42807,0.73449 3.94808,-1.5682 5.35367,-4.13962 5.35367,-4.13962 0,0 -5.25446,-3.19292 -10.66463,-4.33807 C 74.9074,44.94147 68.94876,45.11648 68.94876,45.11648"
     id="path483"
     style="stroke-width:0.352778" />
  <path
     fill-rule="nonzero"
     fill="#151821"
     fill-opacity="1"
     d="m 79.96893,44.8078 c 6.14881,1.21818 9.01651,4.7749 9.01651,4.7749 0,0 -1.63849,2.52043 -5.9173,3.91776 -3.25768,1.06385 -7.53649,0.50299 -10.12858,-1.96508 -2.20899,-2.10289 -2.74918,-6.4313 -2.74918,-6.4313 0,0 3.36241,-1.56821 9.77855,-0.29628"
     id="path485"
     style="stroke-width:0.352778" />
  <path
     fill-rule="nonzero"
     fill="#2f404c"
     fill-opacity="1"
     d="m 72.10034,45.63324 c 0,0 3.89571,-0.88746 8.21586,0.21911 4.32015,1.10794 7.25813,3.87366 7.25813,3.87366 0,0 -1.59577,1.81488 -4.17132,1.23473 -2.55489,-0.57465 -3.25217,-2.88286 -6.68349,-4.25676 -2.76434,-1.10657 -4.61918,-1.07074 -4.61918,-1.07074"
     id="path487"
     style="stroke-width:0.352778" />
  <path
     fill-rule="nonzero"
     fill="#84a9b9"
     fill-opacity="1"
     d="m 48.07286,57.76687 c 0.113,2.19521 -2.02433,4.09002 -4.7749,4.23195 -2.750562,0.14194 -5.072556,-1.52135 -5.185558,-3.71657 -0.114374,-2.19521 2.024341,-4.08864 4.774908,-4.23057 2.75056,-0.14332 5.07256,1.52135 5.18555,3.71519"
     id="path489"
     style="stroke-width:0.352778" />
  <path
     fill-rule="nonzero"
     fill="#151821"
     fill-opacity="1"
     d="m 46.82436,57.83163 c 0.0854,1.65227 -1.52411,3.07716 -3.59255,3.18465 -2.06981,0.10611 -3.817161,-1.14515 -3.9026,-2.79742 -0.08544,-1.65089 1.522734,-3.07578 3.59255,-3.18326 2.06981,-0.10749 3.81716,1.14514 3.9026,2.79603"
     id="path491"
     style="stroke-width:0.352778" />
  <path
     fill-rule="nonzero"
     fill="#2f404c"
     fill-opacity="1"
     d="m 40.619054,56.82429 c 0,0 1.382176,-1.51998 3.281106,-1.07625 2.43637,0.57051 2.25034,2.25447 2.25034,2.25447 0,0 -0.80477,-0.92604 -2.67339,-1.32567 -1.50896,-0.32246 -2.858056,0.14745 -2.858056,0.14745"
     id="path493"
     style="stroke-width:0.352778" />
  <path
     fill-rule="nonzero"
     fill="#84a9b9"
     fill-opacity="1"
     d="m 59.39345,57.18258 c 0.11437,2.19521 -2.02296,4.08864 -4.77353,4.23057 -2.75194,0.14332 -5.07255,-1.52135 -5.18693,-3.71656 -0.113,-2.19384 2.02434,-4.08864 4.77628,-4.23058 2.74918,-0.14194 5.07118,1.52135 5.18418,3.71657"
     id="path495"
     style="stroke-width:0.352778" />
  <path
     fill-rule="nonzero"
     fill="#151821"
     fill-opacity="1"
     d="m 58.14494,57.24735 c 0.0854,1.65089 -1.52273,3.07578 -3.59254,3.18327 -2.06981,0.10748 -3.81579,-1.14516 -3.90123,-2.79604 -0.0854,-1.65227 1.52274,-3.07716 3.59255,-3.18465 2.06981,-0.10611 3.81578,1.14515 3.90122,2.79742"
     id="path497"
     style="stroke-width:0.352778" />
  <path
     fill-rule="nonzero"
     fill="#2f404c"
     fill-opacity="1"
     d="m 51.94102,56.23862 c 0,0 1.38217,-1.51997 3.2811,-1.07487 2.43638,0.56913 2.25034,2.2531 2.25034,2.2531 0,0 -0.80477,-0.92605 -2.67339,-1.32568 -1.50895,-0.32246 -2.85805,0.14745 -2.85805,0.14745"
     id="path499"
     style="stroke-width:0.352778" />
  <path
     fill-rule="nonzero"
     fill="#84a9b9"
     fill-opacity="1"
     d="m 70.71541,56.59691 c 0.113,2.19522 -2.02434,4.09002 -4.7749,4.23196 -2.75057,0.14194 -5.07256,-1.52273 -5.18556,-3.71657 -0.113,-2.19522 2.02434,-4.08864 4.7749,-4.23196 2.75057,-0.14193 5.07256,1.52274 5.18556,3.71657"
     id="path501"
     style="stroke-width:0.352778" />
  <path
     fill-rule="nonzero"
     fill="#151821"
     fill-opacity="1"
     d="m 69.46691,56.66168 c 0.0854,1.65227 -1.52274,3.07716 -3.59255,3.18465 -2.06981,0.10611 -3.81717,-1.14515 -3.9026,-2.79742 -0.0854,-1.65089 1.52411,-3.07578 3.59392,-3.18327 2.06844,-0.10748 3.81579,1.14515 3.90123,2.79604"
     id="path503"
     style="stroke-width:0.352778" />
  <path
     fill-rule="nonzero"
     fill="#2f404c"
     fill-opacity="1"
     d="m 63.26298,55.65434 c 0,0 1.38217,-1.51998 3.27973,-1.07626 2.43637,0.57051 2.25033,2.25448 2.25033,2.25448 0,0 -0.80477,-0.92604 -2.67339,-1.32567 -1.50757,-0.32247 -2.85667,0.14745 -2.85667,0.14745"
     id="path505"
     style="stroke-width:0.352778" />
  <path
     fill-rule="nonzero"
     fill="#fff200"
     fill-opacity="1"
     d="M 62.94327,48.18537 V 31.6117 c 0,-1.43178 0.4079,-3.18878 2.53146,-3.85162 1.57234,-0.49058 4.71565,-0.42305 4.71565,-0.42305 v 5.11114 c 0,0 -2.32751,-0.20395 -3.12539,0.61736 -0.49748,0.51263 -0.45751,1.75562 -0.45751,1.75562 l 0.0358,12.70827 z m 0,0"
     id="path521"
     style="stroke-width:0.352778" />
</svg>
